<?xml version="1.0" encoding="utf-8"?>
<xmeml version="4">
  <sequence>
    <uuid>OrionEp12_timeline</uuid>
    <duration>22359</duration>
    <name>OrionEp12_timeline</name>
    <rate>
      <timebase>30</timebase>
      <ntsc>TRUE</ntsc>
    </rate>
    <media>
      <video>
        <format/>
      </video>
      <audio>
        <track>
          <clipitem id="clipitem-1">
            <name>OrionEp12_001.mp3</name>
            <enabled>TRUE</enabled>
            <duration>226</duration>
            <rate>
              <timebase>30</timebase>
              <ntsc>TRUE</ntsc>
            </rate>
            <start>0</start>
            <end>226</end>
            <in>0</in>
            <out>226</out>
            <file id="file-1">
              <name>OrionEp12_001.mp3</name>
              <pathurl>file:///Users/hiroshikodera/repos/_active/tools/davinciauto/projects/OrionEp12/output/audio/OrionEp12_001.mp3</pathurl>
              <rate>
                <timebase>24000</timebase>
                <ntsc>FALSE</ntsc>
              </rate>
              <media>
                <audio>
                  <channelcount>1</channelcount>
                  <samplecharacteristics>
                    <samplerate>24000</samplerate>
                    <samplesize>16</samplesize>
                  </samplecharacteristics>
                </audio>
              </media>
            </file>
            <sourcetrack>
              <mediatype>audio</mediatype>
              <trackindex>1</trackindex>
            </sourcetrack>
            <filter>
              <enabled>TRUE</enabled>
              <start>0</start>
              <end>226</end>
              <effect>
                <name>Audio Levels</name>
                <effectid>audiolevels</effectid>
                <effecttype>audiolevels</effecttype>
                <mediatype>audio</mediatype>
                <effectcategory>audiolevels</effectcategory>
                <parameter>
                  <name>Level</name>
                  <parameterid>level</parameterid>
                  <value>1</value>
                  <valuemin>0</valuemin>
                  <valuemax>3.98109</valuemax>
                </parameter>
              </effect>
            </filter>
            <filter>
              <enabled>TRUE</enabled>
              <start>0</start>
              <end>226</end>
              <effect>
                <name>Audio Pan</name>
                <effectid>audiopan</effectid>
                <effecttype>audiopan</effecttype>
                <mediatype>audio</mediatype>
                <effectcategory>audiopan</effectcategory>
                <parameter>
                  <name>Pan</name>
                  <parameterid>pan</parameterid>
                  <value>0</value>
                  <valuemin>-1</valuemin>
                  <valuemax>1</valuemax>
                </parameter>
              </effect>
            </filter>
            <comments/>
          </clipitem>
          <clipitem id="clipitem-2">
            <name>OrionEp12_002.mp3</name>
            <enabled>TRUE</enabled>
            <duration>219</duration>
            <rate>
              <timebase>30</timebase>
              <ntsc>TRUE</ntsc>
            </rate>
            <start>226</start>
            <end>445</end>
            <in>0</in>
            <out>219</out>
            <file id="file-2">
              <name>OrionEp12_002.mp3</name>
              <pathurl>file:///Users/hiroshikodera/repos/_active/tools/davinciauto/projects/OrionEp12/output/audio/OrionEp12_002.mp3</pathurl>
              <rate>
                <timebase>24000</timebase>
                <ntsc>FALSE</ntsc>
              </rate>
              <media>
                <audio>
                  <channelcount>1</channelcount>
                  <samplecharacteristics>
                    <samplerate>24000</samplerate>
                    <samplesize>16</samplesize>
                  </samplecharacteristics>
                </audio>
              </media>
            </file>
            <sourcetrack>
              <mediatype>audio</mediatype>
              <trackindex>1</trackindex>
            </sourcetrack>
            <filter>
              <enabled>TRUE</enabled>
              <start>0</start>
              <end>219</end>
              <effect>
                <name>Audio Levels</name>
                <effectid>audiolevels</effectid>
                <effecttype>audiolevels</effecttype>
                <mediatype>audio</mediatype>
                <effectcategory>audiolevels</effectcategory>
                <parameter>
                  <name>Level</name>
                  <parameterid>level</parameterid>
                  <value>1</value>
                  <valuemin>0</valuemin>
                  <valuemax>3.98109</valuemax>
                </parameter>
              </effect>
            </filter>
            <filter>
              <enabled>TRUE</enabled>
              <start>0</start>
              <end>219</end>
              <effect>
                <name>Audio Pan</name>
                <effectid>audiopan</effectid>
                <effecttype>audiopan</effecttype>
                <mediatype>audio</mediatype>
                <effectcategory>audiopan</effectcategory>
                <parameter>
                  <name>Pan</name>
                  <parameterid>pan</parameterid>
                  <value>0</value>
                  <valuemin>-1</valuemin>
                  <valuemax>1</valuemax>
                </parameter>
              </effect>
            </filter>
            <comments/>
          </clipitem>
          <clipitem id="clipitem-3">
            <name>OrionEp12_003.mp3</name>
            <enabled>TRUE</enabled>
            <duration>204</duration>
            <rate>
              <timebase>30</timebase>
              <ntsc>TRUE</ntsc>
            </rate>
            <start>445</start>
            <end>649</end>
            <in>0</in>
            <out>204</out>
            <file id="file-3">
              <name>OrionEp12_003.mp3</name>
              <pathurl>file:///Users/hiroshikodera/repos/_active/tools/davinciauto/projects/OrionEp12/output/audio/OrionEp12_003.mp3</pathurl>
              <rate>
                <timebase>24000</timebase>
                <ntsc>FALSE</ntsc>
              </rate>
              <media>
                <audio>
                  <channelcount>1</channelcount>
                  <samplecharacteristics>
                    <samplerate>24000</samplerate>
                    <samplesize>16</samplesize>
                  </samplecharacteristics>
                </audio>
              </media>
            </file>
            <sourcetrack>
              <mediatype>audio</mediatype>
              <trackindex>1</trackindex>
            </sourcetrack>
            <filter>
              <enabled>TRUE</enabled>
              <start>0</start>
              <end>204</end>
              <effect>
                <name>Audio Levels</name>
                <effectid>audiolevels</effectid>
                <effecttype>audiolevels</effecttype>
                <mediatype>audio</mediatype>
                <effectcategory>audiolevels</effectcategory>
                <parameter>
                  <name>Level</name>
                  <parameterid>level</parameterid>
                  <value>1</value>
                  <valuemin>0</valuemin>
                  <valuemax>3.98109</valuemax>
                </parameter>
              </effect>
            </filter>
            <filter>
              <enabled>TRUE</enabled>
              <start>0</start>
              <end>204</end>
              <effect>
                <name>Audio Pan</name>
                <effectid>audiopan</effectid>
                <effecttype>audiopan</effecttype>
                <mediatype>audio</mediatype>
                <effectcategory>audiopan</effectcategory>
                <parameter>
                  <name>Pan</name>
                  <parameterid>pan</parameterid>
                  <value>0</value>
                  <valuemin>-1</valuemin>
                  <valuemax>1</valuemax>
                </parameter>
              </effect>
            </filter>
            <comments/>
          </clipitem>
          <clipitem id="clipitem-4">
            <name>OrionEp12_004.mp3</name>
            <enabled>TRUE</enabled>
            <duration>72</duration>
            <rate>
              <timebase>30</timebase>
              <ntsc>TRUE</ntsc>
            </rate>
            <start>649</start>
            <end>721</end>
            <in>0</in>
            <out>72</out>
            <file id="file-4">
              <name>OrionEp12_004.mp3</name>
              <pathurl>file:///Users/hiroshikodera/repos/_active/tools/davinciauto/projects/OrionEp12/output/audio/OrionEp12_004.mp3</pathurl>
              <rate>
                <timebase>24000</timebase>
                <ntsc>FALSE</ntsc>
              </rate>
              <media>
                <audio>
                  <channelcount>1</channelcount>
                  <samplecharacteristics>
                    <samplerate>24000</samplerate>
                    <samplesize>16</samplesize>
                  </samplecharacteristics>
                </audio>
              </media>
            </file>
            <sourcetrack>
              <mediatype>audio</mediatype>
              <trackindex>1</trackindex>
            </sourcetrack>
            <filter>
              <enabled>TRUE</enabled>
              <start>0</start>
              <end>72</end>
              <effect>
                <name>Audio Levels</name>
                <effectid>audiolevels</effectid>
                <effecttype>audiolevels</effecttype>
                <mediatype>audio</mediatype>
                <effectcategory>audiolevels</effectcategory>
                <parameter>
                  <name>Level</name>
                  <parameterid>level</parameterid>
                  <value>1</value>
                  <valuemin>0</valuemin>
                  <valuemax>3.98109</valuemax>
                </parameter>
              </effect>
            </filter>
            <filter>
              <enabled>TRUE</enabled>
              <start>0</start>
              <end>72</end>
              <effect>
                <name>Audio Pan</name>
                <effectid>audiopan</effectid>
                <effecttype>audiopan</effecttype>
                <mediatype>audio</mediatype>
                <effectcategory>audiopan</effectcategory>
                <parameter>
                  <name>Pan</name>
                  <parameterid>pan</parameterid>
                  <value>0</value>
                  <valuemin>-1</valuemin>
                  <valuemax>1</valuemax>
                </parameter>
              </effect>
            </filter>
            <comments/>
          </clipitem>
          <clipitem id="clipitem-5">
            <name>OrionEp12_005.mp3</name>
            <enabled>TRUE</enabled>
            <duration>144</duration>
            <rate>
              <timebase>30</timebase>
              <ntsc>TRUE</ntsc>
            </rate>
            <start>721</start>
            <end>865</end>
            <in>0</in>
            <out>144</out>
            <file id="file-5">
              <name>OrionEp12_005.mp3</name>
              <pathurl>file:///Users/hiroshikodera/repos/_active/tools/davinciauto/projects/OrionEp12/output/audio/OrionEp12_005.mp3</pathurl>
              <rate>
                <timebase>24000</timebase>
                <ntsc>FALSE</ntsc>
              </rate>
              <media>
                <audio>
                  <channelcount>1</channelcount>
                  <samplecharacteristics>
                    <samplerate>24000</samplerate>
                    <samplesize>16</samplesize>
                  </samplecharacteristics>
                </audio>
              </media>
            </file>
            <sourcetrack>
              <mediatype>audio</mediatype>
              <trackindex>1</trackindex>
            </sourcetrack>
            <filter>
              <enabled>TRUE</enabled>
              <start>0</start>
              <end>144</end>
              <effect>
                <name>Audio Levels</name>
                <effectid>audiolevels</effectid>
                <effecttype>audiolevels</effecttype>
                <mediatype>audio</mediatype>
                <effectcategory>audiolevels</effectcategory>
                <parameter>
                  <name>Level</name>
                  <parameterid>level</parameterid>
                  <value>1</value>
                  <valuemin>0</valuemin>
                  <valuemax>3.98109</valuemax>
                </parameter>
              </effect>
            </filter>
            <filter>
              <enabled>TRUE</enabled>
              <start>0</start>
              <end>144</end>
              <effect>
                <name>Audio Pan</name>
                <effectid>audiopan</effectid>
                <effecttype>audiopan</effecttype>
                <mediatype>audio</mediatype>
                <effectcategory>audiopan</effectcategory>
                <parameter>
                  <name>Pan</name>
                  <parameterid>pan</parameterid>
                  <value>0</value>
                  <valuemin>-1</valuemin>
                  <valuemax>1</valuemax>
                </parameter>
              </effect>
            </filter>
            <comments/>
          </clipitem>
          <clipitem id="clipitem-6">
            <name>OrionEp12_006.mp3</name>
            <enabled>TRUE</enabled>
            <duration>124</duration>
            <rate>
              <timebase>30</timebase>
              <ntsc>TRUE</ntsc>
            </rate>
            <start>865</start>
            <end>989</end>
            <in>0</in>
            <out>124</out>
            <file id="file-6">
              <name>OrionEp12_006.mp3</name>
              <pathurl>file:///Users/hiroshikodera/repos/_active/tools/davinciauto/projects/OrionEp12/output/audio/OrionEp12_006.mp3</pathurl>
              <rate>
                <timebase>24000</timebase>
                <ntsc>FALSE</ntsc>
              </rate>
              <media>
                <audio>
                  <channelcount>1</channelcount>
                  <samplecharacteristics>
                    <samplerate>24000</samplerate>
                    <samplesize>16</samplesize>
                  </samplecharacteristics>
                </audio>
              </media>
            </file>
            <sourcetrack>
              <mediatype>audio</mediatype>
              <trackindex>1</trackindex>
            </sourcetrack>
            <filter>
              <enabled>TRUE</enabled>
              <start>0</start>
              <end>124</end>
              <effect>
                <name>Audio Levels</name>
                <effectid>audiolevels</effectid>
                <effecttype>audiolevels</effecttype>
                <mediatype>audio</mediatype>
                <effectcategory>audiolevels</effectcategory>
                <parameter>
                  <name>Level</name>
                  <parameterid>level</parameterid>
                  <value>1</value>
                  <valuemin>0</valuemin>
                  <valuemax>3.98109</valuemax>
                </parameter>
              </effect>
            </filter>
            <filter>
              <enabled>TRUE</enabled>
              <start>0</start>
              <end>124</end>
              <effect>
                <name>Audio Pan</name>
                <effectid>audiopan</effectid>
                <effecttype>audiopan</effecttype>
                <mediatype>audio</mediatype>
                <effectcategory>audiopan</effectcategory>
                <parameter>
                  <name>Pan</name>
                  <parameterid>pan</parameterid>
                  <value>0</value>
                  <valuemin>-1</valuemin>
                  <valuemax>1</valuemax>
                </parameter>
              </effect>
            </filter>
            <comments/>
          </clipitem>
          <clipitem id="clipitem-7">
            <name>OrionEp12_007.mp3</name>
            <enabled>TRUE</enabled>
            <duration>173</duration>
            <rate>
              <timebase>30</timebase>
              <ntsc>TRUE</ntsc>
            </rate>
            <start>989</start>
            <end>1162</end>
            <in>0</in>
            <out>173</out>
            <file id="file-7">
              <name>OrionEp12_007.mp3</name>
              <pathurl>file:///Users/hiroshikodera/repos/_active/tools/davinciauto/projects/OrionEp12/output/audio/OrionEp12_007.mp3</pathurl>
              <rate>
                <timebase>24000</timebase>
                <ntsc>FALSE</ntsc>
              </rate>
              <media>
                <audio>
                  <channelcount>1</channelcount>
                  <samplecharacteristics>
                    <samplerate>24000</samplerate>
                    <samplesize>16</samplesize>
                  </samplecharacteristics>
                </audio>
              </media>
            </file>
            <sourcetrack>
              <mediatype>audio</mediatype>
              <trackindex>1</trackindex>
            </sourcetrack>
            <filter>
              <enabled>TRUE</enabled>
              <start>0</start>
              <end>173</end>
              <effect>
                <name>Audio Levels</name>
                <effectid>audiolevels</effectid>
                <effecttype>audiolevels</effecttype>
                <mediatype>audio</mediatype>
                <effectcategory>audiolevels</effectcategory>
                <parameter>
                  <name>Level</name>
                  <parameterid>level</parameterid>
                  <value>1</value>
                  <valuemin>0</valuemin>
                  <valuemax>3.98109</valuemax>
                </parameter>
              </effect>
            </filter>
            <filter>
              <enabled>TRUE</enabled>
              <start>0</start>
              <end>173</end>
              <effect>
                <name>Audio Pan</name>
                <effectid>audiopan</effectid>
                <effecttype>audiopan</effecttype>
                <mediatype>audio</mediatype>
                <effectcategory>audiopan</effectcategory>
                <parameter>
                  <name>Pan</name>
                  <parameterid>pan</parameterid>
                  <value>0</value>
                  <valuemin>-1</valuemin>
                  <valuemax>1</valuemax>
                </parameter>
              </effect>
            </filter>
            <comments/>
          </clipitem>
          <clipitem id="clipitem-8">
            <name>OrionEp12_008.mp3</name>
            <enabled>TRUE</enabled>
            <duration>184</duration>
            <rate>
              <timebase>30</timebase>
              <ntsc>TRUE</ntsc>
            </rate>
            <start>1162</start>
            <end>1346</end>
            <in>0</in>
            <out>184</out>
            <file id="file-8">
              <name>OrionEp12_008.mp3</name>
              <pathurl>file:///Users/hiroshikodera/repos/_active/tools/davinciauto/projects/OrionEp12/output/audio/OrionEp12_008.mp3</pathurl>
              <rate>
                <timebase>24000</timebase>
                <ntsc>FALSE</ntsc>
              </rate>
              <media>
                <audio>
                  <channelcount>1</channelcount>
                  <samplecharacteristics>
                    <samplerate>24000</samplerate>
                    <samplesize>16</samplesize>
                  </samplecharacteristics>
                </audio>
              </media>
            </file>
            <sourcetrack>
              <mediatype>audio</mediatype>
              <trackindex>1</trackindex>
            </sourcetrack>
            <filter>
              <enabled>TRUE</enabled>
              <start>0</start>
              <end>184</end>
              <effect>
                <name>Audio Levels</name>
                <effectid>audiolevels</effectid>
                <effecttype>audiolevels</effecttype>
                <mediatype>audio</mediatype>
                <effectcategory>audiolevels</effectcategory>
                <parameter>
                  <name>Level</name>
                  <parameterid>level</parameterid>
                  <value>1</value>
                  <valuemin>0</valuemin>
                  <valuemax>3.98109</valuemax>
                </parameter>
              </effect>
            </filter>
            <filter>
              <enabled>TRUE</enabled>
              <start>0</start>
              <end>184</end>
              <effect>
                <name>Audio Pan</name>
                <effectid>audiopan</effectid>
                <effecttype>audiopan</effecttype>
                <mediatype>audio</mediatype>
                <effectcategory>audiopan</effectcategory>
                <parameter>
                  <name>Pan</name>
                  <parameterid>pan</parameterid>
                  <value>0</value>
                  <valuemin>-1</valuemin>
                  <valuemax>1</valuemax>
                </parameter>
              </effect>
            </filter>
            <comments/>
          </clipitem>
          <clipitem id="clipitem-9">
            <name>OrionEp12_009.mp3</name>
            <enabled>TRUE</enabled>
            <duration>147</duration>
            <rate>
              <timebase>30</timebase>
              <ntsc>TRUE</ntsc>
            </rate>
            <start>1346</start>
            <end>1493</end>
            <in>0</in>
            <out>147</out>
            <file id="file-9">
              <name>OrionEp12_009.mp3</name>
              <pathurl>file:///Users/hiroshikodera/repos/_active/tools/davinciauto/projects/OrionEp12/output/audio/OrionEp12_009.mp3</pathurl>
              <rate>
                <timebase>24000</timebase>
                <ntsc>FALSE</ntsc>
              </rate>
              <media>
                <audio>
                  <channelcount>1</channelcount>
                  <samplecharacteristics>
                    <samplerate>24000</samplerate>
                    <samplesize>16</samplesize>
                  </samplecharacteristics>
                </audio>
              </media>
            </file>
            <sourcetrack>
              <mediatype>audio</mediatype>
              <trackindex>1</trackindex>
            </sourcetrack>
            <filter>
              <enabled>TRUE</enabled>
              <start>0</start>
              <end>147</end>
              <effect>
                <name>Audio Levels</name>
                <effectid>audiolevels</effectid>
                <effecttype>audiolevels</effecttype>
                <mediatype>audio</mediatype>
                <effectcategory>audiolevels</effectcategory>
                <parameter>
                  <name>Level</name>
                  <parameterid>level</parameterid>
                  <value>1</value>
                  <valuemin>0</valuemin>
                  <valuemax>3.98109</valuemax>
                </parameter>
              </effect>
            </filter>
            <filter>
              <enabled>TRUE</enabled>
              <start>0</start>
              <end>147</end>
              <effect>
                <name>Audio Pan</name>
                <effectid>audiopan</effectid>
                <effecttype>audiopan</effecttype>
                <mediatype>audio</mediatype>
                <effectcategory>audiopan</effectcategory>
                <parameter>
                  <name>Pan</name>
                  <parameterid>pan</parameterid>
                  <value>0</value>
                  <valuemin>-1</valuemin>
                  <valuemax>1</valuemax>
                </parameter>
              </effect>
            </filter>
            <comments/>
          </clipitem>
          <clipitem id="clipitem-10">
            <name>OrionEp12_010.mp3</name>
            <enabled>TRUE</enabled>
            <duration>192</duration>
            <rate>
              <timebase>30</timebase>
              <ntsc>TRUE</ntsc>
            </rate>
            <start>1583</start>
            <end>1775</end>
            <in>0</in>
            <out>192</out>
            <file id="file-10">
              <name>OrionEp12_010.mp3</name>
              <pathurl>file:///Users/hiroshikodera/repos/_active/tools/davinciauto/projects/OrionEp12/output/audio/OrionEp12_010.mp3</pathurl>
              <rate>
                <timebase>24000</timebase>
                <ntsc>FALSE</ntsc>
              </rate>
              <media>
                <audio>
                  <channelcount>1</channelcount>
                  <samplecharacteristics>
                    <samplerate>24000</samplerate>
                    <samplesize>16</samplesize>
                  </samplecharacteristics>
                </audio>
              </media>
            </file>
            <sourcetrack>
              <mediatype>audio</mediatype>
              <trackindex>1</trackindex>
            </sourcetrack>
            <filter>
              <enabled>TRUE</enabled>
              <start>0</start>
              <end>192</end>
              <effect>
                <name>Audio Levels</name>
                <effectid>audiolevels</effectid>
                <effecttype>audiolevels</effecttype>
                <mediatype>audio</mediatype>
                <effectcategory>audiolevels</effectcategory>
                <parameter>
                  <name>Level</name>
                  <parameterid>level</parameterid>
                  <value>1</value>
                  <valuemin>0</valuemin>
                  <valuemax>3.98109</valuemax>
                </parameter>
              </effect>
            </filter>
            <filter>
              <enabled>TRUE</enabled>
              <start>0</start>
              <end>192</end>
              <effect>
                <name>Audio Pan</name>
                <effectid>audiopan</effectid>
                <effecttype>audiopan</effecttype>
                <mediatype>audio</mediatype>
                <effectcategory>audiopan</effectcategory>
                <parameter>
                  <name>Pan</name>
                  <parameterid>pan</parameterid>
                  <value>0</value>
                  <valuemin>-1</valuemin>
                  <valuemax>1</valuemax>
                </parameter>
              </effect>
            </filter>
            <comments/>
          </clipitem>
          <clipitem id="clipitem-11">
            <name>OrionEp12_011.mp3</name>
            <enabled>TRUE</enabled>
            <duration>235</duration>
            <rate>
              <timebase>30</timebase>
              <ntsc>TRUE</ntsc>
            </rate>
            <start>1775</start>
            <end>2010</end>
            <in>0</in>
            <out>235</out>
            <file id="file-11">
              <name>OrionEp12_011.mp3</name>
              <pathurl>file:///Users/hiroshikodera/repos/_active/tools/davinciauto/projects/OrionEp12/output/audio/OrionEp12_011.mp3</pathurl>
              <rate>
                <timebase>24000</timebase>
                <ntsc>FALSE</ntsc>
              </rate>
              <media>
                <audio>
                  <channelcount>1</channelcount>
                  <samplecharacteristics>
                    <samplerate>24000</samplerate>
                    <samplesize>16</samplesize>
                  </samplecharacteristics>
                </audio>
              </media>
            </file>
            <sourcetrack>
              <mediatype>audio</mediatype>
              <trackindex>1</trackindex>
            </sourcetrack>
            <filter>
              <enabled>TRUE</enabled>
              <start>0</start>
              <end>235</end>
              <effect>
                <name>Audio Levels</name>
                <effectid>audiolevels</effectid>
                <effecttype>audiolevels</effecttype>
                <mediatype>audio</mediatype>
                <effectcategory>audiolevels</effectcategory>
                <parameter>
                  <name>Level</name>
                  <parameterid>level</parameterid>
                  <value>1</value>
                  <valuemin>0</valuemin>
                  <valuemax>3.98109</valuemax>
                </parameter>
              </effect>
            </filter>
            <filter>
              <enabled>TRUE</enabled>
              <start>0</start>
              <end>235</end>
              <effect>
                <name>Audio Pan</name>
                <effectid>audiopan</effectid>
                <effecttype>audiopan</effecttype>
                <mediatype>audio</mediatype>
                <effectcategory>audiopan</effectcategory>
                <parameter>
                  <name>Pan</name>
                  <parameterid>pan</parameterid>
                  <value>0</value>
                  <valuemin>-1</valuemin>
                  <valuemax>1</valuemax>
                </parameter>
              </effect>
            </filter>
            <comments/>
          </clipitem>
          <clipitem id="clipitem-12">
            <name>OrionEp12_012.mp3</name>
            <enabled>TRUE</enabled>
            <duration>394</duration>
            <rate>
              <timebase>30</timebase>
              <ntsc>TRUE</ntsc>
            </rate>
            <start>2010</start>
            <end>2404</end>
            <in>0</in>
            <out>394</out>
            <file id="file-12">
              <name>OrionEp12_012.mp3</name>
              <pathurl>file:///Users/hiroshikodera/repos/_active/tools/davinciauto/projects/OrionEp12/output/audio/OrionEp12_012.mp3</pathurl>
              <rate>
                <timebase>24000</timebase>
                <ntsc>FALSE</ntsc>
              </rate>
              <media>
                <audio>
                  <channelcount>1</channelcount>
                  <samplecharacteristics>
                    <samplerate>24000</samplerate>
                    <samplesize>16</samplesize>
                  </samplecharacteristics>
                </audio>
              </media>
            </file>
            <sourcetrack>
              <mediatype>audio</mediatype>
              <trackindex>1</trackindex>
            </sourcetrack>
            <filter>
              <enabled>TRUE</enabled>
              <start>0</start>
              <end>394</end>
              <effect>
                <name>Audio Levels</name>
                <effectid>audiolevels</effectid>
                <effecttype>audiolevels</effecttype>
                <mediatype>audio</mediatype>
                <effectcategory>audiolevels</effectcategory>
                <parameter>
                  <name>Level</name>
                  <parameterid>level</parameterid>
                  <value>1</value>
                  <valuemin>0</valuemin>
                  <valuemax>3.98109</valuemax>
                </parameter>
              </effect>
            </filter>
            <filter>
              <enabled>TRUE</enabled>
              <start>0</start>
              <end>394</end>
              <effect>
                <name>Audio Pan</name>
                <effectid>audiopan</effectid>
                <effecttype>audiopan</effecttype>
                <mediatype>audio</mediatype>
                <effectcategory>audiopan</effectcategory>
                <parameter>
                  <name>Pan</name>
                  <parameterid>pan</parameterid>
                  <value>0</value>
                  <valuemin>-1</valuemin>
                  <valuemax>1</valuemax>
                </parameter>
              </effect>
            </filter>
            <comments/>
          </clipitem>
          <clipitem id="clipitem-13">
            <name>OrionEp12_013.mp3</name>
            <enabled>TRUE</enabled>
            <duration>106</duration>
            <rate>
              <timebase>30</timebase>
              <ntsc>TRUE</ntsc>
            </rate>
            <start>2404</start>
            <end>2510</end>
            <in>0</in>
            <out>106</out>
            <file id="file-13">
              <name>OrionEp12_013.mp3</name>
              <pathurl>file:///Users/hiroshikodera/repos/_active/tools/davinciauto/projects/OrionEp12/output/audio/OrionEp12_013.mp3</pathurl>
              <rate>
                <timebase>24000</timebase>
                <ntsc>FALSE</ntsc>
              </rate>
              <media>
                <audio>
                  <channelcount>1</channelcount>
                  <samplecharacteristics>
                    <samplerate>24000</samplerate>
                    <samplesize>16</samplesize>
                  </samplecharacteristics>
                </audio>
              </media>
            </file>
            <sourcetrack>
              <mediatype>audio</mediatype>
              <trackindex>1</trackindex>
            </sourcetrack>
            <filter>
              <enabled>TRUE</enabled>
              <start>0</start>
              <end>106</end>
              <effect>
                <name>Audio Levels</name>
                <effectid>audiolevels</effectid>
                <effecttype>audiolevels</effecttype>
                <mediatype>audio</mediatype>
                <effectcategory>audiolevels</effectcategory>
                <parameter>
                  <name>Level</name>
                  <parameterid>level</parameterid>
                  <value>1</value>
                  <valuemin>0</valuemin>
                  <valuemax>3.98109</valuemax>
                </parameter>
              </effect>
            </filter>
            <filter>
              <enabled>TRUE</enabled>
              <start>0</start>
              <end>106</end>
              <effect>
                <name>Audio Pan</name>
                <effectid>audiopan</effectid>
                <effecttype>audiopan</effecttype>
                <mediatype>audio</mediatype>
                <effectcategory>audiopan</effectcategory>
                <parameter>
                  <name>Pan</name>
                  <parameterid>pan</parameterid>
                  <value>0</value>
                  <valuemin>-1</valuemin>
                  <valuemax>1</valuemax>
                </parameter>
              </effect>
            </filter>
            <comments/>
          </clipitem>
          <clipitem id="clipitem-14">
            <name>OrionEp12_014.mp3</name>
            <enabled>TRUE</enabled>
            <duration>342</duration>
            <rate>
              <timebase>30</timebase>
              <ntsc>TRUE</ntsc>
            </rate>
            <start>2510</start>
            <end>2852</end>
            <in>0</in>
            <out>342</out>
            <file id="file-14">
              <name>OrionEp12_014.mp3</name>
              <pathurl>file:///Users/hiroshikodera/repos/_active/tools/davinciauto/projects/OrionEp12/output/audio/OrionEp12_014.mp3</pathurl>
              <rate>
                <timebase>24000</timebase>
                <ntsc>FALSE</ntsc>
              </rate>
              <media>
                <audio>
                  <channelcount>1</channelcount>
                  <samplecharacteristics>
                    <samplerate>24000</samplerate>
                    <samplesize>16</samplesize>
                  </samplecharacteristics>
                </audio>
              </media>
            </file>
            <sourcetrack>
              <mediatype>audio</mediatype>
              <trackindex>1</trackindex>
            </sourcetrack>
            <filter>
              <enabled>TRUE</enabled>
              <start>0</start>
              <end>342</end>
              <effect>
                <name>Audio Levels</name>
                <effectid>audiolevels</effectid>
                <effecttype>audiolevels</effecttype>
                <mediatype>audio</mediatype>
                <effectcategory>audiolevels</effectcategory>
                <parameter>
                  <name>Level</name>
                  <parameterid>level</parameterid>
                  <value>1</value>
                  <valuemin>0</valuemin>
                  <valuemax>3.98109</valuemax>
                </parameter>
              </effect>
            </filter>
            <filter>
              <enabled>TRUE</enabled>
              <start>0</start>
              <end>342</end>
              <effect>
                <name>Audio Pan</name>
                <effectid>audiopan</effectid>
                <effecttype>audiopan</effecttype>
                <mediatype>audio</mediatype>
                <effectcategory>audiopan</effectcategory>
                <parameter>
                  <name>Pan</name>
                  <parameterid>pan</parameterid>
                  <value>0</value>
                  <valuemin>-1</valuemin>
                  <valuemax>1</valuemax>
                </parameter>
              </effect>
            </filter>
            <comments/>
          </clipitem>
          <clipitem id="clipitem-15">
            <name>OrionEp12_015.mp3</name>
            <enabled>TRUE</enabled>
            <duration>292</duration>
            <rate>
              <timebase>30</timebase>
              <ntsc>TRUE</ntsc>
            </rate>
            <start>2852</start>
            <end>3144</end>
            <in>0</in>
            <out>292</out>
            <file id="file-15">
              <name>OrionEp12_015.mp3</name>
              <pathurl>file:///Users/hiroshikodera/repos/_active/tools/davinciauto/projects/OrionEp12/output/audio/OrionEp12_015.mp3</pathurl>
              <rate>
                <timebase>24000</timebase>
                <ntsc>FALSE</ntsc>
              </rate>
              <media>
                <audio>
                  <channelcount>1</channelcount>
                  <samplecharacteristics>
                    <samplerate>24000</samplerate>
                    <samplesize>16</samplesize>
                  </samplecharacteristics>
                </audio>
              </media>
            </file>
            <sourcetrack>
              <mediatype>audio</mediatype>
              <trackindex>1</trackindex>
            </sourcetrack>
            <filter>
              <enabled>TRUE</enabled>
              <start>0</start>
              <end>292</end>
              <effect>
                <name>Audio Levels</name>
                <effectid>audiolevels</effectid>
                <effecttype>audiolevels</effecttype>
                <mediatype>audio</mediatype>
                <effectcategory>audiolevels</effectcategory>
                <parameter>
                  <name>Level</name>
                  <parameterid>level</parameterid>
                  <value>1</value>
                  <valuemin>0</valuemin>
                  <valuemax>3.98109</valuemax>
                </parameter>
              </effect>
            </filter>
            <filter>
              <enabled>TRUE</enabled>
              <start>0</start>
              <end>292</end>
              <effect>
                <name>Audio Pan</name>
                <effectid>audiopan</effectid>
                <effecttype>audiopan</effecttype>
                <mediatype>audio</mediatype>
                <effectcategory>audiopan</effectcategory>
                <parameter>
                  <name>Pan</name>
                  <parameterid>pan</parameterid>
                  <value>0</value>
                  <valuemin>-1</valuemin>
                  <valuemax>1</valuemax>
                </parameter>
              </effect>
            </filter>
            <comments/>
          </clipitem>
          <clipitem id="clipitem-16">
            <name>OrionEp12_016.mp3</name>
            <enabled>TRUE</enabled>
            <duration>244</duration>
            <rate>
              <timebase>30</timebase>
              <ntsc>TRUE</ntsc>
            </rate>
            <start>3144</start>
            <end>3388</end>
            <in>0</in>
            <out>244</out>
            <file id="file-16">
              <name>OrionEp12_016.mp3</name>
              <pathurl>file:///Users/hiroshikodera/repos/_active/tools/davinciauto/projects/OrionEp12/output/audio/OrionEp12_016.mp3</pathurl>
              <rate>
                <timebase>24000</timebase>
                <ntsc>FALSE</ntsc>
              </rate>
              <media>
                <audio>
                  <channelcount>1</channelcount>
                  <samplecharacteristics>
                    <samplerate>24000</samplerate>
                    <samplesize>16</samplesize>
                  </samplecharacteristics>
                </audio>
              </media>
            </file>
            <sourcetrack>
              <mediatype>audio</mediatype>
              <trackindex>1</trackindex>
            </sourcetrack>
            <filter>
              <enabled>TRUE</enabled>
              <start>0</start>
              <end>244</end>
              <effect>
                <name>Audio Levels</name>
                <effectid>audiolevels</effectid>
                <effecttype>audiolevels</effecttype>
                <mediatype>audio</mediatype>
                <effectcategory>audiolevels</effectcategory>
                <parameter>
                  <name>Level</name>
                  <parameterid>level</parameterid>
                  <value>1</value>
                  <valuemin>0</valuemin>
                  <valuemax>3.98109</valuemax>
                </parameter>
              </effect>
            </filter>
            <filter>
              <enabled>TRUE</enabled>
              <start>0</start>
              <end>244</end>
              <effect>
                <name>Audio Pan</name>
                <effectid>audiopan</effectid>
                <effecttype>audiopan</effecttype>
                <mediatype>audio</mediatype>
                <effectcategory>audiopan</effectcategory>
                <parameter>
                  <name>Pan</name>
                  <parameterid>pan</parameterid>
                  <value>0</value>
                  <valuemin>-1</valuemin>
                  <valuemax>1</valuemax>
                </parameter>
              </effect>
            </filter>
            <comments/>
          </clipitem>
          <clipitem id="clipitem-17">
            <name>OrionEp12_017.mp3</name>
            <enabled>TRUE</enabled>
            <duration>386</duration>
            <rate>
              <timebase>30</timebase>
              <ntsc>TRUE</ntsc>
            </rate>
            <start>3478</start>
            <end>3864</end>
            <in>0</in>
            <out>386</out>
            <file id="file-17">
              <name>OrionEp12_017.mp3</name>
              <pathurl>file:///Users/hiroshikodera/repos/_active/tools/davinciauto/projects/OrionEp12/output/audio/OrionEp12_017.mp3</pathurl>
              <rate>
                <timebase>24000</timebase>
                <ntsc>FALSE</ntsc>
              </rate>
              <media>
                <audio>
                  <channelcount>1</channelcount>
                  <samplecharacteristics>
                    <samplerate>24000</samplerate>
                    <samplesize>16</samplesize>
                  </samplecharacteristics>
                </audio>
              </media>
            </file>
            <sourcetrack>
              <mediatype>audio</mediatype>
              <trackindex>1</trackindex>
            </sourcetrack>
            <filter>
              <enabled>TRUE</enabled>
              <start>0</start>
              <end>386</end>
              <effect>
                <name>Audio Levels</name>
                <effectid>audiolevels</effectid>
                <effecttype>audiolevels</effecttype>
                <mediatype>audio</mediatype>
                <effectcategory>audiolevels</effectcategory>
                <parameter>
                  <name>Level</name>
                  <parameterid>level</parameterid>
                  <value>1</value>
                  <valuemin>0</valuemin>
                  <valuemax>3.98109</valuemax>
                </parameter>
              </effect>
            </filter>
            <filter>
              <enabled>TRUE</enabled>
              <start>0</start>
              <end>386</end>
              <effect>
                <name>Audio Pan</name>
                <effectid>audiopan</effectid>
                <effecttype>audiopan</effecttype>
                <mediatype>audio</mediatype>
                <effectcategory>audiopan</effectcategory>
                <parameter>
                  <name>Pan</name>
                  <parameterid>pan</parameterid>
                  <value>0</value>
                  <valuemin>-1</valuemin>
                  <valuemax>1</valuemax>
                </parameter>
              </effect>
            </filter>
            <comments/>
          </clipitem>
          <clipitem id="clipitem-18">
            <name>OrionEp12_018.mp3</name>
            <enabled>TRUE</enabled>
            <duration>144</duration>
            <rate>
              <timebase>30</timebase>
              <ntsc>TRUE</ntsc>
            </rate>
            <start>3864</start>
            <end>4008</end>
            <in>0</in>
            <out>144</out>
            <file id="file-18">
              <name>OrionEp12_018.mp3</name>
              <pathurl>file:///Users/hiroshikodera/repos/_active/tools/davinciauto/projects/OrionEp12/output/audio/OrionEp12_018.mp3</pathurl>
              <rate>
                <timebase>24000</timebase>
                <ntsc>FALSE</ntsc>
              </rate>
              <media>
                <audio>
                  <channelcount>1</channelcount>
                  <samplecharacteristics>
                    <samplerate>24000</samplerate>
                    <samplesize>16</samplesize>
                  </samplecharacteristics>
                </audio>
              </media>
            </file>
            <sourcetrack>
              <mediatype>audio</mediatype>
              <trackindex>1</trackindex>
            </sourcetrack>
            <filter>
              <enabled>TRUE</enabled>
              <start>0</start>
              <end>144</end>
              <effect>
                <name>Audio Levels</name>
                <effectid>audiolevels</effectid>
                <effecttype>audiolevels</effecttype>
                <mediatype>audio</mediatype>
                <effectcategory>audiolevels</effectcategory>
                <parameter>
                  <name>Level</name>
                  <parameterid>level</parameterid>
                  <value>1</value>
                  <valuemin>0</valuemin>
                  <valuemax>3.98109</valuemax>
                </parameter>
              </effect>
            </filter>
            <filter>
              <enabled>TRUE</enabled>
              <start>0</start>
              <end>144</end>
              <effect>
                <name>Audio Pan</name>
                <effectid>audiopan</effectid>
                <effecttype>audiopan</effecttype>
                <mediatype>audio</mediatype>
                <effectcategory>audiopan</effectcategory>
                <parameter>
                  <name>Pan</name>
                  <parameterid>pan</parameterid>
                  <value>0</value>
                  <valuemin>-1</valuemin>
                  <valuemax>1</valuemax>
                </parameter>
              </effect>
            </filter>
            <comments/>
          </clipitem>
          <clipitem id="clipitem-19">
            <name>OrionEp12_019.mp3</name>
            <enabled>TRUE</enabled>
            <duration>492</duration>
            <rate>
              <timebase>30</timebase>
              <ntsc>TRUE</ntsc>
            </rate>
            <start>4008</start>
            <end>4500</end>
            <in>0</in>
            <out>492</out>
            <file id="file-19">
              <name>OrionEp12_019.mp3</name>
              <pathurl>file:///Users/hiroshikodera/repos/_active/tools/davinciauto/projects/OrionEp12/output/audio/OrionEp12_019.mp3</pathurl>
              <rate>
                <timebase>24000</timebase>
                <ntsc>FALSE</ntsc>
              </rate>
              <media>
                <audio>
                  <channelcount>1</channelcount>
                  <samplecharacteristics>
                    <samplerate>24000</samplerate>
                    <samplesize>16</samplesize>
                  </samplecharacteristics>
                </audio>
              </media>
            </file>
            <sourcetrack>
              <mediatype>audio</mediatype>
              <trackindex>1</trackindex>
            </sourcetrack>
            <filter>
              <enabled>TRUE</enabled>
              <start>0</start>
              <end>492</end>
              <effect>
                <name>Audio Levels</name>
                <effectid>audiolevels</effectid>
                <effecttype>audiolevels</effecttype>
                <mediatype>audio</mediatype>
                <effectcategory>audiolevels</effectcategory>
                <parameter>
                  <name>Level</name>
                  <parameterid>level</parameterid>
                  <value>1</value>
                  <valuemin>0</valuemin>
                  <valuemax>3.98109</valuemax>
                </parameter>
              </effect>
            </filter>
            <filter>
              <enabled>TRUE</enabled>
              <start>0</start>
              <end>492</end>
              <effect>
                <name>Audio Pan</name>
                <effectid>audiopan</effectid>
                <effecttype>audiopan</effecttype>
                <mediatype>audio</mediatype>
                <effectcategory>audiopan</effectcategory>
                <parameter>
                  <name>Pan</name>
                  <parameterid>pan</parameterid>
                  <value>0</value>
                  <valuemin>-1</valuemin>
                  <valuemax>1</valuemax>
                </parameter>
              </effect>
            </filter>
            <comments/>
          </clipitem>
          <clipitem id="clipitem-20">
            <name>OrionEp12_020.mp3</name>
            <enabled>TRUE</enabled>
            <duration>281</duration>
            <rate>
              <timebase>30</timebase>
              <ntsc>TRUE</ntsc>
            </rate>
            <start>4500</start>
            <end>4781</end>
            <in>0</in>
            <out>281</out>
            <file id="file-20">
              <name>OrionEp12_020.mp3</name>
              <pathurl>file:///Users/hiroshikodera/repos/_active/tools/davinciauto/projects/OrionEp12/output/audio/OrionEp12_020.mp3</pathurl>
              <rate>
                <timebase>24000</timebase>
                <ntsc>FALSE</ntsc>
              </rate>
              <media>
                <audio>
                  <channelcount>1</channelcount>
                  <samplecharacteristics>
                    <samplerate>24000</samplerate>
                    <samplesize>16</samplesize>
                  </samplecharacteristics>
                </audio>
              </media>
            </file>
            <sourcetrack>
              <mediatype>audio</mediatype>
              <trackindex>1</trackindex>
            </sourcetrack>
            <filter>
              <enabled>TRUE</enabled>
              <start>0</start>
              <end>281</end>
              <effect>
                <name>Audio Levels</name>
                <effectid>audiolevels</effectid>
                <effecttype>audiolevels</effecttype>
                <mediatype>audio</mediatype>
                <effectcategory>audiolevels</effectcategory>
                <parameter>
                  <name>Level</name>
                  <parameterid>level</parameterid>
                  <value>1</value>
                  <valuemin>0</valuemin>
                  <valuemax>3.98109</valuemax>
                </parameter>
              </effect>
            </filter>
            <filter>
              <enabled>TRUE</enabled>
              <start>0</start>
              <end>281</end>
              <effect>
                <name>Audio Pan</name>
                <effectid>audiopan</effectid>
                <effecttype>audiopan</effecttype>
                <mediatype>audio</mediatype>
                <effectcategory>audiopan</effectcategory>
                <parameter>
                  <name>Pan</name>
                  <parameterid>pan</parameterid>
                  <value>0</value>
                  <valuemin>-1</valuemin>
                  <valuemax>1</valuemax>
                </parameter>
              </effect>
            </filter>
            <comments/>
          </clipitem>
          <clipitem id="clipitem-21">
            <name>OrionEp12_021.mp3</name>
            <enabled>TRUE</enabled>
            <duration>185</duration>
            <rate>
              <timebase>30</timebase>
              <ntsc>TRUE</ntsc>
            </rate>
            <start>4781</start>
            <end>4966</end>
            <in>0</in>
            <out>185</out>
            <file id="file-21">
              <name>OrionEp12_021.mp3</name>
              <pathurl>file:///Users/hiroshikodera/repos/_active/tools/davinciauto/projects/OrionEp12/output/audio/OrionEp12_021.mp3</pathurl>
              <rate>
                <timebase>24000</timebase>
                <ntsc>FALSE</ntsc>
              </rate>
              <media>
                <audio>
                  <channelcount>1</channelcount>
                  <samplecharacteristics>
                    <samplerate>24000</samplerate>
                    <samplesize>16</samplesize>
                  </samplecharacteristics>
                </audio>
              </media>
            </file>
            <sourcetrack>
              <mediatype>audio</mediatype>
              <trackindex>1</trackindex>
            </sourcetrack>
            <filter>
              <enabled>TRUE</enabled>
              <start>0</start>
              <end>185</end>
              <effect>
                <name>Audio Levels</name>
                <effectid>audiolevels</effectid>
                <effecttype>audiolevels</effecttype>
                <mediatype>audio</mediatype>
                <effectcategory>audiolevels</effectcategory>
                <parameter>
                  <name>Level</name>
                  <parameterid>level</parameterid>
                  <value>1</value>
                  <valuemin>0</valuemin>
                  <valuemax>3.98109</valuemax>
                </parameter>
              </effect>
            </filter>
            <filter>
              <enabled>TRUE</enabled>
              <start>0</start>
              <end>185</end>
              <effect>
                <name>Audio Pan</name>
                <effectid>audiopan</effectid>
                <effecttype>audiopan</effecttype>
                <mediatype>audio</mediatype>
                <effectcategory>audiopan</effectcategory>
                <parameter>
                  <name>Pan</name>
                  <parameterid>pan</parameterid>
                  <value>0</value>
                  <valuemin>-1</valuemin>
                  <valuemax>1</valuemax>
                </parameter>
              </effect>
            </filter>
            <comments/>
          </clipitem>
          <clipitem id="clipitem-22">
            <name>OrionEp12_022.mp3</name>
            <enabled>TRUE</enabled>
            <duration>126</duration>
            <rate>
              <timebase>30</timebase>
              <ntsc>TRUE</ntsc>
            </rate>
            <start>4966</start>
            <end>5092</end>
            <in>0</in>
            <out>126</out>
            <file id="file-22">
              <name>OrionEp12_022.mp3</name>
              <pathurl>file:///Users/hiroshikodera/repos/_active/tools/davinciauto/projects/OrionEp12/output/audio/OrionEp12_022.mp3</pathurl>
              <rate>
                <timebase>24000</timebase>
                <ntsc>FALSE</ntsc>
              </rate>
              <media>
                <audio>
                  <channelcount>1</channelcount>
                  <samplecharacteristics>
                    <samplerate>24000</samplerate>
                    <samplesize>16</samplesize>
                  </samplecharacteristics>
                </audio>
              </media>
            </file>
            <sourcetrack>
              <mediatype>audio</mediatype>
              <trackindex>1</trackindex>
            </sourcetrack>
            <filter>
              <enabled>TRUE</enabled>
              <start>0</start>
              <end>126</end>
              <effect>
                <name>Audio Levels</name>
                <effectid>audiolevels</effectid>
                <effecttype>audiolevels</effecttype>
                <mediatype>audio</mediatype>
                <effectcategory>audiolevels</effectcategory>
                <parameter>
                  <name>Level</name>
                  <parameterid>level</parameterid>
                  <value>1</value>
                  <valuemin>0</valuemin>
                  <valuemax>3.98109</valuemax>
                </parameter>
              </effect>
            </filter>
            <filter>
              <enabled>TRUE</enabled>
              <start>0</start>
              <end>126</end>
              <effect>
                <name>Audio Pan</name>
                <effectid>audiopan</effectid>
                <effecttype>audiopan</effecttype>
                <mediatype>audio</mediatype>
                <effectcategory>audiopan</effectcategory>
                <parameter>
                  <name>Pan</name>
                  <parameterid>pan</parameterid>
                  <value>0</value>
                  <valuemin>-1</valuemin>
                  <valuemax>1</valuemax>
                </parameter>
              </effect>
            </filter>
            <comments/>
          </clipitem>
          <clipitem id="clipitem-23">
            <name>OrionEp12_023.mp3</name>
            <enabled>TRUE</enabled>
            <duration>201</duration>
            <rate>
              <timebase>30</timebase>
              <ntsc>TRUE</ntsc>
            </rate>
            <start>5092</start>
            <end>5293</end>
            <in>0</in>
            <out>201</out>
            <file id="file-23">
              <name>OrionEp12_023.mp3</name>
              <pathurl>file:///Users/hiroshikodera/repos/_active/tools/davinciauto/projects/OrionEp12/output/audio/OrionEp12_023.mp3</pathurl>
              <rate>
                <timebase>24000</timebase>
                <ntsc>FALSE</ntsc>
              </rate>
              <media>
                <audio>
                  <channelcount>1</channelcount>
                  <samplecharacteristics>
                    <samplerate>24000</samplerate>
                    <samplesize>16</samplesize>
                  </samplecharacteristics>
                </audio>
              </media>
            </file>
            <sourcetrack>
              <mediatype>audio</mediatype>
              <trackindex>1</trackindex>
            </sourcetrack>
            <filter>
              <enabled>TRUE</enabled>
              <start>0</start>
              <end>201</end>
              <effect>
                <name>Audio Levels</name>
                <effectid>audiolevels</effectid>
                <effecttype>audiolevels</effecttype>
                <mediatype>audio</mediatype>
                <effectcategory>audiolevels</effectcategory>
                <parameter>
                  <name>Level</name>
                  <parameterid>level</parameterid>
                  <value>1</value>
                  <valuemin>0</valuemin>
                  <valuemax>3.98109</valuemax>
                </parameter>
              </effect>
            </filter>
            <filter>
              <enabled>TRUE</enabled>
              <start>0</start>
              <end>201</end>
              <effect>
                <name>Audio Pan</name>
                <effectid>audiopan</effectid>
                <effecttype>audiopan</effecttype>
                <mediatype>audio</mediatype>
                <effectcategory>audiopan</effectcategory>
                <parameter>
                  <name>Pan</name>
                  <parameterid>pan</parameterid>
                  <value>0</value>
                  <valuemin>-1</valuemin>
                  <valuemax>1</valuemax>
                </parameter>
              </effect>
            </filter>
            <comments/>
          </clipitem>
          <clipitem id="clipitem-24">
            <name>OrionEp12_024.mp3</name>
            <enabled>TRUE</enabled>
            <duration>379</duration>
            <rate>
              <timebase>30</timebase>
              <ntsc>TRUE</ntsc>
            </rate>
            <start>5293</start>
            <end>5672</end>
            <in>0</in>
            <out>379</out>
            <file id="file-24">
              <name>OrionEp12_024.mp3</name>
              <pathurl>file:///Users/hiroshikodera/repos/_active/tools/davinciauto/projects/OrionEp12/output/audio/OrionEp12_024.mp3</pathurl>
              <rate>
                <timebase>24000</timebase>
                <ntsc>FALSE</ntsc>
              </rate>
              <media>
                <audio>
                  <channelcount>1</channelcount>
                  <samplecharacteristics>
                    <samplerate>24000</samplerate>
                    <samplesize>16</samplesize>
                  </samplecharacteristics>
                </audio>
              </media>
            </file>
            <sourcetrack>
              <mediatype>audio</mediatype>
              <trackindex>1</trackindex>
            </sourcetrack>
            <filter>
              <enabled>TRUE</enabled>
              <start>0</start>
              <end>379</end>
              <effect>
                <name>Audio Levels</name>
                <effectid>audiolevels</effectid>
                <effecttype>audiolevels</effecttype>
                <mediatype>audio</mediatype>
                <effectcategory>audiolevels</effectcategory>
                <parameter>
                  <name>Level</name>
                  <parameterid>level</parameterid>
                  <value>1</value>
                  <valuemin>0</valuemin>
                  <valuemax>3.98109</valuemax>
                </parameter>
              </effect>
            </filter>
            <filter>
              <enabled>TRUE</enabled>
              <start>0</start>
              <end>379</end>
              <effect>
                <name>Audio Pan</name>
                <effectid>audiopan</effectid>
                <effecttype>audiopan</effecttype>
                <mediatype>audio</mediatype>
                <effectcategory>audiopan</effectcategory>
                <parameter>
                  <name>Pan</name>
                  <parameterid>pan</parameterid>
                  <value>0</value>
                  <valuemin>-1</valuemin>
                  <valuemax>1</valuemax>
                </parameter>
              </effect>
            </filter>
            <comments/>
          </clipitem>
          <clipitem id="clipitem-25">
            <name>OrionEp12_025.mp3</name>
            <enabled>TRUE</enabled>
            <duration>618</duration>
            <rate>
              <timebase>30</timebase>
              <ntsc>TRUE</ntsc>
            </rate>
            <start>5672</start>
            <end>6290</end>
            <in>0</in>
            <out>618</out>
            <file id="file-25">
              <name>OrionEp12_025.mp3</name>
              <pathurl>file:///Users/hiroshikodera/repos/_active/tools/davinciauto/projects/OrionEp12/output/audio/OrionEp12_025.mp3</pathurl>
              <rate>
                <timebase>24000</timebase>
                <ntsc>FALSE</ntsc>
              </rate>
              <media>
                <audio>
                  <channelcount>1</channelcount>
                  <samplecharacteristics>
                    <samplerate>24000</samplerate>
                    <samplesize>16</samplesize>
                  </samplecharacteristics>
                </audio>
              </media>
            </file>
            <sourcetrack>
              <mediatype>audio</mediatype>
              <trackindex>1</trackindex>
            </sourcetrack>
            <filter>
              <enabled>TRUE</enabled>
              <start>0</start>
              <end>618</end>
              <effect>
                <name>Audio Levels</name>
                <effectid>audiolevels</effectid>
                <effecttype>audiolevels</effecttype>
                <mediatype>audio</mediatype>
                <effectcategory>audiolevels</effectcategory>
                <parameter>
                  <name>Level</name>
                  <parameterid>level</parameterid>
                  <value>1</value>
                  <valuemin>0</valuemin>
                  <valuemax>3.98109</valuemax>
                </parameter>
              </effect>
            </filter>
            <filter>
              <enabled>TRUE</enabled>
              <start>0</start>
              <end>618</end>
              <effect>
                <name>Audio Pan</name>
                <effectid>audiopan</effectid>
                <effecttype>audiopan</effecttype>
                <mediatype>audio</mediatype>
                <effectcategory>audiopan</effectcategory>
                <parameter>
                  <name>Pan</name>
                  <parameterid>pan</parameterid>
                  <value>0</value>
                  <valuemin>-1</valuemin>
                  <valuemax>1</valuemax>
                </parameter>
              </effect>
            </filter>
            <comments/>
          </clipitem>
          <clipitem id="clipitem-26">
            <name>OrionEp12_026.mp3</name>
            <enabled>TRUE</enabled>
            <duration>253</duration>
            <rate>
              <timebase>30</timebase>
              <ntsc>TRUE</ntsc>
            </rate>
            <start>6290</start>
            <end>6543</end>
            <in>0</in>
            <out>253</out>
            <file id="file-26">
              <name>OrionEp12_026.mp3</name>
              <pathurl>file:///Users/hiroshikodera/repos/_active/tools/davinciauto/projects/OrionEp12/output/audio/OrionEp12_026.mp3</pathurl>
              <rate>
                <timebase>24000</timebase>
                <ntsc>FALSE</ntsc>
              </rate>
              <media>
                <audio>
                  <channelcount>1</channelcount>
                  <samplecharacteristics>
                    <samplerate>24000</samplerate>
                    <samplesize>16</samplesize>
                  </samplecharacteristics>
                </audio>
              </media>
            </file>
            <sourcetrack>
              <mediatype>audio</mediatype>
              <trackindex>1</trackindex>
            </sourcetrack>
            <filter>
              <enabled>TRUE</enabled>
              <start>0</start>
              <end>253</end>
              <effect>
                <name>Audio Levels</name>
                <effectid>audiolevels</effectid>
                <effecttype>audiolevels</effecttype>
                <mediatype>audio</mediatype>
                <effectcategory>audiolevels</effectcategory>
                <parameter>
                  <name>Level</name>
                  <parameterid>level</parameterid>
                  <value>1</value>
                  <valuemin>0</valuemin>
                  <valuemax>3.98109</valuemax>
                </parameter>
              </effect>
            </filter>
            <filter>
              <enabled>TRUE</enabled>
              <start>0</start>
              <end>253</end>
              <effect>
                <name>Audio Pan</name>
                <effectid>audiopan</effectid>
                <effecttype>audiopan</effecttype>
                <mediatype>audio</mediatype>
                <effectcategory>audiopan</effectcategory>
                <parameter>
                  <name>Pan</name>
                  <parameterid>pan</parameterid>
                  <value>0</value>
                  <valuemin>-1</valuemin>
                  <valuemax>1</valuemax>
                </parameter>
              </effect>
            </filter>
            <comments/>
          </clipitem>
          <clipitem id="clipitem-27">
            <name>OrionEp12_027.mp3</name>
            <enabled>TRUE</enabled>
            <duration>135</duration>
            <rate>
              <timebase>30</timebase>
              <ntsc>TRUE</ntsc>
            </rate>
            <start>6543</start>
            <end>6678</end>
            <in>0</in>
            <out>135</out>
            <file id="file-27">
              <name>OrionEp12_027.mp3</name>
              <pathurl>file:///Users/hiroshikodera/repos/_active/tools/davinciauto/projects/OrionEp12/output/audio/OrionEp12_027.mp3</pathurl>
              <rate>
                <timebase>24000</timebase>
                <ntsc>FALSE</ntsc>
              </rate>
              <media>
                <audio>
                  <channelcount>1</channelcount>
                  <samplecharacteristics>
                    <samplerate>24000</samplerate>
                    <samplesize>16</samplesize>
                  </samplecharacteristics>
                </audio>
              </media>
            </file>
            <sourcetrack>
              <mediatype>audio</mediatype>
              <trackindex>1</trackindex>
            </sourcetrack>
            <filter>
              <enabled>TRUE</enabled>
              <start>0</start>
              <end>135</end>
              <effect>
                <name>Audio Levels</name>
                <effectid>audiolevels</effectid>
                <effecttype>audiolevels</effecttype>
                <mediatype>audio</mediatype>
                <effectcategory>audiolevels</effectcategory>
                <parameter>
                  <name>Level</name>
                  <parameterid>level</parameterid>
                  <value>1</value>
                  <valuemin>0</valuemin>
                  <valuemax>3.98109</valuemax>
                </parameter>
              </effect>
            </filter>
            <filter>
              <enabled>TRUE</enabled>
              <start>0</start>
              <end>135</end>
              <effect>
                <name>Audio Pan</name>
                <effectid>audiopan</effectid>
                <effecttype>audiopan</effecttype>
                <mediatype>audio</mediatype>
                <effectcategory>audiopan</effectcategory>
                <parameter>
                  <name>Pan</name>
                  <parameterid>pan</parameterid>
                  <value>0</value>
                  <valuemin>-1</valuemin>
                  <valuemax>1</valuemax>
                </parameter>
              </effect>
            </filter>
            <comments/>
          </clipitem>
          <clipitem id="clipitem-28">
            <name>OrionEp12_028.mp3</name>
            <enabled>TRUE</enabled>
            <duration>400</duration>
            <rate>
              <timebase>30</timebase>
              <ntsc>TRUE</ntsc>
            </rate>
            <start>6768</start>
            <end>7168</end>
            <in>0</in>
            <out>400</out>
            <file id="file-28">
              <name>OrionEp12_028.mp3</name>
              <pathurl>file:///Users/hiroshikodera/repos/_active/tools/davinciauto/projects/OrionEp12/output/audio/OrionEp12_028.mp3</pathurl>
              <rate>
                <timebase>24000</timebase>
                <ntsc>FALSE</ntsc>
              </rate>
              <media>
                <audio>
                  <channelcount>1</channelcount>
                  <samplecharacteristics>
                    <samplerate>24000</samplerate>
                    <samplesize>16</samplesize>
                  </samplecharacteristics>
                </audio>
              </media>
            </file>
            <sourcetrack>
              <mediatype>audio</mediatype>
              <trackindex>1</trackindex>
            </sourcetrack>
            <filter>
              <enabled>TRUE</enabled>
              <start>0</start>
              <end>400</end>
              <effect>
                <name>Audio Levels</name>
                <effectid>audiolevels</effectid>
                <effecttype>audiolevels</effecttype>
                <mediatype>audio</mediatype>
                <effectcategory>audiolevels</effectcategory>
                <parameter>
                  <name>Level</name>
                  <parameterid>level</parameterid>
                  <value>1</value>
                  <valuemin>0</valuemin>
                  <valuemax>3.98109</valuemax>
                </parameter>
              </effect>
            </filter>
            <filter>
              <enabled>TRUE</enabled>
              <start>0</start>
              <end>400</end>
              <effect>
                <name>Audio Pan</name>
                <effectid>audiopan</effectid>
                <effecttype>audiopan</effecttype>
                <mediatype>audio</mediatype>
                <effectcategory>audiopan</effectcategory>
                <parameter>
                  <name>Pan</name>
                  <parameterid>pan</parameterid>
                  <value>0</value>
                  <valuemin>-1</valuemin>
                  <valuemax>1</valuemax>
                </parameter>
              </effect>
            </filter>
            <comments/>
          </clipitem>
          <clipitem id="clipitem-29">
            <name>OrionEp12_029.mp3</name>
            <enabled>TRUE</enabled>
            <duration>133</duration>
            <rate>
              <timebase>30</timebase>
              <ntsc>TRUE</ntsc>
            </rate>
            <start>7168</start>
            <end>7301</end>
            <in>0</in>
            <out>133</out>
            <file id="file-29">
              <name>OrionEp12_029.mp3</name>
              <pathurl>file:///Users/hiroshikodera/repos/_active/tools/davinciauto/projects/OrionEp12/output/audio/OrionEp12_029.mp3</pathurl>
              <rate>
                <timebase>24000</timebase>
                <ntsc>FALSE</ntsc>
              </rate>
              <media>
                <audio>
                  <channelcount>1</channelcount>
                  <samplecharacteristics>
                    <samplerate>24000</samplerate>
                    <samplesize>16</samplesize>
                  </samplecharacteristics>
                </audio>
              </media>
            </file>
            <sourcetrack>
              <mediatype>audio</mediatype>
              <trackindex>1</trackindex>
            </sourcetrack>
            <filter>
              <enabled>TRUE</enabled>
              <start>0</start>
              <end>133</end>
              <effect>
                <name>Audio Levels</name>
                <effectid>audiolevels</effectid>
                <effecttype>audiolevels</effecttype>
                <mediatype>audio</mediatype>
                <effectcategory>audiolevels</effectcategory>
                <parameter>
                  <name>Level</name>
                  <parameterid>level</parameterid>
                  <value>1</value>
                  <valuemin>0</valuemin>
                  <valuemax>3.98109</valuemax>
                </parameter>
              </effect>
            </filter>
            <filter>
              <enabled>TRUE</enabled>
              <start>0</start>
              <end>133</end>
              <effect>
                <name>Audio Pan</name>
                <effectid>audiopan</effectid>
                <effecttype>audiopan</effecttype>
                <mediatype>audio</mediatype>
                <effectcategory>audiopan</effectcategory>
                <parameter>
                  <name>Pan</name>
                  <parameterid>pan</parameterid>
                  <value>0</value>
                  <valuemin>-1</valuemin>
                  <valuemax>1</valuemax>
                </parameter>
              </effect>
            </filter>
            <comments/>
          </clipitem>
          <clipitem id="clipitem-30">
            <name>OrionEp12_030.mp3</name>
            <enabled>TRUE</enabled>
            <duration>143</duration>
            <rate>
              <timebase>30</timebase>
              <ntsc>TRUE</ntsc>
            </rate>
            <start>7301</start>
            <end>7444</end>
            <in>0</in>
            <out>143</out>
            <file id="file-30">
              <name>OrionEp12_030.mp3</name>
              <pathurl>file:///Users/hiroshikodera/repos/_active/tools/davinciauto/projects/OrionEp12/output/audio/OrionEp12_030.mp3</pathurl>
              <rate>
                <timebase>24000</timebase>
                <ntsc>FALSE</ntsc>
              </rate>
              <media>
                <audio>
                  <channelcount>1</channelcount>
                  <samplecharacteristics>
                    <samplerate>24000</samplerate>
                    <samplesize>16</samplesize>
                  </samplecharacteristics>
                </audio>
              </media>
            </file>
            <sourcetrack>
              <mediatype>audio</mediatype>
              <trackindex>1</trackindex>
            </sourcetrack>
            <filter>
              <enabled>TRUE</enabled>
              <start>0</start>
              <end>143</end>
              <effect>
                <name>Audio Levels</name>
                <effectid>audiolevels</effectid>
                <effecttype>audiolevels</effecttype>
                <mediatype>audio</mediatype>
                <effectcategory>audiolevels</effectcategory>
                <parameter>
                  <name>Level</name>
                  <parameterid>level</parameterid>
                  <value>1</value>
                  <valuemin>0</valuemin>
                  <valuemax>3.98109</valuemax>
                </parameter>
              </effect>
            </filter>
            <filter>
              <enabled>TRUE</enabled>
              <start>0</start>
              <end>143</end>
              <effect>
                <name>Audio Pan</name>
                <effectid>audiopan</effectid>
                <effecttype>audiopan</effecttype>
                <mediatype>audio</mediatype>
                <effectcategory>audiopan</effectcategory>
                <parameter>
                  <name>Pan</name>
                  <parameterid>pan</parameterid>
                  <value>0</value>
                  <valuemin>-1</valuemin>
                  <valuemax>1</valuemax>
                </parameter>
              </effect>
            </filter>
            <comments/>
          </clipitem>
          <clipitem id="clipitem-31">
            <name>OrionEp12_031.mp3</name>
            <enabled>TRUE</enabled>
            <duration>311</duration>
            <rate>
              <timebase>30</timebase>
              <ntsc>TRUE</ntsc>
            </rate>
            <start>7444</start>
            <end>7755</end>
            <in>0</in>
            <out>311</out>
            <file id="file-31">
              <name>OrionEp12_031.mp3</name>
              <pathurl>file:///Users/hiroshikodera/repos/_active/tools/davinciauto/projects/OrionEp12/output/audio/OrionEp12_031.mp3</pathurl>
              <rate>
                <timebase>24000</timebase>
                <ntsc>FALSE</ntsc>
              </rate>
              <media>
                <audio>
                  <channelcount>1</channelcount>
                  <samplecharacteristics>
                    <samplerate>24000</samplerate>
                    <samplesize>16</samplesize>
                  </samplecharacteristics>
                </audio>
              </media>
            </file>
            <sourcetrack>
              <mediatype>audio</mediatype>
              <trackindex>1</trackindex>
            </sourcetrack>
            <filter>
              <enabled>TRUE</enabled>
              <start>0</start>
              <end>311</end>
              <effect>
                <name>Audio Levels</name>
                <effectid>audiolevels</effectid>
                <effecttype>audiolevels</effecttype>
                <mediatype>audio</mediatype>
                <effectcategory>audiolevels</effectcategory>
                <parameter>
                  <name>Level</name>
                  <parameterid>level</parameterid>
                  <value>1</value>
                  <valuemin>0</valuemin>
                  <valuemax>3.98109</valuemax>
                </parameter>
              </effect>
            </filter>
            <filter>
              <enabled>TRUE</enabled>
              <start>0</start>
              <end>311</end>
              <effect>
                <name>Audio Pan</name>
                <effectid>audiopan</effectid>
                <effecttype>audiopan</effecttype>
                <mediatype>audio</mediatype>
                <effectcategory>audiopan</effectcategory>
                <parameter>
                  <name>Pan</name>
                  <parameterid>pan</parameterid>
                  <value>0</value>
                  <valuemin>-1</valuemin>
                  <valuemax>1</valuemax>
                </parameter>
              </effect>
            </filter>
            <comments/>
          </clipitem>
          <clipitem id="clipitem-32">
            <name>OrionEp12_032.mp3</name>
            <enabled>TRUE</enabled>
            <duration>400</duration>
            <rate>
              <timebase>30</timebase>
              <ntsc>TRUE</ntsc>
            </rate>
            <start>7755</start>
            <end>8155</end>
            <in>0</in>
            <out>400</out>
            <file id="file-32">
              <name>OrionEp12_032.mp3</name>
              <pathurl>file:///Users/hiroshikodera/repos/_active/tools/davinciauto/projects/OrionEp12/output/audio/OrionEp12_032.mp3</pathurl>
              <rate>
                <timebase>24000</timebase>
                <ntsc>FALSE</ntsc>
              </rate>
              <media>
                <audio>
                  <channelcount>1</channelcount>
                  <samplecharacteristics>
                    <samplerate>24000</samplerate>
                    <samplesize>16</samplesize>
                  </samplecharacteristics>
                </audio>
              </media>
            </file>
            <sourcetrack>
              <mediatype>audio</mediatype>
              <trackindex>1</trackindex>
            </sourcetrack>
            <filter>
              <enabled>TRUE</enabled>
              <start>0</start>
              <end>400</end>
              <effect>
                <name>Audio Levels</name>
                <effectid>audiolevels</effectid>
                <effecttype>audiolevels</effecttype>
                <mediatype>audio</mediatype>
                <effectcategory>audiolevels</effectcategory>
                <parameter>
                  <name>Level</name>
                  <parameterid>level</parameterid>
                  <value>1</value>
                  <valuemin>0</valuemin>
                  <valuemax>3.98109</valuemax>
                </parameter>
              </effect>
            </filter>
            <filter>
              <enabled>TRUE</enabled>
              <start>0</start>
              <end>400</end>
              <effect>
                <name>Audio Pan</name>
                <effectid>audiopan</effectid>
                <effecttype>audiopan</effecttype>
                <mediatype>audio</mediatype>
                <effectcategory>audiopan</effectcategory>
                <parameter>
                  <name>Pan</name>
                  <parameterid>pan</parameterid>
                  <value>0</value>
                  <valuemin>-1</valuemin>
                  <valuemax>1</valuemax>
                </parameter>
              </effect>
            </filter>
            <comments/>
          </clipitem>
          <clipitem id="clipitem-33">
            <name>OrionEp12_033.mp3</name>
            <enabled>TRUE</enabled>
            <duration>252</duration>
            <rate>
              <timebase>30</timebase>
              <ntsc>TRUE</ntsc>
            </rate>
            <start>8155</start>
            <end>8407</end>
            <in>0</in>
            <out>252</out>
            <file id="file-33">
              <name>OrionEp12_033.mp3</name>
              <pathurl>file:///Users/hiroshikodera/repos/_active/tools/davinciauto/projects/OrionEp12/output/audio/OrionEp12_033.mp3</pathurl>
              <rate>
                <timebase>24000</timebase>
                <ntsc>FALSE</ntsc>
              </rate>
              <media>
                <audio>
                  <channelcount>1</channelcount>
                  <samplecharacteristics>
                    <samplerate>24000</samplerate>
                    <samplesize>16</samplesize>
                  </samplecharacteristics>
                </audio>
              </media>
            </file>
            <sourcetrack>
              <mediatype>audio</mediatype>
              <trackindex>1</trackindex>
            </sourcetrack>
            <filter>
              <enabled>TRUE</enabled>
              <start>0</start>
              <end>252</end>
              <effect>
                <name>Audio Levels</name>
                <effectid>audiolevels</effectid>
                <effecttype>audiolevels</effecttype>
                <mediatype>audio</mediatype>
                <effectcategory>audiolevels</effectcategory>
                <parameter>
                  <name>Level</name>
                  <parameterid>level</parameterid>
                  <value>1</value>
                  <valuemin>0</valuemin>
                  <valuemax>3.98109</valuemax>
                </parameter>
              </effect>
            </filter>
            <filter>
              <enabled>TRUE</enabled>
              <start>0</start>
              <end>252</end>
              <effect>
                <name>Audio Pan</name>
                <effectid>audiopan</effectid>
                <effecttype>audiopan</effecttype>
                <mediatype>audio</mediatype>
                <effectcategory>audiopan</effectcategory>
                <parameter>
                  <name>Pan</name>
                  <parameterid>pan</parameterid>
                  <value>0</value>
                  <valuemin>-1</valuemin>
                  <valuemax>1</valuemax>
                </parameter>
              </effect>
            </filter>
            <comments/>
          </clipitem>
          <clipitem id="clipitem-34">
            <name>OrionEp12_034.mp3</name>
            <enabled>TRUE</enabled>
            <duration>452</duration>
            <rate>
              <timebase>30</timebase>
              <ntsc>TRUE</ntsc>
            </rate>
            <start>8407</start>
            <end>8859</end>
            <in>0</in>
            <out>452</out>
            <file id="file-34">
              <name>OrionEp12_034.mp3</name>
              <pathurl>file:///Users/hiroshikodera/repos/_active/tools/davinciauto/projects/OrionEp12/output/audio/OrionEp12_034.mp3</pathurl>
              <rate>
                <timebase>24000</timebase>
                <ntsc>FALSE</ntsc>
              </rate>
              <media>
                <audio>
                  <channelcount>1</channelcount>
                  <samplecharacteristics>
                    <samplerate>24000</samplerate>
                    <samplesize>16</samplesize>
                  </samplecharacteristics>
                </audio>
              </media>
            </file>
            <sourcetrack>
              <mediatype>audio</mediatype>
              <trackindex>1</trackindex>
            </sourcetrack>
            <filter>
              <enabled>TRUE</enabled>
              <start>0</start>
              <end>452</end>
              <effect>
                <name>Audio Levels</name>
                <effectid>audiolevels</effectid>
                <effecttype>audiolevels</effecttype>
                <mediatype>audio</mediatype>
                <effectcategory>audiolevels</effectcategory>
                <parameter>
                  <name>Level</name>
                  <parameterid>level</parameterid>
                  <value>1</value>
                  <valuemin>0</valuemin>
                  <valuemax>3.98109</valuemax>
                </parameter>
              </effect>
            </filter>
            <filter>
              <enabled>TRUE</enabled>
              <start>0</start>
              <end>452</end>
              <effect>
                <name>Audio Pan</name>
                <effectid>audiopan</effectid>
                <effecttype>audiopan</effecttype>
                <mediatype>audio</mediatype>
                <effectcategory>audiopan</effectcategory>
                <parameter>
                  <name>Pan</name>
                  <parameterid>pan</parameterid>
                  <value>0</value>
                  <valuemin>-1</valuemin>
                  <valuemax>1</valuemax>
                </parameter>
              </effect>
            </filter>
            <comments/>
          </clipitem>
          <clipitem id="clipitem-35">
            <name>OrionEp12_035.mp3</name>
            <enabled>TRUE</enabled>
            <duration>298</duration>
            <rate>
              <timebase>30</timebase>
              <ntsc>TRUE</ntsc>
            </rate>
            <start>8859</start>
            <end>9157</end>
            <in>0</in>
            <out>298</out>
            <file id="file-35">
              <name>OrionEp12_035.mp3</name>
              <pathurl>file:///Users/hiroshikodera/repos/_active/tools/davinciauto/projects/OrionEp12/output/audio/OrionEp12_035.mp3</pathurl>
              <rate>
                <timebase>24000</timebase>
                <ntsc>FALSE</ntsc>
              </rate>
              <media>
                <audio>
                  <channelcount>1</channelcount>
                  <samplecharacteristics>
                    <samplerate>24000</samplerate>
                    <samplesize>16</samplesize>
                  </samplecharacteristics>
                </audio>
              </media>
            </file>
            <sourcetrack>
              <mediatype>audio</mediatype>
              <trackindex>1</trackindex>
            </sourcetrack>
            <filter>
              <enabled>TRUE</enabled>
              <start>0</start>
              <end>298</end>
              <effect>
                <name>Audio Levels</name>
                <effectid>audiolevels</effectid>
                <effecttype>audiolevels</effecttype>
                <mediatype>audio</mediatype>
                <effectcategory>audiolevels</effectcategory>
                <parameter>
                  <name>Level</name>
                  <parameterid>level</parameterid>
                  <value>1</value>
                  <valuemin>0</valuemin>
                  <valuemax>3.98109</valuemax>
                </parameter>
              </effect>
            </filter>
            <filter>
              <enabled>TRUE</enabled>
              <start>0</start>
              <end>298</end>
              <effect>
                <name>Audio Pan</name>
                <effectid>audiopan</effectid>
                <effecttype>audiopan</effecttype>
                <mediatype>audio</mediatype>
                <effectcategory>audiopan</effectcategory>
                <parameter>
                  <name>Pan</name>
                  <parameterid>pan</parameterid>
                  <value>0</value>
                  <valuemin>-1</valuemin>
                  <valuemax>1</valuemax>
                </parameter>
              </effect>
            </filter>
            <comments/>
          </clipitem>
          <clipitem id="clipitem-36">
            <name>OrionEp12_036.mp3</name>
            <enabled>TRUE</enabled>
            <duration>431</duration>
            <rate>
              <timebase>30</timebase>
              <ntsc>TRUE</ntsc>
            </rate>
            <start>9157</start>
            <end>9588</end>
            <in>0</in>
            <out>431</out>
            <file id="file-36">
              <name>OrionEp12_036.mp3</name>
              <pathurl>file:///Users/hiroshikodera/repos/_active/tools/davinciauto/projects/OrionEp12/output/audio/OrionEp12_036.mp3</pathurl>
              <rate>
                <timebase>24000</timebase>
                <ntsc>FALSE</ntsc>
              </rate>
              <media>
                <audio>
                  <channelcount>1</channelcount>
                  <samplecharacteristics>
                    <samplerate>24000</samplerate>
                    <samplesize>16</samplesize>
                  </samplecharacteristics>
                </audio>
              </media>
            </file>
            <sourcetrack>
              <mediatype>audio</mediatype>
              <trackindex>1</trackindex>
            </sourcetrack>
            <filter>
              <enabled>TRUE</enabled>
              <start>0</start>
              <end>431</end>
              <effect>
                <name>Audio Levels</name>
                <effectid>audiolevels</effectid>
                <effecttype>audiolevels</effecttype>
                <mediatype>audio</mediatype>
                <effectcategory>audiolevels</effectcategory>
                <parameter>
                  <name>Level</name>
                  <parameterid>level</parameterid>
                  <value>1</value>
                  <valuemin>0</valuemin>
                  <valuemax>3.98109</valuemax>
                </parameter>
              </effect>
            </filter>
            <filter>
              <enabled>TRUE</enabled>
              <start>0</start>
              <end>431</end>
              <effect>
                <name>Audio Pan</name>
                <effectid>audiopan</effectid>
                <effecttype>audiopan</effecttype>
                <mediatype>audio</mediatype>
                <effectcategory>audiopan</effectcategory>
                <parameter>
                  <name>Pan</name>
                  <parameterid>pan</parameterid>
                  <value>0</value>
                  <valuemin>-1</valuemin>
                  <valuemax>1</valuemax>
                </parameter>
              </effect>
            </filter>
            <comments/>
          </clipitem>
          <clipitem id="clipitem-37">
            <name>OrionEp12_037.mp3</name>
            <enabled>TRUE</enabled>
            <duration>217</duration>
            <rate>
              <timebase>30</timebase>
              <ntsc>TRUE</ntsc>
            </rate>
            <start>9588</start>
            <end>9805</end>
            <in>0</in>
            <out>217</out>
            <file id="file-37">
              <name>OrionEp12_037.mp3</name>
              <pathurl>file:///Users/hiroshikodera/repos/_active/tools/davinciauto/projects/OrionEp12/output/audio/OrionEp12_037.mp3</pathurl>
              <rate>
                <timebase>24000</timebase>
                <ntsc>FALSE</ntsc>
              </rate>
              <media>
                <audio>
                  <channelcount>1</channelcount>
                  <samplecharacteristics>
                    <samplerate>24000</samplerate>
                    <samplesize>16</samplesize>
                  </samplecharacteristics>
                </audio>
              </media>
            </file>
            <sourcetrack>
              <mediatype>audio</mediatype>
              <trackindex>1</trackindex>
            </sourcetrack>
            <filter>
              <enabled>TRUE</enabled>
              <start>0</start>
              <end>217</end>
              <effect>
                <name>Audio Levels</name>
                <effectid>audiolevels</effectid>
                <effecttype>audiolevels</effecttype>
                <mediatype>audio</mediatype>
                <effectcategory>audiolevels</effectcategory>
                <parameter>
                  <name>Level</name>
                  <parameterid>level</parameterid>
                  <value>1</value>
                  <valuemin>0</valuemin>
                  <valuemax>3.98109</valuemax>
                </parameter>
              </effect>
            </filter>
            <filter>
              <enabled>TRUE</enabled>
              <start>0</start>
              <end>217</end>
              <effect>
                <name>Audio Pan</name>
                <effectid>audiopan</effectid>
                <effecttype>audiopan</effecttype>
                <mediatype>audio</mediatype>
                <effectcategory>audiopan</effectcategory>
                <parameter>
                  <name>Pan</name>
                  <parameterid>pan</parameterid>
                  <value>0</value>
                  <valuemin>-1</valuemin>
                  <valuemax>1</valuemax>
                </parameter>
              </effect>
            </filter>
            <comments/>
          </clipitem>
          <clipitem id="clipitem-38">
            <name>OrionEp12_038.mp3</name>
            <enabled>TRUE</enabled>
            <duration>338</duration>
            <rate>
              <timebase>30</timebase>
              <ntsc>TRUE</ntsc>
            </rate>
            <start>9805</start>
            <end>10143</end>
            <in>0</in>
            <out>338</out>
            <file id="file-38">
              <name>OrionEp12_038.mp3</name>
              <pathurl>file:///Users/hiroshikodera/repos/_active/tools/davinciauto/projects/OrionEp12/output/audio/OrionEp12_038.mp3</pathurl>
              <rate>
                <timebase>24000</timebase>
                <ntsc>FALSE</ntsc>
              </rate>
              <media>
                <audio>
                  <channelcount>1</channelcount>
                  <samplecharacteristics>
                    <samplerate>24000</samplerate>
                    <samplesize>16</samplesize>
                  </samplecharacteristics>
                </audio>
              </media>
            </file>
            <sourcetrack>
              <mediatype>audio</mediatype>
              <trackindex>1</trackindex>
            </sourcetrack>
            <filter>
              <enabled>TRUE</enabled>
              <start>0</start>
              <end>338</end>
              <effect>
                <name>Audio Levels</name>
                <effectid>audiolevels</effectid>
                <effecttype>audiolevels</effecttype>
                <mediatype>audio</mediatype>
                <effectcategory>audiolevels</effectcategory>
                <parameter>
                  <name>Level</name>
                  <parameterid>level</parameterid>
                  <value>1</value>
                  <valuemin>0</valuemin>
                  <valuemax>3.98109</valuemax>
                </parameter>
              </effect>
            </filter>
            <filter>
              <enabled>TRUE</enabled>
              <start>0</start>
              <end>338</end>
              <effect>
                <name>Audio Pan</name>
                <effectid>audiopan</effectid>
                <effecttype>audiopan</effecttype>
                <mediatype>audio</mediatype>
                <effectcategory>audiopan</effectcategory>
                <parameter>
                  <name>Pan</name>
                  <parameterid>pan</parameterid>
                  <value>0</value>
                  <valuemin>-1</valuemin>
                  <valuemax>1</valuemax>
                </parameter>
              </effect>
            </filter>
            <comments/>
          </clipitem>
          <clipitem id="clipitem-39">
            <name>OrionEp12_039.mp3</name>
            <enabled>TRUE</enabled>
            <duration>364</duration>
            <rate>
              <timebase>30</timebase>
              <ntsc>TRUE</ntsc>
            </rate>
            <start>10233</start>
            <end>10597</end>
            <in>0</in>
            <out>364</out>
            <file id="file-39">
              <name>OrionEp12_039.mp3</name>
              <pathurl>file:///Users/hiroshikodera/repos/_active/tools/davinciauto/projects/OrionEp12/output/audio/OrionEp12_039.mp3</pathurl>
              <rate>
                <timebase>24000</timebase>
                <ntsc>FALSE</ntsc>
              </rate>
              <media>
                <audio>
                  <channelcount>1</channelcount>
                  <samplecharacteristics>
                    <samplerate>24000</samplerate>
                    <samplesize>16</samplesize>
                  </samplecharacteristics>
                </audio>
              </media>
            </file>
            <sourcetrack>
              <mediatype>audio</mediatype>
              <trackindex>1</trackindex>
            </sourcetrack>
            <filter>
              <enabled>TRUE</enabled>
              <start>0</start>
              <end>364</end>
              <effect>
                <name>Audio Levels</name>
                <effectid>audiolevels</effectid>
                <effecttype>audiolevels</effecttype>
                <mediatype>audio</mediatype>
                <effectcategory>audiolevels</effectcategory>
                <parameter>
                  <name>Level</name>
                  <parameterid>level</parameterid>
                  <value>1</value>
                  <valuemin>0</valuemin>
                  <valuemax>3.98109</valuemax>
                </parameter>
              </effect>
            </filter>
            <filter>
              <enabled>TRUE</enabled>
              <start>0</start>
              <end>364</end>
              <effect>
                <name>Audio Pan</name>
                <effectid>audiopan</effectid>
                <effecttype>audiopan</effecttype>
                <mediatype>audio</mediatype>
                <effectcategory>audiopan</effectcategory>
                <parameter>
                  <name>Pan</name>
                  <parameterid>pan</parameterid>
                  <value>0</value>
                  <valuemin>-1</valuemin>
                  <valuemax>1</valuemax>
                </parameter>
              </effect>
            </filter>
            <comments/>
          </clipitem>
          <clipitem id="clipitem-40">
            <name>OrionEp12_040.mp3</name>
            <enabled>TRUE</enabled>
            <duration>402</duration>
            <rate>
              <timebase>30</timebase>
              <ntsc>TRUE</ntsc>
            </rate>
            <start>10597</start>
            <end>10999</end>
            <in>0</in>
            <out>402</out>
            <file id="file-40">
              <name>OrionEp12_040.mp3</name>
              <pathurl>file:///Users/hiroshikodera/repos/_active/tools/davinciauto/projects/OrionEp12/output/audio/OrionEp12_040.mp3</pathurl>
              <rate>
                <timebase>24000</timebase>
                <ntsc>FALSE</ntsc>
              </rate>
              <media>
                <audio>
                  <channelcount>1</channelcount>
                  <samplecharacteristics>
                    <samplerate>24000</samplerate>
                    <samplesize>16</samplesize>
                  </samplecharacteristics>
                </audio>
              </media>
            </file>
            <sourcetrack>
              <mediatype>audio</mediatype>
              <trackindex>1</trackindex>
            </sourcetrack>
            <filter>
              <enabled>TRUE</enabled>
              <start>0</start>
              <end>402</end>
              <effect>
                <name>Audio Levels</name>
                <effectid>audiolevels</effectid>
                <effecttype>audiolevels</effecttype>
                <mediatype>audio</mediatype>
                <effectcategory>audiolevels</effectcategory>
                <parameter>
                  <name>Level</name>
                  <parameterid>level</parameterid>
                  <value>1</value>
                  <valuemin>0</valuemin>
                  <valuemax>3.98109</valuemax>
                </parameter>
              </effect>
            </filter>
            <filter>
              <enabled>TRUE</enabled>
              <start>0</start>
              <end>402</end>
              <effect>
                <name>Audio Pan</name>
                <effectid>audiopan</effectid>
                <effecttype>audiopan</effecttype>
                <mediatype>audio</mediatype>
                <effectcategory>audiopan</effectcategory>
                <parameter>
                  <name>Pan</name>
                  <parameterid>pan</parameterid>
                  <value>0</value>
                  <valuemin>-1</valuemin>
                  <valuemax>1</valuemax>
                </parameter>
              </effect>
            </filter>
            <comments/>
          </clipitem>
          <clipitem id="clipitem-41">
            <name>OrionEp12_041.mp3</name>
            <enabled>TRUE</enabled>
            <duration>313</duration>
            <rate>
              <timebase>30</timebase>
              <ntsc>TRUE</ntsc>
            </rate>
            <start>10999</start>
            <end>11312</end>
            <in>0</in>
            <out>313</out>
            <file id="file-41">
              <name>OrionEp12_041.mp3</name>
              <pathurl>file:///Users/hiroshikodera/repos/_active/tools/davinciauto/projects/OrionEp12/output/audio/OrionEp12_041.mp3</pathurl>
              <rate>
                <timebase>24000</timebase>
                <ntsc>FALSE</ntsc>
              </rate>
              <media>
                <audio>
                  <channelcount>1</channelcount>
                  <samplecharacteristics>
                    <samplerate>24000</samplerate>
                    <samplesize>16</samplesize>
                  </samplecharacteristics>
                </audio>
              </media>
            </file>
            <sourcetrack>
              <mediatype>audio</mediatype>
              <trackindex>1</trackindex>
            </sourcetrack>
            <filter>
              <enabled>TRUE</enabled>
              <start>0</start>
              <end>313</end>
              <effect>
                <name>Audio Levels</name>
                <effectid>audiolevels</effectid>
                <effecttype>audiolevels</effecttype>
                <mediatype>audio</mediatype>
                <effectcategory>audiolevels</effectcategory>
                <parameter>
                  <name>Level</name>
                  <parameterid>level</parameterid>
                  <value>1</value>
                  <valuemin>0</valuemin>
                  <valuemax>3.98109</valuemax>
                </parameter>
              </effect>
            </filter>
            <filter>
              <enabled>TRUE</enabled>
              <start>0</start>
              <end>313</end>
              <effect>
                <name>Audio Pan</name>
                <effectid>audiopan</effectid>
                <effecttype>audiopan</effecttype>
                <mediatype>audio</mediatype>
                <effectcategory>audiopan</effectcategory>
                <parameter>
                  <name>Pan</name>
                  <parameterid>pan</parameterid>
                  <value>0</value>
                  <valuemin>-1</valuemin>
                  <valuemax>1</valuemax>
                </parameter>
              </effect>
            </filter>
            <comments/>
          </clipitem>
          <clipitem id="clipitem-42">
            <name>OrionEp12_042.mp3</name>
            <enabled>TRUE</enabled>
            <duration>263</duration>
            <rate>
              <timebase>30</timebase>
              <ntsc>TRUE</ntsc>
            </rate>
            <start>11312</start>
            <end>11575</end>
            <in>0</in>
            <out>263</out>
            <file id="file-42">
              <name>OrionEp12_042.mp3</name>
              <pathurl>file:///Users/hiroshikodera/repos/_active/tools/davinciauto/projects/OrionEp12/output/audio/OrionEp12_042.mp3</pathurl>
              <rate>
                <timebase>24000</timebase>
                <ntsc>FALSE</ntsc>
              </rate>
              <media>
                <audio>
                  <channelcount>1</channelcount>
                  <samplecharacteristics>
                    <samplerate>24000</samplerate>
                    <samplesize>16</samplesize>
                  </samplecharacteristics>
                </audio>
              </media>
            </file>
            <sourcetrack>
              <mediatype>audio</mediatype>
              <trackindex>1</trackindex>
            </sourcetrack>
            <filter>
              <enabled>TRUE</enabled>
              <start>0</start>
              <end>263</end>
              <effect>
                <name>Audio Levels</name>
                <effectid>audiolevels</effectid>
                <effecttype>audiolevels</effecttype>
                <mediatype>audio</mediatype>
                <effectcategory>audiolevels</effectcategory>
                <parameter>
                  <name>Level</name>
                  <parameterid>level</parameterid>
                  <value>1</value>
                  <valuemin>0</valuemin>
                  <valuemax>3.98109</valuemax>
                </parameter>
              </effect>
            </filter>
            <filter>
              <enabled>TRUE</enabled>
              <start>0</start>
              <end>263</end>
              <effect>
                <name>Audio Pan</name>
                <effectid>audiopan</effectid>
                <effecttype>audiopan</effecttype>
                <mediatype>audio</mediatype>
                <effectcategory>audiopan</effectcategory>
                <parameter>
                  <name>Pan</name>
                  <parameterid>pan</parameterid>
                  <value>0</value>
                  <valuemin>-1</valuemin>
                  <valuemax>1</valuemax>
                </parameter>
              </effect>
            </filter>
            <comments/>
          </clipitem>
          <clipitem id="clipitem-43">
            <name>OrionEp12_043.mp3</name>
            <enabled>TRUE</enabled>
            <duration>217</duration>
            <rate>
              <timebase>30</timebase>
              <ntsc>TRUE</ntsc>
            </rate>
            <start>11575</start>
            <end>11792</end>
            <in>0</in>
            <out>217</out>
            <file id="file-43">
              <name>OrionEp12_043.mp3</name>
              <pathurl>file:///Users/hiroshikodera/repos/_active/tools/davinciauto/projects/OrionEp12/output/audio/OrionEp12_043.mp3</pathurl>
              <rate>
                <timebase>24000</timebase>
                <ntsc>FALSE</ntsc>
              </rate>
              <media>
                <audio>
                  <channelcount>1</channelcount>
                  <samplecharacteristics>
                    <samplerate>24000</samplerate>
                    <samplesize>16</samplesize>
                  </samplecharacteristics>
                </audio>
              </media>
            </file>
            <sourcetrack>
              <mediatype>audio</mediatype>
              <trackindex>1</trackindex>
            </sourcetrack>
            <filter>
              <enabled>TRUE</enabled>
              <start>0</start>
              <end>217</end>
              <effect>
                <name>Audio Levels</name>
                <effectid>audiolevels</effectid>
                <effecttype>audiolevels</effecttype>
                <mediatype>audio</mediatype>
                <effectcategory>audiolevels</effectcategory>
                <parameter>
                  <name>Level</name>
                  <parameterid>level</parameterid>
                  <value>1</value>
                  <valuemin>0</valuemin>
                  <valuemax>3.98109</valuemax>
                </parameter>
              </effect>
            </filter>
            <filter>
              <enabled>TRUE</enabled>
              <start>0</start>
              <end>217</end>
              <effect>
                <name>Audio Pan</name>
                <effectid>audiopan</effectid>
                <effecttype>audiopan</effecttype>
                <mediatype>audio</mediatype>
                <effectcategory>audiopan</effectcategory>
                <parameter>
                  <name>Pan</name>
                  <parameterid>pan</parameterid>
                  <value>0</value>
                  <valuemin>-1</valuemin>
                  <valuemax>1</valuemax>
                </parameter>
              </effect>
            </filter>
            <comments/>
          </clipitem>
          <clipitem id="clipitem-44">
            <name>OrionEp12_044.mp3</name>
            <enabled>TRUE</enabled>
            <duration>312</duration>
            <rate>
              <timebase>30</timebase>
              <ntsc>TRUE</ntsc>
            </rate>
            <start>11792</start>
            <end>12104</end>
            <in>0</in>
            <out>312</out>
            <file id="file-44">
              <name>OrionEp12_044.mp3</name>
              <pathurl>file:///Users/hiroshikodera/repos/_active/tools/davinciauto/projects/OrionEp12/output/audio/OrionEp12_044.mp3</pathurl>
              <rate>
                <timebase>24000</timebase>
                <ntsc>FALSE</ntsc>
              </rate>
              <media>
                <audio>
                  <channelcount>1</channelcount>
                  <samplecharacteristics>
                    <samplerate>24000</samplerate>
                    <samplesize>16</samplesize>
                  </samplecharacteristics>
                </audio>
              </media>
            </file>
            <sourcetrack>
              <mediatype>audio</mediatype>
              <trackindex>1</trackindex>
            </sourcetrack>
            <filter>
              <enabled>TRUE</enabled>
              <start>0</start>
              <end>312</end>
              <effect>
                <name>Audio Levels</name>
                <effectid>audiolevels</effectid>
                <effecttype>audiolevels</effecttype>
                <mediatype>audio</mediatype>
                <effectcategory>audiolevels</effectcategory>
                <parameter>
                  <name>Level</name>
                  <parameterid>level</parameterid>
                  <value>1</value>
                  <valuemin>0</valuemin>
                  <valuemax>3.98109</valuemax>
                </parameter>
              </effect>
            </filter>
            <filter>
              <enabled>TRUE</enabled>
              <start>0</start>
              <end>312</end>
              <effect>
                <name>Audio Pan</name>
                <effectid>audiopan</effectid>
                <effecttype>audiopan</effecttype>
                <mediatype>audio</mediatype>
                <effectcategory>audiopan</effectcategory>
                <parameter>
                  <name>Pan</name>
                  <parameterid>pan</parameterid>
                  <value>0</value>
                  <valuemin>-1</valuemin>
                  <valuemax>1</valuemax>
                </parameter>
              </effect>
            </filter>
            <comments/>
          </clipitem>
          <clipitem id="clipitem-45">
            <name>OrionEp12_045.mp3</name>
            <enabled>TRUE</enabled>
            <duration>415</duration>
            <rate>
              <timebase>30</timebase>
              <ntsc>TRUE</ntsc>
            </rate>
            <start>12104</start>
            <end>12519</end>
            <in>0</in>
            <out>415</out>
            <file id="file-45">
              <name>OrionEp12_045.mp3</name>
              <pathurl>file:///Users/hiroshikodera/repos/_active/tools/davinciauto/projects/OrionEp12/output/audio/OrionEp12_045.mp3</pathurl>
              <rate>
                <timebase>24000</timebase>
                <ntsc>FALSE</ntsc>
              </rate>
              <media>
                <audio>
                  <channelcount>1</channelcount>
                  <samplecharacteristics>
                    <samplerate>24000</samplerate>
                    <samplesize>16</samplesize>
                  </samplecharacteristics>
                </audio>
              </media>
            </file>
            <sourcetrack>
              <mediatype>audio</mediatype>
              <trackindex>1</trackindex>
            </sourcetrack>
            <filter>
              <enabled>TRUE</enabled>
              <start>0</start>
              <end>415</end>
              <effect>
                <name>Audio Levels</name>
                <effectid>audiolevels</effectid>
                <effecttype>audiolevels</effecttype>
                <mediatype>audio</mediatype>
                <effectcategory>audiolevels</effectcategory>
                <parameter>
                  <name>Level</name>
                  <parameterid>level</parameterid>
                  <value>1</value>
                  <valuemin>0</valuemin>
                  <valuemax>3.98109</valuemax>
                </parameter>
              </effect>
            </filter>
            <filter>
              <enabled>TRUE</enabled>
              <start>0</start>
              <end>415</end>
              <effect>
                <name>Audio Pan</name>
                <effectid>audiopan</effectid>
                <effecttype>audiopan</effecttype>
                <mediatype>audio</mediatype>
                <effectcategory>audiopan</effectcategory>
                <parameter>
                  <name>Pan</name>
                  <parameterid>pan</parameterid>
                  <value>0</value>
                  <valuemin>-1</valuemin>
                  <valuemax>1</valuemax>
                </parameter>
              </effect>
            </filter>
            <comments/>
          </clipitem>
          <clipitem id="clipitem-46">
            <name>OrionEp12_046.mp3</name>
            <enabled>TRUE</enabled>
            <duration>257</duration>
            <rate>
              <timebase>30</timebase>
              <ntsc>TRUE</ntsc>
            </rate>
            <start>12519</start>
            <end>12776</end>
            <in>0</in>
            <out>257</out>
            <file id="file-46">
              <name>OrionEp12_046.mp3</name>
              <pathurl>file:///Users/hiroshikodera/repos/_active/tools/davinciauto/projects/OrionEp12/output/audio/OrionEp12_046.mp3</pathurl>
              <rate>
                <timebase>24000</timebase>
                <ntsc>FALSE</ntsc>
              </rate>
              <media>
                <audio>
                  <channelcount>1</channelcount>
                  <samplecharacteristics>
                    <samplerate>24000</samplerate>
                    <samplesize>16</samplesize>
                  </samplecharacteristics>
                </audio>
              </media>
            </file>
            <sourcetrack>
              <mediatype>audio</mediatype>
              <trackindex>1</trackindex>
            </sourcetrack>
            <filter>
              <enabled>TRUE</enabled>
              <start>0</start>
              <end>257</end>
              <effect>
                <name>Audio Levels</name>
                <effectid>audiolevels</effectid>
                <effecttype>audiolevels</effecttype>
                <mediatype>audio</mediatype>
                <effectcategory>audiolevels</effectcategory>
                <parameter>
                  <name>Level</name>
                  <parameterid>level</parameterid>
                  <value>1</value>
                  <valuemin>0</valuemin>
                  <valuemax>3.98109</valuemax>
                </parameter>
              </effect>
            </filter>
            <filter>
              <enabled>TRUE</enabled>
              <start>0</start>
              <end>257</end>
              <effect>
                <name>Audio Pan</name>
                <effectid>audiopan</effectid>
                <effecttype>audiopan</effecttype>
                <mediatype>audio</mediatype>
                <effectcategory>audiopan</effectcategory>
                <parameter>
                  <name>Pan</name>
                  <parameterid>pan</parameterid>
                  <value>0</value>
                  <valuemin>-1</valuemin>
                  <valuemax>1</valuemax>
                </parameter>
              </effect>
            </filter>
            <comments/>
          </clipitem>
          <clipitem id="clipitem-47">
            <name>OrionEp12_047.mp3</name>
            <enabled>TRUE</enabled>
            <duration>361</duration>
            <rate>
              <timebase>30</timebase>
              <ntsc>TRUE</ntsc>
            </rate>
            <start>12776</start>
            <end>13137</end>
            <in>0</in>
            <out>361</out>
            <file id="file-47">
              <name>OrionEp12_047.mp3</name>
              <pathurl>file:///Users/hiroshikodera/repos/_active/tools/davinciauto/projects/OrionEp12/output/audio/OrionEp12_047.mp3</pathurl>
              <rate>
                <timebase>24000</timebase>
                <ntsc>FALSE</ntsc>
              </rate>
              <media>
                <audio>
                  <channelcount>1</channelcount>
                  <samplecharacteristics>
                    <samplerate>24000</samplerate>
                    <samplesize>16</samplesize>
                  </samplecharacteristics>
                </audio>
              </media>
            </file>
            <sourcetrack>
              <mediatype>audio</mediatype>
              <trackindex>1</trackindex>
            </sourcetrack>
            <filter>
              <enabled>TRUE</enabled>
              <start>0</start>
              <end>361</end>
              <effect>
                <name>Audio Levels</name>
                <effectid>audiolevels</effectid>
                <effecttype>audiolevels</effecttype>
                <mediatype>audio</mediatype>
                <effectcategory>audiolevels</effectcategory>
                <parameter>
                  <name>Level</name>
                  <parameterid>level</parameterid>
                  <value>1</value>
                  <valuemin>0</valuemin>
                  <valuemax>3.98109</valuemax>
                </parameter>
              </effect>
            </filter>
            <filter>
              <enabled>TRUE</enabled>
              <start>0</start>
              <end>361</end>
              <effect>
                <name>Audio Pan</name>
                <effectid>audiopan</effectid>
                <effecttype>audiopan</effecttype>
                <mediatype>audio</mediatype>
                <effectcategory>audiopan</effectcategory>
                <parameter>
                  <name>Pan</name>
                  <parameterid>pan</parameterid>
                  <value>0</value>
                  <valuemin>-1</valuemin>
                  <valuemax>1</valuemax>
                </parameter>
              </effect>
            </filter>
            <comments/>
          </clipitem>
          <clipitem id="clipitem-48">
            <name>OrionEp12_048.mp3</name>
            <enabled>TRUE</enabled>
            <duration>577</duration>
            <rate>
              <timebase>30</timebase>
              <ntsc>TRUE</ntsc>
            </rate>
            <start>13137</start>
            <end>13714</end>
            <in>0</in>
            <out>577</out>
            <file id="file-48">
              <name>OrionEp12_048.mp3</name>
              <pathurl>file:///Users/hiroshikodera/repos/_active/tools/davinciauto/projects/OrionEp12/output/audio/OrionEp12_048.mp3</pathurl>
              <rate>
                <timebase>24000</timebase>
                <ntsc>FALSE</ntsc>
              </rate>
              <media>
                <audio>
                  <channelcount>1</channelcount>
                  <samplecharacteristics>
                    <samplerate>24000</samplerate>
                    <samplesize>16</samplesize>
                  </samplecharacteristics>
                </audio>
              </media>
            </file>
            <sourcetrack>
              <mediatype>audio</mediatype>
              <trackindex>1</trackindex>
            </sourcetrack>
            <filter>
              <enabled>TRUE</enabled>
              <start>0</start>
              <end>577</end>
              <effect>
                <name>Audio Levels</name>
                <effectid>audiolevels</effectid>
                <effecttype>audiolevels</effecttype>
                <mediatype>audio</mediatype>
                <effectcategory>audiolevels</effectcategory>
                <parameter>
                  <name>Level</name>
                  <parameterid>level</parameterid>
                  <value>1</value>
                  <valuemin>0</valuemin>
                  <valuemax>3.98109</valuemax>
                </parameter>
              </effect>
            </filter>
            <filter>
              <enabled>TRUE</enabled>
              <start>0</start>
              <end>577</end>
              <effect>
                <name>Audio Pan</name>
                <effectid>audiopan</effectid>
                <effecttype>audiopan</effecttype>
                <mediatype>audio</mediatype>
                <effectcategory>audiopan</effectcategory>
                <parameter>
                  <name>Pan</name>
                  <parameterid>pan</parameterid>
                  <value>0</value>
                  <valuemin>-1</valuemin>
                  <valuemax>1</valuemax>
                </parameter>
              </effect>
            </filter>
            <comments/>
          </clipitem>
          <clipitem id="clipitem-49">
            <name>OrionEp12_049.mp3</name>
            <enabled>TRUE</enabled>
            <duration>323</duration>
            <rate>
              <timebase>30</timebase>
              <ntsc>TRUE</ntsc>
            </rate>
            <start>13714</start>
            <end>14037</end>
            <in>0</in>
            <out>323</out>
            <file id="file-49">
              <name>OrionEp12_049.mp3</name>
              <pathurl>file:///Users/hiroshikodera/repos/_active/tools/davinciauto/projects/OrionEp12/output/audio/OrionEp12_049.mp3</pathurl>
              <rate>
                <timebase>24000</timebase>
                <ntsc>FALSE</ntsc>
              </rate>
              <media>
                <audio>
                  <channelcount>1</channelcount>
                  <samplecharacteristics>
                    <samplerate>24000</samplerate>
                    <samplesize>16</samplesize>
                  </samplecharacteristics>
                </audio>
              </media>
            </file>
            <sourcetrack>
              <mediatype>audio</mediatype>
              <trackindex>1</trackindex>
            </sourcetrack>
            <filter>
              <enabled>TRUE</enabled>
              <start>0</start>
              <end>323</end>
              <effect>
                <name>Audio Levels</name>
                <effectid>audiolevels</effectid>
                <effecttype>audiolevels</effecttype>
                <mediatype>audio</mediatype>
                <effectcategory>audiolevels</effectcategory>
                <parameter>
                  <name>Level</name>
                  <parameterid>level</parameterid>
                  <value>1</value>
                  <valuemin>0</valuemin>
                  <valuemax>3.98109</valuemax>
                </parameter>
              </effect>
            </filter>
            <filter>
              <enabled>TRUE</enabled>
              <start>0</start>
              <end>323</end>
              <effect>
                <name>Audio Pan</name>
                <effectid>audiopan</effectid>
                <effecttype>audiopan</effecttype>
                <mediatype>audio</mediatype>
                <effectcategory>audiopan</effectcategory>
                <parameter>
                  <name>Pan</name>
                  <parameterid>pan</parameterid>
                  <value>0</value>
                  <valuemin>-1</valuemin>
                  <valuemax>1</valuemax>
                </parameter>
              </effect>
            </filter>
            <comments/>
          </clipitem>
          <clipitem id="clipitem-50">
            <name>OrionEp12_050.mp3</name>
            <enabled>TRUE</enabled>
            <duration>265</duration>
            <rate>
              <timebase>30</timebase>
              <ntsc>TRUE</ntsc>
            </rate>
            <start>14037</start>
            <end>14302</end>
            <in>0</in>
            <out>265</out>
            <file id="file-50">
              <name>OrionEp12_050.mp3</name>
              <pathurl>file:///Users/hiroshikodera/repos/_active/tools/davinciauto/projects/OrionEp12/output/audio/OrionEp12_050.mp3</pathurl>
              <rate>
                <timebase>24000</timebase>
                <ntsc>FALSE</ntsc>
              </rate>
              <media>
                <audio>
                  <channelcount>1</channelcount>
                  <samplecharacteristics>
                    <samplerate>24000</samplerate>
                    <samplesize>16</samplesize>
                  </samplecharacteristics>
                </audio>
              </media>
            </file>
            <sourcetrack>
              <mediatype>audio</mediatype>
              <trackindex>1</trackindex>
            </sourcetrack>
            <filter>
              <enabled>TRUE</enabled>
              <start>0</start>
              <end>265</end>
              <effect>
                <name>Audio Levels</name>
                <effectid>audiolevels</effectid>
                <effecttype>audiolevels</effecttype>
                <mediatype>audio</mediatype>
                <effectcategory>audiolevels</effectcategory>
                <parameter>
                  <name>Level</name>
                  <parameterid>level</parameterid>
                  <value>1</value>
                  <valuemin>0</valuemin>
                  <valuemax>3.98109</valuemax>
                </parameter>
              </effect>
            </filter>
            <filter>
              <enabled>TRUE</enabled>
              <start>0</start>
              <end>265</end>
              <effect>
                <name>Audio Pan</name>
                <effectid>audiopan</effectid>
                <effecttype>audiopan</effecttype>
                <mediatype>audio</mediatype>
                <effectcategory>audiopan</effectcategory>
                <parameter>
                  <name>Pan</name>
                  <parameterid>pan</parameterid>
                  <value>0</value>
                  <valuemin>-1</valuemin>
                  <valuemax>1</valuemax>
                </parameter>
              </effect>
            </filter>
            <comments/>
          </clipitem>
          <clipitem id="clipitem-51">
            <name>OrionEp12_051.mp3</name>
            <enabled>TRUE</enabled>
            <duration>289</duration>
            <rate>
              <timebase>30</timebase>
              <ntsc>TRUE</ntsc>
            </rate>
            <start>14302</start>
            <end>14591</end>
            <in>0</in>
            <out>289</out>
            <file id="file-51">
              <name>OrionEp12_051.mp3</name>
              <pathurl>file:///Users/hiroshikodera/repos/_active/tools/davinciauto/projects/OrionEp12/output/audio/OrionEp12_051.mp3</pathurl>
              <rate>
                <timebase>24000</timebase>
                <ntsc>FALSE</ntsc>
              </rate>
              <media>
                <audio>
                  <channelcount>1</channelcount>
                  <samplecharacteristics>
                    <samplerate>24000</samplerate>
                    <samplesize>16</samplesize>
                  </samplecharacteristics>
                </audio>
              </media>
            </file>
            <sourcetrack>
              <mediatype>audio</mediatype>
              <trackindex>1</trackindex>
            </sourcetrack>
            <filter>
              <enabled>TRUE</enabled>
              <start>0</start>
              <end>289</end>
              <effect>
                <name>Audio Levels</name>
                <effectid>audiolevels</effectid>
                <effecttype>audiolevels</effecttype>
                <mediatype>audio</mediatype>
                <effectcategory>audiolevels</effectcategory>
                <parameter>
                  <name>Level</name>
                  <parameterid>level</parameterid>
                  <value>1</value>
                  <valuemin>0</valuemin>
                  <valuemax>3.98109</valuemax>
                </parameter>
              </effect>
            </filter>
            <filter>
              <enabled>TRUE</enabled>
              <start>0</start>
              <end>289</end>
              <effect>
                <name>Audio Pan</name>
                <effectid>audiopan</effectid>
                <effecttype>audiopan</effecttype>
                <mediatype>audio</mediatype>
                <effectcategory>audiopan</effectcategory>
                <parameter>
                  <name>Pan</name>
                  <parameterid>pan</parameterid>
                  <value>0</value>
                  <valuemin>-1</valuemin>
                  <valuemax>1</valuemax>
                </parameter>
              </effect>
            </filter>
            <comments/>
          </clipitem>
          <clipitem id="clipitem-52">
            <name>OrionEp12_052.mp3</name>
            <enabled>TRUE</enabled>
            <duration>382</duration>
            <rate>
              <timebase>30</timebase>
              <ntsc>TRUE</ntsc>
            </rate>
            <start>14681</start>
            <end>15063</end>
            <in>0</in>
            <out>382</out>
            <file id="file-52">
              <name>OrionEp12_052.mp3</name>
              <pathurl>file:///Users/hiroshikodera/repos/_active/tools/davinciauto/projects/OrionEp12/output/audio/OrionEp12_052.mp3</pathurl>
              <rate>
                <timebase>24000</timebase>
                <ntsc>FALSE</ntsc>
              </rate>
              <media>
                <audio>
                  <channelcount>1</channelcount>
                  <samplecharacteristics>
                    <samplerate>24000</samplerate>
                    <samplesize>16</samplesize>
                  </samplecharacteristics>
                </audio>
              </media>
            </file>
            <sourcetrack>
              <mediatype>audio</mediatype>
              <trackindex>1</trackindex>
            </sourcetrack>
            <filter>
              <enabled>TRUE</enabled>
              <start>0</start>
              <end>382</end>
              <effect>
                <name>Audio Levels</name>
                <effectid>audiolevels</effectid>
                <effecttype>audiolevels</effecttype>
                <mediatype>audio</mediatype>
                <effectcategory>audiolevels</effectcategory>
                <parameter>
                  <name>Level</name>
                  <parameterid>level</parameterid>
                  <value>1</value>
                  <valuemin>0</valuemin>
                  <valuemax>3.98109</valuemax>
                </parameter>
              </effect>
            </filter>
            <filter>
              <enabled>TRUE</enabled>
              <start>0</start>
              <end>382</end>
              <effect>
                <name>Audio Pan</name>
                <effectid>audiopan</effectid>
                <effecttype>audiopan</effecttype>
                <mediatype>audio</mediatype>
                <effectcategory>audiopan</effectcategory>
                <parameter>
                  <name>Pan</name>
                  <parameterid>pan</parameterid>
                  <value>0</value>
                  <valuemin>-1</valuemin>
                  <valuemax>1</valuemax>
                </parameter>
              </effect>
            </filter>
            <comments/>
          </clipitem>
          <clipitem id="clipitem-53">
            <name>OrionEp12_053.mp3</name>
            <enabled>TRUE</enabled>
            <duration>463</duration>
            <rate>
              <timebase>30</timebase>
              <ntsc>TRUE</ntsc>
            </rate>
            <start>15063</start>
            <end>15526</end>
            <in>0</in>
            <out>463</out>
            <file id="file-53">
              <name>OrionEp12_053.mp3</name>
              <pathurl>file:///Users/hiroshikodera/repos/_active/tools/davinciauto/projects/OrionEp12/output/audio/OrionEp12_053.mp3</pathurl>
              <rate>
                <timebase>24000</timebase>
                <ntsc>FALSE</ntsc>
              </rate>
              <media>
                <audio>
                  <channelcount>1</channelcount>
                  <samplecharacteristics>
                    <samplerate>24000</samplerate>
                    <samplesize>16</samplesize>
                  </samplecharacteristics>
                </audio>
              </media>
            </file>
            <sourcetrack>
              <mediatype>audio</mediatype>
              <trackindex>1</trackindex>
            </sourcetrack>
            <filter>
              <enabled>TRUE</enabled>
              <start>0</start>
              <end>463</end>
              <effect>
                <name>Audio Levels</name>
                <effectid>audiolevels</effectid>
                <effecttype>audiolevels</effecttype>
                <mediatype>audio</mediatype>
                <effectcategory>audiolevels</effectcategory>
                <parameter>
                  <name>Level</name>
                  <parameterid>level</parameterid>
                  <value>1</value>
                  <valuemin>0</valuemin>
                  <valuemax>3.98109</valuemax>
                </parameter>
              </effect>
            </filter>
            <filter>
              <enabled>TRUE</enabled>
              <start>0</start>
              <end>463</end>
              <effect>
                <name>Audio Pan</name>
                <effectid>audiopan</effectid>
                <effecttype>audiopan</effecttype>
                <mediatype>audio</mediatype>
                <effectcategory>audiopan</effectcategory>
                <parameter>
                  <name>Pan</name>
                  <parameterid>pan</parameterid>
                  <value>0</value>
                  <valuemin>-1</valuemin>
                  <valuemax>1</valuemax>
                </parameter>
              </effect>
            </filter>
            <comments/>
          </clipitem>
          <clipitem id="clipitem-54">
            <name>OrionEp12_054.mp3</name>
            <enabled>TRUE</enabled>
            <duration>201</duration>
            <rate>
              <timebase>30</timebase>
              <ntsc>TRUE</ntsc>
            </rate>
            <start>15526</start>
            <end>15727</end>
            <in>0</in>
            <out>201</out>
            <file id="file-54">
              <name>OrionEp12_054.mp3</name>
              <pathurl>file:///Users/hiroshikodera/repos/_active/tools/davinciauto/projects/OrionEp12/output/audio/OrionEp12_054.mp3</pathurl>
              <rate>
                <timebase>24000</timebase>
                <ntsc>FALSE</ntsc>
              </rate>
              <media>
                <audio>
                  <channelcount>1</channelcount>
                  <samplecharacteristics>
                    <samplerate>24000</samplerate>
                    <samplesize>16</samplesize>
                  </samplecharacteristics>
                </audio>
              </media>
            </file>
            <sourcetrack>
              <mediatype>audio</mediatype>
              <trackindex>1</trackindex>
            </sourcetrack>
            <filter>
              <enabled>TRUE</enabled>
              <start>0</start>
              <end>201</end>
              <effect>
                <name>Audio Levels</name>
                <effectid>audiolevels</effectid>
                <effecttype>audiolevels</effecttype>
                <mediatype>audio</mediatype>
                <effectcategory>audiolevels</effectcategory>
                <parameter>
                  <name>Level</name>
                  <parameterid>level</parameterid>
                  <value>1</value>
                  <valuemin>0</valuemin>
                  <valuemax>3.98109</valuemax>
                </parameter>
              </effect>
            </filter>
            <filter>
              <enabled>TRUE</enabled>
              <start>0</start>
              <end>201</end>
              <effect>
                <name>Audio Pan</name>
                <effectid>audiopan</effectid>
                <effecttype>audiopan</effecttype>
                <mediatype>audio</mediatype>
                <effectcategory>audiopan</effectcategory>
                <parameter>
                  <name>Pan</name>
                  <parameterid>pan</parameterid>
                  <value>0</value>
                  <valuemin>-1</valuemin>
                  <valuemax>1</valuemax>
                </parameter>
              </effect>
            </filter>
            <comments/>
          </clipitem>
          <clipitem id="clipitem-55">
            <name>OrionEp12_055.mp3</name>
            <enabled>TRUE</enabled>
            <duration>365</duration>
            <rate>
              <timebase>30</timebase>
              <ntsc>TRUE</ntsc>
            </rate>
            <start>15727</start>
            <end>16092</end>
            <in>0</in>
            <out>365</out>
            <file id="file-55">
              <name>OrionEp12_055.mp3</name>
              <pathurl>file:///Users/hiroshikodera/repos/_active/tools/davinciauto/projects/OrionEp12/output/audio/OrionEp12_055.mp3</pathurl>
              <rate>
                <timebase>24000</timebase>
                <ntsc>FALSE</ntsc>
              </rate>
              <media>
                <audio>
                  <channelcount>1</channelcount>
                  <samplecharacteristics>
                    <samplerate>24000</samplerate>
                    <samplesize>16</samplesize>
                  </samplecharacteristics>
                </audio>
              </media>
            </file>
            <sourcetrack>
              <mediatype>audio</mediatype>
              <trackindex>1</trackindex>
            </sourcetrack>
            <filter>
              <enabled>TRUE</enabled>
              <start>0</start>
              <end>365</end>
              <effect>
                <name>Audio Levels</name>
                <effectid>audiolevels</effectid>
                <effecttype>audiolevels</effecttype>
                <mediatype>audio</mediatype>
                <effectcategory>audiolevels</effectcategory>
                <parameter>
                  <name>Level</name>
                  <parameterid>level</parameterid>
                  <value>1</value>
                  <valuemin>0</valuemin>
                  <valuemax>3.98109</valuemax>
                </parameter>
              </effect>
            </filter>
            <filter>
              <enabled>TRUE</enabled>
              <start>0</start>
              <end>365</end>
              <effect>
                <name>Audio Pan</name>
                <effectid>audiopan</effectid>
                <effecttype>audiopan</effecttype>
                <mediatype>audio</mediatype>
                <effectcategory>audiopan</effectcategory>
                <parameter>
                  <name>Pan</name>
                  <parameterid>pan</parameterid>
                  <value>0</value>
                  <valuemin>-1</valuemin>
                  <valuemax>1</valuemax>
                </parameter>
              </effect>
            </filter>
            <comments/>
          </clipitem>
          <clipitem id="clipitem-56">
            <name>OrionEp12_056.mp3</name>
            <enabled>TRUE</enabled>
            <duration>160</duration>
            <rate>
              <timebase>30</timebase>
              <ntsc>TRUE</ntsc>
            </rate>
            <start>16092</start>
            <end>16252</end>
            <in>0</in>
            <out>160</out>
            <file id="file-56">
              <name>OrionEp12_056.mp3</name>
              <pathurl>file:///Users/hiroshikodera/repos/_active/tools/davinciauto/projects/OrionEp12/output/audio/OrionEp12_056.mp3</pathurl>
              <rate>
                <timebase>24000</timebase>
                <ntsc>FALSE</ntsc>
              </rate>
              <media>
                <audio>
                  <channelcount>1</channelcount>
                  <samplecharacteristics>
                    <samplerate>24000</samplerate>
                    <samplesize>16</samplesize>
                  </samplecharacteristics>
                </audio>
              </media>
            </file>
            <sourcetrack>
              <mediatype>audio</mediatype>
              <trackindex>1</trackindex>
            </sourcetrack>
            <filter>
              <enabled>TRUE</enabled>
              <start>0</start>
              <end>160</end>
              <effect>
                <name>Audio Levels</name>
                <effectid>audiolevels</effectid>
                <effecttype>audiolevels</effecttype>
                <mediatype>audio</mediatype>
                <effectcategory>audiolevels</effectcategory>
                <parameter>
                  <name>Level</name>
                  <parameterid>level</parameterid>
                  <value>1</value>
                  <valuemin>0</valuemin>
                  <valuemax>3.98109</valuemax>
                </parameter>
              </effect>
            </filter>
            <filter>
              <enabled>TRUE</enabled>
              <start>0</start>
              <end>160</end>
              <effect>
                <name>Audio Pan</name>
                <effectid>audiopan</effectid>
                <effecttype>audiopan</effecttype>
                <mediatype>audio</mediatype>
                <effectcategory>audiopan</effectcategory>
                <parameter>
                  <name>Pan</name>
                  <parameterid>pan</parameterid>
                  <value>0</value>
                  <valuemin>-1</valuemin>
                  <valuemax>1</valuemax>
                </parameter>
              </effect>
            </filter>
            <comments/>
          </clipitem>
          <clipitem id="clipitem-57">
            <name>OrionEp12_057.mp3</name>
            <enabled>TRUE</enabled>
            <duration>431</duration>
            <rate>
              <timebase>30</timebase>
              <ntsc>TRUE</ntsc>
            </rate>
            <start>16252</start>
            <end>16683</end>
            <in>0</in>
            <out>431</out>
            <file id="file-57">
              <name>OrionEp12_057.mp3</name>
              <pathurl>file:///Users/hiroshikodera/repos/_active/tools/davinciauto/projects/OrionEp12/output/audio/OrionEp12_057.mp3</pathurl>
              <rate>
                <timebase>24000</timebase>
                <ntsc>FALSE</ntsc>
              </rate>
              <media>
                <audio>
                  <channelcount>1</channelcount>
                  <samplecharacteristics>
                    <samplerate>24000</samplerate>
                    <samplesize>16</samplesize>
                  </samplecharacteristics>
                </audio>
              </media>
            </file>
            <sourcetrack>
              <mediatype>audio</mediatype>
              <trackindex>1</trackindex>
            </sourcetrack>
            <filter>
              <enabled>TRUE</enabled>
              <start>0</start>
              <end>431</end>
              <effect>
                <name>Audio Levels</name>
                <effectid>audiolevels</effectid>
                <effecttype>audiolevels</effecttype>
                <mediatype>audio</mediatype>
                <effectcategory>audiolevels</effectcategory>
                <parameter>
                  <name>Level</name>
                  <parameterid>level</parameterid>
                  <value>1</value>
                  <valuemin>0</valuemin>
                  <valuemax>3.98109</valuemax>
                </parameter>
              </effect>
            </filter>
            <filter>
              <enabled>TRUE</enabled>
              <start>0</start>
              <end>431</end>
              <effect>
                <name>Audio Pan</name>
                <effectid>audiopan</effectid>
                <effecttype>audiopan</effecttype>
                <mediatype>audio</mediatype>
                <effectcategory>audiopan</effectcategory>
                <parameter>
                  <name>Pan</name>
                  <parameterid>pan</parameterid>
                  <value>0</value>
                  <valuemin>-1</valuemin>
                  <valuemax>1</valuemax>
                </parameter>
              </effect>
            </filter>
            <comments/>
          </clipitem>
          <clipitem id="clipitem-58">
            <name>OrionEp12_058.mp3</name>
            <enabled>TRUE</enabled>
            <duration>233</duration>
            <rate>
              <timebase>30</timebase>
              <ntsc>TRUE</ntsc>
            </rate>
            <start>16683</start>
            <end>16916</end>
            <in>0</in>
            <out>233</out>
            <file id="file-58">
              <name>OrionEp12_058.mp3</name>
              <pathurl>file:///Users/hiroshikodera/repos/_active/tools/davinciauto/projects/OrionEp12/output/audio/OrionEp12_058.mp3</pathurl>
              <rate>
                <timebase>24000</timebase>
                <ntsc>FALSE</ntsc>
              </rate>
              <media>
                <audio>
                  <channelcount>1</channelcount>
                  <samplecharacteristics>
                    <samplerate>24000</samplerate>
                    <samplesize>16</samplesize>
                  </samplecharacteristics>
                </audio>
              </media>
            </file>
            <sourcetrack>
              <mediatype>audio</mediatype>
              <trackindex>1</trackindex>
            </sourcetrack>
            <filter>
              <enabled>TRUE</enabled>
              <start>0</start>
              <end>233</end>
              <effect>
                <name>Audio Levels</name>
                <effectid>audiolevels</effectid>
                <effecttype>audiolevels</effecttype>
                <mediatype>audio</mediatype>
                <effectcategory>audiolevels</effectcategory>
                <parameter>
                  <name>Level</name>
                  <parameterid>level</parameterid>
                  <value>1</value>
                  <valuemin>0</valuemin>
                  <valuemax>3.98109</valuemax>
                </parameter>
              </effect>
            </filter>
            <filter>
              <enabled>TRUE</enabled>
              <start>0</start>
              <end>233</end>
              <effect>
                <name>Audio Pan</name>
                <effectid>audiopan</effectid>
                <effecttype>audiopan</effecttype>
                <mediatype>audio</mediatype>
                <effectcategory>audiopan</effectcategory>
                <parameter>
                  <name>Pan</name>
                  <parameterid>pan</parameterid>
                  <value>0</value>
                  <valuemin>-1</valuemin>
                  <valuemax>1</valuemax>
                </parameter>
              </effect>
            </filter>
            <comments/>
          </clipitem>
          <clipitem id="clipitem-59">
            <name>OrionEp12_059.mp3</name>
            <enabled>TRUE</enabled>
            <duration>324</duration>
            <rate>
              <timebase>30</timebase>
              <ntsc>TRUE</ntsc>
            </rate>
            <start>16916</start>
            <end>17240</end>
            <in>0</in>
            <out>324</out>
            <file id="file-59">
              <name>OrionEp12_059.mp3</name>
              <pathurl>file:///Users/hiroshikodera/repos/_active/tools/davinciauto/projects/OrionEp12/output/audio/OrionEp12_059.mp3</pathurl>
              <rate>
                <timebase>24000</timebase>
                <ntsc>FALSE</ntsc>
              </rate>
              <media>
                <audio>
                  <channelcount>1</channelcount>
                  <samplecharacteristics>
                    <samplerate>24000</samplerate>
                    <samplesize>16</samplesize>
                  </samplecharacteristics>
                </audio>
              </media>
            </file>
            <sourcetrack>
              <mediatype>audio</mediatype>
              <trackindex>1</trackindex>
            </sourcetrack>
            <filter>
              <enabled>TRUE</enabled>
              <start>0</start>
              <end>324</end>
              <effect>
                <name>Audio Levels</name>
                <effectid>audiolevels</effectid>
                <effecttype>audiolevels</effecttype>
                <mediatype>audio</mediatype>
                <effectcategory>audiolevels</effectcategory>
                <parameter>
                  <name>Level</name>
                  <parameterid>level</parameterid>
                  <value>1</value>
                  <valuemin>0</valuemin>
                  <valuemax>3.98109</valuemax>
                </parameter>
              </effect>
            </filter>
            <filter>
              <enabled>TRUE</enabled>
              <start>0</start>
              <end>324</end>
              <effect>
                <name>Audio Pan</name>
                <effectid>audiopan</effectid>
                <effecttype>audiopan</effecttype>
                <mediatype>audio</mediatype>
                <effectcategory>audiopan</effectcategory>
                <parameter>
                  <name>Pan</name>
                  <parameterid>pan</parameterid>
                  <value>0</value>
                  <valuemin>-1</valuemin>
                  <valuemax>1</valuemax>
                </parameter>
              </effect>
            </filter>
            <comments/>
          </clipitem>
          <clipitem id="clipitem-60">
            <name>OrionEp12_060.mp3</name>
            <enabled>TRUE</enabled>
            <duration>277</duration>
            <rate>
              <timebase>30</timebase>
              <ntsc>TRUE</ntsc>
            </rate>
            <start>17240</start>
            <end>17517</end>
            <in>0</in>
            <out>277</out>
            <file id="file-60">
              <name>OrionEp12_060.mp3</name>
              <pathurl>file:///Users/hiroshikodera/repos/_active/tools/davinciauto/projects/OrionEp12/output/audio/OrionEp12_060.mp3</pathurl>
              <rate>
                <timebase>24000</timebase>
                <ntsc>FALSE</ntsc>
              </rate>
              <media>
                <audio>
                  <channelcount>1</channelcount>
                  <samplecharacteristics>
                    <samplerate>24000</samplerate>
                    <samplesize>16</samplesize>
                  </samplecharacteristics>
                </audio>
              </media>
            </file>
            <sourcetrack>
              <mediatype>audio</mediatype>
              <trackindex>1</trackindex>
            </sourcetrack>
            <filter>
              <enabled>TRUE</enabled>
              <start>0</start>
              <end>277</end>
              <effect>
                <name>Audio Levels</name>
                <effectid>audiolevels</effectid>
                <effecttype>audiolevels</effecttype>
                <mediatype>audio</mediatype>
                <effectcategory>audiolevels</effectcategory>
                <parameter>
                  <name>Level</name>
                  <parameterid>level</parameterid>
                  <value>1</value>
                  <valuemin>0</valuemin>
                  <valuemax>3.98109</valuemax>
                </parameter>
              </effect>
            </filter>
            <filter>
              <enabled>TRUE</enabled>
              <start>0</start>
              <end>277</end>
              <effect>
                <name>Audio Pan</name>
                <effectid>audiopan</effectid>
                <effecttype>audiopan</effecttype>
                <mediatype>audio</mediatype>
                <effectcategory>audiopan</effectcategory>
                <parameter>
                  <name>Pan</name>
                  <parameterid>pan</parameterid>
                  <value>0</value>
                  <valuemin>-1</valuemin>
                  <valuemax>1</valuemax>
                </parameter>
              </effect>
            </filter>
            <comments/>
          </clipitem>
          <clipitem id="clipitem-61">
            <name>OrionEp12_061.mp3</name>
            <enabled>TRUE</enabled>
            <duration>264</duration>
            <rate>
              <timebase>30</timebase>
              <ntsc>TRUE</ntsc>
            </rate>
            <start>17517</start>
            <end>17781</end>
            <in>0</in>
            <out>264</out>
            <file id="file-61">
              <name>OrionEp12_061.mp3</name>
              <pathurl>file:///Users/hiroshikodera/repos/_active/tools/davinciauto/projects/OrionEp12/output/audio/OrionEp12_061.mp3</pathurl>
              <rate>
                <timebase>24000</timebase>
                <ntsc>FALSE</ntsc>
              </rate>
              <media>
                <audio>
                  <channelcount>1</channelcount>
                  <samplecharacteristics>
                    <samplerate>24000</samplerate>
                    <samplesize>16</samplesize>
                  </samplecharacteristics>
                </audio>
              </media>
            </file>
            <sourcetrack>
              <mediatype>audio</mediatype>
              <trackindex>1</trackindex>
            </sourcetrack>
            <filter>
              <enabled>TRUE</enabled>
              <start>0</start>
              <end>264</end>
              <effect>
                <name>Audio Levels</name>
                <effectid>audiolevels</effectid>
                <effecttype>audiolevels</effecttype>
                <mediatype>audio</mediatype>
                <effectcategory>audiolevels</effectcategory>
                <parameter>
                  <name>Level</name>
                  <parameterid>level</parameterid>
                  <value>1</value>
                  <valuemin>0</valuemin>
                  <valuemax>3.98109</valuemax>
                </parameter>
              </effect>
            </filter>
            <filter>
              <enabled>TRUE</enabled>
              <start>0</start>
              <end>264</end>
              <effect>
                <name>Audio Pan</name>
                <effectid>audiopan</effectid>
                <effecttype>audiopan</effecttype>
                <mediatype>audio</mediatype>
                <effectcategory>audiopan</effectcategory>
                <parameter>
                  <name>Pan</name>
                  <parameterid>pan</parameterid>
                  <value>0</value>
                  <valuemin>-1</valuemin>
                  <valuemax>1</valuemax>
                </parameter>
              </effect>
            </filter>
            <comments/>
          </clipitem>
          <clipitem id="clipitem-62">
            <name>OrionEp12_062.mp3</name>
            <enabled>TRUE</enabled>
            <duration>396</duration>
            <rate>
              <timebase>30</timebase>
              <ntsc>TRUE</ntsc>
            </rate>
            <start>17781</start>
            <end>18177</end>
            <in>0</in>
            <out>396</out>
            <file id="file-62">
              <name>OrionEp12_062.mp3</name>
              <pathurl>file:///Users/hiroshikodera/repos/_active/tools/davinciauto/projects/OrionEp12/output/audio/OrionEp12_062.mp3</pathurl>
              <rate>
                <timebase>24000</timebase>
                <ntsc>FALSE</ntsc>
              </rate>
              <media>
                <audio>
                  <channelcount>1</channelcount>
                  <samplecharacteristics>
                    <samplerate>24000</samplerate>
                    <samplesize>16</samplesize>
                  </samplecharacteristics>
                </audio>
              </media>
            </file>
            <sourcetrack>
              <mediatype>audio</mediatype>
              <trackindex>1</trackindex>
            </sourcetrack>
            <filter>
              <enabled>TRUE</enabled>
              <start>0</start>
              <end>396</end>
              <effect>
                <name>Audio Levels</name>
                <effectid>audiolevels</effectid>
                <effecttype>audiolevels</effecttype>
                <mediatype>audio</mediatype>
                <effectcategory>audiolevels</effectcategory>
                <parameter>
                  <name>Level</name>
                  <parameterid>level</parameterid>
                  <value>1</value>
                  <valuemin>0</valuemin>
                  <valuemax>3.98109</valuemax>
                </parameter>
              </effect>
            </filter>
            <filter>
              <enabled>TRUE</enabled>
              <start>0</start>
              <end>396</end>
              <effect>
                <name>Audio Pan</name>
                <effectid>audiopan</effectid>
                <effecttype>audiopan</effecttype>
                <mediatype>audio</mediatype>
                <effectcategory>audiopan</effectcategory>
                <parameter>
                  <name>Pan</name>
                  <parameterid>pan</parameterid>
                  <value>0</value>
                  <valuemin>-1</valuemin>
                  <valuemax>1</valuemax>
                </parameter>
              </effect>
            </filter>
            <comments/>
          </clipitem>
          <clipitem id="clipitem-63">
            <name>OrionEp12_063.mp3</name>
            <enabled>TRUE</enabled>
            <duration>251</duration>
            <rate>
              <timebase>30</timebase>
              <ntsc>TRUE</ntsc>
            </rate>
            <start>18177</start>
            <end>18428</end>
            <in>0</in>
            <out>251</out>
            <file id="file-63">
              <name>OrionEp12_063.mp3</name>
              <pathurl>file:///Users/hiroshikodera/repos/_active/tools/davinciauto/projects/OrionEp12/output/audio/OrionEp12_063.mp3</pathurl>
              <rate>
                <timebase>24000</timebase>
                <ntsc>FALSE</ntsc>
              </rate>
              <media>
                <audio>
                  <channelcount>1</channelcount>
                  <samplecharacteristics>
                    <samplerate>24000</samplerate>
                    <samplesize>16</samplesize>
                  </samplecharacteristics>
                </audio>
              </media>
            </file>
            <sourcetrack>
              <mediatype>audio</mediatype>
              <trackindex>1</trackindex>
            </sourcetrack>
            <filter>
              <enabled>TRUE</enabled>
              <start>0</start>
              <end>251</end>
              <effect>
                <name>Audio Levels</name>
                <effectid>audiolevels</effectid>
                <effecttype>audiolevels</effecttype>
                <mediatype>audio</mediatype>
                <effectcategory>audiolevels</effectcategory>
                <parameter>
                  <name>Level</name>
                  <parameterid>level</parameterid>
                  <value>1</value>
                  <valuemin>0</valuemin>
                  <valuemax>3.98109</valuemax>
                </parameter>
              </effect>
            </filter>
            <filter>
              <enabled>TRUE</enabled>
              <start>0</start>
              <end>251</end>
              <effect>
                <name>Audio Pan</name>
                <effectid>audiopan</effectid>
                <effecttype>audiopan</effecttype>
                <mediatype>audio</mediatype>
                <effectcategory>audiopan</effectcategory>
                <parameter>
                  <name>Pan</name>
                  <parameterid>pan</parameterid>
                  <value>0</value>
                  <valuemin>-1</valuemin>
                  <valuemax>1</valuemax>
                </parameter>
              </effect>
            </filter>
            <comments/>
          </clipitem>
          <clipitem id="clipitem-64">
            <name>OrionEp12_064.mp3</name>
            <enabled>TRUE</enabled>
            <duration>330</duration>
            <rate>
              <timebase>30</timebase>
              <ntsc>TRUE</ntsc>
            </rate>
            <start>18428</start>
            <end>18758</end>
            <in>0</in>
            <out>330</out>
            <file id="file-64">
              <name>OrionEp12_064.mp3</name>
              <pathurl>file:///Users/hiroshikodera/repos/_active/tools/davinciauto/projects/OrionEp12/output/audio/OrionEp12_064.mp3</pathurl>
              <rate>
                <timebase>24000</timebase>
                <ntsc>FALSE</ntsc>
              </rate>
              <media>
                <audio>
                  <channelcount>1</channelcount>
                  <samplecharacteristics>
                    <samplerate>24000</samplerate>
                    <samplesize>16</samplesize>
                  </samplecharacteristics>
                </audio>
              </media>
            </file>
            <sourcetrack>
              <mediatype>audio</mediatype>
              <trackindex>1</trackindex>
            </sourcetrack>
            <filter>
              <enabled>TRUE</enabled>
              <start>0</start>
              <end>330</end>
              <effect>
                <name>Audio Levels</name>
                <effectid>audiolevels</effectid>
                <effecttype>audiolevels</effecttype>
                <mediatype>audio</mediatype>
                <effectcategory>audiolevels</effectcategory>
                <parameter>
                  <name>Level</name>
                  <parameterid>level</parameterid>
                  <value>1</value>
                  <valuemin>0</valuemin>
                  <valuemax>3.98109</valuemax>
                </parameter>
              </effect>
            </filter>
            <filter>
              <enabled>TRUE</enabled>
              <start>0</start>
              <end>330</end>
              <effect>
                <name>Audio Pan</name>
                <effectid>audiopan</effectid>
                <effecttype>audiopan</effecttype>
                <mediatype>audio</mediatype>
                <effectcategory>audiopan</effectcategory>
                <parameter>
                  <name>Pan</name>
                  <parameterid>pan</parameterid>
                  <value>0</value>
                  <valuemin>-1</valuemin>
                  <valuemax>1</valuemax>
                </parameter>
              </effect>
            </filter>
            <comments/>
          </clipitem>
          <clipitem id="clipitem-65">
            <name>OrionEp12_065.mp3</name>
            <enabled>TRUE</enabled>
            <duration>88</duration>
            <rate>
              <timebase>30</timebase>
              <ntsc>TRUE</ntsc>
            </rate>
            <start>18848</start>
            <end>18936</end>
            <in>0</in>
            <out>88</out>
            <file id="file-65">
              <name>OrionEp12_065.mp3</name>
              <pathurl>file:///Users/hiroshikodera/repos/_active/tools/davinciauto/projects/OrionEp12/output/audio/OrionEp12_065.mp3</pathurl>
              <rate>
                <timebase>24000</timebase>
                <ntsc>FALSE</ntsc>
              </rate>
              <media>
                <audio>
                  <channelcount>1</channelcount>
                  <samplecharacteristics>
                    <samplerate>24000</samplerate>
                    <samplesize>16</samplesize>
                  </samplecharacteristics>
                </audio>
              </media>
            </file>
            <sourcetrack>
              <mediatype>audio</mediatype>
              <trackindex>1</trackindex>
            </sourcetrack>
            <filter>
              <enabled>TRUE</enabled>
              <start>0</start>
              <end>88</end>
              <effect>
                <name>Audio Levels</name>
                <effectid>audiolevels</effectid>
                <effecttype>audiolevels</effecttype>
                <mediatype>audio</mediatype>
                <effectcategory>audiolevels</effectcategory>
                <parameter>
                  <name>Level</name>
                  <parameterid>level</parameterid>
                  <value>1</value>
                  <valuemin>0</valuemin>
                  <valuemax>3.98109</valuemax>
                </parameter>
              </effect>
            </filter>
            <filter>
              <enabled>TRUE</enabled>
              <start>0</start>
              <end>88</end>
              <effect>
                <name>Audio Pan</name>
                <effectid>audiopan</effectid>
                <effecttype>audiopan</effecttype>
                <mediatype>audio</mediatype>
                <effectcategory>audiopan</effectcategory>
                <parameter>
                  <name>Pan</name>
                  <parameterid>pan</parameterid>
                  <value>0</value>
                  <valuemin>-1</valuemin>
                  <valuemax>1</valuemax>
                </parameter>
              </effect>
            </filter>
            <comments/>
          </clipitem>
          <clipitem id="clipitem-66">
            <name>OrionEp12_066.mp3</name>
            <enabled>TRUE</enabled>
            <duration>364</duration>
            <rate>
              <timebase>30</timebase>
              <ntsc>TRUE</ntsc>
            </rate>
            <start>18936</start>
            <end>19300</end>
            <in>0</in>
            <out>364</out>
            <file id="file-66">
              <name>OrionEp12_066.mp3</name>
              <pathurl>file:///Users/hiroshikodera/repos/_active/tools/davinciauto/projects/OrionEp12/output/audio/OrionEp12_066.mp3</pathurl>
              <rate>
                <timebase>24000</timebase>
                <ntsc>FALSE</ntsc>
              </rate>
              <media>
                <audio>
                  <channelcount>1</channelcount>
                  <samplecharacteristics>
                    <samplerate>24000</samplerate>
                    <samplesize>16</samplesize>
                  </samplecharacteristics>
                </audio>
              </media>
            </file>
            <sourcetrack>
              <mediatype>audio</mediatype>
              <trackindex>1</trackindex>
            </sourcetrack>
            <filter>
              <enabled>TRUE</enabled>
              <start>0</start>
              <end>364</end>
              <effect>
                <name>Audio Levels</name>
                <effectid>audiolevels</effectid>
                <effecttype>audiolevels</effecttype>
                <mediatype>audio</mediatype>
                <effectcategory>audiolevels</effectcategory>
                <parameter>
                  <name>Level</name>
                  <parameterid>level</parameterid>
                  <value>1</value>
                  <valuemin>0</valuemin>
                  <valuemax>3.98109</valuemax>
                </parameter>
              </effect>
            </filter>
            <filter>
              <enabled>TRUE</enabled>
              <start>0</start>
              <end>364</end>
              <effect>
                <name>Audio Pan</name>
                <effectid>audiopan</effectid>
                <effecttype>audiopan</effecttype>
                <mediatype>audio</mediatype>
                <effectcategory>audiopan</effectcategory>
                <parameter>
                  <name>Pan</name>
                  <parameterid>pan</parameterid>
                  <value>0</value>
                  <valuemin>-1</valuemin>
                  <valuemax>1</valuemax>
                </parameter>
              </effect>
            </filter>
            <comments/>
          </clipitem>
          <clipitem id="clipitem-67">
            <name>OrionEp12_067.mp3</name>
            <enabled>TRUE</enabled>
            <duration>346</duration>
            <rate>
              <timebase>30</timebase>
              <ntsc>TRUE</ntsc>
            </rate>
            <start>19300</start>
            <end>19646</end>
            <in>0</in>
            <out>346</out>
            <file id="file-67">
              <name>OrionEp12_067.mp3</name>
              <pathurl>file:///Users/hiroshikodera/repos/_active/tools/davinciauto/projects/OrionEp12/output/audio/OrionEp12_067.mp3</pathurl>
              <rate>
                <timebase>24000</timebase>
                <ntsc>FALSE</ntsc>
              </rate>
              <media>
                <audio>
                  <channelcount>1</channelcount>
                  <samplecharacteristics>
                    <samplerate>24000</samplerate>
                    <samplesize>16</samplesize>
                  </samplecharacteristics>
                </audio>
              </media>
            </file>
            <sourcetrack>
              <mediatype>audio</mediatype>
              <trackindex>1</trackindex>
            </sourcetrack>
            <filter>
              <enabled>TRUE</enabled>
              <start>0</start>
              <end>346</end>
              <effect>
                <name>Audio Levels</name>
                <effectid>audiolevels</effectid>
                <effecttype>audiolevels</effecttype>
                <mediatype>audio</mediatype>
                <effectcategory>audiolevels</effectcategory>
                <parameter>
                  <name>Level</name>
                  <parameterid>level</parameterid>
                  <value>1</value>
                  <valuemin>0</valuemin>
                  <valuemax>3.98109</valuemax>
                </parameter>
              </effect>
            </filter>
            <filter>
              <enabled>TRUE</enabled>
              <start>0</start>
              <end>346</end>
              <effect>
                <name>Audio Pan</name>
                <effectid>audiopan</effectid>
                <effecttype>audiopan</effecttype>
                <mediatype>audio</mediatype>
                <effectcategory>audiopan</effectcategory>
                <parameter>
                  <name>Pan</name>
                  <parameterid>pan</parameterid>
                  <value>0</value>
                  <valuemin>-1</valuemin>
                  <valuemax>1</valuemax>
                </parameter>
              </effect>
            </filter>
            <comments/>
          </clipitem>
          <clipitem id="clipitem-68">
            <name>OrionEp12_068.mp3</name>
            <enabled>TRUE</enabled>
            <duration>348</duration>
            <rate>
              <timebase>30</timebase>
              <ntsc>TRUE</ntsc>
            </rate>
            <start>19646</start>
            <end>19994</end>
            <in>0</in>
            <out>348</out>
            <file id="file-68">
              <name>OrionEp12_068.mp3</name>
              <pathurl>file:///Users/hiroshikodera/repos/_active/tools/davinciauto/projects/OrionEp12/output/audio/OrionEp12_068.mp3</pathurl>
              <rate>
                <timebase>24000</timebase>
                <ntsc>FALSE</ntsc>
              </rate>
              <media>
                <audio>
                  <channelcount>1</channelcount>
                  <samplecharacteristics>
                    <samplerate>24000</samplerate>
                    <samplesize>16</samplesize>
                  </samplecharacteristics>
                </audio>
              </media>
            </file>
            <sourcetrack>
              <mediatype>audio</mediatype>
              <trackindex>1</trackindex>
            </sourcetrack>
            <filter>
              <enabled>TRUE</enabled>
              <start>0</start>
              <end>348</end>
              <effect>
                <name>Audio Levels</name>
                <effectid>audiolevels</effectid>
                <effecttype>audiolevels</effecttype>
                <mediatype>audio</mediatype>
                <effectcategory>audiolevels</effectcategory>
                <parameter>
                  <name>Level</name>
                  <parameterid>level</parameterid>
                  <value>1</value>
                  <valuemin>0</valuemin>
                  <valuemax>3.98109</valuemax>
                </parameter>
              </effect>
            </filter>
            <filter>
              <enabled>TRUE</enabled>
              <start>0</start>
              <end>348</end>
              <effect>
                <name>Audio Pan</name>
                <effectid>audiopan</effectid>
                <effecttype>audiopan</effecttype>
                <mediatype>audio</mediatype>
                <effectcategory>audiopan</effectcategory>
                <parameter>
                  <name>Pan</name>
                  <parameterid>pan</parameterid>
                  <value>0</value>
                  <valuemin>-1</valuemin>
                  <valuemax>1</valuemax>
                </parameter>
              </effect>
            </filter>
            <comments/>
          </clipitem>
          <clipitem id="clipitem-69">
            <name>OrionEp12_069.mp3</name>
            <enabled>TRUE</enabled>
            <duration>322</duration>
            <rate>
              <timebase>30</timebase>
              <ntsc>TRUE</ntsc>
            </rate>
            <start>19994</start>
            <end>20316</end>
            <in>0</in>
            <out>322</out>
            <file id="file-69">
              <name>OrionEp12_069.mp3</name>
              <pathurl>file:///Users/hiroshikodera/repos/_active/tools/davinciauto/projects/OrionEp12/output/audio/OrionEp12_069.mp3</pathurl>
              <rate>
                <timebase>24000</timebase>
                <ntsc>FALSE</ntsc>
              </rate>
              <media>
                <audio>
                  <channelcount>1</channelcount>
                  <samplecharacteristics>
                    <samplerate>24000</samplerate>
                    <samplesize>16</samplesize>
                  </samplecharacteristics>
                </audio>
              </media>
            </file>
            <sourcetrack>
              <mediatype>audio</mediatype>
              <trackindex>1</trackindex>
            </sourcetrack>
            <filter>
              <enabled>TRUE</enabled>
              <start>0</start>
              <end>322</end>
              <effect>
                <name>Audio Levels</name>
                <effectid>audiolevels</effectid>
                <effecttype>audiolevels</effecttype>
                <mediatype>audio</mediatype>
                <effectcategory>audiolevels</effectcategory>
                <parameter>
                  <name>Level</name>
                  <parameterid>level</parameterid>
                  <value>1</value>
                  <valuemin>0</valuemin>
                  <valuemax>3.98109</valuemax>
                </parameter>
              </effect>
            </filter>
            <filter>
              <enabled>TRUE</enabled>
              <start>0</start>
              <end>322</end>
              <effect>
                <name>Audio Pan</name>
                <effectid>audiopan</effectid>
                <effecttype>audiopan</effecttype>
                <mediatype>audio</mediatype>
                <effectcategory>audiopan</effectcategory>
                <parameter>
                  <name>Pan</name>
                  <parameterid>pan</parameterid>
                  <value>0</value>
                  <valuemin>-1</valuemin>
                  <valuemax>1</valuemax>
                </parameter>
              </effect>
            </filter>
            <comments/>
          </clipitem>
          <clipitem id="clipitem-70">
            <name>OrionEp12_070.mp3</name>
            <enabled>TRUE</enabled>
            <duration>340</duration>
            <rate>
              <timebase>30</timebase>
              <ntsc>TRUE</ntsc>
            </rate>
            <start>20316</start>
            <end>20656</end>
            <in>0</in>
            <out>340</out>
            <file id="file-70">
              <name>OrionEp12_070.mp3</name>
              <pathurl>file:///Users/hiroshikodera/repos/_active/tools/davinciauto/projects/OrionEp12/output/audio/OrionEp12_070.mp3</pathurl>
              <rate>
                <timebase>24000</timebase>
                <ntsc>FALSE</ntsc>
              </rate>
              <media>
                <audio>
                  <channelcount>1</channelcount>
                  <samplecharacteristics>
                    <samplerate>24000</samplerate>
                    <samplesize>16</samplesize>
                  </samplecharacteristics>
                </audio>
              </media>
            </file>
            <sourcetrack>
              <mediatype>audio</mediatype>
              <trackindex>1</trackindex>
            </sourcetrack>
            <filter>
              <enabled>TRUE</enabled>
              <start>0</start>
              <end>340</end>
              <effect>
                <name>Audio Levels</name>
                <effectid>audiolevels</effectid>
                <effecttype>audiolevels</effecttype>
                <mediatype>audio</mediatype>
                <effectcategory>audiolevels</effectcategory>
                <parameter>
                  <name>Level</name>
                  <parameterid>level</parameterid>
                  <value>1</value>
                  <valuemin>0</valuemin>
                  <valuemax>3.98109</valuemax>
                </parameter>
              </effect>
            </filter>
            <filter>
              <enabled>TRUE</enabled>
              <start>0</start>
              <end>340</end>
              <effect>
                <name>Audio Pan</name>
                <effectid>audiopan</effectid>
                <effecttype>audiopan</effecttype>
                <mediatype>audio</mediatype>
                <effectcategory>audiopan</effectcategory>
                <parameter>
                  <name>Pan</name>
                  <parameterid>pan</parameterid>
                  <value>0</value>
                  <valuemin>-1</valuemin>
                  <valuemax>1</valuemax>
                </parameter>
              </effect>
            </filter>
            <comments/>
          </clipitem>
          <clipitem id="clipitem-71">
            <name>OrionEp12_071.mp3</name>
            <enabled>TRUE</enabled>
            <duration>196</duration>
            <rate>
              <timebase>30</timebase>
              <ntsc>TRUE</ntsc>
            </rate>
            <start>20656</start>
            <end>20852</end>
            <in>0</in>
            <out>196</out>
            <file id="file-71">
              <name>OrionEp12_071.mp3</name>
              <pathurl>file:///Users/hiroshikodera/repos/_active/tools/davinciauto/projects/OrionEp12/output/audio/OrionEp12_071.mp3</pathurl>
              <rate>
                <timebase>24000</timebase>
                <ntsc>FALSE</ntsc>
              </rate>
              <media>
                <audio>
                  <channelcount>1</channelcount>
                  <samplecharacteristics>
                    <samplerate>24000</samplerate>
                    <samplesize>16</samplesize>
                  </samplecharacteristics>
                </audio>
              </media>
            </file>
            <sourcetrack>
              <mediatype>audio</mediatype>
              <trackindex>1</trackindex>
            </sourcetrack>
            <filter>
              <enabled>TRUE</enabled>
              <start>0</start>
              <end>196</end>
              <effect>
                <name>Audio Levels</name>
                <effectid>audiolevels</effectid>
                <effecttype>audiolevels</effecttype>
                <mediatype>audio</mediatype>
                <effectcategory>audiolevels</effectcategory>
                <parameter>
                  <name>Level</name>
                  <parameterid>level</parameterid>
                  <value>1</value>
                  <valuemin>0</valuemin>
                  <valuemax>3.98109</valuemax>
                </parameter>
              </effect>
            </filter>
            <filter>
              <enabled>TRUE</enabled>
              <start>0</start>
              <end>196</end>
              <effect>
                <name>Audio Pan</name>
                <effectid>audiopan</effectid>
                <effecttype>audiopan</effecttype>
                <mediatype>audio</mediatype>
                <effectcategory>audiopan</effectcategory>
                <parameter>
                  <name>Pan</name>
                  <parameterid>pan</parameterid>
                  <value>0</value>
                  <valuemin>-1</valuemin>
                  <valuemax>1</valuemax>
                </parameter>
              </effect>
            </filter>
            <comments/>
          </clipitem>
          <clipitem id="clipitem-72">
            <name>OrionEp12_072.mp3</name>
            <enabled>TRUE</enabled>
            <duration>388</duration>
            <rate>
              <timebase>30</timebase>
              <ntsc>TRUE</ntsc>
            </rate>
            <start>20852</start>
            <end>21240</end>
            <in>0</in>
            <out>388</out>
            <file id="file-72">
              <name>OrionEp12_072.mp3</name>
              <pathurl>file:///Users/hiroshikodera/repos/_active/tools/davinciauto/projects/OrionEp12/output/audio/OrionEp12_072.mp3</pathurl>
              <rate>
                <timebase>24000</timebase>
                <ntsc>FALSE</ntsc>
              </rate>
              <media>
                <audio>
                  <channelcount>1</channelcount>
                  <samplecharacteristics>
                    <samplerate>24000</samplerate>
                    <samplesize>16</samplesize>
                  </samplecharacteristics>
                </audio>
              </media>
            </file>
            <sourcetrack>
              <mediatype>audio</mediatype>
              <trackindex>1</trackindex>
            </sourcetrack>
            <filter>
              <enabled>TRUE</enabled>
              <start>0</start>
              <end>388</end>
              <effect>
                <name>Audio Levels</name>
                <effectid>audiolevels</effectid>
                <effecttype>audiolevels</effecttype>
                <mediatype>audio</mediatype>
                <effectcategory>audiolevels</effectcategory>
                <parameter>
                  <name>Level</name>
                  <parameterid>level</parameterid>
                  <value>1</value>
                  <valuemin>0</valuemin>
                  <valuemax>3.98109</valuemax>
                </parameter>
              </effect>
            </filter>
            <filter>
              <enabled>TRUE</enabled>
              <start>0</start>
              <end>388</end>
              <effect>
                <name>Audio Pan</name>
                <effectid>audiopan</effectid>
                <effecttype>audiopan</effecttype>
                <mediatype>audio</mediatype>
                <effectcategory>audiopan</effectcategory>
                <parameter>
                  <name>Pan</name>
                  <parameterid>pan</parameterid>
                  <value>0</value>
                  <valuemin>-1</valuemin>
                  <valuemax>1</valuemax>
                </parameter>
              </effect>
            </filter>
            <comments/>
          </clipitem>
          <clipitem id="clipitem-73">
            <name>OrionEp12_073.mp3</name>
            <enabled>TRUE</enabled>
            <duration>99</duration>
            <rate>
              <timebase>30</timebase>
              <ntsc>TRUE</ntsc>
            </rate>
            <start>21240</start>
            <end>21339</end>
            <in>0</in>
            <out>99</out>
            <file id="file-73">
              <name>OrionEp12_073.mp3</name>
              <pathurl>file:///Users/hiroshikodera/repos/_active/tools/davinciauto/projects/OrionEp12/output/audio/OrionEp12_073.mp3</pathurl>
              <rate>
                <timebase>24000</timebase>
                <ntsc>FALSE</ntsc>
              </rate>
              <media>
                <audio>
                  <channelcount>1</channelcount>
                  <samplecharacteristics>
                    <samplerate>24000</samplerate>
                    <samplesize>16</samplesize>
                  </samplecharacteristics>
                </audio>
              </media>
            </file>
            <sourcetrack>
              <mediatype>audio</mediatype>
              <trackindex>1</trackindex>
            </sourcetrack>
            <filter>
              <enabled>TRUE</enabled>
              <start>0</start>
              <end>99</end>
              <effect>
                <name>Audio Levels</name>
                <effectid>audiolevels</effectid>
                <effecttype>audiolevels</effecttype>
                <mediatype>audio</mediatype>
                <effectcategory>audiolevels</effectcategory>
                <parameter>
                  <name>Level</name>
                  <parameterid>level</parameterid>
                  <value>1</value>
                  <valuemin>0</valuemin>
                  <valuemax>3.98109</valuemax>
                </parameter>
              </effect>
            </filter>
            <filter>
              <enabled>TRUE</enabled>
              <start>0</start>
              <end>99</end>
              <effect>
                <name>Audio Pan</name>
                <effectid>audiopan</effectid>
                <effecttype>audiopan</effecttype>
                <mediatype>audio</mediatype>
                <effectcategory>audiopan</effectcategory>
                <parameter>
                  <name>Pan</name>
                  <parameterid>pan</parameterid>
                  <value>0</value>
                  <valuemin>-1</valuemin>
                  <valuemax>1</valuemax>
                </parameter>
              </effect>
            </filter>
            <comments/>
          </clipitem>
          <clipitem id="clipitem-74">
            <name>OrionEp12_074.mp3</name>
            <enabled>TRUE</enabled>
            <duration>127</duration>
            <rate>
              <timebase>30</timebase>
              <ntsc>TRUE</ntsc>
            </rate>
            <start>21429</start>
            <end>21556</end>
            <in>0</in>
            <out>127</out>
            <file id="file-74">
              <name>OrionEp12_074.mp3</name>
              <pathurl>file:///Users/hiroshikodera/repos/_active/tools/davinciauto/projects/OrionEp12/output/audio/OrionEp12_074.mp3</pathurl>
              <rate>
                <timebase>24000</timebase>
                <ntsc>FALSE</ntsc>
              </rate>
              <media>
                <audio>
                  <channelcount>1</channelcount>
                  <samplecharacteristics>
                    <samplerate>24000</samplerate>
                    <samplesize>16</samplesize>
                  </samplecharacteristics>
                </audio>
              </media>
            </file>
            <sourcetrack>
              <mediatype>audio</mediatype>
              <trackindex>1</trackindex>
            </sourcetrack>
            <filter>
              <enabled>TRUE</enabled>
              <start>0</start>
              <end>127</end>
              <effect>
                <name>Audio Levels</name>
                <effectid>audiolevels</effectid>
                <effecttype>audiolevels</effecttype>
                <mediatype>audio</mediatype>
                <effectcategory>audiolevels</effectcategory>
                <parameter>
                  <name>Level</name>
                  <parameterid>level</parameterid>
                  <value>1</value>
                  <valuemin>0</valuemin>
                  <valuemax>3.98109</valuemax>
                </parameter>
              </effect>
            </filter>
            <filter>
              <enabled>TRUE</enabled>
              <start>0</start>
              <end>127</end>
              <effect>
                <name>Audio Pan</name>
                <effectid>audiopan</effectid>
                <effecttype>audiopan</effecttype>
                <mediatype>audio</mediatype>
                <effectcategory>audiopan</effectcategory>
                <parameter>
                  <name>Pan</name>
                  <parameterid>pan</parameterid>
                  <value>0</value>
                  <valuemin>-1</valuemin>
                  <valuemax>1</valuemax>
                </parameter>
              </effect>
            </filter>
            <comments/>
          </clipitem>
          <clipitem id="clipitem-75">
            <name>OrionEp12_075.mp3</name>
            <enabled>TRUE</enabled>
            <duration>216</duration>
            <rate>
              <timebase>30</timebase>
              <ntsc>TRUE</ntsc>
            </rate>
            <start>21556</start>
            <end>21772</end>
            <in>0</in>
            <out>216</out>
            <file id="file-75">
              <name>OrionEp12_075.mp3</name>
              <pathurl>file:///Users/hiroshikodera/repos/_active/tools/davinciauto/projects/OrionEp12/output/audio/OrionEp12_075.mp3</pathurl>
              <rate>
                <timebase>24000</timebase>
                <ntsc>FALSE</ntsc>
              </rate>
              <media>
                <audio>
                  <channelcount>1</channelcount>
                  <samplecharacteristics>
                    <samplerate>24000</samplerate>
                    <samplesize>16</samplesize>
                  </samplecharacteristics>
                </audio>
              </media>
            </file>
            <sourcetrack>
              <mediatype>audio</mediatype>
              <trackindex>1</trackindex>
            </sourcetrack>
            <filter>
              <enabled>TRUE</enabled>
              <start>0</start>
              <end>216</end>
              <effect>
                <name>Audio Levels</name>
                <effectid>audiolevels</effectid>
                <effecttype>audiolevels</effecttype>
                <mediatype>audio</mediatype>
                <effectcategory>audiolevels</effectcategory>
                <parameter>
                  <name>Level</name>
                  <parameterid>level</parameterid>
                  <value>1</value>
                  <valuemin>0</valuemin>
                  <valuemax>3.98109</valuemax>
                </parameter>
              </effect>
            </filter>
            <filter>
              <enabled>TRUE</enabled>
              <start>0</start>
              <end>216</end>
              <effect>
                <name>Audio Pan</name>
                <effectid>audiopan</effectid>
                <effecttype>audiopan</effecttype>
                <mediatype>audio</mediatype>
                <effectcategory>audiopan</effectcategory>
                <parameter>
                  <name>Pan</name>
                  <parameterid>pan</parameterid>
                  <value>0</value>
                  <valuemin>-1</valuemin>
                  <valuemax>1</valuemax>
                </parameter>
              </effect>
            </filter>
            <comments/>
          </clipitem>
          <clipitem id="clipitem-76">
            <name>OrionEp12_076.mp3</name>
            <enabled>TRUE</enabled>
            <duration>180</duration>
            <rate>
              <timebase>30</timebase>
              <ntsc>TRUE</ntsc>
            </rate>
            <start>21772</start>
            <end>21952</end>
            <in>0</in>
            <out>180</out>
            <file id="file-76">
              <name>OrionEp12_076.mp3</name>
              <pathurl>file:///Users/hiroshikodera/repos/_active/tools/davinciauto/projects/OrionEp12/output/audio/OrionEp12_076.mp3</pathurl>
              <rate>
                <timebase>24000</timebase>
                <ntsc>FALSE</ntsc>
              </rate>
              <media>
                <audio>
                  <channelcount>1</channelcount>
                  <samplecharacteristics>
                    <samplerate>24000</samplerate>
                    <samplesize>16</samplesize>
                  </samplecharacteristics>
                </audio>
              </media>
            </file>
            <sourcetrack>
              <mediatype>audio</mediatype>
              <trackindex>1</trackindex>
            </sourcetrack>
            <filter>
              <enabled>TRUE</enabled>
              <start>0</start>
              <end>180</end>
              <effect>
                <name>Audio Levels</name>
                <effectid>audiolevels</effectid>
                <effecttype>audiolevels</effecttype>
                <mediatype>audio</mediatype>
                <effectcategory>audiolevels</effectcategory>
                <parameter>
                  <name>Level</name>
                  <parameterid>level</parameterid>
                  <value>1</value>
                  <valuemin>0</valuemin>
                  <valuemax>3.98109</valuemax>
                </parameter>
              </effect>
            </filter>
            <filter>
              <enabled>TRUE</enabled>
              <start>0</start>
              <end>180</end>
              <effect>
                <name>Audio Pan</name>
                <effectid>audiopan</effectid>
                <effecttype>audiopan</effecttype>
                <mediatype>audio</mediatype>
                <effectcategory>audiopan</effectcategory>
                <parameter>
                  <name>Pan</name>
                  <parameterid>pan</parameterid>
                  <value>0</value>
                  <valuemin>-1</valuemin>
                  <valuemax>1</valuemax>
                </parameter>
              </effect>
            </filter>
            <comments/>
          </clipitem>
          <clipitem id="clipitem-77">
            <name>OrionEp12_077.mp3</name>
            <enabled>TRUE</enabled>
            <duration>172</duration>
            <rate>
              <timebase>30</timebase>
              <ntsc>TRUE</ntsc>
            </rate>
            <start>21952</start>
            <end>22124</end>
            <in>0</in>
            <out>172</out>
            <file id="file-77">
              <name>OrionEp12_077.mp3</name>
              <pathurl>file:///Users/hiroshikodera/repos/_active/tools/davinciauto/projects/OrionEp12/output/audio/OrionEp12_077.mp3</pathurl>
              <rate>
                <timebase>24000</timebase>
                <ntsc>FALSE</ntsc>
              </rate>
              <media>
                <audio>
                  <channelcount>1</channelcount>
                  <samplecharacteristics>
                    <samplerate>24000</samplerate>
                    <samplesize>16</samplesize>
                  </samplecharacteristics>
                </audio>
              </media>
            </file>
            <sourcetrack>
              <mediatype>audio</mediatype>
              <trackindex>1</trackindex>
            </sourcetrack>
            <filter>
              <enabled>TRUE</enabled>
              <start>0</start>
              <end>172</end>
              <effect>
                <name>Audio Levels</name>
                <effectid>audiolevels</effectid>
                <effecttype>audiolevels</effecttype>
                <mediatype>audio</mediatype>
                <effectcategory>audiolevels</effectcategory>
                <parameter>
                  <name>Level</name>
                  <parameterid>level</parameterid>
                  <value>1</value>
                  <valuemin>0</valuemin>
                  <valuemax>3.98109</valuemax>
                </parameter>
              </effect>
            </filter>
            <filter>
              <enabled>TRUE</enabled>
              <start>0</start>
              <end>172</end>
              <effect>
                <name>Audio Pan</name>
                <effectid>audiopan</effectid>
                <effecttype>audiopan</effecttype>
                <mediatype>audio</mediatype>
                <effectcategory>audiopan</effectcategory>
                <parameter>
                  <name>Pan</name>
                  <parameterid>pan</parameterid>
                  <value>0</value>
                  <valuemin>-1</valuemin>
                  <valuemax>1</valuemax>
                </parameter>
              </effect>
            </filter>
            <comments/>
          </clipitem>
          <clipitem id="clipitem-78">
            <name>OrionEp12_078.mp3</name>
            <enabled>TRUE</enabled>
            <duration>235</duration>
            <rate>
              <timebase>30</timebase>
              <ntsc>TRUE</ntsc>
            </rate>
            <start>22124</start>
            <end>22359</end>
            <in>0</in>
            <out>235</out>
            <file id="file-78">
              <name>OrionEp12_078.mp3</name>
              <pathurl>file:///Users/hiroshikodera/repos/_active/tools/davinciauto/projects/OrionEp12/output/audio/OrionEp12_078.mp3</pathurl>
              <rate>
                <timebase>24000</timebase>
                <ntsc>FALSE</ntsc>
              </rate>
              <media>
                <audio>
                  <channelcount>1</channelcount>
                  <samplecharacteristics>
                    <samplerate>24000</samplerate>
                    <samplesize>16</samplesize>
                  </samplecharacteristics>
                </audio>
              </media>
            </file>
            <sourcetrack>
              <mediatype>audio</mediatype>
              <trackindex>1</trackindex>
            </sourcetrack>
            <filter>
              <enabled>TRUE</enabled>
              <start>0</start>
              <end>235</end>
              <effect>
                <name>Audio Levels</name>
                <effectid>audiolevels</effectid>
                <effecttype>audiolevels</effecttype>
                <mediatype>audio</mediatype>
                <effectcategory>audiolevels</effectcategory>
                <parameter>
                  <name>Level</name>
                  <parameterid>level</parameterid>
                  <value>1</value>
                  <valuemin>0</valuemin>
                  <valuemax>3.98109</valuemax>
                </parameter>
              </effect>
            </filter>
            <filter>
              <enabled>TRUE</enabled>
              <start>0</start>
              <end>235</end>
              <effect>
                <name>Audio Pan</name>
                <effectid>audiopan</effectid>
                <effecttype>audiopan</effecttype>
                <mediatype>audio</mediatype>
                <effectcategory>audiopan</effectcategory>
                <parameter>
                  <name>Pan</name>
                  <parameterid>pan</parameterid>
                  <value>0</value>
                  <valuemin>-1</valuemin>
                  <valuemax>1</valuemax>
                </parameter>
              </effect>
            </filter>
            <comments/>
          </clipitem>
        </track>
      </audio>
    </media>
  </sequence>
</xmeml>
