<?xml version="1.0" encoding="UTF-8"?>
<!DOCTYPE xmeml>
<xmeml version="4">
	<sequence id="sequence-1" TL.SQAudioVisibleBase="0" TL.SQVideoVisibleBase="0" TL.SQVisibleBaseTime="0" TL.SQAVDividerPosition="0.259234815836" TL.SQHideShyTracks="0" TL.SQHeaderWidth="204" Monitor.ProgramZoomOut="1542893505753600" Monitor.ProgramZoomIn="0" TL.SQTimePerPixel="0.56945777777776874" MZ.EditLine="30080142892800" MZ.Sequence.PreviewFrameSizeHeight="1080" MZ.Sequence.PreviewFrameSizeWidth="1920" MZ.Sequence.AudioTimeDisplayFormat="200" MZ.Sequence.PreviewRenderingClassID="1061109567" MZ.Sequence.PreviewRenderingPresetCodec="1634755443" MZ.Sequence.PreviewRenderingPresetPath="EncoderPresets/SequencePreview/795454d9-d3c2-429d-9474-923ab13b7018/QuickTime.epr" MZ.Sequence.PreviewUseMaxRenderQuality="false" MZ.Sequence.PreviewUseMaxBitDepth="false" MZ.Sequence.EditingModeGUID="795454d9-d3c2-429d-9474-923ab13b7018" MZ.Sequence.VideoTimeDisplayFormat="102" MZ.WorkOutPoint="1692074664000000" MZ.WorkInPoint="0" explodedTracks="true">
		<uuid>898d2335-9500-4a1f-968c-4ecdbab0cedd</uuid>
		<duration>134291</duration>
		<rate>
			<timebase>30</timebase>
			<ntsc>TRUE</ntsc>
		</rate>
		<name>024___cut</name>
		<media>
			<video>
				<format>
					
					
					<samplecharacteristics>
						
						
						<rate>
							
							
							<timebase>30</timebase>
							
							
							<ntsc>TRUE</ntsc>
							
						
						</rate>
						
						
						<codec>
							
							
							<name>Apple ProRes 422</name>
							
							
							<appspecificdata>
								
								
								<appname>Final Cut Pro</appname>
								
								
								<appmanufacturer>Apple Inc.</appmanufacturer>
								
								
								<appversion>7.0</appversion>
								
								
								<data>
									
									
									<qtcodec>
										
										
										<codecname>Apple ProRes 422</codecname>
										
										
										<codectypename>Apple ProRes 422</codectypename>
										
										
										<codectypecode>apcn</codectypecode>
										
										
										<codecvendorcode>appl</codecvendorcode>
										
										
										<spatialquality>1024</spatialquality>
										
										
										<temporalquality>0</temporalquality>
										
										
										<keyframerate>0</keyframerate>
										
										
										<datarate>0</datarate>
										
									
									</qtcodec>
									
								
								</data>
								
							
							</appspecificdata>
							
						
						</codec>
						
						
						<width>1920</width>
						
						
						<height>1080</height>
						
						
						<anamorphic>FALSE</anamorphic>
						
						
						<pixelaspectratio>square</pixelaspectratio>
						
						
						<fielddominance>upper</fielddominance>
						
						
						<colordepth>24</colordepth>
						
					
					</samplecharacteristics>
					
				
				</format>
				<track TL.SQTrackShy="0" TL.SQTrackExpandedHeight="65" TL.SQTrackExpanded="0" MZ.TrackTargeted="1">
					
					
					<enabled>TRUE</enabled>
					
					
					<locked>FALSE</locked>
					
				
				</track>
				<track TL.SQTrackShy="0" TL.SQTrackExpandedHeight="65" TL.SQTrackExpanded="0" MZ.TrackTargeted="0">
					
					
					<enabled>TRUE</enabled>
					
					
					<locked>FALSE</locked>
					
				
				</track>
				<track TL.SQTrackShy="0" TL.SQTrackExpandedHeight="65" TL.SQTrackExpanded="0" MZ.TrackTargeted="0">
					
					
					<enabled>TRUE</enabled>
					
					
					<locked>FALSE</locked>
					
				
				</track>
			</video>
			<audio>
				<numOutputChannels>2</numOutputChannels>
				
				
				<format>
					
					
					<samplecharacteristics>
						
						
						<depth>16</depth>
						
						
						<samplerate>48000</samplerate>
						
					
					</samplecharacteristics>
					
				
				</format>
				
				
				<outputs>
					
					
					<group>
						
						
						<index>1</index>
						
						
						<numchannels>1</numchannels>
						
						
						<downmix>0</downmix>
						
						
						<channel>
							
							
							<index>1</index>
							
						
						</channel>
						
					
					</group>
					
					
					<group>
						
						
						<index>2</index>
						
						
						<numchannels>1</numchannels>
						
						
						<downmix>0</downmix>
						
						
						<channel>
							
							
							<index>2</index>
							
						
						</channel>
						
					
					</group>
					
				
				</outputs>
				
				
				<track TL.SQTrackAudioKeyframeStyle="0" TL.SQTrackShy="0" TL.SQTrackExpandedHeight="130" TL.SQTrackExpanded="0" MZ.TrackTargeted="1" PannerCurrentValue="0.5" PannerIsInverted="false" PannerStartKeyframe="-91445760000000000,0.5,0,0,0,0,0,0" PannerName="Balance" currentExplodedTrackIndex="0" totalExplodedTrackCount="1" premiereTrackType="Stereo">
					<clipitem id="clipitem-5" premiereChannelType="mono">
						
						
						<masterclipid>masterclip-1</masterclipid>
						
						
						<name>251010_125925_Tr3.WAV</name>
						
						
						<enabled>TRUE</enabled>
						
						
						<duration>167592</duration>
						
						
						<rate>
							
							
							<timebase>30</timebase>
							
							
							<ntsc>TRUE</ntsc>
							
						
						</rate>
						
						
						<start>149</start>
						
						
						<end>5083</end>
						
						
						<in>7110</in>
						
						
						<out>12044</out>
						
						
						<pproTicksIn>60261993792000</pproTicksIn>
						
						
						<pproTicksOut>102080935756800</pproTicksOut>
						
						
						<file id="file-1">
							<name>251010_125925_Tr3.WAV</name>
							<pathurl>file://localhost/Volumes/P-40/Dropbox/%e3%83%95%e3%82%9a%e3%83%a9%e3%83%83%e3%81%a8/01_%e3%83%95%e3%82%9a%e3%83%a9%e3%83%83%e3%81%a8%e7%b4%a0%e6%9d%90/024_%e6%9c%8d%e9%83%a8%e5%b8%ab%e7%94%b0/024_ZOOM/%e5%b8%ab%e7%94%b0/251010_125925_Tr3.WAV</pathurl>
							<rate>
								
								
								<timebase>25</timebase>
								
								
								<ntsc>FALSE</ntsc>
								
							
							</rate>
							<duration>139800</duration>
							<timecode>
								
								
								<rate>
									
									
									<timebase>25</timebase>
									
									
									<ntsc>FALSE</ntsc>
									
								
								</rate>
								
								
								<string>12:59:25:00</string>
								
								
								<frame>1169125</frame>
								
								
								<displayformat>NDF</displayformat>
								
							
							</timecode>
							<media>
								
								
								<audio>
									
									
									<samplecharacteristics>
										
										
										<depth>16</depth>
										
										
										<samplerate>48000</samplerate>
										
									
									</samplecharacteristics>
									
									
									<channelcount>1</channelcount>
									
									
									<audiochannel>
										
										
										<sourcechannel>1</sourcechannel>
										
									
									</audiochannel>
									
								
								</audio>
								
							
							</media>
						</file>
						<sourcetrack>
							
							
							<mediatype>audio</mediatype>
							
							
							<trackindex>1</trackindex>
							
						
						</sourcetrack>
						
						
						<logginginfo>
							
							
							<description/>
							
							
							<scene/>
							
							
							<shottake/>
							
							
							<lognote/>
							
							
							<good/>
							
							
							<originalvideofilename/>
							
							
							<originalaudiofilename/>
							
						
						</logginginfo>
						
						
						<colorinfo>
							
							
							<lut/>
							
							
							<lut1/>
							
							
							<asc_sop/>
							
							
							<asc_sat/>
							
							
							<lut2/>
							
						
						</colorinfo>
						
						
						<labels>
							
							
							<label2>Teal</label2>
							
						
						</labels>
						
					
						<sourcetrack>
							<mediatype>audio</mediatype>
							<trackindex>1</trackindex>
						</sourcetrack>
					</clipitem>
					<clipitem id="clipitem-6" premiereChannelType="mono">
						
						
						<masterclipid>masterclip-1</masterclipid>
						
						
						<name>251010_125925_Tr3.WAV</name>
						
						
						<enabled>TRUE</enabled>
						
						
						<duration>167592</duration>
						
						
						<rate>
							
							
							<timebase>30</timebase>
							
							
							<ntsc>TRUE</ntsc>
							
						
						</rate>
						
						
						<start>5683</start>
						
						
						<end>18793</end>
						
						
						<in>15457</in>
						
						
						<out>28567</out>
						
						
						<pproTicksIn>131008387910400</pproTicksIn>
						
						
						<pproTicksOut>242124384902400</pproTicksOut>
						
						
						<file id="file-1">
							</file>
						
						
						<sourcetrack>
							
							
							<mediatype>audio</mediatype>
							
							
							<trackindex>1</trackindex>
							
						
						</sourcetrack>
						
						
						<logginginfo>
							
							
							<description/>
							
							
							<scene/>
							
							
							<shottake/>
							
							
							<lognote/>
							
							
							<good/>
							
							
							<originalvideofilename/>
							
							
							<originalaudiofilename/>
							
						
						</logginginfo>
						
						
						<colorinfo>
							
							
							<lut/>
							
							
							<lut1/>
							
							
							<asc_sop/>
							
							
							<asc_sat/>
							
							
							<lut2/>
							
						
						</colorinfo>
						
						
						<labels>
							
							
							<label2>Purple</label2>
							
						
						</labels>
						
					
						<sourcetrack>
							<mediatype>audio</mediatype>
							<trackindex>1</trackindex>
						</sourcetrack>
					</clipitem>
					<clipitem id="clipitem-7" premiereChannelType="mono">
						
						
						<masterclipid>masterclip-1</masterclipid>
						
						
						<name>251010_125925_Tr3.WAV</name>
						
						
						<enabled>TRUE</enabled>
						
						
						<duration>167592</duration>
						
						
						<rate>
							
							
							<timebase>30</timebase>
							
							
							<ntsc>TRUE</ntsc>
							
						
						</rate>
						
						
						<start>19393</start>
						
						
						<end>25110</end>
						
						
						<in>31793</in>
						
						
						<out>37510</out>
						
						
						<pproTicksIn>269466887289600</pproTicksIn>
						
						
						<pproTicksOut>317922276672000</pproTicksOut>
						
						
						<file id="file-1">
							</file>
						
						
						<sourcetrack>
							
							
							<mediatype>audio</mediatype>
							
							
							<trackindex>1</trackindex>
							
						
						</sourcetrack>
						
						
						<logginginfo>
							
							
							<description/>
							
							
							<scene/>
							
							
							<shottake/>
							
							
							<lognote/>
							
							
							<good/>
							
							
							<originalvideofilename/>
							
							
							<originalaudiofilename/>
							
						
						</logginginfo>
						
						
						<colorinfo>
							
							
							<lut/>
							
							
							<lut1/>
							
							
							<asc_sop/>
							
							
							<asc_sat/>
							
							
							<lut2/>
							
						
						</colorinfo>
						
						
						<labels>
							
							
							<label2>Blue</label2>
							
						
						</labels>
						
					
						<sourcetrack>
							<mediatype>audio</mediatype>
							<trackindex>1</trackindex>
						</sourcetrack>
					</clipitem>
					<clipitem id="clipitem-8" premiereChannelType="mono">
						
						
						<masterclipid>masterclip-1</masterclipid>
						
						
						<name>251010_125925_Tr3.WAV</name>
						
						
						<enabled>TRUE</enabled>
						
						
						<duration>167592</duration>
						
						
						<rate>
							
							
							<timebase>30</timebase>
							
							
							<ntsc>TRUE</ntsc>
							
						
						</rate>
						
						
						<start>25710</start>
						
						
						<end>34115</end>
						
						
						<in>40188</in>
						
						
						<out>48593</out>
						
						
						<pproTicksIn>340620113433600</pproTicksIn>
						
						
						<pproTicksOut>411858096249600</pproTicksOut>
						
						
						<file id="file-1">
							</file>
						
						
						<sourcetrack>
							
							
							<mediatype>audio</mediatype>
							
							
							<trackindex>1</trackindex>
							
						
						</sourcetrack>
						
						
						<logginginfo>
							
							
							<description/>
							
							
							<scene/>
							
							
							<shottake/>
							
							
							<lognote/>
							
							
							<good/>
							
							
							<originalvideofilename/>
							
							
							<originalaudiofilename/>
							
						
						</logginginfo>
						
						
						<colorinfo>
							
							
							<lut/>
							
							
							<lut1/>
							
							
							<asc_sop/>
							
							
							<asc_sat/>
							
							
							<lut2/>
							
						
						</colorinfo>
						
						
						<labels>
							
							
							<label2>Forest</label2>
							
						
						</labels>
						
					
						<sourcetrack>
							<mediatype>audio</mediatype>
							<trackindex>1</trackindex>
						</sourcetrack>
					</clipitem>
					<clipitem id="clipitem-9" premiereChannelType="mono">
						
						
						<masterclipid>masterclip-1</masterclipid>
						
						
						<name>251010_125925_Tr3.WAV</name>
						
						
						<enabled>TRUE</enabled>
						
						
						<duration>167592</duration>
						
						
						<rate>
							
							
							<timebase>30</timebase>
							
							
							<ntsc>TRUE</ntsc>
							
						
						</rate>
						
						
						<start>34715</start>
						
						
						<end>48984</end>
						
						
						<in>58898</in>
						
						
						<out>73167</out>
						
						
						<pproTicksIn>499199846745600</pproTicksIn>
						
						
						<pproTicksOut>620139142022400</pproTicksOut>
						
						
						<file id="file-1">
							</file>
						
						
						<sourcetrack>
							
							
							<mediatype>audio</mediatype>
							
							
							<trackindex>1</trackindex>
							
						
						</sourcetrack>
						
						
						<logginginfo>
							
							
							<description/>
							
							
							<scene/>
							
							
							<shottake/>
							
							
							<lognote/>
							
							
							<good/>
							
							
							<originalvideofilename/>
							
							
							<originalaudiofilename/>
							
						
						</logginginfo>
						
						
						<colorinfo>
							
							
							<lut/>
							
							
							<lut1/>
							
							
							<asc_sop/>
							
							
							<asc_sat/>
							
							
							<lut2/>
							
						
						</colorinfo>
						
						
						<labels>
							
							
							<label2>Tan</label2>
							
						
						</labels>
						
					
						<sourcetrack>
							<mediatype>audio</mediatype>
							<trackindex>1</trackindex>
						</sourcetrack>
					</clipitem>
					<clipitem id="clipitem-10" premiereChannelType="mono">
						
						
						<masterclipid>masterclip-1</masterclipid>
						
						
						<name>251010_125925_Tr3.WAV</name>
						
						
						<enabled>TRUE</enabled>
						
						
						<duration>167592</duration>
						
						
						<rate>
							
							
							<timebase>30</timebase>
							
							
							<ntsc>TRUE</ntsc>
							
						
						</rate>
						
						
						<start>49584</start>
						
						
						<end>63526</end>
						
						
						<in>78830</in>
						
						
						<out>92772</out>
						
						
						<pproTicksIn>668136845376000</pproTicksIn>
						
						
						<pproTicksOut>786304597478400</pproTicksOut>
						
						
						<file id="file-1">
							</file>
						
						
						<sourcetrack>
							
							
							<mediatype>audio</mediatype>
							
							
							<trackindex>1</trackindex>
							
						
						</sourcetrack>
						
						
						<logginginfo>
							
							
							<description/>
							
							
							<scene/>
							
							
							<shottake/>
							
							
							<lognote/>
							
							
							<good/>
							
							
							<originalvideofilename/>
							
							
							<originalaudiofilename/>
							
						
						</logginginfo>
						
						
						<colorinfo>
							
							
							<lut/>
							
							
							<lut1/>
							
							
							<asc_sop/>
							
							
							<asc_sat/>
							
							
							<lut2/>
							
						
						</colorinfo>
						
						
						<labels>
							
							
							<label2>Caribbean</label2>
							
						
						</labels>
						
					
						<sourcetrack>
							<mediatype>audio</mediatype>
							<trackindex>1</trackindex>
						</sourcetrack>
					</clipitem>
					<clipitem id="clipitem-11" premiereChannelType="mono">
						
						
						<masterclipid>masterclip-1</masterclipid>
						
						
						<name>251010_125925_Tr3.WAV</name>
						
						
						<enabled>TRUE</enabled>
						
						
						<duration>167592</duration>
						
						
						<rate>
							
							
							<timebase>30</timebase>
							
							
							<ntsc>TRUE</ntsc>
							
						
						</rate>
						
						
						<start>64126</start>
						
						
						<end>72849</end>
						
						
						<in>92774</in>
						
						
						<out>101497</out>
						
						
						<pproTicksIn>786321548812800</pproTicksIn>
						
						
						<pproTicksOut>860254793798400</pproTicksOut>
						
						
						<file id="file-1">
							</file>
						
						
						<sourcetrack>
							
							
							<mediatype>audio</mediatype>
							
							
							<trackindex>1</trackindex>
							
						
						</sourcetrack>
						
						
						<logginginfo>
							
							
							<description/>
							
							
							<scene/>
							
							
							<shottake/>
							
							
							<lognote/>
							
							
							<good/>
							
							
							<originalvideofilename/>
							
							
							<originalaudiofilename/>
							
						
						</logginginfo>
						
						
						<colorinfo>
							
							
							<lut/>
							
							
							<lut1/>
							
							
							<asc_sop/>
							
							
							<asc_sat/>
							
							
							<lut2/>
							
						
						</colorinfo>
						
						
						<labels>
							
							
							<label2>Lavender</label2>
							
						
						</labels>
						
					
						<sourcetrack>
							<mediatype>audio</mediatype>
							<trackindex>1</trackindex>
						</sourcetrack>
					</clipitem>
					<clipitem id="clipitem-12" premiereChannelType="mono">
						
						
						<masterclipid>masterclip-1</masterclipid>
						
						
						<name>251010_125925_Tr3.WAV</name>
						
						
						<enabled>TRUE</enabled>
						
						
						<duration>167592</duration>
						
						
						<rate>
							
							
							<timebase>30</timebase>
							
							
							<ntsc>TRUE</ntsc>
							
						
						</rate>
						
						
						<start>73449</start>
						
						
						<end>91986</end>
						
						
						<in>101499</in>
						
						
						<out>120036</out>
						
						
						<pproTicksIn>860271745132800</pproTicksIn>
						
						
						<pproTicksOut>1017385188019200</pproTicksOut>
						
						
						<file id="file-1">
							</file>
						
						
						<sourcetrack>
							
							
							<mediatype>audio</mediatype>
							
							
							<trackindex>1</trackindex>
							
						
						</sourcetrack>
						
						
						<logginginfo>
							
							
							<description/>
							
							
							<scene/>
							
							
							<shottake/>
							
							
							<lognote/>
							
							
							<good/>
							
							
							<originalvideofilename/>
							
							
							<originalaudiofilename/>
							
						
						</logginginfo>
						
						
						<colorinfo>
							
							
							<lut/>
							
							
							<lut1/>
							
							
							<asc_sop/>
							
							
							<asc_sat/>
							
							
							<lut2/>
							
						
						</colorinfo>
						
						
						<labels>
							
							
							<label2>Yellow</label2>
							
						
						</labels>
						
					
						<sourcetrack>
							<mediatype>audio</mediatype>
							<trackindex>1</trackindex>
						</sourcetrack>
					</clipitem>
					<clipitem id="clipitem-13" premiereChannelType="mono">
						
						
						<masterclipid>masterclip-1</masterclipid>
						
						
						<name>251010_125925_Tr3.WAV</name>
						
						
						<enabled>TRUE</enabled>
						
						
						<duration>167592</duration>
						
						
						<rate>
							
							
							<timebase>30</timebase>
							
							
							<ntsc>TRUE</ntsc>
							
						
						</rate>
						
						
						<start>92586</start>
						
						
						<end>129717</end>
						
						
						<in>123813</in>
						
						
						<out>160944</out>
						
						
						<pproTicksIn>1049397783033600</pproTicksIn>
						
						
						<pproTicksOut>1364107781836800</pproTicksOut>
						
						
						<file id="file-1">
							</file>
						
						
						<sourcetrack>
							
							
							<mediatype>audio</mediatype>
							
							
							<trackindex>1</trackindex>
							
						
						</sourcetrack>
						
						
						<logginginfo>
							
							
							<description/>
							
							
							<scene/>
							
							
							<shottake/>
							
							
							<lognote/>
							
							
							<good/>
							
							
							<originalvideofilename/>
							
							
							<originalaudiofilename/>
							
						
						</logginginfo>
						
						
						<colorinfo>
							
							
							<lut/>
							
							
							<lut1/>
							
							
							<asc_sop/>
							
							
							<asc_sat/>
							
							
							<lut2/>
							
						
						</colorinfo>
						
						
						<labels>
							
							
							<label2>Mango</label2>
							
						
						</labels>
						
					
						<sourcetrack>
							<mediatype>audio</mediatype>
							<trackindex>1</trackindex>
						</sourcetrack>
					</clipitem>
					<clipitem id="clipitem-14" premiereChannelType="mono">
						
						
						<masterclipid>masterclip-1</masterclipid>
						
						
						<name>251010_125925_Tr3.WAV</name>
						
						
						<enabled>TRUE</enabled>
						
						
						<duration>167592</duration>
						
						
						<rate>
							
							
							<timebase>30</timebase>
							
							
							<ntsc>TRUE</ntsc>
							
						
						</rate>
						
						
						<start>130317</start>
						
						
						<end>134291</end>
						
						
						<in>162547</in>
						
						
						<out>166521</out>
						
						
						<pproTicksIn>1377694276358400</pproTicksIn>
						
						
						<pproTicksOut>1411376577811200</pproTicksOut>
						
						
						<file id="file-1">
							</file>
						
						
						<sourcetrack>
							
							
							<mediatype>audio</mediatype>
							
							
							<trackindex>1</trackindex>
							
						
						</sourcetrack>
						
						
						<logginginfo>
							
							
							<description/>
							
							
							<scene/>
							
							
							<shottake/>
							
							
							<lognote/>
							
							
							<good/>
							
							
							<originalvideofilename/>
							
							
							<originalaudiofilename/>
							
						
						</logginginfo>
						
						
						<colorinfo>
							
							
							<lut/>
							
							
							<lut1/>
							
							
							<asc_sop/>
							
							
							<asc_sat/>
							
							
							<lut2/>
							
						
						</colorinfo>
						
						
						<labels>
							
							
							<label2>Violet</label2>
							
						
						</labels>
						
					
						<sourcetrack>
							<mediatype>audio</mediatype>
							<trackindex>1</trackindex>
						</sourcetrack>
					</clipitem>
					<enabled>TRUE</enabled>
					<locked>FALSE</locked>
					<outputchannelindex>1</outputchannelindex>
				</track>
				<track TL.SQTrackAudioKeyframeStyle="0" TL.SQTrackShy="0" TL.SQTrackExpandedHeight="143" TL.SQTrackExpanded="0" MZ.TrackTargeted="1" PannerCurrentValue="0.5" PannerIsInverted="false" PannerStartKeyframe="-91445760000000000,0.5,0,0,0,0,0,0" PannerName="Balance" currentExplodedTrackIndex="0" totalExplodedTrackCount="1" premiereTrackType="Stereo">
					<clipitem id="clipitem-15" premiereChannelType="mono">
						
						
						<masterclipid>masterclip-3</masterclipid>
						
						
						<name>251010_125925_Tr1.WAV</name>
						
						
						<enabled>TRUE</enabled>
						
						
						<duration>167592</duration>
						
						
						<rate>
							
							
							<timebase>30</timebase>
							
							
							<ntsc>TRUE</ntsc>
							
						
						</rate>
						
						
						<start>149</start>
						
						
						<end>5083</end>
						
						
						<in>7110</in>
						
						
						<out>12044</out>
						
						
						<pproTicksIn>60261993792000</pproTicksIn>
						
						
						<pproTicksOut>102080935756800</pproTicksOut>
						
						
						<file id="file-3">
							<name>251010_125925_Tr1.WAV</name>
							<pathurl>file://localhost/Volumes/P-40/Dropbox/%e3%83%95%e3%82%9a%e3%83%a9%e3%83%83%e3%81%a8/01_%e3%83%95%e3%82%9a%e3%83%a9%e3%83%83%e3%81%a8%e7%b4%a0%e6%9d%90/024_%e6%9c%8d%e9%83%a8%e5%b8%ab%e7%94%b0/024_ZOOM/%e6%9c%8d%e9%83%a8/251010_125925_Tr1.WAV</pathurl>
							<rate>
								
								
								<timebase>25</timebase>
								
								
								<ntsc>FALSE</ntsc>
								
							
							</rate>
							<duration>139800</duration>
							<timecode>
								
								
								<rate>
									
									
									<timebase>25</timebase>
									
									
									<ntsc>FALSE</ntsc>
									
								
								</rate>
								
								
								<string>12:59:25:00</string>
								
								
								<frame>1169125</frame>
								
								
								<displayformat>NDF</displayformat>
								
							
							</timecode>
							<media>
								
								
								<audio>
									
									
									<samplecharacteristics>
										
										
										<depth>16</depth>
										
										
										<samplerate>48000</samplerate>
										
									
									</samplecharacteristics>
									
									
									<channelcount>1</channelcount>
									
									
									<audiochannel>
										
										
										<sourcechannel>1</sourcechannel>
										
									
									</audiochannel>
									
								
								</audio>
								
							
							</media>
						</file>
						<sourcetrack>
							
							
							<mediatype>audio</mediatype>
							
							
							<trackindex>1</trackindex>
							
						
						</sourcetrack>
						
						
						<logginginfo>
							
							
							<description/>
							
							
							<scene/>
							
							
							<shottake/>
							
							
							<lognote/>
							
							
							<good/>
							
							
							<originalvideofilename/>
							
							
							<originalaudiofilename/>
							
						
						</logginginfo>
						
						
						<colorinfo>
							
							
							<lut/>
							
							
							<lut1/>
							
							
							<asc_sop/>
							
							
							<asc_sat/>
							
							
							<lut2/>
							
						
						</colorinfo>
						
						
						<labels>
							
							
							<label2>Teal</label2>
							
						
						</labels>
						
					
						<sourcetrack>
							<mediatype>audio</mediatype>
							<trackindex>1</trackindex>
						</sourcetrack>
					</clipitem>
					<clipitem id="clipitem-16" premiereChannelType="mono">
						
						
						<masterclipid>masterclip-3</masterclipid>
						
						
						<name>251010_125925_Tr1.WAV</name>
						
						
						<enabled>TRUE</enabled>
						
						
						<duration>167592</duration>
						
						
						<rate>
							
							
							<timebase>30</timebase>
							
							
							<ntsc>TRUE</ntsc>
							
						
						</rate>
						
						
						<start>5683</start>
						
						
						<end>18793</end>
						
						
						<in>15457</in>
						
						
						<out>28567</out>
						
						
						<pproTicksIn>131008387910400</pproTicksIn>
						
						
						<pproTicksOut>242124384902400</pproTicksOut>
						
						
						<file id="file-3">
							</file>
						
						
						<sourcetrack>
							
							
							<mediatype>audio</mediatype>
							
							
							<trackindex>1</trackindex>
							
						
						</sourcetrack>
						
						
						<logginginfo>
							
							
							<description/>
							
							
							<scene/>
							
							
							<shottake/>
							
							
							<lognote/>
							
							
							<good/>
							
							
							<originalvideofilename/>
							
							
							<originalaudiofilename/>
							
						
						</logginginfo>
						
						
						<colorinfo>
							
							
							<lut/>
							
							
							<lut1/>
							
							
							<asc_sop/>
							
							
							<asc_sat/>
							
							
							<lut2/>
							
						
						</colorinfo>
						
						
						<labels>
							
							
							<label2>Purple</label2>
							
						
						</labels>
						
					
						<sourcetrack>
							<mediatype>audio</mediatype>
							<trackindex>1</trackindex>
						</sourcetrack>
					</clipitem>
					<clipitem id="clipitem-17" premiereChannelType="mono">
						
						
						<masterclipid>masterclip-3</masterclipid>
						
						
						<name>251010_125925_Tr1.WAV</name>
						
						
						<enabled>TRUE</enabled>
						
						
						<duration>167592</duration>
						
						
						<rate>
							
							
							<timebase>30</timebase>
							
							
							<ntsc>TRUE</ntsc>
							
						
						</rate>
						
						
						<start>19393</start>
						
						
						<end>25110</end>
						
						
						<in>31793</in>
						
						
						<out>37510</out>
						
						
						<pproTicksIn>269466887289600</pproTicksIn>
						
						
						<pproTicksOut>317922276672000</pproTicksOut>
						
						
						<file id="file-3">
							</file>
						
						
						<sourcetrack>
							
							
							<mediatype>audio</mediatype>
							
							
							<trackindex>1</trackindex>
							
						
						</sourcetrack>
						
						
						<logginginfo>
							
							
							<description/>
							
							
							<scene/>
							
							
							<shottake/>
							
							
							<lognote/>
							
							
							<good/>
							
							
							<originalvideofilename/>
							
							
							<originalaudiofilename/>
							
						
						</logginginfo>
						
						
						<colorinfo>
							
							
							<lut/>
							
							
							<lut1/>
							
							
							<asc_sop/>
							
							
							<asc_sat/>
							
							
							<lut2/>
							
						
						</colorinfo>
						
						
						<labels>
							
							
							<label2>Blue</label2>
							
						
						</labels>
						
					
						<sourcetrack>
							<mediatype>audio</mediatype>
							<trackindex>1</trackindex>
						</sourcetrack>
					</clipitem>
					<clipitem id="clipitem-18" premiereChannelType="mono">
						
						
						<masterclipid>masterclip-3</masterclipid>
						
						
						<name>251010_125925_Tr1.WAV</name>
						
						
						<enabled>TRUE</enabled>
						
						
						<duration>167592</duration>
						
						
						<rate>
							
							
							<timebase>30</timebase>
							
							
							<ntsc>TRUE</ntsc>
							
						
						</rate>
						
						
						<start>25710</start>
						
						
						<end>34115</end>
						
						
						<in>40188</in>
						
						
						<out>48593</out>
						
						
						<pproTicksIn>340620113433600</pproTicksIn>
						
						
						<pproTicksOut>411858096249600</pproTicksOut>
						
						
						<file id="file-3">
							</file>
						
						
						<sourcetrack>
							
							
							<mediatype>audio</mediatype>
							
							
							<trackindex>1</trackindex>
							
						
						</sourcetrack>
						
						
						<logginginfo>
							
							
							<description/>
							
							
							<scene/>
							
							
							<shottake/>
							
							
							<lognote/>
							
							
							<good/>
							
							
							<originalvideofilename/>
							
							
							<originalaudiofilename/>
							
						
						</logginginfo>
						
						
						<colorinfo>
							
							
							<lut/>
							
							
							<lut1/>
							
							
							<asc_sop/>
							
							
							<asc_sat/>
							
							
							<lut2/>
							
						
						</colorinfo>
						
						
						<labels>
							
							
							<label2>Forest</label2>
							
						
						</labels>
						
					
						<sourcetrack>
							<mediatype>audio</mediatype>
							<trackindex>1</trackindex>
						</sourcetrack>
					</clipitem>
					<clipitem id="clipitem-19" premiereChannelType="mono">
						
						
						<masterclipid>masterclip-3</masterclipid>
						
						
						<name>251010_125925_Tr1.WAV</name>
						
						
						<enabled>TRUE</enabled>
						
						
						<duration>167592</duration>
						
						
						<rate>
							
							
							<timebase>30</timebase>
							
							
							<ntsc>TRUE</ntsc>
							
						
						</rate>
						
						
						<start>34715</start>
						
						
						<end>48984</end>
						
						
						<in>58898</in>
						
						
						<out>73167</out>
						
						
						<pproTicksIn>499199846745600</pproTicksIn>
						
						
						<pproTicksOut>620139142022400</pproTicksOut>
						
						
						<file id="file-3">
							</file>
						
						
						<sourcetrack>
							
							
							<mediatype>audio</mediatype>
							
							
							<trackindex>1</trackindex>
							
						
						</sourcetrack>
						
						
						<logginginfo>
							
							
							<description/>
							
							
							<scene/>
							
							
							<shottake/>
							
							
							<lognote/>
							
							
							<good/>
							
							
							<originalvideofilename/>
							
							
							<originalaudiofilename/>
							
						
						</logginginfo>
						
						
						<colorinfo>
							
							
							<lut/>
							
							
							<lut1/>
							
							
							<asc_sop/>
							
							
							<asc_sat/>
							
							
							<lut2/>
							
						
						</colorinfo>
						
						
						<labels>
							
							
							<label2>Tan</label2>
							
						
						</labels>
						
					
						<sourcetrack>
							<mediatype>audio</mediatype>
							<trackindex>1</trackindex>
						</sourcetrack>
					</clipitem>
					<clipitem id="clipitem-20" premiereChannelType="mono">
						
						
						<masterclipid>masterclip-3</masterclipid>
						
						
						<name>251010_125925_Tr1.WAV</name>
						
						
						<enabled>TRUE</enabled>
						
						
						<duration>167592</duration>
						
						
						<rate>
							
							
							<timebase>30</timebase>
							
							
							<ntsc>TRUE</ntsc>
							
						
						</rate>
						
						
						<start>49584</start>
						
						
						<end>63526</end>
						
						
						<in>78830</in>
						
						
						<out>92772</out>
						
						
						<pproTicksIn>668136845376000</pproTicksIn>
						
						
						<pproTicksOut>786304597478400</pproTicksOut>
						
						
						<file id="file-3">
							</file>
						
						
						<sourcetrack>
							
							
							<mediatype>audio</mediatype>
							
							
							<trackindex>1</trackindex>
							
						
						</sourcetrack>
						
						
						<logginginfo>
							
							
							<description/>
							
							
							<scene/>
							
							
							<shottake/>
							
							
							<lognote/>
							
							
							<good/>
							
							
							<originalvideofilename/>
							
							
							<originalaudiofilename/>
							
						
						</logginginfo>
						
						
						<colorinfo>
							
							
							<lut/>
							
							
							<lut1/>
							
							
							<asc_sop/>
							
							
							<asc_sat/>
							
							
							<lut2/>
							
						
						</colorinfo>
						
						
						<labels>
							
							
							<label2>Caribbean</label2>
							
						
						</labels>
						
					
						<sourcetrack>
							<mediatype>audio</mediatype>
							<trackindex>1</trackindex>
						</sourcetrack>
					</clipitem>
					<clipitem id="clipitem-21" premiereChannelType="mono">
						
						
						<masterclipid>masterclip-3</masterclipid>
						
						
						<name>251010_125925_Tr1.WAV</name>
						
						
						<enabled>TRUE</enabled>
						
						
						<duration>167592</duration>
						
						
						<rate>
							
							
							<timebase>30</timebase>
							
							
							<ntsc>TRUE</ntsc>
							
						
						</rate>
						
						
						<start>64126</start>
						
						
						<end>72849</end>
						
						
						<in>92774</in>
						
						
						<out>101497</out>
						
						
						<pproTicksIn>786321548812800</pproTicksIn>
						
						
						<pproTicksOut>860254793798400</pproTicksOut>
						
						
						<file id="file-3">
							</file>
						
						
						<sourcetrack>
							
							
							<mediatype>audio</mediatype>
							
							
							<trackindex>1</trackindex>
							
						
						</sourcetrack>
						
						
						<logginginfo>
							
							
							<description/>
							
							
							<scene/>
							
							
							<shottake/>
							
							
							<lognote/>
							
							
							<good/>
							
							
							<originalvideofilename/>
							
							
							<originalaudiofilename/>
							
						
						</logginginfo>
						
						
						<colorinfo>
							
							
							<lut/>
							
							
							<lut1/>
							
							
							<asc_sop/>
							
							
							<asc_sat/>
							
							
							<lut2/>
							
						
						</colorinfo>
						
						
						<labels>
							
							
							<label2>Lavender</label2>
							
						
						</labels>
						
					
						<sourcetrack>
							<mediatype>audio</mediatype>
							<trackindex>1</trackindex>
						</sourcetrack>
					</clipitem>
					<clipitem id="clipitem-22" premiereChannelType="mono">
						
						
						<masterclipid>masterclip-3</masterclipid>
						
						
						<name>251010_125925_Tr1.WAV</name>
						
						
						<enabled>TRUE</enabled>
						
						
						<duration>167592</duration>
						
						
						<rate>
							
							
							<timebase>30</timebase>
							
							
							<ntsc>TRUE</ntsc>
							
						
						</rate>
						
						
						<start>73449</start>
						
						
						<end>91986</end>
						
						
						<in>101499</in>
						
						
						<out>120036</out>
						
						
						<pproTicksIn>860271745132800</pproTicksIn>
						
						
						<pproTicksOut>1017385188019200</pproTicksOut>
						
						
						<file id="file-3">
							</file>
						
						
						<sourcetrack>
							
							
							<mediatype>audio</mediatype>
							
							
							<trackindex>1</trackindex>
							
						
						</sourcetrack>
						
						
						<logginginfo>
							
							
							<description/>
							
							
							<scene/>
							
							
							<shottake/>
							
							
							<lognote/>
							
							
							<good/>
							
							
							<originalvideofilename/>
							
							
							<originalaudiofilename/>
							
						
						</logginginfo>
						
						
						<colorinfo>
							
							
							<lut/>
							
							
							<lut1/>
							
							
							<asc_sop/>
							
							
							<asc_sat/>
							
							
							<lut2/>
							
						
						</colorinfo>
						
						
						<labels>
							
							
							<label2>Yellow</label2>
							
						
						</labels>
						
					
						<sourcetrack>
							<mediatype>audio</mediatype>
							<trackindex>1</trackindex>
						</sourcetrack>
					</clipitem>
					<clipitem id="clipitem-23" premiereChannelType="mono">
						
						
						<masterclipid>masterclip-3</masterclipid>
						
						
						<name>251010_125925_Tr1.WAV</name>
						
						
						<enabled>TRUE</enabled>
						
						
						<duration>167592</duration>
						
						
						<rate>
							
							
							<timebase>30</timebase>
							
							
							<ntsc>TRUE</ntsc>
							
						
						</rate>
						
						
						<start>92586</start>
						
						
						<end>129717</end>
						
						
						<in>123813</in>
						
						
						<out>160944</out>
						
						
						<pproTicksIn>1049397783033600</pproTicksIn>
						
						
						<pproTicksOut>1364107781836800</pproTicksOut>
						
						
						<file id="file-3">
							</file>
						
						
						<sourcetrack>
							
							
							<mediatype>audio</mediatype>
							
							
							<trackindex>1</trackindex>
							
						
						</sourcetrack>
						
						
						<logginginfo>
							
							
							<description/>
							
							
							<scene/>
							
							
							<shottake/>
							
							
							<lognote/>
							
							
							<good/>
							
							
							<originalvideofilename/>
							
							
							<originalaudiofilename/>
							
						
						</logginginfo>
						
						
						<colorinfo>
							
							
							<lut/>
							
							
							<lut1/>
							
							
							<asc_sop/>
							
							
							<asc_sat/>
							
							
							<lut2/>
							
						
						</colorinfo>
						
						
						<labels>
							
							
							<label2>Mango</label2>
							
						
						</labels>
						
					
						<sourcetrack>
							<mediatype>audio</mediatype>
							<trackindex>1</trackindex>
						</sourcetrack>
					</clipitem>
					<clipitem id="clipitem-24" premiereChannelType="mono">
						
						
						<masterclipid>masterclip-3</masterclipid>
						
						
						<name>251010_125925_Tr1.WAV</name>
						
						
						<enabled>TRUE</enabled>
						
						
						<duration>167592</duration>
						
						
						<rate>
							
							
							<timebase>30</timebase>
							
							
							<ntsc>TRUE</ntsc>
							
						
						</rate>
						
						
						<start>130317</start>
						
						
						<end>134291</end>
						
						
						<in>162547</in>
						
						
						<out>166521</out>
						
						
						<pproTicksIn>1377694276358400</pproTicksIn>
						
						
						<pproTicksOut>1411376577811200</pproTicksOut>
						
						
						<file id="file-3">
							</file>
						
						
						<sourcetrack>
							
							
							<mediatype>audio</mediatype>
							
							
							<trackindex>1</trackindex>
							
						
						</sourcetrack>
						
						
						<logginginfo>
							
							
							<description/>
							
							
							<scene/>
							
							
							<shottake/>
							
							
							<lognote/>
							
							
							<good/>
							
							
							<originalvideofilename/>
							
							
							<originalaudiofilename/>
							
						
						</logginginfo>
						
						
						<colorinfo>
							
							
							<lut/>
							
							
							<lut1/>
							
							
							<asc_sop/>
							
							
							<asc_sat/>
							
							
							<lut2/>
							
						
						</colorinfo>
						
						
						<labels>
							
							
							<label2>Violet</label2>
							
						
						</labels>
						
					
						<sourcetrack>
							<mediatype>audio</mediatype>
							<trackindex>1</trackindex>
						</sourcetrack>
					</clipitem>
					<enabled>TRUE</enabled>
					<locked>FALSE</locked>
					<outputchannelindex>2</outputchannelindex>
				</track>
				<track TL.SQTrackAudioKeyframeStyle="0" TL.SQTrackShy="0" TL.SQTrackExpandedHeight="146" TL.SQTrackExpanded="0" MZ.TrackTargeted="1" PannerCurrentValue="0.5" PannerIsInverted="false" PannerStartKeyframe="-91445760000000000,0.5,0,0,0,0,0,0" PannerName="Balance" currentExplodedTrackIndex="0" totalExplodedTrackCount="2" premiereTrackType="Stereo">
					
					
					<enabled>TRUE</enabled>
					
					
					<locked>FALSE</locked>
					
					
					<outputchannelindex>1</outputchannelindex>
					
				
				</track>
				<track TL.SQTrackAudioKeyframeStyle="0" TL.SQTrackShy="0" TL.SQTrackExpandedHeight="146" TL.SQTrackExpanded="0" MZ.TrackTargeted="1" PannerCurrentValue="0.5" PannerIsInverted="false" PannerStartKeyframe="-91445760000000000,0.5,0,0,0,0,0,0" PannerName="Balance" currentExplodedTrackIndex="1" totalExplodedTrackCount="2" premiereTrackType="Stereo">
					
					
					<enabled>TRUE</enabled>
					
					
					<locked>FALSE</locked>
					
					
					<outputchannelindex>2</outputchannelindex>
					
				
				</track>
				<track TL.SQTrackAudioKeyframeStyle="0" TL.SQTrackShy="0" TL.SQTrackExpandedHeight="119" TL.SQTrackExpanded="0" MZ.TrackTargeted="1" PannerCurrentValue="0.5" PannerIsInverted="false" PannerStartKeyframe="-91445760000000000,0.5,0,0,0,0,0,0" PannerName="Balance" currentExplodedTrackIndex="0" totalExplodedTrackCount="2" premiereTrackType="Stereo">
					
					
					<enabled>TRUE</enabled>
					
					
					<locked>FALSE</locked>
					
					
					<outputchannelindex>1</outputchannelindex>
					
				
				</track>
				<track TL.SQTrackAudioKeyframeStyle="0" TL.SQTrackShy="0" TL.SQTrackExpandedHeight="119" TL.SQTrackExpanded="0" MZ.TrackTargeted="1" PannerCurrentValue="0.5" PannerIsInverted="false" PannerStartKeyframe="-91445760000000000,0.5,0,0,0,0,0,0" PannerName="Balance" currentExplodedTrackIndex="1" totalExplodedTrackCount="2" premiereTrackType="Stereo">
					
					
					<enabled>TRUE</enabled>
					
					
					<locked>FALSE</locked>
					
					
					<outputchannelindex>2</outputchannelindex>
					
				
				</track>
			</audio>
		</media>
	</sequence>
</xmeml>
