<?xml version="1.0" encoding="utf-8"?>
<xmeml version="4">
  <sequence>
    <uuid>OrionEp11_timeline_from_csv</uuid>
    <duration>15580</duration>
    <name>OrionEp11_timeline_from_csv</name>
    <rate>
      <timebase>30</timebase>
      <ntsc>TRUE</ntsc>
    </rate>
    <media>
      <video>
        <format/>
      </video>
      <audio>
        <track>
          <clipitem id="clipitem-1">
            <name>OrionEp11_001.mp3</name>
            <enabled>TRUE</enabled>
            <duration>132</duration>
            <rate>
              <timebase>30</timebase>
              <ntsc>TRUE</ntsc>
            </rate>
            <start>0</start>
            <end>132</end>
            <in>0</in>
            <out>105864</out>
            <file id="file-1">
              <name>OrionEp11_001.mp3</name>
              <pathurl>file:///Users/hiroshikodera/repos/_active/tools/davinciauto/prototype/orion-v2/projects/OrionEp11/output/audio/OrionEp11_001.mp3</pathurl>
              <rate>
                <timebase>24000</timebase>
                <ntsc>FALSE</ntsc>
              </rate>
              <media>
                <audio>
                  <channelcount>1</channelcount>
                  <samplecharacteristics>
                    <samplerate>24000</samplerate>
                    <samplesize>16</samplesize>
                  </samplecharacteristics>
                </audio>
              </media>
            </file>
            <sourcetrack>
              <mediatype>audio</mediatype>
              <trackindex>1</trackindex>
            </sourcetrack>
          </clipitem>
          <clipitem id="clipitem-2">
            <name>OrionEp11_002.mp3</name>
            <enabled>TRUE</enabled>
            <duration>192</duration>
            <rate>
              <timebase>30</timebase>
              <ntsc>TRUE</ntsc>
            </rate>
            <start>132</start>
            <end>324</end>
            <in>0</in>
            <out>153864</out>
            <file id="file-2">
              <name>OrionEp11_002.mp3</name>
              <pathurl>file:///Users/hiroshikodera/repos/_active/tools/davinciauto/prototype/orion-v2/projects/OrionEp11/output/audio/OrionEp11_002.mp3</pathurl>
              <rate>
                <timebase>24000</timebase>
                <ntsc>FALSE</ntsc>
              </rate>
              <media>
                <audio>
                  <channelcount>1</channelcount>
                  <samplecharacteristics>
                    <samplerate>24000</samplerate>
                    <samplesize>16</samplesize>
                  </samplecharacteristics>
                </audio>
              </media>
            </file>
            <sourcetrack>
              <mediatype>audio</mediatype>
              <trackindex>1</trackindex>
            </sourcetrack>
          </clipitem>
          <clipitem id="clipitem-3">
            <name>OrionEp11_003.mp3</name>
            <enabled>TRUE</enabled>
            <duration>196</duration>
            <rate>
              <timebase>30</timebase>
              <ntsc>TRUE</ntsc>
            </rate>
            <start>324</start>
            <end>520</end>
            <in>0</in>
            <out>156744</out>
            <file id="file-3">
              <name>OrionEp11_003.mp3</name>
              <pathurl>file:///Users/hiroshikodera/repos/_active/tools/davinciauto/prototype/orion-v2/projects/OrionEp11/output/audio/OrionEp11_003.mp3</pathurl>
              <rate>
                <timebase>24000</timebase>
                <ntsc>FALSE</ntsc>
              </rate>
              <media>
                <audio>
                  <channelcount>1</channelcount>
                  <samplecharacteristics>
                    <samplerate>24000</samplerate>
                    <samplesize>16</samplesize>
                  </samplecharacteristics>
                </audio>
              </media>
            </file>
            <sourcetrack>
              <mediatype>audio</mediatype>
              <trackindex>1</trackindex>
            </sourcetrack>
          </clipitem>
          <clipitem id="clipitem-4">
            <name>OrionEp11_004.mp3</name>
            <enabled>TRUE</enabled>
            <duration>238</duration>
            <rate>
              <timebase>30</timebase>
              <ntsc>TRUE</ntsc>
            </rate>
            <start>521</start>
            <end>759</end>
            <in>0</in>
            <out>190344</out>
            <file id="file-4">
              <name>OrionEp11_004.mp3</name>
              <pathurl>file:///Users/hiroshikodera/repos/_active/tools/davinciauto/prototype/orion-v2/projects/OrionEp11/output/audio/OrionEp11_004.mp3</pathurl>
              <rate>
                <timebase>24000</timebase>
                <ntsc>FALSE</ntsc>
              </rate>
              <media>
                <audio>
                  <channelcount>1</channelcount>
                  <samplecharacteristics>
                    <samplerate>24000</samplerate>
                    <samplesize>16</samplesize>
                  </samplecharacteristics>
                </audio>
              </media>
            </file>
            <sourcetrack>
              <mediatype>audio</mediatype>
              <trackindex>1</trackindex>
            </sourcetrack>
          </clipitem>
          <clipitem id="clipitem-5">
            <name>OrionEp11_005.mp3</name>
            <enabled>TRUE</enabled>
            <duration>200</duration>
            <rate>
              <timebase>30</timebase>
              <ntsc>TRUE</ntsc>
            </rate>
            <start>759</start>
            <end>959</end>
            <in>0</in>
            <out>159624</out>
            <file id="file-5">
              <name>OrionEp11_005.mp3</name>
              <pathurl>file:///Users/hiroshikodera/repos/_active/tools/davinciauto/prototype/orion-v2/projects/OrionEp11/output/audio/OrionEp11_005.mp3</pathurl>
              <rate>
                <timebase>24000</timebase>
                <ntsc>FALSE</ntsc>
              </rate>
              <media>
                <audio>
                  <channelcount>1</channelcount>
                  <samplecharacteristics>
                    <samplerate>24000</samplerate>
                    <samplesize>16</samplesize>
                  </samplecharacteristics>
                </audio>
              </media>
            </file>
            <sourcetrack>
              <mediatype>audio</mediatype>
              <trackindex>1</trackindex>
            </sourcetrack>
          </clipitem>
          <clipitem id="clipitem-6">
            <name>OrionEp11_006.mp3</name>
            <enabled>TRUE</enabled>
            <duration>189</duration>
            <rate>
              <timebase>30</timebase>
              <ntsc>TRUE</ntsc>
            </rate>
            <start>958</start>
            <end>1147</end>
            <in>0</in>
            <out>150984</out>
            <file id="file-6">
              <name>OrionEp11_006.mp3</name>
              <pathurl>file:///Users/hiroshikodera/repos/_active/tools/davinciauto/prototype/orion-v2/projects/OrionEp11/output/audio/OrionEp11_006.mp3</pathurl>
              <rate>
                <timebase>24000</timebase>
                <ntsc>FALSE</ntsc>
              </rate>
              <media>
                <audio>
                  <channelcount>1</channelcount>
                  <samplecharacteristics>
                    <samplerate>24000</samplerate>
                    <samplesize>16</samplesize>
                  </samplecharacteristics>
                </audio>
              </media>
            </file>
            <sourcetrack>
              <mediatype>audio</mediatype>
              <trackindex>1</trackindex>
            </sourcetrack>
          </clipitem>
          <clipitem id="clipitem-7">
            <name>OrionEp11_007.mp3</name>
            <enabled>TRUE</enabled>
            <duration>160</duration>
            <rate>
              <timebase>30</timebase>
              <ntsc>TRUE</ntsc>
            </rate>
            <start>1147</start>
            <end>1307</end>
            <in>0</in>
            <out>127944</out>
            <file id="file-7">
              <name>OrionEp11_007.mp3</name>
              <pathurl>file:///Users/hiroshikodera/repos/_active/tools/davinciauto/prototype/orion-v2/projects/OrionEp11/output/audio/OrionEp11_007.mp3</pathurl>
              <rate>
                <timebase>24000</timebase>
                <ntsc>FALSE</ntsc>
              </rate>
              <media>
                <audio>
                  <channelcount>1</channelcount>
                  <samplecharacteristics>
                    <samplerate>24000</samplerate>
                    <samplesize>16</samplesize>
                  </samplecharacteristics>
                </audio>
              </media>
            </file>
            <sourcetrack>
              <mediatype>audio</mediatype>
              <trackindex>1</trackindex>
            </sourcetrack>
          </clipitem>
          <clipitem id="clipitem-8">
            <name>OrionEp11_008.mp3</name>
            <enabled>TRUE</enabled>
            <duration>177</duration>
            <rate>
              <timebase>30</timebase>
              <ntsc>TRUE</ntsc>
            </rate>
            <start>1307</start>
            <end>1484</end>
            <in>0</in>
            <out>141384</out>
            <file id="file-8">
              <name>OrionEp11_008.mp3</name>
              <pathurl>file:///Users/hiroshikodera/repos/_active/tools/davinciauto/prototype/orion-v2/projects/OrionEp11/output/audio/OrionEp11_008.mp3</pathurl>
              <rate>
                <timebase>24000</timebase>
                <ntsc>FALSE</ntsc>
              </rate>
              <media>
                <audio>
                  <channelcount>1</channelcount>
                  <samplecharacteristics>
                    <samplerate>24000</samplerate>
                    <samplesize>16</samplesize>
                  </samplecharacteristics>
                </audio>
              </media>
            </file>
            <sourcetrack>
              <mediatype>audio</mediatype>
              <trackindex>1</trackindex>
            </sourcetrack>
          </clipitem>
          <clipitem id="clipitem-9">
            <name>OrionEp11_009.mp3</name>
            <enabled>TRUE</enabled>
            <duration>105</duration>
            <rate>
              <timebase>30</timebase>
              <ntsc>TRUE</ntsc>
            </rate>
            <start>1484</start>
            <end>1589</end>
            <in>0</in>
            <out>83784</out>
            <file id="file-9">
              <name>OrionEp11_009.mp3</name>
              <pathurl>file:///Users/hiroshikodera/repos/_active/tools/davinciauto/prototype/orion-v2/projects/OrionEp11/output/audio/OrionEp11_009.mp3</pathurl>
              <rate>
                <timebase>24000</timebase>
                <ntsc>FALSE</ntsc>
              </rate>
              <media>
                <audio>
                  <channelcount>1</channelcount>
                  <samplecharacteristics>
                    <samplerate>24000</samplerate>
                    <samplesize>16</samplesize>
                  </samplecharacteristics>
                </audio>
              </media>
            </file>
            <sourcetrack>
              <mediatype>audio</mediatype>
              <trackindex>1</trackindex>
            </sourcetrack>
          </clipitem>
          <clipitem id="clipitem-10">
            <name>OrionEp11_010.mp3</name>
            <enabled>TRUE</enabled>
            <duration>183</duration>
            <rate>
              <timebase>30</timebase>
              <ntsc>TRUE</ntsc>
            </rate>
            <start>1590</start>
            <end>1773</end>
            <in>0</in>
            <out>146184</out>
            <file id="file-10">
              <name>OrionEp11_010.mp3</name>
              <pathurl>file:///Users/hiroshikodera/repos/_active/tools/davinciauto/prototype/orion-v2/projects/OrionEp11/output/audio/OrionEp11_010.mp3</pathurl>
              <rate>
                <timebase>24000</timebase>
                <ntsc>FALSE</ntsc>
              </rate>
              <media>
                <audio>
                  <channelcount>1</channelcount>
                  <samplecharacteristics>
                    <samplerate>24000</samplerate>
                    <samplesize>16</samplesize>
                  </samplecharacteristics>
                </audio>
              </media>
            </file>
            <sourcetrack>
              <mediatype>audio</mediatype>
              <trackindex>1</trackindex>
            </sourcetrack>
          </clipitem>
          <clipitem id="clipitem-11">
            <name>OrionEp11_011.mp3</name>
            <enabled>TRUE</enabled>
            <duration>204</duration>
            <rate>
              <timebase>30</timebase>
              <ntsc>TRUE</ntsc>
            </rate>
            <start>1773</start>
            <end>1977</end>
            <in>0</in>
            <out>163464</out>
            <file id="file-11">
              <name>OrionEp11_011.mp3</name>
              <pathurl>file:///Users/hiroshikodera/repos/_active/tools/davinciauto/prototype/orion-v2/projects/OrionEp11/output/audio/OrionEp11_011.mp3</pathurl>
              <rate>
                <timebase>24000</timebase>
                <ntsc>FALSE</ntsc>
              </rate>
              <media>
                <audio>
                  <channelcount>1</channelcount>
                  <samplecharacteristics>
                    <samplerate>24000</samplerate>
                    <samplesize>16</samplesize>
                  </samplecharacteristics>
                </audio>
              </media>
            </file>
            <sourcetrack>
              <mediatype>audio</mediatype>
              <trackindex>1</trackindex>
            </sourcetrack>
          </clipitem>
          <clipitem id="clipitem-12">
            <name>OrionEp11_012.mp3</name>
            <enabled>TRUE</enabled>
            <duration>170</duration>
            <rate>
              <timebase>30</timebase>
              <ntsc>TRUE</ntsc>
            </rate>
            <start>1977</start>
            <end>2147</end>
            <in>0</in>
            <out>135624</out>
            <file id="file-12">
              <name>OrionEp11_012.mp3</name>
              <pathurl>file:///Users/hiroshikodera/repos/_active/tools/davinciauto/prototype/orion-v2/projects/OrionEp11/output/audio/OrionEp11_012.mp3</pathurl>
              <rate>
                <timebase>24000</timebase>
                <ntsc>FALSE</ntsc>
              </rate>
              <media>
                <audio>
                  <channelcount>1</channelcount>
                  <samplecharacteristics>
                    <samplerate>24000</samplerate>
                    <samplesize>16</samplesize>
                  </samplecharacteristics>
                </audio>
              </media>
            </file>
            <sourcetrack>
              <mediatype>audio</mediatype>
              <trackindex>1</trackindex>
            </sourcetrack>
          </clipitem>
          <clipitem id="clipitem-13">
            <name>OrionEp11_013.mp3</name>
            <enabled>TRUE</enabled>
            <duration>215</duration>
            <rate>
              <timebase>30</timebase>
              <ntsc>TRUE</ntsc>
            </rate>
            <start>2146</start>
            <end>2361</end>
            <in>0</in>
            <out>172104</out>
            <file id="file-13">
              <name>OrionEp11_013.mp3</name>
              <pathurl>file:///Users/hiroshikodera/repos/_active/tools/davinciauto/prototype/orion-v2/projects/OrionEp11/output/audio/OrionEp11_013.mp3</pathurl>
              <rate>
                <timebase>24000</timebase>
                <ntsc>FALSE</ntsc>
              </rate>
              <media>
                <audio>
                  <channelcount>1</channelcount>
                  <samplecharacteristics>
                    <samplerate>24000</samplerate>
                    <samplesize>16</samplesize>
                  </samplecharacteristics>
                </audio>
              </media>
            </file>
            <sourcetrack>
              <mediatype>audio</mediatype>
              <trackindex>1</trackindex>
            </sourcetrack>
          </clipitem>
          <clipitem id="clipitem-14">
            <name>OrionEp11_014.mp3</name>
            <enabled>TRUE</enabled>
            <duration>100</duration>
            <rate>
              <timebase>30</timebase>
              <ntsc>TRUE</ntsc>
            </rate>
            <start>2361</start>
            <end>2461</end>
            <in>0</in>
            <out>79944</out>
            <file id="file-14">
              <name>OrionEp11_014.mp3</name>
              <pathurl>file:///Users/hiroshikodera/repos/_active/tools/davinciauto/prototype/orion-v2/projects/OrionEp11/output/audio/OrionEp11_014.mp3</pathurl>
              <rate>
                <timebase>24000</timebase>
                <ntsc>FALSE</ntsc>
              </rate>
              <media>
                <audio>
                  <channelcount>1</channelcount>
                  <samplecharacteristics>
                    <samplerate>24000</samplerate>
                    <samplesize>16</samplesize>
                  </samplecharacteristics>
                </audio>
              </media>
            </file>
            <sourcetrack>
              <mediatype>audio</mediatype>
              <trackindex>1</trackindex>
            </sourcetrack>
          </clipitem>
          <clipitem id="clipitem-15">
            <name>OrionEp11_015.mp3</name>
            <enabled>TRUE</enabled>
            <duration>188</duration>
            <rate>
              <timebase>30</timebase>
              <ntsc>TRUE</ntsc>
            </rate>
            <start>2461</start>
            <end>2649</end>
            <in>0</in>
            <out>150024</out>
            <file id="file-15">
              <name>OrionEp11_015.mp3</name>
              <pathurl>file:///Users/hiroshikodera/repos/_active/tools/davinciauto/prototype/orion-v2/projects/OrionEp11/output/audio/OrionEp11_015.mp3</pathurl>
              <rate>
                <timebase>24000</timebase>
                <ntsc>FALSE</ntsc>
              </rate>
              <media>
                <audio>
                  <channelcount>1</channelcount>
                  <samplecharacteristics>
                    <samplerate>24000</samplerate>
                    <samplesize>16</samplesize>
                  </samplecharacteristics>
                </audio>
              </media>
            </file>
            <sourcetrack>
              <mediatype>audio</mediatype>
              <trackindex>1</trackindex>
            </sourcetrack>
          </clipitem>
          <clipitem id="clipitem-16">
            <name>OrionEp11_016.mp3</name>
            <enabled>TRUE</enabled>
            <duration>166</duration>
            <rate>
              <timebase>30</timebase>
              <ntsc>TRUE</ntsc>
            </rate>
            <start>2649</start>
            <end>2815</end>
            <in>0</in>
            <out>132744</out>
            <file id="file-16">
              <name>OrionEp11_016.mp3</name>
              <pathurl>file:///Users/hiroshikodera/repos/_active/tools/davinciauto/prototype/orion-v2/projects/OrionEp11/output/audio/OrionEp11_016.mp3</pathurl>
              <rate>
                <timebase>24000</timebase>
                <ntsc>FALSE</ntsc>
              </rate>
              <media>
                <audio>
                  <channelcount>1</channelcount>
                  <samplecharacteristics>
                    <samplerate>24000</samplerate>
                    <samplesize>16</samplesize>
                  </samplecharacteristics>
                </audio>
              </media>
            </file>
            <sourcetrack>
              <mediatype>audio</mediatype>
              <trackindex>1</trackindex>
            </sourcetrack>
          </clipitem>
          <clipitem id="clipitem-17">
            <name>OrionEp11_017.mp3</name>
            <enabled>TRUE</enabled>
            <duration>224</duration>
            <rate>
              <timebase>30</timebase>
              <ntsc>TRUE</ntsc>
            </rate>
            <start>2815</start>
            <end>3039</end>
            <in>0</in>
            <out>178824</out>
            <file id="file-17">
              <name>OrionEp11_017.mp3</name>
              <pathurl>file:///Users/hiroshikodera/repos/_active/tools/davinciauto/prototype/orion-v2/projects/OrionEp11/output/audio/OrionEp11_017.mp3</pathurl>
              <rate>
                <timebase>24000</timebase>
                <ntsc>FALSE</ntsc>
              </rate>
              <media>
                <audio>
                  <channelcount>1</channelcount>
                  <samplecharacteristics>
                    <samplerate>24000</samplerate>
                    <samplesize>16</samplesize>
                  </samplecharacteristics>
                </audio>
              </media>
            </file>
            <sourcetrack>
              <mediatype>audio</mediatype>
              <trackindex>1</trackindex>
            </sourcetrack>
          </clipitem>
          <clipitem id="clipitem-18">
            <name>OrionEp11_018.mp3</name>
            <enabled>TRUE</enabled>
            <duration>59</duration>
            <rate>
              <timebase>30</timebase>
              <ntsc>TRUE</ntsc>
            </rate>
            <start>3038</start>
            <end>3097</end>
            <in>0</in>
            <out>47304</out>
            <file id="file-18">
              <name>OrionEp11_018.mp3</name>
              <pathurl>file:///Users/hiroshikodera/repos/_active/tools/davinciauto/prototype/orion-v2/projects/OrionEp11/output/audio/OrionEp11_018.mp3</pathurl>
              <rate>
                <timebase>24000</timebase>
                <ntsc>FALSE</ntsc>
              </rate>
              <media>
                <audio>
                  <channelcount>1</channelcount>
                  <samplecharacteristics>
                    <samplerate>24000</samplerate>
                    <samplesize>16</samplesize>
                  </samplecharacteristics>
                </audio>
              </media>
            </file>
            <sourcetrack>
              <mediatype>audio</mediatype>
              <trackindex>1</trackindex>
            </sourcetrack>
          </clipitem>
          <clipitem id="clipitem-19">
            <name>OrionEp11_019.mp3</name>
            <enabled>TRUE</enabled>
            <duration>215</duration>
            <rate>
              <timebase>30</timebase>
              <ntsc>TRUE</ntsc>
            </rate>
            <start>3097</start>
            <end>3312</end>
            <in>0</in>
            <out>172104</out>
            <file id="file-19">
              <name>OrionEp11_019.mp3</name>
              <pathurl>file:///Users/hiroshikodera/repos/_active/tools/davinciauto/prototype/orion-v2/projects/OrionEp11/output/audio/OrionEp11_019.mp3</pathurl>
              <rate>
                <timebase>24000</timebase>
                <ntsc>FALSE</ntsc>
              </rate>
              <media>
                <audio>
                  <channelcount>1</channelcount>
                  <samplecharacteristics>
                    <samplerate>24000</samplerate>
                    <samplesize>16</samplesize>
                  </samplecharacteristics>
                </audio>
              </media>
            </file>
            <sourcetrack>
              <mediatype>audio</mediatype>
              <trackindex>1</trackindex>
            </sourcetrack>
          </clipitem>
          <clipitem id="clipitem-20">
            <name>OrionEp11_020.mp3</name>
            <enabled>TRUE</enabled>
            <duration>172</duration>
            <rate>
              <timebase>30</timebase>
              <ntsc>TRUE</ntsc>
            </rate>
            <start>3312</start>
            <end>3484</end>
            <in>0</in>
            <out>137544</out>
            <file id="file-20">
              <name>OrionEp11_020.mp3</name>
              <pathurl>file:///Users/hiroshikodera/repos/_active/tools/davinciauto/prototype/orion-v2/projects/OrionEp11/output/audio/OrionEp11_020.mp3</pathurl>
              <rate>
                <timebase>24000</timebase>
                <ntsc>FALSE</ntsc>
              </rate>
              <media>
                <audio>
                  <channelcount>1</channelcount>
                  <samplecharacteristics>
                    <samplerate>24000</samplerate>
                    <samplesize>16</samplesize>
                  </samplecharacteristics>
                </audio>
              </media>
            </file>
            <sourcetrack>
              <mediatype>audio</mediatype>
              <trackindex>1</trackindex>
            </sourcetrack>
          </clipitem>
          <clipitem id="clipitem-21">
            <name>OrionEp11_021.mp3</name>
            <enabled>TRUE</enabled>
            <duration>299</duration>
            <rate>
              <timebase>30</timebase>
              <ntsc>TRUE</ntsc>
            </rate>
            <start>3484</start>
            <end>3783</end>
            <in>0</in>
            <out>239304</out>
            <file id="file-21">
              <name>OrionEp11_021.mp3</name>
              <pathurl>file:///Users/hiroshikodera/repos/_active/tools/davinciauto/prototype/orion-v2/projects/OrionEp11/output/audio/OrionEp11_021.mp3</pathurl>
              <rate>
                <timebase>24000</timebase>
                <ntsc>FALSE</ntsc>
              </rate>
              <media>
                <audio>
                  <channelcount>1</channelcount>
                  <samplecharacteristics>
                    <samplerate>24000</samplerate>
                    <samplesize>16</samplesize>
                  </samplecharacteristics>
                </audio>
              </media>
            </file>
            <sourcetrack>
              <mediatype>audio</mediatype>
              <trackindex>1</trackindex>
            </sourcetrack>
          </clipitem>
          <clipitem id="clipitem-22">
            <name>OrionEp11_022.mp3</name>
            <enabled>TRUE</enabled>
            <duration>180</duration>
            <rate>
              <timebase>30</timebase>
              <ntsc>TRUE</ntsc>
            </rate>
            <start>3784</start>
            <end>3964</end>
            <in>0</in>
            <out>144264</out>
            <file id="file-22">
              <name>OrionEp11_022.mp3</name>
              <pathurl>file:///Users/hiroshikodera/repos/_active/tools/davinciauto/prototype/orion-v2/projects/OrionEp11/output/audio/OrionEp11_022.mp3</pathurl>
              <rate>
                <timebase>24000</timebase>
                <ntsc>FALSE</ntsc>
              </rate>
              <media>
                <audio>
                  <channelcount>1</channelcount>
                  <samplecharacteristics>
                    <samplerate>24000</samplerate>
                    <samplesize>16</samplesize>
                  </samplecharacteristics>
                </audio>
              </media>
            </file>
            <sourcetrack>
              <mediatype>audio</mediatype>
              <trackindex>1</trackindex>
            </sourcetrack>
          </clipitem>
          <clipitem id="clipitem-23">
            <name>OrionEp11_023.mp3</name>
            <enabled>TRUE</enabled>
            <duration>120</duration>
            <rate>
              <timebase>30</timebase>
              <ntsc>TRUE</ntsc>
            </rate>
            <start>3964</start>
            <end>4084</end>
            <in>0</in>
            <out>96264</out>
            <file id="file-23">
              <name>OrionEp11_023.mp3</name>
              <pathurl>file:///Users/hiroshikodera/repos/_active/tools/davinciauto/prototype/orion-v2/projects/OrionEp11/output/audio/OrionEp11_023.mp3</pathurl>
              <rate>
                <timebase>24000</timebase>
                <ntsc>FALSE</ntsc>
              </rate>
              <media>
                <audio>
                  <channelcount>1</channelcount>
                  <samplecharacteristics>
                    <samplerate>24000</samplerate>
                    <samplesize>16</samplesize>
                  </samplecharacteristics>
                </audio>
              </media>
            </file>
            <sourcetrack>
              <mediatype>audio</mediatype>
              <trackindex>1</trackindex>
            </sourcetrack>
          </clipitem>
          <clipitem id="clipitem-24">
            <name>OrionEp11_024.mp3</name>
            <enabled>TRUE</enabled>
            <duration>189</duration>
            <rate>
              <timebase>30</timebase>
              <ntsc>TRUE</ntsc>
            </rate>
            <start>4084</start>
            <end>4273</end>
            <in>0</in>
            <out>150984</out>
            <file id="file-24">
              <name>OrionEp11_024.mp3</name>
              <pathurl>file:///Users/hiroshikodera/repos/_active/tools/davinciauto/prototype/orion-v2/projects/OrionEp11/output/audio/OrionEp11_024.mp3</pathurl>
              <rate>
                <timebase>24000</timebase>
                <ntsc>FALSE</ntsc>
              </rate>
              <media>
                <audio>
                  <channelcount>1</channelcount>
                  <samplecharacteristics>
                    <samplerate>24000</samplerate>
                    <samplesize>16</samplesize>
                  </samplecharacteristics>
                </audio>
              </media>
            </file>
            <sourcetrack>
              <mediatype>audio</mediatype>
              <trackindex>1</trackindex>
            </sourcetrack>
          </clipitem>
          <clipitem id="clipitem-25">
            <name>OrionEp11_025.mp3</name>
            <enabled>TRUE</enabled>
            <duration>191</duration>
            <rate>
              <timebase>30</timebase>
              <ntsc>TRUE</ntsc>
            </rate>
            <start>4273</start>
            <end>4464</end>
            <in>0</in>
            <out>152904</out>
            <file id="file-25">
              <name>OrionEp11_025.mp3</name>
              <pathurl>file:///Users/hiroshikodera/repos/_active/tools/davinciauto/prototype/orion-v2/projects/OrionEp11/output/audio/OrionEp11_025.mp3</pathurl>
              <rate>
                <timebase>24000</timebase>
                <ntsc>FALSE</ntsc>
              </rate>
              <media>
                <audio>
                  <channelcount>1</channelcount>
                  <samplecharacteristics>
                    <samplerate>24000</samplerate>
                    <samplesize>16</samplesize>
                  </samplecharacteristics>
                </audio>
              </media>
            </file>
            <sourcetrack>
              <mediatype>audio</mediatype>
              <trackindex>1</trackindex>
            </sourcetrack>
          </clipitem>
          <clipitem id="clipitem-26">
            <name>OrionEp11_026.mp3</name>
            <enabled>TRUE</enabled>
            <duration>249</duration>
            <rate>
              <timebase>30</timebase>
              <ntsc>TRUE</ntsc>
            </rate>
            <start>4464</start>
            <end>4713</end>
            <in>0</in>
            <out>198984</out>
            <file id="file-26">
              <name>OrionEp11_026.mp3</name>
              <pathurl>file:///Users/hiroshikodera/repos/_active/tools/davinciauto/prototype/orion-v2/projects/OrionEp11/output/audio/OrionEp11_026.mp3</pathurl>
              <rate>
                <timebase>24000</timebase>
                <ntsc>FALSE</ntsc>
              </rate>
              <media>
                <audio>
                  <channelcount>1</channelcount>
                  <samplecharacteristics>
                    <samplerate>24000</samplerate>
                    <samplesize>16</samplesize>
                  </samplecharacteristics>
                </audio>
              </media>
            </file>
            <sourcetrack>
              <mediatype>audio</mediatype>
              <trackindex>1</trackindex>
            </sourcetrack>
          </clipitem>
          <clipitem id="clipitem-27">
            <name>OrionEp11_027.mp3</name>
            <enabled>TRUE</enabled>
            <duration>260</duration>
            <rate>
              <timebase>30</timebase>
              <ntsc>TRUE</ntsc>
            </rate>
            <start>4713</start>
            <end>4973</end>
            <in>0</in>
            <out>207624</out>
            <file id="file-27">
              <name>OrionEp11_027.mp3</name>
              <pathurl>file:///Users/hiroshikodera/repos/_active/tools/davinciauto/prototype/orion-v2/projects/OrionEp11/output/audio/OrionEp11_027.mp3</pathurl>
              <rate>
                <timebase>24000</timebase>
                <ntsc>FALSE</ntsc>
              </rate>
              <media>
                <audio>
                  <channelcount>1</channelcount>
                  <samplecharacteristics>
                    <samplerate>24000</samplerate>
                    <samplesize>16</samplesize>
                  </samplecharacteristics>
                </audio>
              </media>
            </file>
            <sourcetrack>
              <mediatype>audio</mediatype>
              <trackindex>1</trackindex>
            </sourcetrack>
          </clipitem>
          <clipitem id="clipitem-28">
            <name>OrionEp11_028.mp3</name>
            <enabled>TRUE</enabled>
            <duration>219</duration>
            <rate>
              <timebase>30</timebase>
              <ntsc>TRUE</ntsc>
            </rate>
            <start>4972</start>
            <end>5191</end>
            <in>0</in>
            <out>174984</out>
            <file id="file-28">
              <name>OrionEp11_028.mp3</name>
              <pathurl>file:///Users/hiroshikodera/repos/_active/tools/davinciauto/prototype/orion-v2/projects/OrionEp11/output/audio/OrionEp11_028.mp3</pathurl>
              <rate>
                <timebase>24000</timebase>
                <ntsc>FALSE</ntsc>
              </rate>
              <media>
                <audio>
                  <channelcount>1</channelcount>
                  <samplecharacteristics>
                    <samplerate>24000</samplerate>
                    <samplesize>16</samplesize>
                  </samplecharacteristics>
                </audio>
              </media>
            </file>
            <sourcetrack>
              <mediatype>audio</mediatype>
              <trackindex>1</trackindex>
            </sourcetrack>
          </clipitem>
          <clipitem id="clipitem-29">
            <name>OrionEp11_029.mp3</name>
            <enabled>TRUE</enabled>
            <duration>180</duration>
            <rate>
              <timebase>30</timebase>
              <ntsc>TRUE</ntsc>
            </rate>
            <start>5191</start>
            <end>5371</end>
            <in>0</in>
            <out>144264</out>
            <file id="file-29">
              <name>OrionEp11_029.mp3</name>
              <pathurl>file:///Users/hiroshikodera/repos/_active/tools/davinciauto/prototype/orion-v2/projects/OrionEp11/output/audio/OrionEp11_029.mp3</pathurl>
              <rate>
                <timebase>24000</timebase>
                <ntsc>FALSE</ntsc>
              </rate>
              <media>
                <audio>
                  <channelcount>1</channelcount>
                  <samplecharacteristics>
                    <samplerate>24000</samplerate>
                    <samplesize>16</samplesize>
                  </samplecharacteristics>
                </audio>
              </media>
            </file>
            <sourcetrack>
              <mediatype>audio</mediatype>
              <trackindex>1</trackindex>
            </sourcetrack>
          </clipitem>
          <clipitem id="clipitem-30">
            <name>OrionEp11_030.mp3</name>
            <enabled>TRUE</enabled>
            <duration>138</duration>
            <rate>
              <timebase>30</timebase>
              <ntsc>TRUE</ntsc>
            </rate>
            <start>5371</start>
            <end>5509</end>
            <in>0</in>
            <out>110664</out>
            <file id="file-30">
              <name>OrionEp11_030.mp3</name>
              <pathurl>file:///Users/hiroshikodera/repos/_active/tools/davinciauto/prototype/orion-v2/projects/OrionEp11/output/audio/OrionEp11_030.mp3</pathurl>
              <rate>
                <timebase>24000</timebase>
                <ntsc>FALSE</ntsc>
              </rate>
              <media>
                <audio>
                  <channelcount>1</channelcount>
                  <samplecharacteristics>
                    <samplerate>24000</samplerate>
                    <samplesize>16</samplesize>
                  </samplecharacteristics>
                </audio>
              </media>
            </file>
            <sourcetrack>
              <mediatype>audio</mediatype>
              <trackindex>1</trackindex>
            </sourcetrack>
          </clipitem>
          <clipitem id="clipitem-31">
            <name>OrionEp11_031.mp3</name>
            <enabled>TRUE</enabled>
            <duration>274</duration>
            <rate>
              <timebase>30</timebase>
              <ntsc>TRUE</ntsc>
            </rate>
            <start>5510</start>
            <end>5784</end>
            <in>0</in>
            <out>219144</out>
            <file id="file-31">
              <name>OrionEp11_031.mp3</name>
              <pathurl>file:///Users/hiroshikodera/repos/_active/tools/davinciauto/prototype/orion-v2/projects/OrionEp11/output/audio/OrionEp11_031.mp3</pathurl>
              <rate>
                <timebase>24000</timebase>
                <ntsc>FALSE</ntsc>
              </rate>
              <media>
                <audio>
                  <channelcount>1</channelcount>
                  <samplecharacteristics>
                    <samplerate>24000</samplerate>
                    <samplesize>16</samplesize>
                  </samplecharacteristics>
                </audio>
              </media>
            </file>
            <sourcetrack>
              <mediatype>audio</mediatype>
              <trackindex>1</trackindex>
            </sourcetrack>
          </clipitem>
          <clipitem id="clipitem-32">
            <name>OrionEp11_032.mp3</name>
            <enabled>TRUE</enabled>
            <duration>106</duration>
            <rate>
              <timebase>30</timebase>
              <ntsc>TRUE</ntsc>
            </rate>
            <start>5784</start>
            <end>5890</end>
            <in>0</in>
            <out>84744</out>
            <file id="file-32">
              <name>OrionEp11_032.mp3</name>
              <pathurl>file:///Users/hiroshikodera/repos/_active/tools/davinciauto/prototype/orion-v2/projects/OrionEp11/output/audio/OrionEp11_032.mp3</pathurl>
              <rate>
                <timebase>24000</timebase>
                <ntsc>FALSE</ntsc>
              </rate>
              <media>
                <audio>
                  <channelcount>1</channelcount>
                  <samplecharacteristics>
                    <samplerate>24000</samplerate>
                    <samplesize>16</samplesize>
                  </samplecharacteristics>
                </audio>
              </media>
            </file>
            <sourcetrack>
              <mediatype>audio</mediatype>
              <trackindex>1</trackindex>
            </sourcetrack>
          </clipitem>
          <clipitem id="clipitem-33">
            <name>OrionEp11_033.mp3</name>
            <enabled>TRUE</enabled>
            <duration>256</duration>
            <rate>
              <timebase>30</timebase>
              <ntsc>TRUE</ntsc>
            </rate>
            <start>5890</start>
            <end>6146</end>
            <in>0</in>
            <out>204744</out>
            <file id="file-33">
              <name>OrionEp11_033.mp3</name>
              <pathurl>file:///Users/hiroshikodera/repos/_active/tools/davinciauto/prototype/orion-v2/projects/OrionEp11/output/audio/OrionEp11_033.mp3</pathurl>
              <rate>
                <timebase>24000</timebase>
                <ntsc>FALSE</ntsc>
              </rate>
              <media>
                <audio>
                  <channelcount>1</channelcount>
                  <samplecharacteristics>
                    <samplerate>24000</samplerate>
                    <samplesize>16</samplesize>
                  </samplecharacteristics>
                </audio>
              </media>
            </file>
            <sourcetrack>
              <mediatype>audio</mediatype>
              <trackindex>1</trackindex>
            </sourcetrack>
          </clipitem>
          <clipitem id="clipitem-34">
            <name>OrionEp11_034.mp3</name>
            <enabled>TRUE</enabled>
            <duration>284</duration>
            <rate>
              <timebase>30</timebase>
              <ntsc>TRUE</ntsc>
            </rate>
            <start>6146</start>
            <end>6430</end>
            <in>0</in>
            <out>226824</out>
            <file id="file-34">
              <name>OrionEp11_034.mp3</name>
              <pathurl>file:///Users/hiroshikodera/repos/_active/tools/davinciauto/prototype/orion-v2/projects/OrionEp11/output/audio/OrionEp11_034.mp3</pathurl>
              <rate>
                <timebase>24000</timebase>
                <ntsc>FALSE</ntsc>
              </rate>
              <media>
                <audio>
                  <channelcount>1</channelcount>
                  <samplecharacteristics>
                    <samplerate>24000</samplerate>
                    <samplesize>16</samplesize>
                  </samplecharacteristics>
                </audio>
              </media>
            </file>
            <sourcetrack>
              <mediatype>audio</mediatype>
              <trackindex>1</trackindex>
            </sourcetrack>
          </clipitem>
          <clipitem id="clipitem-35">
            <name>OrionEp11_035.mp3</name>
            <enabled>TRUE</enabled>
            <duration>257</duration>
            <rate>
              <timebase>30</timebase>
              <ntsc>TRUE</ntsc>
            </rate>
            <start>6429</start>
            <end>6686</end>
            <in>0</in>
            <out>205704</out>
            <file id="file-35">
              <name>OrionEp11_035.mp3</name>
              <pathurl>file:///Users/hiroshikodera/repos/_active/tools/davinciauto/prototype/orion-v2/projects/OrionEp11/output/audio/OrionEp11_035.mp3</pathurl>
              <rate>
                <timebase>24000</timebase>
                <ntsc>FALSE</ntsc>
              </rate>
              <media>
                <audio>
                  <channelcount>1</channelcount>
                  <samplecharacteristics>
                    <samplerate>24000</samplerate>
                    <samplesize>16</samplesize>
                  </samplecharacteristics>
                </audio>
              </media>
            </file>
            <sourcetrack>
              <mediatype>audio</mediatype>
              <trackindex>1</trackindex>
            </sourcetrack>
          </clipitem>
          <clipitem id="clipitem-36">
            <name>OrionEp11_036.mp3</name>
            <enabled>TRUE</enabled>
            <duration>209</duration>
            <rate>
              <timebase>30</timebase>
              <ntsc>TRUE</ntsc>
            </rate>
            <start>6687</start>
            <end>6896</end>
            <in>0</in>
            <out>167304</out>
            <file id="file-36">
              <name>OrionEp11_036.mp3</name>
              <pathurl>file:///Users/hiroshikodera/repos/_active/tools/davinciauto/prototype/orion-v2/projects/OrionEp11/output/audio/OrionEp11_036.mp3</pathurl>
              <rate>
                <timebase>24000</timebase>
                <ntsc>FALSE</ntsc>
              </rate>
              <media>
                <audio>
                  <channelcount>1</channelcount>
                  <samplecharacteristics>
                    <samplerate>24000</samplerate>
                    <samplesize>16</samplesize>
                  </samplecharacteristics>
                </audio>
              </media>
            </file>
            <sourcetrack>
              <mediatype>audio</mediatype>
              <trackindex>1</trackindex>
            </sourcetrack>
          </clipitem>
          <clipitem id="clipitem-37">
            <name>OrionEp11_037.mp3</name>
            <enabled>TRUE</enabled>
            <duration>198</duration>
            <rate>
              <timebase>30</timebase>
              <ntsc>TRUE</ntsc>
            </rate>
            <start>6896</start>
            <end>7094</end>
            <in>0</in>
            <out>158664</out>
            <file id="file-37">
              <name>OrionEp11_037.mp3</name>
              <pathurl>file:///Users/hiroshikodera/repos/_active/tools/davinciauto/prototype/orion-v2/projects/OrionEp11/output/audio/OrionEp11_037.mp3</pathurl>
              <rate>
                <timebase>24000</timebase>
                <ntsc>FALSE</ntsc>
              </rate>
              <media>
                <audio>
                  <channelcount>1</channelcount>
                  <samplecharacteristics>
                    <samplerate>24000</samplerate>
                    <samplesize>16</samplesize>
                  </samplecharacteristics>
                </audio>
              </media>
            </file>
            <sourcetrack>
              <mediatype>audio</mediatype>
              <trackindex>1</trackindex>
            </sourcetrack>
          </clipitem>
          <clipitem id="clipitem-38">
            <name>OrionEp11_038.mp3</name>
            <enabled>TRUE</enabled>
            <duration>161</duration>
            <rate>
              <timebase>30</timebase>
              <ntsc>TRUE</ntsc>
            </rate>
            <start>7094</start>
            <end>7255</end>
            <in>0</in>
            <out>128904</out>
            <file id="file-38">
              <name>OrionEp11_038.mp3</name>
              <pathurl>file:///Users/hiroshikodera/repos/_active/tools/davinciauto/prototype/orion-v2/projects/OrionEp11/output/audio/OrionEp11_038.mp3</pathurl>
              <rate>
                <timebase>24000</timebase>
                <ntsc>FALSE</ntsc>
              </rate>
              <media>
                <audio>
                  <channelcount>1</channelcount>
                  <samplecharacteristics>
                    <samplerate>24000</samplerate>
                    <samplesize>16</samplesize>
                  </samplecharacteristics>
                </audio>
              </media>
            </file>
            <sourcetrack>
              <mediatype>audio</mediatype>
              <trackindex>1</trackindex>
            </sourcetrack>
          </clipitem>
          <clipitem id="clipitem-39">
            <name>OrionEp11_039.mp3</name>
            <enabled>TRUE</enabled>
            <duration>114</duration>
            <rate>
              <timebase>30</timebase>
              <ntsc>TRUE</ntsc>
            </rate>
            <start>7255</start>
            <end>7369</end>
            <in>0</in>
            <out>91464</out>
            <file id="file-39">
              <name>OrionEp11_039.mp3</name>
              <pathurl>file:///Users/hiroshikodera/repos/_active/tools/davinciauto/prototype/orion-v2/projects/OrionEp11/output/audio/OrionEp11_039.mp3</pathurl>
              <rate>
                <timebase>24000</timebase>
                <ntsc>FALSE</ntsc>
              </rate>
              <media>
                <audio>
                  <channelcount>1</channelcount>
                  <samplecharacteristics>
                    <samplerate>24000</samplerate>
                    <samplesize>16</samplesize>
                  </samplecharacteristics>
                </audio>
              </media>
            </file>
            <sourcetrack>
              <mediatype>audio</mediatype>
              <trackindex>1</trackindex>
            </sourcetrack>
          </clipitem>
          <clipitem id="clipitem-40">
            <name>OrionEp11_040.mp3</name>
            <enabled>TRUE</enabled>
            <duration>176</duration>
            <rate>
              <timebase>30</timebase>
              <ntsc>TRUE</ntsc>
            </rate>
            <start>7369</start>
            <end>7545</end>
            <in>0</in>
            <out>140424</out>
            <file id="file-40">
              <name>OrionEp11_040.mp3</name>
              <pathurl>file:///Users/hiroshikodera/repos/_active/tools/davinciauto/prototype/orion-v2/projects/OrionEp11/output/audio/OrionEp11_040.mp3</pathurl>
              <rate>
                <timebase>24000</timebase>
                <ntsc>FALSE</ntsc>
              </rate>
              <media>
                <audio>
                  <channelcount>1</channelcount>
                  <samplecharacteristics>
                    <samplerate>24000</samplerate>
                    <samplesize>16</samplesize>
                  </samplecharacteristics>
                </audio>
              </media>
            </file>
            <sourcetrack>
              <mediatype>audio</mediatype>
              <trackindex>1</trackindex>
            </sourcetrack>
          </clipitem>
          <clipitem id="clipitem-41">
            <name>OrionEp11_041.mp3</name>
            <enabled>TRUE</enabled>
            <duration>246</duration>
            <rate>
              <timebase>30</timebase>
              <ntsc>TRUE</ntsc>
            </rate>
            <start>7545</start>
            <end>7791</end>
            <in>0</in>
            <out>197064</out>
            <file id="file-41">
              <name>OrionEp11_041.mp3</name>
              <pathurl>file:///Users/hiroshikodera/repos/_active/tools/davinciauto/prototype/orion-v2/projects/OrionEp11/output/audio/OrionEp11_041.mp3</pathurl>
              <rate>
                <timebase>24000</timebase>
                <ntsc>FALSE</ntsc>
              </rate>
              <media>
                <audio>
                  <channelcount>1</channelcount>
                  <samplecharacteristics>
                    <samplerate>24000</samplerate>
                    <samplesize>16</samplesize>
                  </samplecharacteristics>
                </audio>
              </media>
            </file>
            <sourcetrack>
              <mediatype>audio</mediatype>
              <trackindex>1</trackindex>
            </sourcetrack>
          </clipitem>
          <clipitem id="clipitem-42">
            <name>OrionEp11_042.mp3</name>
            <enabled>TRUE</enabled>
            <duration>224</duration>
            <rate>
              <timebase>30</timebase>
              <ntsc>TRUE</ntsc>
            </rate>
            <start>7791</start>
            <end>8015</end>
            <in>0</in>
            <out>178824</out>
            <file id="file-42">
              <name>OrionEp11_042.mp3</name>
              <pathurl>file:///Users/hiroshikodera/repos/_active/tools/davinciauto/prototype/orion-v2/projects/OrionEp11/output/audio/OrionEp11_042.mp3</pathurl>
              <rate>
                <timebase>24000</timebase>
                <ntsc>FALSE</ntsc>
              </rate>
              <media>
                <audio>
                  <channelcount>1</channelcount>
                  <samplecharacteristics>
                    <samplerate>24000</samplerate>
                    <samplesize>16</samplesize>
                  </samplecharacteristics>
                </audio>
              </media>
            </file>
            <sourcetrack>
              <mediatype>audio</mediatype>
              <trackindex>1</trackindex>
            </sourcetrack>
          </clipitem>
          <clipitem id="clipitem-43">
            <name>OrionEp11_043.mp3</name>
            <enabled>TRUE</enabled>
            <duration>65</duration>
            <rate>
              <timebase>30</timebase>
              <ntsc>TRUE</ntsc>
            </rate>
            <start>8014</start>
            <end>8079</end>
            <in>0</in>
            <out>52104</out>
            <file id="file-43">
              <name>OrionEp11_043.mp3</name>
              <pathurl>file:///Users/hiroshikodera/repos/_active/tools/davinciauto/prototype/orion-v2/projects/OrionEp11/output/audio/OrionEp11_043.mp3</pathurl>
              <rate>
                <timebase>24000</timebase>
                <ntsc>FALSE</ntsc>
              </rate>
              <media>
                <audio>
                  <channelcount>1</channelcount>
                  <samplecharacteristics>
                    <samplerate>24000</samplerate>
                    <samplesize>16</samplesize>
                  </samplecharacteristics>
                </audio>
              </media>
            </file>
            <sourcetrack>
              <mediatype>audio</mediatype>
              <trackindex>1</trackindex>
            </sourcetrack>
          </clipitem>
          <clipitem id="clipitem-44">
            <name>OrionEp11_044.mp3</name>
            <enabled>TRUE</enabled>
            <duration>102</duration>
            <rate>
              <timebase>30</timebase>
              <ntsc>TRUE</ntsc>
            </rate>
            <start>8079</start>
            <end>8181</end>
            <in>0</in>
            <out>81864</out>
            <file id="file-44">
              <name>OrionEp11_044.mp3</name>
              <pathurl>file:///Users/hiroshikodera/repos/_active/tools/davinciauto/prototype/orion-v2/projects/OrionEp11/output/audio/OrionEp11_044.mp3</pathurl>
              <rate>
                <timebase>24000</timebase>
                <ntsc>FALSE</ntsc>
              </rate>
              <media>
                <audio>
                  <channelcount>1</channelcount>
                  <samplecharacteristics>
                    <samplerate>24000</samplerate>
                    <samplesize>16</samplesize>
                  </samplecharacteristics>
                </audio>
              </media>
            </file>
            <sourcetrack>
              <mediatype>audio</mediatype>
              <trackindex>1</trackindex>
            </sourcetrack>
          </clipitem>
          <clipitem id="clipitem-45">
            <name>OrionEp11_045.mp3</name>
            <enabled>TRUE</enabled>
            <duration>190</duration>
            <rate>
              <timebase>30</timebase>
              <ntsc>TRUE</ntsc>
            </rate>
            <start>8181</start>
            <end>8371</end>
            <in>0</in>
            <out>151944</out>
            <file id="file-45">
              <name>OrionEp11_045.mp3</name>
              <pathurl>file:///Users/hiroshikodera/repos/_active/tools/davinciauto/prototype/orion-v2/projects/OrionEp11/output/audio/OrionEp11_045.mp3</pathurl>
              <rate>
                <timebase>24000</timebase>
                <ntsc>FALSE</ntsc>
              </rate>
              <media>
                <audio>
                  <channelcount>1</channelcount>
                  <samplecharacteristics>
                    <samplerate>24000</samplerate>
                    <samplesize>16</samplesize>
                  </samplecharacteristics>
                </audio>
              </media>
            </file>
            <sourcetrack>
              <mediatype>audio</mediatype>
              <trackindex>1</trackindex>
            </sourcetrack>
          </clipitem>
          <clipitem id="clipitem-46">
            <name>OrionEp11_046.mp3</name>
            <enabled>TRUE</enabled>
            <duration>147</duration>
            <rate>
              <timebase>30</timebase>
              <ntsc>TRUE</ntsc>
            </rate>
            <start>8371</start>
            <end>8518</end>
            <in>0</in>
            <out>117384</out>
            <file id="file-46">
              <name>OrionEp11_046.mp3</name>
              <pathurl>file:///Users/hiroshikodera/repos/_active/tools/davinciauto/prototype/orion-v2/projects/OrionEp11/output/audio/OrionEp11_046.mp3</pathurl>
              <rate>
                <timebase>24000</timebase>
                <ntsc>FALSE</ntsc>
              </rate>
              <media>
                <audio>
                  <channelcount>1</channelcount>
                  <samplecharacteristics>
                    <samplerate>24000</samplerate>
                    <samplesize>16</samplesize>
                  </samplecharacteristics>
                </audio>
              </media>
            </file>
            <sourcetrack>
              <mediatype>audio</mediatype>
              <trackindex>1</trackindex>
            </sourcetrack>
          </clipitem>
          <clipitem id="clipitem-47">
            <name>OrionEp11_047.mp3</name>
            <enabled>TRUE</enabled>
            <duration>183</duration>
            <rate>
              <timebase>30</timebase>
              <ntsc>TRUE</ntsc>
            </rate>
            <start>8519</start>
            <end>8702</end>
            <in>0</in>
            <out>146184</out>
            <file id="file-47">
              <name>OrionEp11_047.mp3</name>
              <pathurl>file:///Users/hiroshikodera/repos/_active/tools/davinciauto/prototype/orion-v2/projects/OrionEp11/output/audio/OrionEp11_047.mp3</pathurl>
              <rate>
                <timebase>24000</timebase>
                <ntsc>FALSE</ntsc>
              </rate>
              <media>
                <audio>
                  <channelcount>1</channelcount>
                  <samplecharacteristics>
                    <samplerate>24000</samplerate>
                    <samplesize>16</samplesize>
                  </samplecharacteristics>
                </audio>
              </media>
            </file>
            <sourcetrack>
              <mediatype>audio</mediatype>
              <trackindex>1</trackindex>
            </sourcetrack>
          </clipitem>
          <clipitem id="clipitem-48">
            <name>OrionEp11_048.mp3</name>
            <enabled>TRUE</enabled>
            <duration>124</duration>
            <rate>
              <timebase>30</timebase>
              <ntsc>TRUE</ntsc>
            </rate>
            <start>8702</start>
            <end>8826</end>
            <in>0</in>
            <out>99144</out>
            <file id="file-48">
              <name>OrionEp11_048.mp3</name>
              <pathurl>file:///Users/hiroshikodera/repos/_active/tools/davinciauto/prototype/orion-v2/projects/OrionEp11/output/audio/OrionEp11_048.mp3</pathurl>
              <rate>
                <timebase>24000</timebase>
                <ntsc>FALSE</ntsc>
              </rate>
              <media>
                <audio>
                  <channelcount>1</channelcount>
                  <samplecharacteristics>
                    <samplerate>24000</samplerate>
                    <samplesize>16</samplesize>
                  </samplecharacteristics>
                </audio>
              </media>
            </file>
            <sourcetrack>
              <mediatype>audio</mediatype>
              <trackindex>1</trackindex>
            </sourcetrack>
          </clipitem>
          <clipitem id="clipitem-49">
            <name>OrionEp11_049.mp3</name>
            <enabled>TRUE</enabled>
            <duration>238</duration>
            <rate>
              <timebase>30</timebase>
              <ntsc>TRUE</ntsc>
            </rate>
            <start>8826</start>
            <end>9064</end>
            <in>0</in>
            <out>190344</out>
            <file id="file-49">
              <name>OrionEp11_049.mp3</name>
              <pathurl>file:///Users/hiroshikodera/repos/_active/tools/davinciauto/prototype/orion-v2/projects/OrionEp11/output/audio/OrionEp11_049.mp3</pathurl>
              <rate>
                <timebase>24000</timebase>
                <ntsc>FALSE</ntsc>
              </rate>
              <media>
                <audio>
                  <channelcount>1</channelcount>
                  <samplecharacteristics>
                    <samplerate>24000</samplerate>
                    <samplesize>16</samplesize>
                  </samplecharacteristics>
                </audio>
              </media>
            </file>
            <sourcetrack>
              <mediatype>audio</mediatype>
              <trackindex>1</trackindex>
            </sourcetrack>
          </clipitem>
          <clipitem id="clipitem-50">
            <name>OrionEp11_050.mp3</name>
            <enabled>TRUE</enabled>
            <duration>215</duration>
            <rate>
              <timebase>30</timebase>
              <ntsc>TRUE</ntsc>
            </rate>
            <start>9064</start>
            <end>9279</end>
            <in>0</in>
            <out>172104</out>
            <file id="file-50">
              <name>OrionEp11_050.mp3</name>
              <pathurl>file:///Users/hiroshikodera/repos/_active/tools/davinciauto/prototype/orion-v2/projects/OrionEp11/output/audio/OrionEp11_050.mp3</pathurl>
              <rate>
                <timebase>24000</timebase>
                <ntsc>FALSE</ntsc>
              </rate>
              <media>
                <audio>
                  <channelcount>1</channelcount>
                  <samplecharacteristics>
                    <samplerate>24000</samplerate>
                    <samplesize>16</samplesize>
                  </samplecharacteristics>
                </audio>
              </media>
            </file>
            <sourcetrack>
              <mediatype>audio</mediatype>
              <trackindex>1</trackindex>
            </sourcetrack>
          </clipitem>
          <clipitem id="clipitem-51">
            <name>OrionEp11_051.mp3</name>
            <enabled>TRUE</enabled>
            <duration>172</duration>
            <rate>
              <timebase>30</timebase>
              <ntsc>TRUE</ntsc>
            </rate>
            <start>9279</start>
            <end>9451</end>
            <in>0</in>
            <out>137544</out>
            <file id="file-51">
              <name>OrionEp11_051.mp3</name>
              <pathurl>file:///Users/hiroshikodera/repos/_active/tools/davinciauto/prototype/orion-v2/projects/OrionEp11/output/audio/OrionEp11_051.mp3</pathurl>
              <rate>
                <timebase>24000</timebase>
                <ntsc>FALSE</ntsc>
              </rate>
              <media>
                <audio>
                  <channelcount>1</channelcount>
                  <samplecharacteristics>
                    <samplerate>24000</samplerate>
                    <samplesize>16</samplesize>
                  </samplecharacteristics>
                </audio>
              </media>
            </file>
            <sourcetrack>
              <mediatype>audio</mediatype>
              <trackindex>1</trackindex>
            </sourcetrack>
          </clipitem>
          <clipitem id="clipitem-52">
            <name>OrionEp11_052.mp3</name>
            <enabled>TRUE</enabled>
            <duration>222</duration>
            <rate>
              <timebase>30</timebase>
              <ntsc>TRUE</ntsc>
            </rate>
            <start>9451</start>
            <end>9673</end>
            <in>0</in>
            <out>177864</out>
            <file id="file-52">
              <name>OrionEp11_052.mp3</name>
              <pathurl>file:///Users/hiroshikodera/repos/_active/tools/davinciauto/prototype/orion-v2/projects/OrionEp11/output/audio/OrionEp11_052.mp3</pathurl>
              <rate>
                <timebase>24000</timebase>
                <ntsc>FALSE</ntsc>
              </rate>
              <media>
                <audio>
                  <channelcount>1</channelcount>
                  <samplecharacteristics>
                    <samplerate>24000</samplerate>
                    <samplesize>16</samplesize>
                  </samplecharacteristics>
                </audio>
              </media>
            </file>
            <sourcetrack>
              <mediatype>audio</mediatype>
              <trackindex>1</trackindex>
            </sourcetrack>
          </clipitem>
          <clipitem id="clipitem-53">
            <name>OrionEp11_053.mp3</name>
            <enabled>TRUE</enabled>
            <duration>180</duration>
            <rate>
              <timebase>30</timebase>
              <ntsc>TRUE</ntsc>
            </rate>
            <start>9674</start>
            <end>9854</end>
            <in>0</in>
            <out>144264</out>
            <file id="file-53">
              <name>OrionEp11_053.mp3</name>
              <pathurl>file:///Users/hiroshikodera/repos/_active/tools/davinciauto/prototype/orion-v2/projects/OrionEp11/output/audio/OrionEp11_053.mp3</pathurl>
              <rate>
                <timebase>24000</timebase>
                <ntsc>FALSE</ntsc>
              </rate>
              <media>
                <audio>
                  <channelcount>1</channelcount>
                  <samplecharacteristics>
                    <samplerate>24000</samplerate>
                    <samplesize>16</samplesize>
                  </samplecharacteristics>
                </audio>
              </media>
            </file>
            <sourcetrack>
              <mediatype>audio</mediatype>
              <trackindex>1</trackindex>
            </sourcetrack>
          </clipitem>
          <clipitem id="clipitem-54">
            <name>OrionEp11_054.mp3</name>
            <enabled>TRUE</enabled>
            <duration>160</duration>
            <rate>
              <timebase>30</timebase>
              <ntsc>TRUE</ntsc>
            </rate>
            <start>9854</start>
            <end>10014</end>
            <in>0</in>
            <out>127944</out>
            <file id="file-54">
              <name>OrionEp11_054.mp3</name>
              <pathurl>file:///Users/hiroshikodera/repos/_active/tools/davinciauto/prototype/orion-v2/projects/OrionEp11/output/audio/OrionEp11_054.mp3</pathurl>
              <rate>
                <timebase>24000</timebase>
                <ntsc>FALSE</ntsc>
              </rate>
              <media>
                <audio>
                  <channelcount>1</channelcount>
                  <samplecharacteristics>
                    <samplerate>24000</samplerate>
                    <samplesize>16</samplesize>
                  </samplecharacteristics>
                </audio>
              </media>
            </file>
            <sourcetrack>
              <mediatype>audio</mediatype>
              <trackindex>1</trackindex>
            </sourcetrack>
          </clipitem>
          <clipitem id="clipitem-55">
            <name>OrionEp11_055.mp3</name>
            <enabled>TRUE</enabled>
            <duration>137</duration>
            <rate>
              <timebase>30</timebase>
              <ntsc>TRUE</ntsc>
            </rate>
            <start>10014</start>
            <end>10151</end>
            <in>0</in>
            <out>109704</out>
            <file id="file-55">
              <name>OrionEp11_055.mp3</name>
              <pathurl>file:///Users/hiroshikodera/repos/_active/tools/davinciauto/prototype/orion-v2/projects/OrionEp11/output/audio/OrionEp11_055.mp3</pathurl>
              <rate>
                <timebase>24000</timebase>
                <ntsc>FALSE</ntsc>
              </rate>
              <media>
                <audio>
                  <channelcount>1</channelcount>
                  <samplecharacteristics>
                    <samplerate>24000</samplerate>
                    <samplesize>16</samplesize>
                  </samplecharacteristics>
                </audio>
              </media>
            </file>
            <sourcetrack>
              <mediatype>audio</mediatype>
              <trackindex>1</trackindex>
            </sourcetrack>
          </clipitem>
          <clipitem id="clipitem-56">
            <name>OrionEp11_056.mp3</name>
            <enabled>TRUE</enabled>
            <duration>164</duration>
            <rate>
              <timebase>30</timebase>
              <ntsc>TRUE</ntsc>
            </rate>
            <start>10151</start>
            <end>10315</end>
            <in>0</in>
            <out>130824</out>
            <file id="file-56">
              <name>OrionEp11_056.mp3</name>
              <pathurl>file:///Users/hiroshikodera/repos/_active/tools/davinciauto/prototype/orion-v2/projects/OrionEp11/output/audio/OrionEp11_056.mp3</pathurl>
              <rate>
                <timebase>24000</timebase>
                <ntsc>FALSE</ntsc>
              </rate>
              <media>
                <audio>
                  <channelcount>1</channelcount>
                  <samplecharacteristics>
                    <samplerate>24000</samplerate>
                    <samplesize>16</samplesize>
                  </samplecharacteristics>
                </audio>
              </media>
            </file>
            <sourcetrack>
              <mediatype>audio</mediatype>
              <trackindex>1</trackindex>
            </sourcetrack>
          </clipitem>
          <clipitem id="clipitem-57">
            <name>OrionEp11_057.mp3</name>
            <enabled>TRUE</enabled>
            <duration>308</duration>
            <rate>
              <timebase>30</timebase>
              <ntsc>TRUE</ntsc>
            </rate>
            <start>10314</start>
            <end>10622</end>
            <in>0</in>
            <out>246024</out>
            <file id="file-57">
              <name>OrionEp11_057.mp3</name>
              <pathurl>file:///Users/hiroshikodera/repos/_active/tools/davinciauto/prototype/orion-v2/projects/OrionEp11/output/audio/OrionEp11_057.mp3</pathurl>
              <rate>
                <timebase>24000</timebase>
                <ntsc>FALSE</ntsc>
              </rate>
              <media>
                <audio>
                  <channelcount>1</channelcount>
                  <samplecharacteristics>
                    <samplerate>24000</samplerate>
                    <samplesize>16</samplesize>
                  </samplecharacteristics>
                </audio>
              </media>
            </file>
            <sourcetrack>
              <mediatype>audio</mediatype>
              <trackindex>1</trackindex>
            </sourcetrack>
          </clipitem>
          <clipitem id="clipitem-58">
            <name>OrionEp11_058.mp3</name>
            <enabled>TRUE</enabled>
            <duration>184</duration>
            <rate>
              <timebase>30</timebase>
              <ntsc>TRUE</ntsc>
            </rate>
            <start>10622</start>
            <end>10806</end>
            <in>0</in>
            <out>147144</out>
            <file id="file-58">
              <name>OrionEp11_058.mp3</name>
              <pathurl>file:///Users/hiroshikodera/repos/_active/tools/davinciauto/prototype/orion-v2/projects/OrionEp11/output/audio/OrionEp11_058.mp3</pathurl>
              <rate>
                <timebase>24000</timebase>
                <ntsc>FALSE</ntsc>
              </rate>
              <media>
                <audio>
                  <channelcount>1</channelcount>
                  <samplecharacteristics>
                    <samplerate>24000</samplerate>
                    <samplesize>16</samplesize>
                  </samplecharacteristics>
                </audio>
              </media>
            </file>
            <sourcetrack>
              <mediatype>audio</mediatype>
              <trackindex>1</trackindex>
            </sourcetrack>
          </clipitem>
          <clipitem id="clipitem-59">
            <name>OrionEp11_059.mp3</name>
            <enabled>TRUE</enabled>
            <duration>243</duration>
            <rate>
              <timebase>30</timebase>
              <ntsc>TRUE</ntsc>
            </rate>
            <start>10806</start>
            <end>11049</end>
            <in>0</in>
            <out>194184</out>
            <file id="file-59">
              <name>OrionEp11_059.mp3</name>
              <pathurl>file:///Users/hiroshikodera/repos/_active/tools/davinciauto/prototype/orion-v2/projects/OrionEp11/output/audio/OrionEp11_059.mp3</pathurl>
              <rate>
                <timebase>24000</timebase>
                <ntsc>FALSE</ntsc>
              </rate>
              <media>
                <audio>
                  <channelcount>1</channelcount>
                  <samplecharacteristics>
                    <samplerate>24000</samplerate>
                    <samplesize>16</samplesize>
                  </samplecharacteristics>
                </audio>
              </media>
            </file>
            <sourcetrack>
              <mediatype>audio</mediatype>
              <trackindex>1</trackindex>
            </sourcetrack>
          </clipitem>
          <clipitem id="clipitem-60">
            <name>OrionEp11_060.mp3</name>
            <enabled>TRUE</enabled>
            <duration>210</duration>
            <rate>
              <timebase>30</timebase>
              <ntsc>TRUE</ntsc>
            </rate>
            <start>11048</start>
            <end>11258</end>
            <in>0</in>
            <out>168264</out>
            <file id="file-60">
              <name>OrionEp11_060.mp3</name>
              <pathurl>file:///Users/hiroshikodera/repos/_active/tools/davinciauto/prototype/orion-v2/projects/OrionEp11/output/audio/OrionEp11_060.mp3</pathurl>
              <rate>
                <timebase>24000</timebase>
                <ntsc>FALSE</ntsc>
              </rate>
              <media>
                <audio>
                  <channelcount>1</channelcount>
                  <samplecharacteristics>
                    <samplerate>24000</samplerate>
                    <samplesize>16</samplesize>
                  </samplecharacteristics>
                </audio>
              </media>
            </file>
            <sourcetrack>
              <mediatype>audio</mediatype>
              <trackindex>1</trackindex>
            </sourcetrack>
          </clipitem>
          <clipitem id="clipitem-61">
            <name>OrionEp11_061.mp3</name>
            <enabled>TRUE</enabled>
            <duration>291</duration>
            <rate>
              <timebase>30</timebase>
              <ntsc>TRUE</ntsc>
            </rate>
            <start>11258</start>
            <end>11549</end>
            <in>0</in>
            <out>232584</out>
            <file id="file-61">
              <name>OrionEp11_061.mp3</name>
              <pathurl>file:///Users/hiroshikodera/repos/_active/tools/davinciauto/prototype/orion-v2/projects/OrionEp11/output/audio/OrionEp11_061.mp3</pathurl>
              <rate>
                <timebase>24000</timebase>
                <ntsc>FALSE</ntsc>
              </rate>
              <media>
                <audio>
                  <channelcount>1</channelcount>
                  <samplecharacteristics>
                    <samplerate>24000</samplerate>
                    <samplesize>16</samplesize>
                  </samplecharacteristics>
                </audio>
              </media>
            </file>
            <sourcetrack>
              <mediatype>audio</mediatype>
              <trackindex>1</trackindex>
            </sourcetrack>
          </clipitem>
          <clipitem id="clipitem-62">
            <name>OrionEp11_062.mp3</name>
            <enabled>TRUE</enabled>
            <duration>209</duration>
            <rate>
              <timebase>30</timebase>
              <ntsc>TRUE</ntsc>
            </rate>
            <start>11549</start>
            <end>11758</end>
            <in>0</in>
            <out>167304</out>
            <file id="file-62">
              <name>OrionEp11_062.mp3</name>
              <pathurl>file:///Users/hiroshikodera/repos/_active/tools/davinciauto/prototype/orion-v2/projects/OrionEp11/output/audio/OrionEp11_062.mp3</pathurl>
              <rate>
                <timebase>24000</timebase>
                <ntsc>FALSE</ntsc>
              </rate>
              <media>
                <audio>
                  <channelcount>1</channelcount>
                  <samplecharacteristics>
                    <samplerate>24000</samplerate>
                    <samplesize>16</samplesize>
                  </samplecharacteristics>
                </audio>
              </media>
            </file>
            <sourcetrack>
              <mediatype>audio</mediatype>
              <trackindex>1</trackindex>
            </sourcetrack>
          </clipitem>
          <clipitem id="clipitem-63">
            <name>OrionEp11_063.mp3</name>
            <enabled>TRUE</enabled>
            <duration>150</duration>
            <rate>
              <timebase>30</timebase>
              <ntsc>TRUE</ntsc>
            </rate>
            <start>11758</start>
            <end>11908</end>
            <in>0</in>
            <out>120264</out>
            <file id="file-63">
              <name>OrionEp11_063.mp3</name>
              <pathurl>file:///Users/hiroshikodera/repos/_active/tools/davinciauto/prototype/orion-v2/projects/OrionEp11/output/audio/OrionEp11_063.mp3</pathurl>
              <rate>
                <timebase>24000</timebase>
                <ntsc>FALSE</ntsc>
              </rate>
              <media>
                <audio>
                  <channelcount>1</channelcount>
                  <samplecharacteristics>
                    <samplerate>24000</samplerate>
                    <samplesize>16</samplesize>
                  </samplecharacteristics>
                </audio>
              </media>
            </file>
            <sourcetrack>
              <mediatype>audio</mediatype>
              <trackindex>1</trackindex>
            </sourcetrack>
          </clipitem>
          <clipitem id="clipitem-64">
            <name>OrionEp11_064.mp3</name>
            <enabled>TRUE</enabled>
            <duration>150</duration>
            <rate>
              <timebase>30</timebase>
              <ntsc>TRUE</ntsc>
            </rate>
            <start>11908</start>
            <end>12058</end>
            <in>0</in>
            <out>120264</out>
            <file id="file-64">
              <name>OrionEp11_064.mp3</name>
              <pathurl>file:///Users/hiroshikodera/repos/_active/tools/davinciauto/prototype/orion-v2/projects/OrionEp11/output/audio/OrionEp11_064.mp3</pathurl>
              <rate>
                <timebase>24000</timebase>
                <ntsc>FALSE</ntsc>
              </rate>
              <media>
                <audio>
                  <channelcount>1</channelcount>
                  <samplecharacteristics>
                    <samplerate>24000</samplerate>
                    <samplesize>16</samplesize>
                  </samplecharacteristics>
                </audio>
              </media>
            </file>
            <sourcetrack>
              <mediatype>audio</mediatype>
              <trackindex>1</trackindex>
            </sourcetrack>
          </clipitem>
          <clipitem id="clipitem-65">
            <name>OrionEp11_065.mp3</name>
            <enabled>TRUE</enabled>
            <duration>218</duration>
            <rate>
              <timebase>30</timebase>
              <ntsc>TRUE</ntsc>
            </rate>
            <start>12058</start>
            <end>12276</end>
            <in>0</in>
            <out>174024</out>
            <file id="file-65">
              <name>OrionEp11_065.mp3</name>
              <pathurl>file:///Users/hiroshikodera/repos/_active/tools/davinciauto/prototype/orion-v2/projects/OrionEp11/output/audio/OrionEp11_065.mp3</pathurl>
              <rate>
                <timebase>24000</timebase>
                <ntsc>FALSE</ntsc>
              </rate>
              <media>
                <audio>
                  <channelcount>1</channelcount>
                  <samplecharacteristics>
                    <samplerate>24000</samplerate>
                    <samplesize>16</samplesize>
                  </samplecharacteristics>
                </audio>
              </media>
            </file>
            <sourcetrack>
              <mediatype>audio</mediatype>
              <trackindex>1</trackindex>
            </sourcetrack>
          </clipitem>
          <clipitem id="clipitem-66">
            <name>OrionEp11_066.mp3</name>
            <enabled>TRUE</enabled>
            <duration>154</duration>
            <rate>
              <timebase>30</timebase>
              <ntsc>TRUE</ntsc>
            </rate>
            <start>12275</start>
            <end>12429</end>
            <in>0</in>
            <out>123144</out>
            <file id="file-66">
              <name>OrionEp11_066.mp3</name>
              <pathurl>file:///Users/hiroshikodera/repos/_active/tools/davinciauto/prototype/orion-v2/projects/OrionEp11/output/audio/OrionEp11_066.mp3</pathurl>
              <rate>
                <timebase>24000</timebase>
                <ntsc>FALSE</ntsc>
              </rate>
              <media>
                <audio>
                  <channelcount>1</channelcount>
                  <samplecharacteristics>
                    <samplerate>24000</samplerate>
                    <samplesize>16</samplesize>
                  </samplecharacteristics>
                </audio>
              </media>
            </file>
            <sourcetrack>
              <mediatype>audio</mediatype>
              <trackindex>1</trackindex>
            </sourcetrack>
          </clipitem>
          <clipitem id="clipitem-67">
            <name>OrionEp11_067.mp3</name>
            <enabled>TRUE</enabled>
            <duration>206</duration>
            <rate>
              <timebase>30</timebase>
              <ntsc>TRUE</ntsc>
            </rate>
            <start>12429</start>
            <end>12635</end>
            <in>0</in>
            <out>164424</out>
            <file id="file-67">
              <name>OrionEp11_067.mp3</name>
              <pathurl>file:///Users/hiroshikodera/repos/_active/tools/davinciauto/prototype/orion-v2/projects/OrionEp11/output/audio/OrionEp11_067.mp3</pathurl>
              <rate>
                <timebase>24000</timebase>
                <ntsc>FALSE</ntsc>
              </rate>
              <media>
                <audio>
                  <channelcount>1</channelcount>
                  <samplecharacteristics>
                    <samplerate>24000</samplerate>
                    <samplesize>16</samplesize>
                  </samplecharacteristics>
                </audio>
              </media>
            </file>
            <sourcetrack>
              <mediatype>audio</mediatype>
              <trackindex>1</trackindex>
            </sourcetrack>
          </clipitem>
          <clipitem id="clipitem-68">
            <name>OrionEp11_068.mp3</name>
            <enabled>TRUE</enabled>
            <duration>130</duration>
            <rate>
              <timebase>30</timebase>
              <ntsc>TRUE</ntsc>
            </rate>
            <start>12635</start>
            <end>12765</end>
            <in>0</in>
            <out>103944</out>
            <file id="file-68">
              <name>OrionEp11_068.mp3</name>
              <pathurl>file:///Users/hiroshikodera/repos/_active/tools/davinciauto/prototype/orion-v2/projects/OrionEp11/output/audio/OrionEp11_068.mp3</pathurl>
              <rate>
                <timebase>24000</timebase>
                <ntsc>FALSE</ntsc>
              </rate>
              <media>
                <audio>
                  <channelcount>1</channelcount>
                  <samplecharacteristics>
                    <samplerate>24000</samplerate>
                    <samplesize>16</samplesize>
                  </samplecharacteristics>
                </audio>
              </media>
            </file>
            <sourcetrack>
              <mediatype>audio</mediatype>
              <trackindex>1</trackindex>
            </sourcetrack>
          </clipitem>
          <clipitem id="clipitem-69">
            <name>OrionEp11_069.mp3</name>
            <enabled>TRUE</enabled>
            <duration>124</duration>
            <rate>
              <timebase>30</timebase>
              <ntsc>TRUE</ntsc>
            </rate>
            <start>12765</start>
            <end>12889</end>
            <in>0</in>
            <out>99144</out>
            <file id="file-69">
              <name>OrionEp11_069.mp3</name>
              <pathurl>file:///Users/hiroshikodera/repos/_active/tools/davinciauto/prototype/orion-v2/projects/OrionEp11/output/audio/OrionEp11_069.mp3</pathurl>
              <rate>
                <timebase>24000</timebase>
                <ntsc>FALSE</ntsc>
              </rate>
              <media>
                <audio>
                  <channelcount>1</channelcount>
                  <samplecharacteristics>
                    <samplerate>24000</samplerate>
                    <samplesize>16</samplesize>
                  </samplecharacteristics>
                </audio>
              </media>
            </file>
            <sourcetrack>
              <mediatype>audio</mediatype>
              <trackindex>1</trackindex>
            </sourcetrack>
          </clipitem>
          <clipitem id="clipitem-70">
            <name>OrionEp11_070.mp3</name>
            <enabled>TRUE</enabled>
            <duration>138</duration>
            <rate>
              <timebase>30</timebase>
              <ntsc>TRUE</ntsc>
            </rate>
            <start>12889</start>
            <end>13027</end>
            <in>0</in>
            <out>110664</out>
            <file id="file-70">
              <name>OrionEp11_070.mp3</name>
              <pathurl>file:///Users/hiroshikodera/repos/_active/tools/davinciauto/prototype/orion-v2/projects/OrionEp11/output/audio/OrionEp11_070.mp3</pathurl>
              <rate>
                <timebase>24000</timebase>
                <ntsc>FALSE</ntsc>
              </rate>
              <media>
                <audio>
                  <channelcount>1</channelcount>
                  <samplecharacteristics>
                    <samplerate>24000</samplerate>
                    <samplesize>16</samplesize>
                  </samplecharacteristics>
                </audio>
              </media>
            </file>
            <sourcetrack>
              <mediatype>audio</mediatype>
              <trackindex>1</trackindex>
            </sourcetrack>
          </clipitem>
          <clipitem id="clipitem-71">
            <name>OrionEp11_071.mp3</name>
            <enabled>TRUE</enabled>
            <duration>141</duration>
            <rate>
              <timebase>30</timebase>
              <ntsc>TRUE</ntsc>
            </rate>
            <start>13027</start>
            <end>13168</end>
            <in>0</in>
            <out>112584</out>
            <file id="file-71">
              <name>OrionEp11_071.mp3</name>
              <pathurl>file:///Users/hiroshikodera/repos/_active/tools/davinciauto/prototype/orion-v2/projects/OrionEp11/output/audio/OrionEp11_071.mp3</pathurl>
              <rate>
                <timebase>24000</timebase>
                <ntsc>FALSE</ntsc>
              </rate>
              <media>
                <audio>
                  <channelcount>1</channelcount>
                  <samplecharacteristics>
                    <samplerate>24000</samplerate>
                    <samplesize>16</samplesize>
                  </samplecharacteristics>
                </audio>
              </media>
            </file>
            <sourcetrack>
              <mediatype>audio</mediatype>
              <trackindex>1</trackindex>
            </sourcetrack>
          </clipitem>
          <clipitem id="clipitem-72">
            <name>OrionEp11_072.mp3</name>
            <enabled>TRUE</enabled>
            <duration>234</duration>
            <rate>
              <timebase>30</timebase>
              <ntsc>TRUE</ntsc>
            </rate>
            <start>13168</start>
            <end>13402</end>
            <in>0</in>
            <out>187464</out>
            <file id="file-72">
              <name>OrionEp11_072.mp3</name>
              <pathurl>file:///Users/hiroshikodera/repos/_active/tools/davinciauto/prototype/orion-v2/projects/OrionEp11/output/audio/OrionEp11_072.mp3</pathurl>
              <rate>
                <timebase>24000</timebase>
                <ntsc>FALSE</ntsc>
              </rate>
              <media>
                <audio>
                  <channelcount>1</channelcount>
                  <samplecharacteristics>
                    <samplerate>24000</samplerate>
                    <samplesize>16</samplesize>
                  </samplecharacteristics>
                </audio>
              </media>
            </file>
            <sourcetrack>
              <mediatype>audio</mediatype>
              <trackindex>1</trackindex>
            </sourcetrack>
          </clipitem>
          <clipitem id="clipitem-73">
            <name>OrionEp11_073.mp3</name>
            <enabled>TRUE</enabled>
            <duration>177</duration>
            <rate>
              <timebase>30</timebase>
              <ntsc>TRUE</ntsc>
            </rate>
            <start>13402</start>
            <end>13579</end>
            <in>0</in>
            <out>141384</out>
            <file id="file-73">
              <name>OrionEp11_073.mp3</name>
              <pathurl>file:///Users/hiroshikodera/repos/_active/tools/davinciauto/prototype/orion-v2/projects/OrionEp11/output/audio/OrionEp11_073.mp3</pathurl>
              <rate>
                <timebase>24000</timebase>
                <ntsc>FALSE</ntsc>
              </rate>
              <media>
                <audio>
                  <channelcount>1</channelcount>
                  <samplecharacteristics>
                    <samplerate>24000</samplerate>
                    <samplesize>16</samplesize>
                  </samplecharacteristics>
                </audio>
              </media>
            </file>
            <sourcetrack>
              <mediatype>audio</mediatype>
              <trackindex>1</trackindex>
            </sourcetrack>
          </clipitem>
          <clipitem id="clipitem-74">
            <name>OrionEp11_074.mp3</name>
            <enabled>TRUE</enabled>
            <duration>132</duration>
            <rate>
              <timebase>30</timebase>
              <ntsc>TRUE</ntsc>
            </rate>
            <start>13580</start>
            <end>13712</end>
            <in>0</in>
            <out>105864</out>
            <file id="file-74">
              <name>OrionEp11_074.mp3</name>
              <pathurl>file:///Users/hiroshikodera/repos/_active/tools/davinciauto/prototype/orion-v2/projects/OrionEp11/output/audio/OrionEp11_074.mp3</pathurl>
              <rate>
                <timebase>24000</timebase>
                <ntsc>FALSE</ntsc>
              </rate>
              <media>
                <audio>
                  <channelcount>1</channelcount>
                  <samplecharacteristics>
                    <samplerate>24000</samplerate>
                    <samplesize>16</samplesize>
                  </samplecharacteristics>
                </audio>
              </media>
            </file>
            <sourcetrack>
              <mediatype>audio</mediatype>
              <trackindex>1</trackindex>
            </sourcetrack>
          </clipitem>
          <clipitem id="clipitem-75">
            <name>OrionEp11_075.mp3</name>
            <enabled>TRUE</enabled>
            <duration>144</duration>
            <rate>
              <timebase>30</timebase>
              <ntsc>TRUE</ntsc>
            </rate>
            <start>13712</start>
            <end>13856</end>
            <in>0</in>
            <out>115464</out>
            <file id="file-75">
              <name>OrionEp11_075.mp3</name>
              <pathurl>file:///Users/hiroshikodera/repos/_active/tools/davinciauto/prototype/orion-v2/projects/OrionEp11/output/audio/OrionEp11_075.mp3</pathurl>
              <rate>
                <timebase>24000</timebase>
                <ntsc>FALSE</ntsc>
              </rate>
              <media>
                <audio>
                  <channelcount>1</channelcount>
                  <samplecharacteristics>
                    <samplerate>24000</samplerate>
                    <samplesize>16</samplesize>
                  </samplecharacteristics>
                </audio>
              </media>
            </file>
            <sourcetrack>
              <mediatype>audio</mediatype>
              <trackindex>1</trackindex>
            </sourcetrack>
          </clipitem>
          <clipitem id="clipitem-76">
            <name>OrionEp11_076.mp3</name>
            <enabled>TRUE</enabled>
            <duration>230</duration>
            <rate>
              <timebase>30</timebase>
              <ntsc>TRUE</ntsc>
            </rate>
            <start>13856</start>
            <end>14086</end>
            <in>0</in>
            <out>183624</out>
            <file id="file-76">
              <name>OrionEp11_076.mp3</name>
              <pathurl>file:///Users/hiroshikodera/repos/_active/tools/davinciauto/prototype/orion-v2/projects/OrionEp11/output/audio/OrionEp11_076.mp3</pathurl>
              <rate>
                <timebase>24000</timebase>
                <ntsc>FALSE</ntsc>
              </rate>
              <media>
                <audio>
                  <channelcount>1</channelcount>
                  <samplecharacteristics>
                    <samplerate>24000</samplerate>
                    <samplesize>16</samplesize>
                  </samplecharacteristics>
                </audio>
              </media>
            </file>
            <sourcetrack>
              <mediatype>audio</mediatype>
              <trackindex>1</trackindex>
            </sourcetrack>
          </clipitem>
          <clipitem id="clipitem-77">
            <name>OrionEp11_077.mp3</name>
            <enabled>TRUE</enabled>
            <duration>125</duration>
            <rate>
              <timebase>30</timebase>
              <ntsc>TRUE</ntsc>
            </rate>
            <start>14085</start>
            <end>14210</end>
            <in>0</in>
            <out>100104</out>
            <file id="file-77">
              <name>OrionEp11_077.mp3</name>
              <pathurl>file:///Users/hiroshikodera/repos/_active/tools/davinciauto/prototype/orion-v2/projects/OrionEp11/output/audio/OrionEp11_077.mp3</pathurl>
              <rate>
                <timebase>24000</timebase>
                <ntsc>FALSE</ntsc>
              </rate>
              <media>
                <audio>
                  <channelcount>1</channelcount>
                  <samplecharacteristics>
                    <samplerate>24000</samplerate>
                    <samplesize>16</samplesize>
                  </samplecharacteristics>
                </audio>
              </media>
            </file>
            <sourcetrack>
              <mediatype>audio</mediatype>
              <trackindex>1</trackindex>
            </sourcetrack>
          </clipitem>
          <clipitem id="clipitem-78">
            <name>OrionEp11_078.mp3</name>
            <enabled>TRUE</enabled>
            <duration>176</duration>
            <rate>
              <timebase>30</timebase>
              <ntsc>TRUE</ntsc>
            </rate>
            <start>14210</start>
            <end>14386</end>
            <in>0</in>
            <out>140424</out>
            <file id="file-78">
              <name>OrionEp11_078.mp3</name>
              <pathurl>file:///Users/hiroshikodera/repos/_active/tools/davinciauto/prototype/orion-v2/projects/OrionEp11/output/audio/OrionEp11_078.mp3</pathurl>
              <rate>
                <timebase>24000</timebase>
                <ntsc>FALSE</ntsc>
              </rate>
              <media>
                <audio>
                  <channelcount>1</channelcount>
                  <samplecharacteristics>
                    <samplerate>24000</samplerate>
                    <samplesize>16</samplesize>
                  </samplecharacteristics>
                </audio>
              </media>
            </file>
            <sourcetrack>
              <mediatype>audio</mediatype>
              <trackindex>1</trackindex>
            </sourcetrack>
          </clipitem>
          <clipitem id="clipitem-79">
            <name>OrionEp11_079.mp3</name>
            <enabled>TRUE</enabled>
            <duration>150</duration>
            <rate>
              <timebase>30</timebase>
              <ntsc>TRUE</ntsc>
            </rate>
            <start>14385</start>
            <end>14535</end>
            <in>0</in>
            <out>120264</out>
            <file id="file-79">
              <name>OrionEp11_079.mp3</name>
              <pathurl>file:///Users/hiroshikodera/repos/_active/tools/davinciauto/prototype/orion-v2/projects/OrionEp11/output/audio/OrionEp11_079.mp3</pathurl>
              <rate>
                <timebase>24000</timebase>
                <ntsc>FALSE</ntsc>
              </rate>
              <media>
                <audio>
                  <channelcount>1</channelcount>
                  <samplecharacteristics>
                    <samplerate>24000</samplerate>
                    <samplesize>16</samplesize>
                  </samplecharacteristics>
                </audio>
              </media>
            </file>
            <sourcetrack>
              <mediatype>audio</mediatype>
              <trackindex>1</trackindex>
            </sourcetrack>
          </clipitem>
          <clipitem id="clipitem-80">
            <name>OrionEp11_080.mp3</name>
            <enabled>TRUE</enabled>
            <duration>147</duration>
            <rate>
              <timebase>30</timebase>
              <ntsc>TRUE</ntsc>
            </rate>
            <start>14536</start>
            <end>14683</end>
            <in>0</in>
            <out>117384</out>
            <file id="file-80">
              <name>OrionEp11_080.mp3</name>
              <pathurl>file:///Users/hiroshikodera/repos/_active/tools/davinciauto/prototype/orion-v2/projects/OrionEp11/output/audio/OrionEp11_080.mp3</pathurl>
              <rate>
                <timebase>24000</timebase>
                <ntsc>FALSE</ntsc>
              </rate>
              <media>
                <audio>
                  <channelcount>1</channelcount>
                  <samplecharacteristics>
                    <samplerate>24000</samplerate>
                    <samplesize>16</samplesize>
                  </samplecharacteristics>
                </audio>
              </media>
            </file>
            <sourcetrack>
              <mediatype>audio</mediatype>
              <trackindex>1</trackindex>
            </sourcetrack>
          </clipitem>
          <clipitem id="clipitem-81">
            <name>OrionEp11_081.mp3</name>
            <enabled>TRUE</enabled>
            <duration>122</duration>
            <rate>
              <timebase>30</timebase>
              <ntsc>TRUE</ntsc>
            </rate>
            <start>14683</start>
            <end>14805</end>
            <in>0</in>
            <out>97224</out>
            <file id="file-81">
              <name>OrionEp11_081.mp3</name>
              <pathurl>file:///Users/hiroshikodera/repos/_active/tools/davinciauto/prototype/orion-v2/projects/OrionEp11/output/audio/OrionEp11_081.mp3</pathurl>
              <rate>
                <timebase>24000</timebase>
                <ntsc>FALSE</ntsc>
              </rate>
              <media>
                <audio>
                  <channelcount>1</channelcount>
                  <samplecharacteristics>
                    <samplerate>24000</samplerate>
                    <samplesize>16</samplesize>
                  </samplecharacteristics>
                </audio>
              </media>
            </file>
            <sourcetrack>
              <mediatype>audio</mediatype>
              <trackindex>1</trackindex>
            </sourcetrack>
          </clipitem>
          <clipitem id="clipitem-82">
            <name>OrionEp11_082.mp3</name>
            <enabled>TRUE</enabled>
            <duration>224</duration>
            <rate>
              <timebase>30</timebase>
              <ntsc>TRUE</ntsc>
            </rate>
            <start>14804</start>
            <end>15028</end>
            <in>0</in>
            <out>178824</out>
            <file id="file-82">
              <name>OrionEp11_082.mp3</name>
              <pathurl>file:///Users/hiroshikodera/repos/_active/tools/davinciauto/prototype/orion-v2/projects/OrionEp11/output/audio/OrionEp11_082.mp3</pathurl>
              <rate>
                <timebase>24000</timebase>
                <ntsc>FALSE</ntsc>
              </rate>
              <media>
                <audio>
                  <channelcount>1</channelcount>
                  <samplecharacteristics>
                    <samplerate>24000</samplerate>
                    <samplesize>16</samplesize>
                  </samplecharacteristics>
                </audio>
              </media>
            </file>
            <sourcetrack>
              <mediatype>audio</mediatype>
              <trackindex>1</trackindex>
            </sourcetrack>
          </clipitem>
          <clipitem id="clipitem-83">
            <name>OrionEp11_083.mp3</name>
            <enabled>TRUE</enabled>
            <duration>206</duration>
            <rate>
              <timebase>30</timebase>
              <ntsc>TRUE</ntsc>
            </rate>
            <start>15027</start>
            <end>15233</end>
            <in>0</in>
            <out>164424</out>
            <file id="file-83">
              <name>OrionEp11_083.mp3</name>
              <pathurl>file:///Users/hiroshikodera/repos/_active/tools/davinciauto/prototype/orion-v2/projects/OrionEp11/output/audio/OrionEp11_083.mp3</pathurl>
              <rate>
                <timebase>24000</timebase>
                <ntsc>FALSE</ntsc>
              </rate>
              <media>
                <audio>
                  <channelcount>1</channelcount>
                  <samplecharacteristics>
                    <samplerate>24000</samplerate>
                    <samplesize>16</samplesize>
                  </samplecharacteristics>
                </audio>
              </media>
            </file>
            <sourcetrack>
              <mediatype>audio</mediatype>
              <trackindex>1</trackindex>
            </sourcetrack>
          </clipitem>
          <clipitem id="clipitem-84">
            <name>OrionEp11_084.mp3</name>
            <enabled>TRUE</enabled>
            <duration>146</duration>
            <rate>
              <timebase>30</timebase>
              <ntsc>TRUE</ntsc>
            </rate>
            <start>15232</start>
            <end>15378</end>
            <in>0</in>
            <out>116424</out>
            <file id="file-84">
              <name>OrionEp11_084.mp3</name>
              <pathurl>file:///Users/hiroshikodera/repos/_active/tools/davinciauto/prototype/orion-v2/projects/OrionEp11/output/audio/OrionEp11_084.mp3</pathurl>
              <rate>
                <timebase>24000</timebase>
                <ntsc>FALSE</ntsc>
              </rate>
              <media>
                <audio>
                  <channelcount>1</channelcount>
                  <samplecharacteristics>
                    <samplerate>24000</samplerate>
                    <samplesize>16</samplesize>
                  </samplecharacteristics>
                </audio>
              </media>
            </file>
            <sourcetrack>
              <mediatype>audio</mediatype>
              <trackindex>1</trackindex>
            </sourcetrack>
          </clipitem>
          <clipitem id="clipitem-85">
            <name>OrionEp11_085.mp3</name>
            <enabled>TRUE</enabled>
            <duration>203</duration>
            <rate>
              <timebase>30</timebase>
              <ntsc>TRUE</ntsc>
            </rate>
            <start>15377</start>
            <end>15580</end>
            <in>0</in>
            <out>162504</out>
            <file id="file-85">
              <name>OrionEp11_085.mp3</name>
              <pathurl>file:///Users/hiroshikodera/repos/_active/tools/davinciauto/prototype/orion-v2/projects/OrionEp11/output/audio/OrionEp11_085.mp3</pathurl>
              <rate>
                <timebase>24000</timebase>
                <ntsc>FALSE</ntsc>
              </rate>
              <media>
                <audio>
                  <channelcount>1</channelcount>
                  <samplecharacteristics>
                    <samplerate>24000</samplerate>
                    <samplesize>16</samplesize>
                  </samplecharacteristics>
                </audio>
              </media>
            </file>
            <sourcetrack>
              <mediatype>audio</mediatype>
              <trackindex>1</trackindex>
            </sourcetrack>
          </clipitem>
        </track>
      </audio>
    </media>
  </sequence>
</xmeml>
