<?xml version="1.0" encoding="utf-8"?>
<xmeml version="4">
  <sequence>
    <uuid>OrionEp11_timeline</uuid>
    <duration>18692</duration>
    <name>OrionEp11_timeline</name>
    <rate>
      <timebase>30</timebase>
      <ntsc>TRUE</ntsc>
    </rate>
    <media>
      <video>
        <format/>
      </video>
      <audio>
        <track>
          <clipitem id="clipitem-1">
            <name>OrionEp11-001-NA.mp3</name>
            <enabled>TRUE</enabled>
            <duration>152</duration>
            <rate>
              <timebase>30</timebase>
              <ntsc>TRUE</ntsc>
            </rate>
            <start>15</start>
            <end>167</end>
            <in>0</in>
            <out>152</out>
            <file id="file-2">
              <name>OrionEp11-001-NA.mp3</name>
              <pathurl>file:///Users/hiroshikodera/repos/_active/tools/davinciauto/projects/OrionEp11/%E3%82%B5%E3%82%A6%E3%83%B3%E3%83%89%E9%A1%9E/Narration/OrionEp11-001-NA.mp3</pathurl>
              <rate>
                <timebase>44100</timebase>
                <ntsc>FALSE</ntsc>
              </rate>
              <media>
                <audio>
                  <channelcount>1</channelcount>
                  <samplecharacteristics>
                    <samplerate>44100</samplerate>
                    <samplesize>16</samplesize>
                  </samplecharacteristics>
                </audio>
              </media>
            </file>
            <sourcetrack>
              <mediatype>audio</mediatype>
              <trackindex>1</trackindex>
            </sourcetrack>
          </clipitem>
          <clipitem id="clipitem-2">
            <name>OrionEp11-002-NA.mp3</name>
            <enabled>TRUE</enabled>
            <duration>194</duration>
            <rate>
              <timebase>30</timebase>
              <ntsc>TRUE</ntsc>
            </rate>
            <start>189</start>
            <end>383</end>
            <in>0</in>
            <out>194</out>
            <file id="file-3">
              <name>OrionEp11-002-NA.mp3</name>
              <pathurl>file:///Users/hiroshikodera/repos/_active/tools/davinciauto/projects/OrionEp11/%E3%82%B5%E3%82%A6%E3%83%B3%E3%83%89%E9%A1%9E/Narration/OrionEp11-002-NA.mp3</pathurl>
              <rate>
                <timebase>44100</timebase>
                <ntsc>FALSE</ntsc>
              </rate>
              <media>
                <audio>
                  <channelcount>1</channelcount>
                  <samplecharacteristics>
                    <samplerate>44100</samplerate>
                    <samplesize>16</samplesize>
                  </samplecharacteristics>
                </audio>
              </media>
            </file>
            <sourcetrack>
              <mediatype>audio</mediatype>
              <trackindex>1</trackindex>
            </sourcetrack>
          </clipitem>
          <clipitem id="clipitem-3">
            <name>OrionEp11-003-NA.mp3</name>
            <enabled>TRUE</enabled>
            <duration>346</duration>
            <rate>
              <timebase>30</timebase>
              <ntsc>TRUE</ntsc>
            </rate>
            <start>406</start>
            <end>752</end>
            <in>0</in>
            <out>346</out>
            <file id="file-4">
              <name>OrionEp11-003-NA.mp3</name>
              <pathurl>file:///Users/hiroshikodera/repos/_active/tools/davinciauto/projects/OrionEp11/%E3%82%B5%E3%82%A6%E3%83%B3%E3%83%89%E9%A1%9E/Narration/OrionEp11-003-NA.mp3</pathurl>
              <rate>
                <timebase>44100</timebase>
                <ntsc>FALSE</ntsc>
              </rate>
              <media>
                <audio>
                  <channelcount>1</channelcount>
                  <samplecharacteristics>
                    <samplerate>44100</samplerate>
                    <samplesize>16</samplesize>
                  </samplecharacteristics>
                </audio>
              </media>
            </file>
            <sourcetrack>
              <mediatype>audio</mediatype>
              <trackindex>1</trackindex>
            </sourcetrack>
          </clipitem>
          <clipitem id="clipitem-4">
            <name>OrionEp11-004-NA.mp3</name>
            <enabled>TRUE</enabled>
            <duration>320</duration>
            <rate>
              <timebase>30</timebase>
              <ntsc>TRUE</ntsc>
            </rate>
            <start>769</start>
            <end>1089</end>
            <in>0</in>
            <out>320</out>
            <file id="file-5">
              <name>OrionEp11-004-NA.mp3</name>
              <pathurl>file:///Users/hiroshikodera/repos/_active/tools/davinciauto/projects/OrionEp11/%E3%82%B5%E3%82%A6%E3%83%B3%E3%83%89%E9%A1%9E/Narration/OrionEp11-004-NA.mp3</pathurl>
              <rate>
                <timebase>44100</timebase>
                <ntsc>FALSE</ntsc>
              </rate>
              <media>
                <audio>
                  <channelcount>1</channelcount>
                  <samplecharacteristics>
                    <samplerate>44100</samplerate>
                    <samplesize>16</samplesize>
                  </samplecharacteristics>
                </audio>
              </media>
            </file>
            <sourcetrack>
              <mediatype>audio</mediatype>
              <trackindex>1</trackindex>
            </sourcetrack>
          </clipitem>
          <clipitem id="clipitem-5">
            <name>OrionEp11-005-NA.mp3</name>
            <enabled>TRUE</enabled>
            <duration>171</duration>
            <rate>
              <timebase>30</timebase>
              <ntsc>TRUE</ntsc>
            </rate>
            <start>1105</start>
            <end>1276</end>
            <in>0</in>
            <out>171</out>
            <file id="file-6">
              <name>OrionEp11-005-NA.mp3</name>
              <pathurl>file:///Users/hiroshikodera/repos/_active/tools/davinciauto/projects/OrionEp11/%E3%82%B5%E3%82%A6%E3%83%B3%E3%83%89%E9%A1%9E/Narration/OrionEp11-005-NA.mp3</pathurl>
              <rate>
                <timebase>44100</timebase>
                <ntsc>FALSE</ntsc>
              </rate>
              <media>
                <audio>
                  <channelcount>1</channelcount>
                  <samplecharacteristics>
                    <samplerate>44100</samplerate>
                    <samplesize>16</samplesize>
                  </samplecharacteristics>
                </audio>
              </media>
            </file>
            <sourcetrack>
              <mediatype>audio</mediatype>
              <trackindex>1</trackindex>
            </sourcetrack>
          </clipitem>
          <clipitem id="clipitem-6">
            <name>OrionEp11-006-NA.mp3</name>
            <enabled>TRUE</enabled>
            <duration>207</duration>
            <rate>
              <timebase>30</timebase>
              <ntsc>TRUE</ntsc>
            </rate>
            <start>1290</start>
            <end>1497</end>
            <in>0</in>
            <out>207</out>
            <file id="file-7">
              <name>OrionEp11-006-NA.mp3</name>
              <pathurl>file:///Users/hiroshikodera/repos/_active/tools/davinciauto/projects/OrionEp11/%E3%82%B5%E3%82%A6%E3%83%B3%E3%83%89%E9%A1%9E/Narration/OrionEp11-006-NA.mp3</pathurl>
              <rate>
                <timebase>44100</timebase>
                <ntsc>FALSE</ntsc>
              </rate>
              <media>
                <audio>
                  <channelcount>1</channelcount>
                  <samplecharacteristics>
                    <samplerate>44100</samplerate>
                    <samplesize>16</samplesize>
                  </samplecharacteristics>
                </audio>
              </media>
            </file>
            <sourcetrack>
              <mediatype>audio</mediatype>
              <trackindex>1</trackindex>
            </sourcetrack>
          </clipitem>
          <clipitem id="clipitem-7">
            <name>OrionEp11-007-NA.mp3</name>
            <enabled>TRUE</enabled>
            <duration>222</duration>
            <rate>
              <timebase>30</timebase>
              <ntsc>TRUE</ntsc>
            </rate>
            <start>1512</start>
            <end>1734</end>
            <in>0</in>
            <out>222</out>
            <file id="file-8">
              <name>OrionEp11-007-NA.mp3</name>
              <pathurl>file:///Users/hiroshikodera/repos/_active/tools/davinciauto/projects/OrionEp11/%E3%82%B5%E3%82%A6%E3%83%B3%E3%83%89%E9%A1%9E/Narration/OrionEp11-007-NA.mp3</pathurl>
              <rate>
                <timebase>44100</timebase>
                <ntsc>FALSE</ntsc>
              </rate>
              <media>
                <audio>
                  <channelcount>1</channelcount>
                  <samplecharacteristics>
                    <samplerate>44100</samplerate>
                    <samplesize>16</samplesize>
                  </samplecharacteristics>
                </audio>
              </media>
            </file>
            <sourcetrack>
              <mediatype>audio</mediatype>
              <trackindex>1</trackindex>
            </sourcetrack>
          </clipitem>
          <clipitem id="clipitem-8">
            <name>OrionEp11-008-NA.mp3</name>
            <enabled>TRUE</enabled>
            <duration>97</duration>
            <rate>
              <timebase>30</timebase>
              <ntsc>TRUE</ntsc>
            </rate>
            <start>1750</start>
            <end>1847</end>
            <in>0</in>
            <out>97</out>
            <file id="file-9">
              <name>OrionEp11-008-NA.mp3</name>
              <pathurl>file:///Users/hiroshikodera/repos/_active/tools/davinciauto/projects/OrionEp11/%E3%82%B5%E3%82%A6%E3%83%B3%E3%83%89%E9%A1%9E/Narration/OrionEp11-008-NA.mp3</pathurl>
              <rate>
                <timebase>44100</timebase>
                <ntsc>FALSE</ntsc>
              </rate>
              <media>
                <audio>
                  <channelcount>1</channelcount>
                  <samplecharacteristics>
                    <samplerate>44100</samplerate>
                    <samplesize>16</samplesize>
                  </samplecharacteristics>
                </audio>
              </media>
            </file>
            <sourcetrack>
              <mediatype>audio</mediatype>
              <trackindex>1</trackindex>
            </sourcetrack>
          </clipitem>
          <clipitem id="clipitem-9">
            <name>OrionEp11-009-NA.mp3</name>
            <enabled>TRUE</enabled>
            <duration>430</duration>
            <rate>
              <timebase>30</timebase>
              <ntsc>TRUE</ntsc>
            </rate>
            <start>1859</start>
            <end>2289</end>
            <in>0</in>
            <out>430</out>
            <file id="file-10">
              <name>OrionEp11-009-NA.mp3</name>
              <pathurl>file:///Users/hiroshikodera/repos/_active/tools/davinciauto/projects/OrionEp11/%E3%82%B5%E3%82%A6%E3%83%B3%E3%83%89%E9%A1%9E/Narration/OrionEp11-009-NA.mp3</pathurl>
              <rate>
                <timebase>44100</timebase>
                <ntsc>FALSE</ntsc>
              </rate>
              <media>
                <audio>
                  <channelcount>1</channelcount>
                  <samplecharacteristics>
                    <samplerate>44100</samplerate>
                    <samplesize>16</samplesize>
                  </samplecharacteristics>
                </audio>
              </media>
            </file>
            <sourcetrack>
              <mediatype>audio</mediatype>
              <trackindex>1</trackindex>
            </sourcetrack>
          </clipitem>
          <clipitem id="clipitem-10">
            <name>OrionEp11-010-NA.mp3</name>
            <enabled>TRUE</enabled>
            <duration>319</duration>
            <rate>
              <timebase>30</timebase>
              <ntsc>TRUE</ntsc>
            </rate>
            <start>2309</start>
            <end>2628</end>
            <in>0</in>
            <out>319</out>
            <file id="file-11">
              <name>OrionEp11-010-NA.mp3</name>
              <pathurl>file:///Users/hiroshikodera/repos/_active/tools/davinciauto/projects/OrionEp11/%E3%82%B5%E3%82%A6%E3%83%B3%E3%83%89%E9%A1%9E/Narration/OrionEp11-010-NA.mp3</pathurl>
              <rate>
                <timebase>44100</timebase>
                <ntsc>FALSE</ntsc>
              </rate>
              <media>
                <audio>
                  <channelcount>1</channelcount>
                  <samplecharacteristics>
                    <samplerate>44100</samplerate>
                    <samplesize>16</samplesize>
                  </samplecharacteristics>
                </audio>
              </media>
            </file>
            <sourcetrack>
              <mediatype>audio</mediatype>
              <trackindex>1</trackindex>
            </sourcetrack>
          </clipitem>
          <clipitem id="clipitem-11">
            <name>OrionEp11-011-NA.mp3</name>
            <enabled>TRUE</enabled>
            <duration>139</duration>
            <rate>
              <timebase>30</timebase>
              <ntsc>TRUE</ntsc>
            </rate>
            <start>2644</start>
            <end>2783</end>
            <in>0</in>
            <out>139</out>
            <file id="file-12">
              <name>OrionEp11-011-NA.mp3</name>
              <pathurl>file:///Users/hiroshikodera/repos/_active/tools/davinciauto/projects/OrionEp11/%E3%82%B5%E3%82%A6%E3%83%B3%E3%83%89%E9%A1%9E/Narration/OrionEp11-011-NA.mp3</pathurl>
              <rate>
                <timebase>44100</timebase>
                <ntsc>FALSE</ntsc>
              </rate>
              <media>
                <audio>
                  <channelcount>1</channelcount>
                  <samplecharacteristics>
                    <samplerate>44100</samplerate>
                    <samplesize>16</samplesize>
                  </samplecharacteristics>
                </audio>
              </media>
            </file>
            <sourcetrack>
              <mediatype>audio</mediatype>
              <trackindex>1</trackindex>
            </sourcetrack>
          </clipitem>
          <clipitem id="clipitem-12">
            <name>OrionEp11-012-DL.mp3</name>
            <enabled>TRUE</enabled>
            <duration>199</duration>
            <rate>
              <timebase>30</timebase>
              <ntsc>TRUE</ntsc>
            </rate>
            <start>2795</start>
            <end>2994</end>
            <in>0</in>
            <out>199</out>
            <file id="file-13">
              <name>OrionEp11-012-DL.mp3</name>
              <pathurl>file:///Users/hiroshikodera/repos/_active/tools/davinciauto/projects/OrionEp11/%E3%82%B5%E3%82%A6%E3%83%B3%E3%83%89%E9%A1%9E/Narration/OrionEp11-012-DL.mp3</pathurl>
              <rate>
                <timebase>44100</timebase>
                <ntsc>FALSE</ntsc>
              </rate>
              <media>
                <audio>
                  <channelcount>1</channelcount>
                  <samplecharacteristics>
                    <samplerate>44100</samplerate>
                    <samplesize>16</samplesize>
                  </samplecharacteristics>
                </audio>
              </media>
            </file>
            <sourcetrack>
              <mediatype>audio</mediatype>
              <trackindex>1</trackindex>
            </sourcetrack>
          </clipitem>
          <clipitem id="clipitem-13">
            <name>OrionEp11-013-NA.mp3</name>
            <enabled>TRUE</enabled>
            <duration>222</duration>
            <rate>
              <timebase>30</timebase>
              <ntsc>TRUE</ntsc>
            </rate>
            <start>3025</start>
            <end>3247</end>
            <in>0</in>
            <out>222</out>
            <file id="file-14">
              <name>OrionEp11-013-NA.mp3</name>
              <pathurl>file:///Users/hiroshikodera/repos/_active/tools/davinciauto/projects/OrionEp11/%E3%82%B5%E3%82%A6%E3%83%B3%E3%83%89%E9%A1%9E/Narration/OrionEp11-013-NA.mp3</pathurl>
              <rate>
                <timebase>44100</timebase>
                <ntsc>FALSE</ntsc>
              </rate>
              <media>
                <audio>
                  <channelcount>1</channelcount>
                  <samplecharacteristics>
                    <samplerate>44100</samplerate>
                    <samplesize>16</samplesize>
                  </samplecharacteristics>
                </audio>
              </media>
            </file>
            <sourcetrack>
              <mediatype>audio</mediatype>
              <trackindex>1</trackindex>
            </sourcetrack>
          </clipitem>
          <clipitem id="clipitem-14">
            <name>OrionEp11-014-NA.mp3</name>
            <enabled>TRUE</enabled>
            <duration>462</duration>
            <rate>
              <timebase>30</timebase>
              <ntsc>TRUE</ntsc>
            </rate>
            <start>3263</start>
            <end>3725</end>
            <in>0</in>
            <out>462</out>
            <file id="file-15">
              <name>OrionEp11-014-NA.mp3</name>
              <pathurl>file:///Users/hiroshikodera/repos/_active/tools/davinciauto/projects/OrionEp11/%E3%82%B5%E3%82%A6%E3%83%B3%E3%83%89%E9%A1%9E/Narration/OrionEp11-014-NA.mp3</pathurl>
              <rate>
                <timebase>44100</timebase>
                <ntsc>FALSE</ntsc>
              </rate>
              <media>
                <audio>
                  <channelcount>1</channelcount>
                  <samplecharacteristics>
                    <samplerate>44100</samplerate>
                    <samplesize>16</samplesize>
                  </samplecharacteristics>
                </audio>
              </media>
            </file>
            <sourcetrack>
              <mediatype>audio</mediatype>
              <trackindex>1</trackindex>
            </sourcetrack>
          </clipitem>
          <clipitem id="clipitem-15">
            <name>OrionEp11-015-DL.mp3</name>
            <enabled>TRUE</enabled>
            <duration>107</duration>
            <rate>
              <timebase>30</timebase>
              <ntsc>TRUE</ntsc>
            </rate>
            <start>3743</start>
            <end>3850</end>
            <in>0</in>
            <out>107</out>
            <file id="file-16">
              <name>OrionEp11-015-DL.mp3</name>
              <pathurl>file:///Users/hiroshikodera/repos/_active/tools/davinciauto/projects/OrionEp11/%E3%82%B5%E3%82%A6%E3%83%B3%E3%83%89%E9%A1%9E/Narration/OrionEp11-015-DL.mp3</pathurl>
              <rate>
                <timebase>44100</timebase>
                <ntsc>FALSE</ntsc>
              </rate>
              <media>
                <audio>
                  <channelcount>1</channelcount>
                  <samplecharacteristics>
                    <samplerate>44100</samplerate>
                    <samplesize>16</samplesize>
                  </samplecharacteristics>
                </audio>
              </media>
            </file>
            <sourcetrack>
              <mediatype>audio</mediatype>
              <trackindex>1</trackindex>
            </sourcetrack>
          </clipitem>
          <clipitem id="clipitem-16">
            <name>OrionEp11-016-NA.mp3</name>
            <enabled>TRUE</enabled>
            <duration>369</duration>
            <rate>
              <timebase>30</timebase>
              <ntsc>TRUE</ntsc>
            </rate>
            <start>3871</start>
            <end>4240</end>
            <in>0</in>
            <out>369</out>
            <file id="file-17">
              <name>OrionEp11-016-NA.mp3</name>
              <pathurl>file:///Users/hiroshikodera/repos/_active/tools/davinciauto/projects/OrionEp11/%E3%82%B5%E3%82%A6%E3%83%B3%E3%83%89%E9%A1%9E/Narration/OrionEp11-016-NA.mp3</pathurl>
              <rate>
                <timebase>44100</timebase>
                <ntsc>FALSE</ntsc>
              </rate>
              <media>
                <audio>
                  <channelcount>1</channelcount>
                  <samplecharacteristics>
                    <samplerate>44100</samplerate>
                    <samplesize>16</samplesize>
                  </samplecharacteristics>
                </audio>
              </media>
            </file>
            <sourcetrack>
              <mediatype>audio</mediatype>
              <trackindex>1</trackindex>
            </sourcetrack>
          </clipitem>
          <clipitem id="clipitem-17">
            <name>OrionEp11-017-NA.mp3</name>
            <enabled>TRUE</enabled>
            <duration>274</duration>
            <rate>
              <timebase>30</timebase>
              <ntsc>TRUE</ntsc>
            </rate>
            <start>4257</start>
            <end>4531</end>
            <in>0</in>
            <out>274</out>
            <file id="file-18">
              <name>OrionEp11-017-NA.mp3</name>
              <pathurl>file:///Users/hiroshikodera/repos/_active/tools/davinciauto/projects/OrionEp11/%E3%82%B5%E3%82%A6%E3%83%B3%E3%83%89%E9%A1%9E/Narration/OrionEp11-017-NA.mp3</pathurl>
              <rate>
                <timebase>44100</timebase>
                <ntsc>FALSE</ntsc>
              </rate>
              <media>
                <audio>
                  <channelcount>1</channelcount>
                  <samplecharacteristics>
                    <samplerate>44100</samplerate>
                    <samplesize>16</samplesize>
                  </samplecharacteristics>
                </audio>
              </media>
            </file>
            <sourcetrack>
              <mediatype>audio</mediatype>
              <trackindex>1</trackindex>
            </sourcetrack>
          </clipitem>
          <clipitem id="clipitem-18">
            <name>OrionEp11-018-NA.mp3</name>
            <enabled>TRUE</enabled>
            <duration>87</duration>
            <rate>
              <timebase>30</timebase>
              <ntsc>TRUE</ntsc>
            </rate>
            <start>4546</start>
            <end>4633</end>
            <in>0</in>
            <out>87</out>
            <file id="file-19">
              <name>OrionEp11-018-NA.mp3</name>
              <pathurl>file:///Users/hiroshikodera/repos/_active/tools/davinciauto/projects/OrionEp11/%E3%82%B5%E3%82%A6%E3%83%B3%E3%83%89%E9%A1%9E/Narration/OrionEp11-018-NA.mp3</pathurl>
              <rate>
                <timebase>44100</timebase>
                <ntsc>FALSE</ntsc>
              </rate>
              <media>
                <audio>
                  <channelcount>1</channelcount>
                  <samplecharacteristics>
                    <samplerate>44100</samplerate>
                    <samplesize>16</samplesize>
                  </samplecharacteristics>
                </audio>
              </media>
            </file>
            <sourcetrack>
              <mediatype>audio</mediatype>
              <trackindex>1</trackindex>
            </sourcetrack>
          </clipitem>
          <clipitem id="clipitem-19">
            <name>OrionEp11-019-NA.mp3</name>
            <enabled>TRUE</enabled>
            <duration>279</duration>
            <rate>
              <timebase>30</timebase>
              <ntsc>TRUE</ntsc>
            </rate>
            <start>4645</start>
            <end>4924</end>
            <in>0</in>
            <out>279</out>
            <file id="file-20">
              <name>OrionEp11-019-NA.mp3</name>
              <pathurl>file:///Users/hiroshikodera/repos/_active/tools/davinciauto/projects/OrionEp11/%E3%82%B5%E3%82%A6%E3%83%B3%E3%83%89%E9%A1%9E/Narration/OrionEp11-019-NA.mp3</pathurl>
              <rate>
                <timebase>44100</timebase>
                <ntsc>FALSE</ntsc>
              </rate>
              <media>
                <audio>
                  <channelcount>1</channelcount>
                  <samplecharacteristics>
                    <samplerate>44100</samplerate>
                    <samplesize>16</samplesize>
                  </samplecharacteristics>
                </audio>
              </media>
            </file>
            <sourcetrack>
              <mediatype>audio</mediatype>
              <trackindex>1</trackindex>
            </sourcetrack>
          </clipitem>
          <clipitem id="clipitem-20">
            <name>OrionEp11-020-NA.mp3</name>
            <enabled>TRUE</enabled>
            <duration>433</duration>
            <rate>
              <timebase>30</timebase>
              <ntsc>TRUE</ntsc>
            </rate>
            <start>4949</start>
            <end>5382</end>
            <in>0</in>
            <out>433</out>
            <file id="file-21">
              <name>OrionEp11-020-NA.mp3</name>
              <pathurl>file:///Users/hiroshikodera/repos/_active/tools/davinciauto/projects/OrionEp11/%E3%82%B5%E3%82%A6%E3%83%B3%E3%83%89%E9%A1%9E/Narration/OrionEp11-020-NA.mp3</pathurl>
              <rate>
                <timebase>44100</timebase>
                <ntsc>FALSE</ntsc>
              </rate>
              <media>
                <audio>
                  <channelcount>1</channelcount>
                  <samplecharacteristics>
                    <samplerate>44100</samplerate>
                    <samplesize>16</samplesize>
                  </samplecharacteristics>
                </audio>
              </media>
            </file>
            <sourcetrack>
              <mediatype>audio</mediatype>
              <trackindex>1</trackindex>
            </sourcetrack>
          </clipitem>
          <clipitem id="clipitem-21">
            <name>OrionEp11-021-DL.mp3</name>
            <enabled>TRUE</enabled>
            <duration>202</duration>
            <rate>
              <timebase>30</timebase>
              <ntsc>TRUE</ntsc>
            </rate>
            <start>5400</start>
            <end>5602</end>
            <in>0</in>
            <out>202</out>
            <file id="file-22">
              <name>OrionEp11-021-DL.mp3</name>
              <pathurl>file:///Users/hiroshikodera/repos/_active/tools/davinciauto/projects/OrionEp11/%E3%82%B5%E3%82%A6%E3%83%B3%E3%83%89%E9%A1%9E/Narration/OrionEp11-021-DL.mp3</pathurl>
              <rate>
                <timebase>44100</timebase>
                <ntsc>FALSE</ntsc>
              </rate>
              <media>
                <audio>
                  <channelcount>1</channelcount>
                  <samplecharacteristics>
                    <samplerate>44100</samplerate>
                    <samplesize>16</samplesize>
                  </samplecharacteristics>
                </audio>
              </media>
            </file>
            <sourcetrack>
              <mediatype>audio</mediatype>
              <trackindex>1</trackindex>
            </sourcetrack>
          </clipitem>
          <clipitem id="clipitem-22">
            <name>OrionEp11-022-NA.mp3</name>
            <enabled>TRUE</enabled>
            <duration>346</duration>
            <rate>
              <timebase>30</timebase>
              <ntsc>TRUE</ntsc>
            </rate>
            <start>5624</start>
            <end>5970</end>
            <in>0</in>
            <out>346</out>
            <file id="file-23">
              <name>OrionEp11-022-NA.mp3</name>
              <pathurl>file:///Users/hiroshikodera/repos/_active/tools/davinciauto/projects/OrionEp11/%E3%82%B5%E3%82%A6%E3%83%B3%E3%83%89%E9%A1%9E/Narration/OrionEp11-022-NA.mp3</pathurl>
              <rate>
                <timebase>44100</timebase>
                <ntsc>FALSE</ntsc>
              </rate>
              <media>
                <audio>
                  <channelcount>1</channelcount>
                  <samplecharacteristics>
                    <samplerate>44100</samplerate>
                    <samplesize>16</samplesize>
                  </samplecharacteristics>
                </audio>
              </media>
            </file>
            <sourcetrack>
              <mediatype>audio</mediatype>
              <trackindex>1</trackindex>
            </sourcetrack>
          </clipitem>
          <clipitem id="clipitem-23">
            <name>OrionEp11-023-NA.mp3</name>
            <enabled>TRUE</enabled>
            <duration>243</duration>
            <rate>
              <timebase>30</timebase>
              <ntsc>TRUE</ntsc>
            </rate>
            <start>5986</start>
            <end>6229</end>
            <in>0</in>
            <out>243</out>
            <file id="file-24">
              <name>OrionEp11-023-NA.mp3</name>
              <pathurl>file:///Users/hiroshikodera/repos/_active/tools/davinciauto/projects/OrionEp11/%E3%82%B5%E3%82%A6%E3%83%B3%E3%83%89%E9%A1%9E/Narration/OrionEp11-023-NA.mp3</pathurl>
              <rate>
                <timebase>44100</timebase>
                <ntsc>FALSE</ntsc>
              </rate>
              <media>
                <audio>
                  <channelcount>1</channelcount>
                  <samplecharacteristics>
                    <samplerate>44100</samplerate>
                    <samplesize>16</samplesize>
                  </samplecharacteristics>
                </audio>
              </media>
            </file>
            <sourcetrack>
              <mediatype>audio</mediatype>
              <trackindex>1</trackindex>
            </sourcetrack>
          </clipitem>
          <clipitem id="clipitem-24">
            <name>OrionEp11-024-NA.mp3</name>
            <enabled>TRUE</enabled>
            <duration>392</duration>
            <rate>
              <timebase>30</timebase>
              <ntsc>TRUE</ntsc>
            </rate>
            <start>6245</start>
            <end>6637</end>
            <in>0</in>
            <out>392</out>
            <file id="file-25">
              <name>OrionEp11-024-NA.mp3</name>
              <pathurl>file:///Users/hiroshikodera/repos/_active/tools/davinciauto/projects/OrionEp11/%E3%82%B5%E3%82%A6%E3%83%B3%E3%83%89%E9%A1%9E/Narration/OrionEp11-024-NA.mp3</pathurl>
              <rate>
                <timebase>44100</timebase>
                <ntsc>FALSE</ntsc>
              </rate>
              <media>
                <audio>
                  <channelcount>1</channelcount>
                  <samplecharacteristics>
                    <samplerate>44100</samplerate>
                    <samplesize>16</samplesize>
                  </samplecharacteristics>
                </audio>
              </media>
            </file>
            <sourcetrack>
              <mediatype>audio</mediatype>
              <trackindex>1</trackindex>
            </sourcetrack>
          </clipitem>
          <clipitem id="clipitem-25">
            <name>OrionEp11-025-NA.mp3</name>
            <enabled>TRUE</enabled>
            <duration>143</duration>
            <rate>
              <timebase>30</timebase>
              <ntsc>TRUE</ntsc>
            </rate>
            <start>6654</start>
            <end>6797</end>
            <in>0</in>
            <out>143</out>
            <file id="file-26">
              <name>OrionEp11-025-NA.mp3</name>
              <pathurl>file:///Users/hiroshikodera/repos/_active/tools/davinciauto/projects/OrionEp11/%E3%82%B5%E3%82%A6%E3%83%B3%E3%83%89%E9%A1%9E/Narration/OrionEp11-025-NA.mp3</pathurl>
              <rate>
                <timebase>44100</timebase>
                <ntsc>FALSE</ntsc>
              </rate>
              <media>
                <audio>
                  <channelcount>1</channelcount>
                  <samplecharacteristics>
                    <samplerate>44100</samplerate>
                    <samplesize>16</samplesize>
                  </samplecharacteristics>
                </audio>
              </media>
            </file>
            <sourcetrack>
              <mediatype>audio</mediatype>
              <trackindex>1</trackindex>
            </sourcetrack>
          </clipitem>
          <clipitem id="clipitem-26">
            <name>OrionEp11-026-NA.mp3</name>
            <enabled>TRUE</enabled>
            <duration>137</duration>
            <rate>
              <timebase>30</timebase>
              <ntsc>TRUE</ntsc>
            </rate>
            <start>6811</start>
            <end>6948</end>
            <in>0</in>
            <out>137</out>
            <file id="file-27">
              <name>OrionEp11-026-NA.mp3</name>
              <pathurl>file:///Users/hiroshikodera/repos/_active/tools/davinciauto/projects/OrionEp11/%E3%82%B5%E3%82%A6%E3%83%B3%E3%83%89%E9%A1%9E/Narration/OrionEp11-026-NA.mp3</pathurl>
              <rate>
                <timebase>44100</timebase>
                <ntsc>FALSE</ntsc>
              </rate>
              <media>
                <audio>
                  <channelcount>1</channelcount>
                  <samplecharacteristics>
                    <samplerate>44100</samplerate>
                    <samplesize>16</samplesize>
                  </samplecharacteristics>
                </audio>
              </media>
            </file>
            <sourcetrack>
              <mediatype>audio</mediatype>
              <trackindex>1</trackindex>
            </sourcetrack>
          </clipitem>
          <clipitem id="clipitem-27">
            <name>OrionEp11-027-NA.mp3</name>
            <enabled>TRUE</enabled>
            <duration>170</duration>
            <rate>
              <timebase>30</timebase>
              <ntsc>TRUE</ntsc>
            </rate>
            <start>6961</start>
            <end>7131</end>
            <in>0</in>
            <out>170</out>
            <file id="file-28">
              <name>OrionEp11-027-NA.mp3</name>
              <pathurl>file:///Users/hiroshikodera/repos/_active/tools/davinciauto/projects/OrionEp11/%E3%82%B5%E3%82%A6%E3%83%B3%E3%83%89%E9%A1%9E/Narration/OrionEp11-027-NA.mp3</pathurl>
              <rate>
                <timebase>44100</timebase>
                <ntsc>FALSE</ntsc>
              </rate>
              <media>
                <audio>
                  <channelcount>1</channelcount>
                  <samplecharacteristics>
                    <samplerate>44100</samplerate>
                    <samplesize>16</samplesize>
                  </samplecharacteristics>
                </audio>
              </media>
            </file>
            <sourcetrack>
              <mediatype>audio</mediatype>
              <trackindex>1</trackindex>
            </sourcetrack>
          </clipitem>
          <clipitem id="clipitem-28">
            <name>OrionEp11-028-NA.mp3</name>
            <enabled>TRUE</enabled>
            <duration>199</duration>
            <rate>
              <timebase>30</timebase>
              <ntsc>TRUE</ntsc>
            </rate>
            <start>7145</start>
            <end>7344</end>
            <in>0</in>
            <out>199</out>
            <file id="file-29">
              <name>OrionEp11-028-NA.mp3</name>
              <pathurl>file:///Users/hiroshikodera/repos/_active/tools/davinciauto/projects/OrionEp11/%E3%82%B5%E3%82%A6%E3%83%B3%E3%83%89%E9%A1%9E/Narration/OrionEp11-028-NA.mp3</pathurl>
              <rate>
                <timebase>44100</timebase>
                <ntsc>FALSE</ntsc>
              </rate>
              <media>
                <audio>
                  <channelcount>1</channelcount>
                  <samplecharacteristics>
                    <samplerate>44100</samplerate>
                    <samplesize>16</samplesize>
                  </samplecharacteristics>
                </audio>
              </media>
            </file>
            <sourcetrack>
              <mediatype>audio</mediatype>
              <trackindex>1</trackindex>
            </sourcetrack>
          </clipitem>
          <clipitem id="clipitem-29">
            <name>OrionEp11-029-NA.mp3</name>
            <enabled>TRUE</enabled>
            <duration>179</duration>
            <rate>
              <timebase>30</timebase>
              <ntsc>TRUE</ntsc>
            </rate>
            <start>7358</start>
            <end>7537</end>
            <in>0</in>
            <out>179</out>
            <file id="file-30">
              <name>OrionEp11-029-NA.mp3</name>
              <pathurl>file:///Users/hiroshikodera/repos/_active/tools/davinciauto/projects/OrionEp11/%E3%82%B5%E3%82%A6%E3%83%B3%E3%83%89%E9%A1%9E/Narration/OrionEp11-029-NA.mp3</pathurl>
              <rate>
                <timebase>44100</timebase>
                <ntsc>FALSE</ntsc>
              </rate>
              <media>
                <audio>
                  <channelcount>1</channelcount>
                  <samplecharacteristics>
                    <samplerate>44100</samplerate>
                    <samplesize>16</samplesize>
                  </samplecharacteristics>
                </audio>
              </media>
            </file>
            <sourcetrack>
              <mediatype>audio</mediatype>
              <trackindex>1</trackindex>
            </sourcetrack>
          </clipitem>
          <clipitem id="clipitem-30">
            <name>OrionEp11-030-DL.mp3</name>
            <enabled>TRUE</enabled>
            <duration>247</duration>
            <rate>
              <timebase>30</timebase>
              <ntsc>TRUE</ntsc>
            </rate>
            <start>7552</start>
            <end>7799</end>
            <in>0</in>
            <out>247</out>
            <file id="file-31">
              <name>OrionEp11-030-DL.mp3</name>
              <pathurl>file:///Users/hiroshikodera/repos/_active/tools/davinciauto/projects/OrionEp11/%E3%82%B5%E3%82%A6%E3%83%B3%E3%83%89%E9%A1%9E/Narration/OrionEp11-030-DL.mp3</pathurl>
              <rate>
                <timebase>44100</timebase>
                <ntsc>FALSE</ntsc>
              </rate>
              <media>
                <audio>
                  <channelcount>1</channelcount>
                  <samplecharacteristics>
                    <samplerate>44100</samplerate>
                    <samplesize>16</samplesize>
                  </samplecharacteristics>
                </audio>
              </media>
            </file>
            <sourcetrack>
              <mediatype>audio</mediatype>
              <trackindex>1</trackindex>
            </sourcetrack>
          </clipitem>
          <clipitem id="clipitem-31">
            <name>OrionEp11-031-NA.mp3</name>
            <enabled>TRUE</enabled>
            <duration>308</duration>
            <rate>
              <timebase>30</timebase>
              <ntsc>TRUE</ntsc>
            </rate>
            <start>7822</start>
            <end>8130</end>
            <in>0</in>
            <out>308</out>
            <file id="file-32">
              <name>OrionEp11-031-NA.mp3</name>
              <pathurl>file:///Users/hiroshikodera/repos/_active/tools/davinciauto/projects/OrionEp11/%E3%82%B5%E3%82%A6%E3%83%B3%E3%83%89%E9%A1%9E/Narration/OrionEp11-031-NA.mp3</pathurl>
              <rate>
                <timebase>44100</timebase>
                <ntsc>FALSE</ntsc>
              </rate>
              <media>
                <audio>
                  <channelcount>1</channelcount>
                  <samplecharacteristics>
                    <samplerate>44100</samplerate>
                    <samplesize>16</samplesize>
                  </samplecharacteristics>
                </audio>
              </media>
            </file>
            <sourcetrack>
              <mediatype>audio</mediatype>
              <trackindex>1</trackindex>
            </sourcetrack>
          </clipitem>
          <clipitem id="clipitem-32">
            <name>OrionEp11-032-NA.mp3</name>
            <enabled>TRUE</enabled>
            <duration>197</duration>
            <rate>
              <timebase>30</timebase>
              <ntsc>TRUE</ntsc>
            </rate>
            <start>8147</start>
            <end>8344</end>
            <in>0</in>
            <out>197</out>
            <file id="file-33">
              <name>OrionEp11-032-NA.mp3</name>
              <pathurl>file:///Users/hiroshikodera/repos/_active/tools/davinciauto/projects/OrionEp11/%E3%82%B5%E3%82%A6%E3%83%B3%E3%83%89%E9%A1%9E/Narration/OrionEp11-032-NA.mp3</pathurl>
              <rate>
                <timebase>44100</timebase>
                <ntsc>FALSE</ntsc>
              </rate>
              <media>
                <audio>
                  <channelcount>1</channelcount>
                  <samplecharacteristics>
                    <samplerate>44100</samplerate>
                    <samplesize>16</samplesize>
                  </samplecharacteristics>
                </audio>
              </media>
            </file>
            <sourcetrack>
              <mediatype>audio</mediatype>
              <trackindex>1</trackindex>
            </sourcetrack>
          </clipitem>
          <clipitem id="clipitem-33">
            <name>OrionEp11-033-NA.mp3</name>
            <enabled>TRUE</enabled>
            <duration>366</duration>
            <rate>
              <timebase>30</timebase>
              <ntsc>TRUE</ntsc>
            </rate>
            <start>8359</start>
            <end>8725</end>
            <in>0</in>
            <out>366</out>
            <file id="file-34">
              <name>OrionEp11-033-NA.mp3</name>
              <pathurl>file:///Users/hiroshikodera/repos/_active/tools/davinciauto/projects/OrionEp11/%E3%82%B5%E3%82%A6%E3%83%B3%E3%83%89%E9%A1%9E/Narration/OrionEp11-033-NA.mp3</pathurl>
              <rate>
                <timebase>44100</timebase>
                <ntsc>FALSE</ntsc>
              </rate>
              <media>
                <audio>
                  <channelcount>1</channelcount>
                  <samplecharacteristics>
                    <samplerate>44100</samplerate>
                    <samplesize>16</samplesize>
                  </samplecharacteristics>
                </audio>
              </media>
            </file>
            <sourcetrack>
              <mediatype>audio</mediatype>
              <trackindex>1</trackindex>
            </sourcetrack>
          </clipitem>
          <clipitem id="clipitem-34">
            <name>OrionEp11-034-NA.mp3</name>
            <enabled>TRUE</enabled>
            <duration>270</duration>
            <rate>
              <timebase>30</timebase>
              <ntsc>TRUE</ntsc>
            </rate>
            <start>8742</start>
            <end>9012</end>
            <in>0</in>
            <out>270</out>
            <file id="file-35">
              <name>OrionEp11-034-NA.mp3</name>
              <pathurl>file:///Users/hiroshikodera/repos/_active/tools/davinciauto/projects/OrionEp11/%E3%82%B5%E3%82%A6%E3%83%B3%E3%83%89%E9%A1%9E/Narration/OrionEp11-034-NA.mp3</pathurl>
              <rate>
                <timebase>44100</timebase>
                <ntsc>FALSE</ntsc>
              </rate>
              <media>
                <audio>
                  <channelcount>1</channelcount>
                  <samplecharacteristics>
                    <samplerate>44100</samplerate>
                    <samplesize>16</samplesize>
                  </samplecharacteristics>
                </audio>
              </media>
            </file>
            <sourcetrack>
              <mediatype>audio</mediatype>
              <trackindex>1</trackindex>
            </sourcetrack>
          </clipitem>
          <clipitem id="clipitem-35">
            <name>OrionEp11-035-DL.mp3</name>
            <enabled>TRUE</enabled>
            <duration>215</duration>
            <rate>
              <timebase>30</timebase>
              <ntsc>TRUE</ntsc>
            </rate>
            <start>9027</start>
            <end>9242</end>
            <in>0</in>
            <out>215</out>
            <file id="file-36">
              <name>OrionEp11-035-DL.mp3</name>
              <pathurl>file:///Users/hiroshikodera/repos/_active/tools/davinciauto/projects/OrionEp11/%E3%82%B5%E3%82%A6%E3%83%B3%E3%83%89%E9%A1%9E/Narration/OrionEp11-035-DL.mp3</pathurl>
              <rate>
                <timebase>44100</timebase>
                <ntsc>FALSE</ntsc>
              </rate>
              <media>
                <audio>
                  <channelcount>1</channelcount>
                  <samplecharacteristics>
                    <samplerate>44100</samplerate>
                    <samplesize>16</samplesize>
                  </samplecharacteristics>
                </audio>
              </media>
            </file>
            <sourcetrack>
              <mediatype>audio</mediatype>
              <trackindex>1</trackindex>
            </sourcetrack>
          </clipitem>
          <clipitem id="clipitem-36">
            <name>OrionEp11-036-NA.mp3</name>
            <enabled>TRUE</enabled>
            <duration>374</duration>
            <rate>
              <timebase>30</timebase>
              <ntsc>TRUE</ntsc>
            </rate>
            <start>9264</start>
            <end>9638</end>
            <in>0</in>
            <out>374</out>
            <file id="file-37">
              <name>OrionEp11-036-NA.mp3</name>
              <pathurl>file:///Users/hiroshikodera/repos/_active/tools/davinciauto/projects/OrionEp11/%E3%82%B5%E3%82%A6%E3%83%B3%E3%83%89%E9%A1%9E/Narration/OrionEp11-036-NA.mp3</pathurl>
              <rate>
                <timebase>44100</timebase>
                <ntsc>FALSE</ntsc>
              </rate>
              <media>
                <audio>
                  <channelcount>1</channelcount>
                  <samplecharacteristics>
                    <samplerate>44100</samplerate>
                    <samplesize>16</samplesize>
                  </samplecharacteristics>
                </audio>
              </media>
            </file>
            <sourcetrack>
              <mediatype>audio</mediatype>
              <trackindex>1</trackindex>
            </sourcetrack>
          </clipitem>
          <clipitem id="clipitem-37">
            <name>OrionEp11-037-NA.mp3</name>
            <enabled>TRUE</enabled>
            <duration>129</duration>
            <rate>
              <timebase>30</timebase>
              <ntsc>TRUE</ntsc>
            </rate>
            <start>9655</start>
            <end>9784</end>
            <in>0</in>
            <out>129</out>
            <file id="file-38">
              <name>OrionEp11-037-NA.mp3</name>
              <pathurl>file:///Users/hiroshikodera/repos/_active/tools/davinciauto/projects/OrionEp11/%E3%82%B5%E3%82%A6%E3%83%B3%E3%83%89%E9%A1%9E/Narration/OrionEp11-037-NA.mp3</pathurl>
              <rate>
                <timebase>44100</timebase>
                <ntsc>FALSE</ntsc>
              </rate>
              <media>
                <audio>
                  <channelcount>1</channelcount>
                  <samplecharacteristics>
                    <samplerate>44100</samplerate>
                    <samplesize>16</samplesize>
                  </samplecharacteristics>
                </audio>
              </media>
            </file>
            <sourcetrack>
              <mediatype>audio</mediatype>
              <trackindex>1</trackindex>
            </sourcetrack>
          </clipitem>
          <clipitem id="clipitem-38">
            <name>OrionEp11-038-NA.mp3</name>
            <enabled>TRUE</enabled>
            <duration>467</duration>
            <rate>
              <timebase>30</timebase>
              <ntsc>TRUE</ntsc>
            </rate>
            <start>9797</start>
            <end>10264</end>
            <in>0</in>
            <out>467</out>
            <file id="file-39">
              <name>OrionEp11-038-NA.mp3</name>
              <pathurl>file:///Users/hiroshikodera/repos/_active/tools/davinciauto/projects/OrionEp11/%E3%82%B5%E3%82%A6%E3%83%B3%E3%83%89%E9%A1%9E/Narration/OrionEp11-038-NA.mp3</pathurl>
              <rate>
                <timebase>44100</timebase>
                <ntsc>FALSE</ntsc>
              </rate>
              <media>
                <audio>
                  <channelcount>1</channelcount>
                  <samplecharacteristics>
                    <samplerate>44100</samplerate>
                    <samplesize>16</samplesize>
                  </samplecharacteristics>
                </audio>
              </media>
            </file>
            <sourcetrack>
              <mediatype>audio</mediatype>
              <trackindex>1</trackindex>
            </sourcetrack>
          </clipitem>
          <clipitem id="clipitem-39">
            <name>OrionEp11-039-NA.mp3</name>
            <enabled>TRUE</enabled>
            <duration>518</duration>
            <rate>
              <timebase>30</timebase>
              <ntsc>TRUE</ntsc>
            </rate>
            <start>10283</start>
            <end>10801</end>
            <in>0</in>
            <out>518</out>
            <file id="file-40">
              <name>OrionEp11-039-NA.mp3</name>
              <pathurl>file:///Users/hiroshikodera/repos/_active/tools/davinciauto/projects/OrionEp11/%E3%82%B5%E3%82%A6%E3%83%B3%E3%83%89%E9%A1%9E/Narration/OrionEp11-039-NA.mp3</pathurl>
              <rate>
                <timebase>44100</timebase>
                <ntsc>FALSE</ntsc>
              </rate>
              <media>
                <audio>
                  <channelcount>1</channelcount>
                  <samplecharacteristics>
                    <samplerate>44100</samplerate>
                    <samplesize>16</samplesize>
                  </samplecharacteristics>
                </audio>
              </media>
            </file>
            <sourcetrack>
              <mediatype>audio</mediatype>
              <trackindex>1</trackindex>
            </sourcetrack>
          </clipitem>
          <clipitem id="clipitem-40">
            <name>OrionEp11-040-NA.mp3</name>
            <enabled>TRUE</enabled>
            <duration>205</duration>
            <rate>
              <timebase>30</timebase>
              <ntsc>TRUE</ntsc>
            </rate>
            <start>10822</start>
            <end>11027</end>
            <in>0</in>
            <out>205</out>
            <file id="file-41">
              <name>OrionEp11-040-NA.mp3</name>
              <pathurl>file:///Users/hiroshikodera/repos/_active/tools/davinciauto/projects/OrionEp11/%E3%82%B5%E3%82%A6%E3%83%B3%E3%83%89%E9%A1%9E/Narration/OrionEp11-040-NA.mp3</pathurl>
              <rate>
                <timebase>44100</timebase>
                <ntsc>FALSE</ntsc>
              </rate>
              <media>
                <audio>
                  <channelcount>1</channelcount>
                  <samplecharacteristics>
                    <samplerate>44100</samplerate>
                    <samplesize>16</samplesize>
                  </samplecharacteristics>
                </audio>
              </media>
            </file>
            <sourcetrack>
              <mediatype>audio</mediatype>
              <trackindex>1</trackindex>
            </sourcetrack>
          </clipitem>
          <clipitem id="clipitem-41">
            <name>OrionEp11-041-NA.mp3</name>
            <enabled>TRUE</enabled>
            <duration>552</duration>
            <rate>
              <timebase>30</timebase>
              <ntsc>TRUE</ntsc>
            </rate>
            <start>11042</start>
            <end>11594</end>
            <in>0</in>
            <out>552</out>
            <file id="file-42">
              <name>OrionEp11-041-NA.mp3</name>
              <pathurl>file:///Users/hiroshikodera/repos/_active/tools/davinciauto/projects/OrionEp11/%E3%82%B5%E3%82%A6%E3%83%B3%E3%83%89%E9%A1%9E/Narration/OrionEp11-041-NA.mp3</pathurl>
              <rate>
                <timebase>44100</timebase>
                <ntsc>FALSE</ntsc>
              </rate>
              <media>
                <audio>
                  <channelcount>1</channelcount>
                  <samplecharacteristics>
                    <samplerate>44100</samplerate>
                    <samplesize>16</samplesize>
                  </samplecharacteristics>
                </audio>
              </media>
            </file>
            <sourcetrack>
              <mediatype>audio</mediatype>
              <trackindex>1</trackindex>
            </sourcetrack>
          </clipitem>
          <clipitem id="clipitem-42">
            <name>OrionEp11-042-NA.mp3</name>
            <enabled>TRUE</enabled>
            <duration>545</duration>
            <rate>
              <timebase>30</timebase>
              <ntsc>TRUE</ntsc>
            </rate>
            <start>11615</start>
            <end>12160</end>
            <in>0</in>
            <out>545</out>
            <file id="file-43">
              <name>OrionEp11-042-NA.mp3</name>
              <pathurl>file:///Users/hiroshikodera/repos/_active/tools/davinciauto/projects/OrionEp11/%E3%82%B5%E3%82%A6%E3%83%B3%E3%83%89%E9%A1%9E/Narration/OrionEp11-042-NA.mp3</pathurl>
              <rate>
                <timebase>44100</timebase>
                <ntsc>FALSE</ntsc>
              </rate>
              <media>
                <audio>
                  <channelcount>1</channelcount>
                  <samplecharacteristics>
                    <samplerate>44100</samplerate>
                    <samplesize>16</samplesize>
                  </samplecharacteristics>
                </audio>
              </media>
            </file>
            <sourcetrack>
              <mediatype>audio</mediatype>
              <trackindex>1</trackindex>
            </sourcetrack>
          </clipitem>
          <clipitem id="clipitem-43">
            <name>OrionEp11-043-NA.mp3</name>
            <enabled>TRUE</enabled>
            <duration>563</duration>
            <rate>
              <timebase>30</timebase>
              <ntsc>TRUE</ntsc>
            </rate>
            <start>12181</start>
            <end>12744</end>
            <in>0</in>
            <out>563</out>
            <file id="file-44">
              <name>OrionEp11-043-NA.mp3</name>
              <pathurl>file:///Users/hiroshikodera/repos/_active/tools/davinciauto/projects/OrionEp11/%E3%82%B5%E3%82%A6%E3%83%B3%E3%83%89%E9%A1%9E/Narration/OrionEp11-043-NA.mp3</pathurl>
              <rate>
                <timebase>44100</timebase>
                <ntsc>FALSE</ntsc>
              </rate>
              <media>
                <audio>
                  <channelcount>1</channelcount>
                  <samplecharacteristics>
                    <samplerate>44100</samplerate>
                    <samplesize>16</samplesize>
                  </samplecharacteristics>
                </audio>
              </media>
            </file>
            <sourcetrack>
              <mediatype>audio</mediatype>
              <trackindex>1</trackindex>
            </sourcetrack>
          </clipitem>
          <clipitem id="clipitem-44">
            <name>OrionEp11-044-NA.mp3</name>
            <enabled>TRUE</enabled>
            <duration>448</duration>
            <rate>
              <timebase>30</timebase>
              <ntsc>TRUE</ntsc>
            </rate>
            <start>12766</start>
            <end>13214</end>
            <in>0</in>
            <out>448</out>
            <file id="file-45">
              <name>OrionEp11-044-NA.mp3</name>
              <pathurl>file:///Users/hiroshikodera/repos/_active/tools/davinciauto/projects/OrionEp11/%E3%82%B5%E3%82%A6%E3%83%B3%E3%83%89%E9%A1%9E/Narration/OrionEp11-044-NA.mp3</pathurl>
              <rate>
                <timebase>44100</timebase>
                <ntsc>FALSE</ntsc>
              </rate>
              <media>
                <audio>
                  <channelcount>1</channelcount>
                  <samplecharacteristics>
                    <samplerate>44100</samplerate>
                    <samplesize>16</samplesize>
                  </samplecharacteristics>
                </audio>
              </media>
            </file>
            <sourcetrack>
              <mediatype>audio</mediatype>
              <trackindex>1</trackindex>
            </sourcetrack>
          </clipitem>
          <clipitem id="clipitem-45">
            <name>OrionEp11-045-NA.mp3</name>
            <enabled>TRUE</enabled>
            <duration>204</duration>
            <rate>
              <timebase>30</timebase>
              <ntsc>TRUE</ntsc>
            </rate>
            <start>13235</start>
            <end>13439</end>
            <in>0</in>
            <out>204</out>
            <file id="file-46">
              <name>OrionEp11-045-NA.mp3</name>
              <pathurl>file:///Users/hiroshikodera/repos/_active/tools/davinciauto/projects/OrionEp11/%E3%82%B5%E3%82%A6%E3%83%B3%E3%83%89%E9%A1%9E/Narration/OrionEp11-045-NA.mp3</pathurl>
              <rate>
                <timebase>44100</timebase>
                <ntsc>FALSE</ntsc>
              </rate>
              <media>
                <audio>
                  <channelcount>1</channelcount>
                  <samplecharacteristics>
                    <samplerate>44100</samplerate>
                    <samplesize>16</samplesize>
                  </samplecharacteristics>
                </audio>
              </media>
            </file>
            <sourcetrack>
              <mediatype>audio</mediatype>
              <trackindex>1</trackindex>
            </sourcetrack>
          </clipitem>
          <clipitem id="clipitem-46">
            <name>OrionEp11-046-NA.mp3</name>
            <enabled>TRUE</enabled>
            <duration>127</duration>
            <rate>
              <timebase>30</timebase>
              <ntsc>TRUE</ntsc>
            </rate>
            <start>13453</start>
            <end>13580</end>
            <in>0</in>
            <out>127</out>
            <file id="file-47">
              <name>OrionEp11-046-NA.mp3</name>
              <pathurl>file:///Users/hiroshikodera/repos/_active/tools/davinciauto/projects/OrionEp11/%E3%82%B5%E3%82%A6%E3%83%B3%E3%83%89%E9%A1%9E/Narration/OrionEp11-046-NA.mp3</pathurl>
              <rate>
                <timebase>44100</timebase>
                <ntsc>FALSE</ntsc>
              </rate>
              <media>
                <audio>
                  <channelcount>1</channelcount>
                  <samplecharacteristics>
                    <samplerate>44100</samplerate>
                    <samplesize>16</samplesize>
                  </samplecharacteristics>
                </audio>
              </media>
            </file>
            <sourcetrack>
              <mediatype>audio</mediatype>
              <trackindex>1</trackindex>
            </sourcetrack>
          </clipitem>
          <clipitem id="clipitem-47">
            <name>OrionEp11-047-NA.mp3</name>
            <enabled>TRUE</enabled>
            <duration>359</duration>
            <rate>
              <timebase>30</timebase>
              <ntsc>TRUE</ntsc>
            </rate>
            <start>13593</start>
            <end>13952</end>
            <in>0</in>
            <out>359</out>
            <file id="file-48">
              <name>OrionEp11-047-NA.mp3</name>
              <pathurl>file:///Users/hiroshikodera/repos/_active/tools/davinciauto/projects/OrionEp11/%E3%82%B5%E3%82%A6%E3%83%B3%E3%83%89%E9%A1%9E/Narration/OrionEp11-047-NA.mp3</pathurl>
              <rate>
                <timebase>44100</timebase>
                <ntsc>FALSE</ntsc>
              </rate>
              <media>
                <audio>
                  <channelcount>1</channelcount>
                  <samplecharacteristics>
                    <samplerate>44100</samplerate>
                    <samplesize>16</samplesize>
                  </samplecharacteristics>
                </audio>
              </media>
            </file>
            <sourcetrack>
              <mediatype>audio</mediatype>
              <trackindex>1</trackindex>
            </sourcetrack>
          </clipitem>
          <clipitem id="clipitem-48">
            <name>OrionEp11-048-NA.mp3</name>
            <enabled>TRUE</enabled>
            <duration>324</duration>
            <rate>
              <timebase>30</timebase>
              <ntsc>TRUE</ntsc>
            </rate>
            <start>13970</start>
            <end>14294</end>
            <in>0</in>
            <out>324</out>
            <file id="file-49">
              <name>OrionEp11-048-NA.mp3</name>
              <pathurl>file:///Users/hiroshikodera/repos/_active/tools/davinciauto/projects/OrionEp11/%E3%82%B5%E3%82%A6%E3%83%B3%E3%83%89%E9%A1%9E/Narration/OrionEp11-048-NA.mp3</pathurl>
              <rate>
                <timebase>44100</timebase>
                <ntsc>FALSE</ntsc>
              </rate>
              <media>
                <audio>
                  <channelcount>1</channelcount>
                  <samplecharacteristics>
                    <samplerate>44100</samplerate>
                    <samplesize>16</samplesize>
                  </samplecharacteristics>
                </audio>
              </media>
            </file>
            <sourcetrack>
              <mediatype>audio</mediatype>
              <trackindex>1</trackindex>
            </sourcetrack>
          </clipitem>
          <clipitem id="clipitem-49">
            <name>OrionEp11-049-NA.mp3</name>
            <enabled>TRUE</enabled>
            <duration>376</duration>
            <rate>
              <timebase>30</timebase>
              <ntsc>TRUE</ntsc>
            </rate>
            <start>14311</start>
            <end>14687</end>
            <in>0</in>
            <out>376</out>
            <file id="file-50">
              <name>OrionEp11-049-NA.mp3</name>
              <pathurl>file:///Users/hiroshikodera/repos/_active/tools/davinciauto/projects/OrionEp11/%E3%82%B5%E3%82%A6%E3%83%B3%E3%83%89%E9%A1%9E/Narration/OrionEp11-049-NA.mp3</pathurl>
              <rate>
                <timebase>44100</timebase>
                <ntsc>FALSE</ntsc>
              </rate>
              <media>
                <audio>
                  <channelcount>1</channelcount>
                  <samplecharacteristics>
                    <samplerate>44100</samplerate>
                    <samplesize>16</samplesize>
                  </samplecharacteristics>
                </audio>
              </media>
            </file>
            <sourcetrack>
              <mediatype>audio</mediatype>
              <trackindex>1</trackindex>
            </sourcetrack>
          </clipitem>
          <clipitem id="clipitem-50">
            <name>OrionEp11-050-NA.mp3</name>
            <enabled>TRUE</enabled>
            <duration>315</duration>
            <rate>
              <timebase>30</timebase>
              <ntsc>TRUE</ntsc>
            </rate>
            <start>14704</start>
            <end>15019</end>
            <in>0</in>
            <out>315</out>
            <file id="file-51">
              <name>OrionEp11-050-NA.mp3</name>
              <pathurl>file:///Users/hiroshikodera/repos/_active/tools/davinciauto/projects/OrionEp11/%E3%82%B5%E3%82%A6%E3%83%B3%E3%83%89%E9%A1%9E/Narration/OrionEp11-050-NA.mp3</pathurl>
              <rate>
                <timebase>44100</timebase>
                <ntsc>FALSE</ntsc>
              </rate>
              <media>
                <audio>
                  <channelcount>1</channelcount>
                  <samplecharacteristics>
                    <samplerate>44100</samplerate>
                    <samplesize>16</samplesize>
                  </samplecharacteristics>
                </audio>
              </media>
            </file>
            <sourcetrack>
              <mediatype>audio</mediatype>
              <trackindex>1</trackindex>
            </sourcetrack>
          </clipitem>
          <clipitem id="clipitem-51">
            <name>OrionEp11-051-NA.mp3</name>
            <enabled>TRUE</enabled>
            <duration>328</duration>
            <rate>
              <timebase>30</timebase>
              <ntsc>TRUE</ntsc>
            </rate>
            <start>15035</start>
            <end>15363</end>
            <in>0</in>
            <out>328</out>
            <file id="file-52">
              <name>OrionEp11-051-NA.mp3</name>
              <pathurl>file:///Users/hiroshikodera/repos/_active/tools/davinciauto/projects/OrionEp11/%E3%82%B5%E3%82%A6%E3%83%B3%E3%83%89%E9%A1%9E/Narration/OrionEp11-051-NA.mp3</pathurl>
              <rate>
                <timebase>44100</timebase>
                <ntsc>FALSE</ntsc>
              </rate>
              <media>
                <audio>
                  <channelcount>1</channelcount>
                  <samplecharacteristics>
                    <samplerate>44100</samplerate>
                    <samplesize>16</samplesize>
                  </samplecharacteristics>
                </audio>
              </media>
            </file>
            <sourcetrack>
              <mediatype>audio</mediatype>
              <trackindex>1</trackindex>
            </sourcetrack>
          </clipitem>
          <clipitem id="clipitem-52">
            <name>OrionEp11-052-NA.mp3</name>
            <enabled>TRUE</enabled>
            <duration>181</duration>
            <rate>
              <timebase>30</timebase>
              <ntsc>TRUE</ntsc>
            </rate>
            <start>15378</start>
            <end>15559</end>
            <in>0</in>
            <out>181</out>
            <file id="file-53">
              <name>OrionEp11-052-NA.mp3</name>
              <pathurl>file:///Users/hiroshikodera/repos/_active/tools/davinciauto/projects/OrionEp11/%E3%82%B5%E3%82%A6%E3%83%B3%E3%83%89%E9%A1%9E/Narration/OrionEp11-052-NA.mp3</pathurl>
              <rate>
                <timebase>44100</timebase>
                <ntsc>FALSE</ntsc>
              </rate>
              <media>
                <audio>
                  <channelcount>1</channelcount>
                  <samplecharacteristics>
                    <samplerate>44100</samplerate>
                    <samplesize>16</samplesize>
                  </samplecharacteristics>
                </audio>
              </media>
            </file>
            <sourcetrack>
              <mediatype>audio</mediatype>
              <trackindex>1</trackindex>
            </sourcetrack>
          </clipitem>
          <clipitem id="clipitem-53">
            <name>OrionEp11-053-DL.mp3</name>
            <enabled>TRUE</enabled>
            <duration>241</duration>
            <rate>
              <timebase>30</timebase>
              <ntsc>TRUE</ntsc>
            </rate>
            <start>15573</start>
            <end>15814</end>
            <in>0</in>
            <out>241</out>
            <file id="file-54">
              <name>OrionEp11-053-DL.mp3</name>
              <pathurl>file:///Users/hiroshikodera/repos/_active/tools/davinciauto/projects/OrionEp11/%E3%82%B5%E3%82%A6%E3%83%B3%E3%83%89%E9%A1%9E/Narration/OrionEp11-053-DL.mp3</pathurl>
              <rate>
                <timebase>44100</timebase>
                <ntsc>FALSE</ntsc>
              </rate>
              <media>
                <audio>
                  <channelcount>1</channelcount>
                  <samplecharacteristics>
                    <samplerate>44100</samplerate>
                    <samplesize>16</samplesize>
                  </samplecharacteristics>
                </audio>
              </media>
            </file>
            <sourcetrack>
              <mediatype>audio</mediatype>
              <trackindex>1</trackindex>
            </sourcetrack>
          </clipitem>
          <clipitem id="clipitem-54">
            <name>OrionEp11-054-DL.mp3</name>
            <enabled>TRUE</enabled>
            <duration>120</duration>
            <rate>
              <timebase>30</timebase>
              <ntsc>TRUE</ntsc>
            </rate>
            <start>15837</start>
            <end>15957</end>
            <in>0</in>
            <out>120</out>
            <file id="file-55">
              <name>OrionEp11-054-DL.mp3</name>
              <pathurl>file:///Users/hiroshikodera/repos/_active/tools/davinciauto/projects/OrionEp11/%E3%82%B5%E3%82%A6%E3%83%B3%E3%83%89%E9%A1%9E/Narration/OrionEp11-054-DL.mp3</pathurl>
              <rate>
                <timebase>44100</timebase>
                <ntsc>FALSE</ntsc>
              </rate>
              <media>
                <audio>
                  <channelcount>1</channelcount>
                  <samplecharacteristics>
                    <samplerate>44100</samplerate>
                    <samplesize>16</samplesize>
                  </samplecharacteristics>
                </audio>
              </media>
            </file>
            <sourcetrack>
              <mediatype>audio</mediatype>
              <trackindex>1</trackindex>
            </sourcetrack>
          </clipitem>
          <clipitem id="clipitem-55">
            <name>OrionEp11-055-NA.mp3</name>
            <enabled>TRUE</enabled>
            <duration>179</duration>
            <rate>
              <timebase>30</timebase>
              <ntsc>TRUE</ntsc>
            </rate>
            <start>15977</start>
            <end>16156</end>
            <in>0</in>
            <out>179</out>
            <file id="file-56">
              <name>OrionEp11-055-NA.mp3</name>
              <pathurl>file:///Users/hiroshikodera/repos/_active/tools/davinciauto/projects/OrionEp11/%E3%82%B5%E3%82%A6%E3%83%B3%E3%83%89%E9%A1%9E/Narration/OrionEp11-055-NA.mp3</pathurl>
              <rate>
                <timebase>44100</timebase>
                <ntsc>FALSE</ntsc>
              </rate>
              <media>
                <audio>
                  <channelcount>1</channelcount>
                  <samplecharacteristics>
                    <samplerate>44100</samplerate>
                    <samplesize>16</samplesize>
                  </samplecharacteristics>
                </audio>
              </media>
            </file>
            <sourcetrack>
              <mediatype>audio</mediatype>
              <trackindex>1</trackindex>
            </sourcetrack>
          </clipitem>
          <clipitem id="clipitem-56">
            <name>OrionEp11-056-NA.mp3</name>
            <enabled>TRUE</enabled>
            <duration>333</duration>
            <rate>
              <timebase>30</timebase>
              <ntsc>TRUE</ntsc>
            </rate>
            <start>16172</start>
            <end>16505</end>
            <in>0</in>
            <out>333</out>
            <file id="file-57">
              <name>OrionEp11-056-NA.mp3</name>
              <pathurl>file:///Users/hiroshikodera/repos/_active/tools/davinciauto/projects/OrionEp11/%E3%82%B5%E3%82%A6%E3%83%B3%E3%83%89%E9%A1%9E/Narration/OrionEp11-056-NA.mp3</pathurl>
              <rate>
                <timebase>44100</timebase>
                <ntsc>FALSE</ntsc>
              </rate>
              <media>
                <audio>
                  <channelcount>1</channelcount>
                  <samplecharacteristics>
                    <samplerate>44100</samplerate>
                    <samplesize>16</samplesize>
                  </samplecharacteristics>
                </audio>
              </media>
            </file>
            <sourcetrack>
              <mediatype>audio</mediatype>
              <trackindex>1</trackindex>
            </sourcetrack>
          </clipitem>
          <clipitem id="clipitem-57">
            <name>OrionEp11-057-NA.mp3</name>
            <enabled>TRUE</enabled>
            <duration>124</duration>
            <rate>
              <timebase>30</timebase>
              <ntsc>TRUE</ntsc>
            </rate>
            <start>16522</start>
            <end>16646</end>
            <in>0</in>
            <out>124</out>
            <file id="file-58">
              <name>OrionEp11-057-NA.mp3</name>
              <pathurl>file:///Users/hiroshikodera/repos/_active/tools/davinciauto/projects/OrionEp11/%E3%82%B5%E3%82%A6%E3%83%B3%E3%83%89%E9%A1%9E/Narration/OrionEp11-057-NA.mp3</pathurl>
              <rate>
                <timebase>44100</timebase>
                <ntsc>FALSE</ntsc>
              </rate>
              <media>
                <audio>
                  <channelcount>1</channelcount>
                  <samplecharacteristics>
                    <samplerate>44100</samplerate>
                    <samplesize>16</samplesize>
                  </samplecharacteristics>
                </audio>
              </media>
            </file>
            <sourcetrack>
              <mediatype>audio</mediatype>
              <trackindex>1</trackindex>
            </sourcetrack>
          </clipitem>
          <clipitem id="clipitem-58">
            <name>OrionEp11-058-NA.mp3</name>
            <enabled>TRUE</enabled>
            <duration>372</duration>
            <rate>
              <timebase>30</timebase>
              <ntsc>TRUE</ntsc>
            </rate>
            <start>16659</start>
            <end>17031</end>
            <in>0</in>
            <out>372</out>
            <file id="file-59">
              <name>OrionEp11-058-NA.mp3</name>
              <pathurl>file:///Users/hiroshikodera/repos/_active/tools/davinciauto/projects/OrionEp11/%E3%82%B5%E3%82%A6%E3%83%B3%E3%83%89%E9%A1%9E/Narration/OrionEp11-058-NA.mp3</pathurl>
              <rate>
                <timebase>44100</timebase>
                <ntsc>FALSE</ntsc>
              </rate>
              <media>
                <audio>
                  <channelcount>1</channelcount>
                  <samplecharacteristics>
                    <samplerate>44100</samplerate>
                    <samplesize>16</samplesize>
                  </samplecharacteristics>
                </audio>
              </media>
            </file>
            <sourcetrack>
              <mediatype>audio</mediatype>
              <trackindex>1</trackindex>
            </sourcetrack>
          </clipitem>
          <clipitem id="clipitem-59">
            <name>OrionEp11-059-NA.mp3</name>
            <enabled>TRUE</enabled>
            <duration>373</duration>
            <rate>
              <timebase>30</timebase>
              <ntsc>TRUE</ntsc>
            </rate>
            <start>17048</start>
            <end>17421</end>
            <in>0</in>
            <out>373</out>
            <file id="file-60">
              <name>OrionEp11-059-NA.mp3</name>
              <pathurl>file:///Users/hiroshikodera/repos/_active/tools/davinciauto/projects/OrionEp11/%E3%82%B5%E3%82%A6%E3%83%B3%E3%83%89%E9%A1%9E/Narration/OrionEp11-059-NA.mp3</pathurl>
              <rate>
                <timebase>44100</timebase>
                <ntsc>FALSE</ntsc>
              </rate>
              <media>
                <audio>
                  <channelcount>1</channelcount>
                  <samplecharacteristics>
                    <samplerate>44100</samplerate>
                    <samplesize>16</samplesize>
                  </samplecharacteristics>
                </audio>
              </media>
            </file>
            <sourcetrack>
              <mediatype>audio</mediatype>
              <trackindex>1</trackindex>
            </sourcetrack>
          </clipitem>
          <clipitem id="clipitem-60">
            <name>OrionEp11-060-NA.mp3</name>
            <enabled>TRUE</enabled>
            <duration>325</duration>
            <rate>
              <timebase>30</timebase>
              <ntsc>TRUE</ntsc>
            </rate>
            <start>17439</start>
            <end>17764</end>
            <in>0</in>
            <out>325</out>
            <file id="file-61">
              <name>OrionEp11-060-NA.mp3</name>
              <pathurl>file:///Users/hiroshikodera/repos/_active/tools/davinciauto/projects/OrionEp11/%E3%82%B5%E3%82%A6%E3%83%B3%E3%83%89%E9%A1%9E/Narration/OrionEp11-060-NA.mp3</pathurl>
              <rate>
                <timebase>44100</timebase>
                <ntsc>FALSE</ntsc>
              </rate>
              <media>
                <audio>
                  <channelcount>1</channelcount>
                  <samplecharacteristics>
                    <samplerate>44100</samplerate>
                    <samplesize>16</samplesize>
                  </samplecharacteristics>
                </audio>
              </media>
            </file>
            <sourcetrack>
              <mediatype>audio</mediatype>
              <trackindex>1</trackindex>
            </sourcetrack>
          </clipitem>
          <clipitem id="clipitem-61">
            <name>OrionEp11-061-NA.mp3</name>
            <enabled>TRUE</enabled>
            <duration>261</duration>
            <rate>
              <timebase>30</timebase>
              <ntsc>TRUE</ntsc>
            </rate>
            <start>17781</start>
            <end>18042</end>
            <in>0</in>
            <out>261</out>
            <file id="file-62">
              <name>OrionEp11-061-NA.mp3</name>
              <pathurl>file:///Users/hiroshikodera/repos/_active/tools/davinciauto/projects/OrionEp11/%E3%82%B5%E3%82%A6%E3%83%B3%E3%83%89%E9%A1%9E/Narration/OrionEp11-061-NA.mp3</pathurl>
              <rate>
                <timebase>44100</timebase>
                <ntsc>FALSE</ntsc>
              </rate>
              <media>
                <audio>
                  <channelcount>1</channelcount>
                  <samplecharacteristics>
                    <samplerate>44100</samplerate>
                    <samplesize>16</samplesize>
                  </samplecharacteristics>
                </audio>
              </media>
            </file>
            <sourcetrack>
              <mediatype>audio</mediatype>
              <trackindex>1</trackindex>
            </sourcetrack>
          </clipitem>
          <clipitem id="clipitem-62">
            <name>OrionEp11-062-NA.mp3</name>
            <enabled>TRUE</enabled>
            <duration>163</duration>
            <rate>
              <timebase>30</timebase>
              <ntsc>TRUE</ntsc>
            </rate>
            <start>18057</start>
            <end>18220</end>
            <in>0</in>
            <out>163</out>
            <file id="file-63">
              <name>OrionEp11-062-NA.mp3</name>
              <pathurl>file:///Users/hiroshikodera/repos/_active/tools/davinciauto/projects/OrionEp11/%E3%82%B5%E3%82%A6%E3%83%B3%E3%83%89%E9%A1%9E/Narration/OrionEp11-062-NA.mp3</pathurl>
              <rate>
                <timebase>44100</timebase>
                <ntsc>FALSE</ntsc>
              </rate>
              <media>
                <audio>
                  <channelcount>1</channelcount>
                  <samplecharacteristics>
                    <samplerate>44100</samplerate>
                    <samplesize>16</samplesize>
                  </samplecharacteristics>
                </audio>
              </media>
            </file>
            <sourcetrack>
              <mediatype>audio</mediatype>
              <trackindex>1</trackindex>
            </sourcetrack>
          </clipitem>
          <clipitem id="clipitem-63">
            <name>OrionEp11-063-NA.mp3</name>
            <enabled>TRUE</enabled>
            <duration>122</duration>
            <rate>
              <timebase>30</timebase>
              <ntsc>TRUE</ntsc>
            </rate>
            <start>18233</start>
            <end>18355</end>
            <in>0</in>
            <out>122</out>
            <file id="file-64">
              <name>OrionEp11-063-NA.mp3</name>
              <pathurl>file:///Users/hiroshikodera/repos/_active/tools/davinciauto/projects/OrionEp11/%E3%82%B5%E3%82%A6%E3%83%B3%E3%83%89%E9%A1%9E/Narration/OrionEp11-063-NA.mp3</pathurl>
              <rate>
                <timebase>44100</timebase>
                <ntsc>FALSE</ntsc>
              </rate>
              <media>
                <audio>
                  <channelcount>1</channelcount>
                  <samplecharacteristics>
                    <samplerate>44100</samplerate>
                    <samplesize>16</samplesize>
                  </samplecharacteristics>
                </audio>
              </media>
            </file>
            <sourcetrack>
              <mediatype>audio</mediatype>
              <trackindex>1</trackindex>
            </sourcetrack>
          </clipitem>
          <clipitem id="clipitem-64">
            <name>OrionEp11-064-NA.mp3</name>
            <enabled>TRUE</enabled>
            <duration>315</duration>
            <rate>
              <timebase>30</timebase>
              <ntsc>TRUE</ntsc>
            </rate>
            <start>18377</start>
            <end>18692</end>
            <in>0</in>
            <out>315</out>
            <file id="file-65">
              <name>OrionEp11-064-NA.mp3</name>
              <pathurl>file:///Users/hiroshikodera/repos/_active/tools/davinciauto/projects/OrionEp11/%E3%82%B5%E3%82%A6%E3%83%B3%E3%83%89%E9%A1%9E/Narration/OrionEp11-064-NA.mp3</pathurl>
              <rate>
                <timebase>44100</timebase>
                <ntsc>FALSE</ntsc>
              </rate>
              <media>
                <audio>
                  <channelcount>1</channelcount>
                  <samplecharacteristics>
                    <samplerate>44100</samplerate>
                    <samplesize>16</samplesize>
                  </samplecharacteristics>
                </audio>
              </media>
            </file>
            <sourcetrack>
              <mediatype>audio</mediatype>
              <trackindex>1</trackindex>
            </sourcetrack>
          </clipitem>
        </track>
      </audio>
    </media>
  </sequence>
</xmeml>
