<?xml version="1.0" encoding="UTF-8"?>
<!DOCTYPE xmeml>
<xmeml version="4">
	<sequence id="sequence-1" TL.SQAudioVisibleBase="0" TL.SQVideoVisibleBase="0" TL.SQVisibleBaseTime="0" TL.SQAVDividerPosition="0.11604937911" TL.SQHideShyTracks="0" TL.SQHeaderWidth="204" Monitor.ProgramZoomOut="1765295013081600" Monitor.ProgramZoomIn="0" TL.SQTimePerPixel="2.8142184365051945" MZ.EditLine="0" MZ.Sequence.PreviewFrameSizeHeight="1080" MZ.Sequence.PreviewFrameSizeWidth="1920" MZ.Sequence.AudioTimeDisplayFormat="200" MZ.Sequence.PreviewRenderingClassID="1061109567" MZ.Sequence.PreviewRenderingPresetCodec="1634755443" MZ.Sequence.PreviewRenderingPresetPath="EncoderPresets/SequencePreview/795454d9-d3c2-429d-9474-923ab13b7018/QuickTime.epr" MZ.Sequence.PreviewUseMaxRenderQuality="false" MZ.Sequence.PreviewUseMaxBitDepth="false" MZ.Sequence.EditingModeGUID="795454d9-d3c2-429d-9474-923ab13b7018" MZ.Sequence.VideoTimeDisplayFormat="102" MZ.WorkOutPoint="15239249625600" MZ.WorkInPoint="0" explodedTracks="true">
		<uuid>291207e8-253c-4681-b45e-22434584f461</uuid>
		<duration>123131</duration>
		<rate>
			<timebase>30</timebase>
			<ntsc>TRUE</ntsc>
		</rate>
		<name>022!!_final_cut_cut</name>
		<media>
			<video>
				<format>
					
					
					<samplecharacteristics>
						
						
						<rate>
							
							
							<timebase>30</timebase>
							
							
							<ntsc>TRUE</ntsc>
							
						
						</rate>
						
						
						<codec>
							
							
							<name>Apple ProRes 422</name>
							
							
							<appspecificdata>
								
								
								<appname>Final Cut Pro</appname>
								
								
								<appmanufacturer>Apple Inc.</appmanufacturer>
								
								
								<appversion>7.0</appversion>
								
								
								<data>
									
									
									<qtcodec>
										
										
										<codecname>Apple ProRes 422</codecname>
										
										
										<codectypename>Apple ProRes 422</codectypename>
										
										
										<codectypecode>apcn</codectypecode>
										
										
										<codecvendorcode>appl</codecvendorcode>
										
										
										<spatialquality>1024</spatialquality>
										
										
										<temporalquality>0</temporalquality>
										
										
										<keyframerate>0</keyframerate>
										
										
										<datarate>0</datarate>
										
									
									</qtcodec>
									
								
								</data>
								
							
							</appspecificdata>
							
						
						</codec>
						
						
						<width>1920</width>
						
						
						<height>1080</height>
						
						
						<anamorphic>FALSE</anamorphic>
						
						
						<pixelaspectratio>square</pixelaspectratio>
						
						
						<fielddominance>upper</fielddominance>
						
						
						<colordepth>24</colordepth>
						
					
					</samplecharacteristics>
					
				
				</format>
				
				
				<track TL.SQTrackShy="0" TL.SQTrackExpandedHeight="65" TL.SQTrackExpanded="0" MZ.TrackTargeted="1" MZ.TrackName="Video 1">
					
					
					<clipitem id="clipitem-1">
						
						
						<masterclipid>masterclip-1</masterclipid>
						
						
						<name>Graphic</name>
						
						
						<enabled>TRUE</enabled>
						
						
						<duration>1294705</duration>
						
						
						<rate>
							
							
							<timebase>30</timebase>
							
							
							<ntsc>TRUE</ntsc>
							
						
						</rate>
						
						
						<start>99668</start>
						
						
						<end>99817</end>
						
						
						<in>107892</in>
						
						
						<out>108041</out>
						
						
						<pproTicksIn>914456685542400</pproTicksIn>
						
						
						<pproTicksOut>915719559955200</pproTicksOut>
						
						
						<alphatype>straight</alphatype>
						
						
						<pixelaspectratio>square</pixelaspectratio>
						
						
						<anamorphic>FALSE</anamorphic>
						
						
						<file id="file-1">
							
							
							<name>Graphic</name>
							
							
							<mediaSource>GraphicAndType</mediaSource>
							
							
							<rate>
								
								
								<timebase>30</timebase>
								
								
								<ntsc>TRUE</ntsc>
								
							
							</rate>
							
							
							<timecode>
								
								
								<rate>
									
									
									<timebase>30</timebase>
									
									
									<ntsc>TRUE</ntsc>
									
								
								</rate>
								
								
								<string>00;00;00;00</string>
								
								
								<frame>0</frame>
								
								
								<displayformat>DF</displayformat>
								
							
							</timecode>
							
							
							<media>
								
								
								<video>
									
									
									<samplecharacteristics>
										
										
										<rate>
											
											
											<timebase>30</timebase>
											
											
											<ntsc>TRUE</ntsc>
											
										
										</rate>
										
										
										<width>1920</width>
										
										
										<height>1080</height>
										
										
										<anamorphic>FALSE</anamorphic>
										
										
										<pixelaspectratio>square</pixelaspectratio>
										
										
										<fielddominance>none</fielddominance>
										
									
									</samplecharacteristics>
									
								
								</video>
								
							
							</media>
							
						
						</file>
						
						
						<filter>
							
							
							<effect>
								
								
								<name>New Text Layer</name>
								
								
								<effectid>GraphicAndType</effectid>
								
								
								<effectcategory>graphic</effectcategory>
								
								
								<effecttype>filter</effecttype>
								
								
								<mediatype>video</mediatype>
								
								
								<pproBypass>false</pproBypass>
								
								
								<parameter authoringApp="PremierePro">
									
									
									<parameterid>1</parameterid>
									
									
									<name>Source Text</name>
									
									
									<hash>222054b8-7272-6110-0817-3ed900000158</hash>
									
									
									<value>QAEAAAAAAABEMyIRDAAAAAAABgAKAAQABgAAAGQAAAAAAF4AGAAQAAwAAAAAAAAAAAAAAAAAAAAAAAAAAAAAAAAAAAAAAAAAAAAAAAAAAAAAAAAAAAAAAAAAFgAAAAAAAAAAAAAAAAAAAAAAAAAAAAAAAAAAAAgAAAAAABcABwBeAAAAAAAAARAAAAAcAAAALAAAAAAAAQBo////bP///3D///90////AQAAAAQAAAAGAAAATW9uYWNvAAABAAAADAAAAAgADgAEAAgACAAAAGgAAAA8AAAAAAA2ABQAAAAAAAAAAAAAAAAAEAAAAAAAAAAAAAAAAAAAAAAAAAAAAAAAAAAAAAAADAAAAAgABAA2AAAAAgAAAAwAAAAMAAAAAACAQPT////4/////P///wQABAAEAAAADgAAAE5ldyBUZXh0IExheWVyAAA=</value>
									
								
								</parameter>
								
								
								<parameter authoringApp="PremierePro">
									
									
									<parameterid>2</parameterid>
									
									
									<name>Transform</name>
									
									
									<IsTimeVarying>false</IsTimeVarying>
									
									
									<ParameterControlType>11</ParameterControlType>
									
									
									<LowerBound>false</LowerBound>
									
									
									<UpperBound>false</UpperBound>
									
									
									<value>-91445760000000000,false,0,0,0,0,0,0</value>
									
								
								</parameter>
								
								
								<parameter authoringApp="PremierePro">
									
									
									<parameterid>3</parameterid>
									
									
									<name>Position</name>
									
									
									<IsTimeVarying>false</IsTimeVarying>
									
									
									<value>-91445760000000000,0.5:0.5,0,0,0,0,0,0,5,4,0,0,0,0</value>
									
								
								</parameter>
								
								
								<parameter authoringApp="PremierePro">
									
									
									<parameterid>4</parameterid>
									
									
									<name>Scale</name>
									
									
									<IsTimeVarying>false</IsTimeVarying>
									
									
									<ParameterControlType>2</ParameterControlType>
									
									
									<LowerBound>0</LowerBound>
									
									
									<UpperBound>4000</UpperBound>
									
									
									<value>-91445760000000000,100.,0,0,0,0,0,0</value>
									
								
								</parameter>
								
								
								<parameter authoringApp="PremierePro">
									
									
									<parameterid>5</parameterid>
									
									
									<name>Horizontal Scale</name>
									
									
									<IsTimeVarying>false</IsTimeVarying>
									
									
									<ParameterControlType>2</ParameterControlType>
									
									
									<LowerBound>0</LowerBound>
									
									
									<UpperBound>4000</UpperBound>
									
									
									<value>-91445760000000000,100.,0,0,0,0,0,0</value>
									
								
								</parameter>
								
								
								<parameter authoringApp="PremierePro">
									
									
									<parameterid>6</parameterid>
									
									
									<name> </name>
									
									
									<IsTimeVarying>false</IsTimeVarying>
									
									
									<ParameterControlType>4</ParameterControlType>
									
									
									<LowerBound>false</LowerBound>
									
									
									<UpperBound>true</UpperBound>
									
									
									<value>-91445760000000000,true,0,0,0,0,0,0</value>
									
								
								</parameter>
								
								
								<parameter authoringApp="PremierePro">
									
									
									<parameterid>7</parameterid>
									
									
									<name>Rotation</name>
									
									
									<IsTimeVarying>false</IsTimeVarying>
									
									
									<ParameterControlType>3</ParameterControlType>
									
									
									<LowerBound>-32768</LowerBound>
									
									
									<UpperBound>32767</UpperBound>
									
									
									<value>-91445760000000000,0.,0,0,0,0,0,0</value>
									
								
								</parameter>
								
								
								<parameter authoringApp="PremierePro">
									
									
									<parameterid>8</parameterid>
									
									
									<name>Opacity</name>
									
									
									<IsTimeVarying>false</IsTimeVarying>
									
									
									<ParameterControlType>2</ParameterControlType>
									
									
									<LowerBound>0</LowerBound>
									
									
									<UpperBound>100</UpperBound>
									
									
									<value>-91445760000000000,100.,0,0,0,0,0,0</value>
									
								
								</parameter>
								
								
								<parameter authoringApp="PremierePro">
									
									
									<parameterid>9</parameterid>
									
									
									<name>Anchor Point</name>
									
									
									<IsTimeVarying>false</IsTimeVarying>
									
									
									<value>-91445760000000000,0:0,0,0,0,0,0,0,5,4,0,0,0,0</value>
									
								
								</parameter>
								
								
								<parameter authoringApp="PremierePro">
									
									
									<parameterid>10</parameterid>
									
									
									<name/>
									
									
									<IsTimeVarying>false</IsTimeVarying>
									
									
									<ParameterControlType>12</ParameterControlType>
									
									
									<LowerBound>false</LowerBound>
									
									
									<UpperBound>false</UpperBound>
									
									
									<value>-91445760000000000,false,0,0,0,0,0,0</value>
									
								
								</parameter>
								
								
								<parameter authoringApp="PremierePro">
									
									
									<parameterid>11</parameterid>
									
									
									<name> </name>
									
									
									<IsTimeVarying>false</IsTimeVarying>
									
									
									<ParameterControlType>8</ParameterControlType>
									
									
									<LowerBound>0</LowerBound>
									
									
									<UpperBound>32768</UpperBound>
									
									
									<value>-91445760000000000,0.,0,0,0,0,0,0</value>
									
								
								</parameter>
								
								
								<parameter authoringApp="PremierePro">
									
									
									<parameterid>12</parameterid>
									
									
									<name> </name>
									
									
									<IsTimeVarying>false</IsTimeVarying>
									
									
									<ParameterControlType>8</ParameterControlType>
									
									
									<LowerBound>0</LowerBound>
									
									
									<UpperBound>32768</UpperBound>
									
									
									<value>-91445760000000000,0.,0,0,0,0,0,0</value>
									
								
								</parameter>
								
								
								<parameter authoringApp="PremierePro">
									
									
									<parameterid>13</parameterid>
									
									
									<name>start</name>
									
									
									<IsTimeVarying>false</IsTimeVarying>
									
									
									<ParameterControlType>8</ParameterControlType>
									
									
									<LowerBound>-100</LowerBound>
									
									
									<UpperBound>1000000000</UpperBound>
									
									
									<value>-91445760000000000,1.,0,0,0,0,0,0</value>
									
								
								</parameter>
								
								
								<parameter authoringApp="PremierePro">
									
									
									<parameterid>14</parameterid>
									
									
									<name>end</name>
									
									
									<IsTimeVarying>false</IsTimeVarying>
									
									
									<ParameterControlType>8</ParameterControlType>
									
									
									<LowerBound>-100</LowerBound>
									
									
									<UpperBound>1000000000</UpperBound>
									
									
									<value>-91445760000000000,1.,0,0,0,0,0,0</value>
									
								
								</parameter>
								
								
								<parameter authoringApp="PremierePro">
									
									
									<parameterid>15</parameterid>
									
									
									<name> </name>
									
									
									<IsTimeVarying>false</IsTimeVarying>
									
									
									<ParameterControlType>4</ParameterControlType>
									
									
									<LowerBound>false</LowerBound>
									
									
									<UpperBound>true</UpperBound>
									
									
									<value>-91445760000000000,false,0,0,0,0,0,0</value>
									
								
								</parameter>
								
								
								<parameter authoringApp="PremierePro">
									
									
									<parameterid>16</parameterid>
									
									
									<name> </name>
									
									
									<IsTimeVarying>false</IsTimeVarying>
									
									
									<ParameterControlType>4</ParameterControlType>
									
									
									<LowerBound>false</LowerBound>
									
									
									<UpperBound>true</UpperBound>
									
									
									<value>-91445760000000000,false,0,0,0,0,0,0</value>
									
								
								</parameter>
								
								
								<parameter authoringApp="PremierePro">
									
									
									<parameterid>17</parameterid>
									
									
									<name> </name>
									
									
									<IsTimeVarying>false</IsTimeVarying>
									
									
									<ParameterControlType>4</ParameterControlType>
									
									
									<LowerBound>false</LowerBound>
									
									
									<UpperBound>true</UpperBound>
									
									
									<value>-91445760000000000,false,0,0,0,0,0,0</value>
									
								
								</parameter>
								
								
								<parameter authoringApp="PremierePro">
									
									
									<parameterid>18</parameterid>
									
									
									<name> </name>
									
									
									<IsTimeVarying>false</IsTimeVarying>
									
									
									<ParameterControlType>4</ParameterControlType>
									
									
									<LowerBound>false</LowerBound>
									
									
									<UpperBound>true</UpperBound>
									
									
									<value>-91445760000000000,false,0,0,0,0,0,0</value>
									
								
								</parameter>
								
								
								<parameter authoringApp="PremierePro">
									
									
									<parameterid>19</parameterid>
									
									
									<name>Parent Width</name>
									
									
									<IsTimeVarying>false</IsTimeVarying>
									
									
									<ParameterControlType>2</ParameterControlType>
									
									
									<LowerBound>0</LowerBound>
									
									
									<UpperBound>20000</UpperBound>
									
									
									<value>-91445760000000000,0.,0,0,0,0,0,0</value>
									
								
								</parameter>
								
								
								<parameter authoringApp="PremierePro">
									
									
									<parameterid>20</parameterid>
									
									
									<name>Parent Height</name>
									
									
									<IsTimeVarying>false</IsTimeVarying>
									
									
									<ParameterControlType>2</ParameterControlType>
									
									
									<LowerBound>0</LowerBound>
									
									
									<UpperBound>20000</UpperBound>
									
									
									<value>-91445760000000000,0.,0,0,0,0,0,0</value>
									
								
								</parameter>
								
								
								<parameter authoringApp="PremierePro">
									
									
									<parameterid>21</parameterid>
									
									
									<name>Parent Rotation</name>
									
									
									<IsTimeVarying>false</IsTimeVarying>
									
									
									<ParameterControlType>3</ParameterControlType>
									
									
									<LowerBound>-32768</LowerBound>
									
									
									<UpperBound>32767</UpperBound>
									
									
									<value>-91445760000000000,0.,0,0,0,0,0,0</value>
									
								
								</parameter>
								
								
								<parameter authoringApp="PremierePro">
									
									
									<parameterid>22</parameterid>
									
									
									<name> </name>
									
									
									<IsTimeVarying>false</IsTimeVarying>
									
									
									<ParameterControlType>4</ParameterControlType>
									
									
									<LowerBound>false</LowerBound>
									
									
									<UpperBound>true</UpperBound>
									
									
									<value>-91445760000000000,false,0,0,0,0,0,0</value>
									
								
								</parameter>
								
							
							</effect>
							
						
						</filter>
						
						
						<logginginfo>
							
							
							<description/>
							
							
							<scene/>
							
							
							<shottake/>
							
							
							<lognote/>
							
							
							<good/>
							
							
							<originalvideofilename/>
							
							
							<originalaudiofilename/>
							
						
						</logginginfo>
						
						
						<colorinfo>
							
							
							<lut/>
							
							
							<lut1/>
							
							
							<asc_sop/>
							
							
							<asc_sat/>
							
							
							<lut2/>
							
						
						</colorinfo>
						
						
						<labels>
						</labels>
						
					
					</clipitem>
					
					
					<enabled>TRUE</enabled>
					
					
					<locked>FALSE</locked>
					
				
				</track>
				
				
				<track TL.SQTrackShy="0" TL.SQTrackExpandedHeight="65" TL.SQTrackExpanded="0" MZ.TrackTargeted="0" MZ.TrackName="Video 2">
					
					
					<enabled>TRUE</enabled>
					
					
					<locked>FALSE</locked>
					
				
				</track>
				
				
				<track TL.SQTrackShy="0" TL.SQTrackExpandedHeight="65" TL.SQTrackExpanded="0" MZ.TrackTargeted="0" MZ.TrackName="Video 3">
					
					
					<enabled>TRUE</enabled>
					
					
					<locked>FALSE</locked>
					
				
				</track>
				
			
			</video>
			<audio>
				<numOutputChannels>6</numOutputChannels>
				
				
				<format>
					
					
					<samplecharacteristics>
						
						
						<depth>16</depth>
						
						
						<samplerate>48000</samplerate>
						
					
					</samplecharacteristics>
					
				
				</format>
				
				
				<outputs>
					
					
					<group>
						
						
						<index>1</index>
						
						
						<numchannels>1</numchannels>
						
						
						<downmix>0</downmix>
						
						
						<channel>
							
							
							<index>1</index>
							
						
						</channel>
						
					
					</group>
					
					
					<group>
						
						
						<index>2</index>
						
						
						<numchannels>1</numchannels>
						
						
						<downmix>0</downmix>
						
						
						<channel>
							
							
							<index>2</index>
							
						
						</channel>
						
					
					</group>
					
					
					<group>
						
						
						<index>3</index>
						
						
						<numchannels>1</numchannels>
						
						
						<downmix>0</downmix>
						
						
						<channel>
							
							
							<index>3</index>
							
						
						</channel>
						
					
					</group>
					
					
					<group>
						
						
						<index>4</index>
						
						
						<numchannels>1</numchannels>
						
						
						<downmix>0</downmix>
						
						
						<channel>
							
							
							<index>4</index>
							
						
						</channel>
						
					
					</group>
					
					
					<group>
						
						
						<index>5</index>
						
						
						<numchannels>1</numchannels>
						
						
						<downmix>0</downmix>
						
						
						<channel>
							
							
							<index>5</index>
							
						
						</channel>
						
					
					</group>
					
					
					<group>
						
						
						<index>6</index>
						
						
						<numchannels>1</numchannels>
						
						
						<downmix>0</downmix>
						
						
						<channel>
							
							
							<index>6</index>
							
						
						</channel>
						
					
					</group>
					
				
				</outputs>
				
				
				<track TL.SQTrackAudioKeyframeStyle="0" TL.SQTrackShy="0" TL.SQTrackExpandedHeight="130" TL.SQTrackExpanded="0" MZ.TrackTargeted="1" MZ.TrackName="Output 1" PannerCurrentValue="0" PannerIsInverted="true" PannerStartKeyframe="-91445760000000000,0.,0,0,0,0,0,0" PannerName="Pan" currentExplodedTrackIndex="0" totalExplodedTrackCount="1" premiereTrackType="Mono">
					<clipitem id="clipitem-1" premiereChannelType="mono">
						<masterclipid>masterclip-1</masterclipid>
						<name>moriyama_all.wav</name>
						<enabled>TRUE</enabled>
						<duration>12298</duration>
						<rate>
							<timebase>30</timebase>
							<ntsc>TRUE</ntsc>
						</rate>
						<start>0</start>
						<end>3957</end>
						<in>8341</in>
						<out>12298</out>
						<pproTicksIn>70624915200000</pproTicksIn>
						<pproTicksOut>104129625600000</pproTicksOut>
						<file id="file-1">
							<name>moriyama_all.wav</name>
							
							
							<pathurl>file://localhost/Volumes/P-40/Dropbox/%e3%83%95%e3%82%9a%e3%83%a9%e3%83%83%e3%81%a8/01_%e3%83%95%e3%82%9a%e3%83%a9%e3%83%83%e3%81%a8%e7%b4%a0%e6%9d%90/022_%e6%88%90%e7%94%b0%e6%a3%ae%e5%b1%b1/022_main/moriyama_all.wav</pathurl>
							
							
							<rate>
								
								
								<timebase>24</timebase>
								
								
								<ntsc>FALSE</ntsc>
								
							
							</rate>
							
							
							<duration>166792</duration>
							
							
							<timecode>
								
								
								<rate>
									
									
									<timebase>24</timebase>
									
									
									<ntsc>FALSE</ntsc>
									
								
								</rate>
								
								
								<string>00:00:00:00</string>
								
								
								<frame>0</frame>
								
								
								<displayformat>NDF</displayformat>
								
							
							</timecode>
							
							
							<media>
								
								
								<audio>
									
									
									<samplecharacteristics>
										
										
										<depth>16</depth>
										
										
										<samplerate>48000</samplerate>
										
									
									</samplecharacteristics>
									
									
									<channelcount>1</channelcount>
									
									
									<layout>stereo</layout>
									
									
									<audiochannel>
										
										
										<sourcechannel>1</sourcechannel>
										
										
										<channellabel>left</channellabel>
										
									
									</audiochannel>
									
								
								</audio>
								
								
								<audio>
									
									
									<samplecharacteristics>
										
										
										<depth>16</depth>
										
										
										<samplerate>48000</samplerate>
										
									
									</samplecharacteristics>
									
									
									<channelcount>1</channelcount>
									
									
									<layout>stereo</layout>
									
									
									<audiochannel>
										
										
										<sourcechannel>2</sourcechannel>
										
										
										<channellabel>right</channellabel>
										
									
									</audiochannel>
									
								
								</audio>
								
							
							</media>
							
						
						</file>
						<labels>
							<label2>Violet</label2>
						</labels>
					</clipitem>
					<clipitem id="clipitem-2" premiereChannelType="mono">
						<masterclipid>masterclip-1</masterclipid>
						<name>moriyama_all.wav</name>
						<enabled>TRUE</enabled>
						<duration>15255</duration>
						<rate>
							<timebase>30</timebase>
							<ntsc>TRUE</ntsc>
						</rate>
						<start>4106</start>
						<end>6195</end>
						<in>13166</in>
						<out>15255</out>
						<pproTicksIn>111479155200000</pproTicksIn>
						<pproTicksOut>129167136000000</pproTicksOut>
						<file id="file-1">
							<name>moriyama_all.wav</name>
							
							
							<pathurl>file://localhost/Volumes/P-40/Dropbox/%e3%83%95%e3%82%9a%e3%83%a9%e3%83%83%e3%81%a8/01_%e3%83%95%e3%82%9a%e3%83%a9%e3%83%83%e3%81%a8%e7%b4%a0%e6%9d%90/022_%e6%88%90%e7%94%b0%e6%a3%ae%e5%b1%b1/022_main/moriyama_all.wav</pathurl>
							
							
							<rate>
								
								
								<timebase>24</timebase>
								
								
								<ntsc>FALSE</ntsc>
								
							
							</rate>
							
							
							<duration>166792</duration>
							
							
							<timecode>
								
								
								<rate>
									
									
									<timebase>24</timebase>
									
									
									<ntsc>FALSE</ntsc>
									
								
								</rate>
								
								
								<string>00:00:00:00</string>
								
								
								<frame>0</frame>
								
								
								<displayformat>NDF</displayformat>
								
							
							</timecode>
							
							
							<media>
								
								
								<audio>
									
									
									<samplecharacteristics>
										
										
										<depth>16</depth>
										
										
										<samplerate>48000</samplerate>
										
									
									</samplecharacteristics>
									
									
									<channelcount>1</channelcount>
									
									
									<layout>stereo</layout>
									
									
									<audiochannel>
										
										
										<sourcechannel>1</sourcechannel>
										
										
										<channellabel>left</channellabel>
										
									
									</audiochannel>
									
								
								</audio>
								
								
								<audio>
									
									
									<samplecharacteristics>
										
										
										<depth>16</depth>
										
										
										<samplerate>48000</samplerate>
										
									
									</samplecharacteristics>
									
									
									<channelcount>1</channelcount>
									
									
									<layout>stereo</layout>
									
									
									<audiochannel>
										
										
										<sourcechannel>2</sourcechannel>
										
										
										<channellabel>right</channellabel>
										
									
									</audiochannel>
									
								
								</audio>
								
							
							</media>
							
						
						</file>
						<labels>
							<label2>Rose</label2>
						</labels>
					</clipitem>
					<clipitem id="clipitem-3" premiereChannelType="mono">
						<masterclipid>masterclip-1</masterclipid>
						<name>moriyama_all.wav</name>
						<enabled>TRUE</enabled>
						<duration>31868</duration>
						<rate>
							<timebase>30</timebase>
							<ntsc>TRUE</ntsc>
						</rate>
						<start>6344</start>
						<end>15334</end>
						<in>22878</in>
						<out>31868</out>
						<pproTicksIn>193712601600000</pproTicksIn>
						<pproTicksOut>269832729600000</pproTicksOut>
						<file id="file-1">
							<name>moriyama_all.wav</name>
							
							
							<pathurl>file://localhost/Volumes/P-40/Dropbox/%e3%83%95%e3%82%9a%e3%83%a9%e3%83%83%e3%81%a8/01_%e3%83%95%e3%82%9a%e3%83%a9%e3%83%83%e3%81%a8%e7%b4%a0%e6%9d%90/022_%e6%88%90%e7%94%b0%e6%a3%ae%e5%b1%b1/022_main/moriyama_all.wav</pathurl>
							
							
							<rate>
								
								
								<timebase>24</timebase>
								
								
								<ntsc>FALSE</ntsc>
								
							
							</rate>
							
							
							<duration>166792</duration>
							
							
							<timecode>
								
								
								<rate>
									
									
									<timebase>24</timebase>
									
									
									<ntsc>FALSE</ntsc>
									
								
								</rate>
								
								
								<string>00:00:00:00</string>
								
								
								<frame>0</frame>
								
								
								<displayformat>NDF</displayformat>
								
							
							</timecode>
							
							
							<media>
								
								
								<audio>
									
									
									<samplecharacteristics>
										
										
										<depth>16</depth>
										
										
										<samplerate>48000</samplerate>
										
									
									</samplecharacteristics>
									
									
									<channelcount>1</channelcount>
									
									
									<layout>stereo</layout>
									
									
									<audiochannel>
										
										
										<sourcechannel>1</sourcechannel>
										
										
										<channellabel>left</channellabel>
										
									
									</audiochannel>
									
								
								</audio>
								
								
								<audio>
									
									
									<samplecharacteristics>
										
										
										<depth>16</depth>
										
										
										<samplerate>48000</samplerate>
										
									
									</samplecharacteristics>
									
									
									<channelcount>1</channelcount>
									
									
									<layout>stereo</layout>
									
									
									<audiochannel>
										
										
										<sourcechannel>2</sourcechannel>
										
										
										<channellabel>right</channellabel>
										
									
									</audiochannel>
									
								
								</audio>
								
							
							</media>
							
						
						</file>
						<labels>
							<label2>Yellow</label2>
						</labels>
					</clipitem>
					<clipitem id="clipitem-4" premiereChannelType="mono">
						<masterclipid>masterclip-1</masterclipid>
						<name>moriyama_all.wav</name>
						<enabled>TRUE</enabled>
						<duration>35155</duration>
						<rate>
							<timebase>30</timebase>
							<ntsc>TRUE</ntsc>
						</rate>
						<start>15483</start>
						<end>17727</end>
						<in>32911</in>
						<out>35155</out>
						<pproTicksIn>278664019200000</pproTicksIn>
						<pproTicksOut>297664416000000</pproTicksOut>
						<file id="file-1">
							<name>moriyama_all.wav</name>
							
							
							<pathurl>file://localhost/Volumes/P-40/Dropbox/%e3%83%95%e3%82%9a%e3%83%a9%e3%83%83%e3%81%a8/01_%e3%83%95%e3%82%9a%e3%83%a9%e3%83%83%e3%81%a8%e7%b4%a0%e6%9d%90/022_%e6%88%90%e7%94%b0%e6%a3%ae%e5%b1%b1/022_main/moriyama_all.wav</pathurl>
							
							
							<rate>
								
								
								<timebase>24</timebase>
								
								
								<ntsc>FALSE</ntsc>
								
							
							</rate>
							
							
							<duration>166792</duration>
							
							
							<timecode>
								
								
								<rate>
									
									
									<timebase>24</timebase>
									
									
									<ntsc>FALSE</ntsc>
									
								
								</rate>
								
								
								<string>00:00:00:00</string>
								
								
								<frame>0</frame>
								
								
								<displayformat>NDF</displayformat>
								
							
							</timecode>
							
							
							<media>
								
								
								<audio>
									
									
									<samplecharacteristics>
										
										
										<depth>16</depth>
										
										
										<samplerate>48000</samplerate>
										
									
									</samplecharacteristics>
									
									
									<channelcount>1</channelcount>
									
									
									<layout>stereo</layout>
									
									
									<audiochannel>
										
										
										<sourcechannel>1</sourcechannel>
										
										
										<channellabel>left</channellabel>
										
									
									</audiochannel>
									
								
								</audio>
								
								
								<audio>
									
									
									<samplecharacteristics>
										
										
										<depth>16</depth>
										
										
										<samplerate>48000</samplerate>
										
									
									</samplecharacteristics>
									
									
									<channelcount>1</channelcount>
									
									
									<layout>stereo</layout>
									
									
									<audiochannel>
										
										
										<sourcechannel>2</sourcechannel>
										
										
										<channellabel>right</channellabel>
										
									
									</audiochannel>
									
								
								</audio>
								
							
							</media>
							
						
						</file>
						<labels>
							<label2>Mango</label2>
						</labels>
					</clipitem>
					<clipitem id="clipitem-5" premiereChannelType="mono">
						<masterclipid>masterclip-1</masterclipid>
						<name>moriyama_all.wav</name>
						<enabled>TRUE</enabled>
						<duration>45305</duration>
						<rate>
							<timebase>30</timebase>
							<ntsc>TRUE</ntsc>
						</rate>
						<start>17876</start>
						<end>21638</end>
						<in>41543</in>
						<out>45305</out>
						<pproTicksIn>351752889600000</pproTicksIn>
						<pproTicksOut>383606496000000</pproTicksOut>
						<file id="file-1">
							<name>moriyama_all.wav</name>
							
							
							<pathurl>file://localhost/Volumes/P-40/Dropbox/%e3%83%95%e3%82%9a%e3%83%a9%e3%83%83%e3%81%a8/01_%e3%83%95%e3%82%9a%e3%83%a9%e3%83%83%e3%81%a8%e7%b4%a0%e6%9d%90/022_%e6%88%90%e7%94%b0%e6%a3%ae%e5%b1%b1/022_main/moriyama_all.wav</pathurl>
							
							
							<rate>
								
								
								<timebase>24</timebase>
								
								
								<ntsc>FALSE</ntsc>
								
							
							</rate>
							
							
							<duration>166792</duration>
							
							
							<timecode>
								
								
								<rate>
									
									
									<timebase>24</timebase>
									
									
									<ntsc>FALSE</ntsc>
									
								
								</rate>
								
								
								<string>00:00:00:00</string>
								
								
								<frame>0</frame>
								
								
								<displayformat>NDF</displayformat>
								
							
							</timecode>
							
							
							<media>
								
								
								<audio>
									
									
									<samplecharacteristics>
										
										
										<depth>16</depth>
										
										
										<samplerate>48000</samplerate>
										
									
									</samplecharacteristics>
									
									
									<channelcount>1</channelcount>
									
									
									<layout>stereo</layout>
									
									
									<audiochannel>
										
										
										<sourcechannel>1</sourcechannel>
										
										
										<channellabel>left</channellabel>
										
									
									</audiochannel>
									
								
								</audio>
								
								
								<audio>
									
									
									<samplecharacteristics>
										
										
										<depth>16</depth>
										
										
										<samplerate>48000</samplerate>
										
									
									</samplecharacteristics>
									
									
									<channelcount>1</channelcount>
									
									
									<layout>stereo</layout>
									
									
									<audiochannel>
										
										
										<sourcechannel>2</sourcechannel>
										
										
										<channellabel>right</channellabel>
										
									
									</audiochannel>
									
								
								</audio>
								
							
							</media>
							
						
						</file>
						<labels>
							<label2>Lavender</label2>
						</labels>
					</clipitem>
					<clipitem id="clipitem-6" premiereChannelType="mono">
						<masterclipid>masterclip-1</masterclipid>
						<name>moriyama_all.wav</name>
						<enabled>TRUE</enabled>
						<duration>50013</duration>
						<rate>
							<timebase>30</timebase>
							<ntsc>TRUE</ntsc>
						</rate>
						<start>21787</start>
						<end>26493</end>
						<in>45307</in>
						<out>50013</out>
						<pproTicksIn>383623430400000</pproTicksIn>
						<pproTicksOut>423470073600000</pproTicksOut>
						<file id="file-1">
							<name>moriyama_all.wav</name>
							
							
							<pathurl>file://localhost/Volumes/P-40/Dropbox/%e3%83%95%e3%82%9a%e3%83%a9%e3%83%83%e3%81%a8/01_%e3%83%95%e3%82%9a%e3%83%a9%e3%83%83%e3%81%a8%e7%b4%a0%e6%9d%90/022_%e6%88%90%e7%94%b0%e6%a3%ae%e5%b1%b1/022_main/moriyama_all.wav</pathurl>
							
							
							<rate>
								
								
								<timebase>24</timebase>
								
								
								<ntsc>FALSE</ntsc>
								
							
							</rate>
							
							
							<duration>166792</duration>
							
							
							<timecode>
								
								
								<rate>
									
									
									<timebase>24</timebase>
									
									
									<ntsc>FALSE</ntsc>
									
								
								</rate>
								
								
								<string>00:00:00:00</string>
								
								
								<frame>0</frame>
								
								
								<displayformat>NDF</displayformat>
								
							
							</timecode>
							
							
							<media>
								
								
								<audio>
									
									
									<samplecharacteristics>
										
										
										<depth>16</depth>
										
										
										<samplerate>48000</samplerate>
										
									
									</samplecharacteristics>
									
									
									<channelcount>1</channelcount>
									
									
									<layout>stereo</layout>
									
									
									<audiochannel>
										
										
										<sourcechannel>1</sourcechannel>
										
										
										<channellabel>left</channellabel>
										
									
									</audiochannel>
									
								
								</audio>
								
								
								<audio>
									
									
									<samplecharacteristics>
										
										
										<depth>16</depth>
										
										
										<samplerate>48000</samplerate>
										
									
									</samplecharacteristics>
									
									
									<channelcount>1</channelcount>
									
									
									<layout>stereo</layout>
									
									
									<audiochannel>
										
										
										<sourcechannel>2</sourcechannel>
										
										
										<channellabel>right</channellabel>
										
									
									</audiochannel>
									
								
								</audio>
								
							
							</media>
							
						
						</file>
						<labels>
							<label2>Caribbean</label2>
						</labels>
					</clipitem>
					<clipitem id="clipitem-7" premiereChannelType="mono">
						<masterclipid>masterclip-1</masterclipid>
						<name>moriyama_all.wav</name>
						<enabled>TRUE</enabled>
						<duration>52212</duration>
						<rate>
							<timebase>30</timebase>
							<ntsc>TRUE</ntsc>
						</rate>
						<start>26642</start>
						<end>28421</end>
						<in>50433</in>
						<out>52212</out>
						<pproTicksIn>427026297600000</pproTicksIn>
						<pproTicksOut>442089446400000</pproTicksOut>
						<file id="file-1">
							<name>moriyama_all.wav</name>
							
							
							<pathurl>file://localhost/Volumes/P-40/Dropbox/%e3%83%95%e3%82%9a%e3%83%a9%e3%83%83%e3%81%a8/01_%e3%83%95%e3%82%9a%e3%83%a9%e3%83%83%e3%81%a8%e7%b4%a0%e6%9d%90/022_%e6%88%90%e7%94%b0%e6%a3%ae%e5%b1%b1/022_main/moriyama_all.wav</pathurl>
							
							
							<rate>
								
								
								<timebase>24</timebase>
								
								
								<ntsc>FALSE</ntsc>
								
							
							</rate>
							
							
							<duration>166792</duration>
							
							
							<timecode>
								
								
								<rate>
									
									
									<timebase>24</timebase>
									
									
									<ntsc>FALSE</ntsc>
									
								
								</rate>
								
								
								<string>00:00:00:00</string>
								
								
								<frame>0</frame>
								
								
								<displayformat>NDF</displayformat>
								
							
							</timecode>
							
							
							<media>
								
								
								<audio>
									
									
									<samplecharacteristics>
										
										
										<depth>16</depth>
										
										
										<samplerate>48000</samplerate>
										
									
									</samplecharacteristics>
									
									
									<channelcount>1</channelcount>
									
									
									<layout>stereo</layout>
									
									
									<audiochannel>
										
										
										<sourcechannel>1</sourcechannel>
										
										
										<channellabel>left</channellabel>
										
									
									</audiochannel>
									
								
								</audio>
								
								
								<audio>
									
									
									<samplecharacteristics>
										
										
										<depth>16</depth>
										
										
										<samplerate>48000</samplerate>
										
									
									</samplecharacteristics>
									
									
									<channelcount>1</channelcount>
									
									
									<layout>stereo</layout>
									
									
									<audiochannel>
										
										
										<sourcechannel>2</sourcechannel>
										
										
										<channellabel>right</channellabel>
										
									
									</audiochannel>
									
								
								</audio>
								
							
							</media>
							
						
						</file>
						<labels>
							<label2>Tan</label2>
						</labels>
					</clipitem>
					<clipitem id="clipitem-8" premiereChannelType="mono">
						<masterclipid>masterclip-1</masterclipid>
						<name>moriyama_all.wav</name>
						<enabled>TRUE</enabled>
						<duration>68528</duration>
						<rate>
							<timebase>30</timebase>
							<ntsc>TRUE</ntsc>
						</rate>
						<start>28570</start>
						<end>40346</end>
						<in>56752</in>
						<out>68528</out>
						<pproTicksIn>480530534400000</pproTicksIn>
						<pproTicksOut>580240281600000</pproTicksOut>
						<file id="file-1">
							<name>moriyama_all.wav</name>
							
							
							<pathurl>file://localhost/Volumes/P-40/Dropbox/%e3%83%95%e3%82%9a%e3%83%a9%e3%83%83%e3%81%a8/01_%e3%83%95%e3%82%9a%e3%83%a9%e3%83%83%e3%81%a8%e7%b4%a0%e6%9d%90/022_%e6%88%90%e7%94%b0%e6%a3%ae%e5%b1%b1/022_main/moriyama_all.wav</pathurl>
							
							
							<rate>
								
								
								<timebase>24</timebase>
								
								
								<ntsc>FALSE</ntsc>
								
							
							</rate>
							
							
							<duration>166792</duration>
							
							
							<timecode>
								
								
								<rate>
									
									
									<timebase>24</timebase>
									
									
									<ntsc>FALSE</ntsc>
									
								
								</rate>
								
								
								<string>00:00:00:00</string>
								
								
								<frame>0</frame>
								
								
								<displayformat>NDF</displayformat>
								
							
							</timecode>
							
							
							<media>
								
								
								<audio>
									
									
									<samplecharacteristics>
										
										
										<depth>16</depth>
										
										
										<samplerate>48000</samplerate>
										
									
									</samplecharacteristics>
									
									
									<channelcount>1</channelcount>
									
									
									<layout>stereo</layout>
									
									
									<audiochannel>
										
										
										<sourcechannel>1</sourcechannel>
										
										
										<channellabel>left</channellabel>
										
									
									</audiochannel>
									
								
								</audio>
								
								
								<audio>
									
									
									<samplecharacteristics>
										
										
										<depth>16</depth>
										
										
										<samplerate>48000</samplerate>
										
									
									</samplecharacteristics>
									
									
									<channelcount>1</channelcount>
									
									
									<layout>stereo</layout>
									
									
									<audiochannel>
										
										
										<sourcechannel>2</sourcechannel>
										
										
										<channellabel>right</channellabel>
										
									
									</audiochannel>
									
								
								</audio>
								
							
							</media>
							
						
						</file>
						<labels>
							<label2>Forest</label2>
						</labels>
					</clipitem>
					<clipitem id="clipitem-9" premiereChannelType="mono">
						<masterclipid>masterclip-1</masterclipid>
						<name>moriyama_all.wav</name>
						<enabled>TRUE</enabled>
						<duration>83377</duration>
						<rate>
							<timebase>30</timebase>
							<ntsc>TRUE</ntsc>
						</rate>
						<start>40495</start>
						<end>55341</end>
						<in>68531</in>
						<out>83377</out>
						<pproTicksIn>580265683200000</pproTicksIn>
						<pproTicksOut>705969734400000</pproTicksOut>
						<file id="file-1">
							<name>moriyama_all.wav</name>
							
							
							<pathurl>file://localhost/Volumes/P-40/Dropbox/%e3%83%95%e3%82%9a%e3%83%a9%e3%83%83%e3%81%a8/01_%e3%83%95%e3%82%9a%e3%83%a9%e3%83%83%e3%81%a8%e7%b4%a0%e6%9d%90/022_%e6%88%90%e7%94%b0%e6%a3%ae%e5%b1%b1/022_main/moriyama_all.wav</pathurl>
							
							
							<rate>
								
								
								<timebase>24</timebase>
								
								
								<ntsc>FALSE</ntsc>
								
							
							</rate>
							
							
							<duration>166792</duration>
							
							
							<timecode>
								
								
								<rate>
									
									
									<timebase>24</timebase>
									
									
									<ntsc>FALSE</ntsc>
									
								
								</rate>
								
								
								<string>00:00:00:00</string>
								
								
								<frame>0</frame>
								
								
								<displayformat>NDF</displayformat>
								
							
							</timecode>
							
							
							<media>
								
								
								<audio>
									
									
									<samplecharacteristics>
										
										
										<depth>16</depth>
										
										
										<samplerate>48000</samplerate>
										
									
									</samplecharacteristics>
									
									
									<channelcount>1</channelcount>
									
									
									<layout>stereo</layout>
									
									
									<audiochannel>
										
										
										<sourcechannel>1</sourcechannel>
										
										
										<channellabel>left</channellabel>
										
									
									</audiochannel>
									
								
								</audio>
								
								
								<audio>
									
									
									<samplecharacteristics>
										
										
										<depth>16</depth>
										
										
										<samplerate>48000</samplerate>
										
									
									</samplecharacteristics>
									
									
									<channelcount>1</channelcount>
									
									
									<layout>stereo</layout>
									
									
									<audiochannel>
										
										
										<sourcechannel>2</sourcechannel>
										
										
										<channellabel>right</channellabel>
										
									
									</audiochannel>
									
								
								</audio>
								
							
							</media>
							
						
						</file>
						<labels>
							<label2>Purple</label2>
						</labels>
					</clipitem>
					<clipitem id="clipitem-10" premiereChannelType="mono">
						<masterclipid>masterclip-1</masterclipid>
						<name>moriyama_all.wav</name>
						<enabled>TRUE</enabled>
						<duration>96240</duration>
						<rate>
							<timebase>30</timebase>
							<ntsc>TRUE</ntsc>
						</rate>
						<start>55490</start>
						<end>68351</end>
						<in>83379</in>
						<out>96240</out>
						<pproTicksIn>705986668800000</pproTicksIn>
						<pproTicksOut>814883328000000</pproTicksOut>
						<file id="file-1">
							<name>moriyama_all.wav</name>
							
							
							<pathurl>file://localhost/Volumes/P-40/Dropbox/%e3%83%95%e3%82%9a%e3%83%a9%e3%83%83%e3%81%a8/01_%e3%83%95%e3%82%9a%e3%83%a9%e3%83%83%e3%81%a8%e7%b4%a0%e6%9d%90/022_%e6%88%90%e7%94%b0%e6%a3%ae%e5%b1%b1/022_main/moriyama_all.wav</pathurl>
							
							
							<rate>
								
								
								<timebase>24</timebase>
								
								
								<ntsc>FALSE</ntsc>
								
							
							</rate>
							
							
							<duration>166792</duration>
							
							
							<timecode>
								
								
								<rate>
									
									
									<timebase>24</timebase>
									
									
									<ntsc>FALSE</ntsc>
									
								
								</rate>
								
								
								<string>00:00:00:00</string>
								
								
								<frame>0</frame>
								
								
								<displayformat>NDF</displayformat>
								
							
							</timecode>
							
							
							<media>
								
								
								<audio>
									
									
									<samplecharacteristics>
										
										
										<depth>16</depth>
										
										
										<samplerate>48000</samplerate>
										
									
									</samplecharacteristics>
									
									
									<channelcount>1</channelcount>
									
									
									<layout>stereo</layout>
									
									
									<audiochannel>
										
										
										<sourcechannel>1</sourcechannel>
										
										
										<channellabel>left</channellabel>
										
									
									</audiochannel>
									
								
								</audio>
								
								
								<audio>
									
									
									<samplecharacteristics>
										
										
										<depth>16</depth>
										
										
										<samplerate>48000</samplerate>
										
									
									</samplecharacteristics>
									
									
									<channelcount>1</channelcount>
									
									
									<layout>stereo</layout>
									
									
									<audiochannel>
										
										
										<sourcechannel>2</sourcechannel>
										
										
										<channellabel>right</channellabel>
										
									
									</audiochannel>
									
								
								</audio>
								
							
							</media>
							
						
						</file>
						<labels>
							<label2>Teal</label2>
						</labels>
					</clipitem>
					<clipitem id="clipitem-11" premiereChannelType="mono">
						<masterclipid>masterclip-1</masterclipid>
						<name>moriyama_all.wav</name>
						<enabled>TRUE</enabled>
						<duration>107570</duration>
						<rate>
							<timebase>30</timebase>
							<ntsc>TRUE</ntsc>
						</rate>
						<start>68500</start>
						<end>79827</end>
						<in>96243</in>
						<out>107570</out>
						<pproTicksIn>814908729600000</pproTicksIn>
						<pproTicksOut>910816704000000</pproTicksOut>
						<file id="file-1">
							<name>moriyama_all.wav</name>
							
							
							<pathurl>file://localhost/Volumes/P-40/Dropbox/%e3%83%95%e3%82%9a%e3%83%a9%e3%83%83%e3%81%a8/01_%e3%83%95%e3%82%9a%e3%83%a9%e3%83%83%e3%81%a8%e7%b4%a0%e6%9d%90/022_%e6%88%90%e7%94%b0%e6%a3%ae%e5%b1%b1/022_main/moriyama_all.wav</pathurl>
							
							
							<rate>
								
								
								<timebase>24</timebase>
								
								
								<ntsc>FALSE</ntsc>
								
							
							</rate>
							
							
							<duration>166792</duration>
							
							
							<timecode>
								
								
								<rate>
									
									
									<timebase>24</timebase>
									
									
									<ntsc>FALSE</ntsc>
									
								
								</rate>
								
								
								<string>00:00:00:00</string>
								
								
								<frame>0</frame>
								
								
								<displayformat>NDF</displayformat>
								
							
							</timecode>
							
							
							<media>
								
								
								<audio>
									
									
									<samplecharacteristics>
										
										
										<depth>16</depth>
										
										
										<samplerate>48000</samplerate>
										
									
									</samplecharacteristics>
									
									
									<channelcount>1</channelcount>
									
									
									<layout>stereo</layout>
									
									
									<audiochannel>
										
										
										<sourcechannel>1</sourcechannel>
										
										
										<channellabel>left</channellabel>
										
									
									</audiochannel>
									
								
								</audio>
								
								
								<audio>
									
									
									<samplecharacteristics>
										
										
										<depth>16</depth>
										
										
										<samplerate>48000</samplerate>
										
									
									</samplecharacteristics>
									
									
									<channelcount>1</channelcount>
									
									
									<layout>stereo</layout>
									
									
									<audiochannel>
										
										
										<sourcechannel>2</sourcechannel>
										
										
										<channellabel>right</channellabel>
										
									
									</audiochannel>
									
								
								</audio>
								
							
							</media>
							
						
						</file>
						<labels>
							<label2>Brown</label2>
						</labels>
					</clipitem>
					<clipitem id="clipitem-12" premiereChannelType="mono">
						<masterclipid>masterclip-1</masterclipid>
						<name>moriyama_all.wav</name>
						<enabled>TRUE</enabled>
						<duration>113587</duration>
						<rate>
							<timebase>30</timebase>
							<ntsc>TRUE</ntsc>
						</rate>
						<start>79976</start>
						<end>85990</end>
						<in>107573</in>
						<out>113587</out>
						<pproTicksIn>910842105600000</pproTicksIn>
						<pproTicksOut>961763846400000</pproTicksOut>
						<file id="file-1">
							<name>moriyama_all.wav</name>
							
							
							<pathurl>file://localhost/Volumes/P-40/Dropbox/%e3%83%95%e3%82%9a%e3%83%a9%e3%83%83%e3%81%a8/01_%e3%83%95%e3%82%9a%e3%83%a9%e3%83%83%e3%81%a8%e7%b4%a0%e6%9d%90/022_%e6%88%90%e7%94%b0%e6%a3%ae%e5%b1%b1/022_main/moriyama_all.wav</pathurl>
							
							
							<rate>
								
								
								<timebase>24</timebase>
								
								
								<ntsc>FALSE</ntsc>
								
							
							</rate>
							
							
							<duration>166792</duration>
							
							
							<timecode>
								
								
								<rate>
									
									
									<timebase>24</timebase>
									
									
									<ntsc>FALSE</ntsc>
									
								
								</rate>
								
								
								<string>00:00:00:00</string>
								
								
								<frame>0</frame>
								
								
								<displayformat>NDF</displayformat>
								
							
							</timecode>
							
							
							<media>
								
								
								<audio>
									
									
									<samplecharacteristics>
										
										
										<depth>16</depth>
										
										
										<samplerate>48000</samplerate>
										
									
									</samplecharacteristics>
									
									
									<channelcount>1</channelcount>
									
									
									<layout>stereo</layout>
									
									
									<audiochannel>
										
										
										<sourcechannel>1</sourcechannel>
										
										
										<channellabel>left</channellabel>
										
									
									</audiochannel>
									
								
								</audio>
								
								
								<audio>
									
									
									<samplecharacteristics>
										
										
										<depth>16</depth>
										
										
										<samplerate>48000</samplerate>
										
									
									</samplecharacteristics>
									
									
									<channelcount>1</channelcount>
									
									
									<layout>stereo</layout>
									
									
									<audiochannel>
										
										
										<sourcechannel>2</sourcechannel>
										
										
										<channellabel>right</channellabel>
										
									
									</audiochannel>
									
								
								</audio>
								
							
							</media>
							
						
						</file>
						<labels>
							<label2>Iris</label2>
						</labels>
					</clipitem>
					<clipitem id="clipitem-13" premiereChannelType="mono">
						<masterclipid>masterclip-1</masterclipid>
						<name>moriyama_all.wav</name>
						<enabled>TRUE</enabled>
						<duration>127948</duration>
						<rate>
							<timebase>30</timebase>
							<ntsc>TRUE</ntsc>
						</rate>
						<start>86139</start>
						<end>95806</end>
						<in>118281</in>
						<out>127948</out>
						<pproTicksIn>1001508883200000</pproTicksIn>
						<pproTicksOut>1083361305600000</pproTicksOut>
						<file id="file-1">
							<name>moriyama_all.wav</name>
							
							
							<pathurl>file://localhost/Volumes/P-40/Dropbox/%e3%83%95%e3%82%9a%e3%83%a9%e3%83%83%e3%81%a8/01_%e3%83%95%e3%82%9a%e3%83%a9%e3%83%83%e3%81%a8%e7%b4%a0%e6%9d%90/022_%e6%88%90%e7%94%b0%e6%a3%ae%e5%b1%b1/022_main/moriyama_all.wav</pathurl>
							
							
							<rate>
								
								
								<timebase>24</timebase>
								
								
								<ntsc>FALSE</ntsc>
								
							
							</rate>
							
							
							<duration>166792</duration>
							
							
							<timecode>
								
								
								<rate>
									
									
									<timebase>24</timebase>
									
									
									<ntsc>FALSE</ntsc>
									
								
								</rate>
								
								
								<string>00:00:00:00</string>
								
								
								<frame>0</frame>
								
								
								<displayformat>NDF</displayformat>
								
							
							</timecode>
							
							
							<media>
								
								
								<audio>
									
									
									<samplecharacteristics>
										
										
										<depth>16</depth>
										
										
										<samplerate>48000</samplerate>
										
									
									</samplecharacteristics>
									
									
									<channelcount>1</channelcount>
									
									
									<layout>stereo</layout>
									
									
									<audiochannel>
										
										
										<sourcechannel>1</sourcechannel>
										
										
										<channellabel>left</channellabel>
										
									
									</audiochannel>
									
								
								</audio>
								
								
								<audio>
									
									
									<samplecharacteristics>
										
										
										<depth>16</depth>
										
										
										<samplerate>48000</samplerate>
										
									
									</samplecharacteristics>
									
									
									<channelcount>1</channelcount>
									
									
									<layout>stereo</layout>
									
									
									<audiochannel>
										
										
										<sourcechannel>2</sourcechannel>
										
										
										<channellabel>right</channellabel>
										
									
									</audiochannel>
									
								
								</audio>
								
							
							</media>
							
						
						</file>
						<labels>
							<label2>Violet</label2>
						</labels>
					</clipitem>
					<clipitem id="clipitem-14" premiereChannelType="mono">
						<masterclipid>masterclip-1</masterclipid>
						<name>moriyama_all.wav</name>
						<enabled>TRUE</enabled>
						<duration>129879</duration>
						<rate>
							<timebase>30</timebase>
							<ntsc>TRUE</ntsc>
						</rate>
						<start>95955</start>
						<end>97768</end>
						<in>128066</in>
						<out>129879</out>
						<pproTicksIn>1084360435200000</pproTicksIn>
						<pproTicksOut>1099711468800000</pproTicksOut>
						<file id="file-1">
							<name>moriyama_all.wav</name>
							
							
							<pathurl>file://localhost/Volumes/P-40/Dropbox/%e3%83%95%e3%82%9a%e3%83%a9%e3%83%83%e3%81%a8/01_%e3%83%95%e3%82%9a%e3%83%a9%e3%83%83%e3%81%a8%e7%b4%a0%e6%9d%90/022_%e6%88%90%e7%94%b0%e6%a3%ae%e5%b1%b1/022_main/moriyama_all.wav</pathurl>
							
							
							<rate>
								
								
								<timebase>24</timebase>
								
								
								<ntsc>FALSE</ntsc>
								
							
							</rate>
							
							
							<duration>166792</duration>
							
							
							<timecode>
								
								
								<rate>
									
									
									<timebase>24</timebase>
									
									
									<ntsc>FALSE</ntsc>
									
								
								</rate>
								
								
								<string>00:00:00:00</string>
								
								
								<frame>0</frame>
								
								
								<displayformat>NDF</displayformat>
								
							
							</timecode>
							
							
							<media>
								
								
								<audio>
									
									
									<samplecharacteristics>
										
										
										<depth>16</depth>
										
										
										<samplerate>48000</samplerate>
										
									
									</samplecharacteristics>
									
									
									<channelcount>1</channelcount>
									
									
									<layout>stereo</layout>
									
									
									<audiochannel>
										
										
										<sourcechannel>1</sourcechannel>
										
										
										<channellabel>left</channellabel>
										
									
									</audiochannel>
									
								
								</audio>
								
								
								<audio>
									
									
									<samplecharacteristics>
										
										
										<depth>16</depth>
										
										
										<samplerate>48000</samplerate>
										
									
									</samplecharacteristics>
									
									
									<channelcount>1</channelcount>
									
									
									<layout>stereo</layout>
									
									
									<audiochannel>
										
										
										<sourcechannel>2</sourcechannel>
										
										
										<channellabel>right</channellabel>
										
									
									</audiochannel>
									
								
								</audio>
								
							
							</media>
							
						
						</file>
						<labels>
							<label2>Magenta</label2>
						</labels>
					</clipitem>
					<clipitem id="clipitem-15" premiereChannelType="mono">
						<masterclipid>masterclip-1</masterclipid>
						<name>moriyama_all.wav</name>
						<enabled>TRUE</enabled>
						<duration>137639</duration>
						<rate>
							<timebase>30</timebase>
							<ntsc>TRUE</ntsc>
						</rate>
						<start>97917</start>
						<end>104527</end>
						<in>131029</in>
						<out>137639</out>
						<pproTicksIn>1109448748800000</pproTicksIn>
						<pproTicksOut>1165416940800000</pproTicksOut>
						<file id="file-1">
							<name>moriyama_all.wav</name>
							
							
							<pathurl>file://localhost/Volumes/P-40/Dropbox/%e3%83%95%e3%82%9a%e3%83%a9%e3%83%83%e3%81%a8/01_%e3%83%95%e3%82%9a%e3%83%a9%e3%83%83%e3%81%a8%e7%b4%a0%e6%9d%90/022_%e6%88%90%e7%94%b0%e6%a3%ae%e5%b1%b1/022_main/moriyama_all.wav</pathurl>
							
							
							<rate>
								
								
								<timebase>24</timebase>
								
								
								<ntsc>FALSE</ntsc>
								
							
							</rate>
							
							
							<duration>166792</duration>
							
							
							<timecode>
								
								
								<rate>
									
									
									<timebase>24</timebase>
									
									
									<ntsc>FALSE</ntsc>
									
								
								</rate>
								
								
								<string>00:00:00:00</string>
								
								
								<frame>0</frame>
								
								
								<displayformat>NDF</displayformat>
								
							
							</timecode>
							
							
							<media>
								
								
								<audio>
									
									
									<samplecharacteristics>
										
										
										<depth>16</depth>
										
										
										<samplerate>48000</samplerate>
										
									
									</samplecharacteristics>
									
									
									<channelcount>1</channelcount>
									
									
									<layout>stereo</layout>
									
									
									<audiochannel>
										
										
										<sourcechannel>1</sourcechannel>
										
										
										<channellabel>left</channellabel>
										
									
									</audiochannel>
									
								
								</audio>
								
								
								<audio>
									
									
									<samplecharacteristics>
										
										
										<depth>16</depth>
										
										
										<samplerate>48000</samplerate>
										
									
									</samplecharacteristics>
									
									
									<channelcount>1</channelcount>
									
									
									<layout>stereo</layout>
									
									
									<audiochannel>
										
										
										<sourcechannel>2</sourcechannel>
										
										
										<channellabel>right</channellabel>
										
									
									</audiochannel>
									
								
								</audio>
								
							
							</media>
							
						
						</file>
						<labels>
							<label2>Yellow</label2>
						</labels>
					</clipitem>
					<clipitem id="clipitem-16" premiereChannelType="mono">
						<masterclipid>masterclip-1</masterclipid>
						<name>moriyama_all.wav</name>
						<enabled>TRUE</enabled>
						<duration>154563</duration>
						<rate>
							<timebase>30</timebase>
							<ntsc>TRUE</ntsc>
						</rate>
						<start>104676</start>
						<end>111214</end>
						<in>148025</in>
						<out>154563</out>
						<pproTicksIn>1253357280000000</pproTicksIn>
						<pproTicksOut>1308715833600000</pproTicksOut>
						<file id="file-1">
							<name>moriyama_all.wav</name>
							
							
							<pathurl>file://localhost/Volumes/P-40/Dropbox/%e3%83%95%e3%82%9a%e3%83%a9%e3%83%83%e3%81%a8/01_%e3%83%95%e3%82%9a%e3%83%a9%e3%83%83%e3%81%a8%e7%b4%a0%e6%9d%90/022_%e6%88%90%e7%94%b0%e6%a3%ae%e5%b1%b1/022_main/moriyama_all.wav</pathurl>
							
							
							<rate>
								
								
								<timebase>24</timebase>
								
								
								<ntsc>FALSE</ntsc>
								
							
							</rate>
							
							
							<duration>166792</duration>
							
							
							<timecode>
								
								
								<rate>
									
									
									<timebase>24</timebase>
									
									
									<ntsc>FALSE</ntsc>
									
								
								</rate>
								
								
								<string>00:00:00:00</string>
								
								
								<frame>0</frame>
								
								
								<displayformat>NDF</displayformat>
								
							
							</timecode>
							
							
							<media>
								
								
								<audio>
									
									
									<samplecharacteristics>
										
										
										<depth>16</depth>
										
										
										<samplerate>48000</samplerate>
										
									
									</samplecharacteristics>
									
									
									<channelcount>1</channelcount>
									
									
									<layout>stereo</layout>
									
									
									<audiochannel>
										
										
										<sourcechannel>1</sourcechannel>
										
										
										<channellabel>left</channellabel>
										
									
									</audiochannel>
									
								
								</audio>
								
								
								<audio>
									
									
									<samplecharacteristics>
										
										
										<depth>16</depth>
										
										
										<samplerate>48000</samplerate>
										
									
									</samplecharacteristics>
									
									
									<channelcount>1</channelcount>
									
									
									<layout>stereo</layout>
									
									
									<audiochannel>
										
										
										<sourcechannel>2</sourcechannel>
										
										
										<channellabel>right</channellabel>
										
									
									</audiochannel>
									
								
								</audio>
								
							
							</media>
							
						
						</file>
						<labels>
							<label2>Caribbean</label2>
						</labels>
					</clipitem>
					<clipitem id="clipitem-17" premiereChannelType="mono">
						<masterclipid>masterclip-1</masterclipid>
						<name>moriyama_all.wav</name>
						<enabled>TRUE</enabled>
						<duration>178953</duration>
						<rate>
							<timebase>30</timebase>
							<ntsc>TRUE</ntsc>
						</rate>
						<start>111363</start>
						<end>123131</end>
						<in>167185</in>
						<out>178953</out>
						<pproTicksIn>1415588832000000</pproTicksIn>
						<pproTicksOut>1515230841600000</pproTicksOut>
						<file id="file-1">
							<name>moriyama_all.wav</name>
							
							
							<pathurl>file://localhost/Volumes/P-40/Dropbox/%e3%83%95%e3%82%9a%e3%83%a9%e3%83%83%e3%81%a8/01_%e3%83%95%e3%82%9a%e3%83%a9%e3%83%83%e3%81%a8%e7%b4%a0%e6%9d%90/022_%e6%88%90%e7%94%b0%e6%a3%ae%e5%b1%b1/022_main/moriyama_all.wav</pathurl>
							
							
							<rate>
								
								
								<timebase>24</timebase>
								
								
								<ntsc>FALSE</ntsc>
								
							
							</rate>
							
							
							<duration>166792</duration>
							
							
							<timecode>
								
								
								<rate>
									
									
									<timebase>24</timebase>
									
									
									<ntsc>FALSE</ntsc>
									
								
								</rate>
								
								
								<string>00:00:00:00</string>
								
								
								<frame>0</frame>
								
								
								<displayformat>NDF</displayformat>
								
							
							</timecode>
							
							
							<media>
								
								
								<audio>
									
									
									<samplecharacteristics>
										
										
										<depth>16</depth>
										
										
										<samplerate>48000</samplerate>
										
									
									</samplecharacteristics>
									
									
									<channelcount>1</channelcount>
									
									
									<layout>stereo</layout>
									
									
									<audiochannel>
										
										
										<sourcechannel>1</sourcechannel>
										
										
										<channellabel>left</channellabel>
										
									
									</audiochannel>
									
								
								</audio>
								
								
								<audio>
									
									
									<samplecharacteristics>
										
										
										<depth>16</depth>
										
										
										<samplerate>48000</samplerate>
										
									
									</samplecharacteristics>
									
									
									<channelcount>1</channelcount>
									
									
									<layout>stereo</layout>
									
									
									<audiochannel>
										
										
										<sourcechannel>2</sourcechannel>
										
										
										<channellabel>right</channellabel>
										
									
									</audiochannel>
									
								
								</audio>
								
							
							</media>
							
						
						</file>
						<labels>
							<label2>Forest</label2>
						</labels>
					</clipitem>
					<enabled>TRUE</enabled>
					
					
					<locked>FALSE</locked>
					
					
					<outputchannelindex>1</outputchannelindex>
					
				
				</track>
				<track TL.SQTrackAudioKeyframeStyle="0" TL.SQTrackShy="0" TL.SQTrackExpandedHeight="143" TL.SQTrackExpanded="0" MZ.TrackTargeted="1" MZ.TrackName="Output 2" PannerIsInverted="true" PannerName="Pan" currentExplodedTrackIndex="0" totalExplodedTrackCount="1" premiereTrackType="Mono">
					<clipitem id="clipitem-18" premiereChannelType="mono">
						<masterclipid>masterclip-2</masterclipid>
						<name>narita_all.wav</name>
						<enabled>TRUE</enabled>
						<duration>12298</duration>
						<rate>
							<timebase>30</timebase>
							<ntsc>TRUE</ntsc>
						</rate>
						<start>0</start>
						<end>3957</end>
						<in>8341</in>
						<out>12298</out>
						<pproTicksIn>70624915200000</pproTicksIn>
						<pproTicksOut>104129625600000</pproTicksOut>
						<file id="file-2">
							<name>narita_all.wav</name>
							
							
							<pathurl>file://localhost/Volumes/P-40/Dropbox/%e3%83%95%e3%82%9a%e3%83%a9%e3%83%83%e3%81%a8/01_%e3%83%95%e3%82%9a%e3%83%a9%e3%83%83%e3%81%a8%e7%b4%a0%e6%9d%90/022_%e6%88%90%e7%94%b0%e6%a3%ae%e5%b1%b1/022_main/narita_all.wav</pathurl>
							
							
							<rate>
								
								
								<timebase>25</timebase>
								
								
								<ntsc>FALSE</ntsc>
								
							
							</rate>
							
							
							<duration>173742</duration>
							
							
							<timecode>
								
								
								<rate>
									
									
									<timebase>25</timebase>
									
									
									<ntsc>FALSE</ntsc>
									
								
								</rate>
								
								
								<string>00:00:00:00</string>
								
								
								<frame>0</frame>
								
								
								<displayformat>NDF</displayformat>
								
							
							</timecode>
							
							
							<media>
								
								
								<audio>
									
									
									<samplecharacteristics>
										
										
										<depth>16</depth>
										
										
										<samplerate>48000</samplerate>
										
									
									</samplecharacteristics>
									
									
									<channelcount>1</channelcount>
									
									
									<layout>stereo</layout>
									
									
									<audiochannel>
										
										
										<sourcechannel>1</sourcechannel>
										
										
										<channellabel>left</channellabel>
										
									
									</audiochannel>
									
								
								</audio>
								
								
								<audio>
									
									
									<samplecharacteristics>
										
										
										<depth>16</depth>
										
										
										<samplerate>48000</samplerate>
										
									
									</samplecharacteristics>
									
									
									<channelcount>1</channelcount>
									
									
									<layout>stereo</layout>
									
									
									<audiochannel>
										
										
										<sourcechannel>2</sourcechannel>
										
										
										<channellabel>right</channellabel>
										
									
									</audiochannel>
									
								
								</audio>
								
							
							</media>
							
						
						</file>
						<labels>
							<label2>Violet</label2>
						</labels>
					</clipitem>
					<clipitem id="clipitem-19" premiereChannelType="mono">
						<masterclipid>masterclip-2</masterclipid>
						<name>narita_all.wav</name>
						<enabled>TRUE</enabled>
						<duration>15255</duration>
						<rate>
							<timebase>30</timebase>
							<ntsc>TRUE</ntsc>
						</rate>
						<start>4106</start>
						<end>6195</end>
						<in>13166</in>
						<out>15255</out>
						<pproTicksIn>111479155200000</pproTicksIn>
						<pproTicksOut>129167136000000</pproTicksOut>
						<file id="file-2">
							<name>narita_all.wav</name>
							
							
							<pathurl>file://localhost/Volumes/P-40/Dropbox/%e3%83%95%e3%82%9a%e3%83%a9%e3%83%83%e3%81%a8/01_%e3%83%95%e3%82%9a%e3%83%a9%e3%83%83%e3%81%a8%e7%b4%a0%e6%9d%90/022_%e6%88%90%e7%94%b0%e6%a3%ae%e5%b1%b1/022_main/narita_all.wav</pathurl>
							
							
							<rate>
								
								
								<timebase>25</timebase>
								
								
								<ntsc>FALSE</ntsc>
								
							
							</rate>
							
							
							<duration>173742</duration>
							
							
							<timecode>
								
								
								<rate>
									
									
									<timebase>25</timebase>
									
									
									<ntsc>FALSE</ntsc>
									
								
								</rate>
								
								
								<string>00:00:00:00</string>
								
								
								<frame>0</frame>
								
								
								<displayformat>NDF</displayformat>
								
							
							</timecode>
							
							
							<media>
								
								
								<audio>
									
									
									<samplecharacteristics>
										
										
										<depth>16</depth>
										
										
										<samplerate>48000</samplerate>
										
									
									</samplecharacteristics>
									
									
									<channelcount>1</channelcount>
									
									
									<layout>stereo</layout>
									
									
									<audiochannel>
										
										
										<sourcechannel>1</sourcechannel>
										
										
										<channellabel>left</channellabel>
										
									
									</audiochannel>
									
								
								</audio>
								
								
								<audio>
									
									
									<samplecharacteristics>
										
										
										<depth>16</depth>
										
										
										<samplerate>48000</samplerate>
										
									
									</samplecharacteristics>
									
									
									<channelcount>1</channelcount>
									
									
									<layout>stereo</layout>
									
									
									<audiochannel>
										
										
										<sourcechannel>2</sourcechannel>
										
										
										<channellabel>right</channellabel>
										
									
									</audiochannel>
									
								
								</audio>
								
							
							</media>
							
						
						</file>
						<labels>
							<label2>Rose</label2>
						</labels>
					</clipitem>
					<clipitem id="clipitem-20" premiereChannelType="mono">
						<masterclipid>masterclip-2</masterclipid>
						<name>narita_all.wav</name>
						<enabled>TRUE</enabled>
						<duration>31868</duration>
						<rate>
							<timebase>30</timebase>
							<ntsc>TRUE</ntsc>
						</rate>
						<start>6344</start>
						<end>15334</end>
						<in>22878</in>
						<out>31868</out>
						<pproTicksIn>193712601600000</pproTicksIn>
						<pproTicksOut>269832729600000</pproTicksOut>
						<file id="file-2">
							<name>narita_all.wav</name>
							
							
							<pathurl>file://localhost/Volumes/P-40/Dropbox/%e3%83%95%e3%82%9a%e3%83%a9%e3%83%83%e3%81%a8/01_%e3%83%95%e3%82%9a%e3%83%a9%e3%83%83%e3%81%a8%e7%b4%a0%e6%9d%90/022_%e6%88%90%e7%94%b0%e6%a3%ae%e5%b1%b1/022_main/narita_all.wav</pathurl>
							
							
							<rate>
								
								
								<timebase>25</timebase>
								
								
								<ntsc>FALSE</ntsc>
								
							
							</rate>
							
							
							<duration>173742</duration>
							
							
							<timecode>
								
								
								<rate>
									
									
									<timebase>25</timebase>
									
									
									<ntsc>FALSE</ntsc>
									
								
								</rate>
								
								
								<string>00:00:00:00</string>
								
								
								<frame>0</frame>
								
								
								<displayformat>NDF</displayformat>
								
							
							</timecode>
							
							
							<media>
								
								
								<audio>
									
									
									<samplecharacteristics>
										
										
										<depth>16</depth>
										
										
										<samplerate>48000</samplerate>
										
									
									</samplecharacteristics>
									
									
									<channelcount>1</channelcount>
									
									
									<layout>stereo</layout>
									
									
									<audiochannel>
										
										
										<sourcechannel>1</sourcechannel>
										
										
										<channellabel>left</channellabel>
										
									
									</audiochannel>
									
								
								</audio>
								
								
								<audio>
									
									
									<samplecharacteristics>
										
										
										<depth>16</depth>
										
										
										<samplerate>48000</samplerate>
										
									
									</samplecharacteristics>
									
									
									<channelcount>1</channelcount>
									
									
									<layout>stereo</layout>
									
									
									<audiochannel>
										
										
										<sourcechannel>2</sourcechannel>
										
										
										<channellabel>right</channellabel>
										
									
									</audiochannel>
									
								
								</audio>
								
							
							</media>
							
						
						</file>
						<labels>
							<label2>Yellow</label2>
						</labels>
					</clipitem>
					<clipitem id="clipitem-21" premiereChannelType="mono">
						<masterclipid>masterclip-2</masterclipid>
						<name>narita_all.wav</name>
						<enabled>TRUE</enabled>
						<duration>35155</duration>
						<rate>
							<timebase>30</timebase>
							<ntsc>TRUE</ntsc>
						</rate>
						<start>15483</start>
						<end>17727</end>
						<in>32911</in>
						<out>35155</out>
						<pproTicksIn>278664019200000</pproTicksIn>
						<pproTicksOut>297664416000000</pproTicksOut>
						<file id="file-2">
							<name>narita_all.wav</name>
							
							
							<pathurl>file://localhost/Volumes/P-40/Dropbox/%e3%83%95%e3%82%9a%e3%83%a9%e3%83%83%e3%81%a8/01_%e3%83%95%e3%82%9a%e3%83%a9%e3%83%83%e3%81%a8%e7%b4%a0%e6%9d%90/022_%e6%88%90%e7%94%b0%e6%a3%ae%e5%b1%b1/022_main/narita_all.wav</pathurl>
							
							
							<rate>
								
								
								<timebase>25</timebase>
								
								
								<ntsc>FALSE</ntsc>
								
							
							</rate>
							
							
							<duration>173742</duration>
							
							
							<timecode>
								
								
								<rate>
									
									
									<timebase>25</timebase>
									
									
									<ntsc>FALSE</ntsc>
									
								
								</rate>
								
								
								<string>00:00:00:00</string>
								
								
								<frame>0</frame>
								
								
								<displayformat>NDF</displayformat>
								
							
							</timecode>
							
							
							<media>
								
								
								<audio>
									
									
									<samplecharacteristics>
										
										
										<depth>16</depth>
										
										
										<samplerate>48000</samplerate>
										
									
									</samplecharacteristics>
									
									
									<channelcount>1</channelcount>
									
									
									<layout>stereo</layout>
									
									
									<audiochannel>
										
										
										<sourcechannel>1</sourcechannel>
										
										
										<channellabel>left</channellabel>
										
									
									</audiochannel>
									
								
								</audio>
								
								
								<audio>
									
									
									<samplecharacteristics>
										
										
										<depth>16</depth>
										
										
										<samplerate>48000</samplerate>
										
									
									</samplecharacteristics>
									
									
									<channelcount>1</channelcount>
									
									
									<layout>stereo</layout>
									
									
									<audiochannel>
										
										
										<sourcechannel>2</sourcechannel>
										
										
										<channellabel>right</channellabel>
										
									
									</audiochannel>
									
								
								</audio>
								
							
							</media>
							
						
						</file>
						<labels>
							<label2>Mango</label2>
						</labels>
					</clipitem>
					<clipitem id="clipitem-22" premiereChannelType="mono">
						<masterclipid>masterclip-2</masterclipid>
						<name>narita_all.wav</name>
						<enabled>TRUE</enabled>
						<duration>45305</duration>
						<rate>
							<timebase>30</timebase>
							<ntsc>TRUE</ntsc>
						</rate>
						<start>17876</start>
						<end>21638</end>
						<in>41543</in>
						<out>45305</out>
						<pproTicksIn>351752889600000</pproTicksIn>
						<pproTicksOut>383606496000000</pproTicksOut>
						<file id="file-2">
							<name>narita_all.wav</name>
							
							
							<pathurl>file://localhost/Volumes/P-40/Dropbox/%e3%83%95%e3%82%9a%e3%83%a9%e3%83%83%e3%81%a8/01_%e3%83%95%e3%82%9a%e3%83%a9%e3%83%83%e3%81%a8%e7%b4%a0%e6%9d%90/022_%e6%88%90%e7%94%b0%e6%a3%ae%e5%b1%b1/022_main/narita_all.wav</pathurl>
							
							
							<rate>
								
								
								<timebase>25</timebase>
								
								
								<ntsc>FALSE</ntsc>
								
							
							</rate>
							
							
							<duration>173742</duration>
							
							
							<timecode>
								
								
								<rate>
									
									
									<timebase>25</timebase>
									
									
									<ntsc>FALSE</ntsc>
									
								
								</rate>
								
								
								<string>00:00:00:00</string>
								
								
								<frame>0</frame>
								
								
								<displayformat>NDF</displayformat>
								
							
							</timecode>
							
							
							<media>
								
								
								<audio>
									
									
									<samplecharacteristics>
										
										
										<depth>16</depth>
										
										
										<samplerate>48000</samplerate>
										
									
									</samplecharacteristics>
									
									
									<channelcount>1</channelcount>
									
									
									<layout>stereo</layout>
									
									
									<audiochannel>
										
										
										<sourcechannel>1</sourcechannel>
										
										
										<channellabel>left</channellabel>
										
									
									</audiochannel>
									
								
								</audio>
								
								
								<audio>
									
									
									<samplecharacteristics>
										
										
										<depth>16</depth>
										
										
										<samplerate>48000</samplerate>
										
									
									</samplecharacteristics>
									
									
									<channelcount>1</channelcount>
									
									
									<layout>stereo</layout>
									
									
									<audiochannel>
										
										
										<sourcechannel>2</sourcechannel>
										
										
										<channellabel>right</channellabel>
										
									
									</audiochannel>
									
								
								</audio>
								
							
							</media>
							
						
						</file>
						<labels>
							<label2>Lavender</label2>
						</labels>
					</clipitem>
					<clipitem id="clipitem-23" premiereChannelType="mono">
						<masterclipid>masterclip-2</masterclipid>
						<name>narita_all.wav</name>
						<enabled>TRUE</enabled>
						<duration>50013</duration>
						<rate>
							<timebase>30</timebase>
							<ntsc>TRUE</ntsc>
						</rate>
						<start>21787</start>
						<end>26493</end>
						<in>45307</in>
						<out>50013</out>
						<pproTicksIn>383623430400000</pproTicksIn>
						<pproTicksOut>423470073600000</pproTicksOut>
						<file id="file-2">
							<name>narita_all.wav</name>
							
							
							<pathurl>file://localhost/Volumes/P-40/Dropbox/%e3%83%95%e3%82%9a%e3%83%a9%e3%83%83%e3%81%a8/01_%e3%83%95%e3%82%9a%e3%83%a9%e3%83%83%e3%81%a8%e7%b4%a0%e6%9d%90/022_%e6%88%90%e7%94%b0%e6%a3%ae%e5%b1%b1/022_main/narita_all.wav</pathurl>
							
							
							<rate>
								
								
								<timebase>25</timebase>
								
								
								<ntsc>FALSE</ntsc>
								
							
							</rate>
							
							
							<duration>173742</duration>
							
							
							<timecode>
								
								
								<rate>
									
									
									<timebase>25</timebase>
									
									
									<ntsc>FALSE</ntsc>
									
								
								</rate>
								
								
								<string>00:00:00:00</string>
								
								
								<frame>0</frame>
								
								
								<displayformat>NDF</displayformat>
								
							
							</timecode>
							
							
							<media>
								
								
								<audio>
									
									
									<samplecharacteristics>
										
										
										<depth>16</depth>
										
										
										<samplerate>48000</samplerate>
										
									
									</samplecharacteristics>
									
									
									<channelcount>1</channelcount>
									
									
									<layout>stereo</layout>
									
									
									<audiochannel>
										
										
										<sourcechannel>1</sourcechannel>
										
										
										<channellabel>left</channellabel>
										
									
									</audiochannel>
									
								
								</audio>
								
								
								<audio>
									
									
									<samplecharacteristics>
										
										
										<depth>16</depth>
										
										
										<samplerate>48000</samplerate>
										
									
									</samplecharacteristics>
									
									
									<channelcount>1</channelcount>
									
									
									<layout>stereo</layout>
									
									
									<audiochannel>
										
										
										<sourcechannel>2</sourcechannel>
										
										
										<channellabel>right</channellabel>
										
									
									</audiochannel>
									
								
								</audio>
								
							
							</media>
							
						
						</file>
						<labels>
							<label2>Caribbean</label2>
						</labels>
					</clipitem>
					<clipitem id="clipitem-24" premiereChannelType="mono">
						<masterclipid>masterclip-2</masterclipid>
						<name>narita_all.wav</name>
						<enabled>TRUE</enabled>
						<duration>52212</duration>
						<rate>
							<timebase>30</timebase>
							<ntsc>TRUE</ntsc>
						</rate>
						<start>26642</start>
						<end>28421</end>
						<in>50433</in>
						<out>52212</out>
						<pproTicksIn>427026297600000</pproTicksIn>
						<pproTicksOut>442089446400000</pproTicksOut>
						<file id="file-2">
							<name>narita_all.wav</name>
							
							
							<pathurl>file://localhost/Volumes/P-40/Dropbox/%e3%83%95%e3%82%9a%e3%83%a9%e3%83%83%e3%81%a8/01_%e3%83%95%e3%82%9a%e3%83%a9%e3%83%83%e3%81%a8%e7%b4%a0%e6%9d%90/022_%e6%88%90%e7%94%b0%e6%a3%ae%e5%b1%b1/022_main/narita_all.wav</pathurl>
							
							
							<rate>
								
								
								<timebase>25</timebase>
								
								
								<ntsc>FALSE</ntsc>
								
							
							</rate>
							
							
							<duration>173742</duration>
							
							
							<timecode>
								
								
								<rate>
									
									
									<timebase>25</timebase>
									
									
									<ntsc>FALSE</ntsc>
									
								
								</rate>
								
								
								<string>00:00:00:00</string>
								
								
								<frame>0</frame>
								
								
								<displayformat>NDF</displayformat>
								
							
							</timecode>
							
							
							<media>
								
								
								<audio>
									
									
									<samplecharacteristics>
										
										
										<depth>16</depth>
										
										
										<samplerate>48000</samplerate>
										
									
									</samplecharacteristics>
									
									
									<channelcount>1</channelcount>
									
									
									<layout>stereo</layout>
									
									
									<audiochannel>
										
										
										<sourcechannel>1</sourcechannel>
										
										
										<channellabel>left</channellabel>
										
									
									</audiochannel>
									
								
								</audio>
								
								
								<audio>
									
									
									<samplecharacteristics>
										
										
										<depth>16</depth>
										
										
										<samplerate>48000</samplerate>
										
									
									</samplecharacteristics>
									
									
									<channelcount>1</channelcount>
									
									
									<layout>stereo</layout>
									
									
									<audiochannel>
										
										
										<sourcechannel>2</sourcechannel>
										
										
										<channellabel>right</channellabel>
										
									
									</audiochannel>
									
								
								</audio>
								
							
							</media>
							
						
						</file>
						<labels>
							<label2>Tan</label2>
						</labels>
					</clipitem>
					<clipitem id="clipitem-25" premiereChannelType="mono">
						<masterclipid>masterclip-2</masterclipid>
						<name>narita_all.wav</name>
						<enabled>TRUE</enabled>
						<duration>68528</duration>
						<rate>
							<timebase>30</timebase>
							<ntsc>TRUE</ntsc>
						</rate>
						<start>28570</start>
						<end>40346</end>
						<in>56752</in>
						<out>68528</out>
						<pproTicksIn>480530534400000</pproTicksIn>
						<pproTicksOut>580240281600000</pproTicksOut>
						<file id="file-2">
							<name>narita_all.wav</name>
							
							
							<pathurl>file://localhost/Volumes/P-40/Dropbox/%e3%83%95%e3%82%9a%e3%83%a9%e3%83%83%e3%81%a8/01_%e3%83%95%e3%82%9a%e3%83%a9%e3%83%83%e3%81%a8%e7%b4%a0%e6%9d%90/022_%e6%88%90%e7%94%b0%e6%a3%ae%e5%b1%b1/022_main/narita_all.wav</pathurl>
							
							
							<rate>
								
								
								<timebase>25</timebase>
								
								
								<ntsc>FALSE</ntsc>
								
							
							</rate>
							
							
							<duration>173742</duration>
							
							
							<timecode>
								
								
								<rate>
									
									
									<timebase>25</timebase>
									
									
									<ntsc>FALSE</ntsc>
									
								
								</rate>
								
								
								<string>00:00:00:00</string>
								
								
								<frame>0</frame>
								
								
								<displayformat>NDF</displayformat>
								
							
							</timecode>
							
							
							<media>
								
								
								<audio>
									
									
									<samplecharacteristics>
										
										
										<depth>16</depth>
										
										
										<samplerate>48000</samplerate>
										
									
									</samplecharacteristics>
									
									
									<channelcount>1</channelcount>
									
									
									<layout>stereo</layout>
									
									
									<audiochannel>
										
										
										<sourcechannel>1</sourcechannel>
										
										
										<channellabel>left</channellabel>
										
									
									</audiochannel>
									
								
								</audio>
								
								
								<audio>
									
									
									<samplecharacteristics>
										
										
										<depth>16</depth>
										
										
										<samplerate>48000</samplerate>
										
									
									</samplecharacteristics>
									
									
									<channelcount>1</channelcount>
									
									
									<layout>stereo</layout>
									
									
									<audiochannel>
										
										
										<sourcechannel>2</sourcechannel>
										
										
										<channellabel>right</channellabel>
										
									
									</audiochannel>
									
								
								</audio>
								
							
							</media>
							
						
						</file>
						<labels>
							<label2>Forest</label2>
						</labels>
					</clipitem>
					<clipitem id="clipitem-26" premiereChannelType="mono">
						<masterclipid>masterclip-2</masterclipid>
						<name>narita_all.wav</name>
						<enabled>TRUE</enabled>
						<duration>83377</duration>
						<rate>
							<timebase>30</timebase>
							<ntsc>TRUE</ntsc>
						</rate>
						<start>40495</start>
						<end>55341</end>
						<in>68531</in>
						<out>83377</out>
						<pproTicksIn>580265683200000</pproTicksIn>
						<pproTicksOut>705969734400000</pproTicksOut>
						<file id="file-2">
							<name>narita_all.wav</name>
							
							
							<pathurl>file://localhost/Volumes/P-40/Dropbox/%e3%83%95%e3%82%9a%e3%83%a9%e3%83%83%e3%81%a8/01_%e3%83%95%e3%82%9a%e3%83%a9%e3%83%83%e3%81%a8%e7%b4%a0%e6%9d%90/022_%e6%88%90%e7%94%b0%e6%a3%ae%e5%b1%b1/022_main/narita_all.wav</pathurl>
							
							
							<rate>
								
								
								<timebase>25</timebase>
								
								
								<ntsc>FALSE</ntsc>
								
							
							</rate>
							
							
							<duration>173742</duration>
							
							
							<timecode>
								
								
								<rate>
									
									
									<timebase>25</timebase>
									
									
									<ntsc>FALSE</ntsc>
									
								
								</rate>
								
								
								<string>00:00:00:00</string>
								
								
								<frame>0</frame>
								
								
								<displayformat>NDF</displayformat>
								
							
							</timecode>
							
							
							<media>
								
								
								<audio>
									
									
									<samplecharacteristics>
										
										
										<depth>16</depth>
										
										
										<samplerate>48000</samplerate>
										
									
									</samplecharacteristics>
									
									
									<channelcount>1</channelcount>
									
									
									<layout>stereo</layout>
									
									
									<audiochannel>
										
										
										<sourcechannel>1</sourcechannel>
										
										
										<channellabel>left</channellabel>
										
									
									</audiochannel>
									
								
								</audio>
								
								
								<audio>
									
									
									<samplecharacteristics>
										
										
										<depth>16</depth>
										
										
										<samplerate>48000</samplerate>
										
									
									</samplecharacteristics>
									
									
									<channelcount>1</channelcount>
									
									
									<layout>stereo</layout>
									
									
									<audiochannel>
										
										
										<sourcechannel>2</sourcechannel>
										
										
										<channellabel>right</channellabel>
										
									
									</audiochannel>
									
								
								</audio>
								
							
							</media>
							
						
						</file>
						<labels>
							<label2>Purple</label2>
						</labels>
					</clipitem>
					<clipitem id="clipitem-27" premiereChannelType="mono">
						<masterclipid>masterclip-2</masterclipid>
						<name>narita_all.wav</name>
						<enabled>TRUE</enabled>
						<duration>96240</duration>
						<rate>
							<timebase>30</timebase>
							<ntsc>TRUE</ntsc>
						</rate>
						<start>55490</start>
						<end>68351</end>
						<in>83379</in>
						<out>96240</out>
						<pproTicksIn>705986668800000</pproTicksIn>
						<pproTicksOut>814883328000000</pproTicksOut>
						<file id="file-2">
							<name>narita_all.wav</name>
							
							
							<pathurl>file://localhost/Volumes/P-40/Dropbox/%e3%83%95%e3%82%9a%e3%83%a9%e3%83%83%e3%81%a8/01_%e3%83%95%e3%82%9a%e3%83%a9%e3%83%83%e3%81%a8%e7%b4%a0%e6%9d%90/022_%e6%88%90%e7%94%b0%e6%a3%ae%e5%b1%b1/022_main/narita_all.wav</pathurl>
							
							
							<rate>
								
								
								<timebase>25</timebase>
								
								
								<ntsc>FALSE</ntsc>
								
							
							</rate>
							
							
							<duration>173742</duration>
							
							
							<timecode>
								
								
								<rate>
									
									
									<timebase>25</timebase>
									
									
									<ntsc>FALSE</ntsc>
									
								
								</rate>
								
								
								<string>00:00:00:00</string>
								
								
								<frame>0</frame>
								
								
								<displayformat>NDF</displayformat>
								
							
							</timecode>
							
							
							<media>
								
								
								<audio>
									
									
									<samplecharacteristics>
										
										
										<depth>16</depth>
										
										
										<samplerate>48000</samplerate>
										
									
									</samplecharacteristics>
									
									
									<channelcount>1</channelcount>
									
									
									<layout>stereo</layout>
									
									
									<audiochannel>
										
										
										<sourcechannel>1</sourcechannel>
										
										
										<channellabel>left</channellabel>
										
									
									</audiochannel>
									
								
								</audio>
								
								
								<audio>
									
									
									<samplecharacteristics>
										
										
										<depth>16</depth>
										
										
										<samplerate>48000</samplerate>
										
									
									</samplecharacteristics>
									
									
									<channelcount>1</channelcount>
									
									
									<layout>stereo</layout>
									
									
									<audiochannel>
										
										
										<sourcechannel>2</sourcechannel>
										
										
										<channellabel>right</channellabel>
										
									
									</audiochannel>
									
								
								</audio>
								
							
							</media>
							
						
						</file>
						<labels>
							<label2>Teal</label2>
						</labels>
					</clipitem>
					<clipitem id="clipitem-28" premiereChannelType="mono">
						<masterclipid>masterclip-2</masterclipid>
						<name>narita_all.wav</name>
						<enabled>TRUE</enabled>
						<duration>107570</duration>
						<rate>
							<timebase>30</timebase>
							<ntsc>TRUE</ntsc>
						</rate>
						<start>68500</start>
						<end>79827</end>
						<in>96243</in>
						<out>107570</out>
						<pproTicksIn>814908729600000</pproTicksIn>
						<pproTicksOut>910816704000000</pproTicksOut>
						<file id="file-2">
							<name>narita_all.wav</name>
							
							
							<pathurl>file://localhost/Volumes/P-40/Dropbox/%e3%83%95%e3%82%9a%e3%83%a9%e3%83%83%e3%81%a8/01_%e3%83%95%e3%82%9a%e3%83%a9%e3%83%83%e3%81%a8%e7%b4%a0%e6%9d%90/022_%e6%88%90%e7%94%b0%e6%a3%ae%e5%b1%b1/022_main/narita_all.wav</pathurl>
							
							
							<rate>
								
								
								<timebase>25</timebase>
								
								
								<ntsc>FALSE</ntsc>
								
							
							</rate>
							
							
							<duration>173742</duration>
							
							
							<timecode>
								
								
								<rate>
									
									
									<timebase>25</timebase>
									
									
									<ntsc>FALSE</ntsc>
									
								
								</rate>
								
								
								<string>00:00:00:00</string>
								
								
								<frame>0</frame>
								
								
								<displayformat>NDF</displayformat>
								
							
							</timecode>
							
							
							<media>
								
								
								<audio>
									
									
									<samplecharacteristics>
										
										
										<depth>16</depth>
										
										
										<samplerate>48000</samplerate>
										
									
									</samplecharacteristics>
									
									
									<channelcount>1</channelcount>
									
									
									<layout>stereo</layout>
									
									
									<audiochannel>
										
										
										<sourcechannel>1</sourcechannel>
										
										
										<channellabel>left</channellabel>
										
									
									</audiochannel>
									
								
								</audio>
								
								
								<audio>
									
									
									<samplecharacteristics>
										
										
										<depth>16</depth>
										
										
										<samplerate>48000</samplerate>
										
									
									</samplecharacteristics>
									
									
									<channelcount>1</channelcount>
									
									
									<layout>stereo</layout>
									
									
									<audiochannel>
										
										
										<sourcechannel>2</sourcechannel>
										
										
										<channellabel>right</channellabel>
										
									
									</audiochannel>
									
								
								</audio>
								
							
							</media>
							
						
						</file>
						<labels>
							<label2>Brown</label2>
						</labels>
					</clipitem>
					<clipitem id="clipitem-29" premiereChannelType="mono">
						<masterclipid>masterclip-2</masterclipid>
						<name>narita_all.wav</name>
						<enabled>TRUE</enabled>
						<duration>113587</duration>
						<rate>
							<timebase>30</timebase>
							<ntsc>TRUE</ntsc>
						</rate>
						<start>79976</start>
						<end>85990</end>
						<in>107573</in>
						<out>113587</out>
						<pproTicksIn>910842105600000</pproTicksIn>
						<pproTicksOut>961763846400000</pproTicksOut>
						<file id="file-2">
							<name>narita_all.wav</name>
							
							
							<pathurl>file://localhost/Volumes/P-40/Dropbox/%e3%83%95%e3%82%9a%e3%83%a9%e3%83%83%e3%81%a8/01_%e3%83%95%e3%82%9a%e3%83%a9%e3%83%83%e3%81%a8%e7%b4%a0%e6%9d%90/022_%e6%88%90%e7%94%b0%e6%a3%ae%e5%b1%b1/022_main/narita_all.wav</pathurl>
							
							
							<rate>
								
								
								<timebase>25</timebase>
								
								
								<ntsc>FALSE</ntsc>
								
							
							</rate>
							
							
							<duration>173742</duration>
							
							
							<timecode>
								
								
								<rate>
									
									
									<timebase>25</timebase>
									
									
									<ntsc>FALSE</ntsc>
									
								
								</rate>
								
								
								<string>00:00:00:00</string>
								
								
								<frame>0</frame>
								
								
								<displayformat>NDF</displayformat>
								
							
							</timecode>
							
							
							<media>
								
								
								<audio>
									
									
									<samplecharacteristics>
										
										
										<depth>16</depth>
										
										
										<samplerate>48000</samplerate>
										
									
									</samplecharacteristics>
									
									
									<channelcount>1</channelcount>
									
									
									<layout>stereo</layout>
									
									
									<audiochannel>
										
										
										<sourcechannel>1</sourcechannel>
										
										
										<channellabel>left</channellabel>
										
									
									</audiochannel>
									
								
								</audio>
								
								
								<audio>
									
									
									<samplecharacteristics>
										
										
										<depth>16</depth>
										
										
										<samplerate>48000</samplerate>
										
									
									</samplecharacteristics>
									
									
									<channelcount>1</channelcount>
									
									
									<layout>stereo</layout>
									
									
									<audiochannel>
										
										
										<sourcechannel>2</sourcechannel>
										
										
										<channellabel>right</channellabel>
										
									
									</audiochannel>
									
								
								</audio>
								
							
							</media>
							
						
						</file>
						<labels>
							<label2>Iris</label2>
						</labels>
					</clipitem>
					<clipitem id="clipitem-30" premiereChannelType="mono">
						<masterclipid>masterclip-2</masterclipid>
						<name>narita_all.wav</name>
						<enabled>TRUE</enabled>
						<duration>127948</duration>
						<rate>
							<timebase>30</timebase>
							<ntsc>TRUE</ntsc>
						</rate>
						<start>86139</start>
						<end>95806</end>
						<in>118281</in>
						<out>127948</out>
						<pproTicksIn>1001508883200000</pproTicksIn>
						<pproTicksOut>1083361305600000</pproTicksOut>
						<file id="file-2">
							<name>narita_all.wav</name>
							
							
							<pathurl>file://localhost/Volumes/P-40/Dropbox/%e3%83%95%e3%82%9a%e3%83%a9%e3%83%83%e3%81%a8/01_%e3%83%95%e3%82%9a%e3%83%a9%e3%83%83%e3%81%a8%e7%b4%a0%e6%9d%90/022_%e6%88%90%e7%94%b0%e6%a3%ae%e5%b1%b1/022_main/narita_all.wav</pathurl>
							
							
							<rate>
								
								
								<timebase>25</timebase>
								
								
								<ntsc>FALSE</ntsc>
								
							
							</rate>
							
							
							<duration>173742</duration>
							
							
							<timecode>
								
								
								<rate>
									
									
									<timebase>25</timebase>
									
									
									<ntsc>FALSE</ntsc>
									
								
								</rate>
								
								
								<string>00:00:00:00</string>
								
								
								<frame>0</frame>
								
								
								<displayformat>NDF</displayformat>
								
							
							</timecode>
							
							
							<media>
								
								
								<audio>
									
									
									<samplecharacteristics>
										
										
										<depth>16</depth>
										
										
										<samplerate>48000</samplerate>
										
									
									</samplecharacteristics>
									
									
									<channelcount>1</channelcount>
									
									
									<layout>stereo</layout>
									
									
									<audiochannel>
										
										
										<sourcechannel>1</sourcechannel>
										
										
										<channellabel>left</channellabel>
										
									
									</audiochannel>
									
								
								</audio>
								
								
								<audio>
									
									
									<samplecharacteristics>
										
										
										<depth>16</depth>
										
										
										<samplerate>48000</samplerate>
										
									
									</samplecharacteristics>
									
									
									<channelcount>1</channelcount>
									
									
									<layout>stereo</layout>
									
									
									<audiochannel>
										
										
										<sourcechannel>2</sourcechannel>
										
										
										<channellabel>right</channellabel>
										
									
									</audiochannel>
									
								
								</audio>
								
							
							</media>
							
						
						</file>
						<labels>
							<label2>Violet</label2>
						</labels>
					</clipitem>
					<clipitem id="clipitem-31" premiereChannelType="mono">
						<masterclipid>masterclip-2</masterclipid>
						<name>narita_all.wav</name>
						<enabled>TRUE</enabled>
						<duration>129879</duration>
						<rate>
							<timebase>30</timebase>
							<ntsc>TRUE</ntsc>
						</rate>
						<start>95955</start>
						<end>97768</end>
						<in>128066</in>
						<out>129879</out>
						<pproTicksIn>1084360435200000</pproTicksIn>
						<pproTicksOut>1099711468800000</pproTicksOut>
						<file id="file-2">
							<name>narita_all.wav</name>
							
							
							<pathurl>file://localhost/Volumes/P-40/Dropbox/%e3%83%95%e3%82%9a%e3%83%a9%e3%83%83%e3%81%a8/01_%e3%83%95%e3%82%9a%e3%83%a9%e3%83%83%e3%81%a8%e7%b4%a0%e6%9d%90/022_%e6%88%90%e7%94%b0%e6%a3%ae%e5%b1%b1/022_main/narita_all.wav</pathurl>
							
							
							<rate>
								
								
								<timebase>25</timebase>
								
								
								<ntsc>FALSE</ntsc>
								
							
							</rate>
							
							
							<duration>173742</duration>
							
							
							<timecode>
								
								
								<rate>
									
									
									<timebase>25</timebase>
									
									
									<ntsc>FALSE</ntsc>
									
								
								</rate>
								
								
								<string>00:00:00:00</string>
								
								
								<frame>0</frame>
								
								
								<displayformat>NDF</displayformat>
								
							
							</timecode>
							
							
							<media>
								
								
								<audio>
									
									
									<samplecharacteristics>
										
										
										<depth>16</depth>
										
										
										<samplerate>48000</samplerate>
										
									
									</samplecharacteristics>
									
									
									<channelcount>1</channelcount>
									
									
									<layout>stereo</layout>
									
									
									<audiochannel>
										
										
										<sourcechannel>1</sourcechannel>
										
										
										<channellabel>left</channellabel>
										
									
									</audiochannel>
									
								
								</audio>
								
								
								<audio>
									
									
									<samplecharacteristics>
										
										
										<depth>16</depth>
										
										
										<samplerate>48000</samplerate>
										
									
									</samplecharacteristics>
									
									
									<channelcount>1</channelcount>
									
									
									<layout>stereo</layout>
									
									
									<audiochannel>
										
										
										<sourcechannel>2</sourcechannel>
										
										
										<channellabel>right</channellabel>
										
									
									</audiochannel>
									
								
								</audio>
								
							
							</media>
							
						
						</file>
						<labels>
							<label2>Magenta</label2>
						</labels>
					</clipitem>
					<clipitem id="clipitem-32" premiereChannelType="mono">
						<masterclipid>masterclip-2</masterclipid>
						<name>narita_all.wav</name>
						<enabled>TRUE</enabled>
						<duration>137639</duration>
						<rate>
							<timebase>30</timebase>
							<ntsc>TRUE</ntsc>
						</rate>
						<start>97917</start>
						<end>104527</end>
						<in>131029</in>
						<out>137639</out>
						<pproTicksIn>1109448748800000</pproTicksIn>
						<pproTicksOut>1165416940800000</pproTicksOut>
						<file id="file-2">
							<name>narita_all.wav</name>
							
							
							<pathurl>file://localhost/Volumes/P-40/Dropbox/%e3%83%95%e3%82%9a%e3%83%a9%e3%83%83%e3%81%a8/01_%e3%83%95%e3%82%9a%e3%83%a9%e3%83%83%e3%81%a8%e7%b4%a0%e6%9d%90/022_%e6%88%90%e7%94%b0%e6%a3%ae%e5%b1%b1/022_main/narita_all.wav</pathurl>
							
							
							<rate>
								
								
								<timebase>25</timebase>
								
								
								<ntsc>FALSE</ntsc>
								
							
							</rate>
							
							
							<duration>173742</duration>
							
							
							<timecode>
								
								
								<rate>
									
									
									<timebase>25</timebase>
									
									
									<ntsc>FALSE</ntsc>
									
								
								</rate>
								
								
								<string>00:00:00:00</string>
								
								
								<frame>0</frame>
								
								
								<displayformat>NDF</displayformat>
								
							
							</timecode>
							
							
							<media>
								
								
								<audio>
									
									
									<samplecharacteristics>
										
										
										<depth>16</depth>
										
										
										<samplerate>48000</samplerate>
										
									
									</samplecharacteristics>
									
									
									<channelcount>1</channelcount>
									
									
									<layout>stereo</layout>
									
									
									<audiochannel>
										
										
										<sourcechannel>1</sourcechannel>
										
										
										<channellabel>left</channellabel>
										
									
									</audiochannel>
									
								
								</audio>
								
								
								<audio>
									
									
									<samplecharacteristics>
										
										
										<depth>16</depth>
										
										
										<samplerate>48000</samplerate>
										
									
									</samplecharacteristics>
									
									
									<channelcount>1</channelcount>
									
									
									<layout>stereo</layout>
									
									
									<audiochannel>
										
										
										<sourcechannel>2</sourcechannel>
										
										
										<channellabel>right</channellabel>
										
									
									</audiochannel>
									
								
								</audio>
								
							
							</media>
							
						
						</file>
						<labels>
							<label2>Yellow</label2>
						</labels>
					</clipitem>
					<clipitem id="clipitem-33" premiereChannelType="mono">
						<masterclipid>masterclip-2</masterclipid>
						<name>narita_all.wav</name>
						<enabled>TRUE</enabled>
						<duration>154563</duration>
						<rate>
							<timebase>30</timebase>
							<ntsc>TRUE</ntsc>
						</rate>
						<start>104676</start>
						<end>111214</end>
						<in>148025</in>
						<out>154563</out>
						<pproTicksIn>1253357280000000</pproTicksIn>
						<pproTicksOut>1308715833600000</pproTicksOut>
						<file id="file-2">
							<name>narita_all.wav</name>
							
							
							<pathurl>file://localhost/Volumes/P-40/Dropbox/%e3%83%95%e3%82%9a%e3%83%a9%e3%83%83%e3%81%a8/01_%e3%83%95%e3%82%9a%e3%83%a9%e3%83%83%e3%81%a8%e7%b4%a0%e6%9d%90/022_%e6%88%90%e7%94%b0%e6%a3%ae%e5%b1%b1/022_main/narita_all.wav</pathurl>
							
							
							<rate>
								
								
								<timebase>25</timebase>
								
								
								<ntsc>FALSE</ntsc>
								
							
							</rate>
							
							
							<duration>173742</duration>
							
							
							<timecode>
								
								
								<rate>
									
									
									<timebase>25</timebase>
									
									
									<ntsc>FALSE</ntsc>
									
								
								</rate>
								
								
								<string>00:00:00:00</string>
								
								
								<frame>0</frame>
								
								
								<displayformat>NDF</displayformat>
								
							
							</timecode>
							
							
							<media>
								
								
								<audio>
									
									
									<samplecharacteristics>
										
										
										<depth>16</depth>
										
										
										<samplerate>48000</samplerate>
										
									
									</samplecharacteristics>
									
									
									<channelcount>1</channelcount>
									
									
									<layout>stereo</layout>
									
									
									<audiochannel>
										
										
										<sourcechannel>1</sourcechannel>
										
										
										<channellabel>left</channellabel>
										
									
									</audiochannel>
									
								
								</audio>
								
								
								<audio>
									
									
									<samplecharacteristics>
										
										
										<depth>16</depth>
										
										
										<samplerate>48000</samplerate>
										
									
									</samplecharacteristics>
									
									
									<channelcount>1</channelcount>
									
									
									<layout>stereo</layout>
									
									
									<audiochannel>
										
										
										<sourcechannel>2</sourcechannel>
										
										
										<channellabel>right</channellabel>
										
									
									</audiochannel>
									
								
								</audio>
								
							
							</media>
							
						
						</file>
						<labels>
							<label2>Caribbean</label2>
						</labels>
					</clipitem>
					<clipitem id="clipitem-34" premiereChannelType="mono">
						<masterclipid>masterclip-2</masterclipid>
						<name>narita_all.wav</name>
						<enabled>TRUE</enabled>
						<duration>178953</duration>
						<rate>
							<timebase>30</timebase>
							<ntsc>TRUE</ntsc>
						</rate>
						<start>111363</start>
						<end>123131</end>
						<in>167185</in>
						<out>178953</out>
						<pproTicksIn>1415588832000000</pproTicksIn>
						<pproTicksOut>1515230841600000</pproTicksOut>
						<file id="file-2">
							<name>narita_all.wav</name>
							
							
							<pathurl>file://localhost/Volumes/P-40/Dropbox/%e3%83%95%e3%82%9a%e3%83%a9%e3%83%83%e3%81%a8/01_%e3%83%95%e3%82%9a%e3%83%a9%e3%83%83%e3%81%a8%e7%b4%a0%e6%9d%90/022_%e6%88%90%e7%94%b0%e6%a3%ae%e5%b1%b1/022_main/narita_all.wav</pathurl>
							
							
							<rate>
								
								
								<timebase>25</timebase>
								
								
								<ntsc>FALSE</ntsc>
								
							
							</rate>
							
							
							<duration>173742</duration>
							
							
							<timecode>
								
								
								<rate>
									
									
									<timebase>25</timebase>
									
									
									<ntsc>FALSE</ntsc>
									
								
								</rate>
								
								
								<string>00:00:00:00</string>
								
								
								<frame>0</frame>
								
								
								<displayformat>NDF</displayformat>
								
							
							</timecode>
							
							
							<media>
								
								
								<audio>
									
									
									<samplecharacteristics>
										
										
										<depth>16</depth>
										
										
										<samplerate>48000</samplerate>
										
									
									</samplecharacteristics>
									
									
									<channelcount>1</channelcount>
									
									
									<layout>stereo</layout>
									
									
									<audiochannel>
										
										
										<sourcechannel>1</sourcechannel>
										
										
										<channellabel>left</channellabel>
										
									
									</audiochannel>
									
								
								</audio>
								
								
								<audio>
									
									
									<samplecharacteristics>
										
										
										<depth>16</depth>
										
										
										<samplerate>48000</samplerate>
										
									
									</samplecharacteristics>
									
									
									<channelcount>1</channelcount>
									
									
									<layout>stereo</layout>
									
									
									<audiochannel>
										
										
										<sourcechannel>2</sourcechannel>
										
										
										<channellabel>right</channellabel>
										
									
									</audiochannel>
									
								
								</audio>
								
							
							</media>
							
						
						</file>
						<labels>
							<label2>Forest</label2>
						</labels>
					</clipitem>
					<enabled>TRUE</enabled>
					
					
					<locked>FALSE</locked>
					
					
					<outputchannelindex>2</outputchannelindex>
					
				
				</track>
				<track TL.SQTrackAudioKeyframeStyle="0" TL.SQTrackShy="0" TL.SQTrackExpandedHeight="146" TL.SQTrackExpanded="0" MZ.TrackTargeted="1" MZ.TrackName="Output 3" PannerCurrentValue="0" PannerIsInverted="true" PannerStartKeyframe="-91445760000000000,0.,0,0,0,0,0,0" PannerName="Pan" currentExplodedTrackIndex="0" totalExplodedTrackCount="1" premiereTrackType="Mono">
					<enabled>TRUE</enabled>
					
					
					<locked>FALSE</locked>
					
					
					<outputchannelindex>3</outputchannelindex>
					
				
				</track>
				<track TL.SQTrackAudioKeyframeStyle="0" TL.SQTrackShy="0" TL.SQTrackExpandedHeight="119" TL.SQTrackExpanded="0" MZ.TrackTargeted="1" MZ.TrackName="Output 4" PannerIsInverted="true" PannerName="Pan" currentExplodedTrackIndex="0" totalExplodedTrackCount="1" premiereTrackType="Mono">
					<enabled>TRUE</enabled>
					
					
					<locked>FALSE</locked>
					
					
					<outputchannelindex>4</outputchannelindex>
					
				
				</track>
				<track TL.SQTrackAudioKeyframeStyle="0" TL.SQTrackShy="0" TL.SQTrackExpandedHeight="104" TL.SQTrackExpanded="0" MZ.TrackTargeted="1" MZ.TrackName="Output 5" PannerCurrentValue="0" PannerIsInverted="true" PannerStartKeyframe="-91445760000000000,0.,0,0,0,0,0,0" PannerName="Pan" currentExplodedTrackIndex="0" totalExplodedTrackCount="1" premiereTrackType="Mono">
					<enabled>TRUE</enabled>
					
					
					<locked>FALSE</locked>
					
					
					<outputchannelindex>5</outputchannelindex>
					
				
				</track>
				<track TL.SQTrackAudioKeyframeStyle="0" TL.SQTrackShy="0" TL.SQTrackExpandedHeight="126" TL.SQTrackExpanded="0" MZ.TrackTargeted="1" MZ.TrackName="Output 6" PannerIsInverted="true" PannerName="Pan" currentExplodedTrackIndex="0" totalExplodedTrackCount="1" premiereTrackType="Mono">
					<enabled>TRUE</enabled>
					
					
					<locked>FALSE</locked>
					
					
					<outputchannelindex>6</outputchannelindex>
					
				
				</track>
			</audio>
		</media>
	</sequence>
</xmeml>
