<?xml version="1.0" encoding="utf-8"?>
<xmeml version="4">
  <sequence>
    <uuid>OrionEp2_short_timeline</uuid>
    <duration>14964</duration>
    <name>OrionEp2_short_timeline</name>
    <rate>
      <timebase>30</timebase>
      <ntsc>TRUE</ntsc>
    </rate>
    <media>
      <video>
        <format/>
      </video>
      <audio>
        <track>
          <clipitem id="clipitem-1">
            <name>OrionEp2Short-001-NA.mp3</name>
            <enabled>TRUE</enabled>
            <duration>174</duration>
            <rate>
              <timebase>30</timebase>
              <ntsc>TRUE</ntsc>
            </rate>
            <start>15</start>
            <end>189</end>
            <in>0</in>
            <out>174</out>
            <file id="file-2">
              <name>OrionEp2Short-001-NA.mp3</name>
              <pathurl>file:///Users/hiroshikodera/repos/_active/tools/davinciauto/projects/OrionEp2/%E3%82%B5%E3%82%A6%E3%83%B3%E3%83%89%E9%A1%9E/NarrationShort/OrionEp2Short-001-NA.mp3</pathurl>
              <rate>
                <timebase>44100</timebase>
                <ntsc>FALSE</ntsc>
              </rate>
              <media>
                <audio>
                  <channelcount>1</channelcount>
                  <samplecharacteristics>
                    <samplerate>44100</samplerate>
                    <samplesize>16</samplesize>
                  </samplecharacteristics>
                </audio>
              </media>
            </file>
            <sourcetrack>
              <mediatype>audio</mediatype>
              <trackindex>1</trackindex>
            </sourcetrack>
          </clipitem>
          <clipitem id="clipitem-2">
            <name>OrionEp2Short-002-NA.mp3</name>
            <enabled>TRUE</enabled>
            <duration>232</duration>
            <rate>
              <timebase>30</timebase>
              <ntsc>TRUE</ntsc>
            </rate>
            <start>203</start>
            <end>435</end>
            <in>0</in>
            <out>232</out>
            <file id="file-3">
              <name>OrionEp2Short-002-NA.mp3</name>
              <pathurl>file:///Users/hiroshikodera/repos/_active/tools/davinciauto/projects/OrionEp2/%E3%82%B5%E3%82%A6%E3%83%B3%E3%83%89%E9%A1%9E/NarrationShort/OrionEp2Short-002-NA.mp3</pathurl>
              <rate>
                <timebase>44100</timebase>
                <ntsc>FALSE</ntsc>
              </rate>
              <media>
                <audio>
                  <channelcount>1</channelcount>
                  <samplecharacteristics>
                    <samplerate>44100</samplerate>
                    <samplesize>16</samplesize>
                  </samplecharacteristics>
                </audio>
              </media>
            </file>
            <sourcetrack>
              <mediatype>audio</mediatype>
              <trackindex>1</trackindex>
            </sourcetrack>
          </clipitem>
          <clipitem id="clipitem-3">
            <name>OrionEp2Short-003-NA.mp3</name>
            <enabled>TRUE</enabled>
            <duration>172</duration>
            <rate>
              <timebase>30</timebase>
              <ntsc>TRUE</ntsc>
            </rate>
            <start>459</start>
            <end>631</end>
            <in>0</in>
            <out>172</out>
            <file id="file-4">
              <name>OrionEp2Short-003-NA.mp3</name>
              <pathurl>file:///Users/hiroshikodera/repos/_active/tools/davinciauto/projects/OrionEp2/%E3%82%B5%E3%82%A6%E3%83%B3%E3%83%89%E9%A1%9E/NarrationShort/OrionEp2Short-003-NA.mp3</pathurl>
              <rate>
                <timebase>44100</timebase>
                <ntsc>FALSE</ntsc>
              </rate>
              <media>
                <audio>
                  <channelcount>1</channelcount>
                  <samplecharacteristics>
                    <samplerate>44100</samplerate>
                    <samplesize>16</samplesize>
                  </samplecharacteristics>
                </audio>
              </media>
            </file>
            <sourcetrack>
              <mediatype>audio</mediatype>
              <trackindex>1</trackindex>
            </sourcetrack>
          </clipitem>
          <clipitem id="clipitem-4">
            <name>OrionEp2Short-004-NA.mp3</name>
            <enabled>TRUE</enabled>
            <duration>98</duration>
            <rate>
              <timebase>30</timebase>
              <ntsc>TRUE</ntsc>
            </rate>
            <start>645</start>
            <end>743</end>
            <in>0</in>
            <out>98</out>
            <file id="file-5">
              <name>OrionEp2Short-004-NA.mp3</name>
              <pathurl>file:///Users/hiroshikodera/repos/_active/tools/davinciauto/projects/OrionEp2/%E3%82%B5%E3%82%A6%E3%83%B3%E3%83%89%E9%A1%9E/NarrationShort/OrionEp2Short-004-NA.mp3</pathurl>
              <rate>
                <timebase>44100</timebase>
                <ntsc>FALSE</ntsc>
              </rate>
              <media>
                <audio>
                  <channelcount>1</channelcount>
                  <samplecharacteristics>
                    <samplerate>44100</samplerate>
                    <samplesize>16</samplesize>
                  </samplecharacteristics>
                </audio>
              </media>
            </file>
            <sourcetrack>
              <mediatype>audio</mediatype>
              <trackindex>1</trackindex>
            </sourcetrack>
          </clipitem>
          <clipitem id="clipitem-5">
            <name>OrionEp2Short-005-NA.mp3</name>
            <enabled>TRUE</enabled>
            <duration>141</duration>
            <rate>
              <timebase>30</timebase>
              <ntsc>TRUE</ntsc>
            </rate>
            <start>755</start>
            <end>896</end>
            <in>0</in>
            <out>141</out>
            <file id="file-6">
              <name>OrionEp2Short-005-NA.mp3</name>
              <pathurl>file:///Users/hiroshikodera/repos/_active/tools/davinciauto/projects/OrionEp2/%E3%82%B5%E3%82%A6%E3%83%B3%E3%83%89%E9%A1%9E/NarrationShort/OrionEp2Short-005-NA.mp3</pathurl>
              <rate>
                <timebase>44100</timebase>
                <ntsc>FALSE</ntsc>
              </rate>
              <media>
                <audio>
                  <channelcount>1</channelcount>
                  <samplecharacteristics>
                    <samplerate>44100</samplerate>
                    <samplesize>16</samplesize>
                  </samplecharacteristics>
                </audio>
              </media>
            </file>
            <sourcetrack>
              <mediatype>audio</mediatype>
              <trackindex>1</trackindex>
            </sourcetrack>
          </clipitem>
          <clipitem id="clipitem-6">
            <name>OrionEp2Short-006-NA.mp3</name>
            <enabled>TRUE</enabled>
            <duration>163</duration>
            <rate>
              <timebase>30</timebase>
              <ntsc>TRUE</ntsc>
            </rate>
            <start>909</start>
            <end>1072</end>
            <in>0</in>
            <out>163</out>
            <file id="file-7">
              <name>OrionEp2Short-006-NA.mp3</name>
              <pathurl>file:///Users/hiroshikodera/repos/_active/tools/davinciauto/projects/OrionEp2/%E3%82%B5%E3%82%A6%E3%83%B3%E3%83%89%E9%A1%9E/NarrationShort/OrionEp2Short-006-NA.mp3</pathurl>
              <rate>
                <timebase>44100</timebase>
                <ntsc>FALSE</ntsc>
              </rate>
              <media>
                <audio>
                  <channelcount>1</channelcount>
                  <samplecharacteristics>
                    <samplerate>44100</samplerate>
                    <samplesize>16</samplesize>
                  </samplecharacteristics>
                </audio>
              </media>
            </file>
            <sourcetrack>
              <mediatype>audio</mediatype>
              <trackindex>1</trackindex>
            </sourcetrack>
          </clipitem>
          <clipitem id="clipitem-7">
            <name>OrionEp2Short-007-NA.mp3</name>
            <enabled>TRUE</enabled>
            <duration>189</duration>
            <rate>
              <timebase>30</timebase>
              <ntsc>TRUE</ntsc>
            </rate>
            <start>1086</start>
            <end>1275</end>
            <in>0</in>
            <out>189</out>
            <file id="file-8">
              <name>OrionEp2Short-007-NA.mp3</name>
              <pathurl>file:///Users/hiroshikodera/repos/_active/tools/davinciauto/projects/OrionEp2/%E3%82%B5%E3%82%A6%E3%83%B3%E3%83%89%E9%A1%9E/NarrationShort/OrionEp2Short-007-NA.mp3</pathurl>
              <rate>
                <timebase>44100</timebase>
                <ntsc>FALSE</ntsc>
              </rate>
              <media>
                <audio>
                  <channelcount>1</channelcount>
                  <samplecharacteristics>
                    <samplerate>44100</samplerate>
                    <samplesize>16</samplesize>
                  </samplecharacteristics>
                </audio>
              </media>
            </file>
            <sourcetrack>
              <mediatype>audio</mediatype>
              <trackindex>1</trackindex>
            </sourcetrack>
          </clipitem>
          <clipitem id="clipitem-8">
            <name>OrionEp2Short-008-NA.mp3</name>
            <enabled>TRUE</enabled>
            <duration>194</duration>
            <rate>
              <timebase>30</timebase>
              <ntsc>TRUE</ntsc>
            </rate>
            <start>1290</start>
            <end>1484</end>
            <in>0</in>
            <out>194</out>
            <file id="file-9">
              <name>OrionEp2Short-008-NA.mp3</name>
              <pathurl>file:///Users/hiroshikodera/repos/_active/tools/davinciauto/projects/OrionEp2/%E3%82%B5%E3%82%A6%E3%83%B3%E3%83%89%E9%A1%9E/NarrationShort/OrionEp2Short-008-NA.mp3</pathurl>
              <rate>
                <timebase>44100</timebase>
                <ntsc>FALSE</ntsc>
              </rate>
              <media>
                <audio>
                  <channelcount>1</channelcount>
                  <samplecharacteristics>
                    <samplerate>44100</samplerate>
                    <samplesize>16</samplesize>
                  </samplecharacteristics>
                </audio>
              </media>
            </file>
            <sourcetrack>
              <mediatype>audio</mediatype>
              <trackindex>1</trackindex>
            </sourcetrack>
          </clipitem>
          <clipitem id="clipitem-9">
            <name>OrionEp2Short-009-NA.mp3</name>
            <enabled>TRUE</enabled>
            <duration>192</duration>
            <rate>
              <timebase>30</timebase>
              <ntsc>TRUE</ntsc>
            </rate>
            <start>1498</start>
            <end>1690</end>
            <in>0</in>
            <out>192</out>
            <file id="file-10">
              <name>OrionEp2Short-009-NA.mp3</name>
              <pathurl>file:///Users/hiroshikodera/repos/_active/tools/davinciauto/projects/OrionEp2/%E3%82%B5%E3%82%A6%E3%83%B3%E3%83%89%E9%A1%9E/NarrationShort/OrionEp2Short-009-NA.mp3</pathurl>
              <rate>
                <timebase>44100</timebase>
                <ntsc>FALSE</ntsc>
              </rate>
              <media>
                <audio>
                  <channelcount>1</channelcount>
                  <samplecharacteristics>
                    <samplerate>44100</samplerate>
                    <samplesize>16</samplesize>
                  </samplecharacteristics>
                </audio>
              </media>
            </file>
            <sourcetrack>
              <mediatype>audio</mediatype>
              <trackindex>1</trackindex>
            </sourcetrack>
          </clipitem>
          <clipitem id="clipitem-10">
            <name>OrionEp2Short-010-NA.mp3</name>
            <enabled>TRUE</enabled>
            <duration>199</duration>
            <rate>
              <timebase>30</timebase>
              <ntsc>TRUE</ntsc>
            </rate>
            <start>1705</start>
            <end>1904</end>
            <in>0</in>
            <out>199</out>
            <file id="file-11">
              <name>OrionEp2Short-010-NA.mp3</name>
              <pathurl>file:///Users/hiroshikodera/repos/_active/tools/davinciauto/projects/OrionEp2/%E3%82%B5%E3%82%A6%E3%83%B3%E3%83%89%E9%A1%9E/NarrationShort/OrionEp2Short-010-NA.mp3</pathurl>
              <rate>
                <timebase>44100</timebase>
                <ntsc>FALSE</ntsc>
              </rate>
              <media>
                <audio>
                  <channelcount>1</channelcount>
                  <samplecharacteristics>
                    <samplerate>44100</samplerate>
                    <samplesize>16</samplesize>
                  </samplecharacteristics>
                </audio>
              </media>
            </file>
            <sourcetrack>
              <mediatype>audio</mediatype>
              <trackindex>1</trackindex>
            </sourcetrack>
          </clipitem>
          <clipitem id="clipitem-11">
            <name>OrionEp2Short-011-NA.mp3</name>
            <enabled>TRUE</enabled>
            <duration>140</duration>
            <rate>
              <timebase>30</timebase>
              <ntsc>TRUE</ntsc>
            </rate>
            <start>1919</start>
            <end>2059</end>
            <in>0</in>
            <out>140</out>
            <file id="file-12">
              <name>OrionEp2Short-011-NA.mp3</name>
              <pathurl>file:///Users/hiroshikodera/repos/_active/tools/davinciauto/projects/OrionEp2/%E3%82%B5%E3%82%A6%E3%83%B3%E3%83%89%E9%A1%9E/NarrationShort/OrionEp2Short-011-NA.mp3</pathurl>
              <rate>
                <timebase>44100</timebase>
                <ntsc>FALSE</ntsc>
              </rate>
              <media>
                <audio>
                  <channelcount>1</channelcount>
                  <samplecharacteristics>
                    <samplerate>44100</samplerate>
                    <samplesize>16</samplesize>
                  </samplecharacteristics>
                </audio>
              </media>
            </file>
            <sourcetrack>
              <mediatype>audio</mediatype>
              <trackindex>1</trackindex>
            </sourcetrack>
          </clipitem>
          <clipitem id="clipitem-12">
            <name>OrionEp2Short-012-NA.mp3</name>
            <enabled>TRUE</enabled>
            <duration>126</duration>
            <rate>
              <timebase>30</timebase>
              <ntsc>TRUE</ntsc>
            </rate>
            <start>2072</start>
            <end>2198</end>
            <in>0</in>
            <out>126</out>
            <file id="file-13">
              <name>OrionEp2Short-012-NA.mp3</name>
              <pathurl>file:///Users/hiroshikodera/repos/_active/tools/davinciauto/projects/OrionEp2/%E3%82%B5%E3%82%A6%E3%83%B3%E3%83%89%E9%A1%9E/NarrationShort/OrionEp2Short-012-NA.mp3</pathurl>
              <rate>
                <timebase>44100</timebase>
                <ntsc>FALSE</ntsc>
              </rate>
              <media>
                <audio>
                  <channelcount>1</channelcount>
                  <samplecharacteristics>
                    <samplerate>44100</samplerate>
                    <samplesize>16</samplesize>
                  </samplecharacteristics>
                </audio>
              </media>
            </file>
            <sourcetrack>
              <mediatype>audio</mediatype>
              <trackindex>1</trackindex>
            </sourcetrack>
          </clipitem>
          <clipitem id="clipitem-13">
            <name>OrionEp2Short-013-DL.mp3</name>
            <enabled>TRUE</enabled>
            <duration>104</duration>
            <rate>
              <timebase>30</timebase>
              <ntsc>TRUE</ntsc>
            </rate>
            <start>2211</start>
            <end>2315</end>
            <in>0</in>
            <out>104</out>
            <file id="file-14">
              <name>OrionEp2Short-013-DL.mp3</name>
              <pathurl>file:///Users/hiroshikodera/repos/_active/tools/davinciauto/projects/OrionEp2/%E3%82%B5%E3%82%A6%E3%83%B3%E3%83%89%E9%A1%9E/NarrationShort/OrionEp2Short-013-DL.mp3</pathurl>
              <rate>
                <timebase>44100</timebase>
                <ntsc>FALSE</ntsc>
              </rate>
              <media>
                <audio>
                  <channelcount>1</channelcount>
                  <samplecharacteristics>
                    <samplerate>44100</samplerate>
                    <samplesize>16</samplesize>
                  </samplecharacteristics>
                </audio>
              </media>
            </file>
            <sourcetrack>
              <mediatype>audio</mediatype>
              <trackindex>1</trackindex>
            </sourcetrack>
          </clipitem>
          <clipitem id="clipitem-14">
            <name>OrionEp2Short-014-NA.mp3</name>
            <enabled>TRUE</enabled>
            <duration>174</duration>
            <rate>
              <timebase>30</timebase>
              <ntsc>TRUE</ntsc>
            </rate>
            <start>2344</start>
            <end>2518</end>
            <in>0</in>
            <out>174</out>
            <file id="file-15">
              <name>OrionEp2Short-014-NA.mp3</name>
              <pathurl>file:///Users/hiroshikodera/repos/_active/tools/davinciauto/projects/OrionEp2/%E3%82%B5%E3%82%A6%E3%83%B3%E3%83%89%E9%A1%9E/NarrationShort/OrionEp2Short-014-NA.mp3</pathurl>
              <rate>
                <timebase>44100</timebase>
                <ntsc>FALSE</ntsc>
              </rate>
              <media>
                <audio>
                  <channelcount>1</channelcount>
                  <samplecharacteristics>
                    <samplerate>44100</samplerate>
                    <samplesize>16</samplesize>
                  </samplecharacteristics>
                </audio>
              </media>
            </file>
            <sourcetrack>
              <mediatype>audio</mediatype>
              <trackindex>1</trackindex>
            </sourcetrack>
          </clipitem>
          <clipitem id="clipitem-15">
            <name>OrionEp2Short-015-NA.mp3</name>
            <enabled>TRUE</enabled>
            <duration>79</duration>
            <rate>
              <timebase>30</timebase>
              <ntsc>TRUE</ntsc>
            </rate>
            <start>2532</start>
            <end>2611</end>
            <in>0</in>
            <out>79</out>
            <file id="file-16">
              <name>OrionEp2Short-015-NA.mp3</name>
              <pathurl>file:///Users/hiroshikodera/repos/_active/tools/davinciauto/projects/OrionEp2/%E3%82%B5%E3%82%A6%E3%83%B3%E3%83%89%E9%A1%9E/NarrationShort/OrionEp2Short-015-NA.mp3</pathurl>
              <rate>
                <timebase>44100</timebase>
                <ntsc>FALSE</ntsc>
              </rate>
              <media>
                <audio>
                  <channelcount>1</channelcount>
                  <samplecharacteristics>
                    <samplerate>44100</samplerate>
                    <samplesize>16</samplesize>
                  </samplecharacteristics>
                </audio>
              </media>
            </file>
            <sourcetrack>
              <mediatype>audio</mediatype>
              <trackindex>1</trackindex>
            </sourcetrack>
          </clipitem>
          <clipitem id="clipitem-16">
            <name>OrionEp2Short-016-NA.mp3</name>
            <enabled>TRUE</enabled>
            <duration>138</duration>
            <rate>
              <timebase>30</timebase>
              <ntsc>TRUE</ntsc>
            </rate>
            <start>2624</start>
            <end>2762</end>
            <in>0</in>
            <out>138</out>
            <file id="file-17">
              <name>OrionEp2Short-016-NA.mp3</name>
              <pathurl>file:///Users/hiroshikodera/repos/_active/tools/davinciauto/projects/OrionEp2/%E3%82%B5%E3%82%A6%E3%83%B3%E3%83%89%E9%A1%9E/NarrationShort/OrionEp2Short-016-NA.mp3</pathurl>
              <rate>
                <timebase>44100</timebase>
                <ntsc>FALSE</ntsc>
              </rate>
              <media>
                <audio>
                  <channelcount>1</channelcount>
                  <samplecharacteristics>
                    <samplerate>44100</samplerate>
                    <samplesize>16</samplesize>
                  </samplecharacteristics>
                </audio>
              </media>
            </file>
            <sourcetrack>
              <mediatype>audio</mediatype>
              <trackindex>1</trackindex>
            </sourcetrack>
          </clipitem>
          <clipitem id="clipitem-17">
            <name>OrionEp2Short-017-NA.mp3</name>
            <enabled>TRUE</enabled>
            <duration>173</duration>
            <rate>
              <timebase>30</timebase>
              <ntsc>TRUE</ntsc>
            </rate>
            <start>2774</start>
            <end>2947</end>
            <in>0</in>
            <out>173</out>
            <file id="file-18">
              <name>OrionEp2Short-017-NA.mp3</name>
              <pathurl>file:///Users/hiroshikodera/repos/_active/tools/davinciauto/projects/OrionEp2/%E3%82%B5%E3%82%A6%E3%83%B3%E3%83%89%E9%A1%9E/NarrationShort/OrionEp2Short-017-NA.mp3</pathurl>
              <rate>
                <timebase>44100</timebase>
                <ntsc>FALSE</ntsc>
              </rate>
              <media>
                <audio>
                  <channelcount>1</channelcount>
                  <samplecharacteristics>
                    <samplerate>44100</samplerate>
                    <samplesize>16</samplesize>
                  </samplecharacteristics>
                </audio>
              </media>
            </file>
            <sourcetrack>
              <mediatype>audio</mediatype>
              <trackindex>1</trackindex>
            </sourcetrack>
          </clipitem>
          <clipitem id="clipitem-18">
            <name>OrionEp2Short-018-DL.mp3</name>
            <enabled>TRUE</enabled>
            <duration>81</duration>
            <rate>
              <timebase>30</timebase>
              <ntsc>TRUE</ntsc>
            </rate>
            <start>2961</start>
            <end>3042</end>
            <in>0</in>
            <out>81</out>
            <file id="file-19">
              <name>OrionEp2Short-018-DL.mp3</name>
              <pathurl>file:///Users/hiroshikodera/repos/_active/tools/davinciauto/projects/OrionEp2/%E3%82%B5%E3%82%A6%E3%83%B3%E3%83%89%E9%A1%9E/NarrationShort/OrionEp2Short-018-DL.mp3</pathurl>
              <rate>
                <timebase>44100</timebase>
                <ntsc>FALSE</ntsc>
              </rate>
              <media>
                <audio>
                  <channelcount>1</channelcount>
                  <samplecharacteristics>
                    <samplerate>44100</samplerate>
                    <samplesize>16</samplesize>
                  </samplecharacteristics>
                </audio>
              </media>
            </file>
            <sourcetrack>
              <mediatype>audio</mediatype>
              <trackindex>1</trackindex>
            </sourcetrack>
          </clipitem>
          <clipitem id="clipitem-19">
            <name>OrionEp2Short-019-NA.mp3</name>
            <enabled>TRUE</enabled>
            <duration>117</duration>
            <rate>
              <timebase>30</timebase>
              <ntsc>TRUE</ntsc>
            </rate>
            <start>3070</start>
            <end>3187</end>
            <in>0</in>
            <out>117</out>
            <file id="file-20">
              <name>OrionEp2Short-019-NA.mp3</name>
              <pathurl>file:///Users/hiroshikodera/repos/_active/tools/davinciauto/projects/OrionEp2/%E3%82%B5%E3%82%A6%E3%83%B3%E3%83%89%E9%A1%9E/NarrationShort/OrionEp2Short-019-NA.mp3</pathurl>
              <rate>
                <timebase>44100</timebase>
                <ntsc>FALSE</ntsc>
              </rate>
              <media>
                <audio>
                  <channelcount>1</channelcount>
                  <samplecharacteristics>
                    <samplerate>44100</samplerate>
                    <samplesize>16</samplesize>
                  </samplecharacteristics>
                </audio>
              </media>
            </file>
            <sourcetrack>
              <mediatype>audio</mediatype>
              <trackindex>1</trackindex>
            </sourcetrack>
          </clipitem>
          <clipitem id="clipitem-20">
            <name>OrionEp2Short-020-NA.mp3</name>
            <enabled>TRUE</enabled>
            <duration>156</duration>
            <rate>
              <timebase>30</timebase>
              <ntsc>TRUE</ntsc>
            </rate>
            <start>3200</start>
            <end>3356</end>
            <in>0</in>
            <out>156</out>
            <file id="file-21">
              <name>OrionEp2Short-020-NA.mp3</name>
              <pathurl>file:///Users/hiroshikodera/repos/_active/tools/davinciauto/projects/OrionEp2/%E3%82%B5%E3%82%A6%E3%83%B3%E3%83%89%E9%A1%9E/NarrationShort/OrionEp2Short-020-NA.mp3</pathurl>
              <rate>
                <timebase>44100</timebase>
                <ntsc>FALSE</ntsc>
              </rate>
              <media>
                <audio>
                  <channelcount>1</channelcount>
                  <samplecharacteristics>
                    <samplerate>44100</samplerate>
                    <samplesize>16</samplesize>
                  </samplecharacteristics>
                </audio>
              </media>
            </file>
            <sourcetrack>
              <mediatype>audio</mediatype>
              <trackindex>1</trackindex>
            </sourcetrack>
          </clipitem>
          <clipitem id="clipitem-21">
            <name>OrionEp2Short-021-NA.mp3</name>
            <enabled>TRUE</enabled>
            <duration>114</duration>
            <rate>
              <timebase>30</timebase>
              <ntsc>TRUE</ntsc>
            </rate>
            <start>3369</start>
            <end>3483</end>
            <in>0</in>
            <out>114</out>
            <file id="file-22">
              <name>OrionEp2Short-021-NA.mp3</name>
              <pathurl>file:///Users/hiroshikodera/repos/_active/tools/davinciauto/projects/OrionEp2/%E3%82%B5%E3%82%A6%E3%83%B3%E3%83%89%E9%A1%9E/NarrationShort/OrionEp2Short-021-NA.mp3</pathurl>
              <rate>
                <timebase>44100</timebase>
                <ntsc>FALSE</ntsc>
              </rate>
              <media>
                <audio>
                  <channelcount>1</channelcount>
                  <samplecharacteristics>
                    <samplerate>44100</samplerate>
                    <samplesize>16</samplesize>
                  </samplecharacteristics>
                </audio>
              </media>
            </file>
            <sourcetrack>
              <mediatype>audio</mediatype>
              <trackindex>1</trackindex>
            </sourcetrack>
          </clipitem>
          <clipitem id="clipitem-22">
            <name>OrionEp2Short-022-NA.mp3</name>
            <enabled>TRUE</enabled>
            <duration>214</duration>
            <rate>
              <timebase>30</timebase>
              <ntsc>TRUE</ntsc>
            </rate>
            <start>3495</start>
            <end>3709</end>
            <in>0</in>
            <out>214</out>
            <file id="file-23">
              <name>OrionEp2Short-022-NA.mp3</name>
              <pathurl>file:///Users/hiroshikodera/repos/_active/tools/davinciauto/projects/OrionEp2/%E3%82%B5%E3%82%A6%E3%83%B3%E3%83%89%E9%A1%9E/NarrationShort/OrionEp2Short-022-NA.mp3</pathurl>
              <rate>
                <timebase>44100</timebase>
                <ntsc>FALSE</ntsc>
              </rate>
              <media>
                <audio>
                  <channelcount>1</channelcount>
                  <samplecharacteristics>
                    <samplerate>44100</samplerate>
                    <samplesize>16</samplesize>
                  </samplecharacteristics>
                </audio>
              </media>
            </file>
            <sourcetrack>
              <mediatype>audio</mediatype>
              <trackindex>1</trackindex>
            </sourcetrack>
          </clipitem>
          <clipitem id="clipitem-23">
            <name>OrionEp2Short-023-NA.mp3</name>
            <enabled>TRUE</enabled>
            <duration>118</duration>
            <rate>
              <timebase>30</timebase>
              <ntsc>TRUE</ntsc>
            </rate>
            <start>3725</start>
            <end>3843</end>
            <in>0</in>
            <out>118</out>
            <file id="file-24">
              <name>OrionEp2Short-023-NA.mp3</name>
              <pathurl>file:///Users/hiroshikodera/repos/_active/tools/davinciauto/projects/OrionEp2/%E3%82%B5%E3%82%A6%E3%83%B3%E3%83%89%E9%A1%9E/NarrationShort/OrionEp2Short-023-NA.mp3</pathurl>
              <rate>
                <timebase>44100</timebase>
                <ntsc>FALSE</ntsc>
              </rate>
              <media>
                <audio>
                  <channelcount>1</channelcount>
                  <samplecharacteristics>
                    <samplerate>44100</samplerate>
                    <samplesize>16</samplesize>
                  </samplecharacteristics>
                </audio>
              </media>
            </file>
            <sourcetrack>
              <mediatype>audio</mediatype>
              <trackindex>1</trackindex>
            </sourcetrack>
          </clipitem>
          <clipitem id="clipitem-24">
            <name>OrionEp2Short-024-NA.mp3</name>
            <enabled>TRUE</enabled>
            <duration>156</duration>
            <rate>
              <timebase>30</timebase>
              <ntsc>TRUE</ntsc>
            </rate>
            <start>3856</start>
            <end>4012</end>
            <in>0</in>
            <out>156</out>
            <file id="file-25">
              <name>OrionEp2Short-024-NA.mp3</name>
              <pathurl>file:///Users/hiroshikodera/repos/_active/tools/davinciauto/projects/OrionEp2/%E3%82%B5%E3%82%A6%E3%83%B3%E3%83%89%E9%A1%9E/NarrationShort/OrionEp2Short-024-NA.mp3</pathurl>
              <rate>
                <timebase>44100</timebase>
                <ntsc>FALSE</ntsc>
              </rate>
              <media>
                <audio>
                  <channelcount>1</channelcount>
                  <samplecharacteristics>
                    <samplerate>44100</samplerate>
                    <samplesize>16</samplesize>
                  </samplecharacteristics>
                </audio>
              </media>
            </file>
            <sourcetrack>
              <mediatype>audio</mediatype>
              <trackindex>1</trackindex>
            </sourcetrack>
          </clipitem>
          <clipitem id="clipitem-25">
            <name>OrionEp2Short-025-NA.mp3</name>
            <enabled>TRUE</enabled>
            <duration>181</duration>
            <rate>
              <timebase>30</timebase>
              <ntsc>TRUE</ntsc>
            </rate>
            <start>4025</start>
            <end>4206</end>
            <in>0</in>
            <out>181</out>
            <file id="file-26">
              <name>OrionEp2Short-025-NA.mp3</name>
              <pathurl>file:///Users/hiroshikodera/repos/_active/tools/davinciauto/projects/OrionEp2/%E3%82%B5%E3%82%A6%E3%83%B3%E3%83%89%E9%A1%9E/NarrationShort/OrionEp2Short-025-NA.mp3</pathurl>
              <rate>
                <timebase>44100</timebase>
                <ntsc>FALSE</ntsc>
              </rate>
              <media>
                <audio>
                  <channelcount>1</channelcount>
                  <samplecharacteristics>
                    <samplerate>44100</samplerate>
                    <samplesize>16</samplesize>
                  </samplecharacteristics>
                </audio>
              </media>
            </file>
            <sourcetrack>
              <mediatype>audio</mediatype>
              <trackindex>1</trackindex>
            </sourcetrack>
          </clipitem>
          <clipitem id="clipitem-26">
            <name>OrionEp2Short-026-DL.mp3</name>
            <enabled>TRUE</enabled>
            <duration>204</duration>
            <rate>
              <timebase>30</timebase>
              <ntsc>TRUE</ntsc>
            </rate>
            <start>4221</start>
            <end>4425</end>
            <in>0</in>
            <out>204</out>
            <file id="file-27">
              <name>OrionEp2Short-026-DL.mp3</name>
              <pathurl>file:///Users/hiroshikodera/repos/_active/tools/davinciauto/projects/OrionEp2/%E3%82%B5%E3%82%A6%E3%83%B3%E3%83%89%E9%A1%9E/NarrationShort/OrionEp2Short-026-DL.mp3</pathurl>
              <rate>
                <timebase>44100</timebase>
                <ntsc>FALSE</ntsc>
              </rate>
              <media>
                <audio>
                  <channelcount>1</channelcount>
                  <samplecharacteristics>
                    <samplerate>44100</samplerate>
                    <samplesize>16</samplesize>
                  </samplecharacteristics>
                </audio>
              </media>
            </file>
            <sourcetrack>
              <mediatype>audio</mediatype>
              <trackindex>1</trackindex>
            </sourcetrack>
          </clipitem>
          <clipitem id="clipitem-27">
            <name>OrionEp2Short-027-NA.mp3</name>
            <enabled>TRUE</enabled>
            <duration>116</duration>
            <rate>
              <timebase>30</timebase>
              <ntsc>TRUE</ntsc>
            </rate>
            <start>4447</start>
            <end>4563</end>
            <in>0</in>
            <out>116</out>
            <file id="file-28">
              <name>OrionEp2Short-027-NA.mp3</name>
              <pathurl>file:///Users/hiroshikodera/repos/_active/tools/davinciauto/projects/OrionEp2/%E3%82%B5%E3%82%A6%E3%83%B3%E3%83%89%E9%A1%9E/NarrationShort/OrionEp2Short-027-NA.mp3</pathurl>
              <rate>
                <timebase>44100</timebase>
                <ntsc>FALSE</ntsc>
              </rate>
              <media>
                <audio>
                  <channelcount>1</channelcount>
                  <samplecharacteristics>
                    <samplerate>44100</samplerate>
                    <samplesize>16</samplesize>
                  </samplecharacteristics>
                </audio>
              </media>
            </file>
            <sourcetrack>
              <mediatype>audio</mediatype>
              <trackindex>1</trackindex>
            </sourcetrack>
          </clipitem>
          <clipitem id="clipitem-28">
            <name>OrionEp2Short-028-NA.mp3</name>
            <enabled>TRUE</enabled>
            <duration>179</duration>
            <rate>
              <timebase>30</timebase>
              <ntsc>TRUE</ntsc>
            </rate>
            <start>4575</start>
            <end>4754</end>
            <in>0</in>
            <out>179</out>
            <file id="file-29">
              <name>OrionEp2Short-028-NA.mp3</name>
              <pathurl>file:///Users/hiroshikodera/repos/_active/tools/davinciauto/projects/OrionEp2/%E3%82%B5%E3%82%A6%E3%83%B3%E3%83%89%E9%A1%9E/NarrationShort/OrionEp2Short-028-NA.mp3</pathurl>
              <rate>
                <timebase>44100</timebase>
                <ntsc>FALSE</ntsc>
              </rate>
              <media>
                <audio>
                  <channelcount>1</channelcount>
                  <samplecharacteristics>
                    <samplerate>44100</samplerate>
                    <samplesize>16</samplesize>
                  </samplecharacteristics>
                </audio>
              </media>
            </file>
            <sourcetrack>
              <mediatype>audio</mediatype>
              <trackindex>1</trackindex>
            </sourcetrack>
          </clipitem>
          <clipitem id="clipitem-29">
            <name>OrionEp2Short-029-NA.mp3</name>
            <enabled>TRUE</enabled>
            <duration>292</duration>
            <rate>
              <timebase>30</timebase>
              <ntsc>TRUE</ntsc>
            </rate>
            <start>4768</start>
            <end>5060</end>
            <in>0</in>
            <out>292</out>
            <file id="file-30">
              <name>OrionEp2Short-029-NA.mp3</name>
              <pathurl>file:///Users/hiroshikodera/repos/_active/tools/davinciauto/projects/OrionEp2/%E3%82%B5%E3%82%A6%E3%83%B3%E3%83%89%E9%A1%9E/NarrationShort/OrionEp2Short-029-NA.mp3</pathurl>
              <rate>
                <timebase>44100</timebase>
                <ntsc>FALSE</ntsc>
              </rate>
              <media>
                <audio>
                  <channelcount>1</channelcount>
                  <samplecharacteristics>
                    <samplerate>44100</samplerate>
                    <samplesize>16</samplesize>
                  </samplecharacteristics>
                </audio>
              </media>
            </file>
            <sourcetrack>
              <mediatype>audio</mediatype>
              <trackindex>1</trackindex>
            </sourcetrack>
          </clipitem>
          <clipitem id="clipitem-30">
            <name>OrionEp2Short-030-NA.mp3</name>
            <enabled>TRUE</enabled>
            <duration>127</duration>
            <rate>
              <timebase>30</timebase>
              <ntsc>TRUE</ntsc>
            </rate>
            <start>5077</start>
            <end>5204</end>
            <in>0</in>
            <out>127</out>
            <file id="file-31">
              <name>OrionEp2Short-030-NA.mp3</name>
              <pathurl>file:///Users/hiroshikodera/repos/_active/tools/davinciauto/projects/OrionEp2/%E3%82%B5%E3%82%A6%E3%83%B3%E3%83%89%E9%A1%9E/NarrationShort/OrionEp2Short-030-NA.mp3</pathurl>
              <rate>
                <timebase>44100</timebase>
                <ntsc>FALSE</ntsc>
              </rate>
              <media>
                <audio>
                  <channelcount>1</channelcount>
                  <samplecharacteristics>
                    <samplerate>44100</samplerate>
                    <samplesize>16</samplesize>
                  </samplecharacteristics>
                </audio>
              </media>
            </file>
            <sourcetrack>
              <mediatype>audio</mediatype>
              <trackindex>1</trackindex>
            </sourcetrack>
          </clipitem>
          <clipitem id="clipitem-31">
            <name>OrionEp2Short-031-NA.mp3</name>
            <enabled>TRUE</enabled>
            <duration>109</duration>
            <rate>
              <timebase>30</timebase>
              <ntsc>TRUE</ntsc>
            </rate>
            <start>5217</start>
            <end>5326</end>
            <in>0</in>
            <out>109</out>
            <file id="file-32">
              <name>OrionEp2Short-031-NA.mp3</name>
              <pathurl>file:///Users/hiroshikodera/repos/_active/tools/davinciauto/projects/OrionEp2/%E3%82%B5%E3%82%A6%E3%83%B3%E3%83%89%E9%A1%9E/NarrationShort/OrionEp2Short-031-NA.mp3</pathurl>
              <rate>
                <timebase>44100</timebase>
                <ntsc>FALSE</ntsc>
              </rate>
              <media>
                <audio>
                  <channelcount>1</channelcount>
                  <samplecharacteristics>
                    <samplerate>44100</samplerate>
                    <samplesize>16</samplesize>
                  </samplecharacteristics>
                </audio>
              </media>
            </file>
            <sourcetrack>
              <mediatype>audio</mediatype>
              <trackindex>1</trackindex>
            </sourcetrack>
          </clipitem>
          <clipitem id="clipitem-32">
            <name>OrionEp2Short-032-NA.mp3</name>
            <enabled>TRUE</enabled>
            <duration>178</duration>
            <rate>
              <timebase>30</timebase>
              <ntsc>TRUE</ntsc>
            </rate>
            <start>5338</start>
            <end>5516</end>
            <in>0</in>
            <out>178</out>
            <file id="file-33">
              <name>OrionEp2Short-032-NA.mp3</name>
              <pathurl>file:///Users/hiroshikodera/repos/_active/tools/davinciauto/projects/OrionEp2/%E3%82%B5%E3%82%A6%E3%83%B3%E3%83%89%E9%A1%9E/NarrationShort/OrionEp2Short-032-NA.mp3</pathurl>
              <rate>
                <timebase>44100</timebase>
                <ntsc>FALSE</ntsc>
              </rate>
              <media>
                <audio>
                  <channelcount>1</channelcount>
                  <samplecharacteristics>
                    <samplerate>44100</samplerate>
                    <samplesize>16</samplesize>
                  </samplecharacteristics>
                </audio>
              </media>
            </file>
            <sourcetrack>
              <mediatype>audio</mediatype>
              <trackindex>1</trackindex>
            </sourcetrack>
          </clipitem>
          <clipitem id="clipitem-33">
            <name>OrionEp2Short-033-NA.mp3</name>
            <enabled>TRUE</enabled>
            <duration>104</duration>
            <rate>
              <timebase>30</timebase>
              <ntsc>TRUE</ntsc>
            </rate>
            <start>5530</start>
            <end>5634</end>
            <in>0</in>
            <out>104</out>
            <file id="file-34">
              <name>OrionEp2Short-033-NA.mp3</name>
              <pathurl>file:///Users/hiroshikodera/repos/_active/tools/davinciauto/projects/OrionEp2/%E3%82%B5%E3%82%A6%E3%83%B3%E3%83%89%E9%A1%9E/NarrationShort/OrionEp2Short-033-NA.mp3</pathurl>
              <rate>
                <timebase>44100</timebase>
                <ntsc>FALSE</ntsc>
              </rate>
              <media>
                <audio>
                  <channelcount>1</channelcount>
                  <samplecharacteristics>
                    <samplerate>44100</samplerate>
                    <samplesize>16</samplesize>
                  </samplecharacteristics>
                </audio>
              </media>
            </file>
            <sourcetrack>
              <mediatype>audio</mediatype>
              <trackindex>1</trackindex>
            </sourcetrack>
          </clipitem>
          <clipitem id="clipitem-34">
            <name>OrionEp2Short-034-NA.mp3</name>
            <enabled>TRUE</enabled>
            <duration>145</duration>
            <rate>
              <timebase>30</timebase>
              <ntsc>TRUE</ntsc>
            </rate>
            <start>5646</start>
            <end>5791</end>
            <in>0</in>
            <out>145</out>
            <file id="file-35">
              <name>OrionEp2Short-034-NA.mp3</name>
              <pathurl>file:///Users/hiroshikodera/repos/_active/tools/davinciauto/projects/OrionEp2/%E3%82%B5%E3%82%A6%E3%83%B3%E3%83%89%E9%A1%9E/NarrationShort/OrionEp2Short-034-NA.mp3</pathurl>
              <rate>
                <timebase>44100</timebase>
                <ntsc>FALSE</ntsc>
              </rate>
              <media>
                <audio>
                  <channelcount>1</channelcount>
                  <samplecharacteristics>
                    <samplerate>44100</samplerate>
                    <samplesize>16</samplesize>
                  </samplecharacteristics>
                </audio>
              </media>
            </file>
            <sourcetrack>
              <mediatype>audio</mediatype>
              <trackindex>1</trackindex>
            </sourcetrack>
          </clipitem>
          <clipitem id="clipitem-35">
            <name>OrionEp2Short-035-DL.mp3</name>
            <enabled>TRUE</enabled>
            <duration>152</duration>
            <rate>
              <timebase>30</timebase>
              <ntsc>TRUE</ntsc>
            </rate>
            <start>5804</start>
            <end>5956</end>
            <in>0</in>
            <out>152</out>
            <file id="file-36">
              <name>OrionEp2Short-035-DL.mp3</name>
              <pathurl>file:///Users/hiroshikodera/repos/_active/tools/davinciauto/projects/OrionEp2/%E3%82%B5%E3%82%A6%E3%83%B3%E3%83%89%E9%A1%9E/NarrationShort/OrionEp2Short-035-DL.mp3</pathurl>
              <rate>
                <timebase>44100</timebase>
                <ntsc>FALSE</ntsc>
              </rate>
              <media>
                <audio>
                  <channelcount>1</channelcount>
                  <samplecharacteristics>
                    <samplerate>44100</samplerate>
                    <samplesize>16</samplesize>
                  </samplecharacteristics>
                </audio>
              </media>
            </file>
            <sourcetrack>
              <mediatype>audio</mediatype>
              <trackindex>1</trackindex>
            </sourcetrack>
          </clipitem>
          <clipitem id="clipitem-36">
            <name>OrionEp2Short-036-NA.mp3</name>
            <enabled>TRUE</enabled>
            <duration>138</duration>
            <rate>
              <timebase>30</timebase>
              <ntsc>TRUE</ntsc>
            </rate>
            <start>5977</start>
            <end>6115</end>
            <in>0</in>
            <out>138</out>
            <file id="file-37">
              <name>OrionEp2Short-036-NA.mp3</name>
              <pathurl>file:///Users/hiroshikodera/repos/_active/tools/davinciauto/projects/OrionEp2/%E3%82%B5%E3%82%A6%E3%83%B3%E3%83%89%E9%A1%9E/NarrationShort/OrionEp2Short-036-NA.mp3</pathurl>
              <rate>
                <timebase>44100</timebase>
                <ntsc>FALSE</ntsc>
              </rate>
              <media>
                <audio>
                  <channelcount>1</channelcount>
                  <samplecharacteristics>
                    <samplerate>44100</samplerate>
                    <samplesize>16</samplesize>
                  </samplecharacteristics>
                </audio>
              </media>
            </file>
            <sourcetrack>
              <mediatype>audio</mediatype>
              <trackindex>1</trackindex>
            </sourcetrack>
          </clipitem>
          <clipitem id="clipitem-37">
            <name>OrionEp2Short-037-NA.mp3</name>
            <enabled>TRUE</enabled>
            <duration>174</duration>
            <rate>
              <timebase>30</timebase>
              <ntsc>TRUE</ntsc>
            </rate>
            <start>6127</start>
            <end>6301</end>
            <in>0</in>
            <out>174</out>
            <file id="file-38">
              <name>OrionEp2Short-037-NA.mp3</name>
              <pathurl>file:///Users/hiroshikodera/repos/_active/tools/davinciauto/projects/OrionEp2/%E3%82%B5%E3%82%A6%E3%83%B3%E3%83%89%E9%A1%9E/NarrationShort/OrionEp2Short-037-NA.mp3</pathurl>
              <rate>
                <timebase>44100</timebase>
                <ntsc>FALSE</ntsc>
              </rate>
              <media>
                <audio>
                  <channelcount>1</channelcount>
                  <samplecharacteristics>
                    <samplerate>44100</samplerate>
                    <samplesize>16</samplesize>
                  </samplecharacteristics>
                </audio>
              </media>
            </file>
            <sourcetrack>
              <mediatype>audio</mediatype>
              <trackindex>1</trackindex>
            </sourcetrack>
          </clipitem>
          <clipitem id="clipitem-38">
            <name>OrionEp2Short-038-NA.mp3</name>
            <enabled>TRUE</enabled>
            <duration>199</duration>
            <rate>
              <timebase>30</timebase>
              <ntsc>TRUE</ntsc>
            </rate>
            <start>6315</start>
            <end>6514</end>
            <in>0</in>
            <out>199</out>
            <file id="file-39">
              <name>OrionEp2Short-038-NA.mp3</name>
              <pathurl>file:///Users/hiroshikodera/repos/_active/tools/davinciauto/projects/OrionEp2/%E3%82%B5%E3%82%A6%E3%83%B3%E3%83%89%E9%A1%9E/NarrationShort/OrionEp2Short-038-NA.mp3</pathurl>
              <rate>
                <timebase>44100</timebase>
                <ntsc>FALSE</ntsc>
              </rate>
              <media>
                <audio>
                  <channelcount>1</channelcount>
                  <samplecharacteristics>
                    <samplerate>44100</samplerate>
                    <samplesize>16</samplesize>
                  </samplecharacteristics>
                </audio>
              </media>
            </file>
            <sourcetrack>
              <mediatype>audio</mediatype>
              <trackindex>1</trackindex>
            </sourcetrack>
          </clipitem>
          <clipitem id="clipitem-39">
            <name>OrionEp2Short-039-DL.mp3</name>
            <enabled>TRUE</enabled>
            <duration>189</duration>
            <rate>
              <timebase>30</timebase>
              <ntsc>TRUE</ntsc>
            </rate>
            <start>6529</start>
            <end>6718</end>
            <in>0</in>
            <out>189</out>
            <file id="file-40">
              <name>OrionEp2Short-039-DL.mp3</name>
              <pathurl>file:///Users/hiroshikodera/repos/_active/tools/davinciauto/projects/OrionEp2/%E3%82%B5%E3%82%A6%E3%83%B3%E3%83%89%E9%A1%9E/NarrationShort/OrionEp2Short-039-DL.mp3</pathurl>
              <rate>
                <timebase>44100</timebase>
                <ntsc>FALSE</ntsc>
              </rate>
              <media>
                <audio>
                  <channelcount>1</channelcount>
                  <samplecharacteristics>
                    <samplerate>44100</samplerate>
                    <samplesize>16</samplesize>
                  </samplecharacteristics>
                </audio>
              </media>
            </file>
            <sourcetrack>
              <mediatype>audio</mediatype>
              <trackindex>1</trackindex>
            </sourcetrack>
          </clipitem>
          <clipitem id="clipitem-40">
            <name>OrionEp2Short-040-NA.mp3</name>
            <enabled>TRUE</enabled>
            <duration>199</duration>
            <rate>
              <timebase>30</timebase>
              <ntsc>TRUE</ntsc>
            </rate>
            <start>6740</start>
            <end>6939</end>
            <in>0</in>
            <out>199</out>
            <file id="file-41">
              <name>OrionEp2Short-040-NA.mp3</name>
              <pathurl>file:///Users/hiroshikodera/repos/_active/tools/davinciauto/projects/OrionEp2/%E3%82%B5%E3%82%A6%E3%83%B3%E3%83%89%E9%A1%9E/NarrationShort/OrionEp2Short-040-NA.mp3</pathurl>
              <rate>
                <timebase>44100</timebase>
                <ntsc>FALSE</ntsc>
              </rate>
              <media>
                <audio>
                  <channelcount>1</channelcount>
                  <samplecharacteristics>
                    <samplerate>44100</samplerate>
                    <samplesize>16</samplesize>
                  </samplecharacteristics>
                </audio>
              </media>
            </file>
            <sourcetrack>
              <mediatype>audio</mediatype>
              <trackindex>1</trackindex>
            </sourcetrack>
          </clipitem>
          <clipitem id="clipitem-41">
            <name>OrionEp2Short-041-NA.mp3</name>
            <enabled>TRUE</enabled>
            <duration>104</duration>
            <rate>
              <timebase>30</timebase>
              <ntsc>TRUE</ntsc>
            </rate>
            <start>6954</start>
            <end>7058</end>
            <in>0</in>
            <out>104</out>
            <file id="file-42">
              <name>OrionEp2Short-041-NA.mp3</name>
              <pathurl>file:///Users/hiroshikodera/repos/_active/tools/davinciauto/projects/OrionEp2/%E3%82%B5%E3%82%A6%E3%83%B3%E3%83%89%E9%A1%9E/NarrationShort/OrionEp2Short-041-NA.mp3</pathurl>
              <rate>
                <timebase>44100</timebase>
                <ntsc>FALSE</ntsc>
              </rate>
              <media>
                <audio>
                  <channelcount>1</channelcount>
                  <samplecharacteristics>
                    <samplerate>44100</samplerate>
                    <samplesize>16</samplesize>
                  </samplecharacteristics>
                </audio>
              </media>
            </file>
            <sourcetrack>
              <mediatype>audio</mediatype>
              <trackindex>1</trackindex>
            </sourcetrack>
          </clipitem>
          <clipitem id="clipitem-42">
            <name>OrionEp2Short-042-NA.mp3</name>
            <enabled>TRUE</enabled>
            <duration>134</duration>
            <rate>
              <timebase>30</timebase>
              <ntsc>TRUE</ntsc>
            </rate>
            <start>7071</start>
            <end>7205</end>
            <in>0</in>
            <out>134</out>
            <file id="file-43">
              <name>OrionEp2Short-042-NA.mp3</name>
              <pathurl>file:///Users/hiroshikodera/repos/_active/tools/davinciauto/projects/OrionEp2/%E3%82%B5%E3%82%A6%E3%83%B3%E3%83%89%E9%A1%9E/NarrationShort/OrionEp2Short-042-NA.mp3</pathurl>
              <rate>
                <timebase>44100</timebase>
                <ntsc>FALSE</ntsc>
              </rate>
              <media>
                <audio>
                  <channelcount>1</channelcount>
                  <samplecharacteristics>
                    <samplerate>44100</samplerate>
                    <samplesize>16</samplesize>
                  </samplecharacteristics>
                </audio>
              </media>
            </file>
            <sourcetrack>
              <mediatype>audio</mediatype>
              <trackindex>1</trackindex>
            </sourcetrack>
          </clipitem>
          <clipitem id="clipitem-43">
            <name>OrionEp2Short-043-NA.mp3</name>
            <enabled>TRUE</enabled>
            <duration>159</duration>
            <rate>
              <timebase>30</timebase>
              <ntsc>TRUE</ntsc>
            </rate>
            <start>7217</start>
            <end>7376</end>
            <in>0</in>
            <out>159</out>
            <file id="file-44">
              <name>OrionEp2Short-043-NA.mp3</name>
              <pathurl>file:///Users/hiroshikodera/repos/_active/tools/davinciauto/projects/OrionEp2/%E3%82%B5%E3%82%A6%E3%83%B3%E3%83%89%E9%A1%9E/NarrationShort/OrionEp2Short-043-NA.mp3</pathurl>
              <rate>
                <timebase>44100</timebase>
                <ntsc>FALSE</ntsc>
              </rate>
              <media>
                <audio>
                  <channelcount>1</channelcount>
                  <samplecharacteristics>
                    <samplerate>44100</samplerate>
                    <samplesize>16</samplesize>
                  </samplecharacteristics>
                </audio>
              </media>
            </file>
            <sourcetrack>
              <mediatype>audio</mediatype>
              <trackindex>1</trackindex>
            </sourcetrack>
          </clipitem>
          <clipitem id="clipitem-44">
            <name>OrionEp2Short-044-NA.mp3</name>
            <enabled>TRUE</enabled>
            <duration>147</duration>
            <rate>
              <timebase>30</timebase>
              <ntsc>TRUE</ntsc>
            </rate>
            <start>7390</start>
            <end>7537</end>
            <in>0</in>
            <out>147</out>
            <file id="file-45">
              <name>OrionEp2Short-044-NA.mp3</name>
              <pathurl>file:///Users/hiroshikodera/repos/_active/tools/davinciauto/projects/OrionEp2/%E3%82%B5%E3%82%A6%E3%83%B3%E3%83%89%E9%A1%9E/NarrationShort/OrionEp2Short-044-NA.mp3</pathurl>
              <rate>
                <timebase>44100</timebase>
                <ntsc>FALSE</ntsc>
              </rate>
              <media>
                <audio>
                  <channelcount>1</channelcount>
                  <samplecharacteristics>
                    <samplerate>44100</samplerate>
                    <samplesize>16</samplesize>
                  </samplecharacteristics>
                </audio>
              </media>
            </file>
            <sourcetrack>
              <mediatype>audio</mediatype>
              <trackindex>1</trackindex>
            </sourcetrack>
          </clipitem>
          <clipitem id="clipitem-45">
            <name>OrionEp2Short-045-NA.mp3</name>
            <enabled>TRUE</enabled>
            <duration>168</duration>
            <rate>
              <timebase>30</timebase>
              <ntsc>TRUE</ntsc>
            </rate>
            <start>7551</start>
            <end>7719</end>
            <in>0</in>
            <out>168</out>
            <file id="file-46">
              <name>OrionEp2Short-045-NA.mp3</name>
              <pathurl>file:///Users/hiroshikodera/repos/_active/tools/davinciauto/projects/OrionEp2/%E3%82%B5%E3%82%A6%E3%83%B3%E3%83%89%E9%A1%9E/NarrationShort/OrionEp2Short-045-NA.mp3</pathurl>
              <rate>
                <timebase>44100</timebase>
                <ntsc>FALSE</ntsc>
              </rate>
              <media>
                <audio>
                  <channelcount>1</channelcount>
                  <samplecharacteristics>
                    <samplerate>44100</samplerate>
                    <samplesize>16</samplesize>
                  </samplecharacteristics>
                </audio>
              </media>
            </file>
            <sourcetrack>
              <mediatype>audio</mediatype>
              <trackindex>1</trackindex>
            </sourcetrack>
          </clipitem>
          <clipitem id="clipitem-46">
            <name>OrionEp2Short-046-NA.mp3</name>
            <enabled>TRUE</enabled>
            <duration>179</duration>
            <rate>
              <timebase>30</timebase>
              <ntsc>TRUE</ntsc>
            </rate>
            <start>7732</start>
            <end>7911</end>
            <in>0</in>
            <out>179</out>
            <file id="file-47">
              <name>OrionEp2Short-046-NA.mp3</name>
              <pathurl>file:///Users/hiroshikodera/repos/_active/tools/davinciauto/projects/OrionEp2/%E3%82%B5%E3%82%A6%E3%83%B3%E3%83%89%E9%A1%9E/NarrationShort/OrionEp2Short-046-NA.mp3</pathurl>
              <rate>
                <timebase>44100</timebase>
                <ntsc>FALSE</ntsc>
              </rate>
              <media>
                <audio>
                  <channelcount>1</channelcount>
                  <samplecharacteristics>
                    <samplerate>44100</samplerate>
                    <samplesize>16</samplesize>
                  </samplecharacteristics>
                </audio>
              </media>
            </file>
            <sourcetrack>
              <mediatype>audio</mediatype>
              <trackindex>1</trackindex>
            </sourcetrack>
          </clipitem>
          <clipitem id="clipitem-47">
            <name>OrionEp2Short-047-NA.mp3</name>
            <enabled>TRUE</enabled>
            <duration>215</duration>
            <rate>
              <timebase>30</timebase>
              <ntsc>TRUE</ntsc>
            </rate>
            <start>7924</start>
            <end>8139</end>
            <in>0</in>
            <out>215</out>
            <file id="file-48">
              <name>OrionEp2Short-047-NA.mp3</name>
              <pathurl>file:///Users/hiroshikodera/repos/_active/tools/davinciauto/projects/OrionEp2/%E3%82%B5%E3%82%A6%E3%83%B3%E3%83%89%E9%A1%9E/NarrationShort/OrionEp2Short-047-NA.mp3</pathurl>
              <rate>
                <timebase>44100</timebase>
                <ntsc>FALSE</ntsc>
              </rate>
              <media>
                <audio>
                  <channelcount>1</channelcount>
                  <samplecharacteristics>
                    <samplerate>44100</samplerate>
                    <samplesize>16</samplesize>
                  </samplecharacteristics>
                </audio>
              </media>
            </file>
            <sourcetrack>
              <mediatype>audio</mediatype>
              <trackindex>1</trackindex>
            </sourcetrack>
          </clipitem>
          <clipitem id="clipitem-48">
            <name>OrionEp2Short-048-NA.mp3</name>
            <enabled>TRUE</enabled>
            <duration>190</duration>
            <rate>
              <timebase>30</timebase>
              <ntsc>TRUE</ntsc>
            </rate>
            <start>8154</start>
            <end>8344</end>
            <in>0</in>
            <out>190</out>
            <file id="file-49">
              <name>OrionEp2Short-048-NA.mp3</name>
              <pathurl>file:///Users/hiroshikodera/repos/_active/tools/davinciauto/projects/OrionEp2/%E3%82%B5%E3%82%A6%E3%83%B3%E3%83%89%E9%A1%9E/NarrationShort/OrionEp2Short-048-NA.mp3</pathurl>
              <rate>
                <timebase>44100</timebase>
                <ntsc>FALSE</ntsc>
              </rate>
              <media>
                <audio>
                  <channelcount>1</channelcount>
                  <samplecharacteristics>
                    <samplerate>44100</samplerate>
                    <samplesize>16</samplesize>
                  </samplecharacteristics>
                </audio>
              </media>
            </file>
            <sourcetrack>
              <mediatype>audio</mediatype>
              <trackindex>1</trackindex>
            </sourcetrack>
          </clipitem>
          <clipitem id="clipitem-49">
            <name>OrionEp2Short-049-NA.mp3</name>
            <enabled>TRUE</enabled>
            <duration>127</duration>
            <rate>
              <timebase>30</timebase>
              <ntsc>TRUE</ntsc>
            </rate>
            <start>8360</start>
            <end>8487</end>
            <in>0</in>
            <out>127</out>
            <file id="file-50">
              <name>OrionEp2Short-049-NA.mp3</name>
              <pathurl>file:///Users/hiroshikodera/repos/_active/tools/davinciauto/projects/OrionEp2/%E3%82%B5%E3%82%A6%E3%83%B3%E3%83%89%E9%A1%9E/NarrationShort/OrionEp2Short-049-NA.mp3</pathurl>
              <rate>
                <timebase>44100</timebase>
                <ntsc>FALSE</ntsc>
              </rate>
              <media>
                <audio>
                  <channelcount>1</channelcount>
                  <samplecharacteristics>
                    <samplerate>44100</samplerate>
                    <samplesize>16</samplesize>
                  </samplecharacteristics>
                </audio>
              </media>
            </file>
            <sourcetrack>
              <mediatype>audio</mediatype>
              <trackindex>1</trackindex>
            </sourcetrack>
          </clipitem>
          <clipitem id="clipitem-50">
            <name>OrionEp2Short-050-NA.mp3</name>
            <enabled>TRUE</enabled>
            <duration>113</duration>
            <rate>
              <timebase>30</timebase>
              <ntsc>TRUE</ntsc>
            </rate>
            <start>8499</start>
            <end>8612</end>
            <in>0</in>
            <out>113</out>
            <file id="file-51">
              <name>OrionEp2Short-050-NA.mp3</name>
              <pathurl>file:///Users/hiroshikodera/repos/_active/tools/davinciauto/projects/OrionEp2/%E3%82%B5%E3%82%A6%E3%83%B3%E3%83%89%E9%A1%9E/NarrationShort/OrionEp2Short-050-NA.mp3</pathurl>
              <rate>
                <timebase>44100</timebase>
                <ntsc>FALSE</ntsc>
              </rate>
              <media>
                <audio>
                  <channelcount>1</channelcount>
                  <samplecharacteristics>
                    <samplerate>44100</samplerate>
                    <samplesize>16</samplesize>
                  </samplecharacteristics>
                </audio>
              </media>
            </file>
            <sourcetrack>
              <mediatype>audio</mediatype>
              <trackindex>1</trackindex>
            </sourcetrack>
          </clipitem>
          <clipitem id="clipitem-51">
            <name>OrionEp2Short-051-NA.mp3</name>
            <enabled>TRUE</enabled>
            <duration>164</duration>
            <rate>
              <timebase>30</timebase>
              <ntsc>TRUE</ntsc>
            </rate>
            <start>8625</start>
            <end>8789</end>
            <in>0</in>
            <out>164</out>
            <file id="file-52">
              <name>OrionEp2Short-051-NA.mp3</name>
              <pathurl>file:///Users/hiroshikodera/repos/_active/tools/davinciauto/projects/OrionEp2/%E3%82%B5%E3%82%A6%E3%83%B3%E3%83%89%E9%A1%9E/NarrationShort/OrionEp2Short-051-NA.mp3</pathurl>
              <rate>
                <timebase>44100</timebase>
                <ntsc>FALSE</ntsc>
              </rate>
              <media>
                <audio>
                  <channelcount>1</channelcount>
                  <samplecharacteristics>
                    <samplerate>44100</samplerate>
                    <samplesize>16</samplesize>
                  </samplecharacteristics>
                </audio>
              </media>
            </file>
            <sourcetrack>
              <mediatype>audio</mediatype>
              <trackindex>1</trackindex>
            </sourcetrack>
          </clipitem>
          <clipitem id="clipitem-52">
            <name>OrionEp2Short-052-NA.mp3</name>
            <enabled>TRUE</enabled>
            <duration>136</duration>
            <rate>
              <timebase>30</timebase>
              <ntsc>TRUE</ntsc>
            </rate>
            <start>8802</start>
            <end>8938</end>
            <in>0</in>
            <out>136</out>
            <file id="file-53">
              <name>OrionEp2Short-052-NA.mp3</name>
              <pathurl>file:///Users/hiroshikodera/repos/_active/tools/davinciauto/projects/OrionEp2/%E3%82%B5%E3%82%A6%E3%83%B3%E3%83%89%E9%A1%9E/NarrationShort/OrionEp2Short-052-NA.mp3</pathurl>
              <rate>
                <timebase>44100</timebase>
                <ntsc>FALSE</ntsc>
              </rate>
              <media>
                <audio>
                  <channelcount>1</channelcount>
                  <samplecharacteristics>
                    <samplerate>44100</samplerate>
                    <samplesize>16</samplesize>
                  </samplecharacteristics>
                </audio>
              </media>
            </file>
            <sourcetrack>
              <mediatype>audio</mediatype>
              <trackindex>1</trackindex>
            </sourcetrack>
          </clipitem>
          <clipitem id="clipitem-53">
            <name>OrionEp2Short-053-NA.mp3</name>
            <enabled>TRUE</enabled>
            <duration>121</duration>
            <rate>
              <timebase>30</timebase>
              <ntsc>TRUE</ntsc>
            </rate>
            <start>8952</start>
            <end>9073</end>
            <in>0</in>
            <out>121</out>
            <file id="file-54">
              <name>OrionEp2Short-053-NA.mp3</name>
              <pathurl>file:///Users/hiroshikodera/repos/_active/tools/davinciauto/projects/OrionEp2/%E3%82%B5%E3%82%A6%E3%83%B3%E3%83%89%E9%A1%9E/NarrationShort/OrionEp2Short-053-NA.mp3</pathurl>
              <rate>
                <timebase>44100</timebase>
                <ntsc>FALSE</ntsc>
              </rate>
              <media>
                <audio>
                  <channelcount>1</channelcount>
                  <samplecharacteristics>
                    <samplerate>44100</samplerate>
                    <samplesize>16</samplesize>
                  </samplecharacteristics>
                </audio>
              </media>
            </file>
            <sourcetrack>
              <mediatype>audio</mediatype>
              <trackindex>1</trackindex>
            </sourcetrack>
          </clipitem>
          <clipitem id="clipitem-54">
            <name>OrionEp2Short-054-NA.mp3</name>
            <enabled>TRUE</enabled>
            <duration>264</duration>
            <rate>
              <timebase>30</timebase>
              <ntsc>TRUE</ntsc>
            </rate>
            <start>9085</start>
            <end>9349</end>
            <in>0</in>
            <out>264</out>
            <file id="file-55">
              <name>OrionEp2Short-054-NA.mp3</name>
              <pathurl>file:///Users/hiroshikodera/repos/_active/tools/davinciauto/projects/OrionEp2/%E3%82%B5%E3%82%A6%E3%83%B3%E3%83%89%E9%A1%9E/NarrationShort/OrionEp2Short-054-NA.mp3</pathurl>
              <rate>
                <timebase>44100</timebase>
                <ntsc>FALSE</ntsc>
              </rate>
              <media>
                <audio>
                  <channelcount>1</channelcount>
                  <samplecharacteristics>
                    <samplerate>44100</samplerate>
                    <samplesize>16</samplesize>
                  </samplecharacteristics>
                </audio>
              </media>
            </file>
            <sourcetrack>
              <mediatype>audio</mediatype>
              <trackindex>1</trackindex>
            </sourcetrack>
          </clipitem>
          <clipitem id="clipitem-55">
            <name>OrionEp2Short-055-NA.mp3</name>
            <enabled>TRUE</enabled>
            <duration>165</duration>
            <rate>
              <timebase>30</timebase>
              <ntsc>TRUE</ntsc>
            </rate>
            <start>9365</start>
            <end>9530</end>
            <in>0</in>
            <out>165</out>
            <file id="file-56">
              <name>OrionEp2Short-055-NA.mp3</name>
              <pathurl>file:///Users/hiroshikodera/repos/_active/tools/davinciauto/projects/OrionEp2/%E3%82%B5%E3%82%A6%E3%83%B3%E3%83%89%E9%A1%9E/NarrationShort/OrionEp2Short-055-NA.mp3</pathurl>
              <rate>
                <timebase>44100</timebase>
                <ntsc>FALSE</ntsc>
              </rate>
              <media>
                <audio>
                  <channelcount>1</channelcount>
                  <samplecharacteristics>
                    <samplerate>44100</samplerate>
                    <samplesize>16</samplesize>
                  </samplecharacteristics>
                </audio>
              </media>
            </file>
            <sourcetrack>
              <mediatype>audio</mediatype>
              <trackindex>1</trackindex>
            </sourcetrack>
          </clipitem>
          <clipitem id="clipitem-56">
            <name>OrionEp2Short-056-NA.mp3</name>
            <enabled>TRUE</enabled>
            <duration>192</duration>
            <rate>
              <timebase>30</timebase>
              <ntsc>TRUE</ntsc>
            </rate>
            <start>9544</start>
            <end>9736</end>
            <in>0</in>
            <out>192</out>
            <file id="file-57">
              <name>OrionEp2Short-056-NA.mp3</name>
              <pathurl>file:///Users/hiroshikodera/repos/_active/tools/davinciauto/projects/OrionEp2/%E3%82%B5%E3%82%A6%E3%83%B3%E3%83%89%E9%A1%9E/NarrationShort/OrionEp2Short-056-NA.mp3</pathurl>
              <rate>
                <timebase>44100</timebase>
                <ntsc>FALSE</ntsc>
              </rate>
              <media>
                <audio>
                  <channelcount>1</channelcount>
                  <samplecharacteristics>
                    <samplerate>44100</samplerate>
                    <samplesize>16</samplesize>
                  </samplecharacteristics>
                </audio>
              </media>
            </file>
            <sourcetrack>
              <mediatype>audio</mediatype>
              <trackindex>1</trackindex>
            </sourcetrack>
          </clipitem>
          <clipitem id="clipitem-57">
            <name>OrionEp2Short-057-NA.mp3</name>
            <enabled>TRUE</enabled>
            <duration>158</duration>
            <rate>
              <timebase>30</timebase>
              <ntsc>TRUE</ntsc>
            </rate>
            <start>9750</start>
            <end>9908</end>
            <in>0</in>
            <out>158</out>
            <file id="file-58">
              <name>OrionEp2Short-057-NA.mp3</name>
              <pathurl>file:///Users/hiroshikodera/repos/_active/tools/davinciauto/projects/OrionEp2/%E3%82%B5%E3%82%A6%E3%83%B3%E3%83%89%E9%A1%9E/NarrationShort/OrionEp2Short-057-NA.mp3</pathurl>
              <rate>
                <timebase>44100</timebase>
                <ntsc>FALSE</ntsc>
              </rate>
              <media>
                <audio>
                  <channelcount>1</channelcount>
                  <samplecharacteristics>
                    <samplerate>44100</samplerate>
                    <samplesize>16</samplesize>
                  </samplecharacteristics>
                </audio>
              </media>
            </file>
            <sourcetrack>
              <mediatype>audio</mediatype>
              <trackindex>1</trackindex>
            </sourcetrack>
          </clipitem>
          <clipitem id="clipitem-58">
            <name>OrionEp2Short-058-NA.mp3</name>
            <enabled>TRUE</enabled>
            <duration>159</duration>
            <rate>
              <timebase>30</timebase>
              <ntsc>TRUE</ntsc>
            </rate>
            <start>9922</start>
            <end>10081</end>
            <in>0</in>
            <out>159</out>
            <file id="file-59">
              <name>OrionEp2Short-058-NA.mp3</name>
              <pathurl>file:///Users/hiroshikodera/repos/_active/tools/davinciauto/projects/OrionEp2/%E3%82%B5%E3%82%A6%E3%83%B3%E3%83%89%E9%A1%9E/NarrationShort/OrionEp2Short-058-NA.mp3</pathurl>
              <rate>
                <timebase>44100</timebase>
                <ntsc>FALSE</ntsc>
              </rate>
              <media>
                <audio>
                  <channelcount>1</channelcount>
                  <samplecharacteristics>
                    <samplerate>44100</samplerate>
                    <samplesize>16</samplesize>
                  </samplecharacteristics>
                </audio>
              </media>
            </file>
            <sourcetrack>
              <mediatype>audio</mediatype>
              <trackindex>1</trackindex>
            </sourcetrack>
          </clipitem>
          <clipitem id="clipitem-59">
            <name>OrionEp2Short-059-NA.mp3</name>
            <enabled>TRUE</enabled>
            <duration>158</duration>
            <rate>
              <timebase>30</timebase>
              <ntsc>TRUE</ntsc>
            </rate>
            <start>10094</start>
            <end>10252</end>
            <in>0</in>
            <out>158</out>
            <file id="file-60">
              <name>OrionEp2Short-059-NA.mp3</name>
              <pathurl>file:///Users/hiroshikodera/repos/_active/tools/davinciauto/projects/OrionEp2/%E3%82%B5%E3%82%A6%E3%83%B3%E3%83%89%E9%A1%9E/NarrationShort/OrionEp2Short-059-NA.mp3</pathurl>
              <rate>
                <timebase>44100</timebase>
                <ntsc>FALSE</ntsc>
              </rate>
              <media>
                <audio>
                  <channelcount>1</channelcount>
                  <samplecharacteristics>
                    <samplerate>44100</samplerate>
                    <samplesize>16</samplesize>
                  </samplecharacteristics>
                </audio>
              </media>
            </file>
            <sourcetrack>
              <mediatype>audio</mediatype>
              <trackindex>1</trackindex>
            </sourcetrack>
          </clipitem>
          <clipitem id="clipitem-60">
            <name>OrionEp2Short-060-NA.mp3</name>
            <enabled>TRUE</enabled>
            <duration>225</duration>
            <rate>
              <timebase>30</timebase>
              <ntsc>TRUE</ntsc>
            </rate>
            <start>10265</start>
            <end>10490</end>
            <in>0</in>
            <out>225</out>
            <file id="file-61">
              <name>OrionEp2Short-060-NA.mp3</name>
              <pathurl>file:///Users/hiroshikodera/repos/_active/tools/davinciauto/projects/OrionEp2/%E3%82%B5%E3%82%A6%E3%83%B3%E3%83%89%E9%A1%9E/NarrationShort/OrionEp2Short-060-NA.mp3</pathurl>
              <rate>
                <timebase>44100</timebase>
                <ntsc>FALSE</ntsc>
              </rate>
              <media>
                <audio>
                  <channelcount>1</channelcount>
                  <samplecharacteristics>
                    <samplerate>44100</samplerate>
                    <samplesize>16</samplesize>
                  </samplecharacteristics>
                </audio>
              </media>
            </file>
            <sourcetrack>
              <mediatype>audio</mediatype>
              <trackindex>1</trackindex>
            </sourcetrack>
          </clipitem>
          <clipitem id="clipitem-61">
            <name>OrionEp2Short-061-NA.mp3</name>
            <enabled>TRUE</enabled>
            <duration>179</duration>
            <rate>
              <timebase>30</timebase>
              <ntsc>TRUE</ntsc>
            </rate>
            <start>10504</start>
            <end>10683</end>
            <in>0</in>
            <out>179</out>
            <file id="file-62">
              <name>OrionEp2Short-061-NA.mp3</name>
              <pathurl>file:///Users/hiroshikodera/repos/_active/tools/davinciauto/projects/OrionEp2/%E3%82%B5%E3%82%A6%E3%83%B3%E3%83%89%E9%A1%9E/NarrationShort/OrionEp2Short-061-NA.mp3</pathurl>
              <rate>
                <timebase>44100</timebase>
                <ntsc>FALSE</ntsc>
              </rate>
              <media>
                <audio>
                  <channelcount>1</channelcount>
                  <samplecharacteristics>
                    <samplerate>44100</samplerate>
                    <samplesize>16</samplesize>
                  </samplecharacteristics>
                </audio>
              </media>
            </file>
            <sourcetrack>
              <mediatype>audio</mediatype>
              <trackindex>1</trackindex>
            </sourcetrack>
          </clipitem>
          <clipitem id="clipitem-62">
            <name>OrionEp2Short-062-NA.mp3</name>
            <enabled>TRUE</enabled>
            <duration>180</duration>
            <rate>
              <timebase>30</timebase>
              <ntsc>TRUE</ntsc>
            </rate>
            <start>10698</start>
            <end>10878</end>
            <in>0</in>
            <out>180</out>
            <file id="file-63">
              <name>OrionEp2Short-062-NA.mp3</name>
              <pathurl>file:///Users/hiroshikodera/repos/_active/tools/davinciauto/projects/OrionEp2/%E3%82%B5%E3%82%A6%E3%83%B3%E3%83%89%E9%A1%9E/NarrationShort/OrionEp2Short-062-NA.mp3</pathurl>
              <rate>
                <timebase>44100</timebase>
                <ntsc>FALSE</ntsc>
              </rate>
              <media>
                <audio>
                  <channelcount>1</channelcount>
                  <samplecharacteristics>
                    <samplerate>44100</samplerate>
                    <samplesize>16</samplesize>
                  </samplecharacteristics>
                </audio>
              </media>
            </file>
            <sourcetrack>
              <mediatype>audio</mediatype>
              <trackindex>1</trackindex>
            </sourcetrack>
          </clipitem>
          <clipitem id="clipitem-63">
            <name>OrionEp2Short-063-NA.mp3</name>
            <enabled>TRUE</enabled>
            <duration>171</duration>
            <rate>
              <timebase>30</timebase>
              <ntsc>TRUE</ntsc>
            </rate>
            <start>10892</start>
            <end>11063</end>
            <in>0</in>
            <out>171</out>
            <file id="file-64">
              <name>OrionEp2Short-063-NA.mp3</name>
              <pathurl>file:///Users/hiroshikodera/repos/_active/tools/davinciauto/projects/OrionEp2/%E3%82%B5%E3%82%A6%E3%83%B3%E3%83%89%E9%A1%9E/NarrationShort/OrionEp2Short-063-NA.mp3</pathurl>
              <rate>
                <timebase>44100</timebase>
                <ntsc>FALSE</ntsc>
              </rate>
              <media>
                <audio>
                  <channelcount>1</channelcount>
                  <samplecharacteristics>
                    <samplerate>44100</samplerate>
                    <samplesize>16</samplesize>
                  </samplecharacteristics>
                </audio>
              </media>
            </file>
            <sourcetrack>
              <mediatype>audio</mediatype>
              <trackindex>1</trackindex>
            </sourcetrack>
          </clipitem>
          <clipitem id="clipitem-64">
            <name>OrionEp2Short-064-NA.mp3</name>
            <enabled>TRUE</enabled>
            <duration>196</duration>
            <rate>
              <timebase>30</timebase>
              <ntsc>TRUE</ntsc>
            </rate>
            <start>11077</start>
            <end>11273</end>
            <in>0</in>
            <out>196</out>
            <file id="file-65">
              <name>OrionEp2Short-064-NA.mp3</name>
              <pathurl>file:///Users/hiroshikodera/repos/_active/tools/davinciauto/projects/OrionEp2/%E3%82%B5%E3%82%A6%E3%83%B3%E3%83%89%E9%A1%9E/NarrationShort/OrionEp2Short-064-NA.mp3</pathurl>
              <rate>
                <timebase>44100</timebase>
                <ntsc>FALSE</ntsc>
              </rate>
              <media>
                <audio>
                  <channelcount>1</channelcount>
                  <samplecharacteristics>
                    <samplerate>44100</samplerate>
                    <samplesize>16</samplesize>
                  </samplecharacteristics>
                </audio>
              </media>
            </file>
            <sourcetrack>
              <mediatype>audio</mediatype>
              <trackindex>1</trackindex>
            </sourcetrack>
          </clipitem>
          <clipitem id="clipitem-65">
            <name>OrionEp2Short-065-NA.mp3</name>
            <enabled>TRUE</enabled>
            <duration>223</duration>
            <rate>
              <timebase>30</timebase>
              <ntsc>TRUE</ntsc>
            </rate>
            <start>11287</start>
            <end>11510</end>
            <in>0</in>
            <out>223</out>
            <file id="file-66">
              <name>OrionEp2Short-065-NA.mp3</name>
              <pathurl>file:///Users/hiroshikodera/repos/_active/tools/davinciauto/projects/OrionEp2/%E3%82%B5%E3%82%A6%E3%83%B3%E3%83%89%E9%A1%9E/NarrationShort/OrionEp2Short-065-NA.mp3</pathurl>
              <rate>
                <timebase>44100</timebase>
                <ntsc>FALSE</ntsc>
              </rate>
              <media>
                <audio>
                  <channelcount>1</channelcount>
                  <samplecharacteristics>
                    <samplerate>44100</samplerate>
                    <samplesize>16</samplesize>
                  </samplecharacteristics>
                </audio>
              </media>
            </file>
            <sourcetrack>
              <mediatype>audio</mediatype>
              <trackindex>1</trackindex>
            </sourcetrack>
          </clipitem>
          <clipitem id="clipitem-66">
            <name>OrionEp2Short-066-NA.mp3</name>
            <enabled>TRUE</enabled>
            <duration>119</duration>
            <rate>
              <timebase>30</timebase>
              <ntsc>TRUE</ntsc>
            </rate>
            <start>11526</start>
            <end>11645</end>
            <in>0</in>
            <out>119</out>
            <file id="file-67">
              <name>OrionEp2Short-066-NA.mp3</name>
              <pathurl>file:///Users/hiroshikodera/repos/_active/tools/davinciauto/projects/OrionEp2/%E3%82%B5%E3%82%A6%E3%83%B3%E3%83%89%E9%A1%9E/NarrationShort/OrionEp2Short-066-NA.mp3</pathurl>
              <rate>
                <timebase>44100</timebase>
                <ntsc>FALSE</ntsc>
              </rate>
              <media>
                <audio>
                  <channelcount>1</channelcount>
                  <samplecharacteristics>
                    <samplerate>44100</samplerate>
                    <samplesize>16</samplesize>
                  </samplecharacteristics>
                </audio>
              </media>
            </file>
            <sourcetrack>
              <mediatype>audio</mediatype>
              <trackindex>1</trackindex>
            </sourcetrack>
          </clipitem>
          <clipitem id="clipitem-67">
            <name>OrionEp2Short-067-NA.mp3</name>
            <enabled>TRUE</enabled>
            <duration>159</duration>
            <rate>
              <timebase>30</timebase>
              <ntsc>TRUE</ntsc>
            </rate>
            <start>11667</start>
            <end>11826</end>
            <in>0</in>
            <out>159</out>
            <file id="file-68">
              <name>OrionEp2Short-067-NA.mp3</name>
              <pathurl>file:///Users/hiroshikodera/repos/_active/tools/davinciauto/projects/OrionEp2/%E3%82%B5%E3%82%A6%E3%83%B3%E3%83%89%E9%A1%9E/NarrationShort/OrionEp2Short-067-NA.mp3</pathurl>
              <rate>
                <timebase>44100</timebase>
                <ntsc>FALSE</ntsc>
              </rate>
              <media>
                <audio>
                  <channelcount>1</channelcount>
                  <samplecharacteristics>
                    <samplerate>44100</samplerate>
                    <samplesize>16</samplesize>
                  </samplecharacteristics>
                </audio>
              </media>
            </file>
            <sourcetrack>
              <mediatype>audio</mediatype>
              <trackindex>1</trackindex>
            </sourcetrack>
          </clipitem>
          <clipitem id="clipitem-68">
            <name>OrionEp2Short-068-NA.mp3</name>
            <enabled>TRUE</enabled>
            <duration>89</duration>
            <rate>
              <timebase>30</timebase>
              <ntsc>TRUE</ntsc>
            </rate>
            <start>11839</start>
            <end>11928</end>
            <in>0</in>
            <out>89</out>
            <file id="file-69">
              <name>OrionEp2Short-068-NA.mp3</name>
              <pathurl>file:///Users/hiroshikodera/repos/_active/tools/davinciauto/projects/OrionEp2/%E3%82%B5%E3%82%A6%E3%83%B3%E3%83%89%E9%A1%9E/NarrationShort/OrionEp2Short-068-NA.mp3</pathurl>
              <rate>
                <timebase>44100</timebase>
                <ntsc>FALSE</ntsc>
              </rate>
              <media>
                <audio>
                  <channelcount>1</channelcount>
                  <samplecharacteristics>
                    <samplerate>44100</samplerate>
                    <samplesize>16</samplesize>
                  </samplecharacteristics>
                </audio>
              </media>
            </file>
            <sourcetrack>
              <mediatype>audio</mediatype>
              <trackindex>1</trackindex>
            </sourcetrack>
          </clipitem>
          <clipitem id="clipitem-69">
            <name>OrionEp2Short-069-NA.mp3</name>
            <enabled>TRUE</enabled>
            <duration>112</duration>
            <rate>
              <timebase>30</timebase>
              <ntsc>TRUE</ntsc>
            </rate>
            <start>11940</start>
            <end>12052</end>
            <in>0</in>
            <out>112</out>
            <file id="file-70">
              <name>OrionEp2Short-069-NA.mp3</name>
              <pathurl>file:///Users/hiroshikodera/repos/_active/tools/davinciauto/projects/OrionEp2/%E3%82%B5%E3%82%A6%E3%83%B3%E3%83%89%E9%A1%9E/NarrationShort/OrionEp2Short-069-NA.mp3</pathurl>
              <rate>
                <timebase>44100</timebase>
                <ntsc>FALSE</ntsc>
              </rate>
              <media>
                <audio>
                  <channelcount>1</channelcount>
                  <samplecharacteristics>
                    <samplerate>44100</samplerate>
                    <samplesize>16</samplesize>
                  </samplecharacteristics>
                </audio>
              </media>
            </file>
            <sourcetrack>
              <mediatype>audio</mediatype>
              <trackindex>1</trackindex>
            </sourcetrack>
          </clipitem>
          <clipitem id="clipitem-70">
            <name>OrionEp2Short-070-NA.mp3</name>
            <enabled>TRUE</enabled>
            <duration>168</duration>
            <rate>
              <timebase>30</timebase>
              <ntsc>TRUE</ntsc>
            </rate>
            <start>12064</start>
            <end>12232</end>
            <in>0</in>
            <out>168</out>
            <file id="file-71">
              <name>OrionEp2Short-070-NA.mp3</name>
              <pathurl>file:///Users/hiroshikodera/repos/_active/tools/davinciauto/projects/OrionEp2/%E3%82%B5%E3%82%A6%E3%83%B3%E3%83%89%E9%A1%9E/NarrationShort/OrionEp2Short-070-NA.mp3</pathurl>
              <rate>
                <timebase>44100</timebase>
                <ntsc>FALSE</ntsc>
              </rate>
              <media>
                <audio>
                  <channelcount>1</channelcount>
                  <samplecharacteristics>
                    <samplerate>44100</samplerate>
                    <samplesize>16</samplesize>
                  </samplecharacteristics>
                </audio>
              </media>
            </file>
            <sourcetrack>
              <mediatype>audio</mediatype>
              <trackindex>1</trackindex>
            </sourcetrack>
          </clipitem>
          <clipitem id="clipitem-71">
            <name>OrionEp2Short-071-NA.mp3</name>
            <enabled>TRUE</enabled>
            <duration>111</duration>
            <rate>
              <timebase>30</timebase>
              <ntsc>TRUE</ntsc>
            </rate>
            <start>12247</start>
            <end>12358</end>
            <in>0</in>
            <out>111</out>
            <file id="file-72">
              <name>OrionEp2Short-071-NA.mp3</name>
              <pathurl>file:///Users/hiroshikodera/repos/_active/tools/davinciauto/projects/OrionEp2/%E3%82%B5%E3%82%A6%E3%83%B3%E3%83%89%E9%A1%9E/NarrationShort/OrionEp2Short-071-NA.mp3</pathurl>
              <rate>
                <timebase>44100</timebase>
                <ntsc>FALSE</ntsc>
              </rate>
              <media>
                <audio>
                  <channelcount>1</channelcount>
                  <samplecharacteristics>
                    <samplerate>44100</samplerate>
                    <samplesize>16</samplesize>
                  </samplecharacteristics>
                </audio>
              </media>
            </file>
            <sourcetrack>
              <mediatype>audio</mediatype>
              <trackindex>1</trackindex>
            </sourcetrack>
          </clipitem>
          <clipitem id="clipitem-72">
            <name>OrionEp2Short-072-NA.mp3</name>
            <enabled>TRUE</enabled>
            <duration>173</duration>
            <rate>
              <timebase>30</timebase>
              <ntsc>TRUE</ntsc>
            </rate>
            <start>12371</start>
            <end>12544</end>
            <in>0</in>
            <out>173</out>
            <file id="file-73">
              <name>OrionEp2Short-072-NA.mp3</name>
              <pathurl>file:///Users/hiroshikodera/repos/_active/tools/davinciauto/projects/OrionEp2/%E3%82%B5%E3%82%A6%E3%83%B3%E3%83%89%E9%A1%9E/NarrationShort/OrionEp2Short-072-NA.mp3</pathurl>
              <rate>
                <timebase>44100</timebase>
                <ntsc>FALSE</ntsc>
              </rate>
              <media>
                <audio>
                  <channelcount>1</channelcount>
                  <samplecharacteristics>
                    <samplerate>44100</samplerate>
                    <samplesize>16</samplesize>
                  </samplecharacteristics>
                </audio>
              </media>
            </file>
            <sourcetrack>
              <mediatype>audio</mediatype>
              <trackindex>1</trackindex>
            </sourcetrack>
          </clipitem>
          <clipitem id="clipitem-73">
            <name>OrionEp2Short-073-NA.mp3</name>
            <enabled>TRUE</enabled>
            <duration>118</duration>
            <rate>
              <timebase>30</timebase>
              <ntsc>TRUE</ntsc>
            </rate>
            <start>12558</start>
            <end>12676</end>
            <in>0</in>
            <out>118</out>
            <file id="file-74">
              <name>OrionEp2Short-073-NA.mp3</name>
              <pathurl>file:///Users/hiroshikodera/repos/_active/tools/davinciauto/projects/OrionEp2/%E3%82%B5%E3%82%A6%E3%83%B3%E3%83%89%E9%A1%9E/NarrationShort/OrionEp2Short-073-NA.mp3</pathurl>
              <rate>
                <timebase>44100</timebase>
                <ntsc>FALSE</ntsc>
              </rate>
              <media>
                <audio>
                  <channelcount>1</channelcount>
                  <samplecharacteristics>
                    <samplerate>44100</samplerate>
                    <samplesize>16</samplesize>
                  </samplecharacteristics>
                </audio>
              </media>
            </file>
            <sourcetrack>
              <mediatype>audio</mediatype>
              <trackindex>1</trackindex>
            </sourcetrack>
          </clipitem>
          <clipitem id="clipitem-74">
            <name>OrionEp2Short-074-NA.mp3</name>
            <enabled>TRUE</enabled>
            <duration>82</duration>
            <rate>
              <timebase>30</timebase>
              <ntsc>TRUE</ntsc>
            </rate>
            <start>12689</start>
            <end>12771</end>
            <in>0</in>
            <out>82</out>
            <file id="file-75">
              <name>OrionEp2Short-074-NA.mp3</name>
              <pathurl>file:///Users/hiroshikodera/repos/_active/tools/davinciauto/projects/OrionEp2/%E3%82%B5%E3%82%A6%E3%83%B3%E3%83%89%E9%A1%9E/NarrationShort/OrionEp2Short-074-NA.mp3</pathurl>
              <rate>
                <timebase>44100</timebase>
                <ntsc>FALSE</ntsc>
              </rate>
              <media>
                <audio>
                  <channelcount>1</channelcount>
                  <samplecharacteristics>
                    <samplerate>44100</samplerate>
                    <samplesize>16</samplesize>
                  </samplecharacteristics>
                </audio>
              </media>
            </file>
            <sourcetrack>
              <mediatype>audio</mediatype>
              <trackindex>1</trackindex>
            </sourcetrack>
          </clipitem>
          <clipitem id="clipitem-75">
            <name>OrionEp2Short-075-NA.mp3</name>
            <enabled>TRUE</enabled>
            <duration>144</duration>
            <rate>
              <timebase>30</timebase>
              <ntsc>TRUE</ntsc>
            </rate>
            <start>12783</start>
            <end>12927</end>
            <in>0</in>
            <out>144</out>
            <file id="file-76">
              <name>OrionEp2Short-075-NA.mp3</name>
              <pathurl>file:///Users/hiroshikodera/repos/_active/tools/davinciauto/projects/OrionEp2/%E3%82%B5%E3%82%A6%E3%83%B3%E3%83%89%E9%A1%9E/NarrationShort/OrionEp2Short-075-NA.mp3</pathurl>
              <rate>
                <timebase>44100</timebase>
                <ntsc>FALSE</ntsc>
              </rate>
              <media>
                <audio>
                  <channelcount>1</channelcount>
                  <samplecharacteristics>
                    <samplerate>44100</samplerate>
                    <samplesize>16</samplesize>
                  </samplecharacteristics>
                </audio>
              </media>
            </file>
            <sourcetrack>
              <mediatype>audio</mediatype>
              <trackindex>1</trackindex>
            </sourcetrack>
          </clipitem>
          <clipitem id="clipitem-76">
            <name>OrionEp2Short-076-NA.mp3</name>
            <enabled>TRUE</enabled>
            <duration>122</duration>
            <rate>
              <timebase>30</timebase>
              <ntsc>TRUE</ntsc>
            </rate>
            <start>12940</start>
            <end>13062</end>
            <in>0</in>
            <out>122</out>
            <file id="file-77">
              <name>OrionEp2Short-076-NA.mp3</name>
              <pathurl>file:///Users/hiroshikodera/repos/_active/tools/davinciauto/projects/OrionEp2/%E3%82%B5%E3%82%A6%E3%83%B3%E3%83%89%E9%A1%9E/NarrationShort/OrionEp2Short-076-NA.mp3</pathurl>
              <rate>
                <timebase>44100</timebase>
                <ntsc>FALSE</ntsc>
              </rate>
              <media>
                <audio>
                  <channelcount>1</channelcount>
                  <samplecharacteristics>
                    <samplerate>44100</samplerate>
                    <samplesize>16</samplesize>
                  </samplecharacteristics>
                </audio>
              </media>
            </file>
            <sourcetrack>
              <mediatype>audio</mediatype>
              <trackindex>1</trackindex>
            </sourcetrack>
          </clipitem>
          <clipitem id="clipitem-77">
            <name>OrionEp2Short-077-NA.mp3</name>
            <enabled>TRUE</enabled>
            <duration>145</duration>
            <rate>
              <timebase>30</timebase>
              <ntsc>TRUE</ntsc>
            </rate>
            <start>13074</start>
            <end>13219</end>
            <in>0</in>
            <out>145</out>
            <file id="file-78">
              <name>OrionEp2Short-077-NA.mp3</name>
              <pathurl>file:///Users/hiroshikodera/repos/_active/tools/davinciauto/projects/OrionEp2/%E3%82%B5%E3%82%A6%E3%83%B3%E3%83%89%E9%A1%9E/NarrationShort/OrionEp2Short-077-NA.mp3</pathurl>
              <rate>
                <timebase>44100</timebase>
                <ntsc>FALSE</ntsc>
              </rate>
              <media>
                <audio>
                  <channelcount>1</channelcount>
                  <samplecharacteristics>
                    <samplerate>44100</samplerate>
                    <samplesize>16</samplesize>
                  </samplecharacteristics>
                </audio>
              </media>
            </file>
            <sourcetrack>
              <mediatype>audio</mediatype>
              <trackindex>1</trackindex>
            </sourcetrack>
          </clipitem>
          <clipitem id="clipitem-78">
            <name>OrionEp2Short-078-NA.mp3</name>
            <enabled>TRUE</enabled>
            <duration>225</duration>
            <rate>
              <timebase>30</timebase>
              <ntsc>TRUE</ntsc>
            </rate>
            <start>13232</start>
            <end>13457</end>
            <in>0</in>
            <out>225</out>
            <file id="file-79">
              <name>OrionEp2Short-078-NA.mp3</name>
              <pathurl>file:///Users/hiroshikodera/repos/_active/tools/davinciauto/projects/OrionEp2/%E3%82%B5%E3%82%A6%E3%83%B3%E3%83%89%E9%A1%9E/NarrationShort/OrionEp2Short-078-NA.mp3</pathurl>
              <rate>
                <timebase>44100</timebase>
                <ntsc>FALSE</ntsc>
              </rate>
              <media>
                <audio>
                  <channelcount>1</channelcount>
                  <samplecharacteristics>
                    <samplerate>44100</samplerate>
                    <samplesize>16</samplesize>
                  </samplecharacteristics>
                </audio>
              </media>
            </file>
            <sourcetrack>
              <mediatype>audio</mediatype>
              <trackindex>1</trackindex>
            </sourcetrack>
          </clipitem>
          <clipitem id="clipitem-79">
            <name>OrionEp2Short-079-NA.mp3</name>
            <enabled>TRUE</enabled>
            <duration>131</duration>
            <rate>
              <timebase>30</timebase>
              <ntsc>TRUE</ntsc>
            </rate>
            <start>13472</start>
            <end>13603</end>
            <in>0</in>
            <out>131</out>
            <file id="file-80">
              <name>OrionEp2Short-079-NA.mp3</name>
              <pathurl>file:///Users/hiroshikodera/repos/_active/tools/davinciauto/projects/OrionEp2/%E3%82%B5%E3%82%A6%E3%83%B3%E3%83%89%E9%A1%9E/NarrationShort/OrionEp2Short-079-NA.mp3</pathurl>
              <rate>
                <timebase>44100</timebase>
                <ntsc>FALSE</ntsc>
              </rate>
              <media>
                <audio>
                  <channelcount>1</channelcount>
                  <samplecharacteristics>
                    <samplerate>44100</samplerate>
                    <samplesize>16</samplesize>
                  </samplecharacteristics>
                </audio>
              </media>
            </file>
            <sourcetrack>
              <mediatype>audio</mediatype>
              <trackindex>1</trackindex>
            </sourcetrack>
          </clipitem>
          <clipitem id="clipitem-80">
            <name>OrionEp2Short-080-NA.mp3</name>
            <enabled>TRUE</enabled>
            <duration>207</duration>
            <rate>
              <timebase>30</timebase>
              <ntsc>TRUE</ntsc>
            </rate>
            <start>13617</start>
            <end>13824</end>
            <in>0</in>
            <out>207</out>
            <file id="file-81">
              <name>OrionEp2Short-080-NA.mp3</name>
              <pathurl>file:///Users/hiroshikodera/repos/_active/tools/davinciauto/projects/OrionEp2/%E3%82%B5%E3%82%A6%E3%83%B3%E3%83%89%E9%A1%9E/NarrationShort/OrionEp2Short-080-NA.mp3</pathurl>
              <rate>
                <timebase>44100</timebase>
                <ntsc>FALSE</ntsc>
              </rate>
              <media>
                <audio>
                  <channelcount>1</channelcount>
                  <samplecharacteristics>
                    <samplerate>44100</samplerate>
                    <samplesize>16</samplesize>
                  </samplecharacteristics>
                </audio>
              </media>
            </file>
            <sourcetrack>
              <mediatype>audio</mediatype>
              <trackindex>1</trackindex>
            </sourcetrack>
          </clipitem>
          <clipitem id="clipitem-81">
            <name>OrionEp2Short-081-NA.mp3</name>
            <enabled>TRUE</enabled>
            <duration>158</duration>
            <rate>
              <timebase>30</timebase>
              <ntsc>TRUE</ntsc>
            </rate>
            <start>13838</start>
            <end>13996</end>
            <in>0</in>
            <out>158</out>
            <file id="file-82">
              <name>OrionEp2Short-081-NA.mp3</name>
              <pathurl>file:///Users/hiroshikodera/repos/_active/tools/davinciauto/projects/OrionEp2/%E3%82%B5%E3%82%A6%E3%83%B3%E3%83%89%E9%A1%9E/NarrationShort/OrionEp2Short-081-NA.mp3</pathurl>
              <rate>
                <timebase>44100</timebase>
                <ntsc>FALSE</ntsc>
              </rate>
              <media>
                <audio>
                  <channelcount>1</channelcount>
                  <samplecharacteristics>
                    <samplerate>44100</samplerate>
                    <samplesize>16</samplesize>
                  </samplecharacteristics>
                </audio>
              </media>
            </file>
            <sourcetrack>
              <mediatype>audio</mediatype>
              <trackindex>1</trackindex>
            </sourcetrack>
          </clipitem>
          <clipitem id="clipitem-82">
            <name>OrionEp2Short-082-NA.mp3</name>
            <enabled>TRUE</enabled>
            <duration>140</duration>
            <rate>
              <timebase>30</timebase>
              <ntsc>TRUE</ntsc>
            </rate>
            <start>14009</start>
            <end>14149</end>
            <in>0</in>
            <out>140</out>
            <file id="file-83">
              <name>OrionEp2Short-082-NA.mp3</name>
              <pathurl>file:///Users/hiroshikodera/repos/_active/tools/davinciauto/projects/OrionEp2/%E3%82%B5%E3%82%A6%E3%83%B3%E3%83%89%E9%A1%9E/NarrationShort/OrionEp2Short-082-NA.mp3</pathurl>
              <rate>
                <timebase>44100</timebase>
                <ntsc>FALSE</ntsc>
              </rate>
              <media>
                <audio>
                  <channelcount>1</channelcount>
                  <samplecharacteristics>
                    <samplerate>44100</samplerate>
                    <samplesize>16</samplesize>
                  </samplecharacteristics>
                </audio>
              </media>
            </file>
            <sourcetrack>
              <mediatype>audio</mediatype>
              <trackindex>1</trackindex>
            </sourcetrack>
          </clipitem>
          <clipitem id="clipitem-83">
            <name>OrionEp2Short-083-NA.mp3</name>
            <enabled>TRUE</enabled>
            <duration>129</duration>
            <rate>
              <timebase>30</timebase>
              <ntsc>TRUE</ntsc>
            </rate>
            <start>14162</start>
            <end>14291</end>
            <in>0</in>
            <out>129</out>
            <file id="file-84">
              <name>OrionEp2Short-083-NA.mp3</name>
              <pathurl>file:///Users/hiroshikodera/repos/_active/tools/davinciauto/projects/OrionEp2/%E3%82%B5%E3%82%A6%E3%83%B3%E3%83%89%E9%A1%9E/NarrationShort/OrionEp2Short-083-NA.mp3</pathurl>
              <rate>
                <timebase>44100</timebase>
                <ntsc>FALSE</ntsc>
              </rate>
              <media>
                <audio>
                  <channelcount>1</channelcount>
                  <samplecharacteristics>
                    <samplerate>44100</samplerate>
                    <samplesize>16</samplesize>
                  </samplecharacteristics>
                </audio>
              </media>
            </file>
            <sourcetrack>
              <mediatype>audio</mediatype>
              <trackindex>1</trackindex>
            </sourcetrack>
          </clipitem>
          <clipitem id="clipitem-84">
            <name>OrionEp2Short-084-NA.mp3</name>
            <enabled>TRUE</enabled>
            <duration>85</duration>
            <rate>
              <timebase>30</timebase>
              <ntsc>TRUE</ntsc>
            </rate>
            <start>14304</start>
            <end>14389</end>
            <in>0</in>
            <out>85</out>
            <file id="file-85">
              <name>OrionEp2Short-084-NA.mp3</name>
              <pathurl>file:///Users/hiroshikodera/repos/_active/tools/davinciauto/projects/OrionEp2/%E3%82%B5%E3%82%A6%E3%83%B3%E3%83%89%E9%A1%9E/NarrationShort/OrionEp2Short-084-NA.mp3</pathurl>
              <rate>
                <timebase>44100</timebase>
                <ntsc>FALSE</ntsc>
              </rate>
              <media>
                <audio>
                  <channelcount>1</channelcount>
                  <samplecharacteristics>
                    <samplerate>44100</samplerate>
                    <samplesize>16</samplesize>
                  </samplecharacteristics>
                </audio>
              </media>
            </file>
            <sourcetrack>
              <mediatype>audio</mediatype>
              <trackindex>1</trackindex>
            </sourcetrack>
          </clipitem>
          <clipitem id="clipitem-85">
            <name>OrionEp2Short-085-NA.mp3</name>
            <enabled>TRUE</enabled>
            <duration>154</duration>
            <rate>
              <timebase>30</timebase>
              <ntsc>TRUE</ntsc>
            </rate>
            <start>14400</start>
            <end>14554</end>
            <in>0</in>
            <out>154</out>
            <file id="file-86">
              <name>OrionEp2Short-085-NA.mp3</name>
              <pathurl>file:///Users/hiroshikodera/repos/_active/tools/davinciauto/projects/OrionEp2/%E3%82%B5%E3%82%A6%E3%83%B3%E3%83%89%E9%A1%9E/NarrationShort/OrionEp2Short-085-NA.mp3</pathurl>
              <rate>
                <timebase>44100</timebase>
                <ntsc>FALSE</ntsc>
              </rate>
              <media>
                <audio>
                  <channelcount>1</channelcount>
                  <samplecharacteristics>
                    <samplerate>44100</samplerate>
                    <samplesize>16</samplesize>
                  </samplecharacteristics>
                </audio>
              </media>
            </file>
            <sourcetrack>
              <mediatype>audio</mediatype>
              <trackindex>1</trackindex>
            </sourcetrack>
          </clipitem>
          <clipitem id="clipitem-86">
            <name>OrionEp2Short-086-NA.mp3</name>
            <enabled>TRUE</enabled>
            <duration>91</duration>
            <rate>
              <timebase>30</timebase>
              <ntsc>TRUE</ntsc>
            </rate>
            <start>14568</start>
            <end>14659</end>
            <in>0</in>
            <out>91</out>
            <file id="file-87">
              <name>OrionEp2Short-086-NA.mp3</name>
              <pathurl>file:///Users/hiroshikodera/repos/_active/tools/davinciauto/projects/OrionEp2/%E3%82%B5%E3%82%A6%E3%83%B3%E3%83%89%E9%A1%9E/NarrationShort/OrionEp2Short-086-NA.mp3</pathurl>
              <rate>
                <timebase>44100</timebase>
                <ntsc>FALSE</ntsc>
              </rate>
              <media>
                <audio>
                  <channelcount>1</channelcount>
                  <samplecharacteristics>
                    <samplerate>44100</samplerate>
                    <samplesize>16</samplesize>
                  </samplecharacteristics>
                </audio>
              </media>
            </file>
            <sourcetrack>
              <mediatype>audio</mediatype>
              <trackindex>1</trackindex>
            </sourcetrack>
          </clipitem>
          <clipitem id="clipitem-87">
            <name>OrionEp2Short-087-NA.mp3</name>
            <enabled>TRUE</enabled>
            <duration>163</duration>
            <rate>
              <timebase>30</timebase>
              <ntsc>TRUE</ntsc>
            </rate>
            <start>14671</start>
            <end>14834</end>
            <in>0</in>
            <out>163</out>
            <file id="file-88">
              <name>OrionEp2Short-087-NA.mp3</name>
              <pathurl>file:///Users/hiroshikodera/repos/_active/tools/davinciauto/projects/OrionEp2/%E3%82%B5%E3%82%A6%E3%83%B3%E3%83%89%E9%A1%9E/NarrationShort/OrionEp2Short-087-NA.mp3</pathurl>
              <rate>
                <timebase>44100</timebase>
                <ntsc>FALSE</ntsc>
              </rate>
              <media>
                <audio>
                  <channelcount>1</channelcount>
                  <samplecharacteristics>
                    <samplerate>44100</samplerate>
                    <samplesize>16</samplesize>
                  </samplecharacteristics>
                </audio>
              </media>
            </file>
            <sourcetrack>
              <mediatype>audio</mediatype>
              <trackindex>1</trackindex>
            </sourcetrack>
          </clipitem>
          <clipitem id="clipitem-88">
            <name>OrionEp2Short-088-NA.mp3</name>
            <enabled>TRUE</enabled>
            <duration>117</duration>
            <rate>
              <timebase>30</timebase>
              <ntsc>TRUE</ntsc>
            </rate>
            <start>14847</start>
            <end>14964</end>
            <in>0</in>
            <out>117</out>
            <file id="file-89">
              <name>OrionEp2Short-088-NA.mp3</name>
              <pathurl>file:///Users/hiroshikodera/repos/_active/tools/davinciauto/projects/OrionEp2/%E3%82%B5%E3%82%A6%E3%83%B3%E3%83%89%E9%A1%9E/NarrationShort/OrionEp2Short-088-NA.mp3</pathurl>
              <rate>
                <timebase>44100</timebase>
                <ntsc>FALSE</ntsc>
              </rate>
              <media>
                <audio>
                  <channelcount>1</channelcount>
                  <samplecharacteristics>
                    <samplerate>44100</samplerate>
                    <samplesize>16</samplesize>
                  </samplecharacteristics>
                </audio>
              </media>
            </file>
            <sourcetrack>
              <mediatype>audio</mediatype>
              <trackindex>1</trackindex>
            </sourcetrack>
          </clipitem>
        </track>
      </audio>
    </media>
  </sequence>
</xmeml>
