<?xml version="1.0" encoding="UTF-8"?>
<!DOCTYPE xmeml>
<xmeml version="4">
	<sequence id="sequence-7" TL.SQAudioVisibleBase="0" TL.SQVideoVisibleBase="0" TL.SQVisibleBaseTime="0" TL.SQAVDividerPosition="0.5" TL.SQHideShyTracks="0" TL.SQHeaderWidth="204" TL.SQDataTrackViewControlState="0" Monitor.ProgramZoomOut="477911089656000" Monitor.ProgramZoomIn="0" TL.SQTimePerPixel="0.02132171058620062" MZ.EditLine="0" MZ.Sequence.PreviewFrameSizeHeight="2160" MZ.Sequence.PreviewFrameSizeWidth="3840" MZ.Sequence.AudioTimeDisplayFormat="200" MZ.Sequence.PreviewRenderingClassID="1061109567" MZ.Sequence.PreviewRenderingPresetCodec="1634755443" MZ.Sequence.PreviewRenderingPresetPath="EncoderPresets/SequencePreview/795454d9-d3c2-429d-9474-923ab13b7018/QuickTime.epr" MZ.Sequence.PreviewUseMaxRenderQuality="false" MZ.Sequence.PreviewUseMaxBitDepth="false" MZ.Sequence.EditingModeGUID="795454d9-d3c2-429d-9474-923ab13b7018" MZ.Sequence.VideoTimeDisplayFormat="110" MZ.WorkOutPoint="482265463680000" MZ.WorkInPoint="0" explodedTracks="true">
		<uuid>cc4ee8db-f80a-4f64-a667-600b51566964</uuid>
		<duration>41336</duration>
		<rate>
			<timebase>24</timebase>
			<ntsc>TRUE</ntsc>
		</rate>
		<name>03_2_cut</name>
		<media>
			<video>
				<format>
					
					
					<samplecharacteristics>
						
						
						<rate>
							
							
							<timebase>24</timebase>
							
							
							<ntsc>TRUE</ntsc>
							
						
						</rate>
						
						
						<codec>
							
							
							<name>Apple ProRes 422</name>
							
							
							<appspecificdata>
								
								
								<appname>Final Cut Pro</appname>
								
								
								<appmanufacturer>Apple Inc.</appmanufacturer>
								
								
								<appversion>7.0</appversion>
								
								
								<data>
									
									
									<qtcodec>
										
										
										<codecname>Apple ProRes 422</codecname>
										
										
										<codectypename>Apple ProRes 422</codectypename>
										
										
										<codectypecode>apcn</codectypecode>
										
										
										<codecvendorcode>appl</codecvendorcode>
										
										
										<spatialquality>1024</spatialquality>
										
										
										<temporalquality>0</temporalquality>
										
										
										<keyframerate>0</keyframerate>
										
										
										<datarate>0</datarate>
										
									
									</qtcodec>
									
								
								</data>
								
							
							</appspecificdata>
							
						
						</codec>
						
						
						<width>3840</width>
						
						
						<height>2160</height>
						
						
						<anamorphic>FALSE</anamorphic>
						
						
						<pixelaspectratio>square</pixelaspectratio>
						
						
						<fielddominance>none</fielddominance>
						
						
						<colordepth>24</colordepth>
						
					
					</samplecharacteristics>
					
				
				</format>
				<track TL.SQTrackShy="0" TL.SQTrackExpandedHeight="41" TL.SQTrackExpanded="0" MZ.TrackTargeted="1">
					<clipitem id="clipitem-324">
						
						
						<masterclipid>masterclip-24</masterclipid>
						
						
						<name>0619_0729.MXF</name>
						
						
						<enabled>TRUE</enabled>
						
						
						<duration>45520</duration>
						
						
						<rate>
							
							
							<timebase>24</timebase>
							
							
							<ntsc>TRUE</ntsc>
							
						
						</rate>
						
						
						<start>120</start>
						
						
						<end>4399</end>
						
						
						<in>530</in>
						
						
						<out>4809</out>
						
						
						<pproTicksIn>5615129520000</pproTicksIn>
						
						
						<pproTicksOut>50949354455999</pproTicksOut>
						
						
						<alphatype>none</alphatype>
						
						
						<pixelaspectratio>square</pixelaspectratio>
						
						
						<anamorphic>FALSE</anamorphic>
						
						
						<file id="file-24">
							<name>0619_0729.MXF</name>
							<pathurl>file://localhost/Volumes/P-40/liberary2025/0929_2/Acam/PRIVATE/XDROOT/Clip/0619_0729.MXF</pathurl>
							<rate>
								
								
								<timebase>24</timebase>
								
								
								<ntsc>TRUE</ntsc>
								
							
							</rate>
							<duration>45520</duration>
							<timecode>
								
								
								<rate>
									
									
									<timebase>24</timebase>
									
									
									<ntsc>TRUE</ntsc>
									
								
								</rate>
								
								
								<string>15:20:22:00</string>
								
								
								<frame>1325328</frame>
								
								
								<displayformat>NDF</displayformat>
								
							
							</timecode>
							<media>
								
								
								<video>
									
									
									<samplecharacteristics>
										
										
										<rate>
											
											
											<timebase>24</timebase>
											
											
											<ntsc>TRUE</ntsc>
											
										
										</rate>
										
										
										<width>3840</width>
										
										
										<height>2160</height>
										
										
										<anamorphic>FALSE</anamorphic>
										
										
										<pixelaspectratio>square</pixelaspectratio>
										
										
										<fielddominance>none</fielddominance>
										
									
									</samplecharacteristics>
									
								
								</video>
								
								
								<audio>
									
									
									<samplecharacteristics>
										
										
										<depth>16</depth>
										
										
										<samplerate>48000</samplerate>
										
									
									</samplecharacteristics>
									
									
									<channelcount>4</channelcount>
									
								
								</audio>
								
							
							</media>
						</file>
						<marker>
							
								
							<comment/>
							
								
							<name/>
							
								
							<in>526</in>
							
								
							<out>-1</out>
							
							
						</marker>
						
						
						<logginginfo>
							
							
							<description/>
							
							
							<scene/>
							
							
							<shottake/>
							
							
							<lognote/>
							
							
							<good/>
							
							
							<originalvideofilename/>
							
							
							<originalaudiofilename/>
							
						
						</logginginfo>
						
						
						<colorinfo>
							
							
							<lut/>
							
							
							<lut1/>
							
							
							<asc_sop/>
							
							
							<asc_sat/>
							
							
							<lut2/>
							
						
						</colorinfo>
						
						
						<labels>
							
							
							<label2>Caribbean</label2>
							
						
						</labels>
						
					
						<link>
							<linkclipref>clipitem-324</linkclipref>
							<mediatype>video</mediatype>
							<trackindex>1</trackindex>
							<clipindex>1</clipindex>
							<groupindex>1</groupindex>
						</link>
						<link>
							<linkclipref>clipitem-330</linkclipref>
							<mediatype>video</mediatype>
							<trackindex>2</trackindex>
							<clipindex>1</clipindex>
							<groupindex>1</groupindex>
						</link>
						<link>
							<linkclipref>clipitem-336</linkclipref>
							<mediatype>video</mediatype>
							<trackindex>3</trackindex>
							<clipindex>1</clipindex>
							<groupindex>1</groupindex>
						</link>
						<link>
							<linkclipref>clipitem-342</linkclipref>
							<mediatype>audio</mediatype>
							<trackindex>1</trackindex>
							<clipindex>1</clipindex>
							<groupindex>1</groupindex>
						</link>
						<link>
							<linkclipref>clipitem-348</linkclipref>
							<mediatype>audio</mediatype>
							<trackindex>2</trackindex>
							<clipindex>1</clipindex>
							<groupindex>1</groupindex>
						</link>
						<link>
							<linkclipref>clipitem-354</linkclipref>
							<mediatype>audio</mediatype>
							<trackindex>3</trackindex>
							<clipindex>1</clipindex>
							<groupindex>1</groupindex>
						</link>
						<link>
							<linkclipref>clipitem-360</linkclipref>
							<mediatype>audio</mediatype>
							<trackindex>4</trackindex>
							<clipindex>1</clipindex>
							<groupindex>1</groupindex>
						</link>
						<link>
							<linkclipref>clipitem-366</linkclipref>
							<mediatype>audio</mediatype>
							<trackindex>5</trackindex>
							<clipindex>1</clipindex>
							<groupindex>1</groupindex>
						</link>
						<link>
							<linkclipref>clipitem-372</linkclipref>
							<mediatype>audio</mediatype>
							<trackindex>6</trackindex>
							<clipindex>1</clipindex>
							<groupindex>1</groupindex>
						</link>
						<link>
							<linkclipref>clipitem-378</linkclipref>
							<mediatype>audio</mediatype>
							<trackindex>7</trackindex>
							<clipindex>1</clipindex>
							<groupindex>1</groupindex>
						</link>
						<link>
							<linkclipref>clipitem-384</linkclipref>
							<mediatype>audio</mediatype>
							<trackindex>8</trackindex>
							<clipindex>1</clipindex>
							<groupindex>1</groupindex>
						</link>
					</clipitem>
					<clipitem id="clipitem-325">
						
						
						<masterclipid>masterclip-24</masterclipid>
						
						
						<name>0619_0729.MXF</name>
						
						
						<enabled>TRUE</enabled>
						
						
						<duration>45520</duration>
						
						
						<rate>
							
							
							<timebase>24</timebase>
							
							
							<ntsc>TRUE</ntsc>
							
						
						</rate>
						
						
						<start>4761</start>
						
						
						<end>14095</end>
						
						
						<in>5074</in>
						
						
						<out>14408</out>
						
						
						<pproTicksIn>53756919215999</pproTicksIn>
						
						
						<pproTicksOut>152646766271999</pproTicksOut>
						
						
						<alphatype>none</alphatype>
						
						
						<pixelaspectratio>square</pixelaspectratio>
						
						
						<anamorphic>FALSE</anamorphic>
						
						
						<file id="file-24">
							</file>
						
							
						<marker>
							
								
							<comment/>
							
								
							<name/>
							
								
							<in>526</in>
							
								
							<out>-1</out>
							
							
						</marker>
						
						
						<logginginfo>
							
							
							<description/>
							
							
							<scene/>
							
							
							<shottake/>
							
							
							<lognote/>
							
							
							<good/>
							
							
							<originalvideofilename/>
							
							
							<originalaudiofilename/>
							
						
						</logginginfo>
						
						
						<colorinfo>
							
							
							<lut/>
							
							
							<lut1/>
							
							
							<asc_sop/>
							
							
							<asc_sat/>
							
							
							<lut2/>
							
						
						</colorinfo>
						
						
						<labels>
							
							
							<label2>Rose</label2>
							
						
						</labels>
						
					
						<link>
							<linkclipref>clipitem-325</linkclipref>
							<mediatype>video</mediatype>
							<trackindex>1</trackindex>
							<clipindex>2</clipindex>
							<groupindex>1</groupindex>
						</link>
						<link>
							<linkclipref>clipitem-331</linkclipref>
							<mediatype>video</mediatype>
							<trackindex>2</trackindex>
							<clipindex>2</clipindex>
							<groupindex>1</groupindex>
						</link>
						<link>
							<linkclipref>clipitem-337</linkclipref>
							<mediatype>video</mediatype>
							<trackindex>3</trackindex>
							<clipindex>2</clipindex>
							<groupindex>1</groupindex>
						</link>
						<link>
							<linkclipref>clipitem-343</linkclipref>
							<mediatype>audio</mediatype>
							<trackindex>1</trackindex>
							<clipindex>2</clipindex>
							<groupindex>1</groupindex>
						</link>
						<link>
							<linkclipref>clipitem-349</linkclipref>
							<mediatype>audio</mediatype>
							<trackindex>2</trackindex>
							<clipindex>2</clipindex>
							<groupindex>1</groupindex>
						</link>
						<link>
							<linkclipref>clipitem-355</linkclipref>
							<mediatype>audio</mediatype>
							<trackindex>3</trackindex>
							<clipindex>2</clipindex>
							<groupindex>1</groupindex>
						</link>
						<link>
							<linkclipref>clipitem-361</linkclipref>
							<mediatype>audio</mediatype>
							<trackindex>4</trackindex>
							<clipindex>2</clipindex>
							<groupindex>1</groupindex>
						</link>
						<link>
							<linkclipref>clipitem-367</linkclipref>
							<mediatype>audio</mediatype>
							<trackindex>5</trackindex>
							<clipindex>2</clipindex>
							<groupindex>1</groupindex>
						</link>
						<link>
							<linkclipref>clipitem-373</linkclipref>
							<mediatype>audio</mediatype>
							<trackindex>6</trackindex>
							<clipindex>2</clipindex>
							<groupindex>1</groupindex>
						</link>
						<link>
							<linkclipref>clipitem-379</linkclipref>
							<mediatype>audio</mediatype>
							<trackindex>7</trackindex>
							<clipindex>2</clipindex>
							<groupindex>1</groupindex>
						</link>
						<link>
							<linkclipref>clipitem-385</linkclipref>
							<mediatype>audio</mediatype>
							<trackindex>8</trackindex>
							<clipindex>2</clipindex>
							<groupindex>1</groupindex>
						</link>
					</clipitem>
					<clipitem id="clipitem-326">
						
						
						<masterclipid>masterclip-24</masterclipid>
						
						
						<name>0619_0729.MXF</name>
						
						
						<enabled>TRUE</enabled>
						
						
						<duration>45520</duration>
						
						
						<rate>
							
							
							<timebase>24</timebase>
							
							
							<ntsc>TRUE</ntsc>
							
						
						</rate>
						
						
						<start>14457</start>
						
						
						<end>18809</end>
						
						
						<in>15769</in>
						
						
						<out>20121</out>
						
						
						<pproTicksIn>167065995096000</pproTicksIn>
						
						
						<pproTicksOut>213173624663999</pproTicksOut>
						
						
						<alphatype>none</alphatype>
						
						
						<pixelaspectratio>square</pixelaspectratio>
						
						
						<anamorphic>FALSE</anamorphic>
						
						
						<file id="file-24">
							</file>
						
							
						<marker>
							
								
							<comment/>
							
								
							<name/>
							
								
							<in>526</in>
							
								
							<out>-1</out>
							
							
						</marker>
						
						
						<logginginfo>
							
							
							<description/>
							
							
							<scene/>
							
							
							<shottake/>
							
							
							<lognote/>
							
							
							<good/>
							
							
							<originalvideofilename/>
							
							
							<originalaudiofilename/>
							
						
						</logginginfo>
						
						
						<colorinfo>
							
							
							<lut/>
							
							
							<lut1/>
							
							
							<asc_sop/>
							
							
							<asc_sat/>
							
							
							<lut2/>
							
						
						</colorinfo>
						
						
						<labels>
							
							
							<label2>Lavender</label2>
							
						
						</labels>
						
					
						<link>
							<linkclipref>clipitem-326</linkclipref>
							<mediatype>video</mediatype>
							<trackindex>1</trackindex>
							<clipindex>3</clipindex>
							<groupindex>1</groupindex>
						</link>
						<link>
							<linkclipref>clipitem-332</linkclipref>
							<mediatype>video</mediatype>
							<trackindex>2</trackindex>
							<clipindex>3</clipindex>
							<groupindex>1</groupindex>
						</link>
						<link>
							<linkclipref>clipitem-338</linkclipref>
							<mediatype>video</mediatype>
							<trackindex>3</trackindex>
							<clipindex>3</clipindex>
							<groupindex>1</groupindex>
						</link>
						<link>
							<linkclipref>clipitem-344</linkclipref>
							<mediatype>audio</mediatype>
							<trackindex>1</trackindex>
							<clipindex>3</clipindex>
							<groupindex>1</groupindex>
						</link>
						<link>
							<linkclipref>clipitem-350</linkclipref>
							<mediatype>audio</mediatype>
							<trackindex>2</trackindex>
							<clipindex>3</clipindex>
							<groupindex>1</groupindex>
						</link>
						<link>
							<linkclipref>clipitem-356</linkclipref>
							<mediatype>audio</mediatype>
							<trackindex>3</trackindex>
							<clipindex>3</clipindex>
							<groupindex>1</groupindex>
						</link>
						<link>
							<linkclipref>clipitem-362</linkclipref>
							<mediatype>audio</mediatype>
							<trackindex>4</trackindex>
							<clipindex>3</clipindex>
							<groupindex>1</groupindex>
						</link>
						<link>
							<linkclipref>clipitem-368</linkclipref>
							<mediatype>audio</mediatype>
							<trackindex>5</trackindex>
							<clipindex>3</clipindex>
							<groupindex>1</groupindex>
						</link>
						<link>
							<linkclipref>clipitem-374</linkclipref>
							<mediatype>audio</mediatype>
							<trackindex>6</trackindex>
							<clipindex>3</clipindex>
							<groupindex>1</groupindex>
						</link>
						<link>
							<linkclipref>clipitem-380</linkclipref>
							<mediatype>audio</mediatype>
							<trackindex>7</trackindex>
							<clipindex>3</clipindex>
							<groupindex>1</groupindex>
						</link>
						<link>
							<linkclipref>clipitem-386</linkclipref>
							<mediatype>audio</mediatype>
							<trackindex>8</trackindex>
							<clipindex>3</clipindex>
							<groupindex>1</groupindex>
						</link>
					</clipitem>
					<clipitem id="clipitem-327">
						
						
						<masterclipid>masterclip-24</masterclipid>
						
						
						<name>0619_0729.MXF</name>
						
						
						<enabled>TRUE</enabled>
						
						
						<duration>45520</duration>
						
						
						<rate>
							
							
							<timebase>24</timebase>
							
							
							<ntsc>TRUE</ntsc>
							
						
						</rate>
						
						
						<start>19171</start>
						
						
						<end>22347</end>
						
						
						<in>21284</in>
						
						
						<out>24460</out>
						
						
						<pproTicksIn>225495125856000</pproTicksIn>
						
						
						<pproTicksOut>259143524639999</pproTicksOut>
						
						
						<alphatype>none</alphatype>
						
						
						<pixelaspectratio>square</pixelaspectratio>
						
						
						<anamorphic>FALSE</anamorphic>
						
						
						<file id="file-24">
							</file>
						
							
						<marker>
							
								
							<comment/>
							
								
							<name/>
							
								
							<in>526</in>
							
								
							<out>-1</out>
							
							
						</marker>
						
						
						<logginginfo>
							
							
							<description/>
							
							
							<scene/>
							
							
							<shottake/>
							
							
							<lognote/>
							
							
							<good/>
							
							
							<originalvideofilename/>
							
							
							<originalaudiofilename/>
							
						
						</logginginfo>
						
						
						<colorinfo>
							
							
							<lut/>
							
							
							<lut1/>
							
							
							<asc_sop/>
							
							
							<asc_sat/>
							
							
							<lut2/>
							
						
						</colorinfo>
						
						
						<labels>
							
							
							<label2>Yellow</label2>
							
						
						</labels>
						
					
						<link>
							<linkclipref>clipitem-327</linkclipref>
							<mediatype>video</mediatype>
							<trackindex>1</trackindex>
							<clipindex>4</clipindex>
							<groupindex>1</groupindex>
						</link>
						<link>
							<linkclipref>clipitem-333</linkclipref>
							<mediatype>video</mediatype>
							<trackindex>2</trackindex>
							<clipindex>4</clipindex>
							<groupindex>1</groupindex>
						</link>
						<link>
							<linkclipref>clipitem-339</linkclipref>
							<mediatype>video</mediatype>
							<trackindex>3</trackindex>
							<clipindex>4</clipindex>
							<groupindex>1</groupindex>
						</link>
						<link>
							<linkclipref>clipitem-345</linkclipref>
							<mediatype>audio</mediatype>
							<trackindex>1</trackindex>
							<clipindex>4</clipindex>
							<groupindex>1</groupindex>
						</link>
						<link>
							<linkclipref>clipitem-351</linkclipref>
							<mediatype>audio</mediatype>
							<trackindex>2</trackindex>
							<clipindex>4</clipindex>
							<groupindex>1</groupindex>
						</link>
						<link>
							<linkclipref>clipitem-357</linkclipref>
							<mediatype>audio</mediatype>
							<trackindex>3</trackindex>
							<clipindex>4</clipindex>
							<groupindex>1</groupindex>
						</link>
						<link>
							<linkclipref>clipitem-363</linkclipref>
							<mediatype>audio</mediatype>
							<trackindex>4</trackindex>
							<clipindex>4</clipindex>
							<groupindex>1</groupindex>
						</link>
						<link>
							<linkclipref>clipitem-369</linkclipref>
							<mediatype>audio</mediatype>
							<trackindex>5</trackindex>
							<clipindex>4</clipindex>
							<groupindex>1</groupindex>
						</link>
						<link>
							<linkclipref>clipitem-375</linkclipref>
							<mediatype>audio</mediatype>
							<trackindex>6</trackindex>
							<clipindex>4</clipindex>
							<groupindex>1</groupindex>
						</link>
						<link>
							<linkclipref>clipitem-381</linkclipref>
							<mediatype>audio</mediatype>
							<trackindex>7</trackindex>
							<clipindex>4</clipindex>
							<groupindex>1</groupindex>
						</link>
						<link>
							<linkclipref>clipitem-387</linkclipref>
							<mediatype>audio</mediatype>
							<trackindex>8</trackindex>
							<clipindex>4</clipindex>
							<groupindex>1</groupindex>
						</link>
					</clipitem>
					<clipitem id="clipitem-328">
						
						
						<masterclipid>masterclip-24</masterclipid>
						
						
						<name>0619_0729.MXF</name>
						
						
						<enabled>TRUE</enabled>
						
						
						<duration>45520</duration>
						
						
						<rate>
							
							
							<timebase>24</timebase>
							
							
							<ntsc>TRUE</ntsc>
							
						
						</rate>
						
						
						<start>22709</start>
						
						
						<end>26830</end>
						
						
						<in>25507</in>
						
						
						<out>29628</out>
						
						
						<pproTicksIn>270236054087999</pproTicksIn>
						
						
						<pproTicksOut>313896334752000</pproTicksOut>
						
						
						<alphatype>none</alphatype>
						
						
						<pixelaspectratio>square</pixelaspectratio>
						
						
						<anamorphic>FALSE</anamorphic>
						
						
						<file id="file-24">
							</file>
						
							
						<marker>
							
								
							<comment/>
							
								
							<name/>
							
								
							<in>526</in>
							
								
							<out>-1</out>
							
							
						</marker>
						
						
						<logginginfo>
							
							
							<description/>
							
							
							<scene/>
							
							
							<shottake/>
							
							
							<lognote/>
							
							
							<good/>
							
							
							<originalvideofilename/>
							
							
							<originalaudiofilename/>
							
						
						</logginginfo>
						
						
						<colorinfo>
							
							
							<lut/>
							
							
							<lut1/>
							
							
							<asc_sop/>
							
							
							<asc_sat/>
							
							
							<lut2/>
							
						
						</colorinfo>
						
						
						<labels>
							
							
							<label2>Violet</label2>
							
						
						</labels>
						
					
						<link>
							<linkclipref>clipitem-328</linkclipref>
							<mediatype>video</mediatype>
							<trackindex>1</trackindex>
							<clipindex>5</clipindex>
							<groupindex>1</groupindex>
						</link>
						<link>
							<linkclipref>clipitem-334</linkclipref>
							<mediatype>video</mediatype>
							<trackindex>2</trackindex>
							<clipindex>5</clipindex>
							<groupindex>1</groupindex>
						</link>
						<link>
							<linkclipref>clipitem-340</linkclipref>
							<mediatype>video</mediatype>
							<trackindex>3</trackindex>
							<clipindex>5</clipindex>
							<groupindex>1</groupindex>
						</link>
						<link>
							<linkclipref>clipitem-346</linkclipref>
							<mediatype>audio</mediatype>
							<trackindex>1</trackindex>
							<clipindex>5</clipindex>
							<groupindex>1</groupindex>
						</link>
						<link>
							<linkclipref>clipitem-352</linkclipref>
							<mediatype>audio</mediatype>
							<trackindex>2</trackindex>
							<clipindex>5</clipindex>
							<groupindex>1</groupindex>
						</link>
						<link>
							<linkclipref>clipitem-358</linkclipref>
							<mediatype>audio</mediatype>
							<trackindex>3</trackindex>
							<clipindex>5</clipindex>
							<groupindex>1</groupindex>
						</link>
						<link>
							<linkclipref>clipitem-364</linkclipref>
							<mediatype>audio</mediatype>
							<trackindex>4</trackindex>
							<clipindex>5</clipindex>
							<groupindex>1</groupindex>
						</link>
						<link>
							<linkclipref>clipitem-370</linkclipref>
							<mediatype>audio</mediatype>
							<trackindex>5</trackindex>
							<clipindex>5</clipindex>
							<groupindex>1</groupindex>
						</link>
						<link>
							<linkclipref>clipitem-376</linkclipref>
							<mediatype>audio</mediatype>
							<trackindex>6</trackindex>
							<clipindex>5</clipindex>
							<groupindex>1</groupindex>
						</link>
						<link>
							<linkclipref>clipitem-382</linkclipref>
							<mediatype>audio</mediatype>
							<trackindex>7</trackindex>
							<clipindex>5</clipindex>
							<groupindex>1</groupindex>
						</link>
						<link>
							<linkclipref>clipitem-388</linkclipref>
							<mediatype>audio</mediatype>
							<trackindex>8</trackindex>
							<clipindex>5</clipindex>
							<groupindex>1</groupindex>
						</link>
					</clipitem>
					<clipitem id="clipitem-329">
						
						
						<masterclipid>masterclip-24</masterclipid>
						
						
						<name>0619_0729.MXF</name>
						
						
						<enabled>TRUE</enabled>
						
						
						<duration>45520</duration>
						
						
						<rate>
							
							
							<timebase>24</timebase>
							
							
							<ntsc>TRUE</ntsc>
							
						
						</rate>
						
						
						<start>27192</start>
						
						
						<end>41336</end>
						
						
						<in>30669</in>
						
						
						<out>44813</out>
						
						
						<pproTicksIn>324925296696000</pproTicksIn>
						
						
						<pproTicksOut>474775092792000</pproTicksOut>
						
						
						<alphatype>none</alphatype>
						
						
						<pixelaspectratio>square</pixelaspectratio>
						
						
						<anamorphic>FALSE</anamorphic>
						
						
						<file id="file-24">
							</file>
						
							
						<marker>
							
								
							<comment/>
							
								
							<name/>
							
								
							<in>526</in>
							
								
							<out>-1</out>
							
							
						</marker>
						
						
						<logginginfo>
							
							
							<description/>
							
							
							<scene/>
							
							
							<shottake/>
							
							
							<lognote/>
							
							
							<good/>
							
							
							<originalvideofilename/>
							
							
							<originalaudiofilename/>
							
						
						</logginginfo>
						
						
						<colorinfo>
							
							
							<lut/>
							
							
							<lut1/>
							
							
							<asc_sop/>
							
							
							<asc_sat/>
							
							
							<lut2/>
							
						
						</colorinfo>
						
						
						<labels>
							
							
							<label2>Yellow</label2>
							
						
						</labels>
						
					
						<link>
							<linkclipref>clipitem-329</linkclipref>
							<mediatype>video</mediatype>
							<trackindex>1</trackindex>
							<clipindex>6</clipindex>
							<groupindex>1</groupindex>
						</link>
						<link>
							<linkclipref>clipitem-335</linkclipref>
							<mediatype>video</mediatype>
							<trackindex>2</trackindex>
							<clipindex>6</clipindex>
							<groupindex>1</groupindex>
						</link>
						<link>
							<linkclipref>clipitem-341</linkclipref>
							<mediatype>video</mediatype>
							<trackindex>3</trackindex>
							<clipindex>6</clipindex>
							<groupindex>1</groupindex>
						</link>
						<link>
							<linkclipref>clipitem-347</linkclipref>
							<mediatype>audio</mediatype>
							<trackindex>1</trackindex>
							<clipindex>6</clipindex>
							<groupindex>1</groupindex>
						</link>
						<link>
							<linkclipref>clipitem-353</linkclipref>
							<mediatype>audio</mediatype>
							<trackindex>2</trackindex>
							<clipindex>6</clipindex>
							<groupindex>1</groupindex>
						</link>
						<link>
							<linkclipref>clipitem-359</linkclipref>
							<mediatype>audio</mediatype>
							<trackindex>3</trackindex>
							<clipindex>6</clipindex>
							<groupindex>1</groupindex>
						</link>
						<link>
							<linkclipref>clipitem-365</linkclipref>
							<mediatype>audio</mediatype>
							<trackindex>4</trackindex>
							<clipindex>6</clipindex>
							<groupindex>1</groupindex>
						</link>
						<link>
							<linkclipref>clipitem-371</linkclipref>
							<mediatype>audio</mediatype>
							<trackindex>5</trackindex>
							<clipindex>6</clipindex>
							<groupindex>1</groupindex>
						</link>
						<link>
							<linkclipref>clipitem-377</linkclipref>
							<mediatype>audio</mediatype>
							<trackindex>6</trackindex>
							<clipindex>6</clipindex>
							<groupindex>1</groupindex>
						</link>
						<link>
							<linkclipref>clipitem-383</linkclipref>
							<mediatype>audio</mediatype>
							<trackindex>7</trackindex>
							<clipindex>6</clipindex>
							<groupindex>1</groupindex>
						</link>
						<link>
							<linkclipref>clipitem-389</linkclipref>
							<mediatype>audio</mediatype>
							<trackindex>8</trackindex>
							<clipindex>6</clipindex>
							<groupindex>1</groupindex>
						</link>
					</clipitem>
					<enabled>TRUE</enabled>
					<locked>FALSE</locked>
				</track>
				<track TL.SQTrackShy="0" TL.SQTrackExpandedHeight="41" TL.SQTrackExpanded="0" MZ.TrackTargeted="1">
					<clipitem id="clipitem-330">
						
						
						<masterclipid>masterclip-25</masterclipid>
						
						
						<name>C4172.MP4</name>
						
						
						<enabled>TRUE</enabled>
						
						
						<duration>45552</duration>
						
						
						<rate>
							
							
							<timebase>24</timebase>
							
							
							<ntsc>TRUE</ntsc>
							
						
						</rate>
						
						
						<start>120</start>
						
						
						<end>4399</end>
						
						
						<in>631</in>
						
						
						<out>4910</out>
						
						
						<pproTicksIn>6685182503999</pproTicksIn>
						
						
						<pproTicksOut>52019407440000</pproTicksOut>
						
						
						<alphatype>none</alphatype>
						
						
						<pixelaspectratio>square</pixelaspectratio>
						
						
						<anamorphic>FALSE</anamorphic>
						
						
						<file id="file-25">
							<name>C4172.MP4</name>
							<pathurl>file://localhost/Volumes/P-40/liberary2025/0929_2/Bcam/PRIVATE/M4ROOT/CLIP/C4172.MP4</pathurl>
							<rate>
								
								
								<timebase>24</timebase>
								
								
								<ntsc>TRUE</ntsc>
								
							
							</rate>
							<duration>45552</duration>
							<timecode>
								
								
								<rate>
									
									
									<timebase>24</timebase>
									
									
									<ntsc>TRUE</ntsc>
									
								
								</rate>
								
								
								<string>15:20:17:20</string>
								
								
								<frame>1325228</frame>
								
								
								<displayformat>NDF</displayformat>
								
							
							</timecode>
							<media>
								
								
								<video>
									
									
									<samplecharacteristics>
										
										
										<rate>
											
											
											<timebase>24</timebase>
											
											
											<ntsc>TRUE</ntsc>
											
										
										</rate>
										
										
										<width>3840</width>
										
										
										<height>2160</height>
										
										
										<anamorphic>FALSE</anamorphic>
										
										
										<pixelaspectratio>square</pixelaspectratio>
										
										
										<fielddominance>none</fielddominance>
										
									
									</samplecharacteristics>
									
								
								</video>
								
								
								<audio>
									
									
									<samplecharacteristics>
										
										
										<depth>16</depth>
										
										
										<samplerate>48000</samplerate>
										
									
									</samplecharacteristics>
									
									
									<channelcount>2</channelcount>
									
								
								</audio>
								
							
							</media>
						</file>
						<marker>
							
								
							<comment/>
							
								
							<name/>
							
								
							<in>627</in>
							
								
							<out>-1</out>
							
							
						</marker>
						
						
						<logginginfo>
							
							
							<description/>
							
							
							<scene/>
							
							
							<shottake/>
							
							
							<lognote/>
							
							
							<good/>
							
							
							<originalvideofilename/>
							
							
							<originalaudiofilename/>
							
						
						</logginginfo>
						
						
						<colorinfo>
							
							
							<lut/>
							
							
							<lut1/>
							
							
							<asc_sop/>
							
							
							<asc_sat/>
							
							
							<lut2/>
							
						
						</colorinfo>
						
						
						<labels>
							
							
							<label2>Caribbean</label2>
							
						
						</labels>
						
					
						<link>
							<linkclipref>clipitem-324</linkclipref>
							<mediatype>video</mediatype>
							<trackindex>1</trackindex>
							<clipindex>1</clipindex>
							<groupindex>1</groupindex>
						</link>
						<link>
							<linkclipref>clipitem-330</linkclipref>
							<mediatype>video</mediatype>
							<trackindex>2</trackindex>
							<clipindex>1</clipindex>
							<groupindex>1</groupindex>
						</link>
						<link>
							<linkclipref>clipitem-336</linkclipref>
							<mediatype>video</mediatype>
							<trackindex>3</trackindex>
							<clipindex>1</clipindex>
							<groupindex>1</groupindex>
						</link>
						<link>
							<linkclipref>clipitem-342</linkclipref>
							<mediatype>audio</mediatype>
							<trackindex>1</trackindex>
							<clipindex>1</clipindex>
							<groupindex>1</groupindex>
						</link>
						<link>
							<linkclipref>clipitem-348</linkclipref>
							<mediatype>audio</mediatype>
							<trackindex>2</trackindex>
							<clipindex>1</clipindex>
							<groupindex>1</groupindex>
						</link>
						<link>
							<linkclipref>clipitem-354</linkclipref>
							<mediatype>audio</mediatype>
							<trackindex>3</trackindex>
							<clipindex>1</clipindex>
							<groupindex>1</groupindex>
						</link>
						<link>
							<linkclipref>clipitem-360</linkclipref>
							<mediatype>audio</mediatype>
							<trackindex>4</trackindex>
							<clipindex>1</clipindex>
							<groupindex>1</groupindex>
						</link>
						<link>
							<linkclipref>clipitem-366</linkclipref>
							<mediatype>audio</mediatype>
							<trackindex>5</trackindex>
							<clipindex>1</clipindex>
							<groupindex>1</groupindex>
						</link>
						<link>
							<linkclipref>clipitem-372</linkclipref>
							<mediatype>audio</mediatype>
							<trackindex>6</trackindex>
							<clipindex>1</clipindex>
							<groupindex>1</groupindex>
						</link>
						<link>
							<linkclipref>clipitem-378</linkclipref>
							<mediatype>audio</mediatype>
							<trackindex>7</trackindex>
							<clipindex>1</clipindex>
							<groupindex>1</groupindex>
						</link>
						<link>
							<linkclipref>clipitem-384</linkclipref>
							<mediatype>audio</mediatype>
							<trackindex>8</trackindex>
							<clipindex>1</clipindex>
							<groupindex>1</groupindex>
						</link>
					</clipitem>
					<clipitem id="clipitem-331">
						
						
						<masterclipid>masterclip-25</masterclipid>
						
						
						<name>C4172.MP4</name>
						
						
						<enabled>TRUE</enabled>
						
						
						<duration>45552</duration>
						
						
						<rate>
							
							
							<timebase>24</timebase>
							
							
							<ntsc>TRUE</ntsc>
							
						
						</rate>
						
						
						<start>4761</start>
						
						
						<end>14095</end>
						
						
						<in>5175</in>
						
						
						<out>14509</out>
						
						
						<pproTicksIn>54826972200000</pproTicksIn>
						
						
						<pproTicksOut>153716819256000</pproTicksOut>
						
						
						<alphatype>none</alphatype>
						
						
						<pixelaspectratio>square</pixelaspectratio>
						
						
						<anamorphic>FALSE</anamorphic>
						
						
						<file id="file-25">
							</file>
						
							
						<marker>
							
								
							<comment/>
							
								
							<name/>
							
								
							<in>627</in>
							
								
							<out>-1</out>
							
							
						</marker>
						
						
						<logginginfo>
							
							
							<description/>
							
							
							<scene/>
							
							
							<shottake/>
							
							
							<lognote/>
							
							
							<good/>
							
							
							<originalvideofilename/>
							
							
							<originalaudiofilename/>
							
						
						</logginginfo>
						
						
						<colorinfo>
							
							
							<lut/>
							
							
							<lut1/>
							
							
							<asc_sop/>
							
							
							<asc_sat/>
							
							
							<lut2/>
							
						
						</colorinfo>
						
						
						<labels>
							
							
							<label2>Rose</label2>
							
						
						</labels>
						
					
						<link>
							<linkclipref>clipitem-325</linkclipref>
							<mediatype>video</mediatype>
							<trackindex>1</trackindex>
							<clipindex>2</clipindex>
							<groupindex>1</groupindex>
						</link>
						<link>
							<linkclipref>clipitem-331</linkclipref>
							<mediatype>video</mediatype>
							<trackindex>2</trackindex>
							<clipindex>2</clipindex>
							<groupindex>1</groupindex>
						</link>
						<link>
							<linkclipref>clipitem-337</linkclipref>
							<mediatype>video</mediatype>
							<trackindex>3</trackindex>
							<clipindex>2</clipindex>
							<groupindex>1</groupindex>
						</link>
						<link>
							<linkclipref>clipitem-343</linkclipref>
							<mediatype>audio</mediatype>
							<trackindex>1</trackindex>
							<clipindex>2</clipindex>
							<groupindex>1</groupindex>
						</link>
						<link>
							<linkclipref>clipitem-349</linkclipref>
							<mediatype>audio</mediatype>
							<trackindex>2</trackindex>
							<clipindex>2</clipindex>
							<groupindex>1</groupindex>
						</link>
						<link>
							<linkclipref>clipitem-355</linkclipref>
							<mediatype>audio</mediatype>
							<trackindex>3</trackindex>
							<clipindex>2</clipindex>
							<groupindex>1</groupindex>
						</link>
						<link>
							<linkclipref>clipitem-361</linkclipref>
							<mediatype>audio</mediatype>
							<trackindex>4</trackindex>
							<clipindex>2</clipindex>
							<groupindex>1</groupindex>
						</link>
						<link>
							<linkclipref>clipitem-367</linkclipref>
							<mediatype>audio</mediatype>
							<trackindex>5</trackindex>
							<clipindex>2</clipindex>
							<groupindex>1</groupindex>
						</link>
						<link>
							<linkclipref>clipitem-373</linkclipref>
							<mediatype>audio</mediatype>
							<trackindex>6</trackindex>
							<clipindex>2</clipindex>
							<groupindex>1</groupindex>
						</link>
						<link>
							<linkclipref>clipitem-379</linkclipref>
							<mediatype>audio</mediatype>
							<trackindex>7</trackindex>
							<clipindex>2</clipindex>
							<groupindex>1</groupindex>
						</link>
						<link>
							<linkclipref>clipitem-385</linkclipref>
							<mediatype>audio</mediatype>
							<trackindex>8</trackindex>
							<clipindex>2</clipindex>
							<groupindex>1</groupindex>
						</link>
					</clipitem>
					<clipitem id="clipitem-332">
						
						
						<masterclipid>masterclip-25</masterclipid>
						
						
						<name>C4172.MP4</name>
						
						
						<enabled>TRUE</enabled>
						
						
						<duration>45552</duration>
						
						
						<rate>
							
							
							<timebase>24</timebase>
							
							
							<ntsc>TRUE</ntsc>
							
						
						</rate>
						
						
						<start>14457</start>
						
						
						<end>18809</end>
						
						
						<in>15870</in>
						
						
						<out>20222</out>
						
						
						<pproTicksIn>168136048080000</pproTicksIn>
						
						
						<pproTicksOut>214243677647999</pproTicksOut>
						
						
						<alphatype>none</alphatype>
						
						
						<pixelaspectratio>square</pixelaspectratio>
						
						
						<anamorphic>FALSE</anamorphic>
						
						
						<file id="file-25">
							</file>
						
							
						<marker>
							
								
							<comment/>
							
								
							<name/>
							
								
							<in>627</in>
							
								
							<out>-1</out>
							
							
						</marker>
						
						
						<logginginfo>
							
							
							<description/>
							
							
							<scene/>
							
							
							<shottake/>
							
							
							<lognote/>
							
							
							<good/>
							
							
							<originalvideofilename/>
							
							
							<originalaudiofilename/>
							
						
						</logginginfo>
						
						
						<colorinfo>
							
							
							<lut/>
							
							
							<lut1/>
							
							
							<asc_sop/>
							
							
							<asc_sat/>
							
							
							<lut2/>
							
						
						</colorinfo>
						
						
						<labels>
							
							
							<label2>Lavender</label2>
							
						
						</labels>
						
					
						<link>
							<linkclipref>clipitem-326</linkclipref>
							<mediatype>video</mediatype>
							<trackindex>1</trackindex>
							<clipindex>3</clipindex>
							<groupindex>1</groupindex>
						</link>
						<link>
							<linkclipref>clipitem-332</linkclipref>
							<mediatype>video</mediatype>
							<trackindex>2</trackindex>
							<clipindex>3</clipindex>
							<groupindex>1</groupindex>
						</link>
						<link>
							<linkclipref>clipitem-338</linkclipref>
							<mediatype>video</mediatype>
							<trackindex>3</trackindex>
							<clipindex>3</clipindex>
							<groupindex>1</groupindex>
						</link>
						<link>
							<linkclipref>clipitem-344</linkclipref>
							<mediatype>audio</mediatype>
							<trackindex>1</trackindex>
							<clipindex>3</clipindex>
							<groupindex>1</groupindex>
						</link>
						<link>
							<linkclipref>clipitem-350</linkclipref>
							<mediatype>audio</mediatype>
							<trackindex>2</trackindex>
							<clipindex>3</clipindex>
							<groupindex>1</groupindex>
						</link>
						<link>
							<linkclipref>clipitem-356</linkclipref>
							<mediatype>audio</mediatype>
							<trackindex>3</trackindex>
							<clipindex>3</clipindex>
							<groupindex>1</groupindex>
						</link>
						<link>
							<linkclipref>clipitem-362</linkclipref>
							<mediatype>audio</mediatype>
							<trackindex>4</trackindex>
							<clipindex>3</clipindex>
							<groupindex>1</groupindex>
						</link>
						<link>
							<linkclipref>clipitem-368</linkclipref>
							<mediatype>audio</mediatype>
							<trackindex>5</trackindex>
							<clipindex>3</clipindex>
							<groupindex>1</groupindex>
						</link>
						<link>
							<linkclipref>clipitem-374</linkclipref>
							<mediatype>audio</mediatype>
							<trackindex>6</trackindex>
							<clipindex>3</clipindex>
							<groupindex>1</groupindex>
						</link>
						<link>
							<linkclipref>clipitem-380</linkclipref>
							<mediatype>audio</mediatype>
							<trackindex>7</trackindex>
							<clipindex>3</clipindex>
							<groupindex>1</groupindex>
						</link>
						<link>
							<linkclipref>clipitem-386</linkclipref>
							<mediatype>audio</mediatype>
							<trackindex>8</trackindex>
							<clipindex>3</clipindex>
							<groupindex>1</groupindex>
						</link>
					</clipitem>
					<clipitem id="clipitem-333">
						
						
						<masterclipid>masterclip-25</masterclipid>
						
						
						<name>C4172.MP4</name>
						
						
						<enabled>TRUE</enabled>
						
						
						<duration>45552</duration>
						
						
						<rate>
							
							
							<timebase>24</timebase>
							
							
							<ntsc>TRUE</ntsc>
							
						
						</rate>
						
						
						<start>19171</start>
						
						
						<end>22347</end>
						
						
						<in>21385</in>
						
						
						<out>24561</out>
						
						
						<pproTicksIn>226565178839999</pproTicksIn>
						
						
						<pproTicksOut>260213577624000</pproTicksOut>
						
						
						<alphatype>none</alphatype>
						
						
						<pixelaspectratio>square</pixelaspectratio>
						
						
						<anamorphic>FALSE</anamorphic>
						
						
						<file id="file-25">
							</file>
						
							
						<marker>
							
								
							<comment/>
							
								
							<name/>
							
								
							<in>627</in>
							
								
							<out>-1</out>
							
							
						</marker>
						
						
						<logginginfo>
							
							
							<description/>
							
							
							<scene/>
							
							
							<shottake/>
							
							
							<lognote/>
							
							
							<good/>
							
							
							<originalvideofilename/>
							
							
							<originalaudiofilename/>
							
						
						</logginginfo>
						
						
						<colorinfo>
							
							
							<lut/>
							
							
							<lut1/>
							
							
							<asc_sop/>
							
							
							<asc_sat/>
							
							
							<lut2/>
							
						
						</colorinfo>
						
						
						<labels>
							
							
							<label2>Yellow</label2>
							
						
						</labels>
						
					
						<link>
							<linkclipref>clipitem-327</linkclipref>
							<mediatype>video</mediatype>
							<trackindex>1</trackindex>
							<clipindex>4</clipindex>
							<groupindex>1</groupindex>
						</link>
						<link>
							<linkclipref>clipitem-333</linkclipref>
							<mediatype>video</mediatype>
							<trackindex>2</trackindex>
							<clipindex>4</clipindex>
							<groupindex>1</groupindex>
						</link>
						<link>
							<linkclipref>clipitem-339</linkclipref>
							<mediatype>video</mediatype>
							<trackindex>3</trackindex>
							<clipindex>4</clipindex>
							<groupindex>1</groupindex>
						</link>
						<link>
							<linkclipref>clipitem-345</linkclipref>
							<mediatype>audio</mediatype>
							<trackindex>1</trackindex>
							<clipindex>4</clipindex>
							<groupindex>1</groupindex>
						</link>
						<link>
							<linkclipref>clipitem-351</linkclipref>
							<mediatype>audio</mediatype>
							<trackindex>2</trackindex>
							<clipindex>4</clipindex>
							<groupindex>1</groupindex>
						</link>
						<link>
							<linkclipref>clipitem-357</linkclipref>
							<mediatype>audio</mediatype>
							<trackindex>3</trackindex>
							<clipindex>4</clipindex>
							<groupindex>1</groupindex>
						</link>
						<link>
							<linkclipref>clipitem-363</linkclipref>
							<mediatype>audio</mediatype>
							<trackindex>4</trackindex>
							<clipindex>4</clipindex>
							<groupindex>1</groupindex>
						</link>
						<link>
							<linkclipref>clipitem-369</linkclipref>
							<mediatype>audio</mediatype>
							<trackindex>5</trackindex>
							<clipindex>4</clipindex>
							<groupindex>1</groupindex>
						</link>
						<link>
							<linkclipref>clipitem-375</linkclipref>
							<mediatype>audio</mediatype>
							<trackindex>6</trackindex>
							<clipindex>4</clipindex>
							<groupindex>1</groupindex>
						</link>
						<link>
							<linkclipref>clipitem-381</linkclipref>
							<mediatype>audio</mediatype>
							<trackindex>7</trackindex>
							<clipindex>4</clipindex>
							<groupindex>1</groupindex>
						</link>
						<link>
							<linkclipref>clipitem-387</linkclipref>
							<mediatype>audio</mediatype>
							<trackindex>8</trackindex>
							<clipindex>4</clipindex>
							<groupindex>1</groupindex>
						</link>
					</clipitem>
					<clipitem id="clipitem-334">
						
						
						<masterclipid>masterclip-25</masterclipid>
						
						
						<name>C4172.MP4</name>
						
						
						<enabled>TRUE</enabled>
						
						
						<duration>45552</duration>
						
						
						<rate>
							
							
							<timebase>24</timebase>
							
							
							<ntsc>TRUE</ntsc>
							
						
						</rate>
						
						
						<start>22709</start>
						
						
						<end>26830</end>
						
						
						<in>25608</in>
						
						
						<out>29729</out>
						
						
						<pproTicksIn>271306107072000</pproTicksIn>
						
						
						<pproTicksOut>314966387736000</pproTicksOut>
						
						
						<alphatype>none</alphatype>
						
						
						<pixelaspectratio>square</pixelaspectratio>
						
						
						<anamorphic>FALSE</anamorphic>
						
						
						<file id="file-25">
							</file>
						
							
						<marker>
							
								
							<comment/>
							
								
							<name/>
							
								
							<in>627</in>
							
								
							<out>-1</out>
							
							
						</marker>
						
						
						<logginginfo>
							
							
							<description/>
							
							
							<scene/>
							
							
							<shottake/>
							
							
							<lognote/>
							
							
							<good/>
							
							
							<originalvideofilename/>
							
							
							<originalaudiofilename/>
							
						
						</logginginfo>
						
						
						<colorinfo>
							
							
							<lut/>
							
							
							<lut1/>
							
							
							<asc_sop/>
							
							
							<asc_sat/>
							
							
							<lut2/>
							
						
						</colorinfo>
						
						
						<labels>
							
							
							<label2>Violet</label2>
							
						
						</labels>
						
					
						<link>
							<linkclipref>clipitem-328</linkclipref>
							<mediatype>video</mediatype>
							<trackindex>1</trackindex>
							<clipindex>5</clipindex>
							<groupindex>1</groupindex>
						</link>
						<link>
							<linkclipref>clipitem-334</linkclipref>
							<mediatype>video</mediatype>
							<trackindex>2</trackindex>
							<clipindex>5</clipindex>
							<groupindex>1</groupindex>
						</link>
						<link>
							<linkclipref>clipitem-340</linkclipref>
							<mediatype>video</mediatype>
							<trackindex>3</trackindex>
							<clipindex>5</clipindex>
							<groupindex>1</groupindex>
						</link>
						<link>
							<linkclipref>clipitem-346</linkclipref>
							<mediatype>audio</mediatype>
							<trackindex>1</trackindex>
							<clipindex>5</clipindex>
							<groupindex>1</groupindex>
						</link>
						<link>
							<linkclipref>clipitem-352</linkclipref>
							<mediatype>audio</mediatype>
							<trackindex>2</trackindex>
							<clipindex>5</clipindex>
							<groupindex>1</groupindex>
						</link>
						<link>
							<linkclipref>clipitem-358</linkclipref>
							<mediatype>audio</mediatype>
							<trackindex>3</trackindex>
							<clipindex>5</clipindex>
							<groupindex>1</groupindex>
						</link>
						<link>
							<linkclipref>clipitem-364</linkclipref>
							<mediatype>audio</mediatype>
							<trackindex>4</trackindex>
							<clipindex>5</clipindex>
							<groupindex>1</groupindex>
						</link>
						<link>
							<linkclipref>clipitem-370</linkclipref>
							<mediatype>audio</mediatype>
							<trackindex>5</trackindex>
							<clipindex>5</clipindex>
							<groupindex>1</groupindex>
						</link>
						<link>
							<linkclipref>clipitem-376</linkclipref>
							<mediatype>audio</mediatype>
							<trackindex>6</trackindex>
							<clipindex>5</clipindex>
							<groupindex>1</groupindex>
						</link>
						<link>
							<linkclipref>clipitem-382</linkclipref>
							<mediatype>audio</mediatype>
							<trackindex>7</trackindex>
							<clipindex>5</clipindex>
							<groupindex>1</groupindex>
						</link>
						<link>
							<linkclipref>clipitem-388</linkclipref>
							<mediatype>audio</mediatype>
							<trackindex>8</trackindex>
							<clipindex>5</clipindex>
							<groupindex>1</groupindex>
						</link>
					</clipitem>
					<clipitem id="clipitem-335">
						
						
						<masterclipid>masterclip-25</masterclipid>
						
						
						<name>C4172.MP4</name>
						
						
						<enabled>TRUE</enabled>
						
						
						<duration>45552</duration>
						
						
						<rate>
							
							
							<timebase>24</timebase>
							
							
							<ntsc>TRUE</ntsc>
							
						
						</rate>
						
						
						<start>27192</start>
						
						
						<end>41336</end>
						
						
						<in>30770</in>
						
						
						<out>44914</out>
						
						
						<pproTicksIn>325995349679999</pproTicksIn>
						
						
						<pproTicksOut>475845145775999</pproTicksOut>
						
						
						<alphatype>none</alphatype>
						
						
						<pixelaspectratio>square</pixelaspectratio>
						
						
						<anamorphic>FALSE</anamorphic>
						
						
						<file id="file-25">
							</file>
						
							
						<marker>
							
								
							<comment/>
							
								
							<name/>
							
								
							<in>627</in>
							
								
							<out>-1</out>
							
							
						</marker>
						
						
						<logginginfo>
							
							
							<description/>
							
							
							<scene/>
							
							
							<shottake/>
							
							
							<lognote/>
							
							
							<good/>
							
							
							<originalvideofilename/>
							
							
							<originalaudiofilename/>
							
						
						</logginginfo>
						
						
						<colorinfo>
							
							
							<lut/>
							
							
							<lut1/>
							
							
							<asc_sop/>
							
							
							<asc_sat/>
							
							
							<lut2/>
							
						
						</colorinfo>
						
						
						<labels>
							
							
							<label2>Yellow</label2>
							
						
						</labels>
						
					
						<link>
							<linkclipref>clipitem-329</linkclipref>
							<mediatype>video</mediatype>
							<trackindex>1</trackindex>
							<clipindex>6</clipindex>
							<groupindex>1</groupindex>
						</link>
						<link>
							<linkclipref>clipitem-335</linkclipref>
							<mediatype>video</mediatype>
							<trackindex>2</trackindex>
							<clipindex>6</clipindex>
							<groupindex>1</groupindex>
						</link>
						<link>
							<linkclipref>clipitem-341</linkclipref>
							<mediatype>video</mediatype>
							<trackindex>3</trackindex>
							<clipindex>6</clipindex>
							<groupindex>1</groupindex>
						</link>
						<link>
							<linkclipref>clipitem-347</linkclipref>
							<mediatype>audio</mediatype>
							<trackindex>1</trackindex>
							<clipindex>6</clipindex>
							<groupindex>1</groupindex>
						</link>
						<link>
							<linkclipref>clipitem-353</linkclipref>
							<mediatype>audio</mediatype>
							<trackindex>2</trackindex>
							<clipindex>6</clipindex>
							<groupindex>1</groupindex>
						</link>
						<link>
							<linkclipref>clipitem-359</linkclipref>
							<mediatype>audio</mediatype>
							<trackindex>3</trackindex>
							<clipindex>6</clipindex>
							<groupindex>1</groupindex>
						</link>
						<link>
							<linkclipref>clipitem-365</linkclipref>
							<mediatype>audio</mediatype>
							<trackindex>4</trackindex>
							<clipindex>6</clipindex>
							<groupindex>1</groupindex>
						</link>
						<link>
							<linkclipref>clipitem-371</linkclipref>
							<mediatype>audio</mediatype>
							<trackindex>5</trackindex>
							<clipindex>6</clipindex>
							<groupindex>1</groupindex>
						</link>
						<link>
							<linkclipref>clipitem-377</linkclipref>
							<mediatype>audio</mediatype>
							<trackindex>6</trackindex>
							<clipindex>6</clipindex>
							<groupindex>1</groupindex>
						</link>
						<link>
							<linkclipref>clipitem-383</linkclipref>
							<mediatype>audio</mediatype>
							<trackindex>7</trackindex>
							<clipindex>6</clipindex>
							<groupindex>1</groupindex>
						</link>
						<link>
							<linkclipref>clipitem-389</linkclipref>
							<mediatype>audio</mediatype>
							<trackindex>8</trackindex>
							<clipindex>6</clipindex>
							<groupindex>1</groupindex>
						</link>
					</clipitem>
					<enabled>TRUE</enabled>
					<locked>FALSE</locked>
				</track>
				<track TL.SQTrackShy="0" TL.SQTrackExpandedHeight="41" TL.SQTrackExpanded="0" MZ.TrackTargeted="1">
					<clipitem id="clipitem-336">
						
						
						<masterclipid>masterclip-26</masterclipid>
						
						
						<name>C6197.MP4</name>
						
						
						<enabled>TRUE</enabled>
						
						
						<duration>45540</duration>
						
						
						<rate>
							
							
							<timebase>24</timebase>
							
							
							<ntsc>TRUE</ntsc>
							
						
						</rate>
						
						
						<start>120</start>
						
						
						<end>4399</end>
						
						
						<in>603</in>
						
						
						<out>4882</out>
						
						
						<pproTicksIn>6388534152000</pproTicksIn>
						
						
						<pproTicksOut>51722759088000</pproTicksOut>
						
						
						<alphatype>none</alphatype>
						
						
						<pixelaspectratio>square</pixelaspectratio>
						
						
						<anamorphic>FALSE</anamorphic>
						
						
						<file id="file-26">
							<name>C6197.MP4</name>
							<pathurl>file://localhost/Volumes/P-40/liberary2025/0929_2/Ccam/PRIVATE/M4ROOT/CLIP/C6197.MP4</pathurl>
							<rate>
								
								
								<timebase>24</timebase>
								
								
								<ntsc>TRUE</ntsc>
								
							
							</rate>
							<duration>45540</duration>
							<timecode>
								
								
								<rate>
									
									
									<timebase>24</timebase>
									
									
									<ntsc>TRUE</ntsc>
									
								
								</rate>
								
								
								<string>15:20:18:23</string>
								
								
								<frame>1325255</frame>
								
								
								<displayformat>NDF</displayformat>
								
							
							</timecode>
							<media>
								
								
								<video>
									
									
									<samplecharacteristics>
										
										
										<rate>
											
											
											<timebase>24</timebase>
											
											
											<ntsc>TRUE</ntsc>
											
										
										</rate>
										
										
										<width>3840</width>
										
										
										<height>2160</height>
										
										
										<anamorphic>FALSE</anamorphic>
										
										
										<pixelaspectratio>square</pixelaspectratio>
										
										
										<fielddominance>none</fielddominance>
										
									
									</samplecharacteristics>
									
								
								</video>
								
								
								<audio>
									
									
									<samplecharacteristics>
										
										
										<depth>16</depth>
										
										
										<samplerate>48000</samplerate>
										
									
									</samplecharacteristics>
									
									
									<channelcount>2</channelcount>
									
								
								</audio>
								
							
							</media>
						</file>
						<marker>
							
								
							<comment/>
							
								
							<name/>
							
								
							<in>599</in>
							
								
							<out>-1</out>
							
							
						</marker>
						
						
						<logginginfo>
							
							
							<description/>
							
							
							<scene/>
							
							
							<shottake/>
							
							
							<lognote/>
							
							
							<good/>
							
							
							<originalvideofilename/>
							
							
							<originalaudiofilename/>
							
						
						</logginginfo>
						
						
						<colorinfo>
							
							
							<lut/>
							
							
							<lut1/>
							
							
							<asc_sop/>
							
							
							<asc_sat/>
							
							
							<lut2/>
							
						
						</colorinfo>
						
						
						<labels>
							
							
							<label2>Caribbean</label2>
							
						
						</labels>
						
					
						<link>
							<linkclipref>clipitem-324</linkclipref>
							<mediatype>video</mediatype>
							<trackindex>1</trackindex>
							<clipindex>1</clipindex>
							<groupindex>1</groupindex>
						</link>
						<link>
							<linkclipref>clipitem-330</linkclipref>
							<mediatype>video</mediatype>
							<trackindex>2</trackindex>
							<clipindex>1</clipindex>
							<groupindex>1</groupindex>
						</link>
						<link>
							<linkclipref>clipitem-336</linkclipref>
							<mediatype>video</mediatype>
							<trackindex>3</trackindex>
							<clipindex>1</clipindex>
							<groupindex>1</groupindex>
						</link>
						<link>
							<linkclipref>clipitem-342</linkclipref>
							<mediatype>audio</mediatype>
							<trackindex>1</trackindex>
							<clipindex>1</clipindex>
							<groupindex>1</groupindex>
						</link>
						<link>
							<linkclipref>clipitem-348</linkclipref>
							<mediatype>audio</mediatype>
							<trackindex>2</trackindex>
							<clipindex>1</clipindex>
							<groupindex>1</groupindex>
						</link>
						<link>
							<linkclipref>clipitem-354</linkclipref>
							<mediatype>audio</mediatype>
							<trackindex>3</trackindex>
							<clipindex>1</clipindex>
							<groupindex>1</groupindex>
						</link>
						<link>
							<linkclipref>clipitem-360</linkclipref>
							<mediatype>audio</mediatype>
							<trackindex>4</trackindex>
							<clipindex>1</clipindex>
							<groupindex>1</groupindex>
						</link>
						<link>
							<linkclipref>clipitem-366</linkclipref>
							<mediatype>audio</mediatype>
							<trackindex>5</trackindex>
							<clipindex>1</clipindex>
							<groupindex>1</groupindex>
						</link>
						<link>
							<linkclipref>clipitem-372</linkclipref>
							<mediatype>audio</mediatype>
							<trackindex>6</trackindex>
							<clipindex>1</clipindex>
							<groupindex>1</groupindex>
						</link>
						<link>
							<linkclipref>clipitem-378</linkclipref>
							<mediatype>audio</mediatype>
							<trackindex>7</trackindex>
							<clipindex>1</clipindex>
							<groupindex>1</groupindex>
						</link>
						<link>
							<linkclipref>clipitem-384</linkclipref>
							<mediatype>audio</mediatype>
							<trackindex>8</trackindex>
							<clipindex>1</clipindex>
							<groupindex>1</groupindex>
						</link>
					</clipitem>
					<clipitem id="clipitem-337">
						
						
						<masterclipid>masterclip-26</masterclipid>
						
						
						<name>C6197.MP4</name>
						
						
						<enabled>TRUE</enabled>
						
						
						<duration>45540</duration>
						
						
						<rate>
							
							
							<timebase>24</timebase>
							
							
							<ntsc>TRUE</ntsc>
							
						
						</rate>
						
						
						<start>4761</start>
						
						
						<end>14095</end>
						
						
						<in>5147</in>
						
						
						<out>14481</out>
						
						
						<pproTicksIn>54530323848000</pproTicksIn>
						
						
						<pproTicksOut>153420170903999</pproTicksOut>
						
						
						<alphatype>none</alphatype>
						
						
						<pixelaspectratio>square</pixelaspectratio>
						
						
						<anamorphic>FALSE</anamorphic>
						
						
						<file id="file-26">
							</file>
						
							
						<marker>
							
								
							<comment/>
							
								
							<name/>
							
								
							<in>599</in>
							
								
							<out>-1</out>
							
							
						</marker>
						
						
						<logginginfo>
							
							
							<description/>
							
							
							<scene/>
							
							
							<shottake/>
							
							
							<lognote/>
							
							
							<good/>
							
							
							<originalvideofilename/>
							
							
							<originalaudiofilename/>
							
						
						</logginginfo>
						
						
						<colorinfo>
							
							
							<lut/>
							
							
							<lut1/>
							
							
							<asc_sop/>
							
							
							<asc_sat/>
							
							
							<lut2/>
							
						
						</colorinfo>
						
						
						<labels>
							
							
							<label2>Rose</label2>
							
						
						</labels>
						
					
						<link>
							<linkclipref>clipitem-325</linkclipref>
							<mediatype>video</mediatype>
							<trackindex>1</trackindex>
							<clipindex>2</clipindex>
							<groupindex>1</groupindex>
						</link>
						<link>
							<linkclipref>clipitem-331</linkclipref>
							<mediatype>video</mediatype>
							<trackindex>2</trackindex>
							<clipindex>2</clipindex>
							<groupindex>1</groupindex>
						</link>
						<link>
							<linkclipref>clipitem-337</linkclipref>
							<mediatype>video</mediatype>
							<trackindex>3</trackindex>
							<clipindex>2</clipindex>
							<groupindex>1</groupindex>
						</link>
						<link>
							<linkclipref>clipitem-343</linkclipref>
							<mediatype>audio</mediatype>
							<trackindex>1</trackindex>
							<clipindex>2</clipindex>
							<groupindex>1</groupindex>
						</link>
						<link>
							<linkclipref>clipitem-349</linkclipref>
							<mediatype>audio</mediatype>
							<trackindex>2</trackindex>
							<clipindex>2</clipindex>
							<groupindex>1</groupindex>
						</link>
						<link>
							<linkclipref>clipitem-355</linkclipref>
							<mediatype>audio</mediatype>
							<trackindex>3</trackindex>
							<clipindex>2</clipindex>
							<groupindex>1</groupindex>
						</link>
						<link>
							<linkclipref>clipitem-361</linkclipref>
							<mediatype>audio</mediatype>
							<trackindex>4</trackindex>
							<clipindex>2</clipindex>
							<groupindex>1</groupindex>
						</link>
						<link>
							<linkclipref>clipitem-367</linkclipref>
							<mediatype>audio</mediatype>
							<trackindex>5</trackindex>
							<clipindex>2</clipindex>
							<groupindex>1</groupindex>
						</link>
						<link>
							<linkclipref>clipitem-373</linkclipref>
							<mediatype>audio</mediatype>
							<trackindex>6</trackindex>
							<clipindex>2</clipindex>
							<groupindex>1</groupindex>
						</link>
						<link>
							<linkclipref>clipitem-379</linkclipref>
							<mediatype>audio</mediatype>
							<trackindex>7</trackindex>
							<clipindex>2</clipindex>
							<groupindex>1</groupindex>
						</link>
						<link>
							<linkclipref>clipitem-385</linkclipref>
							<mediatype>audio</mediatype>
							<trackindex>8</trackindex>
							<clipindex>2</clipindex>
							<groupindex>1</groupindex>
						</link>
					</clipitem>
					<clipitem id="clipitem-338">
						
						
						<masterclipid>masterclip-26</masterclipid>
						
						
						<name>C6197.MP4</name>
						
						
						<enabled>TRUE</enabled>
						
						
						<duration>45540</duration>
						
						
						<rate>
							
							
							<timebase>24</timebase>
							
							
							<ntsc>TRUE</ntsc>
							
						
						</rate>
						
						
						<start>14457</start>
						
						
						<end>18809</end>
						
						
						<in>15842</in>
						
						
						<out>20194</out>
						
						
						<pproTicksIn>167839399727999</pproTicksIn>
						
						
						<pproTicksOut>213947029296000</pproTicksOut>
						
						
						<alphatype>none</alphatype>
						
						
						<pixelaspectratio>square</pixelaspectratio>
						
						
						<anamorphic>FALSE</anamorphic>
						
						
						<file id="file-26">
							</file>
						
							
						<marker>
							
								
							<comment/>
							
								
							<name/>
							
								
							<in>599</in>
							
								
							<out>-1</out>
							
							
						</marker>
						
						
						<logginginfo>
							
							
							<description/>
							
							
							<scene/>
							
							
							<shottake/>
							
							
							<lognote/>
							
							
							<good/>
							
							
							<originalvideofilename/>
							
							
							<originalaudiofilename/>
							
						
						</logginginfo>
						
						
						<colorinfo>
							
							
							<lut/>
							
							
							<lut1/>
							
							
							<asc_sop/>
							
							
							<asc_sat/>
							
							
							<lut2/>
							
						
						</colorinfo>
						
						
						<labels>
							
							
							<label2>Lavender</label2>
							
						
						</labels>
						
					
						<link>
							<linkclipref>clipitem-326</linkclipref>
							<mediatype>video</mediatype>
							<trackindex>1</trackindex>
							<clipindex>3</clipindex>
							<groupindex>1</groupindex>
						</link>
						<link>
							<linkclipref>clipitem-332</linkclipref>
							<mediatype>video</mediatype>
							<trackindex>2</trackindex>
							<clipindex>3</clipindex>
							<groupindex>1</groupindex>
						</link>
						<link>
							<linkclipref>clipitem-338</linkclipref>
							<mediatype>video</mediatype>
							<trackindex>3</trackindex>
							<clipindex>3</clipindex>
							<groupindex>1</groupindex>
						</link>
						<link>
							<linkclipref>clipitem-344</linkclipref>
							<mediatype>audio</mediatype>
							<trackindex>1</trackindex>
							<clipindex>3</clipindex>
							<groupindex>1</groupindex>
						</link>
						<link>
							<linkclipref>clipitem-350</linkclipref>
							<mediatype>audio</mediatype>
							<trackindex>2</trackindex>
							<clipindex>3</clipindex>
							<groupindex>1</groupindex>
						</link>
						<link>
							<linkclipref>clipitem-356</linkclipref>
							<mediatype>audio</mediatype>
							<trackindex>3</trackindex>
							<clipindex>3</clipindex>
							<groupindex>1</groupindex>
						</link>
						<link>
							<linkclipref>clipitem-362</linkclipref>
							<mediatype>audio</mediatype>
							<trackindex>4</trackindex>
							<clipindex>3</clipindex>
							<groupindex>1</groupindex>
						</link>
						<link>
							<linkclipref>clipitem-368</linkclipref>
							<mediatype>audio</mediatype>
							<trackindex>5</trackindex>
							<clipindex>3</clipindex>
							<groupindex>1</groupindex>
						</link>
						<link>
							<linkclipref>clipitem-374</linkclipref>
							<mediatype>audio</mediatype>
							<trackindex>6</trackindex>
							<clipindex>3</clipindex>
							<groupindex>1</groupindex>
						</link>
						<link>
							<linkclipref>clipitem-380</linkclipref>
							<mediatype>audio</mediatype>
							<trackindex>7</trackindex>
							<clipindex>3</clipindex>
							<groupindex>1</groupindex>
						</link>
						<link>
							<linkclipref>clipitem-386</linkclipref>
							<mediatype>audio</mediatype>
							<trackindex>8</trackindex>
							<clipindex>3</clipindex>
							<groupindex>1</groupindex>
						</link>
					</clipitem>
					<clipitem id="clipitem-339">
						
						
						<masterclipid>masterclip-26</masterclipid>
						
						
						<name>C6197.MP4</name>
						
						
						<enabled>TRUE</enabled>
						
						
						<duration>45540</duration>
						
						
						<rate>
							
							
							<timebase>24</timebase>
							
							
							<ntsc>TRUE</ntsc>
							
						
						</rate>
						
						
						<start>19171</start>
						
						
						<end>22347</end>
						
						
						<in>21357</in>
						
						
						<out>24533</out>
						
						
						<pproTicksIn>226268530488000</pproTicksIn>
						
						
						<pproTicksOut>259916929271999</pproTicksOut>
						
						
						<alphatype>none</alphatype>
						
						
						<pixelaspectratio>square</pixelaspectratio>
						
						
						<anamorphic>FALSE</anamorphic>
						
						
						<file id="file-26">
							</file>
						
							
						<marker>
							
								
							<comment/>
							
								
							<name/>
							
								
							<in>599</in>
							
								
							<out>-1</out>
							
							
						</marker>
						
						
						<logginginfo>
							
							
							<description/>
							
							
							<scene/>
							
							
							<shottake/>
							
							
							<lognote/>
							
							
							<good/>
							
							
							<originalvideofilename/>
							
							
							<originalaudiofilename/>
							
						
						</logginginfo>
						
						
						<colorinfo>
							
							
							<lut/>
							
							
							<lut1/>
							
							
							<asc_sop/>
							
							
							<asc_sat/>
							
							
							<lut2/>
							
						
						</colorinfo>
						
						
						<labels>
							
							
							<label2>Yellow</label2>
							
						
						</labels>
						
					
						<link>
							<linkclipref>clipitem-327</linkclipref>
							<mediatype>video</mediatype>
							<trackindex>1</trackindex>
							<clipindex>4</clipindex>
							<groupindex>1</groupindex>
						</link>
						<link>
							<linkclipref>clipitem-333</linkclipref>
							<mediatype>video</mediatype>
							<trackindex>2</trackindex>
							<clipindex>4</clipindex>
							<groupindex>1</groupindex>
						</link>
						<link>
							<linkclipref>clipitem-339</linkclipref>
							<mediatype>video</mediatype>
							<trackindex>3</trackindex>
							<clipindex>4</clipindex>
							<groupindex>1</groupindex>
						</link>
						<link>
							<linkclipref>clipitem-345</linkclipref>
							<mediatype>audio</mediatype>
							<trackindex>1</trackindex>
							<clipindex>4</clipindex>
							<groupindex>1</groupindex>
						</link>
						<link>
							<linkclipref>clipitem-351</linkclipref>
							<mediatype>audio</mediatype>
							<trackindex>2</trackindex>
							<clipindex>4</clipindex>
							<groupindex>1</groupindex>
						</link>
						<link>
							<linkclipref>clipitem-357</linkclipref>
							<mediatype>audio</mediatype>
							<trackindex>3</trackindex>
							<clipindex>4</clipindex>
							<groupindex>1</groupindex>
						</link>
						<link>
							<linkclipref>clipitem-363</linkclipref>
							<mediatype>audio</mediatype>
							<trackindex>4</trackindex>
							<clipindex>4</clipindex>
							<groupindex>1</groupindex>
						</link>
						<link>
							<linkclipref>clipitem-369</linkclipref>
							<mediatype>audio</mediatype>
							<trackindex>5</trackindex>
							<clipindex>4</clipindex>
							<groupindex>1</groupindex>
						</link>
						<link>
							<linkclipref>clipitem-375</linkclipref>
							<mediatype>audio</mediatype>
							<trackindex>6</trackindex>
							<clipindex>4</clipindex>
							<groupindex>1</groupindex>
						</link>
						<link>
							<linkclipref>clipitem-381</linkclipref>
							<mediatype>audio</mediatype>
							<trackindex>7</trackindex>
							<clipindex>4</clipindex>
							<groupindex>1</groupindex>
						</link>
						<link>
							<linkclipref>clipitem-387</linkclipref>
							<mediatype>audio</mediatype>
							<trackindex>8</trackindex>
							<clipindex>4</clipindex>
							<groupindex>1</groupindex>
						</link>
					</clipitem>
					<clipitem id="clipitem-340">
						
						
						<masterclipid>masterclip-26</masterclipid>
						
						
						<name>C6197.MP4</name>
						
						
						<enabled>TRUE</enabled>
						
						
						<duration>45540</duration>
						
						
						<rate>
							
							
							<timebase>24</timebase>
							
							
							<ntsc>TRUE</ntsc>
							
						
						</rate>
						
						
						<start>22709</start>
						
						
						<end>26830</end>
						
						
						<in>25580</in>
						
						
						<out>29701</out>
						
						
						<pproTicksIn>271009458719999</pproTicksIn>
						
						
						<pproTicksOut>314669739383999</pproTicksOut>
						
						
						<alphatype>none</alphatype>
						
						
						<pixelaspectratio>square</pixelaspectratio>
						
						
						<anamorphic>FALSE</anamorphic>
						
						
						<file id="file-26">
							</file>
						
							
						<marker>
							
								
							<comment/>
							
								
							<name/>
							
								
							<in>599</in>
							
								
							<out>-1</out>
							
							
						</marker>
						
						
						<logginginfo>
							
							
							<description/>
							
							
							<scene/>
							
							
							<shottake/>
							
							
							<lognote/>
							
							
							<good/>
							
							
							<originalvideofilename/>
							
							
							<originalaudiofilename/>
							
						
						</logginginfo>
						
						
						<colorinfo>
							
							
							<lut/>
							
							
							<lut1/>
							
							
							<asc_sop/>
							
							
							<asc_sat/>
							
							
							<lut2/>
							
						
						</colorinfo>
						
						
						<labels>
							
							
							<label2>Violet</label2>
							
						
						</labels>
						
					
						<link>
							<linkclipref>clipitem-328</linkclipref>
							<mediatype>video</mediatype>
							<trackindex>1</trackindex>
							<clipindex>5</clipindex>
							<groupindex>1</groupindex>
						</link>
						<link>
							<linkclipref>clipitem-334</linkclipref>
							<mediatype>video</mediatype>
							<trackindex>2</trackindex>
							<clipindex>5</clipindex>
							<groupindex>1</groupindex>
						</link>
						<link>
							<linkclipref>clipitem-340</linkclipref>
							<mediatype>video</mediatype>
							<trackindex>3</trackindex>
							<clipindex>5</clipindex>
							<groupindex>1</groupindex>
						</link>
						<link>
							<linkclipref>clipitem-346</linkclipref>
							<mediatype>audio</mediatype>
							<trackindex>1</trackindex>
							<clipindex>5</clipindex>
							<groupindex>1</groupindex>
						</link>
						<link>
							<linkclipref>clipitem-352</linkclipref>
							<mediatype>audio</mediatype>
							<trackindex>2</trackindex>
							<clipindex>5</clipindex>
							<groupindex>1</groupindex>
						</link>
						<link>
							<linkclipref>clipitem-358</linkclipref>
							<mediatype>audio</mediatype>
							<trackindex>3</trackindex>
							<clipindex>5</clipindex>
							<groupindex>1</groupindex>
						</link>
						<link>
							<linkclipref>clipitem-364</linkclipref>
							<mediatype>audio</mediatype>
							<trackindex>4</trackindex>
							<clipindex>5</clipindex>
							<groupindex>1</groupindex>
						</link>
						<link>
							<linkclipref>clipitem-370</linkclipref>
							<mediatype>audio</mediatype>
							<trackindex>5</trackindex>
							<clipindex>5</clipindex>
							<groupindex>1</groupindex>
						</link>
						<link>
							<linkclipref>clipitem-376</linkclipref>
							<mediatype>audio</mediatype>
							<trackindex>6</trackindex>
							<clipindex>5</clipindex>
							<groupindex>1</groupindex>
						</link>
						<link>
							<linkclipref>clipitem-382</linkclipref>
							<mediatype>audio</mediatype>
							<trackindex>7</trackindex>
							<clipindex>5</clipindex>
							<groupindex>1</groupindex>
						</link>
						<link>
							<linkclipref>clipitem-388</linkclipref>
							<mediatype>audio</mediatype>
							<trackindex>8</trackindex>
							<clipindex>5</clipindex>
							<groupindex>1</groupindex>
						</link>
					</clipitem>
					<clipitem id="clipitem-341">
						
						
						<masterclipid>masterclip-26</masterclipid>
						
						
						<name>C6197.MP4</name>
						
						
						<enabled>TRUE</enabled>
						
						
						<duration>45540</duration>
						
						
						<rate>
							
							
							<timebase>24</timebase>
							
							
							<ntsc>TRUE</ntsc>
							
						
						</rate>
						
						
						<start>27192</start>
						
						
						<end>41336</end>
						
						
						<in>30742</in>
						
						
						<out>44886</out>
						
						
						<pproTicksIn>325698701328000</pproTicksIn>
						
						
						<pproTicksOut>475548497424000</pproTicksOut>
						
						
						<alphatype>none</alphatype>
						
						
						<pixelaspectratio>square</pixelaspectratio>
						
						
						<anamorphic>FALSE</anamorphic>
						
						
						<file id="file-26">
							</file>
						
							
						<marker>
							
								
							<comment/>
							
								
							<name/>
							
								
							<in>599</in>
							
								
							<out>-1</out>
							
							
						</marker>
						
						
						<logginginfo>
							
							
							<description/>
							
							
							<scene/>
							
							
							<shottake/>
							
							
							<lognote/>
							
							
							<good/>
							
							
							<originalvideofilename/>
							
							
							<originalaudiofilename/>
							
						
						</logginginfo>
						
						
						<colorinfo>
							
							
							<lut/>
							
							
							<lut1/>
							
							
							<asc_sop/>
							
							
							<asc_sat/>
							
							
							<lut2/>
							
						
						</colorinfo>
						
						
						<labels>
							
							
							<label2>Yellow</label2>
							
						
						</labels>
						
					
						<link>
							<linkclipref>clipitem-329</linkclipref>
							<mediatype>video</mediatype>
							<trackindex>1</trackindex>
							<clipindex>6</clipindex>
							<groupindex>1</groupindex>
						</link>
						<link>
							<linkclipref>clipitem-335</linkclipref>
							<mediatype>video</mediatype>
							<trackindex>2</trackindex>
							<clipindex>6</clipindex>
							<groupindex>1</groupindex>
						</link>
						<link>
							<linkclipref>clipitem-341</linkclipref>
							<mediatype>video</mediatype>
							<trackindex>3</trackindex>
							<clipindex>6</clipindex>
							<groupindex>1</groupindex>
						</link>
						<link>
							<linkclipref>clipitem-347</linkclipref>
							<mediatype>audio</mediatype>
							<trackindex>1</trackindex>
							<clipindex>6</clipindex>
							<groupindex>1</groupindex>
						</link>
						<link>
							<linkclipref>clipitem-353</linkclipref>
							<mediatype>audio</mediatype>
							<trackindex>2</trackindex>
							<clipindex>6</clipindex>
							<groupindex>1</groupindex>
						</link>
						<link>
							<linkclipref>clipitem-359</linkclipref>
							<mediatype>audio</mediatype>
							<trackindex>3</trackindex>
							<clipindex>6</clipindex>
							<groupindex>1</groupindex>
						</link>
						<link>
							<linkclipref>clipitem-365</linkclipref>
							<mediatype>audio</mediatype>
							<trackindex>4</trackindex>
							<clipindex>6</clipindex>
							<groupindex>1</groupindex>
						</link>
						<link>
							<linkclipref>clipitem-371</linkclipref>
							<mediatype>audio</mediatype>
							<trackindex>5</trackindex>
							<clipindex>6</clipindex>
							<groupindex>1</groupindex>
						</link>
						<link>
							<linkclipref>clipitem-377</linkclipref>
							<mediatype>audio</mediatype>
							<trackindex>6</trackindex>
							<clipindex>6</clipindex>
							<groupindex>1</groupindex>
						</link>
						<link>
							<linkclipref>clipitem-383</linkclipref>
							<mediatype>audio</mediatype>
							<trackindex>7</trackindex>
							<clipindex>6</clipindex>
							<groupindex>1</groupindex>
						</link>
						<link>
							<linkclipref>clipitem-389</linkclipref>
							<mediatype>audio</mediatype>
							<trackindex>8</trackindex>
							<clipindex>6</clipindex>
							<groupindex>1</groupindex>
						</link>
					</clipitem>
					<enabled>TRUE</enabled>
					<locked>FALSE</locked>
				</track>
			</video>
			<audio>
				<numOutputChannels>2</numOutputChannels>
				<format>
					
					
					<samplecharacteristics>
						
						
						<depth>16</depth>
						
						
						<samplerate>48000</samplerate>
						
					
					</samplecharacteristics>
					
				
				</format>
				<outputs>
					
					
					<group>
						
						
						<index>1</index>
						
						
						<numchannels>1</numchannels>
						
						
						<downmix>0</downmix>
						
						
						<channel>
							
							
							<index>1</index>
							
						
						</channel>
						
					
					</group>
					
					
					<group>
						
						
						<index>2</index>
						
						
						<numchannels>1</numchannels>
						
						
						<downmix>0</downmix>
						
						
						<channel>
							
							
							<index>2</index>
							
						
						</channel>
						
					
					</group>
					
				
				</outputs>
				<track TL.SQTrackAudioKeyframeStyle="0" TL.SQTrackShy="0" TL.SQTrackExpandedHeight="41" TL.SQTrackExpanded="0" MZ.TrackTargeted="1" PannerCurrentValue="0.5" PannerIsInverted="true" PannerStartKeyframe="-91445760000000000,0.5,0,0,0,0,0,0" PannerName="Balance" currentExplodedTrackIndex="0" totalExplodedTrackCount="1" premiereTrackType="Stereo">
					<clipitem id="clipitem-342" premiereChannelType="mono">
						
						
						<masterclipid>masterclip-24</masterclipid>
						
						
						<name>0619_0729.MXF</name>
						
						
						<enabled>TRUE</enabled>
						
						
						<duration>45520</duration>
						
						
						<rate>
							
							
							<timebase>24</timebase>
							
							
							<ntsc>TRUE</ntsc>
							
						
						</rate>
						
						
						<start>120</start>
						
						
						<end>4399</end>
						
						
						<in>530</in>
						
						
						<out>4809</out>
						
						
						<pproTicksIn>5615129520000</pproTicksIn>
						
						
						<pproTicksOut>50949354455999</pproTicksOut>
						
						
						<file id="file-24"/>
						
						
						<sourcetrack>
							
							
							<mediatype>audio</mediatype>
							
							
							<trackindex>1</trackindex>
							
						
						</sourcetrack>
						
							
						<marker>
							
								
							<comment/>
							
								
							<name/>
							
								
							<in>526</in>
							
								
							<out>-1</out>
							
							
						</marker>
						
						
						<logginginfo>
							
							
							<description/>
							
							
							<scene/>
							
							
							<shottake/>
							
							
							<lognote/>
							
							
							<good/>
							
							
							<originalvideofilename/>
							
							
							<originalaudiofilename/>
							
						
						</logginginfo>
						
						
						<colorinfo>
							
							
							<lut/>
							
							
							<lut1/>
							
							
							<asc_sop/>
							
							
							<asc_sat/>
							
							
							<lut2/>
							
						
						</colorinfo>
						
						
						<labels>
							
							
							<label2>Caribbean</label2>
							
						
						</labels>
						
					
						<link>
							<linkclipref>clipitem-324</linkclipref>
							<mediatype>video</mediatype>
							<trackindex>1</trackindex>
							<clipindex>1</clipindex>
							<groupindex>1</groupindex>
						</link>
						<link>
							<linkclipref>clipitem-330</linkclipref>
							<mediatype>video</mediatype>
							<trackindex>2</trackindex>
							<clipindex>1</clipindex>
							<groupindex>1</groupindex>
						</link>
						<link>
							<linkclipref>clipitem-336</linkclipref>
							<mediatype>video</mediatype>
							<trackindex>3</trackindex>
							<clipindex>1</clipindex>
							<groupindex>1</groupindex>
						</link>
						<link>
							<linkclipref>clipitem-342</linkclipref>
							<mediatype>audio</mediatype>
							<trackindex>1</trackindex>
							<clipindex>1</clipindex>
							<groupindex>1</groupindex>
						</link>
						<link>
							<linkclipref>clipitem-348</linkclipref>
							<mediatype>audio</mediatype>
							<trackindex>2</trackindex>
							<clipindex>1</clipindex>
							<groupindex>1</groupindex>
						</link>
						<link>
							<linkclipref>clipitem-354</linkclipref>
							<mediatype>audio</mediatype>
							<trackindex>3</trackindex>
							<clipindex>1</clipindex>
							<groupindex>1</groupindex>
						</link>
						<link>
							<linkclipref>clipitem-360</linkclipref>
							<mediatype>audio</mediatype>
							<trackindex>4</trackindex>
							<clipindex>1</clipindex>
							<groupindex>1</groupindex>
						</link>
						<link>
							<linkclipref>clipitem-366</linkclipref>
							<mediatype>audio</mediatype>
							<trackindex>5</trackindex>
							<clipindex>1</clipindex>
							<groupindex>1</groupindex>
						</link>
						<link>
							<linkclipref>clipitem-372</linkclipref>
							<mediatype>audio</mediatype>
							<trackindex>6</trackindex>
							<clipindex>1</clipindex>
							<groupindex>1</groupindex>
						</link>
						<link>
							<linkclipref>clipitem-378</linkclipref>
							<mediatype>audio</mediatype>
							<trackindex>7</trackindex>
							<clipindex>1</clipindex>
							<groupindex>1</groupindex>
						</link>
						<link>
							<linkclipref>clipitem-384</linkclipref>
							<mediatype>audio</mediatype>
							<trackindex>8</trackindex>
							<clipindex>1</clipindex>
							<groupindex>1</groupindex>
						</link>
					</clipitem>
					<clipitem id="clipitem-343" premiereChannelType="mono">
						
						
						<masterclipid>masterclip-24</masterclipid>
						
						
						<name>0619_0729.MXF</name>
						
						
						<enabled>TRUE</enabled>
						
						
						<duration>45520</duration>
						
						
						<rate>
							
							
							<timebase>24</timebase>
							
							
							<ntsc>TRUE</ntsc>
							
						
						</rate>
						
						
						<start>4761</start>
						
						
						<end>14095</end>
						
						
						<in>5074</in>
						
						
						<out>14408</out>
						
						
						<pproTicksIn>53756919215999</pproTicksIn>
						
						
						<pproTicksOut>152646766271999</pproTicksOut>
						
						
						<file id="file-24"/>
						
						
						<sourcetrack>
							
							
							<mediatype>audio</mediatype>
							
							
							<trackindex>1</trackindex>
							
						
						</sourcetrack>
						
							
						<marker>
							
								
							<comment/>
							
								
							<name/>
							
								
							<in>526</in>
							
								
							<out>-1</out>
							
							
						</marker>
						
						
						<logginginfo>
							
							
							<description/>
							
							
							<scene/>
							
							
							<shottake/>
							
							
							<lognote/>
							
							
							<good/>
							
							
							<originalvideofilename/>
							
							
							<originalaudiofilename/>
							
						
						</logginginfo>
						
						
						<colorinfo>
							
							
							<lut/>
							
							
							<lut1/>
							
							
							<asc_sop/>
							
							
							<asc_sat/>
							
							
							<lut2/>
							
						
						</colorinfo>
						
						
						<labels>
							
							
							<label2>Rose</label2>
							
						
						</labels>
						
					
						<link>
							<linkclipref>clipitem-325</linkclipref>
							<mediatype>video</mediatype>
							<trackindex>1</trackindex>
							<clipindex>2</clipindex>
							<groupindex>1</groupindex>
						</link>
						<link>
							<linkclipref>clipitem-331</linkclipref>
							<mediatype>video</mediatype>
							<trackindex>2</trackindex>
							<clipindex>2</clipindex>
							<groupindex>1</groupindex>
						</link>
						<link>
							<linkclipref>clipitem-337</linkclipref>
							<mediatype>video</mediatype>
							<trackindex>3</trackindex>
							<clipindex>2</clipindex>
							<groupindex>1</groupindex>
						</link>
						<link>
							<linkclipref>clipitem-343</linkclipref>
							<mediatype>audio</mediatype>
							<trackindex>1</trackindex>
							<clipindex>2</clipindex>
							<groupindex>1</groupindex>
						</link>
						<link>
							<linkclipref>clipitem-349</linkclipref>
							<mediatype>audio</mediatype>
							<trackindex>2</trackindex>
							<clipindex>2</clipindex>
							<groupindex>1</groupindex>
						</link>
						<link>
							<linkclipref>clipitem-355</linkclipref>
							<mediatype>audio</mediatype>
							<trackindex>3</trackindex>
							<clipindex>2</clipindex>
							<groupindex>1</groupindex>
						</link>
						<link>
							<linkclipref>clipitem-361</linkclipref>
							<mediatype>audio</mediatype>
							<trackindex>4</trackindex>
							<clipindex>2</clipindex>
							<groupindex>1</groupindex>
						</link>
						<link>
							<linkclipref>clipitem-367</linkclipref>
							<mediatype>audio</mediatype>
							<trackindex>5</trackindex>
							<clipindex>2</clipindex>
							<groupindex>1</groupindex>
						</link>
						<link>
							<linkclipref>clipitem-373</linkclipref>
							<mediatype>audio</mediatype>
							<trackindex>6</trackindex>
							<clipindex>2</clipindex>
							<groupindex>1</groupindex>
						</link>
						<link>
							<linkclipref>clipitem-379</linkclipref>
							<mediatype>audio</mediatype>
							<trackindex>7</trackindex>
							<clipindex>2</clipindex>
							<groupindex>1</groupindex>
						</link>
						<link>
							<linkclipref>clipitem-385</linkclipref>
							<mediatype>audio</mediatype>
							<trackindex>8</trackindex>
							<clipindex>2</clipindex>
							<groupindex>1</groupindex>
						</link>
					</clipitem>
					<clipitem id="clipitem-344" premiereChannelType="mono">
						
						
						<masterclipid>masterclip-24</masterclipid>
						
						
						<name>0619_0729.MXF</name>
						
						
						<enabled>TRUE</enabled>
						
						
						<duration>45520</duration>
						
						
						<rate>
							
							
							<timebase>24</timebase>
							
							
							<ntsc>TRUE</ntsc>
							
						
						</rate>
						
						
						<start>14457</start>
						
						
						<end>18809</end>
						
						
						<in>15769</in>
						
						
						<out>20121</out>
						
						
						<pproTicksIn>167065995096000</pproTicksIn>
						
						
						<pproTicksOut>213173624663999</pproTicksOut>
						
						
						<file id="file-24"/>
						
						
						<sourcetrack>
							
							
							<mediatype>audio</mediatype>
							
							
							<trackindex>1</trackindex>
							
						
						</sourcetrack>
						
							
						<marker>
							
								
							<comment/>
							
								
							<name/>
							
								
							<in>526</in>
							
								
							<out>-1</out>
							
							
						</marker>
						
						
						<logginginfo>
							
							
							<description/>
							
							
							<scene/>
							
							
							<shottake/>
							
							
							<lognote/>
							
							
							<good/>
							
							
							<originalvideofilename/>
							
							
							<originalaudiofilename/>
							
						
						</logginginfo>
						
						
						<colorinfo>
							
							
							<lut/>
							
							
							<lut1/>
							
							
							<asc_sop/>
							
							
							<asc_sat/>
							
							
							<lut2/>
							
						
						</colorinfo>
						
						
						<labels>
							
							
							<label2>Lavender</label2>
							
						
						</labels>
						
					
						<link>
							<linkclipref>clipitem-326</linkclipref>
							<mediatype>video</mediatype>
							<trackindex>1</trackindex>
							<clipindex>3</clipindex>
							<groupindex>1</groupindex>
						</link>
						<link>
							<linkclipref>clipitem-332</linkclipref>
							<mediatype>video</mediatype>
							<trackindex>2</trackindex>
							<clipindex>3</clipindex>
							<groupindex>1</groupindex>
						</link>
						<link>
							<linkclipref>clipitem-338</linkclipref>
							<mediatype>video</mediatype>
							<trackindex>3</trackindex>
							<clipindex>3</clipindex>
							<groupindex>1</groupindex>
						</link>
						<link>
							<linkclipref>clipitem-344</linkclipref>
							<mediatype>audio</mediatype>
							<trackindex>1</trackindex>
							<clipindex>3</clipindex>
							<groupindex>1</groupindex>
						</link>
						<link>
							<linkclipref>clipitem-350</linkclipref>
							<mediatype>audio</mediatype>
							<trackindex>2</trackindex>
							<clipindex>3</clipindex>
							<groupindex>1</groupindex>
						</link>
						<link>
							<linkclipref>clipitem-356</linkclipref>
							<mediatype>audio</mediatype>
							<trackindex>3</trackindex>
							<clipindex>3</clipindex>
							<groupindex>1</groupindex>
						</link>
						<link>
							<linkclipref>clipitem-362</linkclipref>
							<mediatype>audio</mediatype>
							<trackindex>4</trackindex>
							<clipindex>3</clipindex>
							<groupindex>1</groupindex>
						</link>
						<link>
							<linkclipref>clipitem-368</linkclipref>
							<mediatype>audio</mediatype>
							<trackindex>5</trackindex>
							<clipindex>3</clipindex>
							<groupindex>1</groupindex>
						</link>
						<link>
							<linkclipref>clipitem-374</linkclipref>
							<mediatype>audio</mediatype>
							<trackindex>6</trackindex>
							<clipindex>3</clipindex>
							<groupindex>1</groupindex>
						</link>
						<link>
							<linkclipref>clipitem-380</linkclipref>
							<mediatype>audio</mediatype>
							<trackindex>7</trackindex>
							<clipindex>3</clipindex>
							<groupindex>1</groupindex>
						</link>
						<link>
							<linkclipref>clipitem-386</linkclipref>
							<mediatype>audio</mediatype>
							<trackindex>8</trackindex>
							<clipindex>3</clipindex>
							<groupindex>1</groupindex>
						</link>
					</clipitem>
					<clipitem id="clipitem-345" premiereChannelType="mono">
						
						
						<masterclipid>masterclip-24</masterclipid>
						
						
						<name>0619_0729.MXF</name>
						
						
						<enabled>TRUE</enabled>
						
						
						<duration>45520</duration>
						
						
						<rate>
							
							
							<timebase>24</timebase>
							
							
							<ntsc>TRUE</ntsc>
							
						
						</rate>
						
						
						<start>19171</start>
						
						
						<end>22347</end>
						
						
						<in>21284</in>
						
						
						<out>24460</out>
						
						
						<pproTicksIn>225495125856000</pproTicksIn>
						
						
						<pproTicksOut>259143524639999</pproTicksOut>
						
						
						<file id="file-24"/>
						
						
						<sourcetrack>
							
							
							<mediatype>audio</mediatype>
							
							
							<trackindex>1</trackindex>
							
						
						</sourcetrack>
						
							
						<marker>
							
								
							<comment/>
							
								
							<name/>
							
								
							<in>526</in>
							
								
							<out>-1</out>
							
							
						</marker>
						
						
						<logginginfo>
							
							
							<description/>
							
							
							<scene/>
							
							
							<shottake/>
							
							
							<lognote/>
							
							
							<good/>
							
							
							<originalvideofilename/>
							
							
							<originalaudiofilename/>
							
						
						</logginginfo>
						
						
						<colorinfo>
							
							
							<lut/>
							
							
							<lut1/>
							
							
							<asc_sop/>
							
							
							<asc_sat/>
							
							
							<lut2/>
							
						
						</colorinfo>
						
						
						<labels>
							
							
							<label2>Yellow</label2>
							
						
						</labels>
						
					
						<link>
							<linkclipref>clipitem-327</linkclipref>
							<mediatype>video</mediatype>
							<trackindex>1</trackindex>
							<clipindex>4</clipindex>
							<groupindex>1</groupindex>
						</link>
						<link>
							<linkclipref>clipitem-333</linkclipref>
							<mediatype>video</mediatype>
							<trackindex>2</trackindex>
							<clipindex>4</clipindex>
							<groupindex>1</groupindex>
						</link>
						<link>
							<linkclipref>clipitem-339</linkclipref>
							<mediatype>video</mediatype>
							<trackindex>3</trackindex>
							<clipindex>4</clipindex>
							<groupindex>1</groupindex>
						</link>
						<link>
							<linkclipref>clipitem-345</linkclipref>
							<mediatype>audio</mediatype>
							<trackindex>1</trackindex>
							<clipindex>4</clipindex>
							<groupindex>1</groupindex>
						</link>
						<link>
							<linkclipref>clipitem-351</linkclipref>
							<mediatype>audio</mediatype>
							<trackindex>2</trackindex>
							<clipindex>4</clipindex>
							<groupindex>1</groupindex>
						</link>
						<link>
							<linkclipref>clipitem-357</linkclipref>
							<mediatype>audio</mediatype>
							<trackindex>3</trackindex>
							<clipindex>4</clipindex>
							<groupindex>1</groupindex>
						</link>
						<link>
							<linkclipref>clipitem-363</linkclipref>
							<mediatype>audio</mediatype>
							<trackindex>4</trackindex>
							<clipindex>4</clipindex>
							<groupindex>1</groupindex>
						</link>
						<link>
							<linkclipref>clipitem-369</linkclipref>
							<mediatype>audio</mediatype>
							<trackindex>5</trackindex>
							<clipindex>4</clipindex>
							<groupindex>1</groupindex>
						</link>
						<link>
							<linkclipref>clipitem-375</linkclipref>
							<mediatype>audio</mediatype>
							<trackindex>6</trackindex>
							<clipindex>4</clipindex>
							<groupindex>1</groupindex>
						</link>
						<link>
							<linkclipref>clipitem-381</linkclipref>
							<mediatype>audio</mediatype>
							<trackindex>7</trackindex>
							<clipindex>4</clipindex>
							<groupindex>1</groupindex>
						</link>
						<link>
							<linkclipref>clipitem-387</linkclipref>
							<mediatype>audio</mediatype>
							<trackindex>8</trackindex>
							<clipindex>4</clipindex>
							<groupindex>1</groupindex>
						</link>
					</clipitem>
					<clipitem id="clipitem-346" premiereChannelType="mono">
						
						
						<masterclipid>masterclip-24</masterclipid>
						
						
						<name>0619_0729.MXF</name>
						
						
						<enabled>TRUE</enabled>
						
						
						<duration>45520</duration>
						
						
						<rate>
							
							
							<timebase>24</timebase>
							
							
							<ntsc>TRUE</ntsc>
							
						
						</rate>
						
						
						<start>22709</start>
						
						
						<end>26830</end>
						
						
						<in>25507</in>
						
						
						<out>29628</out>
						
						
						<pproTicksIn>270236054087999</pproTicksIn>
						
						
						<pproTicksOut>313896334752000</pproTicksOut>
						
						
						<file id="file-24"/>
						
						
						<sourcetrack>
							
							
							<mediatype>audio</mediatype>
							
							
							<trackindex>1</trackindex>
							
						
						</sourcetrack>
						
							
						<marker>
							
								
							<comment/>
							
								
							<name/>
							
								
							<in>526</in>
							
								
							<out>-1</out>
							
							
						</marker>
						
						
						<logginginfo>
							
							
							<description/>
							
							
							<scene/>
							
							
							<shottake/>
							
							
							<lognote/>
							
							
							<good/>
							
							
							<originalvideofilename/>
							
							
							<originalaudiofilename/>
							
						
						</logginginfo>
						
						
						<colorinfo>
							
							
							<lut/>
							
							
							<lut1/>
							
							
							<asc_sop/>
							
							
							<asc_sat/>
							
							
							<lut2/>
							
						
						</colorinfo>
						
						
						<labels>
							
							
							<label2>Violet</label2>
							
						
						</labels>
						
					
						<link>
							<linkclipref>clipitem-328</linkclipref>
							<mediatype>video</mediatype>
							<trackindex>1</trackindex>
							<clipindex>5</clipindex>
							<groupindex>1</groupindex>
						</link>
						<link>
							<linkclipref>clipitem-334</linkclipref>
							<mediatype>video</mediatype>
							<trackindex>2</trackindex>
							<clipindex>5</clipindex>
							<groupindex>1</groupindex>
						</link>
						<link>
							<linkclipref>clipitem-340</linkclipref>
							<mediatype>video</mediatype>
							<trackindex>3</trackindex>
							<clipindex>5</clipindex>
							<groupindex>1</groupindex>
						</link>
						<link>
							<linkclipref>clipitem-346</linkclipref>
							<mediatype>audio</mediatype>
							<trackindex>1</trackindex>
							<clipindex>5</clipindex>
							<groupindex>1</groupindex>
						</link>
						<link>
							<linkclipref>clipitem-352</linkclipref>
							<mediatype>audio</mediatype>
							<trackindex>2</trackindex>
							<clipindex>5</clipindex>
							<groupindex>1</groupindex>
						</link>
						<link>
							<linkclipref>clipitem-358</linkclipref>
							<mediatype>audio</mediatype>
							<trackindex>3</trackindex>
							<clipindex>5</clipindex>
							<groupindex>1</groupindex>
						</link>
						<link>
							<linkclipref>clipitem-364</linkclipref>
							<mediatype>audio</mediatype>
							<trackindex>4</trackindex>
							<clipindex>5</clipindex>
							<groupindex>1</groupindex>
						</link>
						<link>
							<linkclipref>clipitem-370</linkclipref>
							<mediatype>audio</mediatype>
							<trackindex>5</trackindex>
							<clipindex>5</clipindex>
							<groupindex>1</groupindex>
						</link>
						<link>
							<linkclipref>clipitem-376</linkclipref>
							<mediatype>audio</mediatype>
							<trackindex>6</trackindex>
							<clipindex>5</clipindex>
							<groupindex>1</groupindex>
						</link>
						<link>
							<linkclipref>clipitem-382</linkclipref>
							<mediatype>audio</mediatype>
							<trackindex>7</trackindex>
							<clipindex>5</clipindex>
							<groupindex>1</groupindex>
						</link>
						<link>
							<linkclipref>clipitem-388</linkclipref>
							<mediatype>audio</mediatype>
							<trackindex>8</trackindex>
							<clipindex>5</clipindex>
							<groupindex>1</groupindex>
						</link>
					</clipitem>
					<clipitem id="clipitem-347" premiereChannelType="mono">
						
						
						<masterclipid>masterclip-24</masterclipid>
						
						
						<name>0619_0729.MXF</name>
						
						
						<enabled>TRUE</enabled>
						
						
						<duration>45520</duration>
						
						
						<rate>
							
							
							<timebase>24</timebase>
							
							
							<ntsc>TRUE</ntsc>
							
						
						</rate>
						
						
						<start>27192</start>
						
						
						<end>41336</end>
						
						
						<in>30669</in>
						
						
						<out>44813</out>
						
						
						<pproTicksIn>324925296696000</pproTicksIn>
						
						
						<pproTicksOut>474775092792000</pproTicksOut>
						
						
						<file id="file-24"/>
						
						
						<sourcetrack>
							
							
							<mediatype>audio</mediatype>
							
							
							<trackindex>1</trackindex>
							
						
						</sourcetrack>
						
							
						<marker>
							
								
							<comment/>
							
								
							<name/>
							
								
							<in>526</in>
							
								
							<out>-1</out>
							
							
						</marker>
						
						
						<logginginfo>
							
							
							<description/>
							
							
							<scene/>
							
							
							<shottake/>
							
							
							<lognote/>
							
							
							<good/>
							
							
							<originalvideofilename/>
							
							
							<originalaudiofilename/>
							
						
						</logginginfo>
						
						
						<colorinfo>
							
							
							<lut/>
							
							
							<lut1/>
							
							
							<asc_sop/>
							
							
							<asc_sat/>
							
							
							<lut2/>
							
						
						</colorinfo>
						
						
						<labels>
							
							
							<label2>Yellow</label2>
							
						
						</labels>
						
					
						<link>
							<linkclipref>clipitem-329</linkclipref>
							<mediatype>video</mediatype>
							<trackindex>1</trackindex>
							<clipindex>6</clipindex>
							<groupindex>1</groupindex>
						</link>
						<link>
							<linkclipref>clipitem-335</linkclipref>
							<mediatype>video</mediatype>
							<trackindex>2</trackindex>
							<clipindex>6</clipindex>
							<groupindex>1</groupindex>
						</link>
						<link>
							<linkclipref>clipitem-341</linkclipref>
							<mediatype>video</mediatype>
							<trackindex>3</trackindex>
							<clipindex>6</clipindex>
							<groupindex>1</groupindex>
						</link>
						<link>
							<linkclipref>clipitem-347</linkclipref>
							<mediatype>audio</mediatype>
							<trackindex>1</trackindex>
							<clipindex>6</clipindex>
							<groupindex>1</groupindex>
						</link>
						<link>
							<linkclipref>clipitem-353</linkclipref>
							<mediatype>audio</mediatype>
							<trackindex>2</trackindex>
							<clipindex>6</clipindex>
							<groupindex>1</groupindex>
						</link>
						<link>
							<linkclipref>clipitem-359</linkclipref>
							<mediatype>audio</mediatype>
							<trackindex>3</trackindex>
							<clipindex>6</clipindex>
							<groupindex>1</groupindex>
						</link>
						<link>
							<linkclipref>clipitem-365</linkclipref>
							<mediatype>audio</mediatype>
							<trackindex>4</trackindex>
							<clipindex>6</clipindex>
							<groupindex>1</groupindex>
						</link>
						<link>
							<linkclipref>clipitem-371</linkclipref>
							<mediatype>audio</mediatype>
							<trackindex>5</trackindex>
							<clipindex>6</clipindex>
							<groupindex>1</groupindex>
						</link>
						<link>
							<linkclipref>clipitem-377</linkclipref>
							<mediatype>audio</mediatype>
							<trackindex>6</trackindex>
							<clipindex>6</clipindex>
							<groupindex>1</groupindex>
						</link>
						<link>
							<linkclipref>clipitem-383</linkclipref>
							<mediatype>audio</mediatype>
							<trackindex>7</trackindex>
							<clipindex>6</clipindex>
							<groupindex>1</groupindex>
						</link>
						<link>
							<linkclipref>clipitem-389</linkclipref>
							<mediatype>audio</mediatype>
							<trackindex>8</trackindex>
							<clipindex>6</clipindex>
							<groupindex>1</groupindex>
						</link>
					</clipitem>
					<enabled>TRUE</enabled>
					<locked>FALSE</locked>
					<outputchannelindex>1</outputchannelindex>
				</track>
				<track TL.SQTrackAudioKeyframeStyle="0" TL.SQTrackShy="0" TL.SQTrackExpandedHeight="41" TL.SQTrackExpanded="0" MZ.TrackTargeted="1" PannerCurrentValue="0.5" PannerIsInverted="true" PannerStartKeyframe="-91445760000000000,0.5,0,0,0,0,0,0" PannerName="Balance" currentExplodedTrackIndex="0" totalExplodedTrackCount="1" premiereTrackType="Stereo">
					<clipitem id="clipitem-348" premiereChannelType="mono">
						
						
						<masterclipid>masterclip-24</masterclipid>
						
						
						<name>0619_0729.MXF</name>
						
						
						<enabled>TRUE</enabled>
						
						
						<duration>45520</duration>
						
						
						<rate>
							
							
							<timebase>24</timebase>
							
							
							<ntsc>TRUE</ntsc>
							
						
						</rate>
						
						
						<start>120</start>
						
						
						<end>4399</end>
						
						
						<in>530</in>
						
						
						<out>4809</out>
						
						
						<pproTicksIn>5615129520000</pproTicksIn>
						
						
						<pproTicksOut>50949354455999</pproTicksOut>
						
						
						<file id="file-24"/>
						
						
						<sourcetrack>
							
							
							<mediatype>audio</mediatype>
							
							
							<trackindex>2</trackindex>
							
						
						</sourcetrack>
						
							
						<marker>
							
								
							<comment/>
							
								
							<name/>
							
								
							<in>526</in>
							
								
							<out>-1</out>
							
							
						</marker>
						
						
						<logginginfo>
							
							
							<description/>
							
							
							<scene/>
							
							
							<shottake/>
							
							
							<lognote/>
							
							
							<good/>
							
							
							<originalvideofilename/>
							
							
							<originalaudiofilename/>
							
						
						</logginginfo>
						
						
						<colorinfo>
							
							
							<lut/>
							
							
							<lut1/>
							
							
							<asc_sop/>
							
							
							<asc_sat/>
							
							
							<lut2/>
							
						
						</colorinfo>
						
						
						<labels>
							
							
							<label2>Caribbean</label2>
							
						
						</labels>
						
					
						<link>
							<linkclipref>clipitem-324</linkclipref>
							<mediatype>video</mediatype>
							<trackindex>1</trackindex>
							<clipindex>1</clipindex>
							<groupindex>1</groupindex>
						</link>
						<link>
							<linkclipref>clipitem-330</linkclipref>
							<mediatype>video</mediatype>
							<trackindex>2</trackindex>
							<clipindex>1</clipindex>
							<groupindex>1</groupindex>
						</link>
						<link>
							<linkclipref>clipitem-336</linkclipref>
							<mediatype>video</mediatype>
							<trackindex>3</trackindex>
							<clipindex>1</clipindex>
							<groupindex>1</groupindex>
						</link>
						<link>
							<linkclipref>clipitem-342</linkclipref>
							<mediatype>audio</mediatype>
							<trackindex>1</trackindex>
							<clipindex>1</clipindex>
							<groupindex>1</groupindex>
						</link>
						<link>
							<linkclipref>clipitem-348</linkclipref>
							<mediatype>audio</mediatype>
							<trackindex>2</trackindex>
							<clipindex>1</clipindex>
							<groupindex>1</groupindex>
						</link>
						<link>
							<linkclipref>clipitem-354</linkclipref>
							<mediatype>audio</mediatype>
							<trackindex>3</trackindex>
							<clipindex>1</clipindex>
							<groupindex>1</groupindex>
						</link>
						<link>
							<linkclipref>clipitem-360</linkclipref>
							<mediatype>audio</mediatype>
							<trackindex>4</trackindex>
							<clipindex>1</clipindex>
							<groupindex>1</groupindex>
						</link>
						<link>
							<linkclipref>clipitem-366</linkclipref>
							<mediatype>audio</mediatype>
							<trackindex>5</trackindex>
							<clipindex>1</clipindex>
							<groupindex>1</groupindex>
						</link>
						<link>
							<linkclipref>clipitem-372</linkclipref>
							<mediatype>audio</mediatype>
							<trackindex>6</trackindex>
							<clipindex>1</clipindex>
							<groupindex>1</groupindex>
						</link>
						<link>
							<linkclipref>clipitem-378</linkclipref>
							<mediatype>audio</mediatype>
							<trackindex>7</trackindex>
							<clipindex>1</clipindex>
							<groupindex>1</groupindex>
						</link>
						<link>
							<linkclipref>clipitem-384</linkclipref>
							<mediatype>audio</mediatype>
							<trackindex>8</trackindex>
							<clipindex>1</clipindex>
							<groupindex>1</groupindex>
						</link>
					</clipitem>
					<clipitem id="clipitem-349" premiereChannelType="mono">
						
						
						<masterclipid>masterclip-24</masterclipid>
						
						
						<name>0619_0729.MXF</name>
						
						
						<enabled>TRUE</enabled>
						
						
						<duration>45520</duration>
						
						
						<rate>
							
							
							<timebase>24</timebase>
							
							
							<ntsc>TRUE</ntsc>
							
						
						</rate>
						
						
						<start>4761</start>
						
						
						<end>14095</end>
						
						
						<in>5074</in>
						
						
						<out>14408</out>
						
						
						<pproTicksIn>53756919215999</pproTicksIn>
						
						
						<pproTicksOut>152646766271999</pproTicksOut>
						
						
						<file id="file-24"/>
						
						
						<sourcetrack>
							
							
							<mediatype>audio</mediatype>
							
							
							<trackindex>2</trackindex>
							
						
						</sourcetrack>
						
							
						<marker>
							
								
							<comment/>
							
								
							<name/>
							
								
							<in>526</in>
							
								
							<out>-1</out>
							
							
						</marker>
						
						
						<logginginfo>
							
							
							<description/>
							
							
							<scene/>
							
							
							<shottake/>
							
							
							<lognote/>
							
							
							<good/>
							
							
							<originalvideofilename/>
							
							
							<originalaudiofilename/>
							
						
						</logginginfo>
						
						
						<colorinfo>
							
							
							<lut/>
							
							
							<lut1/>
							
							
							<asc_sop/>
							
							
							<asc_sat/>
							
							
							<lut2/>
							
						
						</colorinfo>
						
						
						<labels>
							
							
							<label2>Rose</label2>
							
						
						</labels>
						
					
						<link>
							<linkclipref>clipitem-325</linkclipref>
							<mediatype>video</mediatype>
							<trackindex>1</trackindex>
							<clipindex>2</clipindex>
							<groupindex>1</groupindex>
						</link>
						<link>
							<linkclipref>clipitem-331</linkclipref>
							<mediatype>video</mediatype>
							<trackindex>2</trackindex>
							<clipindex>2</clipindex>
							<groupindex>1</groupindex>
						</link>
						<link>
							<linkclipref>clipitem-337</linkclipref>
							<mediatype>video</mediatype>
							<trackindex>3</trackindex>
							<clipindex>2</clipindex>
							<groupindex>1</groupindex>
						</link>
						<link>
							<linkclipref>clipitem-343</linkclipref>
							<mediatype>audio</mediatype>
							<trackindex>1</trackindex>
							<clipindex>2</clipindex>
							<groupindex>1</groupindex>
						</link>
						<link>
							<linkclipref>clipitem-349</linkclipref>
							<mediatype>audio</mediatype>
							<trackindex>2</trackindex>
							<clipindex>2</clipindex>
							<groupindex>1</groupindex>
						</link>
						<link>
							<linkclipref>clipitem-355</linkclipref>
							<mediatype>audio</mediatype>
							<trackindex>3</trackindex>
							<clipindex>2</clipindex>
							<groupindex>1</groupindex>
						</link>
						<link>
							<linkclipref>clipitem-361</linkclipref>
							<mediatype>audio</mediatype>
							<trackindex>4</trackindex>
							<clipindex>2</clipindex>
							<groupindex>1</groupindex>
						</link>
						<link>
							<linkclipref>clipitem-367</linkclipref>
							<mediatype>audio</mediatype>
							<trackindex>5</trackindex>
							<clipindex>2</clipindex>
							<groupindex>1</groupindex>
						</link>
						<link>
							<linkclipref>clipitem-373</linkclipref>
							<mediatype>audio</mediatype>
							<trackindex>6</trackindex>
							<clipindex>2</clipindex>
							<groupindex>1</groupindex>
						</link>
						<link>
							<linkclipref>clipitem-379</linkclipref>
							<mediatype>audio</mediatype>
							<trackindex>7</trackindex>
							<clipindex>2</clipindex>
							<groupindex>1</groupindex>
						</link>
						<link>
							<linkclipref>clipitem-385</linkclipref>
							<mediatype>audio</mediatype>
							<trackindex>8</trackindex>
							<clipindex>2</clipindex>
							<groupindex>1</groupindex>
						</link>
					</clipitem>
					<clipitem id="clipitem-350" premiereChannelType="mono">
						
						
						<masterclipid>masterclip-24</masterclipid>
						
						
						<name>0619_0729.MXF</name>
						
						
						<enabled>TRUE</enabled>
						
						
						<duration>45520</duration>
						
						
						<rate>
							
							
							<timebase>24</timebase>
							
							
							<ntsc>TRUE</ntsc>
							
						
						</rate>
						
						
						<start>14457</start>
						
						
						<end>18809</end>
						
						
						<in>15769</in>
						
						
						<out>20121</out>
						
						
						<pproTicksIn>167065995096000</pproTicksIn>
						
						
						<pproTicksOut>213173624663999</pproTicksOut>
						
						
						<file id="file-24"/>
						
						
						<sourcetrack>
							
							
							<mediatype>audio</mediatype>
							
							
							<trackindex>2</trackindex>
							
						
						</sourcetrack>
						
							
						<marker>
							
								
							<comment/>
							
								
							<name/>
							
								
							<in>526</in>
							
								
							<out>-1</out>
							
							
						</marker>
						
						
						<logginginfo>
							
							
							<description/>
							
							
							<scene/>
							
							
							<shottake/>
							
							
							<lognote/>
							
							
							<good/>
							
							
							<originalvideofilename/>
							
							
							<originalaudiofilename/>
							
						
						</logginginfo>
						
						
						<colorinfo>
							
							
							<lut/>
							
							
							<lut1/>
							
							
							<asc_sop/>
							
							
							<asc_sat/>
							
							
							<lut2/>
							
						
						</colorinfo>
						
						
						<labels>
							
							
							<label2>Lavender</label2>
							
						
						</labels>
						
					
						<link>
							<linkclipref>clipitem-326</linkclipref>
							<mediatype>video</mediatype>
							<trackindex>1</trackindex>
							<clipindex>3</clipindex>
							<groupindex>1</groupindex>
						</link>
						<link>
							<linkclipref>clipitem-332</linkclipref>
							<mediatype>video</mediatype>
							<trackindex>2</trackindex>
							<clipindex>3</clipindex>
							<groupindex>1</groupindex>
						</link>
						<link>
							<linkclipref>clipitem-338</linkclipref>
							<mediatype>video</mediatype>
							<trackindex>3</trackindex>
							<clipindex>3</clipindex>
							<groupindex>1</groupindex>
						</link>
						<link>
							<linkclipref>clipitem-344</linkclipref>
							<mediatype>audio</mediatype>
							<trackindex>1</trackindex>
							<clipindex>3</clipindex>
							<groupindex>1</groupindex>
						</link>
						<link>
							<linkclipref>clipitem-350</linkclipref>
							<mediatype>audio</mediatype>
							<trackindex>2</trackindex>
							<clipindex>3</clipindex>
							<groupindex>1</groupindex>
						</link>
						<link>
							<linkclipref>clipitem-356</linkclipref>
							<mediatype>audio</mediatype>
							<trackindex>3</trackindex>
							<clipindex>3</clipindex>
							<groupindex>1</groupindex>
						</link>
						<link>
							<linkclipref>clipitem-362</linkclipref>
							<mediatype>audio</mediatype>
							<trackindex>4</trackindex>
							<clipindex>3</clipindex>
							<groupindex>1</groupindex>
						</link>
						<link>
							<linkclipref>clipitem-368</linkclipref>
							<mediatype>audio</mediatype>
							<trackindex>5</trackindex>
							<clipindex>3</clipindex>
							<groupindex>1</groupindex>
						</link>
						<link>
							<linkclipref>clipitem-374</linkclipref>
							<mediatype>audio</mediatype>
							<trackindex>6</trackindex>
							<clipindex>3</clipindex>
							<groupindex>1</groupindex>
						</link>
						<link>
							<linkclipref>clipitem-380</linkclipref>
							<mediatype>audio</mediatype>
							<trackindex>7</trackindex>
							<clipindex>3</clipindex>
							<groupindex>1</groupindex>
						</link>
						<link>
							<linkclipref>clipitem-386</linkclipref>
							<mediatype>audio</mediatype>
							<trackindex>8</trackindex>
							<clipindex>3</clipindex>
							<groupindex>1</groupindex>
						</link>
					</clipitem>
					<clipitem id="clipitem-351" premiereChannelType="mono">
						
						
						<masterclipid>masterclip-24</masterclipid>
						
						
						<name>0619_0729.MXF</name>
						
						
						<enabled>TRUE</enabled>
						
						
						<duration>45520</duration>
						
						
						<rate>
							
							
							<timebase>24</timebase>
							
							
							<ntsc>TRUE</ntsc>
							
						
						</rate>
						
						
						<start>19171</start>
						
						
						<end>22347</end>
						
						
						<in>21284</in>
						
						
						<out>24460</out>
						
						
						<pproTicksIn>225495125856000</pproTicksIn>
						
						
						<pproTicksOut>259143524639999</pproTicksOut>
						
						
						<file id="file-24"/>
						
						
						<sourcetrack>
							
							
							<mediatype>audio</mediatype>
							
							
							<trackindex>2</trackindex>
							
						
						</sourcetrack>
						
							
						<marker>
							
								
							<comment/>
							
								
							<name/>
							
								
							<in>526</in>
							
								
							<out>-1</out>
							
							
						</marker>
						
						
						<logginginfo>
							
							
							<description/>
							
							
							<scene/>
							
							
							<shottake/>
							
							
							<lognote/>
							
							
							<good/>
							
							
							<originalvideofilename/>
							
							
							<originalaudiofilename/>
							
						
						</logginginfo>
						
						
						<colorinfo>
							
							
							<lut/>
							
							
							<lut1/>
							
							
							<asc_sop/>
							
							
							<asc_sat/>
							
							
							<lut2/>
							
						
						</colorinfo>
						
						
						<labels>
							
							
							<label2>Yellow</label2>
							
						
						</labels>
						
					
						<link>
							<linkclipref>clipitem-327</linkclipref>
							<mediatype>video</mediatype>
							<trackindex>1</trackindex>
							<clipindex>4</clipindex>
							<groupindex>1</groupindex>
						</link>
						<link>
							<linkclipref>clipitem-333</linkclipref>
							<mediatype>video</mediatype>
							<trackindex>2</trackindex>
							<clipindex>4</clipindex>
							<groupindex>1</groupindex>
						</link>
						<link>
							<linkclipref>clipitem-339</linkclipref>
							<mediatype>video</mediatype>
							<trackindex>3</trackindex>
							<clipindex>4</clipindex>
							<groupindex>1</groupindex>
						</link>
						<link>
							<linkclipref>clipitem-345</linkclipref>
							<mediatype>audio</mediatype>
							<trackindex>1</trackindex>
							<clipindex>4</clipindex>
							<groupindex>1</groupindex>
						</link>
						<link>
							<linkclipref>clipitem-351</linkclipref>
							<mediatype>audio</mediatype>
							<trackindex>2</trackindex>
							<clipindex>4</clipindex>
							<groupindex>1</groupindex>
						</link>
						<link>
							<linkclipref>clipitem-357</linkclipref>
							<mediatype>audio</mediatype>
							<trackindex>3</trackindex>
							<clipindex>4</clipindex>
							<groupindex>1</groupindex>
						</link>
						<link>
							<linkclipref>clipitem-363</linkclipref>
							<mediatype>audio</mediatype>
							<trackindex>4</trackindex>
							<clipindex>4</clipindex>
							<groupindex>1</groupindex>
						</link>
						<link>
							<linkclipref>clipitem-369</linkclipref>
							<mediatype>audio</mediatype>
							<trackindex>5</trackindex>
							<clipindex>4</clipindex>
							<groupindex>1</groupindex>
						</link>
						<link>
							<linkclipref>clipitem-375</linkclipref>
							<mediatype>audio</mediatype>
							<trackindex>6</trackindex>
							<clipindex>4</clipindex>
							<groupindex>1</groupindex>
						</link>
						<link>
							<linkclipref>clipitem-381</linkclipref>
							<mediatype>audio</mediatype>
							<trackindex>7</trackindex>
							<clipindex>4</clipindex>
							<groupindex>1</groupindex>
						</link>
						<link>
							<linkclipref>clipitem-387</linkclipref>
							<mediatype>audio</mediatype>
							<trackindex>8</trackindex>
							<clipindex>4</clipindex>
							<groupindex>1</groupindex>
						</link>
					</clipitem>
					<clipitem id="clipitem-352" premiereChannelType="mono">
						
						
						<masterclipid>masterclip-24</masterclipid>
						
						
						<name>0619_0729.MXF</name>
						
						
						<enabled>TRUE</enabled>
						
						
						<duration>45520</duration>
						
						
						<rate>
							
							
							<timebase>24</timebase>
							
							
							<ntsc>TRUE</ntsc>
							
						
						</rate>
						
						
						<start>22709</start>
						
						
						<end>26830</end>
						
						
						<in>25507</in>
						
						
						<out>29628</out>
						
						
						<pproTicksIn>270236054087999</pproTicksIn>
						
						
						<pproTicksOut>313896334752000</pproTicksOut>
						
						
						<file id="file-24"/>
						
						
						<sourcetrack>
							
							
							<mediatype>audio</mediatype>
							
							
							<trackindex>2</trackindex>
							
						
						</sourcetrack>
						
							
						<marker>
							
								
							<comment/>
							
								
							<name/>
							
								
							<in>526</in>
							
								
							<out>-1</out>
							
							
						</marker>
						
						
						<logginginfo>
							
							
							<description/>
							
							
							<scene/>
							
							
							<shottake/>
							
							
							<lognote/>
							
							
							<good/>
							
							
							<originalvideofilename/>
							
							
							<originalaudiofilename/>
							
						
						</logginginfo>
						
						
						<colorinfo>
							
							
							<lut/>
							
							
							<lut1/>
							
							
							<asc_sop/>
							
							
							<asc_sat/>
							
							
							<lut2/>
							
						
						</colorinfo>
						
						
						<labels>
							
							
							<label2>Violet</label2>
							
						
						</labels>
						
					
						<link>
							<linkclipref>clipitem-328</linkclipref>
							<mediatype>video</mediatype>
							<trackindex>1</trackindex>
							<clipindex>5</clipindex>
							<groupindex>1</groupindex>
						</link>
						<link>
							<linkclipref>clipitem-334</linkclipref>
							<mediatype>video</mediatype>
							<trackindex>2</trackindex>
							<clipindex>5</clipindex>
							<groupindex>1</groupindex>
						</link>
						<link>
							<linkclipref>clipitem-340</linkclipref>
							<mediatype>video</mediatype>
							<trackindex>3</trackindex>
							<clipindex>5</clipindex>
							<groupindex>1</groupindex>
						</link>
						<link>
							<linkclipref>clipitem-346</linkclipref>
							<mediatype>audio</mediatype>
							<trackindex>1</trackindex>
							<clipindex>5</clipindex>
							<groupindex>1</groupindex>
						</link>
						<link>
							<linkclipref>clipitem-352</linkclipref>
							<mediatype>audio</mediatype>
							<trackindex>2</trackindex>
							<clipindex>5</clipindex>
							<groupindex>1</groupindex>
						</link>
						<link>
							<linkclipref>clipitem-358</linkclipref>
							<mediatype>audio</mediatype>
							<trackindex>3</trackindex>
							<clipindex>5</clipindex>
							<groupindex>1</groupindex>
						</link>
						<link>
							<linkclipref>clipitem-364</linkclipref>
							<mediatype>audio</mediatype>
							<trackindex>4</trackindex>
							<clipindex>5</clipindex>
							<groupindex>1</groupindex>
						</link>
						<link>
							<linkclipref>clipitem-370</linkclipref>
							<mediatype>audio</mediatype>
							<trackindex>5</trackindex>
							<clipindex>5</clipindex>
							<groupindex>1</groupindex>
						</link>
						<link>
							<linkclipref>clipitem-376</linkclipref>
							<mediatype>audio</mediatype>
							<trackindex>6</trackindex>
							<clipindex>5</clipindex>
							<groupindex>1</groupindex>
						</link>
						<link>
							<linkclipref>clipitem-382</linkclipref>
							<mediatype>audio</mediatype>
							<trackindex>7</trackindex>
							<clipindex>5</clipindex>
							<groupindex>1</groupindex>
						</link>
						<link>
							<linkclipref>clipitem-388</linkclipref>
							<mediatype>audio</mediatype>
							<trackindex>8</trackindex>
							<clipindex>5</clipindex>
							<groupindex>1</groupindex>
						</link>
					</clipitem>
					<clipitem id="clipitem-353" premiereChannelType="mono">
						
						
						<masterclipid>masterclip-24</masterclipid>
						
						
						<name>0619_0729.MXF</name>
						
						
						<enabled>TRUE</enabled>
						
						
						<duration>45520</duration>
						
						
						<rate>
							
							
							<timebase>24</timebase>
							
							
							<ntsc>TRUE</ntsc>
							
						
						</rate>
						
						
						<start>27192</start>
						
						
						<end>41336</end>
						
						
						<in>30669</in>
						
						
						<out>44813</out>
						
						
						<pproTicksIn>324925296696000</pproTicksIn>
						
						
						<pproTicksOut>474775092792000</pproTicksOut>
						
						
						<file id="file-24"/>
						
						
						<sourcetrack>
							
							
							<mediatype>audio</mediatype>
							
							
							<trackindex>2</trackindex>
							
						
						</sourcetrack>
						
							
						<marker>
							
								
							<comment/>
							
								
							<name/>
							
								
							<in>526</in>
							
								
							<out>-1</out>
							
							
						</marker>
						
						
						<logginginfo>
							
							
							<description/>
							
							
							<scene/>
							
							
							<shottake/>
							
							
							<lognote/>
							
							
							<good/>
							
							
							<originalvideofilename/>
							
							
							<originalaudiofilename/>
							
						
						</logginginfo>
						
						
						<colorinfo>
							
							
							<lut/>
							
							
							<lut1/>
							
							
							<asc_sop/>
							
							
							<asc_sat/>
							
							
							<lut2/>
							
						
						</colorinfo>
						
						
						<labels>
							
							
							<label2>Yellow</label2>
							
						
						</labels>
						
					
						<link>
							<linkclipref>clipitem-329</linkclipref>
							<mediatype>video</mediatype>
							<trackindex>1</trackindex>
							<clipindex>6</clipindex>
							<groupindex>1</groupindex>
						</link>
						<link>
							<linkclipref>clipitem-335</linkclipref>
							<mediatype>video</mediatype>
							<trackindex>2</trackindex>
							<clipindex>6</clipindex>
							<groupindex>1</groupindex>
						</link>
						<link>
							<linkclipref>clipitem-341</linkclipref>
							<mediatype>video</mediatype>
							<trackindex>3</trackindex>
							<clipindex>6</clipindex>
							<groupindex>1</groupindex>
						</link>
						<link>
							<linkclipref>clipitem-347</linkclipref>
							<mediatype>audio</mediatype>
							<trackindex>1</trackindex>
							<clipindex>6</clipindex>
							<groupindex>1</groupindex>
						</link>
						<link>
							<linkclipref>clipitem-353</linkclipref>
							<mediatype>audio</mediatype>
							<trackindex>2</trackindex>
							<clipindex>6</clipindex>
							<groupindex>1</groupindex>
						</link>
						<link>
							<linkclipref>clipitem-359</linkclipref>
							<mediatype>audio</mediatype>
							<trackindex>3</trackindex>
							<clipindex>6</clipindex>
							<groupindex>1</groupindex>
						</link>
						<link>
							<linkclipref>clipitem-365</linkclipref>
							<mediatype>audio</mediatype>
							<trackindex>4</trackindex>
							<clipindex>6</clipindex>
							<groupindex>1</groupindex>
						</link>
						<link>
							<linkclipref>clipitem-371</linkclipref>
							<mediatype>audio</mediatype>
							<trackindex>5</trackindex>
							<clipindex>6</clipindex>
							<groupindex>1</groupindex>
						</link>
						<link>
							<linkclipref>clipitem-377</linkclipref>
							<mediatype>audio</mediatype>
							<trackindex>6</trackindex>
							<clipindex>6</clipindex>
							<groupindex>1</groupindex>
						</link>
						<link>
							<linkclipref>clipitem-383</linkclipref>
							<mediatype>audio</mediatype>
							<trackindex>7</trackindex>
							<clipindex>6</clipindex>
							<groupindex>1</groupindex>
						</link>
						<link>
							<linkclipref>clipitem-389</linkclipref>
							<mediatype>audio</mediatype>
							<trackindex>8</trackindex>
							<clipindex>6</clipindex>
							<groupindex>1</groupindex>
						</link>
					</clipitem>
					<enabled>TRUE</enabled>
					<locked>FALSE</locked>
					<outputchannelindex>2</outputchannelindex>
				</track>
				<track TL.SQTrackAudioKeyframeStyle="0" TL.SQTrackShy="0" TL.SQTrackExpandedHeight="41" TL.SQTrackExpanded="0" MZ.TrackTargeted="1" PannerCurrentValue="0.5" PannerIsInverted="true" PannerStartKeyframe="-91445760000000000,0.5,0,0,0,0,0,0" PannerName="Balance" currentExplodedTrackIndex="0" totalExplodedTrackCount="1" premiereTrackType="Stereo">
					<clipitem id="clipitem-354" premiereChannelType="mono">
						
						
						<masterclipid>masterclip-24</masterclipid>
						
						
						<name>0619_0729.MXF</name>
						
						
						<enabled>TRUE</enabled>
						
						
						<duration>45520</duration>
						
						
						<rate>
							
							
							<timebase>24</timebase>
							
							
							<ntsc>TRUE</ntsc>
							
						
						</rate>
						
						
						<start>120</start>
						
						
						<end>4399</end>
						
						
						<in>530</in>
						
						
						<out>4809</out>
						
						
						<pproTicksIn>5615129520000</pproTicksIn>
						
						
						<pproTicksOut>50949354455999</pproTicksOut>
						
						
						<file id="file-24"/>
						
						
						<sourcetrack>
							
							
							<mediatype>audio</mediatype>
							
							
							<trackindex>3</trackindex>
							
						
						</sourcetrack>
						
							
						<marker>
							
								
							<comment/>
							
								
							<name/>
							
								
							<in>526</in>
							
								
							<out>-1</out>
							
							
						</marker>
						
						
						<logginginfo>
							
							
							<description/>
							
							
							<scene/>
							
							
							<shottake/>
							
							
							<lognote/>
							
							
							<good/>
							
							
							<originalvideofilename/>
							
							
							<originalaudiofilename/>
							
						
						</logginginfo>
						
						
						<colorinfo>
							
							
							<lut/>
							
							
							<lut1/>
							
							
							<asc_sop/>
							
							
							<asc_sat/>
							
							
							<lut2/>
							
						
						</colorinfo>
						
						
						<labels>
							
							
							<label2>Caribbean</label2>
							
						
						</labels>
						
					
						<link>
							<linkclipref>clipitem-324</linkclipref>
							<mediatype>video</mediatype>
							<trackindex>1</trackindex>
							<clipindex>1</clipindex>
							<groupindex>1</groupindex>
						</link>
						<link>
							<linkclipref>clipitem-330</linkclipref>
							<mediatype>video</mediatype>
							<trackindex>2</trackindex>
							<clipindex>1</clipindex>
							<groupindex>1</groupindex>
						</link>
						<link>
							<linkclipref>clipitem-336</linkclipref>
							<mediatype>video</mediatype>
							<trackindex>3</trackindex>
							<clipindex>1</clipindex>
							<groupindex>1</groupindex>
						</link>
						<link>
							<linkclipref>clipitem-342</linkclipref>
							<mediatype>audio</mediatype>
							<trackindex>1</trackindex>
							<clipindex>1</clipindex>
							<groupindex>1</groupindex>
						</link>
						<link>
							<linkclipref>clipitem-348</linkclipref>
							<mediatype>audio</mediatype>
							<trackindex>2</trackindex>
							<clipindex>1</clipindex>
							<groupindex>1</groupindex>
						</link>
						<link>
							<linkclipref>clipitem-354</linkclipref>
							<mediatype>audio</mediatype>
							<trackindex>3</trackindex>
							<clipindex>1</clipindex>
							<groupindex>1</groupindex>
						</link>
						<link>
							<linkclipref>clipitem-360</linkclipref>
							<mediatype>audio</mediatype>
							<trackindex>4</trackindex>
							<clipindex>1</clipindex>
							<groupindex>1</groupindex>
						</link>
						<link>
							<linkclipref>clipitem-366</linkclipref>
							<mediatype>audio</mediatype>
							<trackindex>5</trackindex>
							<clipindex>1</clipindex>
							<groupindex>1</groupindex>
						</link>
						<link>
							<linkclipref>clipitem-372</linkclipref>
							<mediatype>audio</mediatype>
							<trackindex>6</trackindex>
							<clipindex>1</clipindex>
							<groupindex>1</groupindex>
						</link>
						<link>
							<linkclipref>clipitem-378</linkclipref>
							<mediatype>audio</mediatype>
							<trackindex>7</trackindex>
							<clipindex>1</clipindex>
							<groupindex>1</groupindex>
						</link>
						<link>
							<linkclipref>clipitem-384</linkclipref>
							<mediatype>audio</mediatype>
							<trackindex>8</trackindex>
							<clipindex>1</clipindex>
							<groupindex>1</groupindex>
						</link>
					</clipitem>
					<clipitem id="clipitem-355" premiereChannelType="mono">
						
						
						<masterclipid>masterclip-24</masterclipid>
						
						
						<name>0619_0729.MXF</name>
						
						
						<enabled>TRUE</enabled>
						
						
						<duration>45520</duration>
						
						
						<rate>
							
							
							<timebase>24</timebase>
							
							
							<ntsc>TRUE</ntsc>
							
						
						</rate>
						
						
						<start>4761</start>
						
						
						<end>14095</end>
						
						
						<in>5074</in>
						
						
						<out>14408</out>
						
						
						<pproTicksIn>53756919215999</pproTicksIn>
						
						
						<pproTicksOut>152646766271999</pproTicksOut>
						
						
						<file id="file-24"/>
						
						
						<sourcetrack>
							
							
							<mediatype>audio</mediatype>
							
							
							<trackindex>3</trackindex>
							
						
						</sourcetrack>
						
							
						<marker>
							
								
							<comment/>
							
								
							<name/>
							
								
							<in>526</in>
							
								
							<out>-1</out>
							
							
						</marker>
						
						
						<logginginfo>
							
							
							<description/>
							
							
							<scene/>
							
							
							<shottake/>
							
							
							<lognote/>
							
							
							<good/>
							
							
							<originalvideofilename/>
							
							
							<originalaudiofilename/>
							
						
						</logginginfo>
						
						
						<colorinfo>
							
							
							<lut/>
							
							
							<lut1/>
							
							
							<asc_sop/>
							
							
							<asc_sat/>
							
							
							<lut2/>
							
						
						</colorinfo>
						
						
						<labels>
							
							
							<label2>Rose</label2>
							
						
						</labels>
						
					
						<link>
							<linkclipref>clipitem-325</linkclipref>
							<mediatype>video</mediatype>
							<trackindex>1</trackindex>
							<clipindex>2</clipindex>
							<groupindex>1</groupindex>
						</link>
						<link>
							<linkclipref>clipitem-331</linkclipref>
							<mediatype>video</mediatype>
							<trackindex>2</trackindex>
							<clipindex>2</clipindex>
							<groupindex>1</groupindex>
						</link>
						<link>
							<linkclipref>clipitem-337</linkclipref>
							<mediatype>video</mediatype>
							<trackindex>3</trackindex>
							<clipindex>2</clipindex>
							<groupindex>1</groupindex>
						</link>
						<link>
							<linkclipref>clipitem-343</linkclipref>
							<mediatype>audio</mediatype>
							<trackindex>1</trackindex>
							<clipindex>2</clipindex>
							<groupindex>1</groupindex>
						</link>
						<link>
							<linkclipref>clipitem-349</linkclipref>
							<mediatype>audio</mediatype>
							<trackindex>2</trackindex>
							<clipindex>2</clipindex>
							<groupindex>1</groupindex>
						</link>
						<link>
							<linkclipref>clipitem-355</linkclipref>
							<mediatype>audio</mediatype>
							<trackindex>3</trackindex>
							<clipindex>2</clipindex>
							<groupindex>1</groupindex>
						</link>
						<link>
							<linkclipref>clipitem-361</linkclipref>
							<mediatype>audio</mediatype>
							<trackindex>4</trackindex>
							<clipindex>2</clipindex>
							<groupindex>1</groupindex>
						</link>
						<link>
							<linkclipref>clipitem-367</linkclipref>
							<mediatype>audio</mediatype>
							<trackindex>5</trackindex>
							<clipindex>2</clipindex>
							<groupindex>1</groupindex>
						</link>
						<link>
							<linkclipref>clipitem-373</linkclipref>
							<mediatype>audio</mediatype>
							<trackindex>6</trackindex>
							<clipindex>2</clipindex>
							<groupindex>1</groupindex>
						</link>
						<link>
							<linkclipref>clipitem-379</linkclipref>
							<mediatype>audio</mediatype>
							<trackindex>7</trackindex>
							<clipindex>2</clipindex>
							<groupindex>1</groupindex>
						</link>
						<link>
							<linkclipref>clipitem-385</linkclipref>
							<mediatype>audio</mediatype>
							<trackindex>8</trackindex>
							<clipindex>2</clipindex>
							<groupindex>1</groupindex>
						</link>
					</clipitem>
					<clipitem id="clipitem-356" premiereChannelType="mono">
						
						
						<masterclipid>masterclip-24</masterclipid>
						
						
						<name>0619_0729.MXF</name>
						
						
						<enabled>TRUE</enabled>
						
						
						<duration>45520</duration>
						
						
						<rate>
							
							
							<timebase>24</timebase>
							
							
							<ntsc>TRUE</ntsc>
							
						
						</rate>
						
						
						<start>14457</start>
						
						
						<end>18809</end>
						
						
						<in>15769</in>
						
						
						<out>20121</out>
						
						
						<pproTicksIn>167065995096000</pproTicksIn>
						
						
						<pproTicksOut>213173624663999</pproTicksOut>
						
						
						<file id="file-24"/>
						
						
						<sourcetrack>
							
							
							<mediatype>audio</mediatype>
							
							
							<trackindex>3</trackindex>
							
						
						</sourcetrack>
						
							
						<marker>
							
								
							<comment/>
							
								
							<name/>
							
								
							<in>526</in>
							
								
							<out>-1</out>
							
							
						</marker>
						
						
						<logginginfo>
							
							
							<description/>
							
							
							<scene/>
							
							
							<shottake/>
							
							
							<lognote/>
							
							
							<good/>
							
							
							<originalvideofilename/>
							
							
							<originalaudiofilename/>
							
						
						</logginginfo>
						
						
						<colorinfo>
							
							
							<lut/>
							
							
							<lut1/>
							
							
							<asc_sop/>
							
							
							<asc_sat/>
							
							
							<lut2/>
							
						
						</colorinfo>
						
						
						<labels>
							
							
							<label2>Lavender</label2>
							
						
						</labels>
						
					
						<link>
							<linkclipref>clipitem-326</linkclipref>
							<mediatype>video</mediatype>
							<trackindex>1</trackindex>
							<clipindex>3</clipindex>
							<groupindex>1</groupindex>
						</link>
						<link>
							<linkclipref>clipitem-332</linkclipref>
							<mediatype>video</mediatype>
							<trackindex>2</trackindex>
							<clipindex>3</clipindex>
							<groupindex>1</groupindex>
						</link>
						<link>
							<linkclipref>clipitem-338</linkclipref>
							<mediatype>video</mediatype>
							<trackindex>3</trackindex>
							<clipindex>3</clipindex>
							<groupindex>1</groupindex>
						</link>
						<link>
							<linkclipref>clipitem-344</linkclipref>
							<mediatype>audio</mediatype>
							<trackindex>1</trackindex>
							<clipindex>3</clipindex>
							<groupindex>1</groupindex>
						</link>
						<link>
							<linkclipref>clipitem-350</linkclipref>
							<mediatype>audio</mediatype>
							<trackindex>2</trackindex>
							<clipindex>3</clipindex>
							<groupindex>1</groupindex>
						</link>
						<link>
							<linkclipref>clipitem-356</linkclipref>
							<mediatype>audio</mediatype>
							<trackindex>3</trackindex>
							<clipindex>3</clipindex>
							<groupindex>1</groupindex>
						</link>
						<link>
							<linkclipref>clipitem-362</linkclipref>
							<mediatype>audio</mediatype>
							<trackindex>4</trackindex>
							<clipindex>3</clipindex>
							<groupindex>1</groupindex>
						</link>
						<link>
							<linkclipref>clipitem-368</linkclipref>
							<mediatype>audio</mediatype>
							<trackindex>5</trackindex>
							<clipindex>3</clipindex>
							<groupindex>1</groupindex>
						</link>
						<link>
							<linkclipref>clipitem-374</linkclipref>
							<mediatype>audio</mediatype>
							<trackindex>6</trackindex>
							<clipindex>3</clipindex>
							<groupindex>1</groupindex>
						</link>
						<link>
							<linkclipref>clipitem-380</linkclipref>
							<mediatype>audio</mediatype>
							<trackindex>7</trackindex>
							<clipindex>3</clipindex>
							<groupindex>1</groupindex>
						</link>
						<link>
							<linkclipref>clipitem-386</linkclipref>
							<mediatype>audio</mediatype>
							<trackindex>8</trackindex>
							<clipindex>3</clipindex>
							<groupindex>1</groupindex>
						</link>
					</clipitem>
					<clipitem id="clipitem-357" premiereChannelType="mono">
						
						
						<masterclipid>masterclip-24</masterclipid>
						
						
						<name>0619_0729.MXF</name>
						
						
						<enabled>TRUE</enabled>
						
						
						<duration>45520</duration>
						
						
						<rate>
							
							
							<timebase>24</timebase>
							
							
							<ntsc>TRUE</ntsc>
							
						
						</rate>
						
						
						<start>19171</start>
						
						
						<end>22347</end>
						
						
						<in>21284</in>
						
						
						<out>24460</out>
						
						
						<pproTicksIn>225495125856000</pproTicksIn>
						
						
						<pproTicksOut>259143524639999</pproTicksOut>
						
						
						<file id="file-24"/>
						
						
						<sourcetrack>
							
							
							<mediatype>audio</mediatype>
							
							
							<trackindex>3</trackindex>
							
						
						</sourcetrack>
						
							
						<marker>
							
								
							<comment/>
							
								
							<name/>
							
								
							<in>526</in>
							
								
							<out>-1</out>
							
							
						</marker>
						
						
						<logginginfo>
							
							
							<description/>
							
							
							<scene/>
							
							
							<shottake/>
							
							
							<lognote/>
							
							
							<good/>
							
							
							<originalvideofilename/>
							
							
							<originalaudiofilename/>
							
						
						</logginginfo>
						
						
						<colorinfo>
							
							
							<lut/>
							
							
							<lut1/>
							
							
							<asc_sop/>
							
							
							<asc_sat/>
							
							
							<lut2/>
							
						
						</colorinfo>
						
						
						<labels>
							
							
							<label2>Yellow</label2>
							
						
						</labels>
						
					
						<link>
							<linkclipref>clipitem-327</linkclipref>
							<mediatype>video</mediatype>
							<trackindex>1</trackindex>
							<clipindex>4</clipindex>
							<groupindex>1</groupindex>
						</link>
						<link>
							<linkclipref>clipitem-333</linkclipref>
							<mediatype>video</mediatype>
							<trackindex>2</trackindex>
							<clipindex>4</clipindex>
							<groupindex>1</groupindex>
						</link>
						<link>
							<linkclipref>clipitem-339</linkclipref>
							<mediatype>video</mediatype>
							<trackindex>3</trackindex>
							<clipindex>4</clipindex>
							<groupindex>1</groupindex>
						</link>
						<link>
							<linkclipref>clipitem-345</linkclipref>
							<mediatype>audio</mediatype>
							<trackindex>1</trackindex>
							<clipindex>4</clipindex>
							<groupindex>1</groupindex>
						</link>
						<link>
							<linkclipref>clipitem-351</linkclipref>
							<mediatype>audio</mediatype>
							<trackindex>2</trackindex>
							<clipindex>4</clipindex>
							<groupindex>1</groupindex>
						</link>
						<link>
							<linkclipref>clipitem-357</linkclipref>
							<mediatype>audio</mediatype>
							<trackindex>3</trackindex>
							<clipindex>4</clipindex>
							<groupindex>1</groupindex>
						</link>
						<link>
							<linkclipref>clipitem-363</linkclipref>
							<mediatype>audio</mediatype>
							<trackindex>4</trackindex>
							<clipindex>4</clipindex>
							<groupindex>1</groupindex>
						</link>
						<link>
							<linkclipref>clipitem-369</linkclipref>
							<mediatype>audio</mediatype>
							<trackindex>5</trackindex>
							<clipindex>4</clipindex>
							<groupindex>1</groupindex>
						</link>
						<link>
							<linkclipref>clipitem-375</linkclipref>
							<mediatype>audio</mediatype>
							<trackindex>6</trackindex>
							<clipindex>4</clipindex>
							<groupindex>1</groupindex>
						</link>
						<link>
							<linkclipref>clipitem-381</linkclipref>
							<mediatype>audio</mediatype>
							<trackindex>7</trackindex>
							<clipindex>4</clipindex>
							<groupindex>1</groupindex>
						</link>
						<link>
							<linkclipref>clipitem-387</linkclipref>
							<mediatype>audio</mediatype>
							<trackindex>8</trackindex>
							<clipindex>4</clipindex>
							<groupindex>1</groupindex>
						</link>
					</clipitem>
					<clipitem id="clipitem-358" premiereChannelType="mono">
						
						
						<masterclipid>masterclip-24</masterclipid>
						
						
						<name>0619_0729.MXF</name>
						
						
						<enabled>TRUE</enabled>
						
						
						<duration>45520</duration>
						
						
						<rate>
							
							
							<timebase>24</timebase>
							
							
							<ntsc>TRUE</ntsc>
							
						
						</rate>
						
						
						<start>22709</start>
						
						
						<end>26830</end>
						
						
						<in>25507</in>
						
						
						<out>29628</out>
						
						
						<pproTicksIn>270236054087999</pproTicksIn>
						
						
						<pproTicksOut>313896334752000</pproTicksOut>
						
						
						<file id="file-24"/>
						
						
						<sourcetrack>
							
							
							<mediatype>audio</mediatype>
							
							
							<trackindex>3</trackindex>
							
						
						</sourcetrack>
						
							
						<marker>
							
								
							<comment/>
							
								
							<name/>
							
								
							<in>526</in>
							
								
							<out>-1</out>
							
							
						</marker>
						
						
						<logginginfo>
							
							
							<description/>
							
							
							<scene/>
							
							
							<shottake/>
							
							
							<lognote/>
							
							
							<good/>
							
							
							<originalvideofilename/>
							
							
							<originalaudiofilename/>
							
						
						</logginginfo>
						
						
						<colorinfo>
							
							
							<lut/>
							
							
							<lut1/>
							
							
							<asc_sop/>
							
							
							<asc_sat/>
							
							
							<lut2/>
							
						
						</colorinfo>
						
						
						<labels>
							
							
							<label2>Violet</label2>
							
						
						</labels>
						
					
						<link>
							<linkclipref>clipitem-328</linkclipref>
							<mediatype>video</mediatype>
							<trackindex>1</trackindex>
							<clipindex>5</clipindex>
							<groupindex>1</groupindex>
						</link>
						<link>
							<linkclipref>clipitem-334</linkclipref>
							<mediatype>video</mediatype>
							<trackindex>2</trackindex>
							<clipindex>5</clipindex>
							<groupindex>1</groupindex>
						</link>
						<link>
							<linkclipref>clipitem-340</linkclipref>
							<mediatype>video</mediatype>
							<trackindex>3</trackindex>
							<clipindex>5</clipindex>
							<groupindex>1</groupindex>
						</link>
						<link>
							<linkclipref>clipitem-346</linkclipref>
							<mediatype>audio</mediatype>
							<trackindex>1</trackindex>
							<clipindex>5</clipindex>
							<groupindex>1</groupindex>
						</link>
						<link>
							<linkclipref>clipitem-352</linkclipref>
							<mediatype>audio</mediatype>
							<trackindex>2</trackindex>
							<clipindex>5</clipindex>
							<groupindex>1</groupindex>
						</link>
						<link>
							<linkclipref>clipitem-358</linkclipref>
							<mediatype>audio</mediatype>
							<trackindex>3</trackindex>
							<clipindex>5</clipindex>
							<groupindex>1</groupindex>
						</link>
						<link>
							<linkclipref>clipitem-364</linkclipref>
							<mediatype>audio</mediatype>
							<trackindex>4</trackindex>
							<clipindex>5</clipindex>
							<groupindex>1</groupindex>
						</link>
						<link>
							<linkclipref>clipitem-370</linkclipref>
							<mediatype>audio</mediatype>
							<trackindex>5</trackindex>
							<clipindex>5</clipindex>
							<groupindex>1</groupindex>
						</link>
						<link>
							<linkclipref>clipitem-376</linkclipref>
							<mediatype>audio</mediatype>
							<trackindex>6</trackindex>
							<clipindex>5</clipindex>
							<groupindex>1</groupindex>
						</link>
						<link>
							<linkclipref>clipitem-382</linkclipref>
							<mediatype>audio</mediatype>
							<trackindex>7</trackindex>
							<clipindex>5</clipindex>
							<groupindex>1</groupindex>
						</link>
						<link>
							<linkclipref>clipitem-388</linkclipref>
							<mediatype>audio</mediatype>
							<trackindex>8</trackindex>
							<clipindex>5</clipindex>
							<groupindex>1</groupindex>
						</link>
					</clipitem>
					<clipitem id="clipitem-359" premiereChannelType="mono">
						
						
						<masterclipid>masterclip-24</masterclipid>
						
						
						<name>0619_0729.MXF</name>
						
						
						<enabled>TRUE</enabled>
						
						
						<duration>45520</duration>
						
						
						<rate>
							
							
							<timebase>24</timebase>
							
							
							<ntsc>TRUE</ntsc>
							
						
						</rate>
						
						
						<start>27192</start>
						
						
						<end>41336</end>
						
						
						<in>30669</in>
						
						
						<out>44813</out>
						
						
						<pproTicksIn>324925296696000</pproTicksIn>
						
						
						<pproTicksOut>474775092792000</pproTicksOut>
						
						
						<file id="file-24"/>
						
						
						<sourcetrack>
							
							
							<mediatype>audio</mediatype>
							
							
							<trackindex>3</trackindex>
							
						
						</sourcetrack>
						
							
						<marker>
							
								
							<comment/>
							
								
							<name/>
							
								
							<in>526</in>
							
								
							<out>-1</out>
							
							
						</marker>
						
						
						<logginginfo>
							
							
							<description/>
							
							
							<scene/>
							
							
							<shottake/>
							
							
							<lognote/>
							
							
							<good/>
							
							
							<originalvideofilename/>
							
							
							<originalaudiofilename/>
							
						
						</logginginfo>
						
						
						<colorinfo>
							
							
							<lut/>
							
							
							<lut1/>
							
							
							<asc_sop/>
							
							
							<asc_sat/>
							
							
							<lut2/>
							
						
						</colorinfo>
						
						
						<labels>
							
							
							<label2>Yellow</label2>
							
						
						</labels>
						
					
						<link>
							<linkclipref>clipitem-329</linkclipref>
							<mediatype>video</mediatype>
							<trackindex>1</trackindex>
							<clipindex>6</clipindex>
							<groupindex>1</groupindex>
						</link>
						<link>
							<linkclipref>clipitem-335</linkclipref>
							<mediatype>video</mediatype>
							<trackindex>2</trackindex>
							<clipindex>6</clipindex>
							<groupindex>1</groupindex>
						</link>
						<link>
							<linkclipref>clipitem-341</linkclipref>
							<mediatype>video</mediatype>
							<trackindex>3</trackindex>
							<clipindex>6</clipindex>
							<groupindex>1</groupindex>
						</link>
						<link>
							<linkclipref>clipitem-347</linkclipref>
							<mediatype>audio</mediatype>
							<trackindex>1</trackindex>
							<clipindex>6</clipindex>
							<groupindex>1</groupindex>
						</link>
						<link>
							<linkclipref>clipitem-353</linkclipref>
							<mediatype>audio</mediatype>
							<trackindex>2</trackindex>
							<clipindex>6</clipindex>
							<groupindex>1</groupindex>
						</link>
						<link>
							<linkclipref>clipitem-359</linkclipref>
							<mediatype>audio</mediatype>
							<trackindex>3</trackindex>
							<clipindex>6</clipindex>
							<groupindex>1</groupindex>
						</link>
						<link>
							<linkclipref>clipitem-365</linkclipref>
							<mediatype>audio</mediatype>
							<trackindex>4</trackindex>
							<clipindex>6</clipindex>
							<groupindex>1</groupindex>
						</link>
						<link>
							<linkclipref>clipitem-371</linkclipref>
							<mediatype>audio</mediatype>
							<trackindex>5</trackindex>
							<clipindex>6</clipindex>
							<groupindex>1</groupindex>
						</link>
						<link>
							<linkclipref>clipitem-377</linkclipref>
							<mediatype>audio</mediatype>
							<trackindex>6</trackindex>
							<clipindex>6</clipindex>
							<groupindex>1</groupindex>
						</link>
						<link>
							<linkclipref>clipitem-383</linkclipref>
							<mediatype>audio</mediatype>
							<trackindex>7</trackindex>
							<clipindex>6</clipindex>
							<groupindex>1</groupindex>
						</link>
						<link>
							<linkclipref>clipitem-389</linkclipref>
							<mediatype>audio</mediatype>
							<trackindex>8</trackindex>
							<clipindex>6</clipindex>
							<groupindex>1</groupindex>
						</link>
					</clipitem>
					<enabled>TRUE</enabled>
					<locked>FALSE</locked>
					<outputchannelindex>1</outputchannelindex>
				</track>
				<track TL.SQTrackAudioKeyframeStyle="0" TL.SQTrackShy="0" TL.SQTrackExpandedHeight="41" TL.SQTrackExpanded="0" MZ.TrackTargeted="1" PannerCurrentValue="0.5" PannerIsInverted="true" PannerStartKeyframe="-91445760000000000,0.5,0,0,0,0,0,0" PannerName="Balance" currentExplodedTrackIndex="0" totalExplodedTrackCount="1" premiereTrackType="Stereo">
					<clipitem id="clipitem-360" premiereChannelType="mono">
						
						
						<masterclipid>masterclip-24</masterclipid>
						
						
						<name>0619_0729.MXF</name>
						
						
						<enabled>TRUE</enabled>
						
						
						<duration>45520</duration>
						
						
						<rate>
							
							
							<timebase>24</timebase>
							
							
							<ntsc>TRUE</ntsc>
							
						
						</rate>
						
						
						<start>120</start>
						
						
						<end>4399</end>
						
						
						<in>530</in>
						
						
						<out>4809</out>
						
						
						<pproTicksIn>5615129520000</pproTicksIn>
						
						
						<pproTicksOut>50949354455999</pproTicksOut>
						
						
						<file id="file-24"/>
						
						
						<sourcetrack>
							
							
							<mediatype>audio</mediatype>
							
							
							<trackindex>4</trackindex>
							
						
						</sourcetrack>
						
							
						<marker>
							
								
							<comment/>
							
								
							<name/>
							
								
							<in>526</in>
							
								
							<out>-1</out>
							
							
						</marker>
						
						
						<logginginfo>
							
							
							<description/>
							
							
							<scene/>
							
							
							<shottake/>
							
							
							<lognote/>
							
							
							<good/>
							
							
							<originalvideofilename/>
							
							
							<originalaudiofilename/>
							
						
						</logginginfo>
						
						
						<colorinfo>
							
							
							<lut/>
							
							
							<lut1/>
							
							
							<asc_sop/>
							
							
							<asc_sat/>
							
							
							<lut2/>
							
						
						</colorinfo>
						
						
						<labels>
							
							
							<label2>Caribbean</label2>
							
						
						</labels>
						
					
						<link>
							<linkclipref>clipitem-324</linkclipref>
							<mediatype>video</mediatype>
							<trackindex>1</trackindex>
							<clipindex>1</clipindex>
							<groupindex>1</groupindex>
						</link>
						<link>
							<linkclipref>clipitem-330</linkclipref>
							<mediatype>video</mediatype>
							<trackindex>2</trackindex>
							<clipindex>1</clipindex>
							<groupindex>1</groupindex>
						</link>
						<link>
							<linkclipref>clipitem-336</linkclipref>
							<mediatype>video</mediatype>
							<trackindex>3</trackindex>
							<clipindex>1</clipindex>
							<groupindex>1</groupindex>
						</link>
						<link>
							<linkclipref>clipitem-342</linkclipref>
							<mediatype>audio</mediatype>
							<trackindex>1</trackindex>
							<clipindex>1</clipindex>
							<groupindex>1</groupindex>
						</link>
						<link>
							<linkclipref>clipitem-348</linkclipref>
							<mediatype>audio</mediatype>
							<trackindex>2</trackindex>
							<clipindex>1</clipindex>
							<groupindex>1</groupindex>
						</link>
						<link>
							<linkclipref>clipitem-354</linkclipref>
							<mediatype>audio</mediatype>
							<trackindex>3</trackindex>
							<clipindex>1</clipindex>
							<groupindex>1</groupindex>
						</link>
						<link>
							<linkclipref>clipitem-360</linkclipref>
							<mediatype>audio</mediatype>
							<trackindex>4</trackindex>
							<clipindex>1</clipindex>
							<groupindex>1</groupindex>
						</link>
						<link>
							<linkclipref>clipitem-366</linkclipref>
							<mediatype>audio</mediatype>
							<trackindex>5</trackindex>
							<clipindex>1</clipindex>
							<groupindex>1</groupindex>
						</link>
						<link>
							<linkclipref>clipitem-372</linkclipref>
							<mediatype>audio</mediatype>
							<trackindex>6</trackindex>
							<clipindex>1</clipindex>
							<groupindex>1</groupindex>
						</link>
						<link>
							<linkclipref>clipitem-378</linkclipref>
							<mediatype>audio</mediatype>
							<trackindex>7</trackindex>
							<clipindex>1</clipindex>
							<groupindex>1</groupindex>
						</link>
						<link>
							<linkclipref>clipitem-384</linkclipref>
							<mediatype>audio</mediatype>
							<trackindex>8</trackindex>
							<clipindex>1</clipindex>
							<groupindex>1</groupindex>
						</link>
					</clipitem>
					<clipitem id="clipitem-361" premiereChannelType="mono">
						
						
						<masterclipid>masterclip-24</masterclipid>
						
						
						<name>0619_0729.MXF</name>
						
						
						<enabled>TRUE</enabled>
						
						
						<duration>45520</duration>
						
						
						<rate>
							
							
							<timebase>24</timebase>
							
							
							<ntsc>TRUE</ntsc>
							
						
						</rate>
						
						
						<start>4761</start>
						
						
						<end>14095</end>
						
						
						<in>5074</in>
						
						
						<out>14408</out>
						
						
						<pproTicksIn>53756919215999</pproTicksIn>
						
						
						<pproTicksOut>152646766271999</pproTicksOut>
						
						
						<file id="file-24"/>
						
						
						<sourcetrack>
							
							
							<mediatype>audio</mediatype>
							
							
							<trackindex>4</trackindex>
							
						
						</sourcetrack>
						
							
						<marker>
							
								
							<comment/>
							
								
							<name/>
							
								
							<in>526</in>
							
								
							<out>-1</out>
							
							
						</marker>
						
						
						<logginginfo>
							
							
							<description/>
							
							
							<scene/>
							
							
							<shottake/>
							
							
							<lognote/>
							
							
							<good/>
							
							
							<originalvideofilename/>
							
							
							<originalaudiofilename/>
							
						
						</logginginfo>
						
						
						<colorinfo>
							
							
							<lut/>
							
							
							<lut1/>
							
							
							<asc_sop/>
							
							
							<asc_sat/>
							
							
							<lut2/>
							
						
						</colorinfo>
						
						
						<labels>
							
							
							<label2>Rose</label2>
							
						
						</labels>
						
					
						<link>
							<linkclipref>clipitem-325</linkclipref>
							<mediatype>video</mediatype>
							<trackindex>1</trackindex>
							<clipindex>2</clipindex>
							<groupindex>1</groupindex>
						</link>
						<link>
							<linkclipref>clipitem-331</linkclipref>
							<mediatype>video</mediatype>
							<trackindex>2</trackindex>
							<clipindex>2</clipindex>
							<groupindex>1</groupindex>
						</link>
						<link>
							<linkclipref>clipitem-337</linkclipref>
							<mediatype>video</mediatype>
							<trackindex>3</trackindex>
							<clipindex>2</clipindex>
							<groupindex>1</groupindex>
						</link>
						<link>
							<linkclipref>clipitem-343</linkclipref>
							<mediatype>audio</mediatype>
							<trackindex>1</trackindex>
							<clipindex>2</clipindex>
							<groupindex>1</groupindex>
						</link>
						<link>
							<linkclipref>clipitem-349</linkclipref>
							<mediatype>audio</mediatype>
							<trackindex>2</trackindex>
							<clipindex>2</clipindex>
							<groupindex>1</groupindex>
						</link>
						<link>
							<linkclipref>clipitem-355</linkclipref>
							<mediatype>audio</mediatype>
							<trackindex>3</trackindex>
							<clipindex>2</clipindex>
							<groupindex>1</groupindex>
						</link>
						<link>
							<linkclipref>clipitem-361</linkclipref>
							<mediatype>audio</mediatype>
							<trackindex>4</trackindex>
							<clipindex>2</clipindex>
							<groupindex>1</groupindex>
						</link>
						<link>
							<linkclipref>clipitem-367</linkclipref>
							<mediatype>audio</mediatype>
							<trackindex>5</trackindex>
							<clipindex>2</clipindex>
							<groupindex>1</groupindex>
						</link>
						<link>
							<linkclipref>clipitem-373</linkclipref>
							<mediatype>audio</mediatype>
							<trackindex>6</trackindex>
							<clipindex>2</clipindex>
							<groupindex>1</groupindex>
						</link>
						<link>
							<linkclipref>clipitem-379</linkclipref>
							<mediatype>audio</mediatype>
							<trackindex>7</trackindex>
							<clipindex>2</clipindex>
							<groupindex>1</groupindex>
						</link>
						<link>
							<linkclipref>clipitem-385</linkclipref>
							<mediatype>audio</mediatype>
							<trackindex>8</trackindex>
							<clipindex>2</clipindex>
							<groupindex>1</groupindex>
						</link>
					</clipitem>
					<clipitem id="clipitem-362" premiereChannelType="mono">
						
						
						<masterclipid>masterclip-24</masterclipid>
						
						
						<name>0619_0729.MXF</name>
						
						
						<enabled>TRUE</enabled>
						
						
						<duration>45520</duration>
						
						
						<rate>
							
							
							<timebase>24</timebase>
							
							
							<ntsc>TRUE</ntsc>
							
						
						</rate>
						
						
						<start>14457</start>
						
						
						<end>18809</end>
						
						
						<in>15769</in>
						
						
						<out>20121</out>
						
						
						<pproTicksIn>167065995096000</pproTicksIn>
						
						
						<pproTicksOut>213173624663999</pproTicksOut>
						
						
						<file id="file-24"/>
						
						
						<sourcetrack>
							
							
							<mediatype>audio</mediatype>
							
							
							<trackindex>4</trackindex>
							
						
						</sourcetrack>
						
							
						<marker>
							
								
							<comment/>
							
								
							<name/>
							
								
							<in>526</in>
							
								
							<out>-1</out>
							
							
						</marker>
						
						
						<logginginfo>
							
							
							<description/>
							
							
							<scene/>
							
							
							<shottake/>
							
							
							<lognote/>
							
							
							<good/>
							
							
							<originalvideofilename/>
							
							
							<originalaudiofilename/>
							
						
						</logginginfo>
						
						
						<colorinfo>
							
							
							<lut/>
							
							
							<lut1/>
							
							
							<asc_sop/>
							
							
							<asc_sat/>
							
							
							<lut2/>
							
						
						</colorinfo>
						
						
						<labels>
							
							
							<label2>Lavender</label2>
							
						
						</labels>
						
					
						<link>
							<linkclipref>clipitem-326</linkclipref>
							<mediatype>video</mediatype>
							<trackindex>1</trackindex>
							<clipindex>3</clipindex>
							<groupindex>1</groupindex>
						</link>
						<link>
							<linkclipref>clipitem-332</linkclipref>
							<mediatype>video</mediatype>
							<trackindex>2</trackindex>
							<clipindex>3</clipindex>
							<groupindex>1</groupindex>
						</link>
						<link>
							<linkclipref>clipitem-338</linkclipref>
							<mediatype>video</mediatype>
							<trackindex>3</trackindex>
							<clipindex>3</clipindex>
							<groupindex>1</groupindex>
						</link>
						<link>
							<linkclipref>clipitem-344</linkclipref>
							<mediatype>audio</mediatype>
							<trackindex>1</trackindex>
							<clipindex>3</clipindex>
							<groupindex>1</groupindex>
						</link>
						<link>
							<linkclipref>clipitem-350</linkclipref>
							<mediatype>audio</mediatype>
							<trackindex>2</trackindex>
							<clipindex>3</clipindex>
							<groupindex>1</groupindex>
						</link>
						<link>
							<linkclipref>clipitem-356</linkclipref>
							<mediatype>audio</mediatype>
							<trackindex>3</trackindex>
							<clipindex>3</clipindex>
							<groupindex>1</groupindex>
						</link>
						<link>
							<linkclipref>clipitem-362</linkclipref>
							<mediatype>audio</mediatype>
							<trackindex>4</trackindex>
							<clipindex>3</clipindex>
							<groupindex>1</groupindex>
						</link>
						<link>
							<linkclipref>clipitem-368</linkclipref>
							<mediatype>audio</mediatype>
							<trackindex>5</trackindex>
							<clipindex>3</clipindex>
							<groupindex>1</groupindex>
						</link>
						<link>
							<linkclipref>clipitem-374</linkclipref>
							<mediatype>audio</mediatype>
							<trackindex>6</trackindex>
							<clipindex>3</clipindex>
							<groupindex>1</groupindex>
						</link>
						<link>
							<linkclipref>clipitem-380</linkclipref>
							<mediatype>audio</mediatype>
							<trackindex>7</trackindex>
							<clipindex>3</clipindex>
							<groupindex>1</groupindex>
						</link>
						<link>
							<linkclipref>clipitem-386</linkclipref>
							<mediatype>audio</mediatype>
							<trackindex>8</trackindex>
							<clipindex>3</clipindex>
							<groupindex>1</groupindex>
						</link>
					</clipitem>
					<clipitem id="clipitem-363" premiereChannelType="mono">
						
						
						<masterclipid>masterclip-24</masterclipid>
						
						
						<name>0619_0729.MXF</name>
						
						
						<enabled>TRUE</enabled>
						
						
						<duration>45520</duration>
						
						
						<rate>
							
							
							<timebase>24</timebase>
							
							
							<ntsc>TRUE</ntsc>
							
						
						</rate>
						
						
						<start>19171</start>
						
						
						<end>22347</end>
						
						
						<in>21284</in>
						
						
						<out>24460</out>
						
						
						<pproTicksIn>225495125856000</pproTicksIn>
						
						
						<pproTicksOut>259143524639999</pproTicksOut>
						
						
						<file id="file-24"/>
						
						
						<sourcetrack>
							
							
							<mediatype>audio</mediatype>
							
							
							<trackindex>4</trackindex>
							
						
						</sourcetrack>
						
							
						<marker>
							
								
							<comment/>
							
								
							<name/>
							
								
							<in>526</in>
							
								
							<out>-1</out>
							
							
						</marker>
						
						
						<logginginfo>
							
							
							<description/>
							
							
							<scene/>
							
							
							<shottake/>
							
							
							<lognote/>
							
							
							<good/>
							
							
							<originalvideofilename/>
							
							
							<originalaudiofilename/>
							
						
						</logginginfo>
						
						
						<colorinfo>
							
							
							<lut/>
							
							
							<lut1/>
							
							
							<asc_sop/>
							
							
							<asc_sat/>
							
							
							<lut2/>
							
						
						</colorinfo>
						
						
						<labels>
							
							
							<label2>Yellow</label2>
							
						
						</labels>
						
					
						<link>
							<linkclipref>clipitem-327</linkclipref>
							<mediatype>video</mediatype>
							<trackindex>1</trackindex>
							<clipindex>4</clipindex>
							<groupindex>1</groupindex>
						</link>
						<link>
							<linkclipref>clipitem-333</linkclipref>
							<mediatype>video</mediatype>
							<trackindex>2</trackindex>
							<clipindex>4</clipindex>
							<groupindex>1</groupindex>
						</link>
						<link>
							<linkclipref>clipitem-339</linkclipref>
							<mediatype>video</mediatype>
							<trackindex>3</trackindex>
							<clipindex>4</clipindex>
							<groupindex>1</groupindex>
						</link>
						<link>
							<linkclipref>clipitem-345</linkclipref>
							<mediatype>audio</mediatype>
							<trackindex>1</trackindex>
							<clipindex>4</clipindex>
							<groupindex>1</groupindex>
						</link>
						<link>
							<linkclipref>clipitem-351</linkclipref>
							<mediatype>audio</mediatype>
							<trackindex>2</trackindex>
							<clipindex>4</clipindex>
							<groupindex>1</groupindex>
						</link>
						<link>
							<linkclipref>clipitem-357</linkclipref>
							<mediatype>audio</mediatype>
							<trackindex>3</trackindex>
							<clipindex>4</clipindex>
							<groupindex>1</groupindex>
						</link>
						<link>
							<linkclipref>clipitem-363</linkclipref>
							<mediatype>audio</mediatype>
							<trackindex>4</trackindex>
							<clipindex>4</clipindex>
							<groupindex>1</groupindex>
						</link>
						<link>
							<linkclipref>clipitem-369</linkclipref>
							<mediatype>audio</mediatype>
							<trackindex>5</trackindex>
							<clipindex>4</clipindex>
							<groupindex>1</groupindex>
						</link>
						<link>
							<linkclipref>clipitem-375</linkclipref>
							<mediatype>audio</mediatype>
							<trackindex>6</trackindex>
							<clipindex>4</clipindex>
							<groupindex>1</groupindex>
						</link>
						<link>
							<linkclipref>clipitem-381</linkclipref>
							<mediatype>audio</mediatype>
							<trackindex>7</trackindex>
							<clipindex>4</clipindex>
							<groupindex>1</groupindex>
						</link>
						<link>
							<linkclipref>clipitem-387</linkclipref>
							<mediatype>audio</mediatype>
							<trackindex>8</trackindex>
							<clipindex>4</clipindex>
							<groupindex>1</groupindex>
						</link>
					</clipitem>
					<clipitem id="clipitem-364" premiereChannelType="mono">
						
						
						<masterclipid>masterclip-24</masterclipid>
						
						
						<name>0619_0729.MXF</name>
						
						
						<enabled>TRUE</enabled>
						
						
						<duration>45520</duration>
						
						
						<rate>
							
							
							<timebase>24</timebase>
							
							
							<ntsc>TRUE</ntsc>
							
						
						</rate>
						
						
						<start>22709</start>
						
						
						<end>26830</end>
						
						
						<in>25507</in>
						
						
						<out>29628</out>
						
						
						<pproTicksIn>270236054087999</pproTicksIn>
						
						
						<pproTicksOut>313896334752000</pproTicksOut>
						
						
						<file id="file-24"/>
						
						
						<sourcetrack>
							
							
							<mediatype>audio</mediatype>
							
							
							<trackindex>4</trackindex>
							
						
						</sourcetrack>
						
							
						<marker>
							
								
							<comment/>
							
								
							<name/>
							
								
							<in>526</in>
							
								
							<out>-1</out>
							
							
						</marker>
						
						
						<logginginfo>
							
							
							<description/>
							
							
							<scene/>
							
							
							<shottake/>
							
							
							<lognote/>
							
							
							<good/>
							
							
							<originalvideofilename/>
							
							
							<originalaudiofilename/>
							
						
						</logginginfo>
						
						
						<colorinfo>
							
							
							<lut/>
							
							
							<lut1/>
							
							
							<asc_sop/>
							
							
							<asc_sat/>
							
							
							<lut2/>
							
						
						</colorinfo>
						
						
						<labels>
							
							
							<label2>Violet</label2>
							
						
						</labels>
						
					
						<link>
							<linkclipref>clipitem-328</linkclipref>
							<mediatype>video</mediatype>
							<trackindex>1</trackindex>
							<clipindex>5</clipindex>
							<groupindex>1</groupindex>
						</link>
						<link>
							<linkclipref>clipitem-334</linkclipref>
							<mediatype>video</mediatype>
							<trackindex>2</trackindex>
							<clipindex>5</clipindex>
							<groupindex>1</groupindex>
						</link>
						<link>
							<linkclipref>clipitem-340</linkclipref>
							<mediatype>video</mediatype>
							<trackindex>3</trackindex>
							<clipindex>5</clipindex>
							<groupindex>1</groupindex>
						</link>
						<link>
							<linkclipref>clipitem-346</linkclipref>
							<mediatype>audio</mediatype>
							<trackindex>1</trackindex>
							<clipindex>5</clipindex>
							<groupindex>1</groupindex>
						</link>
						<link>
							<linkclipref>clipitem-352</linkclipref>
							<mediatype>audio</mediatype>
							<trackindex>2</trackindex>
							<clipindex>5</clipindex>
							<groupindex>1</groupindex>
						</link>
						<link>
							<linkclipref>clipitem-358</linkclipref>
							<mediatype>audio</mediatype>
							<trackindex>3</trackindex>
							<clipindex>5</clipindex>
							<groupindex>1</groupindex>
						</link>
						<link>
							<linkclipref>clipitem-364</linkclipref>
							<mediatype>audio</mediatype>
							<trackindex>4</trackindex>
							<clipindex>5</clipindex>
							<groupindex>1</groupindex>
						</link>
						<link>
							<linkclipref>clipitem-370</linkclipref>
							<mediatype>audio</mediatype>
							<trackindex>5</trackindex>
							<clipindex>5</clipindex>
							<groupindex>1</groupindex>
						</link>
						<link>
							<linkclipref>clipitem-376</linkclipref>
							<mediatype>audio</mediatype>
							<trackindex>6</trackindex>
							<clipindex>5</clipindex>
							<groupindex>1</groupindex>
						</link>
						<link>
							<linkclipref>clipitem-382</linkclipref>
							<mediatype>audio</mediatype>
							<trackindex>7</trackindex>
							<clipindex>5</clipindex>
							<groupindex>1</groupindex>
						</link>
						<link>
							<linkclipref>clipitem-388</linkclipref>
							<mediatype>audio</mediatype>
							<trackindex>8</trackindex>
							<clipindex>5</clipindex>
							<groupindex>1</groupindex>
						</link>
					</clipitem>
					<clipitem id="clipitem-365" premiereChannelType="mono">
						
						
						<masterclipid>masterclip-24</masterclipid>
						
						
						<name>0619_0729.MXF</name>
						
						
						<enabled>TRUE</enabled>
						
						
						<duration>45520</duration>
						
						
						<rate>
							
							
							<timebase>24</timebase>
							
							
							<ntsc>TRUE</ntsc>
							
						
						</rate>
						
						
						<start>27192</start>
						
						
						<end>41336</end>
						
						
						<in>30669</in>
						
						
						<out>44813</out>
						
						
						<pproTicksIn>324925296696000</pproTicksIn>
						
						
						<pproTicksOut>474775092792000</pproTicksOut>
						
						
						<file id="file-24"/>
						
						
						<sourcetrack>
							
							
							<mediatype>audio</mediatype>
							
							
							<trackindex>4</trackindex>
							
						
						</sourcetrack>
						
							
						<marker>
							
								
							<comment/>
							
								
							<name/>
							
								
							<in>526</in>
							
								
							<out>-1</out>
							
							
						</marker>
						
						
						<logginginfo>
							
							
							<description/>
							
							
							<scene/>
							
							
							<shottake/>
							
							
							<lognote/>
							
							
							<good/>
							
							
							<originalvideofilename/>
							
							
							<originalaudiofilename/>
							
						
						</logginginfo>
						
						
						<colorinfo>
							
							
							<lut/>
							
							
							<lut1/>
							
							
							<asc_sop/>
							
							
							<asc_sat/>
							
							
							<lut2/>
							
						
						</colorinfo>
						
						
						<labels>
							
							
							<label2>Yellow</label2>
							
						
						</labels>
						
					
						<link>
							<linkclipref>clipitem-329</linkclipref>
							<mediatype>video</mediatype>
							<trackindex>1</trackindex>
							<clipindex>6</clipindex>
							<groupindex>1</groupindex>
						</link>
						<link>
							<linkclipref>clipitem-335</linkclipref>
							<mediatype>video</mediatype>
							<trackindex>2</trackindex>
							<clipindex>6</clipindex>
							<groupindex>1</groupindex>
						</link>
						<link>
							<linkclipref>clipitem-341</linkclipref>
							<mediatype>video</mediatype>
							<trackindex>3</trackindex>
							<clipindex>6</clipindex>
							<groupindex>1</groupindex>
						</link>
						<link>
							<linkclipref>clipitem-347</linkclipref>
							<mediatype>audio</mediatype>
							<trackindex>1</trackindex>
							<clipindex>6</clipindex>
							<groupindex>1</groupindex>
						</link>
						<link>
							<linkclipref>clipitem-353</linkclipref>
							<mediatype>audio</mediatype>
							<trackindex>2</trackindex>
							<clipindex>6</clipindex>
							<groupindex>1</groupindex>
						</link>
						<link>
							<linkclipref>clipitem-359</linkclipref>
							<mediatype>audio</mediatype>
							<trackindex>3</trackindex>
							<clipindex>6</clipindex>
							<groupindex>1</groupindex>
						</link>
						<link>
							<linkclipref>clipitem-365</linkclipref>
							<mediatype>audio</mediatype>
							<trackindex>4</trackindex>
							<clipindex>6</clipindex>
							<groupindex>1</groupindex>
						</link>
						<link>
							<linkclipref>clipitem-371</linkclipref>
							<mediatype>audio</mediatype>
							<trackindex>5</trackindex>
							<clipindex>6</clipindex>
							<groupindex>1</groupindex>
						</link>
						<link>
							<linkclipref>clipitem-377</linkclipref>
							<mediatype>audio</mediatype>
							<trackindex>6</trackindex>
							<clipindex>6</clipindex>
							<groupindex>1</groupindex>
						</link>
						<link>
							<linkclipref>clipitem-383</linkclipref>
							<mediatype>audio</mediatype>
							<trackindex>7</trackindex>
							<clipindex>6</clipindex>
							<groupindex>1</groupindex>
						</link>
						<link>
							<linkclipref>clipitem-389</linkclipref>
							<mediatype>audio</mediatype>
							<trackindex>8</trackindex>
							<clipindex>6</clipindex>
							<groupindex>1</groupindex>
						</link>
					</clipitem>
					<enabled>TRUE</enabled>
					<locked>FALSE</locked>
					<outputchannelindex>2</outputchannelindex>
				</track>
				<track TL.SQTrackAudioKeyframeStyle="0" TL.SQTrackShy="0" TL.SQTrackExpandedHeight="41" TL.SQTrackExpanded="0" MZ.TrackTargeted="0" PannerCurrentValue="0.5" PannerIsInverted="true" PannerStartKeyframe="-91445760000000000,0.5,0,0,0,0,0,0" PannerName="Balance" currentExplodedTrackIndex="0" totalExplodedTrackCount="2" premiereTrackType="Stereo">
					<clipitem id="clipitem-366" premiereChannelType="stereo">
						
						
						<masterclipid>masterclip-25</masterclipid>
						
						
						<name>C4172.MP4</name>
						
						
						<enabled>TRUE</enabled>
						
						
						<duration>45552</duration>
						
						
						<rate>
							
							
							<timebase>24</timebase>
							
							
							<ntsc>TRUE</ntsc>
							
						
						</rate>
						
						
						<start>120</start>
						
						
						<end>4399</end>
						
						
						<in>631</in>
						
						
						<out>4910</out>
						
						
						<pproTicksIn>6685182503999</pproTicksIn>
						
						
						<pproTicksOut>52019407440000</pproTicksOut>
						
						
						<file id="file-25"/>
						
						
						<sourcetrack>
							
							
							<mediatype>audio</mediatype>
							
							
							<trackindex>1</trackindex>
							
						
						</sourcetrack>
						
							
						<marker>
							
								
							<comment/>
							
								
							<name/>
							
								
							<in>627</in>
							
								
							<out>-1</out>
							
							
						</marker>
						
						
						<logginginfo>
							
							
							<description/>
							
							
							<scene/>
							
							
							<shottake/>
							
							
							<lognote/>
							
							
							<good/>
							
							
							<originalvideofilename/>
							
							
							<originalaudiofilename/>
							
						
						</logginginfo>
						
						
						<colorinfo>
							
							
							<lut/>
							
							
							<lut1/>
							
							
							<asc_sop/>
							
							
							<asc_sat/>
							
							
							<lut2/>
							
						
						</colorinfo>
						
						
						<labels>
							
							
							<label2>Caribbean</label2>
							
						
						</labels>
						
					
						<link>
							<linkclipref>clipitem-324</linkclipref>
							<mediatype>video</mediatype>
							<trackindex>1</trackindex>
							<clipindex>1</clipindex>
							<groupindex>1</groupindex>
						</link>
						<link>
							<linkclipref>clipitem-330</linkclipref>
							<mediatype>video</mediatype>
							<trackindex>2</trackindex>
							<clipindex>1</clipindex>
							<groupindex>1</groupindex>
						</link>
						<link>
							<linkclipref>clipitem-336</linkclipref>
							<mediatype>video</mediatype>
							<trackindex>3</trackindex>
							<clipindex>1</clipindex>
							<groupindex>1</groupindex>
						</link>
						<link>
							<linkclipref>clipitem-342</linkclipref>
							<mediatype>audio</mediatype>
							<trackindex>1</trackindex>
							<clipindex>1</clipindex>
							<groupindex>1</groupindex>
						</link>
						<link>
							<linkclipref>clipitem-348</linkclipref>
							<mediatype>audio</mediatype>
							<trackindex>2</trackindex>
							<clipindex>1</clipindex>
							<groupindex>1</groupindex>
						</link>
						<link>
							<linkclipref>clipitem-354</linkclipref>
							<mediatype>audio</mediatype>
							<trackindex>3</trackindex>
							<clipindex>1</clipindex>
							<groupindex>1</groupindex>
						</link>
						<link>
							<linkclipref>clipitem-360</linkclipref>
							<mediatype>audio</mediatype>
							<trackindex>4</trackindex>
							<clipindex>1</clipindex>
							<groupindex>1</groupindex>
						</link>
						<link>
							<linkclipref>clipitem-366</linkclipref>
							<mediatype>audio</mediatype>
							<trackindex>5</trackindex>
							<clipindex>1</clipindex>
							<groupindex>1</groupindex>
						</link>
						<link>
							<linkclipref>clipitem-372</linkclipref>
							<mediatype>audio</mediatype>
							<trackindex>6</trackindex>
							<clipindex>1</clipindex>
							<groupindex>1</groupindex>
						</link>
						<link>
							<linkclipref>clipitem-378</linkclipref>
							<mediatype>audio</mediatype>
							<trackindex>7</trackindex>
							<clipindex>1</clipindex>
							<groupindex>1</groupindex>
						</link>
						<link>
							<linkclipref>clipitem-384</linkclipref>
							<mediatype>audio</mediatype>
							<trackindex>8</trackindex>
							<clipindex>1</clipindex>
							<groupindex>1</groupindex>
						</link>
					</clipitem>
					<clipitem id="clipitem-367" premiereChannelType="stereo">
						
						
						<masterclipid>masterclip-25</masterclipid>
						
						
						<name>C4172.MP4</name>
						
						
						<enabled>TRUE</enabled>
						
						
						<duration>45552</duration>
						
						
						<rate>
							
							
							<timebase>24</timebase>
							
							
							<ntsc>TRUE</ntsc>
							
						
						</rate>
						
						
						<start>4761</start>
						
						
						<end>14095</end>
						
						
						<in>5175</in>
						
						
						<out>14509</out>
						
						
						<pproTicksIn>54826972200000</pproTicksIn>
						
						
						<pproTicksOut>153716819256000</pproTicksOut>
						
						
						<file id="file-25"/>
						
						
						<sourcetrack>
							
							
							<mediatype>audio</mediatype>
							
							
							<trackindex>1</trackindex>
							
						
						</sourcetrack>
						
							
						<marker>
							
								
							<comment/>
							
								
							<name/>
							
								
							<in>627</in>
							
								
							<out>-1</out>
							
							
						</marker>
						
						
						<logginginfo>
							
							
							<description/>
							
							
							<scene/>
							
							
							<shottake/>
							
							
							<lognote/>
							
							
							<good/>
							
							
							<originalvideofilename/>
							
							
							<originalaudiofilename/>
							
						
						</logginginfo>
						
						
						<colorinfo>
							
							
							<lut/>
							
							
							<lut1/>
							
							
							<asc_sop/>
							
							
							<asc_sat/>
							
							
							<lut2/>
							
						
						</colorinfo>
						
						
						<labels>
							
							
							<label2>Rose</label2>
							
						
						</labels>
						
					
						<link>
							<linkclipref>clipitem-325</linkclipref>
							<mediatype>video</mediatype>
							<trackindex>1</trackindex>
							<clipindex>2</clipindex>
							<groupindex>1</groupindex>
						</link>
						<link>
							<linkclipref>clipitem-331</linkclipref>
							<mediatype>video</mediatype>
							<trackindex>2</trackindex>
							<clipindex>2</clipindex>
							<groupindex>1</groupindex>
						</link>
						<link>
							<linkclipref>clipitem-337</linkclipref>
							<mediatype>video</mediatype>
							<trackindex>3</trackindex>
							<clipindex>2</clipindex>
							<groupindex>1</groupindex>
						</link>
						<link>
							<linkclipref>clipitem-343</linkclipref>
							<mediatype>audio</mediatype>
							<trackindex>1</trackindex>
							<clipindex>2</clipindex>
							<groupindex>1</groupindex>
						</link>
						<link>
							<linkclipref>clipitem-349</linkclipref>
							<mediatype>audio</mediatype>
							<trackindex>2</trackindex>
							<clipindex>2</clipindex>
							<groupindex>1</groupindex>
						</link>
						<link>
							<linkclipref>clipitem-355</linkclipref>
							<mediatype>audio</mediatype>
							<trackindex>3</trackindex>
							<clipindex>2</clipindex>
							<groupindex>1</groupindex>
						</link>
						<link>
							<linkclipref>clipitem-361</linkclipref>
							<mediatype>audio</mediatype>
							<trackindex>4</trackindex>
							<clipindex>2</clipindex>
							<groupindex>1</groupindex>
						</link>
						<link>
							<linkclipref>clipitem-367</linkclipref>
							<mediatype>audio</mediatype>
							<trackindex>5</trackindex>
							<clipindex>2</clipindex>
							<groupindex>1</groupindex>
						</link>
						<link>
							<linkclipref>clipitem-373</linkclipref>
							<mediatype>audio</mediatype>
							<trackindex>6</trackindex>
							<clipindex>2</clipindex>
							<groupindex>1</groupindex>
						</link>
						<link>
							<linkclipref>clipitem-379</linkclipref>
							<mediatype>audio</mediatype>
							<trackindex>7</trackindex>
							<clipindex>2</clipindex>
							<groupindex>1</groupindex>
						</link>
						<link>
							<linkclipref>clipitem-385</linkclipref>
							<mediatype>audio</mediatype>
							<trackindex>8</trackindex>
							<clipindex>2</clipindex>
							<groupindex>1</groupindex>
						</link>
					</clipitem>
					<clipitem id="clipitem-368" premiereChannelType="stereo">
						
						
						<masterclipid>masterclip-25</masterclipid>
						
						
						<name>C4172.MP4</name>
						
						
						<enabled>TRUE</enabled>
						
						
						<duration>45552</duration>
						
						
						<rate>
							
							
							<timebase>24</timebase>
							
							
							<ntsc>TRUE</ntsc>
							
						
						</rate>
						
						
						<start>14457</start>
						
						
						<end>18809</end>
						
						
						<in>15870</in>
						
						
						<out>20222</out>
						
						
						<pproTicksIn>168136048080000</pproTicksIn>
						
						
						<pproTicksOut>214243677647999</pproTicksOut>
						
						
						<file id="file-25"/>
						
						
						<sourcetrack>
							
							
							<mediatype>audio</mediatype>
							
							
							<trackindex>1</trackindex>
							
						
						</sourcetrack>
						
							
						<marker>
							
								
							<comment/>
							
								
							<name/>
							
								
							<in>627</in>
							
								
							<out>-1</out>
							
							
						</marker>
						
						
						<logginginfo>
							
							
							<description/>
							
							
							<scene/>
							
							
							<shottake/>
							
							
							<lognote/>
							
							
							<good/>
							
							
							<originalvideofilename/>
							
							
							<originalaudiofilename/>
							
						
						</logginginfo>
						
						
						<colorinfo>
							
							
							<lut/>
							
							
							<lut1/>
							
							
							<asc_sop/>
							
							
							<asc_sat/>
							
							
							<lut2/>
							
						
						</colorinfo>
						
						
						<labels>
							
							
							<label2>Lavender</label2>
							
						
						</labels>
						
					
						<link>
							<linkclipref>clipitem-326</linkclipref>
							<mediatype>video</mediatype>
							<trackindex>1</trackindex>
							<clipindex>3</clipindex>
							<groupindex>1</groupindex>
						</link>
						<link>
							<linkclipref>clipitem-332</linkclipref>
							<mediatype>video</mediatype>
							<trackindex>2</trackindex>
							<clipindex>3</clipindex>
							<groupindex>1</groupindex>
						</link>
						<link>
							<linkclipref>clipitem-338</linkclipref>
							<mediatype>video</mediatype>
							<trackindex>3</trackindex>
							<clipindex>3</clipindex>
							<groupindex>1</groupindex>
						</link>
						<link>
							<linkclipref>clipitem-344</linkclipref>
							<mediatype>audio</mediatype>
							<trackindex>1</trackindex>
							<clipindex>3</clipindex>
							<groupindex>1</groupindex>
						</link>
						<link>
							<linkclipref>clipitem-350</linkclipref>
							<mediatype>audio</mediatype>
							<trackindex>2</trackindex>
							<clipindex>3</clipindex>
							<groupindex>1</groupindex>
						</link>
						<link>
							<linkclipref>clipitem-356</linkclipref>
							<mediatype>audio</mediatype>
							<trackindex>3</trackindex>
							<clipindex>3</clipindex>
							<groupindex>1</groupindex>
						</link>
						<link>
							<linkclipref>clipitem-362</linkclipref>
							<mediatype>audio</mediatype>
							<trackindex>4</trackindex>
							<clipindex>3</clipindex>
							<groupindex>1</groupindex>
						</link>
						<link>
							<linkclipref>clipitem-368</linkclipref>
							<mediatype>audio</mediatype>
							<trackindex>5</trackindex>
							<clipindex>3</clipindex>
							<groupindex>1</groupindex>
						</link>
						<link>
							<linkclipref>clipitem-374</linkclipref>
							<mediatype>audio</mediatype>
							<trackindex>6</trackindex>
							<clipindex>3</clipindex>
							<groupindex>1</groupindex>
						</link>
						<link>
							<linkclipref>clipitem-380</linkclipref>
							<mediatype>audio</mediatype>
							<trackindex>7</trackindex>
							<clipindex>3</clipindex>
							<groupindex>1</groupindex>
						</link>
						<link>
							<linkclipref>clipitem-386</linkclipref>
							<mediatype>audio</mediatype>
							<trackindex>8</trackindex>
							<clipindex>3</clipindex>
							<groupindex>1</groupindex>
						</link>
					</clipitem>
					<clipitem id="clipitem-369" premiereChannelType="stereo">
						
						
						<masterclipid>masterclip-25</masterclipid>
						
						
						<name>C4172.MP4</name>
						
						
						<enabled>TRUE</enabled>
						
						
						<duration>45552</duration>
						
						
						<rate>
							
							
							<timebase>24</timebase>
							
							
							<ntsc>TRUE</ntsc>
							
						
						</rate>
						
						
						<start>19171</start>
						
						
						<end>22347</end>
						
						
						<in>21385</in>
						
						
						<out>24561</out>
						
						
						<pproTicksIn>226565178839999</pproTicksIn>
						
						
						<pproTicksOut>260213577624000</pproTicksOut>
						
						
						<file id="file-25"/>
						
						
						<sourcetrack>
							
							
							<mediatype>audio</mediatype>
							
							
							<trackindex>1</trackindex>
							
						
						</sourcetrack>
						
							
						<marker>
							
								
							<comment/>
							
								
							<name/>
							
								
							<in>627</in>
							
								
							<out>-1</out>
							
							
						</marker>
						
						
						<logginginfo>
							
							
							<description/>
							
							
							<scene/>
							
							
							<shottake/>
							
							
							<lognote/>
							
							
							<good/>
							
							
							<originalvideofilename/>
							
							
							<originalaudiofilename/>
							
						
						</logginginfo>
						
						
						<colorinfo>
							
							
							<lut/>
							
							
							<lut1/>
							
							
							<asc_sop/>
							
							
							<asc_sat/>
							
							
							<lut2/>
							
						
						</colorinfo>
						
						
						<labels>
							
							
							<label2>Yellow</label2>
							
						
						</labels>
						
					
						<link>
							<linkclipref>clipitem-327</linkclipref>
							<mediatype>video</mediatype>
							<trackindex>1</trackindex>
							<clipindex>4</clipindex>
							<groupindex>1</groupindex>
						</link>
						<link>
							<linkclipref>clipitem-333</linkclipref>
							<mediatype>video</mediatype>
							<trackindex>2</trackindex>
							<clipindex>4</clipindex>
							<groupindex>1</groupindex>
						</link>
						<link>
							<linkclipref>clipitem-339</linkclipref>
							<mediatype>video</mediatype>
							<trackindex>3</trackindex>
							<clipindex>4</clipindex>
							<groupindex>1</groupindex>
						</link>
						<link>
							<linkclipref>clipitem-345</linkclipref>
							<mediatype>audio</mediatype>
							<trackindex>1</trackindex>
							<clipindex>4</clipindex>
							<groupindex>1</groupindex>
						</link>
						<link>
							<linkclipref>clipitem-351</linkclipref>
							<mediatype>audio</mediatype>
							<trackindex>2</trackindex>
							<clipindex>4</clipindex>
							<groupindex>1</groupindex>
						</link>
						<link>
							<linkclipref>clipitem-357</linkclipref>
							<mediatype>audio</mediatype>
							<trackindex>3</trackindex>
							<clipindex>4</clipindex>
							<groupindex>1</groupindex>
						</link>
						<link>
							<linkclipref>clipitem-363</linkclipref>
							<mediatype>audio</mediatype>
							<trackindex>4</trackindex>
							<clipindex>4</clipindex>
							<groupindex>1</groupindex>
						</link>
						<link>
							<linkclipref>clipitem-369</linkclipref>
							<mediatype>audio</mediatype>
							<trackindex>5</trackindex>
							<clipindex>4</clipindex>
							<groupindex>1</groupindex>
						</link>
						<link>
							<linkclipref>clipitem-375</linkclipref>
							<mediatype>audio</mediatype>
							<trackindex>6</trackindex>
							<clipindex>4</clipindex>
							<groupindex>1</groupindex>
						</link>
						<link>
							<linkclipref>clipitem-381</linkclipref>
							<mediatype>audio</mediatype>
							<trackindex>7</trackindex>
							<clipindex>4</clipindex>
							<groupindex>1</groupindex>
						</link>
						<link>
							<linkclipref>clipitem-387</linkclipref>
							<mediatype>audio</mediatype>
							<trackindex>8</trackindex>
							<clipindex>4</clipindex>
							<groupindex>1</groupindex>
						</link>
					</clipitem>
					<clipitem id="clipitem-370" premiereChannelType="stereo">
						
						
						<masterclipid>masterclip-25</masterclipid>
						
						
						<name>C4172.MP4</name>
						
						
						<enabled>TRUE</enabled>
						
						
						<duration>45552</duration>
						
						
						<rate>
							
							
							<timebase>24</timebase>
							
							
							<ntsc>TRUE</ntsc>
							
						
						</rate>
						
						
						<start>22709</start>
						
						
						<end>26830</end>
						
						
						<in>25608</in>
						
						
						<out>29729</out>
						
						
						<pproTicksIn>271306107072000</pproTicksIn>
						
						
						<pproTicksOut>314966387736000</pproTicksOut>
						
						
						<file id="file-25"/>
						
						
						<sourcetrack>
							
							
							<mediatype>audio</mediatype>
							
							
							<trackindex>1</trackindex>
							
						
						</sourcetrack>
						
							
						<marker>
							
								
							<comment/>
							
								
							<name/>
							
								
							<in>627</in>
							
								
							<out>-1</out>
							
							
						</marker>
						
						
						<logginginfo>
							
							
							<description/>
							
							
							<scene/>
							
							
							<shottake/>
							
							
							<lognote/>
							
							
							<good/>
							
							
							<originalvideofilename/>
							
							
							<originalaudiofilename/>
							
						
						</logginginfo>
						
						
						<colorinfo>
							
							
							<lut/>
							
							
							<lut1/>
							
							
							<asc_sop/>
							
							
							<asc_sat/>
							
							
							<lut2/>
							
						
						</colorinfo>
						
						
						<labels>
							
							
							<label2>Violet</label2>
							
						
						</labels>
						
					
						<link>
							<linkclipref>clipitem-328</linkclipref>
							<mediatype>video</mediatype>
							<trackindex>1</trackindex>
							<clipindex>5</clipindex>
							<groupindex>1</groupindex>
						</link>
						<link>
							<linkclipref>clipitem-334</linkclipref>
							<mediatype>video</mediatype>
							<trackindex>2</trackindex>
							<clipindex>5</clipindex>
							<groupindex>1</groupindex>
						</link>
						<link>
							<linkclipref>clipitem-340</linkclipref>
							<mediatype>video</mediatype>
							<trackindex>3</trackindex>
							<clipindex>5</clipindex>
							<groupindex>1</groupindex>
						</link>
						<link>
							<linkclipref>clipitem-346</linkclipref>
							<mediatype>audio</mediatype>
							<trackindex>1</trackindex>
							<clipindex>5</clipindex>
							<groupindex>1</groupindex>
						</link>
						<link>
							<linkclipref>clipitem-352</linkclipref>
							<mediatype>audio</mediatype>
							<trackindex>2</trackindex>
							<clipindex>5</clipindex>
							<groupindex>1</groupindex>
						</link>
						<link>
							<linkclipref>clipitem-358</linkclipref>
							<mediatype>audio</mediatype>
							<trackindex>3</trackindex>
							<clipindex>5</clipindex>
							<groupindex>1</groupindex>
						</link>
						<link>
							<linkclipref>clipitem-364</linkclipref>
							<mediatype>audio</mediatype>
							<trackindex>4</trackindex>
							<clipindex>5</clipindex>
							<groupindex>1</groupindex>
						</link>
						<link>
							<linkclipref>clipitem-370</linkclipref>
							<mediatype>audio</mediatype>
							<trackindex>5</trackindex>
							<clipindex>5</clipindex>
							<groupindex>1</groupindex>
						</link>
						<link>
							<linkclipref>clipitem-376</linkclipref>
							<mediatype>audio</mediatype>
							<trackindex>6</trackindex>
							<clipindex>5</clipindex>
							<groupindex>1</groupindex>
						</link>
						<link>
							<linkclipref>clipitem-382</linkclipref>
							<mediatype>audio</mediatype>
							<trackindex>7</trackindex>
							<clipindex>5</clipindex>
							<groupindex>1</groupindex>
						</link>
						<link>
							<linkclipref>clipitem-388</linkclipref>
							<mediatype>audio</mediatype>
							<trackindex>8</trackindex>
							<clipindex>5</clipindex>
							<groupindex>1</groupindex>
						</link>
					</clipitem>
					<clipitem id="clipitem-371" premiereChannelType="stereo">
						
						
						<masterclipid>masterclip-25</masterclipid>
						
						
						<name>C4172.MP4</name>
						
						
						<enabled>TRUE</enabled>
						
						
						<duration>45552</duration>
						
						
						<rate>
							
							
							<timebase>24</timebase>
							
							
							<ntsc>TRUE</ntsc>
							
						
						</rate>
						
						
						<start>27192</start>
						
						
						<end>41336</end>
						
						
						<in>30770</in>
						
						
						<out>44914</out>
						
						
						<pproTicksIn>325995349679999</pproTicksIn>
						
						
						<pproTicksOut>475845145775999</pproTicksOut>
						
						
						<file id="file-25"/>
						
						
						<sourcetrack>
							
							
							<mediatype>audio</mediatype>
							
							
							<trackindex>1</trackindex>
							
						
						</sourcetrack>
						
							
						<marker>
							
								
							<comment/>
							
								
							<name/>
							
								
							<in>627</in>
							
								
							<out>-1</out>
							
							
						</marker>
						
						
						<logginginfo>
							
							
							<description/>
							
							
							<scene/>
							
							
							<shottake/>
							
							
							<lognote/>
							
							
							<good/>
							
							
							<originalvideofilename/>
							
							
							<originalaudiofilename/>
							
						
						</logginginfo>
						
						
						<colorinfo>
							
							
							<lut/>
							
							
							<lut1/>
							
							
							<asc_sop/>
							
							
							<asc_sat/>
							
							
							<lut2/>
							
						
						</colorinfo>
						
						
						<labels>
							
							
							<label2>Yellow</label2>
							
						
						</labels>
						
					
						<link>
							<linkclipref>clipitem-329</linkclipref>
							<mediatype>video</mediatype>
							<trackindex>1</trackindex>
							<clipindex>6</clipindex>
							<groupindex>1</groupindex>
						</link>
						<link>
							<linkclipref>clipitem-335</linkclipref>
							<mediatype>video</mediatype>
							<trackindex>2</trackindex>
							<clipindex>6</clipindex>
							<groupindex>1</groupindex>
						</link>
						<link>
							<linkclipref>clipitem-341</linkclipref>
							<mediatype>video</mediatype>
							<trackindex>3</trackindex>
							<clipindex>6</clipindex>
							<groupindex>1</groupindex>
						</link>
						<link>
							<linkclipref>clipitem-347</linkclipref>
							<mediatype>audio</mediatype>
							<trackindex>1</trackindex>
							<clipindex>6</clipindex>
							<groupindex>1</groupindex>
						</link>
						<link>
							<linkclipref>clipitem-353</linkclipref>
							<mediatype>audio</mediatype>
							<trackindex>2</trackindex>
							<clipindex>6</clipindex>
							<groupindex>1</groupindex>
						</link>
						<link>
							<linkclipref>clipitem-359</linkclipref>
							<mediatype>audio</mediatype>
							<trackindex>3</trackindex>
							<clipindex>6</clipindex>
							<groupindex>1</groupindex>
						</link>
						<link>
							<linkclipref>clipitem-365</linkclipref>
							<mediatype>audio</mediatype>
							<trackindex>4</trackindex>
							<clipindex>6</clipindex>
							<groupindex>1</groupindex>
						</link>
						<link>
							<linkclipref>clipitem-371</linkclipref>
							<mediatype>audio</mediatype>
							<trackindex>5</trackindex>
							<clipindex>6</clipindex>
							<groupindex>1</groupindex>
						</link>
						<link>
							<linkclipref>clipitem-377</linkclipref>
							<mediatype>audio</mediatype>
							<trackindex>6</trackindex>
							<clipindex>6</clipindex>
							<groupindex>1</groupindex>
						</link>
						<link>
							<linkclipref>clipitem-383</linkclipref>
							<mediatype>audio</mediatype>
							<trackindex>7</trackindex>
							<clipindex>6</clipindex>
							<groupindex>1</groupindex>
						</link>
						<link>
							<linkclipref>clipitem-389</linkclipref>
							<mediatype>audio</mediatype>
							<trackindex>8</trackindex>
							<clipindex>6</clipindex>
							<groupindex>1</groupindex>
						</link>
					</clipitem>
					<enabled>TRUE</enabled>
					<locked>FALSE</locked>
					<outputchannelindex>1</outputchannelindex>
				</track>
				<track TL.SQTrackAudioKeyframeStyle="0" TL.SQTrackShy="0" TL.SQTrackExpandedHeight="41" TL.SQTrackExpanded="0" MZ.TrackTargeted="0" PannerCurrentValue="0.5" PannerIsInverted="true" PannerStartKeyframe="-91445760000000000,0.5,0,0,0,0,0,0" PannerName="Balance" currentExplodedTrackIndex="1" totalExplodedTrackCount="2" premiereTrackType="Stereo">
					<clipitem id="clipitem-372" premiereChannelType="stereo">
						
						
						<masterclipid>masterclip-25</masterclipid>
						
						
						<name>C4172.MP4</name>
						
						
						<enabled>TRUE</enabled>
						
						
						<duration>45552</duration>
						
						
						<rate>
							
							
							<timebase>24</timebase>
							
							
							<ntsc>TRUE</ntsc>
							
						
						</rate>
						
						
						<start>120</start>
						
						
						<end>4399</end>
						
						
						<in>631</in>
						
						
						<out>4910</out>
						
						
						<pproTicksIn>6685182503999</pproTicksIn>
						
						
						<pproTicksOut>52019407440000</pproTicksOut>
						
						
						<file id="file-25"/>
						
						
						<sourcetrack>
							
							
							<mediatype>audio</mediatype>
							
							
							<trackindex>2</trackindex>
							
						
						</sourcetrack>
						
							
						<marker>
							
								
							<comment/>
							
								
							<name/>
							
								
							<in>627</in>
							
								
							<out>-1</out>
							
							
						</marker>
						
						
						<logginginfo>
							
							
							<description/>
							
							
							<scene/>
							
							
							<shottake/>
							
							
							<lognote/>
							
							
							<good/>
							
							
							<originalvideofilename/>
							
							
							<originalaudiofilename/>
							
						
						</logginginfo>
						
						
						<colorinfo>
							
							
							<lut/>
							
							
							<lut1/>
							
							
							<asc_sop/>
							
							
							<asc_sat/>
							
							
							<lut2/>
							
						
						</colorinfo>
						
						
						<labels>
							
							
							<label2>Caribbean</label2>
							
						
						</labels>
						
					
						<link>
							<linkclipref>clipitem-324</linkclipref>
							<mediatype>video</mediatype>
							<trackindex>1</trackindex>
							<clipindex>1</clipindex>
							<groupindex>1</groupindex>
						</link>
						<link>
							<linkclipref>clipitem-330</linkclipref>
							<mediatype>video</mediatype>
							<trackindex>2</trackindex>
							<clipindex>1</clipindex>
							<groupindex>1</groupindex>
						</link>
						<link>
							<linkclipref>clipitem-336</linkclipref>
							<mediatype>video</mediatype>
							<trackindex>3</trackindex>
							<clipindex>1</clipindex>
							<groupindex>1</groupindex>
						</link>
						<link>
							<linkclipref>clipitem-342</linkclipref>
							<mediatype>audio</mediatype>
							<trackindex>1</trackindex>
							<clipindex>1</clipindex>
							<groupindex>1</groupindex>
						</link>
						<link>
							<linkclipref>clipitem-348</linkclipref>
							<mediatype>audio</mediatype>
							<trackindex>2</trackindex>
							<clipindex>1</clipindex>
							<groupindex>1</groupindex>
						</link>
						<link>
							<linkclipref>clipitem-354</linkclipref>
							<mediatype>audio</mediatype>
							<trackindex>3</trackindex>
							<clipindex>1</clipindex>
							<groupindex>1</groupindex>
						</link>
						<link>
							<linkclipref>clipitem-360</linkclipref>
							<mediatype>audio</mediatype>
							<trackindex>4</trackindex>
							<clipindex>1</clipindex>
							<groupindex>1</groupindex>
						</link>
						<link>
							<linkclipref>clipitem-366</linkclipref>
							<mediatype>audio</mediatype>
							<trackindex>5</trackindex>
							<clipindex>1</clipindex>
							<groupindex>1</groupindex>
						</link>
						<link>
							<linkclipref>clipitem-372</linkclipref>
							<mediatype>audio</mediatype>
							<trackindex>6</trackindex>
							<clipindex>1</clipindex>
							<groupindex>1</groupindex>
						</link>
						<link>
							<linkclipref>clipitem-378</linkclipref>
							<mediatype>audio</mediatype>
							<trackindex>7</trackindex>
							<clipindex>1</clipindex>
							<groupindex>1</groupindex>
						</link>
						<link>
							<linkclipref>clipitem-384</linkclipref>
							<mediatype>audio</mediatype>
							<trackindex>8</trackindex>
							<clipindex>1</clipindex>
							<groupindex>1</groupindex>
						</link>
					</clipitem>
					<clipitem id="clipitem-373" premiereChannelType="stereo">
						
						
						<masterclipid>masterclip-25</masterclipid>
						
						
						<name>C4172.MP4</name>
						
						
						<enabled>TRUE</enabled>
						
						
						<duration>45552</duration>
						
						
						<rate>
							
							
							<timebase>24</timebase>
							
							
							<ntsc>TRUE</ntsc>
							
						
						</rate>
						
						
						<start>4761</start>
						
						
						<end>14095</end>
						
						
						<in>5175</in>
						
						
						<out>14509</out>
						
						
						<pproTicksIn>54826972200000</pproTicksIn>
						
						
						<pproTicksOut>153716819256000</pproTicksOut>
						
						
						<file id="file-25"/>
						
						
						<sourcetrack>
							
							
							<mediatype>audio</mediatype>
							
							
							<trackindex>2</trackindex>
							
						
						</sourcetrack>
						
							
						<marker>
							
								
							<comment/>
							
								
							<name/>
							
								
							<in>627</in>
							
								
							<out>-1</out>
							
							
						</marker>
						
						
						<logginginfo>
							
							
							<description/>
							
							
							<scene/>
							
							
							<shottake/>
							
							
							<lognote/>
							
							
							<good/>
							
							
							<originalvideofilename/>
							
							
							<originalaudiofilename/>
							
						
						</logginginfo>
						
						
						<colorinfo>
							
							
							<lut/>
							
							
							<lut1/>
							
							
							<asc_sop/>
							
							
							<asc_sat/>
							
							
							<lut2/>
							
						
						</colorinfo>
						
						
						<labels>
							
							
							<label2>Rose</label2>
							
						
						</labels>
						
					
						<link>
							<linkclipref>clipitem-325</linkclipref>
							<mediatype>video</mediatype>
							<trackindex>1</trackindex>
							<clipindex>2</clipindex>
							<groupindex>1</groupindex>
						</link>
						<link>
							<linkclipref>clipitem-331</linkclipref>
							<mediatype>video</mediatype>
							<trackindex>2</trackindex>
							<clipindex>2</clipindex>
							<groupindex>1</groupindex>
						</link>
						<link>
							<linkclipref>clipitem-337</linkclipref>
							<mediatype>video</mediatype>
							<trackindex>3</trackindex>
							<clipindex>2</clipindex>
							<groupindex>1</groupindex>
						</link>
						<link>
							<linkclipref>clipitem-343</linkclipref>
							<mediatype>audio</mediatype>
							<trackindex>1</trackindex>
							<clipindex>2</clipindex>
							<groupindex>1</groupindex>
						</link>
						<link>
							<linkclipref>clipitem-349</linkclipref>
							<mediatype>audio</mediatype>
							<trackindex>2</trackindex>
							<clipindex>2</clipindex>
							<groupindex>1</groupindex>
						</link>
						<link>
							<linkclipref>clipitem-355</linkclipref>
							<mediatype>audio</mediatype>
							<trackindex>3</trackindex>
							<clipindex>2</clipindex>
							<groupindex>1</groupindex>
						</link>
						<link>
							<linkclipref>clipitem-361</linkclipref>
							<mediatype>audio</mediatype>
							<trackindex>4</trackindex>
							<clipindex>2</clipindex>
							<groupindex>1</groupindex>
						</link>
						<link>
							<linkclipref>clipitem-367</linkclipref>
							<mediatype>audio</mediatype>
							<trackindex>5</trackindex>
							<clipindex>2</clipindex>
							<groupindex>1</groupindex>
						</link>
						<link>
							<linkclipref>clipitem-373</linkclipref>
							<mediatype>audio</mediatype>
							<trackindex>6</trackindex>
							<clipindex>2</clipindex>
							<groupindex>1</groupindex>
						</link>
						<link>
							<linkclipref>clipitem-379</linkclipref>
							<mediatype>audio</mediatype>
							<trackindex>7</trackindex>
							<clipindex>2</clipindex>
							<groupindex>1</groupindex>
						</link>
						<link>
							<linkclipref>clipitem-385</linkclipref>
							<mediatype>audio</mediatype>
							<trackindex>8</trackindex>
							<clipindex>2</clipindex>
							<groupindex>1</groupindex>
						</link>
					</clipitem>
					<clipitem id="clipitem-374" premiereChannelType="stereo">
						
						
						<masterclipid>masterclip-25</masterclipid>
						
						
						<name>C4172.MP4</name>
						
						
						<enabled>TRUE</enabled>
						
						
						<duration>45552</duration>
						
						
						<rate>
							
							
							<timebase>24</timebase>
							
							
							<ntsc>TRUE</ntsc>
							
						
						</rate>
						
						
						<start>14457</start>
						
						
						<end>18809</end>
						
						
						<in>15870</in>
						
						
						<out>20222</out>
						
						
						<pproTicksIn>168136048080000</pproTicksIn>
						
						
						<pproTicksOut>214243677647999</pproTicksOut>
						
						
						<file id="file-25"/>
						
						
						<sourcetrack>
							
							
							<mediatype>audio</mediatype>
							
							
							<trackindex>2</trackindex>
							
						
						</sourcetrack>
						
							
						<marker>
							
								
							<comment/>
							
								
							<name/>
							
								
							<in>627</in>
							
								
							<out>-1</out>
							
							
						</marker>
						
						
						<logginginfo>
							
							
							<description/>
							
							
							<scene/>
							
							
							<shottake/>
							
							
							<lognote/>
							
							
							<good/>
							
							
							<originalvideofilename/>
							
							
							<originalaudiofilename/>
							
						
						</logginginfo>
						
						
						<colorinfo>
							
							
							<lut/>
							
							
							<lut1/>
							
							
							<asc_sop/>
							
							
							<asc_sat/>
							
							
							<lut2/>
							
						
						</colorinfo>
						
						
						<labels>
							
							
							<label2>Lavender</label2>
							
						
						</labels>
						
					
						<link>
							<linkclipref>clipitem-326</linkclipref>
							<mediatype>video</mediatype>
							<trackindex>1</trackindex>
							<clipindex>3</clipindex>
							<groupindex>1</groupindex>
						</link>
						<link>
							<linkclipref>clipitem-332</linkclipref>
							<mediatype>video</mediatype>
							<trackindex>2</trackindex>
							<clipindex>3</clipindex>
							<groupindex>1</groupindex>
						</link>
						<link>
							<linkclipref>clipitem-338</linkclipref>
							<mediatype>video</mediatype>
							<trackindex>3</trackindex>
							<clipindex>3</clipindex>
							<groupindex>1</groupindex>
						</link>
						<link>
							<linkclipref>clipitem-344</linkclipref>
							<mediatype>audio</mediatype>
							<trackindex>1</trackindex>
							<clipindex>3</clipindex>
							<groupindex>1</groupindex>
						</link>
						<link>
							<linkclipref>clipitem-350</linkclipref>
							<mediatype>audio</mediatype>
							<trackindex>2</trackindex>
							<clipindex>3</clipindex>
							<groupindex>1</groupindex>
						</link>
						<link>
							<linkclipref>clipitem-356</linkclipref>
							<mediatype>audio</mediatype>
							<trackindex>3</trackindex>
							<clipindex>3</clipindex>
							<groupindex>1</groupindex>
						</link>
						<link>
							<linkclipref>clipitem-362</linkclipref>
							<mediatype>audio</mediatype>
							<trackindex>4</trackindex>
							<clipindex>3</clipindex>
							<groupindex>1</groupindex>
						</link>
						<link>
							<linkclipref>clipitem-368</linkclipref>
							<mediatype>audio</mediatype>
							<trackindex>5</trackindex>
							<clipindex>3</clipindex>
							<groupindex>1</groupindex>
						</link>
						<link>
							<linkclipref>clipitem-374</linkclipref>
							<mediatype>audio</mediatype>
							<trackindex>6</trackindex>
							<clipindex>3</clipindex>
							<groupindex>1</groupindex>
						</link>
						<link>
							<linkclipref>clipitem-380</linkclipref>
							<mediatype>audio</mediatype>
							<trackindex>7</trackindex>
							<clipindex>3</clipindex>
							<groupindex>1</groupindex>
						</link>
						<link>
							<linkclipref>clipitem-386</linkclipref>
							<mediatype>audio</mediatype>
							<trackindex>8</trackindex>
							<clipindex>3</clipindex>
							<groupindex>1</groupindex>
						</link>
					</clipitem>
					<clipitem id="clipitem-375" premiereChannelType="stereo">
						
						
						<masterclipid>masterclip-25</masterclipid>
						
						
						<name>C4172.MP4</name>
						
						
						<enabled>TRUE</enabled>
						
						
						<duration>45552</duration>
						
						
						<rate>
							
							
							<timebase>24</timebase>
							
							
							<ntsc>TRUE</ntsc>
							
						
						</rate>
						
						
						<start>19171</start>
						
						
						<end>22347</end>
						
						
						<in>21385</in>
						
						
						<out>24561</out>
						
						
						<pproTicksIn>226565178839999</pproTicksIn>
						
						
						<pproTicksOut>260213577624000</pproTicksOut>
						
						
						<file id="file-25"/>
						
						
						<sourcetrack>
							
							
							<mediatype>audio</mediatype>
							
							
							<trackindex>2</trackindex>
							
						
						</sourcetrack>
						
							
						<marker>
							
								
							<comment/>
							
								
							<name/>
							
								
							<in>627</in>
							
								
							<out>-1</out>
							
							
						</marker>
						
						
						<logginginfo>
							
							
							<description/>
							
							
							<scene/>
							
							
							<shottake/>
							
							
							<lognote/>
							
							
							<good/>
							
							
							<originalvideofilename/>
							
							
							<originalaudiofilename/>
							
						
						</logginginfo>
						
						
						<colorinfo>
							
							
							<lut/>
							
							
							<lut1/>
							
							
							<asc_sop/>
							
							
							<asc_sat/>
							
							
							<lut2/>
							
						
						</colorinfo>
						
						
						<labels>
							
							
							<label2>Yellow</label2>
							
						
						</labels>
						
					
						<link>
							<linkclipref>clipitem-327</linkclipref>
							<mediatype>video</mediatype>
							<trackindex>1</trackindex>
							<clipindex>4</clipindex>
							<groupindex>1</groupindex>
						</link>
						<link>
							<linkclipref>clipitem-333</linkclipref>
							<mediatype>video</mediatype>
							<trackindex>2</trackindex>
							<clipindex>4</clipindex>
							<groupindex>1</groupindex>
						</link>
						<link>
							<linkclipref>clipitem-339</linkclipref>
							<mediatype>video</mediatype>
							<trackindex>3</trackindex>
							<clipindex>4</clipindex>
							<groupindex>1</groupindex>
						</link>
						<link>
							<linkclipref>clipitem-345</linkclipref>
							<mediatype>audio</mediatype>
							<trackindex>1</trackindex>
							<clipindex>4</clipindex>
							<groupindex>1</groupindex>
						</link>
						<link>
							<linkclipref>clipitem-351</linkclipref>
							<mediatype>audio</mediatype>
							<trackindex>2</trackindex>
							<clipindex>4</clipindex>
							<groupindex>1</groupindex>
						</link>
						<link>
							<linkclipref>clipitem-357</linkclipref>
							<mediatype>audio</mediatype>
							<trackindex>3</trackindex>
							<clipindex>4</clipindex>
							<groupindex>1</groupindex>
						</link>
						<link>
							<linkclipref>clipitem-363</linkclipref>
							<mediatype>audio</mediatype>
							<trackindex>4</trackindex>
							<clipindex>4</clipindex>
							<groupindex>1</groupindex>
						</link>
						<link>
							<linkclipref>clipitem-369</linkclipref>
							<mediatype>audio</mediatype>
							<trackindex>5</trackindex>
							<clipindex>4</clipindex>
							<groupindex>1</groupindex>
						</link>
						<link>
							<linkclipref>clipitem-375</linkclipref>
							<mediatype>audio</mediatype>
							<trackindex>6</trackindex>
							<clipindex>4</clipindex>
							<groupindex>1</groupindex>
						</link>
						<link>
							<linkclipref>clipitem-381</linkclipref>
							<mediatype>audio</mediatype>
							<trackindex>7</trackindex>
							<clipindex>4</clipindex>
							<groupindex>1</groupindex>
						</link>
						<link>
							<linkclipref>clipitem-387</linkclipref>
							<mediatype>audio</mediatype>
							<trackindex>8</trackindex>
							<clipindex>4</clipindex>
							<groupindex>1</groupindex>
						</link>
					</clipitem>
					<clipitem id="clipitem-376" premiereChannelType="stereo">
						
						
						<masterclipid>masterclip-25</masterclipid>
						
						
						<name>C4172.MP4</name>
						
						
						<enabled>TRUE</enabled>
						
						
						<duration>45552</duration>
						
						
						<rate>
							
							
							<timebase>24</timebase>
							
							
							<ntsc>TRUE</ntsc>
							
						
						</rate>
						
						
						<start>22709</start>
						
						
						<end>26830</end>
						
						
						<in>25608</in>
						
						
						<out>29729</out>
						
						
						<pproTicksIn>271306107072000</pproTicksIn>
						
						
						<pproTicksOut>314966387736000</pproTicksOut>
						
						
						<file id="file-25"/>
						
						
						<sourcetrack>
							
							
							<mediatype>audio</mediatype>
							
							
							<trackindex>2</trackindex>
							
						
						</sourcetrack>
						
							
						<marker>
							
								
							<comment/>
							
								
							<name/>
							
								
							<in>627</in>
							
								
							<out>-1</out>
							
							
						</marker>
						
						
						<logginginfo>
							
							
							<description/>
							
							
							<scene/>
							
							
							<shottake/>
							
							
							<lognote/>
							
							
							<good/>
							
							
							<originalvideofilename/>
							
							
							<originalaudiofilename/>
							
						
						</logginginfo>
						
						
						<colorinfo>
							
							
							<lut/>
							
							
							<lut1/>
							
							
							<asc_sop/>
							
							
							<asc_sat/>
							
							
							<lut2/>
							
						
						</colorinfo>
						
						
						<labels>
							
							
							<label2>Violet</label2>
							
						
						</labels>
						
					
						<link>
							<linkclipref>clipitem-328</linkclipref>
							<mediatype>video</mediatype>
							<trackindex>1</trackindex>
							<clipindex>5</clipindex>
							<groupindex>1</groupindex>
						</link>
						<link>
							<linkclipref>clipitem-334</linkclipref>
							<mediatype>video</mediatype>
							<trackindex>2</trackindex>
							<clipindex>5</clipindex>
							<groupindex>1</groupindex>
						</link>
						<link>
							<linkclipref>clipitem-340</linkclipref>
							<mediatype>video</mediatype>
							<trackindex>3</trackindex>
							<clipindex>5</clipindex>
							<groupindex>1</groupindex>
						</link>
						<link>
							<linkclipref>clipitem-346</linkclipref>
							<mediatype>audio</mediatype>
							<trackindex>1</trackindex>
							<clipindex>5</clipindex>
							<groupindex>1</groupindex>
						</link>
						<link>
							<linkclipref>clipitem-352</linkclipref>
							<mediatype>audio</mediatype>
							<trackindex>2</trackindex>
							<clipindex>5</clipindex>
							<groupindex>1</groupindex>
						</link>
						<link>
							<linkclipref>clipitem-358</linkclipref>
							<mediatype>audio</mediatype>
							<trackindex>3</trackindex>
							<clipindex>5</clipindex>
							<groupindex>1</groupindex>
						</link>
						<link>
							<linkclipref>clipitem-364</linkclipref>
							<mediatype>audio</mediatype>
							<trackindex>4</trackindex>
							<clipindex>5</clipindex>
							<groupindex>1</groupindex>
						</link>
						<link>
							<linkclipref>clipitem-370</linkclipref>
							<mediatype>audio</mediatype>
							<trackindex>5</trackindex>
							<clipindex>5</clipindex>
							<groupindex>1</groupindex>
						</link>
						<link>
							<linkclipref>clipitem-376</linkclipref>
							<mediatype>audio</mediatype>
							<trackindex>6</trackindex>
							<clipindex>5</clipindex>
							<groupindex>1</groupindex>
						</link>
						<link>
							<linkclipref>clipitem-382</linkclipref>
							<mediatype>audio</mediatype>
							<trackindex>7</trackindex>
							<clipindex>5</clipindex>
							<groupindex>1</groupindex>
						</link>
						<link>
							<linkclipref>clipitem-388</linkclipref>
							<mediatype>audio</mediatype>
							<trackindex>8</trackindex>
							<clipindex>5</clipindex>
							<groupindex>1</groupindex>
						</link>
					</clipitem>
					<clipitem id="clipitem-377" premiereChannelType="stereo">
						
						
						<masterclipid>masterclip-25</masterclipid>
						
						
						<name>C4172.MP4</name>
						
						
						<enabled>TRUE</enabled>
						
						
						<duration>45552</duration>
						
						
						<rate>
							
							
							<timebase>24</timebase>
							
							
							<ntsc>TRUE</ntsc>
							
						
						</rate>
						
						
						<start>27192</start>
						
						
						<end>41336</end>
						
						
						<in>30770</in>
						
						
						<out>44914</out>
						
						
						<pproTicksIn>325995349679999</pproTicksIn>
						
						
						<pproTicksOut>475845145775999</pproTicksOut>
						
						
						<file id="file-25"/>
						
						
						<sourcetrack>
							
							
							<mediatype>audio</mediatype>
							
							
							<trackindex>2</trackindex>
							
						
						</sourcetrack>
						
							
						<marker>
							
								
							<comment/>
							
								
							<name/>
							
								
							<in>627</in>
							
								
							<out>-1</out>
							
							
						</marker>
						
						
						<logginginfo>
							
							
							<description/>
							
							
							<scene/>
							
							
							<shottake/>
							
							
							<lognote/>
							
							
							<good/>
							
							
							<originalvideofilename/>
							
							
							<originalaudiofilename/>
							
						
						</logginginfo>
						
						
						<colorinfo>
							
							
							<lut/>
							
							
							<lut1/>
							
							
							<asc_sop/>
							
							
							<asc_sat/>
							
							
							<lut2/>
							
						
						</colorinfo>
						
						
						<labels>
							
							
							<label2>Yellow</label2>
							
						
						</labels>
						
					
						<link>
							<linkclipref>clipitem-329</linkclipref>
							<mediatype>video</mediatype>
							<trackindex>1</trackindex>
							<clipindex>6</clipindex>
							<groupindex>1</groupindex>
						</link>
						<link>
							<linkclipref>clipitem-335</linkclipref>
							<mediatype>video</mediatype>
							<trackindex>2</trackindex>
							<clipindex>6</clipindex>
							<groupindex>1</groupindex>
						</link>
						<link>
							<linkclipref>clipitem-341</linkclipref>
							<mediatype>video</mediatype>
							<trackindex>3</trackindex>
							<clipindex>6</clipindex>
							<groupindex>1</groupindex>
						</link>
						<link>
							<linkclipref>clipitem-347</linkclipref>
							<mediatype>audio</mediatype>
							<trackindex>1</trackindex>
							<clipindex>6</clipindex>
							<groupindex>1</groupindex>
						</link>
						<link>
							<linkclipref>clipitem-353</linkclipref>
							<mediatype>audio</mediatype>
							<trackindex>2</trackindex>
							<clipindex>6</clipindex>
							<groupindex>1</groupindex>
						</link>
						<link>
							<linkclipref>clipitem-359</linkclipref>
							<mediatype>audio</mediatype>
							<trackindex>3</trackindex>
							<clipindex>6</clipindex>
							<groupindex>1</groupindex>
						</link>
						<link>
							<linkclipref>clipitem-365</linkclipref>
							<mediatype>audio</mediatype>
							<trackindex>4</trackindex>
							<clipindex>6</clipindex>
							<groupindex>1</groupindex>
						</link>
						<link>
							<linkclipref>clipitem-371</linkclipref>
							<mediatype>audio</mediatype>
							<trackindex>5</trackindex>
							<clipindex>6</clipindex>
							<groupindex>1</groupindex>
						</link>
						<link>
							<linkclipref>clipitem-377</linkclipref>
							<mediatype>audio</mediatype>
							<trackindex>6</trackindex>
							<clipindex>6</clipindex>
							<groupindex>1</groupindex>
						</link>
						<link>
							<linkclipref>clipitem-383</linkclipref>
							<mediatype>audio</mediatype>
							<trackindex>7</trackindex>
							<clipindex>6</clipindex>
							<groupindex>1</groupindex>
						</link>
						<link>
							<linkclipref>clipitem-389</linkclipref>
							<mediatype>audio</mediatype>
							<trackindex>8</trackindex>
							<clipindex>6</clipindex>
							<groupindex>1</groupindex>
						</link>
					</clipitem>
					<enabled>TRUE</enabled>
					<locked>FALSE</locked>
					<outputchannelindex>2</outputchannelindex>
				</track>
				<track TL.SQTrackAudioKeyframeStyle="0" TL.SQTrackShy="0" TL.SQTrackExpandedHeight="41" TL.SQTrackExpanded="0" MZ.TrackTargeted="0" PannerCurrentValue="0.5" PannerIsInverted="true" PannerStartKeyframe="-91445760000000000,0.5,0,0,0,0,0,0" PannerName="Balance" currentExplodedTrackIndex="0" totalExplodedTrackCount="2" premiereTrackType="Stereo">
					<clipitem id="clipitem-378" premiereChannelType="stereo">
						
						
						<masterclipid>masterclip-26</masterclipid>
						
						
						<name>C6197.MP4</name>
						
						
						<enabled>TRUE</enabled>
						
						
						<duration>45540</duration>
						
						
						<rate>
							
							
							<timebase>24</timebase>
							
							
							<ntsc>TRUE</ntsc>
							
						
						</rate>
						
						
						<start>120</start>
						
						
						<end>4399</end>
						
						
						<in>603</in>
						
						
						<out>4882</out>
						
						
						<pproTicksIn>6388534152000</pproTicksIn>
						
						
						<pproTicksOut>51722759088000</pproTicksOut>
						
						
						<file id="file-26"/>
						
						
						<sourcetrack>
							
							
							<mediatype>audio</mediatype>
							
							
							<trackindex>1</trackindex>
							
						
						</sourcetrack>
						
							
						<marker>
							
								
							<comment/>
							
								
							<name/>
							
								
							<in>599</in>
							
								
							<out>-1</out>
							
							
						</marker>
						
						
						<logginginfo>
							
							
							<description/>
							
							
							<scene/>
							
							
							<shottake/>
							
							
							<lognote/>
							
							
							<good/>
							
							
							<originalvideofilename/>
							
							
							<originalaudiofilename/>
							
						
						</logginginfo>
						
						
						<colorinfo>
							
							
							<lut/>
							
							
							<lut1/>
							
							
							<asc_sop/>
							
							
							<asc_sat/>
							
							
							<lut2/>
							
						
						</colorinfo>
						
						
						<labels>
							
							
							<label2>Caribbean</label2>
							
						
						</labels>
						
					
						<link>
							<linkclipref>clipitem-324</linkclipref>
							<mediatype>video</mediatype>
							<trackindex>1</trackindex>
							<clipindex>1</clipindex>
							<groupindex>1</groupindex>
						</link>
						<link>
							<linkclipref>clipitem-330</linkclipref>
							<mediatype>video</mediatype>
							<trackindex>2</trackindex>
							<clipindex>1</clipindex>
							<groupindex>1</groupindex>
						</link>
						<link>
							<linkclipref>clipitem-336</linkclipref>
							<mediatype>video</mediatype>
							<trackindex>3</trackindex>
							<clipindex>1</clipindex>
							<groupindex>1</groupindex>
						</link>
						<link>
							<linkclipref>clipitem-342</linkclipref>
							<mediatype>audio</mediatype>
							<trackindex>1</trackindex>
							<clipindex>1</clipindex>
							<groupindex>1</groupindex>
						</link>
						<link>
							<linkclipref>clipitem-348</linkclipref>
							<mediatype>audio</mediatype>
							<trackindex>2</trackindex>
							<clipindex>1</clipindex>
							<groupindex>1</groupindex>
						</link>
						<link>
							<linkclipref>clipitem-354</linkclipref>
							<mediatype>audio</mediatype>
							<trackindex>3</trackindex>
							<clipindex>1</clipindex>
							<groupindex>1</groupindex>
						</link>
						<link>
							<linkclipref>clipitem-360</linkclipref>
							<mediatype>audio</mediatype>
							<trackindex>4</trackindex>
							<clipindex>1</clipindex>
							<groupindex>1</groupindex>
						</link>
						<link>
							<linkclipref>clipitem-366</linkclipref>
							<mediatype>audio</mediatype>
							<trackindex>5</trackindex>
							<clipindex>1</clipindex>
							<groupindex>1</groupindex>
						</link>
						<link>
							<linkclipref>clipitem-372</linkclipref>
							<mediatype>audio</mediatype>
							<trackindex>6</trackindex>
							<clipindex>1</clipindex>
							<groupindex>1</groupindex>
						</link>
						<link>
							<linkclipref>clipitem-378</linkclipref>
							<mediatype>audio</mediatype>
							<trackindex>7</trackindex>
							<clipindex>1</clipindex>
							<groupindex>1</groupindex>
						</link>
						<link>
							<linkclipref>clipitem-384</linkclipref>
							<mediatype>audio</mediatype>
							<trackindex>8</trackindex>
							<clipindex>1</clipindex>
							<groupindex>1</groupindex>
						</link>
					</clipitem>
					<clipitem id="clipitem-379" premiereChannelType="stereo">
						
						
						<masterclipid>masterclip-26</masterclipid>
						
						
						<name>C6197.MP4</name>
						
						
						<enabled>TRUE</enabled>
						
						
						<duration>45540</duration>
						
						
						<rate>
							
							
							<timebase>24</timebase>
							
							
							<ntsc>TRUE</ntsc>
							
						
						</rate>
						
						
						<start>4761</start>
						
						
						<end>14095</end>
						
						
						<in>5147</in>
						
						
						<out>14481</out>
						
						
						<pproTicksIn>54530323848000</pproTicksIn>
						
						
						<pproTicksOut>153420170903999</pproTicksOut>
						
						
						<file id="file-26"/>
						
						
						<sourcetrack>
							
							
							<mediatype>audio</mediatype>
							
							
							<trackindex>1</trackindex>
							
						
						</sourcetrack>
						
							
						<marker>
							
								
							<comment/>
							
								
							<name/>
							
								
							<in>599</in>
							
								
							<out>-1</out>
							
							
						</marker>
						
						
						<logginginfo>
							
							
							<description/>
							
							
							<scene/>
							
							
							<shottake/>
							
							
							<lognote/>
							
							
							<good/>
							
							
							<originalvideofilename/>
							
							
							<originalaudiofilename/>
							
						
						</logginginfo>
						
						
						<colorinfo>
							
							
							<lut/>
							
							
							<lut1/>
							
							
							<asc_sop/>
							
							
							<asc_sat/>
							
							
							<lut2/>
							
						
						</colorinfo>
						
						
						<labels>
							
							
							<label2>Rose</label2>
							
						
						</labels>
						
					
						<link>
							<linkclipref>clipitem-325</linkclipref>
							<mediatype>video</mediatype>
							<trackindex>1</trackindex>
							<clipindex>2</clipindex>
							<groupindex>1</groupindex>
						</link>
						<link>
							<linkclipref>clipitem-331</linkclipref>
							<mediatype>video</mediatype>
							<trackindex>2</trackindex>
							<clipindex>2</clipindex>
							<groupindex>1</groupindex>
						</link>
						<link>
							<linkclipref>clipitem-337</linkclipref>
							<mediatype>video</mediatype>
							<trackindex>3</trackindex>
							<clipindex>2</clipindex>
							<groupindex>1</groupindex>
						</link>
						<link>
							<linkclipref>clipitem-343</linkclipref>
							<mediatype>audio</mediatype>
							<trackindex>1</trackindex>
							<clipindex>2</clipindex>
							<groupindex>1</groupindex>
						</link>
						<link>
							<linkclipref>clipitem-349</linkclipref>
							<mediatype>audio</mediatype>
							<trackindex>2</trackindex>
							<clipindex>2</clipindex>
							<groupindex>1</groupindex>
						</link>
						<link>
							<linkclipref>clipitem-355</linkclipref>
							<mediatype>audio</mediatype>
							<trackindex>3</trackindex>
							<clipindex>2</clipindex>
							<groupindex>1</groupindex>
						</link>
						<link>
							<linkclipref>clipitem-361</linkclipref>
							<mediatype>audio</mediatype>
							<trackindex>4</trackindex>
							<clipindex>2</clipindex>
							<groupindex>1</groupindex>
						</link>
						<link>
							<linkclipref>clipitem-367</linkclipref>
							<mediatype>audio</mediatype>
							<trackindex>5</trackindex>
							<clipindex>2</clipindex>
							<groupindex>1</groupindex>
						</link>
						<link>
							<linkclipref>clipitem-373</linkclipref>
							<mediatype>audio</mediatype>
							<trackindex>6</trackindex>
							<clipindex>2</clipindex>
							<groupindex>1</groupindex>
						</link>
						<link>
							<linkclipref>clipitem-379</linkclipref>
							<mediatype>audio</mediatype>
							<trackindex>7</trackindex>
							<clipindex>2</clipindex>
							<groupindex>1</groupindex>
						</link>
						<link>
							<linkclipref>clipitem-385</linkclipref>
							<mediatype>audio</mediatype>
							<trackindex>8</trackindex>
							<clipindex>2</clipindex>
							<groupindex>1</groupindex>
						</link>
					</clipitem>
					<clipitem id="clipitem-380" premiereChannelType="stereo">
						
						
						<masterclipid>masterclip-26</masterclipid>
						
						
						<name>C6197.MP4</name>
						
						
						<enabled>TRUE</enabled>
						
						
						<duration>45540</duration>
						
						
						<rate>
							
							
							<timebase>24</timebase>
							
							
							<ntsc>TRUE</ntsc>
							
						
						</rate>
						
						
						<start>14457</start>
						
						
						<end>18809</end>
						
						
						<in>15842</in>
						
						
						<out>20194</out>
						
						
						<pproTicksIn>167839399727999</pproTicksIn>
						
						
						<pproTicksOut>213947029296000</pproTicksOut>
						
						
						<file id="file-26"/>
						
						
						<sourcetrack>
							
							
							<mediatype>audio</mediatype>
							
							
							<trackindex>1</trackindex>
							
						
						</sourcetrack>
						
							
						<marker>
							
								
							<comment/>
							
								
							<name/>
							
								
							<in>599</in>
							
								
							<out>-1</out>
							
							
						</marker>
						
						
						<logginginfo>
							
							
							<description/>
							
							
							<scene/>
							
							
							<shottake/>
							
							
							<lognote/>
							
							
							<good/>
							
							
							<originalvideofilename/>
							
							
							<originalaudiofilename/>
							
						
						</logginginfo>
						
						
						<colorinfo>
							
							
							<lut/>
							
							
							<lut1/>
							
							
							<asc_sop/>
							
							
							<asc_sat/>
							
							
							<lut2/>
							
						
						</colorinfo>
						
						
						<labels>
							
							
							<label2>Lavender</label2>
							
						
						</labels>
						
					
						<link>
							<linkclipref>clipitem-326</linkclipref>
							<mediatype>video</mediatype>
							<trackindex>1</trackindex>
							<clipindex>3</clipindex>
							<groupindex>1</groupindex>
						</link>
						<link>
							<linkclipref>clipitem-332</linkclipref>
							<mediatype>video</mediatype>
							<trackindex>2</trackindex>
							<clipindex>3</clipindex>
							<groupindex>1</groupindex>
						</link>
						<link>
							<linkclipref>clipitem-338</linkclipref>
							<mediatype>video</mediatype>
							<trackindex>3</trackindex>
							<clipindex>3</clipindex>
							<groupindex>1</groupindex>
						</link>
						<link>
							<linkclipref>clipitem-344</linkclipref>
							<mediatype>audio</mediatype>
							<trackindex>1</trackindex>
							<clipindex>3</clipindex>
							<groupindex>1</groupindex>
						</link>
						<link>
							<linkclipref>clipitem-350</linkclipref>
							<mediatype>audio</mediatype>
							<trackindex>2</trackindex>
							<clipindex>3</clipindex>
							<groupindex>1</groupindex>
						</link>
						<link>
							<linkclipref>clipitem-356</linkclipref>
							<mediatype>audio</mediatype>
							<trackindex>3</trackindex>
							<clipindex>3</clipindex>
							<groupindex>1</groupindex>
						</link>
						<link>
							<linkclipref>clipitem-362</linkclipref>
							<mediatype>audio</mediatype>
							<trackindex>4</trackindex>
							<clipindex>3</clipindex>
							<groupindex>1</groupindex>
						</link>
						<link>
							<linkclipref>clipitem-368</linkclipref>
							<mediatype>audio</mediatype>
							<trackindex>5</trackindex>
							<clipindex>3</clipindex>
							<groupindex>1</groupindex>
						</link>
						<link>
							<linkclipref>clipitem-374</linkclipref>
							<mediatype>audio</mediatype>
							<trackindex>6</trackindex>
							<clipindex>3</clipindex>
							<groupindex>1</groupindex>
						</link>
						<link>
							<linkclipref>clipitem-380</linkclipref>
							<mediatype>audio</mediatype>
							<trackindex>7</trackindex>
							<clipindex>3</clipindex>
							<groupindex>1</groupindex>
						</link>
						<link>
							<linkclipref>clipitem-386</linkclipref>
							<mediatype>audio</mediatype>
							<trackindex>8</trackindex>
							<clipindex>3</clipindex>
							<groupindex>1</groupindex>
						</link>
					</clipitem>
					<clipitem id="clipitem-381" premiereChannelType="stereo">
						
						
						<masterclipid>masterclip-26</masterclipid>
						
						
						<name>C6197.MP4</name>
						
						
						<enabled>TRUE</enabled>
						
						
						<duration>45540</duration>
						
						
						<rate>
							
							
							<timebase>24</timebase>
							
							
							<ntsc>TRUE</ntsc>
							
						
						</rate>
						
						
						<start>19171</start>
						
						
						<end>22347</end>
						
						
						<in>21357</in>
						
						
						<out>24533</out>
						
						
						<pproTicksIn>226268530488000</pproTicksIn>
						
						
						<pproTicksOut>259916929271999</pproTicksOut>
						
						
						<file id="file-26"/>
						
						
						<sourcetrack>
							
							
							<mediatype>audio</mediatype>
							
							
							<trackindex>1</trackindex>
							
						
						</sourcetrack>
						
							
						<marker>
							
								
							<comment/>
							
								
							<name/>
							
								
							<in>599</in>
							
								
							<out>-1</out>
							
							
						</marker>
						
						
						<logginginfo>
							
							
							<description/>
							
							
							<scene/>
							
							
							<shottake/>
							
							
							<lognote/>
							
							
							<good/>
							
							
							<originalvideofilename/>
							
							
							<originalaudiofilename/>
							
						
						</logginginfo>
						
						
						<colorinfo>
							
							
							<lut/>
							
							
							<lut1/>
							
							
							<asc_sop/>
							
							
							<asc_sat/>
							
							
							<lut2/>
							
						
						</colorinfo>
						
						
						<labels>
							
							
							<label2>Yellow</label2>
							
						
						</labels>
						
					
						<link>
							<linkclipref>clipitem-327</linkclipref>
							<mediatype>video</mediatype>
							<trackindex>1</trackindex>
							<clipindex>4</clipindex>
							<groupindex>1</groupindex>
						</link>
						<link>
							<linkclipref>clipitem-333</linkclipref>
							<mediatype>video</mediatype>
							<trackindex>2</trackindex>
							<clipindex>4</clipindex>
							<groupindex>1</groupindex>
						</link>
						<link>
							<linkclipref>clipitem-339</linkclipref>
							<mediatype>video</mediatype>
							<trackindex>3</trackindex>
							<clipindex>4</clipindex>
							<groupindex>1</groupindex>
						</link>
						<link>
							<linkclipref>clipitem-345</linkclipref>
							<mediatype>audio</mediatype>
							<trackindex>1</trackindex>
							<clipindex>4</clipindex>
							<groupindex>1</groupindex>
						</link>
						<link>
							<linkclipref>clipitem-351</linkclipref>
							<mediatype>audio</mediatype>
							<trackindex>2</trackindex>
							<clipindex>4</clipindex>
							<groupindex>1</groupindex>
						</link>
						<link>
							<linkclipref>clipitem-357</linkclipref>
							<mediatype>audio</mediatype>
							<trackindex>3</trackindex>
							<clipindex>4</clipindex>
							<groupindex>1</groupindex>
						</link>
						<link>
							<linkclipref>clipitem-363</linkclipref>
							<mediatype>audio</mediatype>
							<trackindex>4</trackindex>
							<clipindex>4</clipindex>
							<groupindex>1</groupindex>
						</link>
						<link>
							<linkclipref>clipitem-369</linkclipref>
							<mediatype>audio</mediatype>
							<trackindex>5</trackindex>
							<clipindex>4</clipindex>
							<groupindex>1</groupindex>
						</link>
						<link>
							<linkclipref>clipitem-375</linkclipref>
							<mediatype>audio</mediatype>
							<trackindex>6</trackindex>
							<clipindex>4</clipindex>
							<groupindex>1</groupindex>
						</link>
						<link>
							<linkclipref>clipitem-381</linkclipref>
							<mediatype>audio</mediatype>
							<trackindex>7</trackindex>
							<clipindex>4</clipindex>
							<groupindex>1</groupindex>
						</link>
						<link>
							<linkclipref>clipitem-387</linkclipref>
							<mediatype>audio</mediatype>
							<trackindex>8</trackindex>
							<clipindex>4</clipindex>
							<groupindex>1</groupindex>
						</link>
					</clipitem>
					<clipitem id="clipitem-382" premiereChannelType="stereo">
						
						
						<masterclipid>masterclip-26</masterclipid>
						
						
						<name>C6197.MP4</name>
						
						
						<enabled>TRUE</enabled>
						
						
						<duration>45540</duration>
						
						
						<rate>
							
							
							<timebase>24</timebase>
							
							
							<ntsc>TRUE</ntsc>
							
						
						</rate>
						
						
						<start>22709</start>
						
						
						<end>26830</end>
						
						
						<in>25580</in>
						
						
						<out>29701</out>
						
						
						<pproTicksIn>271009458719999</pproTicksIn>
						
						
						<pproTicksOut>314669739383999</pproTicksOut>
						
						
						<file id="file-26"/>
						
						
						<sourcetrack>
							
							
							<mediatype>audio</mediatype>
							
							
							<trackindex>1</trackindex>
							
						
						</sourcetrack>
						
							
						<marker>
							
								
							<comment/>
							
								
							<name/>
							
								
							<in>599</in>
							
								
							<out>-1</out>
							
							
						</marker>
						
						
						<logginginfo>
							
							
							<description/>
							
							
							<scene/>
							
							
							<shottake/>
							
							
							<lognote/>
							
							
							<good/>
							
							
							<originalvideofilename/>
							
							
							<originalaudiofilename/>
							
						
						</logginginfo>
						
						
						<colorinfo>
							
							
							<lut/>
							
							
							<lut1/>
							
							
							<asc_sop/>
							
							
							<asc_sat/>
							
							
							<lut2/>
							
						
						</colorinfo>
						
						
						<labels>
							
							
							<label2>Violet</label2>
							
						
						</labels>
						
					
						<link>
							<linkclipref>clipitem-328</linkclipref>
							<mediatype>video</mediatype>
							<trackindex>1</trackindex>
							<clipindex>5</clipindex>
							<groupindex>1</groupindex>
						</link>
						<link>
							<linkclipref>clipitem-334</linkclipref>
							<mediatype>video</mediatype>
							<trackindex>2</trackindex>
							<clipindex>5</clipindex>
							<groupindex>1</groupindex>
						</link>
						<link>
							<linkclipref>clipitem-340</linkclipref>
							<mediatype>video</mediatype>
							<trackindex>3</trackindex>
							<clipindex>5</clipindex>
							<groupindex>1</groupindex>
						</link>
						<link>
							<linkclipref>clipitem-346</linkclipref>
							<mediatype>audio</mediatype>
							<trackindex>1</trackindex>
							<clipindex>5</clipindex>
							<groupindex>1</groupindex>
						</link>
						<link>
							<linkclipref>clipitem-352</linkclipref>
							<mediatype>audio</mediatype>
							<trackindex>2</trackindex>
							<clipindex>5</clipindex>
							<groupindex>1</groupindex>
						</link>
						<link>
							<linkclipref>clipitem-358</linkclipref>
							<mediatype>audio</mediatype>
							<trackindex>3</trackindex>
							<clipindex>5</clipindex>
							<groupindex>1</groupindex>
						</link>
						<link>
							<linkclipref>clipitem-364</linkclipref>
							<mediatype>audio</mediatype>
							<trackindex>4</trackindex>
							<clipindex>5</clipindex>
							<groupindex>1</groupindex>
						</link>
						<link>
							<linkclipref>clipitem-370</linkclipref>
							<mediatype>audio</mediatype>
							<trackindex>5</trackindex>
							<clipindex>5</clipindex>
							<groupindex>1</groupindex>
						</link>
						<link>
							<linkclipref>clipitem-376</linkclipref>
							<mediatype>audio</mediatype>
							<trackindex>6</trackindex>
							<clipindex>5</clipindex>
							<groupindex>1</groupindex>
						</link>
						<link>
							<linkclipref>clipitem-382</linkclipref>
							<mediatype>audio</mediatype>
							<trackindex>7</trackindex>
							<clipindex>5</clipindex>
							<groupindex>1</groupindex>
						</link>
						<link>
							<linkclipref>clipitem-388</linkclipref>
							<mediatype>audio</mediatype>
							<trackindex>8</trackindex>
							<clipindex>5</clipindex>
							<groupindex>1</groupindex>
						</link>
					</clipitem>
					<clipitem id="clipitem-383" premiereChannelType="stereo">
						
						
						<masterclipid>masterclip-26</masterclipid>
						
						
						<name>C6197.MP4</name>
						
						
						<enabled>TRUE</enabled>
						
						
						<duration>45540</duration>
						
						
						<rate>
							
							
							<timebase>24</timebase>
							
							
							<ntsc>TRUE</ntsc>
							
						
						</rate>
						
						
						<start>27192</start>
						
						
						<end>41336</end>
						
						
						<in>30742</in>
						
						
						<out>44886</out>
						
						
						<pproTicksIn>325698701328000</pproTicksIn>
						
						
						<pproTicksOut>475548497424000</pproTicksOut>
						
						
						<file id="file-26"/>
						
						
						<sourcetrack>
							
							
							<mediatype>audio</mediatype>
							
							
							<trackindex>1</trackindex>
							
						
						</sourcetrack>
						
							
						<marker>
							
								
							<comment/>
							
								
							<name/>
							
								
							<in>599</in>
							
								
							<out>-1</out>
							
							
						</marker>
						
						
						<logginginfo>
							
							
							<description/>
							
							
							<scene/>
							
							
							<shottake/>
							
							
							<lognote/>
							
							
							<good/>
							
							
							<originalvideofilename/>
							
							
							<originalaudiofilename/>
							
						
						</logginginfo>
						
						
						<colorinfo>
							
							
							<lut/>
							
							
							<lut1/>
							
							
							<asc_sop/>
							
							
							<asc_sat/>
							
							
							<lut2/>
							
						
						</colorinfo>
						
						
						<labels>
							
							
							<label2>Yellow</label2>
							
						
						</labels>
						
					
						<link>
							<linkclipref>clipitem-329</linkclipref>
							<mediatype>video</mediatype>
							<trackindex>1</trackindex>
							<clipindex>6</clipindex>
							<groupindex>1</groupindex>
						</link>
						<link>
							<linkclipref>clipitem-335</linkclipref>
							<mediatype>video</mediatype>
							<trackindex>2</trackindex>
							<clipindex>6</clipindex>
							<groupindex>1</groupindex>
						</link>
						<link>
							<linkclipref>clipitem-341</linkclipref>
							<mediatype>video</mediatype>
							<trackindex>3</trackindex>
							<clipindex>6</clipindex>
							<groupindex>1</groupindex>
						</link>
						<link>
							<linkclipref>clipitem-347</linkclipref>
							<mediatype>audio</mediatype>
							<trackindex>1</trackindex>
							<clipindex>6</clipindex>
							<groupindex>1</groupindex>
						</link>
						<link>
							<linkclipref>clipitem-353</linkclipref>
							<mediatype>audio</mediatype>
							<trackindex>2</trackindex>
							<clipindex>6</clipindex>
							<groupindex>1</groupindex>
						</link>
						<link>
							<linkclipref>clipitem-359</linkclipref>
							<mediatype>audio</mediatype>
							<trackindex>3</trackindex>
							<clipindex>6</clipindex>
							<groupindex>1</groupindex>
						</link>
						<link>
							<linkclipref>clipitem-365</linkclipref>
							<mediatype>audio</mediatype>
							<trackindex>4</trackindex>
							<clipindex>6</clipindex>
							<groupindex>1</groupindex>
						</link>
						<link>
							<linkclipref>clipitem-371</linkclipref>
							<mediatype>audio</mediatype>
							<trackindex>5</trackindex>
							<clipindex>6</clipindex>
							<groupindex>1</groupindex>
						</link>
						<link>
							<linkclipref>clipitem-377</linkclipref>
							<mediatype>audio</mediatype>
							<trackindex>6</trackindex>
							<clipindex>6</clipindex>
							<groupindex>1</groupindex>
						</link>
						<link>
							<linkclipref>clipitem-383</linkclipref>
							<mediatype>audio</mediatype>
							<trackindex>7</trackindex>
							<clipindex>6</clipindex>
							<groupindex>1</groupindex>
						</link>
						<link>
							<linkclipref>clipitem-389</linkclipref>
							<mediatype>audio</mediatype>
							<trackindex>8</trackindex>
							<clipindex>6</clipindex>
							<groupindex>1</groupindex>
						</link>
					</clipitem>
					<enabled>TRUE</enabled>
					<locked>FALSE</locked>
					<outputchannelindex>1</outputchannelindex>
				</track>
				<track TL.SQTrackAudioKeyframeStyle="0" TL.SQTrackShy="0" TL.SQTrackExpandedHeight="41" TL.SQTrackExpanded="0" MZ.TrackTargeted="0" PannerCurrentValue="0.5" PannerIsInverted="true" PannerStartKeyframe="-91445760000000000,0.5,0,0,0,0,0,0" PannerName="Balance" currentExplodedTrackIndex="1" totalExplodedTrackCount="2" premiereTrackType="Stereo">
					<clipitem id="clipitem-384" premiereChannelType="stereo">
						
						
						<masterclipid>masterclip-26</masterclipid>
						
						
						<name>C6197.MP4</name>
						
						
						<enabled>TRUE</enabled>
						
						
						<duration>45540</duration>
						
						
						<rate>
							
							
							<timebase>24</timebase>
							
							
							<ntsc>TRUE</ntsc>
							
						
						</rate>
						
						
						<start>120</start>
						
						
						<end>4399</end>
						
						
						<in>603</in>
						
						
						<out>4882</out>
						
						
						<pproTicksIn>6388534152000</pproTicksIn>
						
						
						<pproTicksOut>51722759088000</pproTicksOut>
						
						
						<file id="file-26"/>
						
						
						<sourcetrack>
							
							
							<mediatype>audio</mediatype>
							
							
							<trackindex>2</trackindex>
							
						
						</sourcetrack>
						
							
						<marker>
							
								
							<comment/>
							
								
							<name/>
							
								
							<in>599</in>
							
								
							<out>-1</out>
							
							
						</marker>
						
						
						<logginginfo>
							
							
							<description/>
							
							
							<scene/>
							
							
							<shottake/>
							
							
							<lognote/>
							
							
							<good/>
							
							
							<originalvideofilename/>
							
							
							<originalaudiofilename/>
							
						
						</logginginfo>
						
						
						<colorinfo>
							
							
							<lut/>
							
							
							<lut1/>
							
							
							<asc_sop/>
							
							
							<asc_sat/>
							
							
							<lut2/>
							
						
						</colorinfo>
						
						
						<labels>
							
							
							<label2>Caribbean</label2>
							
						
						</labels>
						
					
						<link>
							<linkclipref>clipitem-324</linkclipref>
							<mediatype>video</mediatype>
							<trackindex>1</trackindex>
							<clipindex>1</clipindex>
							<groupindex>1</groupindex>
						</link>
						<link>
							<linkclipref>clipitem-330</linkclipref>
							<mediatype>video</mediatype>
							<trackindex>2</trackindex>
							<clipindex>1</clipindex>
							<groupindex>1</groupindex>
						</link>
						<link>
							<linkclipref>clipitem-336</linkclipref>
							<mediatype>video</mediatype>
							<trackindex>3</trackindex>
							<clipindex>1</clipindex>
							<groupindex>1</groupindex>
						</link>
						<link>
							<linkclipref>clipitem-342</linkclipref>
							<mediatype>audio</mediatype>
							<trackindex>1</trackindex>
							<clipindex>1</clipindex>
							<groupindex>1</groupindex>
						</link>
						<link>
							<linkclipref>clipitem-348</linkclipref>
							<mediatype>audio</mediatype>
							<trackindex>2</trackindex>
							<clipindex>1</clipindex>
							<groupindex>1</groupindex>
						</link>
						<link>
							<linkclipref>clipitem-354</linkclipref>
							<mediatype>audio</mediatype>
							<trackindex>3</trackindex>
							<clipindex>1</clipindex>
							<groupindex>1</groupindex>
						</link>
						<link>
							<linkclipref>clipitem-360</linkclipref>
							<mediatype>audio</mediatype>
							<trackindex>4</trackindex>
							<clipindex>1</clipindex>
							<groupindex>1</groupindex>
						</link>
						<link>
							<linkclipref>clipitem-366</linkclipref>
							<mediatype>audio</mediatype>
							<trackindex>5</trackindex>
							<clipindex>1</clipindex>
							<groupindex>1</groupindex>
						</link>
						<link>
							<linkclipref>clipitem-372</linkclipref>
							<mediatype>audio</mediatype>
							<trackindex>6</trackindex>
							<clipindex>1</clipindex>
							<groupindex>1</groupindex>
						</link>
						<link>
							<linkclipref>clipitem-378</linkclipref>
							<mediatype>audio</mediatype>
							<trackindex>7</trackindex>
							<clipindex>1</clipindex>
							<groupindex>1</groupindex>
						</link>
						<link>
							<linkclipref>clipitem-384</linkclipref>
							<mediatype>audio</mediatype>
							<trackindex>8</trackindex>
							<clipindex>1</clipindex>
							<groupindex>1</groupindex>
						</link>
					</clipitem>
					<clipitem id="clipitem-385" premiereChannelType="stereo">
						
						
						<masterclipid>masterclip-26</masterclipid>
						
						
						<name>C6197.MP4</name>
						
						
						<enabled>TRUE</enabled>
						
						
						<duration>45540</duration>
						
						
						<rate>
							
							
							<timebase>24</timebase>
							
							
							<ntsc>TRUE</ntsc>
							
						
						</rate>
						
						
						<start>4761</start>
						
						
						<end>14095</end>
						
						
						<in>5147</in>
						
						
						<out>14481</out>
						
						
						<pproTicksIn>54530323848000</pproTicksIn>
						
						
						<pproTicksOut>153420170903999</pproTicksOut>
						
						
						<file id="file-26"/>
						
						
						<sourcetrack>
							
							
							<mediatype>audio</mediatype>
							
							
							<trackindex>2</trackindex>
							
						
						</sourcetrack>
						
							
						<marker>
							
								
							<comment/>
							
								
							<name/>
							
								
							<in>599</in>
							
								
							<out>-1</out>
							
							
						</marker>
						
						
						<logginginfo>
							
							
							<description/>
							
							
							<scene/>
							
							
							<shottake/>
							
							
							<lognote/>
							
							
							<good/>
							
							
							<originalvideofilename/>
							
							
							<originalaudiofilename/>
							
						
						</logginginfo>
						
						
						<colorinfo>
							
							
							<lut/>
							
							
							<lut1/>
							
							
							<asc_sop/>
							
							
							<asc_sat/>
							
							
							<lut2/>
							
						
						</colorinfo>
						
						
						<labels>
							
							
							<label2>Rose</label2>
							
						
						</labels>
						
					
						<link>
							<linkclipref>clipitem-325</linkclipref>
							<mediatype>video</mediatype>
							<trackindex>1</trackindex>
							<clipindex>2</clipindex>
							<groupindex>1</groupindex>
						</link>
						<link>
							<linkclipref>clipitem-331</linkclipref>
							<mediatype>video</mediatype>
							<trackindex>2</trackindex>
							<clipindex>2</clipindex>
							<groupindex>1</groupindex>
						</link>
						<link>
							<linkclipref>clipitem-337</linkclipref>
							<mediatype>video</mediatype>
							<trackindex>3</trackindex>
							<clipindex>2</clipindex>
							<groupindex>1</groupindex>
						</link>
						<link>
							<linkclipref>clipitem-343</linkclipref>
							<mediatype>audio</mediatype>
							<trackindex>1</trackindex>
							<clipindex>2</clipindex>
							<groupindex>1</groupindex>
						</link>
						<link>
							<linkclipref>clipitem-349</linkclipref>
							<mediatype>audio</mediatype>
							<trackindex>2</trackindex>
							<clipindex>2</clipindex>
							<groupindex>1</groupindex>
						</link>
						<link>
							<linkclipref>clipitem-355</linkclipref>
							<mediatype>audio</mediatype>
							<trackindex>3</trackindex>
							<clipindex>2</clipindex>
							<groupindex>1</groupindex>
						</link>
						<link>
							<linkclipref>clipitem-361</linkclipref>
							<mediatype>audio</mediatype>
							<trackindex>4</trackindex>
							<clipindex>2</clipindex>
							<groupindex>1</groupindex>
						</link>
						<link>
							<linkclipref>clipitem-367</linkclipref>
							<mediatype>audio</mediatype>
							<trackindex>5</trackindex>
							<clipindex>2</clipindex>
							<groupindex>1</groupindex>
						</link>
						<link>
							<linkclipref>clipitem-373</linkclipref>
							<mediatype>audio</mediatype>
							<trackindex>6</trackindex>
							<clipindex>2</clipindex>
							<groupindex>1</groupindex>
						</link>
						<link>
							<linkclipref>clipitem-379</linkclipref>
							<mediatype>audio</mediatype>
							<trackindex>7</trackindex>
							<clipindex>2</clipindex>
							<groupindex>1</groupindex>
						</link>
						<link>
							<linkclipref>clipitem-385</linkclipref>
							<mediatype>audio</mediatype>
							<trackindex>8</trackindex>
							<clipindex>2</clipindex>
							<groupindex>1</groupindex>
						</link>
					</clipitem>
					<clipitem id="clipitem-386" premiereChannelType="stereo">
						
						
						<masterclipid>masterclip-26</masterclipid>
						
						
						<name>C6197.MP4</name>
						
						
						<enabled>TRUE</enabled>
						
						
						<duration>45540</duration>
						
						
						<rate>
							
							
							<timebase>24</timebase>
							
							
							<ntsc>TRUE</ntsc>
							
						
						</rate>
						
						
						<start>14457</start>
						
						
						<end>18809</end>
						
						
						<in>15842</in>
						
						
						<out>20194</out>
						
						
						<pproTicksIn>167839399727999</pproTicksIn>
						
						
						<pproTicksOut>213947029296000</pproTicksOut>
						
						
						<file id="file-26"/>
						
						
						<sourcetrack>
							
							
							<mediatype>audio</mediatype>
							
							
							<trackindex>2</trackindex>
							
						
						</sourcetrack>
						
							
						<marker>
							
								
							<comment/>
							
								
							<name/>
							
								
							<in>599</in>
							
								
							<out>-1</out>
							
							
						</marker>
						
						
						<logginginfo>
							
							
							<description/>
							
							
							<scene/>
							
							
							<shottake/>
							
							
							<lognote/>
							
							
							<good/>
							
							
							<originalvideofilename/>
							
							
							<originalaudiofilename/>
							
						
						</logginginfo>
						
						
						<colorinfo>
							
							
							<lut/>
							
							
							<lut1/>
							
							
							<asc_sop/>
							
							
							<asc_sat/>
							
							
							<lut2/>
							
						
						</colorinfo>
						
						
						<labels>
							
							
							<label2>Lavender</label2>
							
						
						</labels>
						
					
						<link>
							<linkclipref>clipitem-326</linkclipref>
							<mediatype>video</mediatype>
							<trackindex>1</trackindex>
							<clipindex>3</clipindex>
							<groupindex>1</groupindex>
						</link>
						<link>
							<linkclipref>clipitem-332</linkclipref>
							<mediatype>video</mediatype>
							<trackindex>2</trackindex>
							<clipindex>3</clipindex>
							<groupindex>1</groupindex>
						</link>
						<link>
							<linkclipref>clipitem-338</linkclipref>
							<mediatype>video</mediatype>
							<trackindex>3</trackindex>
							<clipindex>3</clipindex>
							<groupindex>1</groupindex>
						</link>
						<link>
							<linkclipref>clipitem-344</linkclipref>
							<mediatype>audio</mediatype>
							<trackindex>1</trackindex>
							<clipindex>3</clipindex>
							<groupindex>1</groupindex>
						</link>
						<link>
							<linkclipref>clipitem-350</linkclipref>
							<mediatype>audio</mediatype>
							<trackindex>2</trackindex>
							<clipindex>3</clipindex>
							<groupindex>1</groupindex>
						</link>
						<link>
							<linkclipref>clipitem-356</linkclipref>
							<mediatype>audio</mediatype>
							<trackindex>3</trackindex>
							<clipindex>3</clipindex>
							<groupindex>1</groupindex>
						</link>
						<link>
							<linkclipref>clipitem-362</linkclipref>
							<mediatype>audio</mediatype>
							<trackindex>4</trackindex>
							<clipindex>3</clipindex>
							<groupindex>1</groupindex>
						</link>
						<link>
							<linkclipref>clipitem-368</linkclipref>
							<mediatype>audio</mediatype>
							<trackindex>5</trackindex>
							<clipindex>3</clipindex>
							<groupindex>1</groupindex>
						</link>
						<link>
							<linkclipref>clipitem-374</linkclipref>
							<mediatype>audio</mediatype>
							<trackindex>6</trackindex>
							<clipindex>3</clipindex>
							<groupindex>1</groupindex>
						</link>
						<link>
							<linkclipref>clipitem-380</linkclipref>
							<mediatype>audio</mediatype>
							<trackindex>7</trackindex>
							<clipindex>3</clipindex>
							<groupindex>1</groupindex>
						</link>
						<link>
							<linkclipref>clipitem-386</linkclipref>
							<mediatype>audio</mediatype>
							<trackindex>8</trackindex>
							<clipindex>3</clipindex>
							<groupindex>1</groupindex>
						</link>
					</clipitem>
					<clipitem id="clipitem-387" premiereChannelType="stereo">
						
						
						<masterclipid>masterclip-26</masterclipid>
						
						
						<name>C6197.MP4</name>
						
						
						<enabled>TRUE</enabled>
						
						
						<duration>45540</duration>
						
						
						<rate>
							
							
							<timebase>24</timebase>
							
							
							<ntsc>TRUE</ntsc>
							
						
						</rate>
						
						
						<start>19171</start>
						
						
						<end>22347</end>
						
						
						<in>21357</in>
						
						
						<out>24533</out>
						
						
						<pproTicksIn>226268530488000</pproTicksIn>
						
						
						<pproTicksOut>259916929271999</pproTicksOut>
						
						
						<file id="file-26"/>
						
						
						<sourcetrack>
							
							
							<mediatype>audio</mediatype>
							
							
							<trackindex>2</trackindex>
							
						
						</sourcetrack>
						
							
						<marker>
							
								
							<comment/>
							
								
							<name/>
							
								
							<in>599</in>
							
								
							<out>-1</out>
							
							
						</marker>
						
						
						<logginginfo>
							
							
							<description/>
							
							
							<scene/>
							
							
							<shottake/>
							
							
							<lognote/>
							
							
							<good/>
							
							
							<originalvideofilename/>
							
							
							<originalaudiofilename/>
							
						
						</logginginfo>
						
						
						<colorinfo>
							
							
							<lut/>
							
							
							<lut1/>
							
							
							<asc_sop/>
							
							
							<asc_sat/>
							
							
							<lut2/>
							
						
						</colorinfo>
						
						
						<labels>
							
							
							<label2>Yellow</label2>
							
						
						</labels>
						
					
						<link>
							<linkclipref>clipitem-327</linkclipref>
							<mediatype>video</mediatype>
							<trackindex>1</trackindex>
							<clipindex>4</clipindex>
							<groupindex>1</groupindex>
						</link>
						<link>
							<linkclipref>clipitem-333</linkclipref>
							<mediatype>video</mediatype>
							<trackindex>2</trackindex>
							<clipindex>4</clipindex>
							<groupindex>1</groupindex>
						</link>
						<link>
							<linkclipref>clipitem-339</linkclipref>
							<mediatype>video</mediatype>
							<trackindex>3</trackindex>
							<clipindex>4</clipindex>
							<groupindex>1</groupindex>
						</link>
						<link>
							<linkclipref>clipitem-345</linkclipref>
							<mediatype>audio</mediatype>
							<trackindex>1</trackindex>
							<clipindex>4</clipindex>
							<groupindex>1</groupindex>
						</link>
						<link>
							<linkclipref>clipitem-351</linkclipref>
							<mediatype>audio</mediatype>
							<trackindex>2</trackindex>
							<clipindex>4</clipindex>
							<groupindex>1</groupindex>
						</link>
						<link>
							<linkclipref>clipitem-357</linkclipref>
							<mediatype>audio</mediatype>
							<trackindex>3</trackindex>
							<clipindex>4</clipindex>
							<groupindex>1</groupindex>
						</link>
						<link>
							<linkclipref>clipitem-363</linkclipref>
							<mediatype>audio</mediatype>
							<trackindex>4</trackindex>
							<clipindex>4</clipindex>
							<groupindex>1</groupindex>
						</link>
						<link>
							<linkclipref>clipitem-369</linkclipref>
							<mediatype>audio</mediatype>
							<trackindex>5</trackindex>
							<clipindex>4</clipindex>
							<groupindex>1</groupindex>
						</link>
						<link>
							<linkclipref>clipitem-375</linkclipref>
							<mediatype>audio</mediatype>
							<trackindex>6</trackindex>
							<clipindex>4</clipindex>
							<groupindex>1</groupindex>
						</link>
						<link>
							<linkclipref>clipitem-381</linkclipref>
							<mediatype>audio</mediatype>
							<trackindex>7</trackindex>
							<clipindex>4</clipindex>
							<groupindex>1</groupindex>
						</link>
						<link>
							<linkclipref>clipitem-387</linkclipref>
							<mediatype>audio</mediatype>
							<trackindex>8</trackindex>
							<clipindex>4</clipindex>
							<groupindex>1</groupindex>
						</link>
					</clipitem>
					<clipitem id="clipitem-388" premiereChannelType="stereo">
						
						
						<masterclipid>masterclip-26</masterclipid>
						
						
						<name>C6197.MP4</name>
						
						
						<enabled>TRUE</enabled>
						
						
						<duration>45540</duration>
						
						
						<rate>
							
							
							<timebase>24</timebase>
							
							
							<ntsc>TRUE</ntsc>
							
						
						</rate>
						
						
						<start>22709</start>
						
						
						<end>26830</end>
						
						
						<in>25580</in>
						
						
						<out>29701</out>
						
						
						<pproTicksIn>271009458719999</pproTicksIn>
						
						
						<pproTicksOut>314669739383999</pproTicksOut>
						
						
						<file id="file-26"/>
						
						
						<sourcetrack>
							
							
							<mediatype>audio</mediatype>
							
							
							<trackindex>2</trackindex>
							
						
						</sourcetrack>
						
							
						<marker>
							
								
							<comment/>
							
								
							<name/>
							
								
							<in>599</in>
							
								
							<out>-1</out>
							
							
						</marker>
						
						
						<logginginfo>
							
							
							<description/>
							
							
							<scene/>
							
							
							<shottake/>
							
							
							<lognote/>
							
							
							<good/>
							
							
							<originalvideofilename/>
							
							
							<originalaudiofilename/>
							
						
						</logginginfo>
						
						
						<colorinfo>
							
							
							<lut/>
							
							
							<lut1/>
							
							
							<asc_sop/>
							
							
							<asc_sat/>
							
							
							<lut2/>
							
						
						</colorinfo>
						
						
						<labels>
							
							
							<label2>Violet</label2>
							
						
						</labels>
						
					
						<link>
							<linkclipref>clipitem-328</linkclipref>
							<mediatype>video</mediatype>
							<trackindex>1</trackindex>
							<clipindex>5</clipindex>
							<groupindex>1</groupindex>
						</link>
						<link>
							<linkclipref>clipitem-334</linkclipref>
							<mediatype>video</mediatype>
							<trackindex>2</trackindex>
							<clipindex>5</clipindex>
							<groupindex>1</groupindex>
						</link>
						<link>
							<linkclipref>clipitem-340</linkclipref>
							<mediatype>video</mediatype>
							<trackindex>3</trackindex>
							<clipindex>5</clipindex>
							<groupindex>1</groupindex>
						</link>
						<link>
							<linkclipref>clipitem-346</linkclipref>
							<mediatype>audio</mediatype>
							<trackindex>1</trackindex>
							<clipindex>5</clipindex>
							<groupindex>1</groupindex>
						</link>
						<link>
							<linkclipref>clipitem-352</linkclipref>
							<mediatype>audio</mediatype>
							<trackindex>2</trackindex>
							<clipindex>5</clipindex>
							<groupindex>1</groupindex>
						</link>
						<link>
							<linkclipref>clipitem-358</linkclipref>
							<mediatype>audio</mediatype>
							<trackindex>3</trackindex>
							<clipindex>5</clipindex>
							<groupindex>1</groupindex>
						</link>
						<link>
							<linkclipref>clipitem-364</linkclipref>
							<mediatype>audio</mediatype>
							<trackindex>4</trackindex>
							<clipindex>5</clipindex>
							<groupindex>1</groupindex>
						</link>
						<link>
							<linkclipref>clipitem-370</linkclipref>
							<mediatype>audio</mediatype>
							<trackindex>5</trackindex>
							<clipindex>5</clipindex>
							<groupindex>1</groupindex>
						</link>
						<link>
							<linkclipref>clipitem-376</linkclipref>
							<mediatype>audio</mediatype>
							<trackindex>6</trackindex>
							<clipindex>5</clipindex>
							<groupindex>1</groupindex>
						</link>
						<link>
							<linkclipref>clipitem-382</linkclipref>
							<mediatype>audio</mediatype>
							<trackindex>7</trackindex>
							<clipindex>5</clipindex>
							<groupindex>1</groupindex>
						</link>
						<link>
							<linkclipref>clipitem-388</linkclipref>
							<mediatype>audio</mediatype>
							<trackindex>8</trackindex>
							<clipindex>5</clipindex>
							<groupindex>1</groupindex>
						</link>
					</clipitem>
					<clipitem id="clipitem-389" premiereChannelType="stereo">
						
						
						<masterclipid>masterclip-26</masterclipid>
						
						
						<name>C6197.MP4</name>
						
						
						<enabled>TRUE</enabled>
						
						
						<duration>45540</duration>
						
						
						<rate>
							
							
							<timebase>24</timebase>
							
							
							<ntsc>TRUE</ntsc>
							
						
						</rate>
						
						
						<start>27192</start>
						
						
						<end>41336</end>
						
						
						<in>30742</in>
						
						
						<out>44886</out>
						
						
						<pproTicksIn>325698701328000</pproTicksIn>
						
						
						<pproTicksOut>475548497424000</pproTicksOut>
						
						
						<file id="file-26"/>
						
						
						<sourcetrack>
							
							
							<mediatype>audio</mediatype>
							
							
							<trackindex>2</trackindex>
							
						
						</sourcetrack>
						
							
						<marker>
							
								
							<comment/>
							
								
							<name/>
							
								
							<in>599</in>
							
								
							<out>-1</out>
							
							
						</marker>
						
						
						<logginginfo>
							
							
							<description/>
							
							
							<scene/>
							
							
							<shottake/>
							
							
							<lognote/>
							
							
							<good/>
							
							
							<originalvideofilename/>
							
							
							<originalaudiofilename/>
							
						
						</logginginfo>
						
						
						<colorinfo>
							
							
							<lut/>
							
							
							<lut1/>
							
							
							<asc_sop/>
							
							
							<asc_sat/>
							
							
							<lut2/>
							
						
						</colorinfo>
						
						
						<labels>
							
							
							<label2>Yellow</label2>
							
						
						</labels>
						
					
						<link>
							<linkclipref>clipitem-329</linkclipref>
							<mediatype>video</mediatype>
							<trackindex>1</trackindex>
							<clipindex>6</clipindex>
							<groupindex>1</groupindex>
						</link>
						<link>
							<linkclipref>clipitem-335</linkclipref>
							<mediatype>video</mediatype>
							<trackindex>2</trackindex>
							<clipindex>6</clipindex>
							<groupindex>1</groupindex>
						</link>
						<link>
							<linkclipref>clipitem-341</linkclipref>
							<mediatype>video</mediatype>
							<trackindex>3</trackindex>
							<clipindex>6</clipindex>
							<groupindex>1</groupindex>
						</link>
						<link>
							<linkclipref>clipitem-347</linkclipref>
							<mediatype>audio</mediatype>
							<trackindex>1</trackindex>
							<clipindex>6</clipindex>
							<groupindex>1</groupindex>
						</link>
						<link>
							<linkclipref>clipitem-353</linkclipref>
							<mediatype>audio</mediatype>
							<trackindex>2</trackindex>
							<clipindex>6</clipindex>
							<groupindex>1</groupindex>
						</link>
						<link>
							<linkclipref>clipitem-359</linkclipref>
							<mediatype>audio</mediatype>
							<trackindex>3</trackindex>
							<clipindex>6</clipindex>
							<groupindex>1</groupindex>
						</link>
						<link>
							<linkclipref>clipitem-365</linkclipref>
							<mediatype>audio</mediatype>
							<trackindex>4</trackindex>
							<clipindex>6</clipindex>
							<groupindex>1</groupindex>
						</link>
						<link>
							<linkclipref>clipitem-371</linkclipref>
							<mediatype>audio</mediatype>
							<trackindex>5</trackindex>
							<clipindex>6</clipindex>
							<groupindex>1</groupindex>
						</link>
						<link>
							<linkclipref>clipitem-377</linkclipref>
							<mediatype>audio</mediatype>
							<trackindex>6</trackindex>
							<clipindex>6</clipindex>
							<groupindex>1</groupindex>
						</link>
						<link>
							<linkclipref>clipitem-383</linkclipref>
							<mediatype>audio</mediatype>
							<trackindex>7</trackindex>
							<clipindex>6</clipindex>
							<groupindex>1</groupindex>
						</link>
						<link>
							<linkclipref>clipitem-389</linkclipref>
							<mediatype>audio</mediatype>
							<trackindex>8</trackindex>
							<clipindex>6</clipindex>
							<groupindex>1</groupindex>
						</link>
					</clipitem>
					<enabled>TRUE</enabled>
					<locked>FALSE</locked>
					<outputchannelindex>2</outputchannelindex>
				</track>
			</audio>
		</media>
	</sequence>
</xmeml>
