<?xml version="1.0" encoding="utf-8"?>
<xmeml version="4">
  <sequence>
    <uuid>OrionEp2_timeline_v1</uuid>
    <duration>18579</duration>
    <name>OrionEp2_timeline_v1</name>
    <rate>
      <timebase>30</timebase>
      <ntsc>TRUE</ntsc>
    </rate>
    <media>
      <video>
        <format/>
      </video>
      <audio>
        <track>
          <clipitem id="clipitem-1">
            <name>OrionEp2-001-NA.mp3</name>
            <enabled>TRUE</enabled>
            <duration>226</duration>
            <rate>
              <timebase>30</timebase>
              <ntsc>TRUE</ntsc>
            </rate>
            <start>15</start>
            <end>241</end>
            <in>0</in>
            <out>226</out>
            <file id="file-2">
              <name>OrionEp2-001-NA.mp3</name>
              <pathurl>file:///Users/hiroshikodera/repos/_active/tools/davinciauto/projects/OrionEp2/%E3%82%B5%E3%82%A6%E3%83%B3%E3%83%89%E9%A1%9E/Narration/OrionEp2-001-NA.mp3</pathurl>
              <rate>
                <timebase>44100</timebase>
                <ntsc>FALSE</ntsc>
              </rate>
              <media>
                <audio>
                  <channelcount>1</channelcount>
                  <samplecharacteristics>
                    <samplerate>44100</samplerate>
                    <samplesize>16</samplesize>
                  </samplecharacteristics>
                </audio>
              </media>
            </file>
            <sourcetrack>
              <mediatype>audio</mediatype>
              <trackindex>1</trackindex>
            </sourcetrack>
          </clipitem>
          <clipitem id="clipitem-2">
            <name>OrionEp2-002-NA.mp3</name>
            <enabled>TRUE</enabled>
            <duration>180</duration>
            <rate>
              <timebase>30</timebase>
              <ntsc>TRUE</ntsc>
            </rate>
            <start>266</start>
            <end>446</end>
            <in>0</in>
            <out>180</out>
            <file id="file-3">
              <name>OrionEp2-002-NA.mp3</name>
              <pathurl>file:///Users/hiroshikodera/repos/_active/tools/davinciauto/projects/OrionEp2/%E3%82%B5%E3%82%A6%E3%83%B3%E3%83%89%E9%A1%9E/Narration/OrionEp2-002-NA.mp3</pathurl>
              <rate>
                <timebase>44100</timebase>
                <ntsc>FALSE</ntsc>
              </rate>
              <media>
                <audio>
                  <channelcount>1</channelcount>
                  <samplecharacteristics>
                    <samplerate>44100</samplerate>
                    <samplesize>16</samplesize>
                  </samplecharacteristics>
                </audio>
              </media>
            </file>
            <sourcetrack>
              <mediatype>audio</mediatype>
              <trackindex>1</trackindex>
            </sourcetrack>
          </clipitem>
          <clipitem id="clipitem-3">
            <name>OrionEp2-003-NA.mp3</name>
            <enabled>TRUE</enabled>
            <duration>283</duration>
            <rate>
              <timebase>30</timebase>
              <ntsc>TRUE</ntsc>
            </rate>
            <start>469</start>
            <end>752</end>
            <in>0</in>
            <out>283</out>
            <file id="file-4">
              <name>OrionEp2-003-NA.mp3</name>
              <pathurl>file:///Users/hiroshikodera/repos/_active/tools/davinciauto/projects/OrionEp2/%E3%82%B5%E3%82%A6%E3%83%B3%E3%83%89%E9%A1%9E/Narration/OrionEp2-003-NA.mp3</pathurl>
              <rate>
                <timebase>44100</timebase>
                <ntsc>FALSE</ntsc>
              </rate>
              <media>
                <audio>
                  <channelcount>1</channelcount>
                  <samplecharacteristics>
                    <samplerate>44100</samplerate>
                    <samplesize>16</samplesize>
                  </samplecharacteristics>
                </audio>
              </media>
            </file>
            <sourcetrack>
              <mediatype>audio</mediatype>
              <trackindex>1</trackindex>
            </sourcetrack>
          </clipitem>
          <clipitem id="clipitem-4">
            <name>OrionEp2-004-NA.mp3</name>
            <enabled>TRUE</enabled>
            <duration>356</duration>
            <rate>
              <timebase>30</timebase>
              <ntsc>TRUE</ntsc>
            </rate>
            <start>768</start>
            <end>1124</end>
            <in>0</in>
            <out>356</out>
            <file id="file-5">
              <name>OrionEp2-004-NA.mp3</name>
              <pathurl>file:///Users/hiroshikodera/repos/_active/tools/davinciauto/projects/OrionEp2/%E3%82%B5%E3%82%A6%E3%83%B3%E3%83%89%E9%A1%9E/Narration/OrionEp2-004-NA.mp3</pathurl>
              <rate>
                <timebase>44100</timebase>
                <ntsc>FALSE</ntsc>
              </rate>
              <media>
                <audio>
                  <channelcount>1</channelcount>
                  <samplecharacteristics>
                    <samplerate>44100</samplerate>
                    <samplesize>16</samplesize>
                  </samplecharacteristics>
                </audio>
              </media>
            </file>
            <sourcetrack>
              <mediatype>audio</mediatype>
              <trackindex>1</trackindex>
            </sourcetrack>
          </clipitem>
          <clipitem id="clipitem-5">
            <name>OrionEp2-005-NA.mp3</name>
            <enabled>TRUE</enabled>
            <duration>341</duration>
            <rate>
              <timebase>30</timebase>
              <ntsc>TRUE</ntsc>
            </rate>
            <start>1141</start>
            <end>1482</end>
            <in>0</in>
            <out>341</out>
            <file id="file-6">
              <name>OrionEp2-005-NA.mp3</name>
              <pathurl>file:///Users/hiroshikodera/repos/_active/tools/davinciauto/projects/OrionEp2/%E3%82%B5%E3%82%A6%E3%83%B3%E3%83%89%E9%A1%9E/Narration/OrionEp2-005-NA.mp3</pathurl>
              <rate>
                <timebase>44100</timebase>
                <ntsc>FALSE</ntsc>
              </rate>
              <media>
                <audio>
                  <channelcount>1</channelcount>
                  <samplecharacteristics>
                    <samplerate>44100</samplerate>
                    <samplesize>16</samplesize>
                  </samplecharacteristics>
                </audio>
              </media>
            </file>
            <sourcetrack>
              <mediatype>audio</mediatype>
              <trackindex>1</trackindex>
            </sourcetrack>
          </clipitem>
          <clipitem id="clipitem-6">
            <name>OrionEp2-006-NA.mp3</name>
            <enabled>TRUE</enabled>
            <duration>208</duration>
            <rate>
              <timebase>30</timebase>
              <ntsc>TRUE</ntsc>
            </rate>
            <start>1509</start>
            <end>1717</end>
            <in>0</in>
            <out>208</out>
            <file id="file-7">
              <name>OrionEp2-006-NA.mp3</name>
              <pathurl>file:///Users/hiroshikodera/repos/_active/tools/davinciauto/projects/OrionEp2/%E3%82%B5%E3%82%A6%E3%83%B3%E3%83%89%E9%A1%9E/Narration/OrionEp2-006-NA.mp3</pathurl>
              <rate>
                <timebase>44100</timebase>
                <ntsc>FALSE</ntsc>
              </rate>
              <media>
                <audio>
                  <channelcount>1</channelcount>
                  <samplecharacteristics>
                    <samplerate>44100</samplerate>
                    <samplesize>16</samplesize>
                  </samplecharacteristics>
                </audio>
              </media>
            </file>
            <sourcetrack>
              <mediatype>audio</mediatype>
              <trackindex>1</trackindex>
            </sourcetrack>
          </clipitem>
          <clipitem id="clipitem-7">
            <name>OrionEp2-007-NA.mp3</name>
            <enabled>TRUE</enabled>
            <duration>97</duration>
            <rate>
              <timebase>30</timebase>
              <ntsc>TRUE</ntsc>
            </rate>
            <start>1731</start>
            <end>1828</end>
            <in>0</in>
            <out>97</out>
            <file id="file-8">
              <name>OrionEp2-007-NA.mp3</name>
              <pathurl>file:///Users/hiroshikodera/repos/_active/tools/davinciauto/projects/OrionEp2/%E3%82%B5%E3%82%A6%E3%83%B3%E3%83%89%E9%A1%9E/Narration/OrionEp2-007-NA.mp3</pathurl>
              <rate>
                <timebase>44100</timebase>
                <ntsc>FALSE</ntsc>
              </rate>
              <media>
                <audio>
                  <channelcount>1</channelcount>
                  <samplecharacteristics>
                    <samplerate>44100</samplerate>
                    <samplesize>16</samplesize>
                  </samplecharacteristics>
                </audio>
              </media>
            </file>
            <sourcetrack>
              <mediatype>audio</mediatype>
              <trackindex>1</trackindex>
            </sourcetrack>
          </clipitem>
          <clipitem id="clipitem-8">
            <name>OrionEp2-008-NA.mp3</name>
            <enabled>TRUE</enabled>
            <duration>369</duration>
            <rate>
              <timebase>30</timebase>
              <ntsc>TRUE</ntsc>
            </rate>
            <start>1841</start>
            <end>2210</end>
            <in>0</in>
            <out>369</out>
            <file id="file-9">
              <name>OrionEp2-008-NA.mp3</name>
              <pathurl>file:///Users/hiroshikodera/repos/_active/tools/davinciauto/projects/OrionEp2/%E3%82%B5%E3%82%A6%E3%83%B3%E3%83%89%E9%A1%9E/Narration/OrionEp2-008-NA.mp3</pathurl>
              <rate>
                <timebase>44100</timebase>
                <ntsc>FALSE</ntsc>
              </rate>
              <media>
                <audio>
                  <channelcount>1</channelcount>
                  <samplecharacteristics>
                    <samplerate>44100</samplerate>
                    <samplesize>16</samplesize>
                  </samplecharacteristics>
                </audio>
              </media>
            </file>
            <sourcetrack>
              <mediatype>audio</mediatype>
              <trackindex>1</trackindex>
            </sourcetrack>
          </clipitem>
          <clipitem id="clipitem-9">
            <name>OrionEp2-009-NA.mp3</name>
            <enabled>TRUE</enabled>
            <duration>211</duration>
            <rate>
              <timebase>30</timebase>
              <ntsc>TRUE</ntsc>
            </rate>
            <start>2229</start>
            <end>2440</end>
            <in>0</in>
            <out>211</out>
            <file id="file-10">
              <name>OrionEp2-009-NA.mp3</name>
              <pathurl>file:///Users/hiroshikodera/repos/_active/tools/davinciauto/projects/OrionEp2/%E3%82%B5%E3%82%A6%E3%83%B3%E3%83%89%E9%A1%9E/Narration/OrionEp2-009-NA.mp3</pathurl>
              <rate>
                <timebase>44100</timebase>
                <ntsc>FALSE</ntsc>
              </rate>
              <media>
                <audio>
                  <channelcount>1</channelcount>
                  <samplecharacteristics>
                    <samplerate>44100</samplerate>
                    <samplesize>16</samplesize>
                  </samplecharacteristics>
                </audio>
              </media>
            </file>
            <sourcetrack>
              <mediatype>audio</mediatype>
              <trackindex>1</trackindex>
            </sourcetrack>
          </clipitem>
          <clipitem id="clipitem-10">
            <name>OrionEp2-010-NA.mp3</name>
            <enabled>TRUE</enabled>
            <duration>144</duration>
            <rate>
              <timebase>30</timebase>
              <ntsc>TRUE</ntsc>
            </rate>
            <start>2455</start>
            <end>2599</end>
            <in>0</in>
            <out>144</out>
            <file id="file-11">
              <name>OrionEp2-010-NA.mp3</name>
              <pathurl>file:///Users/hiroshikodera/repos/_active/tools/davinciauto/projects/OrionEp2/%E3%82%B5%E3%82%A6%E3%83%B3%E3%83%89%E9%A1%9E/Narration/OrionEp2-010-NA.mp3</pathurl>
              <rate>
                <timebase>44100</timebase>
                <ntsc>FALSE</ntsc>
              </rate>
              <media>
                <audio>
                  <channelcount>1</channelcount>
                  <samplecharacteristics>
                    <samplerate>44100</samplerate>
                    <samplesize>16</samplesize>
                  </samplecharacteristics>
                </audio>
              </media>
            </file>
            <sourcetrack>
              <mediatype>audio</mediatype>
              <trackindex>1</trackindex>
            </sourcetrack>
          </clipitem>
          <clipitem id="clipitem-11">
            <name>OrionEp2-011-DL.mp3</name>
            <enabled>TRUE</enabled>
            <duration>98</duration>
            <rate>
              <timebase>30</timebase>
              <ntsc>TRUE</ntsc>
            </rate>
            <start>2611</start>
            <end>2709</end>
            <in>0</in>
            <out>98</out>
            <file id="file-12">
              <name>OrionEp2-011-DL.mp3</name>
              <pathurl>file:///Users/hiroshikodera/repos/_active/tools/davinciauto/projects/OrionEp2/%E3%82%B5%E3%82%A6%E3%83%B3%E3%83%89%E9%A1%9E/Narration/OrionEp2-011-DL.mp3</pathurl>
              <rate>
                <timebase>44100</timebase>
                <ntsc>FALSE</ntsc>
              </rate>
              <media>
                <audio>
                  <channelcount>1</channelcount>
                  <samplecharacteristics>
                    <samplerate>44100</samplerate>
                    <samplesize>16</samplesize>
                  </samplecharacteristics>
                </audio>
              </media>
            </file>
            <sourcetrack>
              <mediatype>audio</mediatype>
              <trackindex>1</trackindex>
            </sourcetrack>
          </clipitem>
          <clipitem id="clipitem-12">
            <name>OrionEp2-012-NA.mp3</name>
            <enabled>TRUE</enabled>
            <duration>302</duration>
            <rate>
              <timebase>30</timebase>
              <ntsc>TRUE</ntsc>
            </rate>
            <start>2738</start>
            <end>3040</end>
            <in>0</in>
            <out>302</out>
            <file id="file-13">
              <name>OrionEp2-012-NA.mp3</name>
              <pathurl>file:///Users/hiroshikodera/repos/_active/tools/davinciauto/projects/OrionEp2/%E3%82%B5%E3%82%A6%E3%83%B3%E3%83%89%E9%A1%9E/Narration/OrionEp2-012-NA.mp3</pathurl>
              <rate>
                <timebase>44100</timebase>
                <ntsc>FALSE</ntsc>
              </rate>
              <media>
                <audio>
                  <channelcount>1</channelcount>
                  <samplecharacteristics>
                    <samplerate>44100</samplerate>
                    <samplesize>16</samplesize>
                  </samplecharacteristics>
                </audio>
              </media>
            </file>
            <sourcetrack>
              <mediatype>audio</mediatype>
              <trackindex>1</trackindex>
            </sourcetrack>
          </clipitem>
          <clipitem id="clipitem-13">
            <name>OrionEp2-013-NA.mp3</name>
            <enabled>TRUE</enabled>
            <duration>302</duration>
            <rate>
              <timebase>30</timebase>
              <ntsc>TRUE</ntsc>
            </rate>
            <start>3057</start>
            <end>3359</end>
            <in>0</in>
            <out>302</out>
            <file id="file-14">
              <name>OrionEp2-013-NA.mp3</name>
              <pathurl>file:///Users/hiroshikodera/repos/_active/tools/davinciauto/projects/OrionEp2/%E3%82%B5%E3%82%A6%E3%83%B3%E3%83%89%E9%A1%9E/Narration/OrionEp2-013-NA.mp3</pathurl>
              <rate>
                <timebase>44100</timebase>
                <ntsc>FALSE</ntsc>
              </rate>
              <media>
                <audio>
                  <channelcount>1</channelcount>
                  <samplecharacteristics>
                    <samplerate>44100</samplerate>
                    <samplesize>16</samplesize>
                  </samplecharacteristics>
                </audio>
              </media>
            </file>
            <sourcetrack>
              <mediatype>audio</mediatype>
              <trackindex>1</trackindex>
            </sourcetrack>
          </clipitem>
          <clipitem id="clipitem-14">
            <name>OrionEp2-014-DL.mp3</name>
            <enabled>TRUE</enabled>
            <duration>81</duration>
            <rate>
              <timebase>30</timebase>
              <ntsc>TRUE</ntsc>
            </rate>
            <start>3376</start>
            <end>3457</end>
            <in>0</in>
            <out>81</out>
            <file id="file-15">
              <name>OrionEp2-014-DL.mp3</name>
              <pathurl>file:///Users/hiroshikodera/repos/_active/tools/davinciauto/projects/OrionEp2/%E3%82%B5%E3%82%A6%E3%83%B3%E3%83%89%E9%A1%9E/Narration/OrionEp2-014-DL.mp3</pathurl>
              <rate>
                <timebase>44100</timebase>
                <ntsc>FALSE</ntsc>
              </rate>
              <media>
                <audio>
                  <channelcount>1</channelcount>
                  <samplecharacteristics>
                    <samplerate>44100</samplerate>
                    <samplesize>16</samplesize>
                  </samplecharacteristics>
                </audio>
              </media>
            </file>
            <sourcetrack>
              <mediatype>audio</mediatype>
              <trackindex>1</trackindex>
            </sourcetrack>
          </clipitem>
          <clipitem id="clipitem-15">
            <name>OrionEp2-015-NA.mp3</name>
            <enabled>TRUE</enabled>
            <duration>270</duration>
            <rate>
              <timebase>30</timebase>
              <ntsc>TRUE</ntsc>
            </rate>
            <start>3485</start>
            <end>3755</end>
            <in>0</in>
            <out>270</out>
            <file id="file-16">
              <name>OrionEp2-015-NA.mp3</name>
              <pathurl>file:///Users/hiroshikodera/repos/_active/tools/davinciauto/projects/OrionEp2/%E3%82%B5%E3%82%A6%E3%83%B3%E3%83%89%E9%A1%9E/Narration/OrionEp2-015-NA.mp3</pathurl>
              <rate>
                <timebase>44100</timebase>
                <ntsc>FALSE</ntsc>
              </rate>
              <media>
                <audio>
                  <channelcount>1</channelcount>
                  <samplecharacteristics>
                    <samplerate>44100</samplerate>
                    <samplesize>16</samplesize>
                  </samplecharacteristics>
                </audio>
              </media>
            </file>
            <sourcetrack>
              <mediatype>audio</mediatype>
              <trackindex>1</trackindex>
            </sourcetrack>
          </clipitem>
          <clipitem id="clipitem-16">
            <name>OrionEp2-016-NA.mp3</name>
            <enabled>TRUE</enabled>
            <duration>252</duration>
            <rate>
              <timebase>30</timebase>
              <ntsc>TRUE</ntsc>
            </rate>
            <start>3772</start>
            <end>4024</end>
            <in>0</in>
            <out>252</out>
            <file id="file-17">
              <name>OrionEp2-016-NA.mp3</name>
              <pathurl>file:///Users/hiroshikodera/repos/_active/tools/davinciauto/projects/OrionEp2/%E3%82%B5%E3%82%A6%E3%83%B3%E3%83%89%E9%A1%9E/Narration/OrionEp2-016-NA.mp3</pathurl>
              <rate>
                <timebase>44100</timebase>
                <ntsc>FALSE</ntsc>
              </rate>
              <media>
                <audio>
                  <channelcount>1</channelcount>
                  <samplecharacteristics>
                    <samplerate>44100</samplerate>
                    <samplesize>16</samplesize>
                  </samplecharacteristics>
                </audio>
              </media>
            </file>
            <sourcetrack>
              <mediatype>audio</mediatype>
              <trackindex>1</trackindex>
            </sourcetrack>
          </clipitem>
          <clipitem id="clipitem-17">
            <name>OrionEp2-017-NA.mp3</name>
            <enabled>TRUE</enabled>
            <duration>264</duration>
            <rate>
              <timebase>30</timebase>
              <ntsc>TRUE</ntsc>
            </rate>
            <start>4038</start>
            <end>4302</end>
            <in>0</in>
            <out>264</out>
            <file id="file-18">
              <name>OrionEp2-017-NA.mp3</name>
              <pathurl>file:///Users/hiroshikodera/repos/_active/tools/davinciauto/projects/OrionEp2/%E3%82%B5%E3%82%A6%E3%83%B3%E3%83%89%E9%A1%9E/Narration/OrionEp2-017-NA.mp3</pathurl>
              <rate>
                <timebase>44100</timebase>
                <ntsc>FALSE</ntsc>
              </rate>
              <media>
                <audio>
                  <channelcount>1</channelcount>
                  <samplecharacteristics>
                    <samplerate>44100</samplerate>
                    <samplesize>16</samplesize>
                  </samplecharacteristics>
                </audio>
              </media>
            </file>
            <sourcetrack>
              <mediatype>audio</mediatype>
              <trackindex>1</trackindex>
            </sourcetrack>
          </clipitem>
          <clipitem id="clipitem-18">
            <name>OrionEp2-018-NA.mp3</name>
            <enabled>TRUE</enabled>
            <duration>304</duration>
            <rate>
              <timebase>30</timebase>
              <ntsc>TRUE</ntsc>
            </rate>
            <start>4318</start>
            <end>4622</end>
            <in>0</in>
            <out>304</out>
            <file id="file-19">
              <name>OrionEp2-018-NA.mp3</name>
              <pathurl>file:///Users/hiroshikodera/repos/_active/tools/davinciauto/projects/OrionEp2/%E3%82%B5%E3%82%A6%E3%83%B3%E3%83%89%E9%A1%9E/Narration/OrionEp2-018-NA.mp3</pathurl>
              <rate>
                <timebase>44100</timebase>
                <ntsc>FALSE</ntsc>
              </rate>
              <media>
                <audio>
                  <channelcount>1</channelcount>
                  <samplecharacteristics>
                    <samplerate>44100</samplerate>
                    <samplesize>16</samplesize>
                  </samplecharacteristics>
                </audio>
              </media>
            </file>
            <sourcetrack>
              <mediatype>audio</mediatype>
              <trackindex>1</trackindex>
            </sourcetrack>
          </clipitem>
          <clipitem id="clipitem-19">
            <name>OrionEp2-019-NA.mp3</name>
            <enabled>TRUE</enabled>
            <duration>324</duration>
            <rate>
              <timebase>30</timebase>
              <ntsc>TRUE</ntsc>
            </rate>
            <start>4646</start>
            <end>4970</end>
            <in>0</in>
            <out>324</out>
            <file id="file-20">
              <name>OrionEp2-019-NA.mp3</name>
              <pathurl>file:///Users/hiroshikodera/repos/_active/tools/davinciauto/projects/OrionEp2/%E3%82%B5%E3%82%A6%E3%83%B3%E3%83%89%E9%A1%9E/Narration/OrionEp2-019-NA.mp3</pathurl>
              <rate>
                <timebase>44100</timebase>
                <ntsc>FALSE</ntsc>
              </rate>
              <media>
                <audio>
                  <channelcount>1</channelcount>
                  <samplecharacteristics>
                    <samplerate>44100</samplerate>
                    <samplesize>16</samplesize>
                  </samplecharacteristics>
                </audio>
              </media>
            </file>
            <sourcetrack>
              <mediatype>audio</mediatype>
              <trackindex>1</trackindex>
            </sourcetrack>
          </clipitem>
          <clipitem id="clipitem-20">
            <name>OrionEp2-020-DL.mp3</name>
            <enabled>TRUE</enabled>
            <duration>206</duration>
            <rate>
              <timebase>30</timebase>
              <ntsc>TRUE</ntsc>
            </rate>
            <start>4987</start>
            <end>5193</end>
            <in>0</in>
            <out>206</out>
            <file id="file-21">
              <name>OrionEp2-020-DL.mp3</name>
              <pathurl>file:///Users/hiroshikodera/repos/_active/tools/davinciauto/projects/OrionEp2/%E3%82%B5%E3%82%A6%E3%83%B3%E3%83%89%E9%A1%9E/Narration/OrionEp2-020-DL.mp3</pathurl>
              <rate>
                <timebase>44100</timebase>
                <ntsc>FALSE</ntsc>
              </rate>
              <media>
                <audio>
                  <channelcount>1</channelcount>
                  <samplecharacteristics>
                    <samplerate>44100</samplerate>
                    <samplesize>16</samplesize>
                  </samplecharacteristics>
                </audio>
              </media>
            </file>
            <sourcetrack>
              <mediatype>audio</mediatype>
              <trackindex>1</trackindex>
            </sourcetrack>
          </clipitem>
          <clipitem id="clipitem-21">
            <name>OrionEp2-021-NA.mp3</name>
            <enabled>TRUE</enabled>
            <duration>307</duration>
            <rate>
              <timebase>30</timebase>
              <ntsc>TRUE</ntsc>
            </rate>
            <start>5215</start>
            <end>5522</end>
            <in>0</in>
            <out>307</out>
            <file id="file-22">
              <name>OrionEp2-021-NA.mp3</name>
              <pathurl>file:///Users/hiroshikodera/repos/_active/tools/davinciauto/projects/OrionEp2/%E3%82%B5%E3%82%A6%E3%83%B3%E3%83%89%E9%A1%9E/Narration/OrionEp2-021-NA.mp3</pathurl>
              <rate>
                <timebase>44100</timebase>
                <ntsc>FALSE</ntsc>
              </rate>
              <media>
                <audio>
                  <channelcount>1</channelcount>
                  <samplecharacteristics>
                    <samplerate>44100</samplerate>
                    <samplesize>16</samplesize>
                  </samplecharacteristics>
                </audio>
              </media>
            </file>
            <sourcetrack>
              <mediatype>audio</mediatype>
              <trackindex>1</trackindex>
            </sourcetrack>
          </clipitem>
          <clipitem id="clipitem-22">
            <name>OrionEp2-022-NA.mp3</name>
            <enabled>TRUE</enabled>
            <duration>381</duration>
            <rate>
              <timebase>30</timebase>
              <ntsc>TRUE</ntsc>
            </rate>
            <start>5538</start>
            <end>5919</end>
            <in>0</in>
            <out>381</out>
            <file id="file-23">
              <name>OrionEp2-022-NA.mp3</name>
              <pathurl>file:///Users/hiroshikodera/repos/_active/tools/davinciauto/projects/OrionEp2/%E3%82%B5%E3%82%A6%E3%83%B3%E3%83%89%E9%A1%9E/Narration/OrionEp2-022-NA.mp3</pathurl>
              <rate>
                <timebase>44100</timebase>
                <ntsc>FALSE</ntsc>
              </rate>
              <media>
                <audio>
                  <channelcount>1</channelcount>
                  <samplecharacteristics>
                    <samplerate>44100</samplerate>
                    <samplesize>16</samplesize>
                  </samplecharacteristics>
                </audio>
              </media>
            </file>
            <sourcetrack>
              <mediatype>audio</mediatype>
              <trackindex>1</trackindex>
            </sourcetrack>
          </clipitem>
          <clipitem id="clipitem-23">
            <name>OrionEp2-023-NA.mp3</name>
            <enabled>TRUE</enabled>
            <duration>343</duration>
            <rate>
              <timebase>30</timebase>
              <ntsc>TRUE</ntsc>
            </rate>
            <start>5937</start>
            <end>6280</end>
            <in>0</in>
            <out>343</out>
            <file id="file-24">
              <name>OrionEp2-023-NA.mp3</name>
              <pathurl>file:///Users/hiroshikodera/repos/_active/tools/davinciauto/projects/OrionEp2/%E3%82%B5%E3%82%A6%E3%83%B3%E3%83%89%E9%A1%9E/Narration/OrionEp2-023-NA.mp3</pathurl>
              <rate>
                <timebase>44100</timebase>
                <ntsc>FALSE</ntsc>
              </rate>
              <media>
                <audio>
                  <channelcount>1</channelcount>
                  <samplecharacteristics>
                    <samplerate>44100</samplerate>
                    <samplesize>16</samplesize>
                  </samplecharacteristics>
                </audio>
              </media>
            </file>
            <sourcetrack>
              <mediatype>audio</mediatype>
              <trackindex>1</trackindex>
            </sourcetrack>
          </clipitem>
          <clipitem id="clipitem-24">
            <name>OrionEp2-024-NA.mp3</name>
            <enabled>TRUE</enabled>
            <duration>210</duration>
            <rate>
              <timebase>30</timebase>
              <ntsc>TRUE</ntsc>
            </rate>
            <start>6297</start>
            <end>6507</end>
            <in>0</in>
            <out>210</out>
            <file id="file-25">
              <name>OrionEp2-024-NA.mp3</name>
              <pathurl>file:///Users/hiroshikodera/repos/_active/tools/davinciauto/projects/OrionEp2/%E3%82%B5%E3%82%A6%E3%83%B3%E3%83%89%E9%A1%9E/Narration/OrionEp2-024-NA.mp3</pathurl>
              <rate>
                <timebase>44100</timebase>
                <ntsc>FALSE</ntsc>
              </rate>
              <media>
                <audio>
                  <channelcount>1</channelcount>
                  <samplecharacteristics>
                    <samplerate>44100</samplerate>
                    <samplesize>16</samplesize>
                  </samplecharacteristics>
                </audio>
              </media>
            </file>
            <sourcetrack>
              <mediatype>audio</mediatype>
              <trackindex>1</trackindex>
            </sourcetrack>
          </clipitem>
          <clipitem id="clipitem-25">
            <name>OrionEp2-025-NA.mp3</name>
            <enabled>TRUE</enabled>
            <duration>174</duration>
            <rate>
              <timebase>30</timebase>
              <ntsc>TRUE</ntsc>
            </rate>
            <start>6522</start>
            <end>6696</end>
            <in>0</in>
            <out>174</out>
            <file id="file-26">
              <name>OrionEp2-025-NA.mp3</name>
              <pathurl>file:///Users/hiroshikodera/repos/_active/tools/davinciauto/projects/OrionEp2/%E3%82%B5%E3%82%A6%E3%83%B3%E3%83%89%E9%A1%9E/Narration/OrionEp2-025-NA.mp3</pathurl>
              <rate>
                <timebase>44100</timebase>
                <ntsc>FALSE</ntsc>
              </rate>
              <media>
                <audio>
                  <channelcount>1</channelcount>
                  <samplecharacteristics>
                    <samplerate>44100</samplerate>
                    <samplesize>16</samplesize>
                  </samplecharacteristics>
                </audio>
              </media>
            </file>
            <sourcetrack>
              <mediatype>audio</mediatype>
              <trackindex>1</trackindex>
            </sourcetrack>
          </clipitem>
          <clipitem id="clipitem-26">
            <name>OrionEp2-026-DL.mp3</name>
            <enabled>TRUE</enabled>
            <duration>128</duration>
            <rate>
              <timebase>30</timebase>
              <ntsc>TRUE</ntsc>
            </rate>
            <start>6709</start>
            <end>6837</end>
            <in>0</in>
            <out>128</out>
            <file id="file-27">
              <name>OrionEp2-026-DL.mp3</name>
              <pathurl>file:///Users/hiroshikodera/repos/_active/tools/davinciauto/projects/OrionEp2/%E3%82%B5%E3%82%A6%E3%83%B3%E3%83%89%E9%A1%9E/Narration/OrionEp2-026-DL.mp3</pathurl>
              <rate>
                <timebase>44100</timebase>
                <ntsc>FALSE</ntsc>
              </rate>
              <media>
                <audio>
                  <channelcount>1</channelcount>
                  <samplecharacteristics>
                    <samplerate>44100</samplerate>
                    <samplesize>16</samplesize>
                  </samplecharacteristics>
                </audio>
              </media>
            </file>
            <sourcetrack>
              <mediatype>audio</mediatype>
              <trackindex>1</trackindex>
            </sourcetrack>
          </clipitem>
          <clipitem id="clipitem-27">
            <name>OrionEp2-027-NA.mp3</name>
            <enabled>TRUE</enabled>
            <duration>315</duration>
            <rate>
              <timebase>30</timebase>
              <ntsc>TRUE</ntsc>
            </rate>
            <start>6857</start>
            <end>7172</end>
            <in>0</in>
            <out>315</out>
            <file id="file-28">
              <name>OrionEp2-027-NA.mp3</name>
              <pathurl>file:///Users/hiroshikodera/repos/_active/tools/davinciauto/projects/OrionEp2/%E3%82%B5%E3%82%A6%E3%83%B3%E3%83%89%E9%A1%9E/Narration/OrionEp2-027-NA.mp3</pathurl>
              <rate>
                <timebase>44100</timebase>
                <ntsc>FALSE</ntsc>
              </rate>
              <media>
                <audio>
                  <channelcount>1</channelcount>
                  <samplecharacteristics>
                    <samplerate>44100</samplerate>
                    <samplesize>16</samplesize>
                  </samplecharacteristics>
                </audio>
              </media>
            </file>
            <sourcetrack>
              <mediatype>audio</mediatype>
              <trackindex>1</trackindex>
            </sourcetrack>
          </clipitem>
          <clipitem id="clipitem-28">
            <name>OrionEp2-028-NA.mp3</name>
            <enabled>TRUE</enabled>
            <duration>700</duration>
            <rate>
              <timebase>30</timebase>
              <ntsc>TRUE</ntsc>
            </rate>
            <start>7189</start>
            <end>7889</end>
            <in>0</in>
            <out>700</out>
            <file id="file-29">
              <name>OrionEp2-028-NA.mp3</name>
              <pathurl>file:///Users/hiroshikodera/repos/_active/tools/davinciauto/projects/OrionEp2/%E3%82%B5%E3%82%A6%E3%83%B3%E3%83%89%E9%A1%9E/Narration/OrionEp2-028-NA.mp3</pathurl>
              <rate>
                <timebase>44100</timebase>
                <ntsc>FALSE</ntsc>
              </rate>
              <media>
                <audio>
                  <channelcount>1</channelcount>
                  <samplecharacteristics>
                    <samplerate>44100</samplerate>
                    <samplesize>16</samplesize>
                  </samplecharacteristics>
                </audio>
              </media>
            </file>
            <sourcetrack>
              <mediatype>audio</mediatype>
              <trackindex>1</trackindex>
            </sourcetrack>
          </clipitem>
          <clipitem id="clipitem-29">
            <name>OrionEp2-029-NA.mp3</name>
            <enabled>TRUE</enabled>
            <duration>176</duration>
            <rate>
              <timebase>30</timebase>
              <ntsc>TRUE</ntsc>
            </rate>
            <start>7911</start>
            <end>8087</end>
            <in>0</in>
            <out>176</out>
            <file id="file-30">
              <name>OrionEp2-029-NA.mp3</name>
              <pathurl>file:///Users/hiroshikodera/repos/_active/tools/davinciauto/projects/OrionEp2/%E3%82%B5%E3%82%A6%E3%83%B3%E3%83%89%E9%A1%9E/Narration/OrionEp2-029-NA.mp3</pathurl>
              <rate>
                <timebase>44100</timebase>
                <ntsc>FALSE</ntsc>
              </rate>
              <media>
                <audio>
                  <channelcount>1</channelcount>
                  <samplecharacteristics>
                    <samplerate>44100</samplerate>
                    <samplesize>16</samplesize>
                  </samplecharacteristics>
                </audio>
              </media>
            </file>
            <sourcetrack>
              <mediatype>audio</mediatype>
              <trackindex>1</trackindex>
            </sourcetrack>
          </clipitem>
          <clipitem id="clipitem-30">
            <name>OrionEp2-030-NA.mp3</name>
            <enabled>TRUE</enabled>
            <duration>182</duration>
            <rate>
              <timebase>30</timebase>
              <ntsc>TRUE</ntsc>
            </rate>
            <start>8102</start>
            <end>8284</end>
            <in>0</in>
            <out>182</out>
            <file id="file-31">
              <name>OrionEp2-030-NA.mp3</name>
              <pathurl>file:///Users/hiroshikodera/repos/_active/tools/davinciauto/projects/OrionEp2/%E3%82%B5%E3%82%A6%E3%83%B3%E3%83%89%E9%A1%9E/Narration/OrionEp2-030-NA.mp3</pathurl>
              <rate>
                <timebase>44100</timebase>
                <ntsc>FALSE</ntsc>
              </rate>
              <media>
                <audio>
                  <channelcount>1</channelcount>
                  <samplecharacteristics>
                    <samplerate>44100</samplerate>
                    <samplesize>16</samplesize>
                  </samplecharacteristics>
                </audio>
              </media>
            </file>
            <sourcetrack>
              <mediatype>audio</mediatype>
              <trackindex>1</trackindex>
            </sourcetrack>
          </clipitem>
          <clipitem id="clipitem-31">
            <name>OrionEp2-031-DL.mp3</name>
            <enabled>TRUE</enabled>
            <duration>189</duration>
            <rate>
              <timebase>30</timebase>
              <ntsc>TRUE</ntsc>
            </rate>
            <start>8298</start>
            <end>8487</end>
            <in>0</in>
            <out>189</out>
            <file id="file-32">
              <name>OrionEp2-031-DL.mp3</name>
              <pathurl>file:///Users/hiroshikodera/repos/_active/tools/davinciauto/projects/OrionEp2/%E3%82%B5%E3%82%A6%E3%83%B3%E3%83%89%E9%A1%9E/Narration/OrionEp2-031-DL.mp3</pathurl>
              <rate>
                <timebase>44100</timebase>
                <ntsc>FALSE</ntsc>
              </rate>
              <media>
                <audio>
                  <channelcount>1</channelcount>
                  <samplecharacteristics>
                    <samplerate>44100</samplerate>
                    <samplesize>16</samplesize>
                  </samplecharacteristics>
                </audio>
              </media>
            </file>
            <sourcetrack>
              <mediatype>audio</mediatype>
              <trackindex>1</trackindex>
            </sourcetrack>
          </clipitem>
          <clipitem id="clipitem-32">
            <name>OrionEp2-032-NA.mp3</name>
            <enabled>TRUE</enabled>
            <duration>588</duration>
            <rate>
              <timebase>30</timebase>
              <ntsc>TRUE</ntsc>
            </rate>
            <start>8509</start>
            <end>9097</end>
            <in>0</in>
            <out>588</out>
            <file id="file-33">
              <name>OrionEp2-032-NA.mp3</name>
              <pathurl>file:///Users/hiroshikodera/repos/_active/tools/davinciauto/projects/OrionEp2/%E3%82%B5%E3%82%A6%E3%83%B3%E3%83%89%E9%A1%9E/Narration/OrionEp2-032-NA.mp3</pathurl>
              <rate>
                <timebase>44100</timebase>
                <ntsc>FALSE</ntsc>
              </rate>
              <media>
                <audio>
                  <channelcount>1</channelcount>
                  <samplecharacteristics>
                    <samplerate>44100</samplerate>
                    <samplesize>16</samplesize>
                  </samplecharacteristics>
                </audio>
              </media>
            </file>
            <sourcetrack>
              <mediatype>audio</mediatype>
              <trackindex>1</trackindex>
            </sourcetrack>
          </clipitem>
          <clipitem id="clipitem-33">
            <name>OrionEp2-033-NA.mp3</name>
            <enabled>TRUE</enabled>
            <duration>525</duration>
            <rate>
              <timebase>30</timebase>
              <ntsc>TRUE</ntsc>
            </rate>
            <start>9118</start>
            <end>9643</end>
            <in>0</in>
            <out>525</out>
            <file id="file-34">
              <name>OrionEp2-033-NA.mp3</name>
              <pathurl>file:///Users/hiroshikodera/repos/_active/tools/davinciauto/projects/OrionEp2/%E3%82%B5%E3%82%A6%E3%83%B3%E3%83%89%E9%A1%9E/Narration/OrionEp2-033-NA.mp3</pathurl>
              <rate>
                <timebase>44100</timebase>
                <ntsc>FALSE</ntsc>
              </rate>
              <media>
                <audio>
                  <channelcount>1</channelcount>
                  <samplecharacteristics>
                    <samplerate>44100</samplerate>
                    <samplesize>16</samplesize>
                  </samplecharacteristics>
                </audio>
              </media>
            </file>
            <sourcetrack>
              <mediatype>audio</mediatype>
              <trackindex>1</trackindex>
            </sourcetrack>
          </clipitem>
          <clipitem id="clipitem-34">
            <name>OrionEp2-034-NA.mp3</name>
            <enabled>TRUE</enabled>
            <duration>303</duration>
            <rate>
              <timebase>30</timebase>
              <ntsc>TRUE</ntsc>
            </rate>
            <start>9665</start>
            <end>9968</end>
            <in>0</in>
            <out>303</out>
            <file id="file-35">
              <name>OrionEp2-034-NA.mp3</name>
              <pathurl>file:///Users/hiroshikodera/repos/_active/tools/davinciauto/projects/OrionEp2/%E3%82%B5%E3%82%A6%E3%83%B3%E3%83%89%E9%A1%9E/Narration/OrionEp2-034-NA.mp3</pathurl>
              <rate>
                <timebase>44100</timebase>
                <ntsc>FALSE</ntsc>
              </rate>
              <media>
                <audio>
                  <channelcount>1</channelcount>
                  <samplecharacteristics>
                    <samplerate>44100</samplerate>
                    <samplesize>16</samplesize>
                  </samplecharacteristics>
                </audio>
              </media>
            </file>
            <sourcetrack>
              <mediatype>audio</mediatype>
              <trackindex>1</trackindex>
            </sourcetrack>
          </clipitem>
          <clipitem id="clipitem-35">
            <name>OrionEp2-035-NA.mp3</name>
            <enabled>TRUE</enabled>
            <duration>399</duration>
            <rate>
              <timebase>30</timebase>
              <ntsc>TRUE</ntsc>
            </rate>
            <start>9984</start>
            <end>10383</end>
            <in>0</in>
            <out>399</out>
            <file id="file-36">
              <name>OrionEp2-035-NA.mp3</name>
              <pathurl>file:///Users/hiroshikodera/repos/_active/tools/davinciauto/projects/OrionEp2/%E3%82%B5%E3%82%A6%E3%83%B3%E3%83%89%E9%A1%9E/Narration/OrionEp2-035-NA.mp3</pathurl>
              <rate>
                <timebase>44100</timebase>
                <ntsc>FALSE</ntsc>
              </rate>
              <media>
                <audio>
                  <channelcount>1</channelcount>
                  <samplecharacteristics>
                    <samplerate>44100</samplerate>
                    <samplesize>16</samplesize>
                  </samplecharacteristics>
                </audio>
              </media>
            </file>
            <sourcetrack>
              <mediatype>audio</mediatype>
              <trackindex>1</trackindex>
            </sourcetrack>
          </clipitem>
          <clipitem id="clipitem-36">
            <name>OrionEp2-036-NA.mp3</name>
            <enabled>TRUE</enabled>
            <duration>205</duration>
            <rate>
              <timebase>30</timebase>
              <ntsc>TRUE</ntsc>
            </rate>
            <start>10403</start>
            <end>10608</end>
            <in>0</in>
            <out>205</out>
            <file id="file-37">
              <name>OrionEp2-036-NA.mp3</name>
              <pathurl>file:///Users/hiroshikodera/repos/_active/tools/davinciauto/projects/OrionEp2/%E3%82%B5%E3%82%A6%E3%83%B3%E3%83%89%E9%A1%9E/Narration/OrionEp2-036-NA.mp3</pathurl>
              <rate>
                <timebase>44100</timebase>
                <ntsc>FALSE</ntsc>
              </rate>
              <media>
                <audio>
                  <channelcount>1</channelcount>
                  <samplecharacteristics>
                    <samplerate>44100</samplerate>
                    <samplesize>16</samplesize>
                  </samplecharacteristics>
                </audio>
              </media>
            </file>
            <sourcetrack>
              <mediatype>audio</mediatype>
              <trackindex>1</trackindex>
            </sourcetrack>
          </clipitem>
          <clipitem id="clipitem-37">
            <name>OrionEp2-037-NA.mp3</name>
            <enabled>TRUE</enabled>
            <duration>376</duration>
            <rate>
              <timebase>30</timebase>
              <ntsc>TRUE</ntsc>
            </rate>
            <start>10622</start>
            <end>10998</end>
            <in>0</in>
            <out>376</out>
            <file id="file-38">
              <name>OrionEp2-037-NA.mp3</name>
              <pathurl>file:///Users/hiroshikodera/repos/_active/tools/davinciauto/projects/OrionEp2/%E3%82%B5%E3%82%A6%E3%83%B3%E3%83%89%E9%A1%9E/Narration/OrionEp2-037-NA.mp3</pathurl>
              <rate>
                <timebase>44100</timebase>
                <ntsc>FALSE</ntsc>
              </rate>
              <media>
                <audio>
                  <channelcount>1</channelcount>
                  <samplecharacteristics>
                    <samplerate>44100</samplerate>
                    <samplesize>16</samplesize>
                  </samplecharacteristics>
                </audio>
              </media>
            </file>
            <sourcetrack>
              <mediatype>audio</mediatype>
              <trackindex>1</trackindex>
            </sourcetrack>
          </clipitem>
          <clipitem id="clipitem-38">
            <name>OrionEp2-038-NA.mp3</name>
            <enabled>TRUE</enabled>
            <duration>264</duration>
            <rate>
              <timebase>30</timebase>
              <ntsc>TRUE</ntsc>
            </rate>
            <start>11016</start>
            <end>11280</end>
            <in>0</in>
            <out>264</out>
            <file id="file-39">
              <name>OrionEp2-038-NA.mp3</name>
              <pathurl>file:///Users/hiroshikodera/repos/_active/tools/davinciauto/projects/OrionEp2/%E3%82%B5%E3%82%A6%E3%83%B3%E3%83%89%E9%A1%9E/Narration/OrionEp2-038-NA.mp3</pathurl>
              <rate>
                <timebase>44100</timebase>
                <ntsc>FALSE</ntsc>
              </rate>
              <media>
                <audio>
                  <channelcount>1</channelcount>
                  <samplecharacteristics>
                    <samplerate>44100</samplerate>
                    <samplesize>16</samplesize>
                  </samplecharacteristics>
                </audio>
              </media>
            </file>
            <sourcetrack>
              <mediatype>audio</mediatype>
              <trackindex>1</trackindex>
            </sourcetrack>
          </clipitem>
          <clipitem id="clipitem-39">
            <name>OrionEp2-039-NA.mp3</name>
            <enabled>TRUE</enabled>
            <duration>366</duration>
            <rate>
              <timebase>30</timebase>
              <ntsc>TRUE</ntsc>
            </rate>
            <start>11297</start>
            <end>11663</end>
            <in>0</in>
            <out>366</out>
            <file id="file-40">
              <name>OrionEp2-039-NA.mp3</name>
              <pathurl>file:///Users/hiroshikodera/repos/_active/tools/davinciauto/projects/OrionEp2/%E3%82%B5%E3%82%A6%E3%83%B3%E3%83%89%E9%A1%9E/Narration/OrionEp2-039-NA.mp3</pathurl>
              <rate>
                <timebase>44100</timebase>
                <ntsc>FALSE</ntsc>
              </rate>
              <media>
                <audio>
                  <channelcount>1</channelcount>
                  <samplecharacteristics>
                    <samplerate>44100</samplerate>
                    <samplesize>16</samplesize>
                  </samplecharacteristics>
                </audio>
              </media>
            </file>
            <sourcetrack>
              <mediatype>audio</mediatype>
              <trackindex>1</trackindex>
            </sourcetrack>
          </clipitem>
          <clipitem id="clipitem-40">
            <name>OrionEp2-040-NA.mp3</name>
            <enabled>TRUE</enabled>
            <duration>166</duration>
            <rate>
              <timebase>30</timebase>
              <ntsc>TRUE</ntsc>
            </rate>
            <start>11681</start>
            <end>11847</end>
            <in>0</in>
            <out>166</out>
            <file id="file-41">
              <name>OrionEp2-040-NA.mp3</name>
              <pathurl>file:///Users/hiroshikodera/repos/_active/tools/davinciauto/projects/OrionEp2/%E3%82%B5%E3%82%A6%E3%83%B3%E3%83%89%E9%A1%9E/Narration/OrionEp2-040-NA.mp3</pathurl>
              <rate>
                <timebase>44100</timebase>
                <ntsc>FALSE</ntsc>
              </rate>
              <media>
                <audio>
                  <channelcount>1</channelcount>
                  <samplecharacteristics>
                    <samplerate>44100</samplerate>
                    <samplesize>16</samplesize>
                  </samplecharacteristics>
                </audio>
              </media>
            </file>
            <sourcetrack>
              <mediatype>audio</mediatype>
              <trackindex>1</trackindex>
            </sourcetrack>
          </clipitem>
          <clipitem id="clipitem-41">
            <name>OrionEp2-041-NA.mp3</name>
            <enabled>TRUE</enabled>
            <duration>418</duration>
            <rate>
              <timebase>30</timebase>
              <ntsc>TRUE</ntsc>
            </rate>
            <start>11861</start>
            <end>12279</end>
            <in>0</in>
            <out>418</out>
            <file id="file-42">
              <name>OrionEp2-041-NA.mp3</name>
              <pathurl>file:///Users/hiroshikodera/repos/_active/tools/davinciauto/projects/OrionEp2/%E3%82%B5%E3%82%A6%E3%83%B3%E3%83%89%E9%A1%9E/Narration/OrionEp2-041-NA.mp3</pathurl>
              <rate>
                <timebase>44100</timebase>
                <ntsc>FALSE</ntsc>
              </rate>
              <media>
                <audio>
                  <channelcount>1</channelcount>
                  <samplecharacteristics>
                    <samplerate>44100</samplerate>
                    <samplesize>16</samplesize>
                  </samplecharacteristics>
                </audio>
              </media>
            </file>
            <sourcetrack>
              <mediatype>audio</mediatype>
              <trackindex>1</trackindex>
            </sourcetrack>
          </clipitem>
          <clipitem id="clipitem-42">
            <name>OrionEp2-042-NA.mp3</name>
            <enabled>TRUE</enabled>
            <duration>311</duration>
            <rate>
              <timebase>30</timebase>
              <ntsc>TRUE</ntsc>
            </rate>
            <start>12297</start>
            <end>12608</end>
            <in>0</in>
            <out>311</out>
            <file id="file-43">
              <name>OrionEp2-042-NA.mp3</name>
              <pathurl>file:///Users/hiroshikodera/repos/_active/tools/davinciauto/projects/OrionEp2/%E3%82%B5%E3%82%A6%E3%83%B3%E3%83%89%E9%A1%9E/Narration/OrionEp2-042-NA.mp3</pathurl>
              <rate>
                <timebase>44100</timebase>
                <ntsc>FALSE</ntsc>
              </rate>
              <media>
                <audio>
                  <channelcount>1</channelcount>
                  <samplecharacteristics>
                    <samplerate>44100</samplerate>
                    <samplesize>16</samplesize>
                  </samplecharacteristics>
                </audio>
              </media>
            </file>
            <sourcetrack>
              <mediatype>audio</mediatype>
              <trackindex>1</trackindex>
            </sourcetrack>
          </clipitem>
          <clipitem id="clipitem-43">
            <name>OrionEp2-043-NA.mp3</name>
            <enabled>TRUE</enabled>
            <duration>323</duration>
            <rate>
              <timebase>30</timebase>
              <ntsc>TRUE</ntsc>
            </rate>
            <start>12625</start>
            <end>12948</end>
            <in>0</in>
            <out>323</out>
            <file id="file-44">
              <name>OrionEp2-043-NA.mp3</name>
              <pathurl>file:///Users/hiroshikodera/repos/_active/tools/davinciauto/projects/OrionEp2/%E3%82%B5%E3%82%A6%E3%83%B3%E3%83%89%E9%A1%9E/Narration/OrionEp2-043-NA.mp3</pathurl>
              <rate>
                <timebase>44100</timebase>
                <ntsc>FALSE</ntsc>
              </rate>
              <media>
                <audio>
                  <channelcount>1</channelcount>
                  <samplecharacteristics>
                    <samplerate>44100</samplerate>
                    <samplesize>16</samplesize>
                  </samplecharacteristics>
                </audio>
              </media>
            </file>
            <sourcetrack>
              <mediatype>audio</mediatype>
              <trackindex>1</trackindex>
            </sourcetrack>
          </clipitem>
          <clipitem id="clipitem-44">
            <name>OrionEp2-044-NA.mp3</name>
            <enabled>TRUE</enabled>
            <duration>341</duration>
            <rate>
              <timebase>30</timebase>
              <ntsc>TRUE</ntsc>
            </rate>
            <start>12965</start>
            <end>13306</end>
            <in>0</in>
            <out>341</out>
            <file id="file-45">
              <name>OrionEp2-044-NA.mp3</name>
              <pathurl>file:///Users/hiroshikodera/repos/_active/tools/davinciauto/projects/OrionEp2/%E3%82%B5%E3%82%A6%E3%83%B3%E3%83%89%E9%A1%9E/Narration/OrionEp2-044-NA.mp3</pathurl>
              <rate>
                <timebase>44100</timebase>
                <ntsc>FALSE</ntsc>
              </rate>
              <media>
                <audio>
                  <channelcount>1</channelcount>
                  <samplecharacteristics>
                    <samplerate>44100</samplerate>
                    <samplesize>16</samplesize>
                  </samplecharacteristics>
                </audio>
              </media>
            </file>
            <sourcetrack>
              <mediatype>audio</mediatype>
              <trackindex>1</trackindex>
            </sourcetrack>
          </clipitem>
          <clipitem id="clipitem-45">
            <name>OrionEp2-045-NA.mp3</name>
            <enabled>TRUE</enabled>
            <duration>176</duration>
            <rate>
              <timebase>30</timebase>
              <ntsc>TRUE</ntsc>
            </rate>
            <start>13324</start>
            <end>13500</end>
            <in>0</in>
            <out>176</out>
            <file id="file-46">
              <name>OrionEp2-045-NA.mp3</name>
              <pathurl>file:///Users/hiroshikodera/repos/_active/tools/davinciauto/projects/OrionEp2/%E3%82%B5%E3%82%A6%E3%83%B3%E3%83%89%E9%A1%9E/Narration/OrionEp2-045-NA.mp3</pathurl>
              <rate>
                <timebase>44100</timebase>
                <ntsc>FALSE</ntsc>
              </rate>
              <media>
                <audio>
                  <channelcount>1</channelcount>
                  <samplecharacteristics>
                    <samplerate>44100</samplerate>
                    <samplesize>16</samplesize>
                  </samplecharacteristics>
                </audio>
              </media>
            </file>
            <sourcetrack>
              <mediatype>audio</mediatype>
              <trackindex>1</trackindex>
            </sourcetrack>
          </clipitem>
          <clipitem id="clipitem-46">
            <name>OrionEp2-046-NA.mp3</name>
            <enabled>TRUE</enabled>
            <duration>154</duration>
            <rate>
              <timebase>30</timebase>
              <ntsc>TRUE</ntsc>
            </rate>
            <start>13514</start>
            <end>13668</end>
            <in>0</in>
            <out>154</out>
            <file id="file-47">
              <name>OrionEp2-046-NA.mp3</name>
              <pathurl>file:///Users/hiroshikodera/repos/_active/tools/davinciauto/projects/OrionEp2/%E3%82%B5%E3%82%A6%E3%83%B3%E3%83%89%E9%A1%9E/Narration/OrionEp2-046-NA.mp3</pathurl>
              <rate>
                <timebase>44100</timebase>
                <ntsc>FALSE</ntsc>
              </rate>
              <media>
                <audio>
                  <channelcount>1</channelcount>
                  <samplecharacteristics>
                    <samplerate>44100</samplerate>
                    <samplesize>16</samplesize>
                  </samplecharacteristics>
                </audio>
              </media>
            </file>
            <sourcetrack>
              <mediatype>audio</mediatype>
              <trackindex>1</trackindex>
            </sourcetrack>
          </clipitem>
          <clipitem id="clipitem-47">
            <name>OrionEp2-047-NA.mp3</name>
            <enabled>TRUE</enabled>
            <duration>210</duration>
            <rate>
              <timebase>30</timebase>
              <ntsc>TRUE</ntsc>
            </rate>
            <start>13682</start>
            <end>13892</end>
            <in>0</in>
            <out>210</out>
            <file id="file-48">
              <name>OrionEp2-047-NA.mp3</name>
              <pathurl>file:///Users/hiroshikodera/repos/_active/tools/davinciauto/projects/OrionEp2/%E3%82%B5%E3%82%A6%E3%83%B3%E3%83%89%E9%A1%9E/Narration/OrionEp2-047-NA.mp3</pathurl>
              <rate>
                <timebase>44100</timebase>
                <ntsc>FALSE</ntsc>
              </rate>
              <media>
                <audio>
                  <channelcount>1</channelcount>
                  <samplecharacteristics>
                    <samplerate>44100</samplerate>
                    <samplesize>16</samplesize>
                  </samplecharacteristics>
                </audio>
              </media>
            </file>
            <sourcetrack>
              <mediatype>audio</mediatype>
              <trackindex>1</trackindex>
            </sourcetrack>
          </clipitem>
          <clipitem id="clipitem-48">
            <name>OrionEp2-048-NA.mp3</name>
            <enabled>TRUE</enabled>
            <duration>340</duration>
            <rate>
              <timebase>30</timebase>
              <ntsc>TRUE</ntsc>
            </rate>
            <start>13908</start>
            <end>14248</end>
            <in>0</in>
            <out>340</out>
            <file id="file-49">
              <name>OrionEp2-048-NA.mp3</name>
              <pathurl>file:///Users/hiroshikodera/repos/_active/tools/davinciauto/projects/OrionEp2/%E3%82%B5%E3%82%A6%E3%83%B3%E3%83%89%E9%A1%9E/Narration/OrionEp2-048-NA.mp3</pathurl>
              <rate>
                <timebase>44100</timebase>
                <ntsc>FALSE</ntsc>
              </rate>
              <media>
                <audio>
                  <channelcount>1</channelcount>
                  <samplecharacteristics>
                    <samplerate>44100</samplerate>
                    <samplesize>16</samplesize>
                  </samplecharacteristics>
                </audio>
              </media>
            </file>
            <sourcetrack>
              <mediatype>audio</mediatype>
              <trackindex>1</trackindex>
            </sourcetrack>
          </clipitem>
          <clipitem id="clipitem-49">
            <name>OrionEp2-049-NA.mp3</name>
            <enabled>TRUE</enabled>
            <duration>259</duration>
            <rate>
              <timebase>30</timebase>
              <ntsc>TRUE</ntsc>
            </rate>
            <start>14265</start>
            <end>14524</end>
            <in>0</in>
            <out>259</out>
            <file id="file-50">
              <name>OrionEp2-049-NA.mp3</name>
              <pathurl>file:///Users/hiroshikodera/repos/_active/tools/davinciauto/projects/OrionEp2/%E3%82%B5%E3%82%A6%E3%83%B3%E3%83%89%E9%A1%9E/Narration/OrionEp2-049-NA.mp3</pathurl>
              <rate>
                <timebase>44100</timebase>
                <ntsc>FALSE</ntsc>
              </rate>
              <media>
                <audio>
                  <channelcount>1</channelcount>
                  <samplecharacteristics>
                    <samplerate>44100</samplerate>
                    <samplesize>16</samplesize>
                  </samplecharacteristics>
                </audio>
              </media>
            </file>
            <sourcetrack>
              <mediatype>audio</mediatype>
              <trackindex>1</trackindex>
            </sourcetrack>
          </clipitem>
          <clipitem id="clipitem-50">
            <name>OrionEp2-050-NA.mp3</name>
            <enabled>TRUE</enabled>
            <duration>396</duration>
            <rate>
              <timebase>30</timebase>
              <ntsc>TRUE</ntsc>
            </rate>
            <start>14541</start>
            <end>14937</end>
            <in>0</in>
            <out>396</out>
            <file id="file-51">
              <name>OrionEp2-050-NA.mp3</name>
              <pathurl>file:///Users/hiroshikodera/repos/_active/tools/davinciauto/projects/OrionEp2/%E3%82%B5%E3%82%A6%E3%83%B3%E3%83%89%E9%A1%9E/Narration/OrionEp2-050-NA.mp3</pathurl>
              <rate>
                <timebase>44100</timebase>
                <ntsc>FALSE</ntsc>
              </rate>
              <media>
                <audio>
                  <channelcount>1</channelcount>
                  <samplecharacteristics>
                    <samplerate>44100</samplerate>
                    <samplesize>16</samplesize>
                  </samplecharacteristics>
                </audio>
              </media>
            </file>
            <sourcetrack>
              <mediatype>audio</mediatype>
              <trackindex>1</trackindex>
            </sourcetrack>
          </clipitem>
          <clipitem id="clipitem-51">
            <name>OrionEp2-051-NA.mp3</name>
            <enabled>TRUE</enabled>
            <duration>468</duration>
            <rate>
              <timebase>30</timebase>
              <ntsc>TRUE</ntsc>
            </rate>
            <start>14955</start>
            <end>15423</end>
            <in>0</in>
            <out>468</out>
            <file id="file-52">
              <name>OrionEp2-051-NA.mp3</name>
              <pathurl>file:///Users/hiroshikodera/repos/_active/tools/davinciauto/projects/OrionEp2/%E3%82%B5%E3%82%A6%E3%83%B3%E3%83%89%E9%A1%9E/Narration/OrionEp2-051-NA.mp3</pathurl>
              <rate>
                <timebase>44100</timebase>
                <ntsc>FALSE</ntsc>
              </rate>
              <media>
                <audio>
                  <channelcount>1</channelcount>
                  <samplecharacteristics>
                    <samplerate>44100</samplerate>
                    <samplesize>16</samplesize>
                  </samplecharacteristics>
                </audio>
              </media>
            </file>
            <sourcetrack>
              <mediatype>audio</mediatype>
              <trackindex>1</trackindex>
            </sourcetrack>
          </clipitem>
          <clipitem id="clipitem-52">
            <name>OrionEp2-052-NA.mp3</name>
            <enabled>TRUE</enabled>
            <duration>142</duration>
            <rate>
              <timebase>30</timebase>
              <ntsc>TRUE</ntsc>
            </rate>
            <start>15443</start>
            <end>15585</end>
            <in>0</in>
            <out>142</out>
            <file id="file-53">
              <name>OrionEp2-052-NA.mp3</name>
              <pathurl>file:///Users/hiroshikodera/repos/_active/tools/davinciauto/projects/OrionEp2/%E3%82%B5%E3%82%A6%E3%83%B3%E3%83%89%E9%A1%9E/Narration/OrionEp2-052-NA.mp3</pathurl>
              <rate>
                <timebase>44100</timebase>
                <ntsc>FALSE</ntsc>
              </rate>
              <media>
                <audio>
                  <channelcount>1</channelcount>
                  <samplecharacteristics>
                    <samplerate>44100</samplerate>
                    <samplesize>16</samplesize>
                  </samplecharacteristics>
                </audio>
              </media>
            </file>
            <sourcetrack>
              <mediatype>audio</mediatype>
              <trackindex>1</trackindex>
            </sourcetrack>
          </clipitem>
          <clipitem id="clipitem-53">
            <name>OrionEp2-053-NA.mp3</name>
            <enabled>TRUE</enabled>
            <duration>339</duration>
            <rate>
              <timebase>30</timebase>
              <ntsc>TRUE</ntsc>
            </rate>
            <start>15598</start>
            <end>15937</end>
            <in>0</in>
            <out>339</out>
            <file id="file-54">
              <name>OrionEp2-053-NA.mp3</name>
              <pathurl>file:///Users/hiroshikodera/repos/_active/tools/davinciauto/projects/OrionEp2/%E3%82%B5%E3%82%A6%E3%83%B3%E3%83%89%E9%A1%9E/Narration/OrionEp2-053-NA.mp3</pathurl>
              <rate>
                <timebase>44100</timebase>
                <ntsc>FALSE</ntsc>
              </rate>
              <media>
                <audio>
                  <channelcount>1</channelcount>
                  <samplecharacteristics>
                    <samplerate>44100</samplerate>
                    <samplesize>16</samplesize>
                  </samplecharacteristics>
                </audio>
              </media>
            </file>
            <sourcetrack>
              <mediatype>audio</mediatype>
              <trackindex>1</trackindex>
            </sourcetrack>
          </clipitem>
          <clipitem id="clipitem-54">
            <name>OrionEp2-054-NA.mp3</name>
            <enabled>TRUE</enabled>
            <duration>374</duration>
            <rate>
              <timebase>30</timebase>
              <ntsc>TRUE</ntsc>
            </rate>
            <start>15954</start>
            <end>16328</end>
            <in>0</in>
            <out>374</out>
            <file id="file-55">
              <name>OrionEp2-054-NA.mp3</name>
              <pathurl>file:///Users/hiroshikodera/repos/_active/tools/davinciauto/projects/OrionEp2/%E3%82%B5%E3%82%A6%E3%83%B3%E3%83%89%E9%A1%9E/Narration/OrionEp2-054-NA.mp3</pathurl>
              <rate>
                <timebase>44100</timebase>
                <ntsc>FALSE</ntsc>
              </rate>
              <media>
                <audio>
                  <channelcount>1</channelcount>
                  <samplecharacteristics>
                    <samplerate>44100</samplerate>
                    <samplesize>16</samplesize>
                  </samplecharacteristics>
                </audio>
              </media>
            </file>
            <sourcetrack>
              <mediatype>audio</mediatype>
              <trackindex>1</trackindex>
            </sourcetrack>
          </clipitem>
          <clipitem id="clipitem-55">
            <name>OrionEp2-055-DL.mp3</name>
            <enabled>TRUE</enabled>
            <duration>111</duration>
            <rate>
              <timebase>30</timebase>
              <ntsc>TRUE</ntsc>
            </rate>
            <start>16346</start>
            <end>16457</end>
            <in>0</in>
            <out>111</out>
            <file id="file-56">
              <name>OrionEp2-055-DL.mp3</name>
              <pathurl>file:///Users/hiroshikodera/repos/_active/tools/davinciauto/projects/OrionEp2/%E3%82%B5%E3%82%A6%E3%83%B3%E3%83%89%E9%A1%9E/Narration/OrionEp2-055-DL.mp3</pathurl>
              <rate>
                <timebase>44100</timebase>
                <ntsc>FALSE</ntsc>
              </rate>
              <media>
                <audio>
                  <channelcount>1</channelcount>
                  <samplecharacteristics>
                    <samplerate>44100</samplerate>
                    <samplesize>16</samplesize>
                  </samplecharacteristics>
                </audio>
              </media>
            </file>
            <sourcetrack>
              <mediatype>audio</mediatype>
              <trackindex>1</trackindex>
            </sourcetrack>
          </clipitem>
          <clipitem id="clipitem-56">
            <name>OrionEp2-056-NA.mp3</name>
            <enabled>TRUE</enabled>
            <duration>384</duration>
            <rate>
              <timebase>30</timebase>
              <ntsc>TRUE</ntsc>
            </rate>
            <start>16477</start>
            <end>16861</end>
            <in>0</in>
            <out>384</out>
            <file id="file-57">
              <name>OrionEp2-056-NA.mp3</name>
              <pathurl>file:///Users/hiroshikodera/repos/_active/tools/davinciauto/projects/OrionEp2/%E3%82%B5%E3%82%A6%E3%83%B3%E3%83%89%E9%A1%9E/Narration/OrionEp2-056-NA.mp3</pathurl>
              <rate>
                <timebase>44100</timebase>
                <ntsc>FALSE</ntsc>
              </rate>
              <media>
                <audio>
                  <channelcount>1</channelcount>
                  <samplecharacteristics>
                    <samplerate>44100</samplerate>
                    <samplesize>16</samplesize>
                  </samplecharacteristics>
                </audio>
              </media>
            </file>
            <sourcetrack>
              <mediatype>audio</mediatype>
              <trackindex>1</trackindex>
            </sourcetrack>
          </clipitem>
          <clipitem id="clipitem-57">
            <name>OrionEp2-057-NA.mp3</name>
            <enabled>TRUE</enabled>
            <duration>124</duration>
            <rate>
              <timebase>30</timebase>
              <ntsc>TRUE</ntsc>
            </rate>
            <start>16878</start>
            <end>17002</end>
            <in>0</in>
            <out>124</out>
            <file id="file-58">
              <name>OrionEp2-057-NA.mp3</name>
              <pathurl>file:///Users/hiroshikodera/repos/_active/tools/davinciauto/projects/OrionEp2/%E3%82%B5%E3%82%A6%E3%83%B3%E3%83%89%E9%A1%9E/Narration/OrionEp2-057-NA.mp3</pathurl>
              <rate>
                <timebase>44100</timebase>
                <ntsc>FALSE</ntsc>
              </rate>
              <media>
                <audio>
                  <channelcount>1</channelcount>
                  <samplecharacteristics>
                    <samplerate>44100</samplerate>
                    <samplesize>16</samplesize>
                  </samplecharacteristics>
                </audio>
              </media>
            </file>
            <sourcetrack>
              <mediatype>audio</mediatype>
              <trackindex>1</trackindex>
            </sourcetrack>
          </clipitem>
          <clipitem id="clipitem-58">
            <name>OrionEp2-058-NA.mp3</name>
            <enabled>TRUE</enabled>
            <duration>347</duration>
            <rate>
              <timebase>30</timebase>
              <ntsc>TRUE</ntsc>
            </rate>
            <start>17015</start>
            <end>17362</end>
            <in>0</in>
            <out>347</out>
            <file id="file-59">
              <name>OrionEp2-058-NA.mp3</name>
              <pathurl>file:///Users/hiroshikodera/repos/_active/tools/davinciauto/projects/OrionEp2/%E3%82%B5%E3%82%A6%E3%83%B3%E3%83%89%E9%A1%9E/Narration/OrionEp2-058-NA.mp3</pathurl>
              <rate>
                <timebase>44100</timebase>
                <ntsc>FALSE</ntsc>
              </rate>
              <media>
                <audio>
                  <channelcount>1</channelcount>
                  <samplecharacteristics>
                    <samplerate>44100</samplerate>
                    <samplesize>16</samplesize>
                  </samplecharacteristics>
                </audio>
              </media>
            </file>
            <sourcetrack>
              <mediatype>audio</mediatype>
              <trackindex>1</trackindex>
            </sourcetrack>
          </clipitem>
          <clipitem id="clipitem-59">
            <name>OrionEp2-059-NA.mp3</name>
            <enabled>TRUE</enabled>
            <duration>361</duration>
            <rate>
              <timebase>30</timebase>
              <ntsc>TRUE</ntsc>
            </rate>
            <start>17380</start>
            <end>17741</end>
            <in>0</in>
            <out>361</out>
            <file id="file-60">
              <name>OrionEp2-059-NA.mp3</name>
              <pathurl>file:///Users/hiroshikodera/repos/_active/tools/davinciauto/projects/OrionEp2/%E3%82%B5%E3%82%A6%E3%83%B3%E3%83%89%E9%A1%9E/Narration/OrionEp2-059-NA.mp3</pathurl>
              <rate>
                <timebase>44100</timebase>
                <ntsc>FALSE</ntsc>
              </rate>
              <media>
                <audio>
                  <channelcount>1</channelcount>
                  <samplecharacteristics>
                    <samplerate>44100</samplerate>
                    <samplesize>16</samplesize>
                  </samplecharacteristics>
                </audio>
              </media>
            </file>
            <sourcetrack>
              <mediatype>audio</mediatype>
              <trackindex>1</trackindex>
            </sourcetrack>
          </clipitem>
          <clipitem id="clipitem-60">
            <name>OrionEp2-060-NA.mp3</name>
            <enabled>TRUE</enabled>
            <duration>289</duration>
            <rate>
              <timebase>30</timebase>
              <ntsc>TRUE</ntsc>
            </rate>
            <start>17759</start>
            <end>18048</end>
            <in>0</in>
            <out>289</out>
            <file id="file-61">
              <name>OrionEp2-060-NA.mp3</name>
              <pathurl>file:///Users/hiroshikodera/repos/_active/tools/davinciauto/projects/OrionEp2/%E3%82%B5%E3%82%A6%E3%83%B3%E3%83%89%E9%A1%9E/Narration/OrionEp2-060-NA.mp3</pathurl>
              <rate>
                <timebase>44100</timebase>
                <ntsc>FALSE</ntsc>
              </rate>
              <media>
                <audio>
                  <channelcount>1</channelcount>
                  <samplecharacteristics>
                    <samplerate>44100</samplerate>
                    <samplesize>16</samplesize>
                  </samplecharacteristics>
                </audio>
              </media>
            </file>
            <sourcetrack>
              <mediatype>audio</mediatype>
              <trackindex>1</trackindex>
            </sourcetrack>
          </clipitem>
          <clipitem id="clipitem-61">
            <name>OrionEp2-061-NA.mp3</name>
            <enabled>TRUE</enabled>
            <duration>163</duration>
            <rate>
              <timebase>30</timebase>
              <ntsc>TRUE</ntsc>
            </rate>
            <start>18065</start>
            <end>18228</end>
            <in>0</in>
            <out>163</out>
            <file id="file-62">
              <name>OrionEp2-061-NA.mp3</name>
              <pathurl>file:///Users/hiroshikodera/repos/_active/tools/davinciauto/projects/OrionEp2/%E3%82%B5%E3%82%A6%E3%83%B3%E3%83%89%E9%A1%9E/Narration/OrionEp2-061-NA.mp3</pathurl>
              <rate>
                <timebase>44100</timebase>
                <ntsc>FALSE</ntsc>
              </rate>
              <media>
                <audio>
                  <channelcount>1</channelcount>
                  <samplecharacteristics>
                    <samplerate>44100</samplerate>
                    <samplesize>16</samplesize>
                  </samplecharacteristics>
                </audio>
              </media>
            </file>
            <sourcetrack>
              <mediatype>audio</mediatype>
              <trackindex>1</trackindex>
            </sourcetrack>
          </clipitem>
          <clipitem id="clipitem-62">
            <name>OrionEp2-062-NA.mp3</name>
            <enabled>TRUE</enabled>
            <duration>122</duration>
            <rate>
              <timebase>30</timebase>
              <ntsc>TRUE</ntsc>
            </rate>
            <start>18241</start>
            <end>18363</end>
            <in>0</in>
            <out>122</out>
            <file id="file-63">
              <name>OrionEp2-062-NA.mp3</name>
              <pathurl>file:///Users/hiroshikodera/repos/_active/tools/davinciauto/projects/OrionEp2/%E3%82%B5%E3%82%A6%E3%83%B3%E3%83%89%E9%A1%9E/Narration/OrionEp2-062-NA.mp3</pathurl>
              <rate>
                <timebase>44100</timebase>
                <ntsc>FALSE</ntsc>
              </rate>
              <media>
                <audio>
                  <channelcount>1</channelcount>
                  <samplecharacteristics>
                    <samplerate>44100</samplerate>
                    <samplesize>16</samplesize>
                  </samplecharacteristics>
                </audio>
              </media>
            </file>
            <sourcetrack>
              <mediatype>audio</mediatype>
              <trackindex>1</trackindex>
            </sourcetrack>
          </clipitem>
          <clipitem id="clipitem-63">
            <name>OrionEp2-063-NA.mp3</name>
            <enabled>TRUE</enabled>
            <duration>194</duration>
            <rate>
              <timebase>30</timebase>
              <ntsc>TRUE</ntsc>
            </rate>
            <start>18385</start>
            <end>18579</end>
            <in>0</in>
            <out>194</out>
            <file id="file-64">
              <name>OrionEp2-063-NA.mp3</name>
              <pathurl>file:///Users/hiroshikodera/repos/_active/tools/davinciauto/projects/OrionEp2/%E3%82%B5%E3%82%A6%E3%83%B3%E3%83%89%E9%A1%9E/Narration/OrionEp2-063-NA.mp3</pathurl>
              <rate>
                <timebase>44100</timebase>
                <ntsc>FALSE</ntsc>
              </rate>
              <media>
                <audio>
                  <channelcount>1</channelcount>
                  <samplecharacteristics>
                    <samplerate>44100</samplerate>
                    <samplesize>16</samplesize>
                  </samplecharacteristics>
                </audio>
              </media>
            </file>
            <sourcetrack>
              <mediatype>audio</mediatype>
              <trackindex>1</trackindex>
            </sourcetrack>
          </clipitem>
        </track>
      </audio>
    </media>
  </sequence>
</xmeml>
