<?xml version="1.0" encoding="utf-8"?>
<xmeml version="4">
  <sequence>
    <uuid>OrionEp7_timeline</uuid>
    <duration>18706</duration>
    <name>OrionEp7_timeline</name>
    <rate>
      <timebase>30</timebase>
      <ntsc>TRUE</ntsc>
    </rate>
    <media>
      <video>
        <format/>
      </video>
      <audio>
        <track>
          <clipitem id="clipitem-1">
            <name>OrionEp7-001-NA.mp3</name>
            <enabled>TRUE</enabled>
            <duration>176</duration>
            <rate>
              <timebase>30</timebase>
              <ntsc>TRUE</ntsc>
            </rate>
            <start>15</start>
            <end>191</end>
            <in>0</in>
            <out>176</out>
            <file id="file-2">
              <name>OrionEp7-001-NA.mp3</name>
              <pathurl>file:///Users/hiroshikodera/repos/_active/tools/davinciauto/projects/OrionEp7/%E3%82%B5%E3%82%A6%E3%83%B3%E3%83%89%E9%A1%9E/Narration/OrionEp7-001-NA.mp3</pathurl>
              <rate>
                <timebase>44100</timebase>
                <ntsc>FALSE</ntsc>
              </rate>
              <media>
                <audio>
                  <channelcount>1</channelcount>
                  <samplecharacteristics>
                    <samplerate>44100</samplerate>
                    <samplesize>16</samplesize>
                  </samplecharacteristics>
                </audio>
              </media>
            </file>
            <sourcetrack>
              <mediatype>audio</mediatype>
              <trackindex>1</trackindex>
            </sourcetrack>
          </clipitem>
          <clipitem id="clipitem-2">
            <name>OrionEp7-002-NA.mp3</name>
            <enabled>TRUE</enabled>
            <duration>318</duration>
            <rate>
              <timebase>30</timebase>
              <ntsc>TRUE</ntsc>
            </rate>
            <start>214</start>
            <end>532</end>
            <in>0</in>
            <out>318</out>
            <file id="file-3">
              <name>OrionEp7-002-NA.mp3</name>
              <pathurl>file:///Users/hiroshikodera/repos/_active/tools/davinciauto/projects/OrionEp7/%E3%82%B5%E3%82%A6%E3%83%B3%E3%83%89%E9%A1%9E/Narration/OrionEp7-002-NA.mp3</pathurl>
              <rate>
                <timebase>44100</timebase>
                <ntsc>FALSE</ntsc>
              </rate>
              <media>
                <audio>
                  <channelcount>1</channelcount>
                  <samplecharacteristics>
                    <samplerate>44100</samplerate>
                    <samplesize>16</samplesize>
                  </samplecharacteristics>
                </audio>
              </media>
            </file>
            <sourcetrack>
              <mediatype>audio</mediatype>
              <trackindex>1</trackindex>
            </sourcetrack>
          </clipitem>
          <clipitem id="clipitem-3">
            <name>OrionEp7-003-NA.mp3</name>
            <enabled>TRUE</enabled>
            <duration>207</duration>
            <rate>
              <timebase>30</timebase>
              <ntsc>TRUE</ntsc>
            </rate>
            <start>558</start>
            <end>765</end>
            <in>0</in>
            <out>207</out>
            <file id="file-4">
              <name>OrionEp7-003-NA.mp3</name>
              <pathurl>file:///Users/hiroshikodera/repos/_active/tools/davinciauto/projects/OrionEp7/%E3%82%B5%E3%82%A6%E3%83%B3%E3%83%89%E9%A1%9E/Narration/OrionEp7-003-NA.mp3</pathurl>
              <rate>
                <timebase>44100</timebase>
                <ntsc>FALSE</ntsc>
              </rate>
              <media>
                <audio>
                  <channelcount>1</channelcount>
                  <samplecharacteristics>
                    <samplerate>44100</samplerate>
                    <samplesize>16</samplesize>
                  </samplecharacteristics>
                </audio>
              </media>
            </file>
            <sourcetrack>
              <mediatype>audio</mediatype>
              <trackindex>1</trackindex>
            </sourcetrack>
          </clipitem>
          <clipitem id="clipitem-4">
            <name>OrionEp7-004-NA.mp3</name>
            <enabled>TRUE</enabled>
            <duration>365</duration>
            <rate>
              <timebase>30</timebase>
              <ntsc>TRUE</ntsc>
            </rate>
            <start>780</start>
            <end>1145</end>
            <in>0</in>
            <out>365</out>
            <file id="file-5">
              <name>OrionEp7-004-NA.mp3</name>
              <pathurl>file:///Users/hiroshikodera/repos/_active/tools/davinciauto/projects/OrionEp7/%E3%82%B5%E3%82%A6%E3%83%B3%E3%83%89%E9%A1%9E/Narration/OrionEp7-004-NA.mp3</pathurl>
              <rate>
                <timebase>44100</timebase>
                <ntsc>FALSE</ntsc>
              </rate>
              <media>
                <audio>
                  <channelcount>1</channelcount>
                  <samplecharacteristics>
                    <samplerate>44100</samplerate>
                    <samplesize>16</samplesize>
                  </samplecharacteristics>
                </audio>
              </media>
            </file>
            <sourcetrack>
              <mediatype>audio</mediatype>
              <trackindex>1</trackindex>
            </sourcetrack>
          </clipitem>
          <clipitem id="clipitem-5">
            <name>OrionEp7-005-NA.mp3</name>
            <enabled>TRUE</enabled>
            <duration>235</duration>
            <rate>
              <timebase>30</timebase>
              <ntsc>TRUE</ntsc>
            </rate>
            <start>1161</start>
            <end>1396</end>
            <in>0</in>
            <out>235</out>
            <file id="file-6">
              <name>OrionEp7-005-NA.mp3</name>
              <pathurl>file:///Users/hiroshikodera/repos/_active/tools/davinciauto/projects/OrionEp7/%E3%82%B5%E3%82%A6%E3%83%B3%E3%83%89%E9%A1%9E/Narration/OrionEp7-005-NA.mp3</pathurl>
              <rate>
                <timebase>44100</timebase>
                <ntsc>FALSE</ntsc>
              </rate>
              <media>
                <audio>
                  <channelcount>1</channelcount>
                  <samplecharacteristics>
                    <samplerate>44100</samplerate>
                    <samplesize>16</samplesize>
                  </samplecharacteristics>
                </audio>
              </media>
            </file>
            <sourcetrack>
              <mediatype>audio</mediatype>
              <trackindex>1</trackindex>
            </sourcetrack>
          </clipitem>
          <clipitem id="clipitem-6">
            <name>OrionEp7-006-NA.mp3</name>
            <enabled>TRUE</enabled>
            <duration>173</duration>
            <rate>
              <timebase>30</timebase>
              <ntsc>TRUE</ntsc>
            </rate>
            <start>1412</start>
            <end>1585</end>
            <in>0</in>
            <out>173</out>
            <file id="file-7">
              <name>OrionEp7-006-NA.mp3</name>
              <pathurl>file:///Users/hiroshikodera/repos/_active/tools/davinciauto/projects/OrionEp7/%E3%82%B5%E3%82%A6%E3%83%B3%E3%83%89%E9%A1%9E/Narration/OrionEp7-006-NA.mp3</pathurl>
              <rate>
                <timebase>44100</timebase>
                <ntsc>FALSE</ntsc>
              </rate>
              <media>
                <audio>
                  <channelcount>1</channelcount>
                  <samplecharacteristics>
                    <samplerate>44100</samplerate>
                    <samplesize>16</samplesize>
                  </samplecharacteristics>
                </audio>
              </media>
            </file>
            <sourcetrack>
              <mediatype>audio</mediatype>
              <trackindex>1</trackindex>
            </sourcetrack>
          </clipitem>
          <clipitem id="clipitem-7">
            <name>OrionEp7-007-NA.mp3</name>
            <enabled>TRUE</enabled>
            <duration>227</duration>
            <rate>
              <timebase>30</timebase>
              <ntsc>TRUE</ntsc>
            </rate>
            <start>1599</start>
            <end>1826</end>
            <in>0</in>
            <out>227</out>
            <file id="file-8">
              <name>OrionEp7-007-NA.mp3</name>
              <pathurl>file:///Users/hiroshikodera/repos/_active/tools/davinciauto/projects/OrionEp7/%E3%82%B5%E3%82%A6%E3%83%B3%E3%83%89%E9%A1%9E/Narration/OrionEp7-007-NA.mp3</pathurl>
              <rate>
                <timebase>44100</timebase>
                <ntsc>FALSE</ntsc>
              </rate>
              <media>
                <audio>
                  <channelcount>1</channelcount>
                  <samplecharacteristics>
                    <samplerate>44100</samplerate>
                    <samplesize>16</samplesize>
                  </samplecharacteristics>
                </audio>
              </media>
            </file>
            <sourcetrack>
              <mediatype>audio</mediatype>
              <trackindex>1</trackindex>
            </sourcetrack>
          </clipitem>
          <clipitem id="clipitem-8">
            <name>OrionEp7-008-NA.mp3</name>
            <enabled>TRUE</enabled>
            <duration>494</duration>
            <rate>
              <timebase>30</timebase>
              <ntsc>TRUE</ntsc>
            </rate>
            <start>1840</start>
            <end>2334</end>
            <in>0</in>
            <out>494</out>
            <file id="file-9">
              <name>OrionEp7-008-NA.mp3</name>
              <pathurl>file:///Users/hiroshikodera/repos/_active/tools/davinciauto/projects/OrionEp7/%E3%82%B5%E3%82%A6%E3%83%B3%E3%83%89%E9%A1%9E/Narration/OrionEp7-008-NA.mp3</pathurl>
              <rate>
                <timebase>44100</timebase>
                <ntsc>FALSE</ntsc>
              </rate>
              <media>
                <audio>
                  <channelcount>1</channelcount>
                  <samplecharacteristics>
                    <samplerate>44100</samplerate>
                    <samplesize>16</samplesize>
                  </samplecharacteristics>
                </audio>
              </media>
            </file>
            <sourcetrack>
              <mediatype>audio</mediatype>
              <trackindex>1</trackindex>
            </sourcetrack>
          </clipitem>
          <clipitem id="clipitem-9">
            <name>OrionEp7-009-NA.mp3</name>
            <enabled>TRUE</enabled>
            <duration>296</duration>
            <rate>
              <timebase>30</timebase>
              <ntsc>TRUE</ntsc>
            </rate>
            <start>2355</start>
            <end>2651</end>
            <in>0</in>
            <out>296</out>
            <file id="file-10">
              <name>OrionEp7-009-NA.mp3</name>
              <pathurl>file:///Users/hiroshikodera/repos/_active/tools/davinciauto/projects/OrionEp7/%E3%82%B5%E3%82%A6%E3%83%B3%E3%83%89%E9%A1%9E/Narration/OrionEp7-009-NA.mp3</pathurl>
              <rate>
                <timebase>44100</timebase>
                <ntsc>FALSE</ntsc>
              </rate>
              <media>
                <audio>
                  <channelcount>1</channelcount>
                  <samplecharacteristics>
                    <samplerate>44100</samplerate>
                    <samplesize>16</samplesize>
                  </samplecharacteristics>
                </audio>
              </media>
            </file>
            <sourcetrack>
              <mediatype>audio</mediatype>
              <trackindex>1</trackindex>
            </sourcetrack>
          </clipitem>
          <clipitem id="clipitem-10">
            <name>OrionEp7-010-NA.mp3</name>
            <enabled>TRUE</enabled>
            <duration>120</duration>
            <rate>
              <timebase>30</timebase>
              <ntsc>TRUE</ntsc>
            </rate>
            <start>2666</start>
            <end>2786</end>
            <in>0</in>
            <out>120</out>
            <file id="file-11">
              <name>OrionEp7-010-NA.mp3</name>
              <pathurl>file:///Users/hiroshikodera/repos/_active/tools/davinciauto/projects/OrionEp7/%E3%82%B5%E3%82%A6%E3%83%B3%E3%83%89%E9%A1%9E/Narration/OrionEp7-010-NA.mp3</pathurl>
              <rate>
                <timebase>44100</timebase>
                <ntsc>FALSE</ntsc>
              </rate>
              <media>
                <audio>
                  <channelcount>1</channelcount>
                  <samplecharacteristics>
                    <samplerate>44100</samplerate>
                    <samplesize>16</samplesize>
                  </samplecharacteristics>
                </audio>
              </media>
            </file>
            <sourcetrack>
              <mediatype>audio</mediatype>
              <trackindex>1</trackindex>
            </sourcetrack>
          </clipitem>
          <clipitem id="clipitem-11">
            <name>OrionEp7-011-DL.mp3</name>
            <enabled>TRUE</enabled>
            <duration>137</duration>
            <rate>
              <timebase>30</timebase>
              <ntsc>TRUE</ntsc>
            </rate>
            <start>2799</start>
            <end>2936</end>
            <in>0</in>
            <out>137</out>
            <file id="file-12">
              <name>OrionEp7-011-DL.mp3</name>
              <pathurl>file:///Users/hiroshikodera/repos/_active/tools/davinciauto/projects/OrionEp7/%E3%82%B5%E3%82%A6%E3%83%B3%E3%83%89%E9%A1%9E/Narration/OrionEp7-011-DL.mp3</pathurl>
              <rate>
                <timebase>44100</timebase>
                <ntsc>FALSE</ntsc>
              </rate>
              <media>
                <audio>
                  <channelcount>1</channelcount>
                  <samplecharacteristics>
                    <samplerate>44100</samplerate>
                    <samplesize>16</samplesize>
                  </samplecharacteristics>
                </audio>
              </media>
            </file>
            <sourcetrack>
              <mediatype>audio</mediatype>
              <trackindex>1</trackindex>
            </sourcetrack>
          </clipitem>
          <clipitem id="clipitem-12">
            <name>OrionEp7-012-NA.mp3</name>
            <enabled>TRUE</enabled>
            <duration>258</duration>
            <rate>
              <timebase>30</timebase>
              <ntsc>TRUE</ntsc>
            </rate>
            <start>2966</start>
            <end>3224</end>
            <in>0</in>
            <out>258</out>
            <file id="file-13">
              <name>OrionEp7-012-NA.mp3</name>
              <pathurl>file:///Users/hiroshikodera/repos/_active/tools/davinciauto/projects/OrionEp7/%E3%82%B5%E3%82%A6%E3%83%B3%E3%83%89%E9%A1%9E/Narration/OrionEp7-012-NA.mp3</pathurl>
              <rate>
                <timebase>44100</timebase>
                <ntsc>FALSE</ntsc>
              </rate>
              <media>
                <audio>
                  <channelcount>1</channelcount>
                  <samplecharacteristics>
                    <samplerate>44100</samplerate>
                    <samplesize>16</samplesize>
                  </samplecharacteristics>
                </audio>
              </media>
            </file>
            <sourcetrack>
              <mediatype>audio</mediatype>
              <trackindex>1</trackindex>
            </sourcetrack>
          </clipitem>
          <clipitem id="clipitem-13">
            <name>OrionEp7-013-DL.mp3</name>
            <enabled>TRUE</enabled>
            <duration>99</duration>
            <rate>
              <timebase>30</timebase>
              <ntsc>TRUE</ntsc>
            </rate>
            <start>3240</start>
            <end>3339</end>
            <in>0</in>
            <out>99</out>
            <file id="file-14">
              <name>OrionEp7-013-DL.mp3</name>
              <pathurl>file:///Users/hiroshikodera/repos/_active/tools/davinciauto/projects/OrionEp7/%E3%82%B5%E3%82%A6%E3%83%B3%E3%83%89%E9%A1%9E/Narration/OrionEp7-013-DL.mp3</pathurl>
              <rate>
                <timebase>44100</timebase>
                <ntsc>FALSE</ntsc>
              </rate>
              <media>
                <audio>
                  <channelcount>1</channelcount>
                  <samplecharacteristics>
                    <samplerate>44100</samplerate>
                    <samplesize>16</samplesize>
                  </samplecharacteristics>
                </audio>
              </media>
            </file>
            <sourcetrack>
              <mediatype>audio</mediatype>
              <trackindex>1</trackindex>
            </sourcetrack>
          </clipitem>
          <clipitem id="clipitem-14">
            <name>OrionEp7-014-DL.mp3</name>
            <enabled>TRUE</enabled>
            <duration>104</duration>
            <rate>
              <timebase>30</timebase>
              <ntsc>TRUE</ntsc>
            </rate>
            <start>3368</start>
            <end>3472</end>
            <in>0</in>
            <out>104</out>
            <file id="file-15">
              <name>OrionEp7-014-DL.mp3</name>
              <pathurl>file:///Users/hiroshikodera/repos/_active/tools/davinciauto/projects/OrionEp7/%E3%82%B5%E3%82%A6%E3%83%B3%E3%83%89%E9%A1%9E/Narration/OrionEp7-014-DL.mp3</pathurl>
              <rate>
                <timebase>44100</timebase>
                <ntsc>FALSE</ntsc>
              </rate>
              <media>
                <audio>
                  <channelcount>1</channelcount>
                  <samplecharacteristics>
                    <samplerate>44100</samplerate>
                    <samplesize>16</samplesize>
                  </samplecharacteristics>
                </audio>
              </media>
            </file>
            <sourcetrack>
              <mediatype>audio</mediatype>
              <trackindex>1</trackindex>
            </sourcetrack>
          </clipitem>
          <clipitem id="clipitem-15">
            <name>OrionEp7-015-NA.mp3</name>
            <enabled>TRUE</enabled>
            <duration>389</duration>
            <rate>
              <timebase>30</timebase>
              <ntsc>TRUE</ntsc>
            </rate>
            <start>3493</start>
            <end>3882</end>
            <in>0</in>
            <out>389</out>
            <file id="file-16">
              <name>OrionEp7-015-NA.mp3</name>
              <pathurl>file:///Users/hiroshikodera/repos/_active/tools/davinciauto/projects/OrionEp7/%E3%82%B5%E3%82%A6%E3%83%B3%E3%83%89%E9%A1%9E/Narration/OrionEp7-015-NA.mp3</pathurl>
              <rate>
                <timebase>44100</timebase>
                <ntsc>FALSE</ntsc>
              </rate>
              <media>
                <audio>
                  <channelcount>1</channelcount>
                  <samplecharacteristics>
                    <samplerate>44100</samplerate>
                    <samplesize>16</samplesize>
                  </samplecharacteristics>
                </audio>
              </media>
            </file>
            <sourcetrack>
              <mediatype>audio</mediatype>
              <trackindex>1</trackindex>
            </sourcetrack>
          </clipitem>
          <clipitem id="clipitem-16">
            <name>OrionEp7-016-NA.mp3</name>
            <enabled>TRUE</enabled>
            <duration>174</duration>
            <rate>
              <timebase>30</timebase>
              <ntsc>TRUE</ntsc>
            </rate>
            <start>3899</start>
            <end>4073</end>
            <in>0</in>
            <out>174</out>
            <file id="file-17">
              <name>OrionEp7-016-NA.mp3</name>
              <pathurl>file:///Users/hiroshikodera/repos/_active/tools/davinciauto/projects/OrionEp7/%E3%82%B5%E3%82%A6%E3%83%B3%E3%83%89%E9%A1%9E/Narration/OrionEp7-016-NA.mp3</pathurl>
              <rate>
                <timebase>44100</timebase>
                <ntsc>FALSE</ntsc>
              </rate>
              <media>
                <audio>
                  <channelcount>1</channelcount>
                  <samplecharacteristics>
                    <samplerate>44100</samplerate>
                    <samplesize>16</samplesize>
                  </samplecharacteristics>
                </audio>
              </media>
            </file>
            <sourcetrack>
              <mediatype>audio</mediatype>
              <trackindex>1</trackindex>
            </sourcetrack>
          </clipitem>
          <clipitem id="clipitem-17">
            <name>OrionEp7-017-DL.mp3</name>
            <enabled>TRUE</enabled>
            <duration>251</duration>
            <rate>
              <timebase>30</timebase>
              <ntsc>TRUE</ntsc>
            </rate>
            <start>4087</start>
            <end>4338</end>
            <in>0</in>
            <out>251</out>
            <file id="file-18">
              <name>OrionEp7-017-DL.mp3</name>
              <pathurl>file:///Users/hiroshikodera/repos/_active/tools/davinciauto/projects/OrionEp7/%E3%82%B5%E3%82%A6%E3%83%B3%E3%83%89%E9%A1%9E/Narration/OrionEp7-017-DL.mp3</pathurl>
              <rate>
                <timebase>44100</timebase>
                <ntsc>FALSE</ntsc>
              </rate>
              <media>
                <audio>
                  <channelcount>1</channelcount>
                  <samplecharacteristics>
                    <samplerate>44100</samplerate>
                    <samplesize>16</samplesize>
                  </samplecharacteristics>
                </audio>
              </media>
            </file>
            <sourcetrack>
              <mediatype>audio</mediatype>
              <trackindex>1</trackindex>
            </sourcetrack>
          </clipitem>
          <clipitem id="clipitem-18">
            <name>OrionEp7-018-NA.mp3</name>
            <enabled>TRUE</enabled>
            <duration>428</duration>
            <rate>
              <timebase>30</timebase>
              <ntsc>TRUE</ntsc>
            </rate>
            <start>4360</start>
            <end>4788</end>
            <in>0</in>
            <out>428</out>
            <file id="file-19">
              <name>OrionEp7-018-NA.mp3</name>
              <pathurl>file:///Users/hiroshikodera/repos/_active/tools/davinciauto/projects/OrionEp7/%E3%82%B5%E3%82%A6%E3%83%B3%E3%83%89%E9%A1%9E/Narration/OrionEp7-018-NA.mp3</pathurl>
              <rate>
                <timebase>44100</timebase>
                <ntsc>FALSE</ntsc>
              </rate>
              <media>
                <audio>
                  <channelcount>1</channelcount>
                  <samplecharacteristics>
                    <samplerate>44100</samplerate>
                    <samplesize>16</samplesize>
                  </samplecharacteristics>
                </audio>
              </media>
            </file>
            <sourcetrack>
              <mediatype>audio</mediatype>
              <trackindex>1</trackindex>
            </sourcetrack>
          </clipitem>
          <clipitem id="clipitem-19">
            <name>OrionEp7-019-NA.mp3</name>
            <enabled>TRUE</enabled>
            <duration>414</duration>
            <rate>
              <timebase>30</timebase>
              <ntsc>TRUE</ntsc>
            </rate>
            <start>4806</start>
            <end>5220</end>
            <in>0</in>
            <out>414</out>
            <file id="file-20">
              <name>OrionEp7-019-NA.mp3</name>
              <pathurl>file:///Users/hiroshikodera/repos/_active/tools/davinciauto/projects/OrionEp7/%E3%82%B5%E3%82%A6%E3%83%B3%E3%83%89%E9%A1%9E/Narration/OrionEp7-019-NA.mp3</pathurl>
              <rate>
                <timebase>44100</timebase>
                <ntsc>FALSE</ntsc>
              </rate>
              <media>
                <audio>
                  <channelcount>1</channelcount>
                  <samplecharacteristics>
                    <samplerate>44100</samplerate>
                    <samplesize>16</samplesize>
                  </samplecharacteristics>
                </audio>
              </media>
            </file>
            <sourcetrack>
              <mediatype>audio</mediatype>
              <trackindex>1</trackindex>
            </sourcetrack>
          </clipitem>
          <clipitem id="clipitem-20">
            <name>OrionEp7-020-NA.mp3</name>
            <enabled>TRUE</enabled>
            <duration>264</duration>
            <rate>
              <timebase>30</timebase>
              <ntsc>TRUE</ntsc>
            </rate>
            <start>5238</start>
            <end>5502</end>
            <in>0</in>
            <out>264</out>
            <file id="file-21">
              <name>OrionEp7-020-NA.mp3</name>
              <pathurl>file:///Users/hiroshikodera/repos/_active/tools/davinciauto/projects/OrionEp7/%E3%82%B5%E3%82%A6%E3%83%B3%E3%83%89%E9%A1%9E/Narration/OrionEp7-020-NA.mp3</pathurl>
              <rate>
                <timebase>44100</timebase>
                <ntsc>FALSE</ntsc>
              </rate>
              <media>
                <audio>
                  <channelcount>1</channelcount>
                  <samplecharacteristics>
                    <samplerate>44100</samplerate>
                    <samplesize>16</samplesize>
                  </samplecharacteristics>
                </audio>
              </media>
            </file>
            <sourcetrack>
              <mediatype>audio</mediatype>
              <trackindex>1</trackindex>
            </sourcetrack>
          </clipitem>
          <clipitem id="clipitem-21">
            <name>OrionEp7-021-NA.mp3</name>
            <enabled>TRUE</enabled>
            <duration>323</duration>
            <rate>
              <timebase>30</timebase>
              <ntsc>TRUE</ntsc>
            </rate>
            <start>5519</start>
            <end>5842</end>
            <in>0</in>
            <out>323</out>
            <file id="file-22">
              <name>OrionEp7-021-NA.mp3</name>
              <pathurl>file:///Users/hiroshikodera/repos/_active/tools/davinciauto/projects/OrionEp7/%E3%82%B5%E3%82%A6%E3%83%B3%E3%83%89%E9%A1%9E/Narration/OrionEp7-021-NA.mp3</pathurl>
              <rate>
                <timebase>44100</timebase>
                <ntsc>FALSE</ntsc>
              </rate>
              <media>
                <audio>
                  <channelcount>1</channelcount>
                  <samplecharacteristics>
                    <samplerate>44100</samplerate>
                    <samplesize>16</samplesize>
                  </samplecharacteristics>
                </audio>
              </media>
            </file>
            <sourcetrack>
              <mediatype>audio</mediatype>
              <trackindex>1</trackindex>
            </sourcetrack>
          </clipitem>
          <clipitem id="clipitem-22">
            <name>OrionEp7-022-NA.mp3</name>
            <enabled>TRUE</enabled>
            <duration>428</duration>
            <rate>
              <timebase>30</timebase>
              <ntsc>TRUE</ntsc>
            </rate>
            <start>5858</start>
            <end>6286</end>
            <in>0</in>
            <out>428</out>
            <file id="file-23">
              <name>OrionEp7-022-NA.mp3</name>
              <pathurl>file:///Users/hiroshikodera/repos/_active/tools/davinciauto/projects/OrionEp7/%E3%82%B5%E3%82%A6%E3%83%B3%E3%83%89%E9%A1%9E/Narration/OrionEp7-022-NA.mp3</pathurl>
              <rate>
                <timebase>44100</timebase>
                <ntsc>FALSE</ntsc>
              </rate>
              <media>
                <audio>
                  <channelcount>1</channelcount>
                  <samplecharacteristics>
                    <samplerate>44100</samplerate>
                    <samplesize>16</samplesize>
                  </samplecharacteristics>
                </audio>
              </media>
            </file>
            <sourcetrack>
              <mediatype>audio</mediatype>
              <trackindex>1</trackindex>
            </sourcetrack>
          </clipitem>
          <clipitem id="clipitem-23">
            <name>OrionEp7-023-NA.mp3</name>
            <enabled>TRUE</enabled>
            <duration>446</duration>
            <rate>
              <timebase>30</timebase>
              <ntsc>TRUE</ntsc>
            </rate>
            <start>6304</start>
            <end>6750</end>
            <in>0</in>
            <out>446</out>
            <file id="file-24">
              <name>OrionEp7-023-NA.mp3</name>
              <pathurl>file:///Users/hiroshikodera/repos/_active/tools/davinciauto/projects/OrionEp7/%E3%82%B5%E3%82%A6%E3%83%B3%E3%83%89%E9%A1%9E/Narration/OrionEp7-023-NA.mp3</pathurl>
              <rate>
                <timebase>44100</timebase>
                <ntsc>FALSE</ntsc>
              </rate>
              <media>
                <audio>
                  <channelcount>1</channelcount>
                  <samplecharacteristics>
                    <samplerate>44100</samplerate>
                    <samplesize>16</samplesize>
                  </samplecharacteristics>
                </audio>
              </media>
            </file>
            <sourcetrack>
              <mediatype>audio</mediatype>
              <trackindex>1</trackindex>
            </sourcetrack>
          </clipitem>
          <clipitem id="clipitem-24">
            <name>OrionEp7-024-NA.mp3</name>
            <enabled>TRUE</enabled>
            <duration>237</duration>
            <rate>
              <timebase>30</timebase>
              <ntsc>TRUE</ntsc>
            </rate>
            <start>6769</start>
            <end>7006</end>
            <in>0</in>
            <out>237</out>
            <file id="file-25">
              <name>OrionEp7-024-NA.mp3</name>
              <pathurl>file:///Users/hiroshikodera/repos/_active/tools/davinciauto/projects/OrionEp7/%E3%82%B5%E3%82%A6%E3%83%B3%E3%83%89%E9%A1%9E/Narration/OrionEp7-024-NA.mp3</pathurl>
              <rate>
                <timebase>44100</timebase>
                <ntsc>FALSE</ntsc>
              </rate>
              <media>
                <audio>
                  <channelcount>1</channelcount>
                  <samplecharacteristics>
                    <samplerate>44100</samplerate>
                    <samplesize>16</samplesize>
                  </samplecharacteristics>
                </audio>
              </media>
            </file>
            <sourcetrack>
              <mediatype>audio</mediatype>
              <trackindex>1</trackindex>
            </sourcetrack>
          </clipitem>
          <clipitem id="clipitem-25">
            <name>OrionEp7-025-DL.mp3</name>
            <enabled>TRUE</enabled>
            <duration>127</duration>
            <rate>
              <timebase>30</timebase>
              <ntsc>TRUE</ntsc>
            </rate>
            <start>7021</start>
            <end>7148</end>
            <in>0</in>
            <out>127</out>
            <file id="file-26">
              <name>OrionEp7-025-DL.mp3</name>
              <pathurl>file:///Users/hiroshikodera/repos/_active/tools/davinciauto/projects/OrionEp7/%E3%82%B5%E3%82%A6%E3%83%B3%E3%83%89%E9%A1%9E/Narration/OrionEp7-025-DL.mp3</pathurl>
              <rate>
                <timebase>44100</timebase>
                <ntsc>FALSE</ntsc>
              </rate>
              <media>
                <audio>
                  <channelcount>1</channelcount>
                  <samplecharacteristics>
                    <samplerate>44100</samplerate>
                    <samplesize>16</samplesize>
                  </samplecharacteristics>
                </audio>
              </media>
            </file>
            <sourcetrack>
              <mediatype>audio</mediatype>
              <trackindex>1</trackindex>
            </sourcetrack>
          </clipitem>
          <clipitem id="clipitem-26">
            <name>OrionEp7-026-NA.mp3</name>
            <enabled>TRUE</enabled>
            <duration>433</duration>
            <rate>
              <timebase>30</timebase>
              <ntsc>TRUE</ntsc>
            </rate>
            <start>7169</start>
            <end>7602</end>
            <in>0</in>
            <out>433</out>
            <file id="file-27">
              <name>OrionEp7-026-NA.mp3</name>
              <pathurl>file:///Users/hiroshikodera/repos/_active/tools/davinciauto/projects/OrionEp7/%E3%82%B5%E3%82%A6%E3%83%B3%E3%83%89%E9%A1%9E/Narration/OrionEp7-026-NA.mp3</pathurl>
              <rate>
                <timebase>44100</timebase>
                <ntsc>FALSE</ntsc>
              </rate>
              <media>
                <audio>
                  <channelcount>1</channelcount>
                  <samplecharacteristics>
                    <samplerate>44100</samplerate>
                    <samplesize>16</samplesize>
                  </samplecharacteristics>
                </audio>
              </media>
            </file>
            <sourcetrack>
              <mediatype>audio</mediatype>
              <trackindex>1</trackindex>
            </sourcetrack>
          </clipitem>
          <clipitem id="clipitem-27">
            <name>OrionEp7-027-NA.mp3</name>
            <enabled>TRUE</enabled>
            <duration>449</duration>
            <rate>
              <timebase>30</timebase>
              <ntsc>TRUE</ntsc>
            </rate>
            <start>7622</start>
            <end>8071</end>
            <in>0</in>
            <out>449</out>
            <file id="file-28">
              <name>OrionEp7-027-NA.mp3</name>
              <pathurl>file:///Users/hiroshikodera/repos/_active/tools/davinciauto/projects/OrionEp7/%E3%82%B5%E3%82%A6%E3%83%B3%E3%83%89%E9%A1%9E/Narration/OrionEp7-027-NA.mp3</pathurl>
              <rate>
                <timebase>44100</timebase>
                <ntsc>FALSE</ntsc>
              </rate>
              <media>
                <audio>
                  <channelcount>1</channelcount>
                  <samplecharacteristics>
                    <samplerate>44100</samplerate>
                    <samplesize>16</samplesize>
                  </samplecharacteristics>
                </audio>
              </media>
            </file>
            <sourcetrack>
              <mediatype>audio</mediatype>
              <trackindex>1</trackindex>
            </sourcetrack>
          </clipitem>
          <clipitem id="clipitem-28">
            <name>OrionEp7-028-NA.mp3</name>
            <enabled>TRUE</enabled>
            <duration>231</duration>
            <rate>
              <timebase>30</timebase>
              <ntsc>TRUE</ntsc>
            </rate>
            <start>8090</start>
            <end>8321</end>
            <in>0</in>
            <out>231</out>
            <file id="file-29">
              <name>OrionEp7-028-NA.mp3</name>
              <pathurl>file:///Users/hiroshikodera/repos/_active/tools/davinciauto/projects/OrionEp7/%E3%82%B5%E3%82%A6%E3%83%B3%E3%83%89%E9%A1%9E/Narration/OrionEp7-028-NA.mp3</pathurl>
              <rate>
                <timebase>44100</timebase>
                <ntsc>FALSE</ntsc>
              </rate>
              <media>
                <audio>
                  <channelcount>1</channelcount>
                  <samplecharacteristics>
                    <samplerate>44100</samplerate>
                    <samplesize>16</samplesize>
                  </samplecharacteristics>
                </audio>
              </media>
            </file>
            <sourcetrack>
              <mediatype>audio</mediatype>
              <trackindex>1</trackindex>
            </sourcetrack>
          </clipitem>
          <clipitem id="clipitem-29">
            <name>OrionEp7-029-DL.mp3</name>
            <enabled>TRUE</enabled>
            <duration>222</duration>
            <rate>
              <timebase>30</timebase>
              <ntsc>TRUE</ntsc>
            </rate>
            <start>8336</start>
            <end>8558</end>
            <in>0</in>
            <out>222</out>
            <file id="file-30">
              <name>OrionEp7-029-DL.mp3</name>
              <pathurl>file:///Users/hiroshikodera/repos/_active/tools/davinciauto/projects/OrionEp7/%E3%82%B5%E3%82%A6%E3%83%B3%E3%83%89%E9%A1%9E/Narration/OrionEp7-029-DL.mp3</pathurl>
              <rate>
                <timebase>44100</timebase>
                <ntsc>FALSE</ntsc>
              </rate>
              <media>
                <audio>
                  <channelcount>1</channelcount>
                  <samplecharacteristics>
                    <samplerate>44100</samplerate>
                    <samplesize>16</samplesize>
                  </samplecharacteristics>
                </audio>
              </media>
            </file>
            <sourcetrack>
              <mediatype>audio</mediatype>
              <trackindex>1</trackindex>
            </sourcetrack>
          </clipitem>
          <clipitem id="clipitem-30">
            <name>OrionEp7-030-NA.mp3</name>
            <enabled>TRUE</enabled>
            <duration>297</duration>
            <rate>
              <timebase>30</timebase>
              <ntsc>TRUE</ntsc>
            </rate>
            <start>8582</start>
            <end>8879</end>
            <in>0</in>
            <out>297</out>
            <file id="file-31">
              <name>OrionEp7-030-NA.mp3</name>
              <pathurl>file:///Users/hiroshikodera/repos/_active/tools/davinciauto/projects/OrionEp7/%E3%82%B5%E3%82%A6%E3%83%B3%E3%83%89%E9%A1%9E/Narration/OrionEp7-030-NA.mp3</pathurl>
              <rate>
                <timebase>44100</timebase>
                <ntsc>FALSE</ntsc>
              </rate>
              <media>
                <audio>
                  <channelcount>1</channelcount>
                  <samplecharacteristics>
                    <samplerate>44100</samplerate>
                    <samplesize>16</samplesize>
                  </samplecharacteristics>
                </audio>
              </media>
            </file>
            <sourcetrack>
              <mediatype>audio</mediatype>
              <trackindex>1</trackindex>
            </sourcetrack>
          </clipitem>
          <clipitem id="clipitem-31">
            <name>OrionEp7-031-NA.mp3</name>
            <enabled>TRUE</enabled>
            <duration>94</duration>
            <rate>
              <timebase>30</timebase>
              <ntsc>TRUE</ntsc>
            </rate>
            <start>8894</start>
            <end>8988</end>
            <in>0</in>
            <out>94</out>
            <file id="file-32">
              <name>OrionEp7-031-NA.mp3</name>
              <pathurl>file:///Users/hiroshikodera/repos/_active/tools/davinciauto/projects/OrionEp7/%E3%82%B5%E3%82%A6%E3%83%B3%E3%83%89%E9%A1%9E/Narration/OrionEp7-031-NA.mp3</pathurl>
              <rate>
                <timebase>44100</timebase>
                <ntsc>FALSE</ntsc>
              </rate>
              <media>
                <audio>
                  <channelcount>1</channelcount>
                  <samplecharacteristics>
                    <samplerate>44100</samplerate>
                    <samplesize>16</samplesize>
                  </samplecharacteristics>
                </audio>
              </media>
            </file>
            <sourcetrack>
              <mediatype>audio</mediatype>
              <trackindex>1</trackindex>
            </sourcetrack>
          </clipitem>
          <clipitem id="clipitem-32">
            <name>OrionEp7-032-NA.mp3</name>
            <enabled>TRUE</enabled>
            <duration>174</duration>
            <rate>
              <timebase>30</timebase>
              <ntsc>TRUE</ntsc>
            </rate>
            <start>9010</start>
            <end>9184</end>
            <in>0</in>
            <out>174</out>
            <file id="file-33">
              <name>OrionEp7-032-NA.mp3</name>
              <pathurl>file:///Users/hiroshikodera/repos/_active/tools/davinciauto/projects/OrionEp7/%E3%82%B5%E3%82%A6%E3%83%B3%E3%83%89%E9%A1%9E/Narration/OrionEp7-032-NA.mp3</pathurl>
              <rate>
                <timebase>44100</timebase>
                <ntsc>FALSE</ntsc>
              </rate>
              <media>
                <audio>
                  <channelcount>1</channelcount>
                  <samplecharacteristics>
                    <samplerate>44100</samplerate>
                    <samplesize>16</samplesize>
                  </samplecharacteristics>
                </audio>
              </media>
            </file>
            <sourcetrack>
              <mediatype>audio</mediatype>
              <trackindex>1</trackindex>
            </sourcetrack>
          </clipitem>
          <clipitem id="clipitem-33">
            <name>OrionEp7-033-NA.mp3</name>
            <enabled>TRUE</enabled>
            <duration>279</duration>
            <rate>
              <timebase>30</timebase>
              <ntsc>TRUE</ntsc>
            </rate>
            <start>9198</start>
            <end>9477</end>
            <in>0</in>
            <out>279</out>
            <file id="file-34">
              <name>OrionEp7-033-NA.mp3</name>
              <pathurl>file:///Users/hiroshikodera/repos/_active/tools/davinciauto/projects/OrionEp7/%E3%82%B5%E3%82%A6%E3%83%B3%E3%83%89%E9%A1%9E/Narration/OrionEp7-033-NA.mp3</pathurl>
              <rate>
                <timebase>44100</timebase>
                <ntsc>FALSE</ntsc>
              </rate>
              <media>
                <audio>
                  <channelcount>1</channelcount>
                  <samplecharacteristics>
                    <samplerate>44100</samplerate>
                    <samplesize>16</samplesize>
                  </samplecharacteristics>
                </audio>
              </media>
            </file>
            <sourcetrack>
              <mediatype>audio</mediatype>
              <trackindex>1</trackindex>
            </sourcetrack>
          </clipitem>
          <clipitem id="clipitem-34">
            <name>OrionEp7-034-NA.mp3</name>
            <enabled>TRUE</enabled>
            <duration>432</duration>
            <rate>
              <timebase>30</timebase>
              <ntsc>TRUE</ntsc>
            </rate>
            <start>9494</start>
            <end>9926</end>
            <in>0</in>
            <out>432</out>
            <file id="file-35">
              <name>OrionEp7-034-NA.mp3</name>
              <pathurl>file:///Users/hiroshikodera/repos/_active/tools/davinciauto/projects/OrionEp7/%E3%82%B5%E3%82%A6%E3%83%B3%E3%83%89%E9%A1%9E/Narration/OrionEp7-034-NA.mp3</pathurl>
              <rate>
                <timebase>44100</timebase>
                <ntsc>FALSE</ntsc>
              </rate>
              <media>
                <audio>
                  <channelcount>1</channelcount>
                  <samplecharacteristics>
                    <samplerate>44100</samplerate>
                    <samplesize>16</samplesize>
                  </samplecharacteristics>
                </audio>
              </media>
            </file>
            <sourcetrack>
              <mediatype>audio</mediatype>
              <trackindex>1</trackindex>
            </sourcetrack>
          </clipitem>
          <clipitem id="clipitem-35">
            <name>OrionEp7-035-NA.mp3</name>
            <enabled>TRUE</enabled>
            <duration>378</duration>
            <rate>
              <timebase>30</timebase>
              <ntsc>TRUE</ntsc>
            </rate>
            <start>9953</start>
            <end>10331</end>
            <in>0</in>
            <out>378</out>
            <file id="file-36">
              <name>OrionEp7-035-NA.mp3</name>
              <pathurl>file:///Users/hiroshikodera/repos/_active/tools/davinciauto/projects/OrionEp7/%E3%82%B5%E3%82%A6%E3%83%B3%E3%83%89%E9%A1%9E/Narration/OrionEp7-035-NA.mp3</pathurl>
              <rate>
                <timebase>44100</timebase>
                <ntsc>FALSE</ntsc>
              </rate>
              <media>
                <audio>
                  <channelcount>1</channelcount>
                  <samplecharacteristics>
                    <samplerate>44100</samplerate>
                    <samplesize>16</samplesize>
                  </samplecharacteristics>
                </audio>
              </media>
            </file>
            <sourcetrack>
              <mediatype>audio</mediatype>
              <trackindex>1</trackindex>
            </sourcetrack>
          </clipitem>
          <clipitem id="clipitem-36">
            <name>OrionEp7-036-NA.mp3</name>
            <enabled>TRUE</enabled>
            <duration>580</duration>
            <rate>
              <timebase>30</timebase>
              <ntsc>TRUE</ntsc>
            </rate>
            <start>10349</start>
            <end>10929</end>
            <in>0</in>
            <out>580</out>
            <file id="file-37">
              <name>OrionEp7-036-NA.mp3</name>
              <pathurl>file:///Users/hiroshikodera/repos/_active/tools/davinciauto/projects/OrionEp7/%E3%82%B5%E3%82%A6%E3%83%B3%E3%83%89%E9%A1%9E/Narration/OrionEp7-036-NA.mp3</pathurl>
              <rate>
                <timebase>44100</timebase>
                <ntsc>FALSE</ntsc>
              </rate>
              <media>
                <audio>
                  <channelcount>1</channelcount>
                  <samplecharacteristics>
                    <samplerate>44100</samplerate>
                    <samplesize>16</samplesize>
                  </samplecharacteristics>
                </audio>
              </media>
            </file>
            <sourcetrack>
              <mediatype>audio</mediatype>
              <trackindex>1</trackindex>
            </sourcetrack>
          </clipitem>
          <clipitem id="clipitem-37">
            <name>OrionEp7-037-NA.mp3</name>
            <enabled>TRUE</enabled>
            <duration>289</duration>
            <rate>
              <timebase>30</timebase>
              <ntsc>TRUE</ntsc>
            </rate>
            <start>10951</start>
            <end>11240</end>
            <in>0</in>
            <out>289</out>
            <file id="file-38">
              <name>OrionEp7-037-NA.mp3</name>
              <pathurl>file:///Users/hiroshikodera/repos/_active/tools/davinciauto/projects/OrionEp7/%E3%82%B5%E3%82%A6%E3%83%B3%E3%83%89%E9%A1%9E/Narration/OrionEp7-037-NA.mp3</pathurl>
              <rate>
                <timebase>44100</timebase>
                <ntsc>FALSE</ntsc>
              </rate>
              <media>
                <audio>
                  <channelcount>1</channelcount>
                  <samplecharacteristics>
                    <samplerate>44100</samplerate>
                    <samplesize>16</samplesize>
                  </samplecharacteristics>
                </audio>
              </media>
            </file>
            <sourcetrack>
              <mediatype>audio</mediatype>
              <trackindex>1</trackindex>
            </sourcetrack>
          </clipitem>
          <clipitem id="clipitem-38">
            <name>OrionEp7-038-NA.mp3</name>
            <enabled>TRUE</enabled>
            <duration>166</duration>
            <rate>
              <timebase>30</timebase>
              <ntsc>TRUE</ntsc>
            </rate>
            <start>11257</start>
            <end>11423</end>
            <in>0</in>
            <out>166</out>
            <file id="file-39">
              <name>OrionEp7-038-NA.mp3</name>
              <pathurl>file:///Users/hiroshikodera/repos/_active/tools/davinciauto/projects/OrionEp7/%E3%82%B5%E3%82%A6%E3%83%B3%E3%83%89%E9%A1%9E/Narration/OrionEp7-038-NA.mp3</pathurl>
              <rate>
                <timebase>44100</timebase>
                <ntsc>FALSE</ntsc>
              </rate>
              <media>
                <audio>
                  <channelcount>1</channelcount>
                  <samplecharacteristics>
                    <samplerate>44100</samplerate>
                    <samplesize>16</samplesize>
                  </samplecharacteristics>
                </audio>
              </media>
            </file>
            <sourcetrack>
              <mediatype>audio</mediatype>
              <trackindex>1</trackindex>
            </sourcetrack>
          </clipitem>
          <clipitem id="clipitem-39">
            <name>OrionEp7-039-NA.mp3</name>
            <enabled>TRUE</enabled>
            <duration>415</duration>
            <rate>
              <timebase>30</timebase>
              <ntsc>TRUE</ntsc>
            </rate>
            <start>11437</start>
            <end>11852</end>
            <in>0</in>
            <out>415</out>
            <file id="file-40">
              <name>OrionEp7-039-NA.mp3</name>
              <pathurl>file:///Users/hiroshikodera/repos/_active/tools/davinciauto/projects/OrionEp7/%E3%82%B5%E3%82%A6%E3%83%B3%E3%83%89%E9%A1%9E/Narration/OrionEp7-039-NA.mp3</pathurl>
              <rate>
                <timebase>44100</timebase>
                <ntsc>FALSE</ntsc>
              </rate>
              <media>
                <audio>
                  <channelcount>1</channelcount>
                  <samplecharacteristics>
                    <samplerate>44100</samplerate>
                    <samplesize>16</samplesize>
                  </samplecharacteristics>
                </audio>
              </media>
            </file>
            <sourcetrack>
              <mediatype>audio</mediatype>
              <trackindex>1</trackindex>
            </sourcetrack>
          </clipitem>
          <clipitem id="clipitem-40">
            <name>OrionEp7-040-NA.mp3</name>
            <enabled>TRUE</enabled>
            <duration>316</duration>
            <rate>
              <timebase>30</timebase>
              <ntsc>TRUE</ntsc>
            </rate>
            <start>11873</start>
            <end>12189</end>
            <in>0</in>
            <out>316</out>
            <file id="file-41">
              <name>OrionEp7-040-NA.mp3</name>
              <pathurl>file:///Users/hiroshikodera/repos/_active/tools/davinciauto/projects/OrionEp7/%E3%82%B5%E3%82%A6%E3%83%B3%E3%83%89%E9%A1%9E/Narration/OrionEp7-040-NA.mp3</pathurl>
              <rate>
                <timebase>44100</timebase>
                <ntsc>FALSE</ntsc>
              </rate>
              <media>
                <audio>
                  <channelcount>1</channelcount>
                  <samplecharacteristics>
                    <samplerate>44100</samplerate>
                    <samplesize>16</samplesize>
                  </samplecharacteristics>
                </audio>
              </media>
            </file>
            <sourcetrack>
              <mediatype>audio</mediatype>
              <trackindex>1</trackindex>
            </sourcetrack>
          </clipitem>
          <clipitem id="clipitem-41">
            <name>OrionEp7-041-NA.mp3</name>
            <enabled>TRUE</enabled>
            <duration>358</duration>
            <rate>
              <timebase>30</timebase>
              <ntsc>TRUE</ntsc>
            </rate>
            <start>12206</start>
            <end>12564</end>
            <in>0</in>
            <out>358</out>
            <file id="file-42">
              <name>OrionEp7-041-NA.mp3</name>
              <pathurl>file:///Users/hiroshikodera/repos/_active/tools/davinciauto/projects/OrionEp7/%E3%82%B5%E3%82%A6%E3%83%B3%E3%83%89%E9%A1%9E/Narration/OrionEp7-041-NA.mp3</pathurl>
              <rate>
                <timebase>44100</timebase>
                <ntsc>FALSE</ntsc>
              </rate>
              <media>
                <audio>
                  <channelcount>1</channelcount>
                  <samplecharacteristics>
                    <samplerate>44100</samplerate>
                    <samplesize>16</samplesize>
                  </samplecharacteristics>
                </audio>
              </media>
            </file>
            <sourcetrack>
              <mediatype>audio</mediatype>
              <trackindex>1</trackindex>
            </sourcetrack>
          </clipitem>
          <clipitem id="clipitem-42">
            <name>OrionEp7-042-NA.mp3</name>
            <enabled>TRUE</enabled>
            <duration>274</duration>
            <rate>
              <timebase>30</timebase>
              <ntsc>TRUE</ntsc>
            </rate>
            <start>12582</start>
            <end>12856</end>
            <in>0</in>
            <out>274</out>
            <file id="file-43">
              <name>OrionEp7-042-NA.mp3</name>
              <pathurl>file:///Users/hiroshikodera/repos/_active/tools/davinciauto/projects/OrionEp7/%E3%82%B5%E3%82%A6%E3%83%B3%E3%83%89%E9%A1%9E/Narration/OrionEp7-042-NA.mp3</pathurl>
              <rate>
                <timebase>44100</timebase>
                <ntsc>FALSE</ntsc>
              </rate>
              <media>
                <audio>
                  <channelcount>1</channelcount>
                  <samplecharacteristics>
                    <samplerate>44100</samplerate>
                    <samplesize>16</samplesize>
                  </samplecharacteristics>
                </audio>
              </media>
            </file>
            <sourcetrack>
              <mediatype>audio</mediatype>
              <trackindex>1</trackindex>
            </sourcetrack>
          </clipitem>
          <clipitem id="clipitem-43">
            <name>OrionEp7-043-NA.mp3</name>
            <enabled>TRUE</enabled>
            <duration>207</duration>
            <rate>
              <timebase>30</timebase>
              <ntsc>TRUE</ntsc>
            </rate>
            <start>12872</start>
            <end>13079</end>
            <in>0</in>
            <out>207</out>
            <file id="file-44">
              <name>OrionEp7-043-NA.mp3</name>
              <pathurl>file:///Users/hiroshikodera/repos/_active/tools/davinciauto/projects/OrionEp7/%E3%82%B5%E3%82%A6%E3%83%B3%E3%83%89%E9%A1%9E/Narration/OrionEp7-043-NA.mp3</pathurl>
              <rate>
                <timebase>44100</timebase>
                <ntsc>FALSE</ntsc>
              </rate>
              <media>
                <audio>
                  <channelcount>1</channelcount>
                  <samplecharacteristics>
                    <samplerate>44100</samplerate>
                    <samplesize>16</samplesize>
                  </samplecharacteristics>
                </audio>
              </media>
            </file>
            <sourcetrack>
              <mediatype>audio</mediatype>
              <trackindex>1</trackindex>
            </sourcetrack>
          </clipitem>
          <clipitem id="clipitem-44">
            <name>OrionEp7-044-NA.mp3</name>
            <enabled>TRUE</enabled>
            <duration>127</duration>
            <rate>
              <timebase>30</timebase>
              <ntsc>TRUE</ntsc>
            </rate>
            <start>13094</start>
            <end>13221</end>
            <in>0</in>
            <out>127</out>
            <file id="file-45">
              <name>OrionEp7-044-NA.mp3</name>
              <pathurl>file:///Users/hiroshikodera/repos/_active/tools/davinciauto/projects/OrionEp7/%E3%82%B5%E3%82%A6%E3%83%B3%E3%83%89%E9%A1%9E/Narration/OrionEp7-044-NA.mp3</pathurl>
              <rate>
                <timebase>44100</timebase>
                <ntsc>FALSE</ntsc>
              </rate>
              <media>
                <audio>
                  <channelcount>1</channelcount>
                  <samplecharacteristics>
                    <samplerate>44100</samplerate>
                    <samplesize>16</samplesize>
                  </samplecharacteristics>
                </audio>
              </media>
            </file>
            <sourcetrack>
              <mediatype>audio</mediatype>
              <trackindex>1</trackindex>
            </sourcetrack>
          </clipitem>
          <clipitem id="clipitem-45">
            <name>OrionEp7-045-NA.mp3</name>
            <enabled>TRUE</enabled>
            <duration>305</duration>
            <rate>
              <timebase>30</timebase>
              <ntsc>TRUE</ntsc>
            </rate>
            <start>13235</start>
            <end>13540</end>
            <in>0</in>
            <out>305</out>
            <file id="file-46">
              <name>OrionEp7-045-NA.mp3</name>
              <pathurl>file:///Users/hiroshikodera/repos/_active/tools/davinciauto/projects/OrionEp7/%E3%82%B5%E3%82%A6%E3%83%B3%E3%83%89%E9%A1%9E/Narration/OrionEp7-045-NA.mp3</pathurl>
              <rate>
                <timebase>44100</timebase>
                <ntsc>FALSE</ntsc>
              </rate>
              <media>
                <audio>
                  <channelcount>1</channelcount>
                  <samplecharacteristics>
                    <samplerate>44100</samplerate>
                    <samplesize>16</samplesize>
                  </samplecharacteristics>
                </audio>
              </media>
            </file>
            <sourcetrack>
              <mediatype>audio</mediatype>
              <trackindex>1</trackindex>
            </sourcetrack>
          </clipitem>
          <clipitem id="clipitem-46">
            <name>OrionEp7-046-NA.mp3</name>
            <enabled>TRUE</enabled>
            <duration>173</duration>
            <rate>
              <timebase>30</timebase>
              <ntsc>TRUE</ntsc>
            </rate>
            <start>13557</start>
            <end>13730</end>
            <in>0</in>
            <out>173</out>
            <file id="file-47">
              <name>OrionEp7-046-NA.mp3</name>
              <pathurl>file:///Users/hiroshikodera/repos/_active/tools/davinciauto/projects/OrionEp7/%E3%82%B5%E3%82%A6%E3%83%B3%E3%83%89%E9%A1%9E/Narration/OrionEp7-046-NA.mp3</pathurl>
              <rate>
                <timebase>44100</timebase>
                <ntsc>FALSE</ntsc>
              </rate>
              <media>
                <audio>
                  <channelcount>1</channelcount>
                  <samplecharacteristics>
                    <samplerate>44100</samplerate>
                    <samplesize>16</samplesize>
                  </samplecharacteristics>
                </audio>
              </media>
            </file>
            <sourcetrack>
              <mediatype>audio</mediatype>
              <trackindex>1</trackindex>
            </sourcetrack>
          </clipitem>
          <clipitem id="clipitem-47">
            <name>OrionEp7-047-NA.mp3</name>
            <enabled>TRUE</enabled>
            <duration>415</duration>
            <rate>
              <timebase>30</timebase>
              <ntsc>TRUE</ntsc>
            </rate>
            <start>13744</start>
            <end>14159</end>
            <in>0</in>
            <out>415</out>
            <file id="file-48">
              <name>OrionEp7-047-NA.mp3</name>
              <pathurl>file:///Users/hiroshikodera/repos/_active/tools/davinciauto/projects/OrionEp7/%E3%82%B5%E3%82%A6%E3%83%B3%E3%83%89%E9%A1%9E/Narration/OrionEp7-047-NA.mp3</pathurl>
              <rate>
                <timebase>44100</timebase>
                <ntsc>FALSE</ntsc>
              </rate>
              <media>
                <audio>
                  <channelcount>1</channelcount>
                  <samplecharacteristics>
                    <samplerate>44100</samplerate>
                    <samplesize>16</samplesize>
                  </samplecharacteristics>
                </audio>
              </media>
            </file>
            <sourcetrack>
              <mediatype>audio</mediatype>
              <trackindex>1</trackindex>
            </sourcetrack>
          </clipitem>
          <clipitem id="clipitem-48">
            <name>OrionEp7-048-NA.mp3</name>
            <enabled>TRUE</enabled>
            <duration>120</duration>
            <rate>
              <timebase>30</timebase>
              <ntsc>TRUE</ntsc>
            </rate>
            <start>14178</start>
            <end>14298</end>
            <in>0</in>
            <out>120</out>
            <file id="file-49">
              <name>OrionEp7-048-NA.mp3</name>
              <pathurl>file:///Users/hiroshikodera/repos/_active/tools/davinciauto/projects/OrionEp7/%E3%82%B5%E3%82%A6%E3%83%B3%E3%83%89%E9%A1%9E/Narration/OrionEp7-048-NA.mp3</pathurl>
              <rate>
                <timebase>44100</timebase>
                <ntsc>FALSE</ntsc>
              </rate>
              <media>
                <audio>
                  <channelcount>1</channelcount>
                  <samplecharacteristics>
                    <samplerate>44100</samplerate>
                    <samplesize>16</samplesize>
                  </samplecharacteristics>
                </audio>
              </media>
            </file>
            <sourcetrack>
              <mediatype>audio</mediatype>
              <trackindex>1</trackindex>
            </sourcetrack>
          </clipitem>
          <clipitem id="clipitem-49">
            <name>OrionEp7-049-NA.mp3</name>
            <enabled>TRUE</enabled>
            <duration>364</duration>
            <rate>
              <timebase>30</timebase>
              <ntsc>TRUE</ntsc>
            </rate>
            <start>14310</start>
            <end>14674</end>
            <in>0</in>
            <out>364</out>
            <file id="file-50">
              <name>OrionEp7-049-NA.mp3</name>
              <pathurl>file:///Users/hiroshikodera/repos/_active/tools/davinciauto/projects/OrionEp7/%E3%82%B5%E3%82%A6%E3%83%B3%E3%83%89%E9%A1%9E/Narration/OrionEp7-049-NA.mp3</pathurl>
              <rate>
                <timebase>44100</timebase>
                <ntsc>FALSE</ntsc>
              </rate>
              <media>
                <audio>
                  <channelcount>1</channelcount>
                  <samplecharacteristics>
                    <samplerate>44100</samplerate>
                    <samplesize>16</samplesize>
                  </samplecharacteristics>
                </audio>
              </media>
            </file>
            <sourcetrack>
              <mediatype>audio</mediatype>
              <trackindex>1</trackindex>
            </sourcetrack>
          </clipitem>
          <clipitem id="clipitem-50">
            <name>OrionEp7-050-NA.mp3</name>
            <enabled>TRUE</enabled>
            <duration>142</duration>
            <rate>
              <timebase>30</timebase>
              <ntsc>TRUE</ntsc>
            </rate>
            <start>14693</start>
            <end>14835</end>
            <in>0</in>
            <out>142</out>
            <file id="file-51">
              <name>OrionEp7-050-NA.mp3</name>
              <pathurl>file:///Users/hiroshikodera/repos/_active/tools/davinciauto/projects/OrionEp7/%E3%82%B5%E3%82%A6%E3%83%B3%E3%83%89%E9%A1%9E/Narration/OrionEp7-050-NA.mp3</pathurl>
              <rate>
                <timebase>44100</timebase>
                <ntsc>FALSE</ntsc>
              </rate>
              <media>
                <audio>
                  <channelcount>1</channelcount>
                  <samplecharacteristics>
                    <samplerate>44100</samplerate>
                    <samplesize>16</samplesize>
                  </samplecharacteristics>
                </audio>
              </media>
            </file>
            <sourcetrack>
              <mediatype>audio</mediatype>
              <trackindex>1</trackindex>
            </sourcetrack>
          </clipitem>
          <clipitem id="clipitem-51">
            <name>OrionEp7-051-NA.mp3</name>
            <enabled>TRUE</enabled>
            <duration>382</duration>
            <rate>
              <timebase>30</timebase>
              <ntsc>TRUE</ntsc>
            </rate>
            <start>14848</start>
            <end>15230</end>
            <in>0</in>
            <out>382</out>
            <file id="file-52">
              <name>OrionEp7-051-NA.mp3</name>
              <pathurl>file:///Users/hiroshikodera/repos/_active/tools/davinciauto/projects/OrionEp7/%E3%82%B5%E3%82%A6%E3%83%B3%E3%83%89%E9%A1%9E/Narration/OrionEp7-051-NA.mp3</pathurl>
              <rate>
                <timebase>44100</timebase>
                <ntsc>FALSE</ntsc>
              </rate>
              <media>
                <audio>
                  <channelcount>1</channelcount>
                  <samplecharacteristics>
                    <samplerate>44100</samplerate>
                    <samplesize>16</samplesize>
                  </samplecharacteristics>
                </audio>
              </media>
            </file>
            <sourcetrack>
              <mediatype>audio</mediatype>
              <trackindex>1</trackindex>
            </sourcetrack>
          </clipitem>
          <clipitem id="clipitem-52">
            <name>OrionEp7-052-NA.mp3</name>
            <enabled>TRUE</enabled>
            <duration>158</duration>
            <rate>
              <timebase>30</timebase>
              <ntsc>TRUE</ntsc>
            </rate>
            <start>15248</start>
            <end>15406</end>
            <in>0</in>
            <out>158</out>
            <file id="file-53">
              <name>OrionEp7-052-NA.mp3</name>
              <pathurl>file:///Users/hiroshikodera/repos/_active/tools/davinciauto/projects/OrionEp7/%E3%82%B5%E3%82%A6%E3%83%B3%E3%83%89%E9%A1%9E/Narration/OrionEp7-052-NA.mp3</pathurl>
              <rate>
                <timebase>44100</timebase>
                <ntsc>FALSE</ntsc>
              </rate>
              <media>
                <audio>
                  <channelcount>1</channelcount>
                  <samplecharacteristics>
                    <samplerate>44100</samplerate>
                    <samplesize>16</samplesize>
                  </samplecharacteristics>
                </audio>
              </media>
            </file>
            <sourcetrack>
              <mediatype>audio</mediatype>
              <trackindex>1</trackindex>
            </sourcetrack>
          </clipitem>
          <clipitem id="clipitem-53">
            <name>OrionEp7-053-DL.mp3</name>
            <enabled>TRUE</enabled>
            <duration>295</duration>
            <rate>
              <timebase>30</timebase>
              <ntsc>TRUE</ntsc>
            </rate>
            <start>15419</start>
            <end>15714</end>
            <in>0</in>
            <out>295</out>
            <file id="file-54">
              <name>OrionEp7-053-DL.mp3</name>
              <pathurl>file:///Users/hiroshikodera/repos/_active/tools/davinciauto/projects/OrionEp7/%E3%82%B5%E3%82%A6%E3%83%B3%E3%83%89%E9%A1%9E/Narration/OrionEp7-053-DL.mp3</pathurl>
              <rate>
                <timebase>44100</timebase>
                <ntsc>FALSE</ntsc>
              </rate>
              <media>
                <audio>
                  <channelcount>1</channelcount>
                  <samplecharacteristics>
                    <samplerate>44100</samplerate>
                    <samplesize>16</samplesize>
                  </samplecharacteristics>
                </audio>
              </media>
            </file>
            <sourcetrack>
              <mediatype>audio</mediatype>
              <trackindex>1</trackindex>
            </sourcetrack>
          </clipitem>
          <clipitem id="clipitem-54">
            <name>OrionEp7-054-NA.mp3</name>
            <enabled>TRUE</enabled>
            <duration>194</duration>
            <rate>
              <timebase>30</timebase>
              <ntsc>TRUE</ntsc>
            </rate>
            <start>15738</start>
            <end>15932</end>
            <in>0</in>
            <out>194</out>
            <file id="file-55">
              <name>OrionEp7-054-NA.mp3</name>
              <pathurl>file:///Users/hiroshikodera/repos/_active/tools/davinciauto/projects/OrionEp7/%E3%82%B5%E3%82%A6%E3%83%B3%E3%83%89%E9%A1%9E/Narration/OrionEp7-054-NA.mp3</pathurl>
              <rate>
                <timebase>44100</timebase>
                <ntsc>FALSE</ntsc>
              </rate>
              <media>
                <audio>
                  <channelcount>1</channelcount>
                  <samplecharacteristics>
                    <samplerate>44100</samplerate>
                    <samplesize>16</samplesize>
                  </samplecharacteristics>
                </audio>
              </media>
            </file>
            <sourcetrack>
              <mediatype>audio</mediatype>
              <trackindex>1</trackindex>
            </sourcetrack>
          </clipitem>
          <clipitem id="clipitem-55">
            <name>OrionEp7-055-DL.mp3</name>
            <enabled>TRUE</enabled>
            <duration>143</duration>
            <rate>
              <timebase>30</timebase>
              <ntsc>TRUE</ntsc>
            </rate>
            <start>15945</start>
            <end>16088</end>
            <in>0</in>
            <out>143</out>
            <file id="file-56">
              <name>OrionEp7-055-DL.mp3</name>
              <pathurl>file:///Users/hiroshikodera/repos/_active/tools/davinciauto/projects/OrionEp7/%E3%82%B5%E3%82%A6%E3%83%B3%E3%83%89%E9%A1%9E/Narration/OrionEp7-055-DL.mp3</pathurl>
              <rate>
                <timebase>44100</timebase>
                <ntsc>FALSE</ntsc>
              </rate>
              <media>
                <audio>
                  <channelcount>1</channelcount>
                  <samplecharacteristics>
                    <samplerate>44100</samplerate>
                    <samplesize>16</samplesize>
                  </samplecharacteristics>
                </audio>
              </media>
            </file>
            <sourcetrack>
              <mediatype>audio</mediatype>
              <trackindex>1</trackindex>
            </sourcetrack>
          </clipitem>
          <clipitem id="clipitem-56">
            <name>OrionEp7-056-NA.mp3</name>
            <enabled>TRUE</enabled>
            <duration>364</duration>
            <rate>
              <timebase>30</timebase>
              <ntsc>TRUE</ntsc>
            </rate>
            <start>16109</start>
            <end>16473</end>
            <in>0</in>
            <out>364</out>
            <file id="file-57">
              <name>OrionEp7-056-NA.mp3</name>
              <pathurl>file:///Users/hiroshikodera/repos/_active/tools/davinciauto/projects/OrionEp7/%E3%82%B5%E3%82%A6%E3%83%B3%E3%83%89%E9%A1%9E/Narration/OrionEp7-056-NA.mp3</pathurl>
              <rate>
                <timebase>44100</timebase>
                <ntsc>FALSE</ntsc>
              </rate>
              <media>
                <audio>
                  <channelcount>1</channelcount>
                  <samplecharacteristics>
                    <samplerate>44100</samplerate>
                    <samplesize>16</samplesize>
                  </samplecharacteristics>
                </audio>
              </media>
            </file>
            <sourcetrack>
              <mediatype>audio</mediatype>
              <trackindex>1</trackindex>
            </sourcetrack>
          </clipitem>
          <clipitem id="clipitem-57">
            <name>OrionEp7-057-NA.mp3</name>
            <enabled>TRUE</enabled>
            <duration>124</duration>
            <rate>
              <timebase>30</timebase>
              <ntsc>TRUE</ntsc>
            </rate>
            <start>16490</start>
            <end>16614</end>
            <in>0</in>
            <out>124</out>
            <file id="file-58">
              <name>OrionEp7-057-NA.mp3</name>
              <pathurl>file:///Users/hiroshikodera/repos/_active/tools/davinciauto/projects/OrionEp7/%E3%82%B5%E3%82%A6%E3%83%B3%E3%83%89%E9%A1%9E/Narration/OrionEp7-057-NA.mp3</pathurl>
              <rate>
                <timebase>44100</timebase>
                <ntsc>FALSE</ntsc>
              </rate>
              <media>
                <audio>
                  <channelcount>1</channelcount>
                  <samplecharacteristics>
                    <samplerate>44100</samplerate>
                    <samplesize>16</samplesize>
                  </samplecharacteristics>
                </audio>
              </media>
            </file>
            <sourcetrack>
              <mediatype>audio</mediatype>
              <trackindex>1</trackindex>
            </sourcetrack>
          </clipitem>
          <clipitem id="clipitem-58">
            <name>OrionEp7-058-NA.mp3</name>
            <enabled>TRUE</enabled>
            <duration>413</duration>
            <rate>
              <timebase>30</timebase>
              <ntsc>TRUE</ntsc>
            </rate>
            <start>16627</start>
            <end>17040</end>
            <in>0</in>
            <out>413</out>
            <file id="file-59">
              <name>OrionEp7-058-NA.mp3</name>
              <pathurl>file:///Users/hiroshikodera/repos/_active/tools/davinciauto/projects/OrionEp7/%E3%82%B5%E3%82%A6%E3%83%B3%E3%83%89%E9%A1%9E/Narration/OrionEp7-058-NA.mp3</pathurl>
              <rate>
                <timebase>44100</timebase>
                <ntsc>FALSE</ntsc>
              </rate>
              <media>
                <audio>
                  <channelcount>1</channelcount>
                  <samplecharacteristics>
                    <samplerate>44100</samplerate>
                    <samplesize>16</samplesize>
                  </samplecharacteristics>
                </audio>
              </media>
            </file>
            <sourcetrack>
              <mediatype>audio</mediatype>
              <trackindex>1</trackindex>
            </sourcetrack>
          </clipitem>
          <clipitem id="clipitem-59">
            <name>OrionEp7-059-NA.mp3</name>
            <enabled>TRUE</enabled>
            <duration>377</duration>
            <rate>
              <timebase>30</timebase>
              <ntsc>TRUE</ntsc>
            </rate>
            <start>17058</start>
            <end>17435</end>
            <in>0</in>
            <out>377</out>
            <file id="file-60">
              <name>OrionEp7-059-NA.mp3</name>
              <pathurl>file:///Users/hiroshikodera/repos/_active/tools/davinciauto/projects/OrionEp7/%E3%82%B5%E3%82%A6%E3%83%B3%E3%83%89%E9%A1%9E/Narration/OrionEp7-059-NA.mp3</pathurl>
              <rate>
                <timebase>44100</timebase>
                <ntsc>FALSE</ntsc>
              </rate>
              <media>
                <audio>
                  <channelcount>1</channelcount>
                  <samplecharacteristics>
                    <samplerate>44100</samplerate>
                    <samplesize>16</samplesize>
                  </samplecharacteristics>
                </audio>
              </media>
            </file>
            <sourcetrack>
              <mediatype>audio</mediatype>
              <trackindex>1</trackindex>
            </sourcetrack>
          </clipitem>
          <clipitem id="clipitem-60">
            <name>OrionEp7-060-NA.mp3</name>
            <enabled>TRUE</enabled>
            <duration>449</duration>
            <rate>
              <timebase>30</timebase>
              <ntsc>TRUE</ntsc>
            </rate>
            <start>17453</start>
            <end>17902</end>
            <in>0</in>
            <out>449</out>
            <file id="file-61">
              <name>OrionEp7-060-NA.mp3</name>
              <pathurl>file:///Users/hiroshikodera/repos/_active/tools/davinciauto/projects/OrionEp7/%E3%82%B5%E3%82%A6%E3%83%B3%E3%83%89%E9%A1%9E/Narration/OrionEp7-060-NA.mp3</pathurl>
              <rate>
                <timebase>44100</timebase>
                <ntsc>FALSE</ntsc>
              </rate>
              <media>
                <audio>
                  <channelcount>1</channelcount>
                  <samplecharacteristics>
                    <samplerate>44100</samplerate>
                    <samplesize>16</samplesize>
                  </samplecharacteristics>
                </audio>
              </media>
            </file>
            <sourcetrack>
              <mediatype>audio</mediatype>
              <trackindex>1</trackindex>
            </sourcetrack>
          </clipitem>
          <clipitem id="clipitem-61">
            <name>OrionEp7-061-NA.mp3</name>
            <enabled>TRUE</enabled>
            <duration>163</duration>
            <rate>
              <timebase>30</timebase>
              <ntsc>TRUE</ntsc>
            </rate>
            <start>17922</start>
            <end>18085</end>
            <in>0</in>
            <out>163</out>
            <file id="file-62">
              <name>OrionEp7-061-NA.mp3</name>
              <pathurl>file:///Users/hiroshikodera/repos/_active/tools/davinciauto/projects/OrionEp7/%E3%82%B5%E3%82%A6%E3%83%B3%E3%83%89%E9%A1%9E/Narration/OrionEp7-061-NA.mp3</pathurl>
              <rate>
                <timebase>44100</timebase>
                <ntsc>FALSE</ntsc>
              </rate>
              <media>
                <audio>
                  <channelcount>1</channelcount>
                  <samplecharacteristics>
                    <samplerate>44100</samplerate>
                    <samplesize>16</samplesize>
                  </samplecharacteristics>
                </audio>
              </media>
            </file>
            <sourcetrack>
              <mediatype>audio</mediatype>
              <trackindex>1</trackindex>
            </sourcetrack>
          </clipitem>
          <clipitem id="clipitem-62">
            <name>OrionEp7-062-NA.mp3</name>
            <enabled>TRUE</enabled>
            <duration>122</duration>
            <rate>
              <timebase>30</timebase>
              <ntsc>TRUE</ntsc>
            </rate>
            <start>18098</start>
            <end>18220</end>
            <in>0</in>
            <out>122</out>
            <file id="file-63">
              <name>OrionEp7-062-NA.mp3</name>
              <pathurl>file:///Users/hiroshikodera/repos/_active/tools/davinciauto/projects/OrionEp7/%E3%82%B5%E3%82%A6%E3%83%B3%E3%83%89%E9%A1%9E/Narration/OrionEp7-062-NA.mp3</pathurl>
              <rate>
                <timebase>44100</timebase>
                <ntsc>FALSE</ntsc>
              </rate>
              <media>
                <audio>
                  <channelcount>1</channelcount>
                  <samplecharacteristics>
                    <samplerate>44100</samplerate>
                    <samplesize>16</samplesize>
                  </samplecharacteristics>
                </audio>
              </media>
            </file>
            <sourcetrack>
              <mediatype>audio</mediatype>
              <trackindex>1</trackindex>
            </sourcetrack>
          </clipitem>
          <clipitem id="clipitem-63">
            <name>OrionEp7-063-NA.mp3</name>
            <enabled>TRUE</enabled>
            <duration>464</duration>
            <rate>
              <timebase>30</timebase>
              <ntsc>TRUE</ntsc>
            </rate>
            <start>18242</start>
            <end>18706</end>
            <in>0</in>
            <out>464</out>
            <file id="file-64">
              <name>OrionEp7-063-NA.mp3</name>
              <pathurl>file:///Users/hiroshikodera/repos/_active/tools/davinciauto/projects/OrionEp7/%E3%82%B5%E3%82%A6%E3%83%B3%E3%83%89%E9%A1%9E/Narration/OrionEp7-063-NA.mp3</pathurl>
              <rate>
                <timebase>44100</timebase>
                <ntsc>FALSE</ntsc>
              </rate>
              <media>
                <audio>
                  <channelcount>1</channelcount>
                  <samplecharacteristics>
                    <samplerate>44100</samplerate>
                    <samplesize>16</samplesize>
                  </samplecharacteristics>
                </audio>
              </media>
            </file>
            <sourcetrack>
              <mediatype>audio</mediatype>
              <trackindex>1</trackindex>
            </sourcetrack>
          </clipitem>
        </track>
      </audio>
    </media>
  </sequence>
</xmeml>
