<?xml version="1.0" encoding="utf-8"?>
<xmeml version="4">
  <sequence>
    <uuid>OrionEp9_timeline</uuid>
    <duration>18833</duration>
    <name>OrionEp9_timeline</name>
    <rate>
      <timebase>30</timebase>
      <ntsc>TRUE</ntsc>
    </rate>
    <media>
      <video>
        <format/>
      </video>
      <audio>
        <track>
          <clipitem id="clipitem-1">
            <name>OrionEp9-001-NA.mp3</name>
            <enabled>TRUE</enabled>
            <duration>207</duration>
            <rate>
              <timebase>30</timebase>
              <ntsc>TRUE</ntsc>
            </rate>
            <start>15</start>
            <end>222</end>
            <in>0</in>
            <out>207</out>
            <file id="file-2">
              <name>OrionEp9-001-NA.mp3</name>
              <pathurl>file:///Users/hiroshikodera/repos/_active/tools/davinciauto/projects/OrionEp9/%E3%82%B5%E3%82%A6%E3%83%B3%E3%83%89%E9%A1%9E/Narration/OrionEp9-001-NA.mp3</pathurl>
              <rate>
                <timebase>44100</timebase>
                <ntsc>FALSE</ntsc>
              </rate>
              <media>
                <audio>
                  <channelcount>1</channelcount>
                  <samplecharacteristics>
                    <samplerate>44100</samplerate>
                    <samplesize>16</samplesize>
                  </samplecharacteristics>
                </audio>
              </media>
            </file>
            <sourcetrack>
              <mediatype>audio</mediatype>
              <trackindex>1</trackindex>
            </sourcetrack>
          </clipitem>
          <clipitem id="clipitem-2">
            <name>OrionEp9-002-NA.mp3</name>
            <enabled>TRUE</enabled>
            <duration>183</duration>
            <rate>
              <timebase>30</timebase>
              <ntsc>TRUE</ntsc>
            </rate>
            <start>246</start>
            <end>429</end>
            <in>0</in>
            <out>183</out>
            <file id="file-3">
              <name>OrionEp9-002-NA.mp3</name>
              <pathurl>file:///Users/hiroshikodera/repos/_active/tools/davinciauto/projects/OrionEp9/%E3%82%B5%E3%82%A6%E3%83%B3%E3%83%89%E9%A1%9E/Narration/OrionEp9-002-NA.mp3</pathurl>
              <rate>
                <timebase>44100</timebase>
                <ntsc>FALSE</ntsc>
              </rate>
              <media>
                <audio>
                  <channelcount>1</channelcount>
                  <samplecharacteristics>
                    <samplerate>44100</samplerate>
                    <samplesize>16</samplesize>
                  </samplecharacteristics>
                </audio>
              </media>
            </file>
            <sourcetrack>
              <mediatype>audio</mediatype>
              <trackindex>1</trackindex>
            </sourcetrack>
          </clipitem>
          <clipitem id="clipitem-3">
            <name>OrionEp9-003-NA.mp3</name>
            <enabled>TRUE</enabled>
            <duration>298</duration>
            <rate>
              <timebase>30</timebase>
              <ntsc>TRUE</ntsc>
            </rate>
            <start>452</start>
            <end>750</end>
            <in>0</in>
            <out>298</out>
            <file id="file-4">
              <name>OrionEp9-003-NA.mp3</name>
              <pathurl>file:///Users/hiroshikodera/repos/_active/tools/davinciauto/projects/OrionEp9/%E3%82%B5%E3%82%A6%E3%83%B3%E3%83%89%E9%A1%9E/Narration/OrionEp9-003-NA.mp3</pathurl>
              <rate>
                <timebase>44100</timebase>
                <ntsc>FALSE</ntsc>
              </rate>
              <media>
                <audio>
                  <channelcount>1</channelcount>
                  <samplecharacteristics>
                    <samplerate>44100</samplerate>
                    <samplesize>16</samplesize>
                  </samplecharacteristics>
                </audio>
              </media>
            </file>
            <sourcetrack>
              <mediatype>audio</mediatype>
              <trackindex>1</trackindex>
            </sourcetrack>
          </clipitem>
          <clipitem id="clipitem-4">
            <name>OrionEp9-004-NA.mp3</name>
            <enabled>TRUE</enabled>
            <duration>357</duration>
            <rate>
              <timebase>30</timebase>
              <ntsc>TRUE</ntsc>
            </rate>
            <start>767</start>
            <end>1124</end>
            <in>0</in>
            <out>357</out>
            <file id="file-5">
              <name>OrionEp9-004-NA.mp3</name>
              <pathurl>file:///Users/hiroshikodera/repos/_active/tools/davinciauto/projects/OrionEp9/%E3%82%B5%E3%82%A6%E3%83%B3%E3%83%89%E9%A1%9E/Narration/OrionEp9-004-NA.mp3</pathurl>
              <rate>
                <timebase>44100</timebase>
                <ntsc>FALSE</ntsc>
              </rate>
              <media>
                <audio>
                  <channelcount>1</channelcount>
                  <samplecharacteristics>
                    <samplerate>44100</samplerate>
                    <samplesize>16</samplesize>
                  </samplecharacteristics>
                </audio>
              </media>
            </file>
            <sourcetrack>
              <mediatype>audio</mediatype>
              <trackindex>1</trackindex>
            </sourcetrack>
          </clipitem>
          <clipitem id="clipitem-5">
            <name>OrionEp9-005-NA.mp3</name>
            <enabled>TRUE</enabled>
            <duration>232</duration>
            <rate>
              <timebase>30</timebase>
              <ntsc>TRUE</ntsc>
            </rate>
            <start>1142</start>
            <end>1374</end>
            <in>0</in>
            <out>232</out>
            <file id="file-6">
              <name>OrionEp9-005-NA.mp3</name>
              <pathurl>file:///Users/hiroshikodera/repos/_active/tools/davinciauto/projects/OrionEp9/%E3%82%B5%E3%82%A6%E3%83%B3%E3%83%89%E9%A1%9E/Narration/OrionEp9-005-NA.mp3</pathurl>
              <rate>
                <timebase>44100</timebase>
                <ntsc>FALSE</ntsc>
              </rate>
              <media>
                <audio>
                  <channelcount>1</channelcount>
                  <samplecharacteristics>
                    <samplerate>44100</samplerate>
                    <samplesize>16</samplesize>
                  </samplecharacteristics>
                </audio>
              </media>
            </file>
            <sourcetrack>
              <mediatype>audio</mediatype>
              <trackindex>1</trackindex>
            </sourcetrack>
          </clipitem>
          <clipitem id="clipitem-6">
            <name>OrionEp9-006-NA.mp3</name>
            <enabled>TRUE</enabled>
            <duration>414</duration>
            <rate>
              <timebase>30</timebase>
              <ntsc>TRUE</ntsc>
            </rate>
            <start>1388</start>
            <end>1802</end>
            <in>0</in>
            <out>414</out>
            <file id="file-7">
              <name>OrionEp9-006-NA.mp3</name>
              <pathurl>file:///Users/hiroshikodera/repos/_active/tools/davinciauto/projects/OrionEp9/%E3%82%B5%E3%82%A6%E3%83%B3%E3%83%89%E9%A1%9E/Narration/OrionEp9-006-NA.mp3</pathurl>
              <rate>
                <timebase>44100</timebase>
                <ntsc>FALSE</ntsc>
              </rate>
              <media>
                <audio>
                  <channelcount>1</channelcount>
                  <samplecharacteristics>
                    <samplerate>44100</samplerate>
                    <samplesize>16</samplesize>
                  </samplecharacteristics>
                </audio>
              </media>
            </file>
            <sourcetrack>
              <mediatype>audio</mediatype>
              <trackindex>1</trackindex>
            </sourcetrack>
          </clipitem>
          <clipitem id="clipitem-7">
            <name>OrionEp9-007-NA.mp3</name>
            <enabled>TRUE</enabled>
            <duration>436</duration>
            <rate>
              <timebase>30</timebase>
              <ntsc>TRUE</ntsc>
            </rate>
            <start>1821</start>
            <end>2257</end>
            <in>0</in>
            <out>436</out>
            <file id="file-8">
              <name>OrionEp9-007-NA.mp3</name>
              <pathurl>file:///Users/hiroshikodera/repos/_active/tools/davinciauto/projects/OrionEp9/%E3%82%B5%E3%82%A6%E3%83%B3%E3%83%89%E9%A1%9E/Narration/OrionEp9-007-NA.mp3</pathurl>
              <rate>
                <timebase>44100</timebase>
                <ntsc>FALSE</ntsc>
              </rate>
              <media>
                <audio>
                  <channelcount>1</channelcount>
                  <samplecharacteristics>
                    <samplerate>44100</samplerate>
                    <samplesize>16</samplesize>
                  </samplecharacteristics>
                </audio>
              </media>
            </file>
            <sourcetrack>
              <mediatype>audio</mediatype>
              <trackindex>1</trackindex>
            </sourcetrack>
          </clipitem>
          <clipitem id="clipitem-8">
            <name>OrionEp9-008-NA.mp3</name>
            <enabled>TRUE</enabled>
            <duration>97</duration>
            <rate>
              <timebase>30</timebase>
              <ntsc>TRUE</ntsc>
            </rate>
            <start>2275</start>
            <end>2372</end>
            <in>0</in>
            <out>97</out>
            <file id="file-9">
              <name>OrionEp9-008-NA.mp3</name>
              <pathurl>file:///Users/hiroshikodera/repos/_active/tools/davinciauto/projects/OrionEp9/%E3%82%B5%E3%82%A6%E3%83%B3%E3%83%89%E9%A1%9E/Narration/OrionEp9-008-NA.mp3</pathurl>
              <rate>
                <timebase>44100</timebase>
                <ntsc>FALSE</ntsc>
              </rate>
              <media>
                <audio>
                  <channelcount>1</channelcount>
                  <samplecharacteristics>
                    <samplerate>44100</samplerate>
                    <samplesize>16</samplesize>
                  </samplecharacteristics>
                </audio>
              </media>
            </file>
            <sourcetrack>
              <mediatype>audio</mediatype>
              <trackindex>1</trackindex>
            </sourcetrack>
          </clipitem>
          <clipitem id="clipitem-9">
            <name>OrionEp9-009-NA.mp3</name>
            <enabled>TRUE</enabled>
            <duration>373</duration>
            <rate>
              <timebase>30</timebase>
              <ntsc>TRUE</ntsc>
            </rate>
            <start>2384</start>
            <end>2757</end>
            <in>0</in>
            <out>373</out>
            <file id="file-10">
              <name>OrionEp9-009-NA.mp3</name>
              <pathurl>file:///Users/hiroshikodera/repos/_active/tools/davinciauto/projects/OrionEp9/%E3%82%B5%E3%82%A6%E3%83%B3%E3%83%89%E9%A1%9E/Narration/OrionEp9-009-NA.mp3</pathurl>
              <rate>
                <timebase>44100</timebase>
                <ntsc>FALSE</ntsc>
              </rate>
              <media>
                <audio>
                  <channelcount>1</channelcount>
                  <samplecharacteristics>
                    <samplerate>44100</samplerate>
                    <samplesize>16</samplesize>
                  </samplecharacteristics>
                </audio>
              </media>
            </file>
            <sourcetrack>
              <mediatype>audio</mediatype>
              <trackindex>1</trackindex>
            </sourcetrack>
          </clipitem>
          <clipitem id="clipitem-10">
            <name>OrionEp9-010-NA.mp3</name>
            <enabled>TRUE</enabled>
            <duration>264</duration>
            <rate>
              <timebase>30</timebase>
              <ntsc>TRUE</ntsc>
            </rate>
            <start>2777</start>
            <end>3041</end>
            <in>0</in>
            <out>264</out>
            <file id="file-11">
              <name>OrionEp9-010-NA.mp3</name>
              <pathurl>file:///Users/hiroshikodera/repos/_active/tools/davinciauto/projects/OrionEp9/%E3%82%B5%E3%82%A6%E3%83%B3%E3%83%89%E9%A1%9E/Narration/OrionEp9-010-NA.mp3</pathurl>
              <rate>
                <timebase>44100</timebase>
                <ntsc>FALSE</ntsc>
              </rate>
              <media>
                <audio>
                  <channelcount>1</channelcount>
                  <samplecharacteristics>
                    <samplerate>44100</samplerate>
                    <samplesize>16</samplesize>
                  </samplecharacteristics>
                </audio>
              </media>
            </file>
            <sourcetrack>
              <mediatype>audio</mediatype>
              <trackindex>1</trackindex>
            </sourcetrack>
          </clipitem>
          <clipitem id="clipitem-11">
            <name>OrionEp9-011-NA.mp3</name>
            <enabled>TRUE</enabled>
            <duration>118</duration>
            <rate>
              <timebase>30</timebase>
              <ntsc>TRUE</ntsc>
            </rate>
            <start>3055</start>
            <end>3173</end>
            <in>0</in>
            <out>118</out>
            <file id="file-12">
              <name>OrionEp9-011-NA.mp3</name>
              <pathurl>file:///Users/hiroshikodera/repos/_active/tools/davinciauto/projects/OrionEp9/%E3%82%B5%E3%82%A6%E3%83%B3%E3%83%89%E9%A1%9E/Narration/OrionEp9-011-NA.mp3</pathurl>
              <rate>
                <timebase>44100</timebase>
                <ntsc>FALSE</ntsc>
              </rate>
              <media>
                <audio>
                  <channelcount>1</channelcount>
                  <samplecharacteristics>
                    <samplerate>44100</samplerate>
                    <samplesize>16</samplesize>
                  </samplecharacteristics>
                </audio>
              </media>
            </file>
            <sourcetrack>
              <mediatype>audio</mediatype>
              <trackindex>1</trackindex>
            </sourcetrack>
          </clipitem>
          <clipitem id="clipitem-12">
            <name>OrionEp9-012-DL.mp3</name>
            <enabled>TRUE</enabled>
            <duration>179</duration>
            <rate>
              <timebase>30</timebase>
              <ntsc>TRUE</ntsc>
            </rate>
            <start>3186</start>
            <end>3365</end>
            <in>0</in>
            <out>179</out>
            <file id="file-13">
              <name>OrionEp9-012-DL.mp3</name>
              <pathurl>file:///Users/hiroshikodera/repos/_active/tools/davinciauto/projects/OrionEp9/%E3%82%B5%E3%82%A6%E3%83%B3%E3%83%89%E9%A1%9E/Narration/OrionEp9-012-DL.mp3</pathurl>
              <rate>
                <timebase>44100</timebase>
                <ntsc>FALSE</ntsc>
              </rate>
              <media>
                <audio>
                  <channelcount>1</channelcount>
                  <samplecharacteristics>
                    <samplerate>44100</samplerate>
                    <samplesize>16</samplesize>
                  </samplecharacteristics>
                </audio>
              </media>
            </file>
            <sourcetrack>
              <mediatype>audio</mediatype>
              <trackindex>1</trackindex>
            </sourcetrack>
          </clipitem>
          <clipitem id="clipitem-13">
            <name>OrionEp9-013-NA.mp3</name>
            <enabled>TRUE</enabled>
            <duration>88</duration>
            <rate>
              <timebase>30</timebase>
              <ntsc>TRUE</ntsc>
            </rate>
            <start>3388</start>
            <end>3476</end>
            <in>0</in>
            <out>88</out>
            <file id="file-14">
              <name>OrionEp9-013-NA.mp3</name>
              <pathurl>file:///Users/hiroshikodera/repos/_active/tools/davinciauto/projects/OrionEp9/%E3%82%B5%E3%82%A6%E3%83%B3%E3%83%89%E9%A1%9E/Narration/OrionEp9-013-NA.mp3</pathurl>
              <rate>
                <timebase>44100</timebase>
                <ntsc>FALSE</ntsc>
              </rate>
              <media>
                <audio>
                  <channelcount>1</channelcount>
                  <samplecharacteristics>
                    <samplerate>44100</samplerate>
                    <samplesize>16</samplesize>
                  </samplecharacteristics>
                </audio>
              </media>
            </file>
            <sourcetrack>
              <mediatype>audio</mediatype>
              <trackindex>1</trackindex>
            </sourcetrack>
          </clipitem>
          <clipitem id="clipitem-14">
            <name>OrionEp9-014-DL.mp3</name>
            <enabled>TRUE</enabled>
            <duration>158</duration>
            <rate>
              <timebase>30</timebase>
              <ntsc>TRUE</ntsc>
            </rate>
            <start>3487</start>
            <end>3645</end>
            <in>0</in>
            <out>158</out>
            <file id="file-15">
              <name>OrionEp9-014-DL.mp3</name>
              <pathurl>file:///Users/hiroshikodera/repos/_active/tools/davinciauto/projects/OrionEp9/%E3%82%B5%E3%82%A6%E3%83%B3%E3%83%89%E9%A1%9E/Narration/OrionEp9-014-DL.mp3</pathurl>
              <rate>
                <timebase>44100</timebase>
                <ntsc>FALSE</ntsc>
              </rate>
              <media>
                <audio>
                  <channelcount>1</channelcount>
                  <samplecharacteristics>
                    <samplerate>44100</samplerate>
                    <samplesize>16</samplesize>
                  </samplecharacteristics>
                </audio>
              </media>
            </file>
            <sourcetrack>
              <mediatype>audio</mediatype>
              <trackindex>1</trackindex>
            </sourcetrack>
          </clipitem>
          <clipitem id="clipitem-15">
            <name>OrionEp9-015-NA.mp3</name>
            <enabled>TRUE</enabled>
            <duration>320</duration>
            <rate>
              <timebase>30</timebase>
              <ntsc>TRUE</ntsc>
            </rate>
            <start>3667</start>
            <end>3987</end>
            <in>0</in>
            <out>320</out>
            <file id="file-16">
              <name>OrionEp9-015-NA.mp3</name>
              <pathurl>file:///Users/hiroshikodera/repos/_active/tools/davinciauto/projects/OrionEp9/%E3%82%B5%E3%82%A6%E3%83%B3%E3%83%89%E9%A1%9E/Narration/OrionEp9-015-NA.mp3</pathurl>
              <rate>
                <timebase>44100</timebase>
                <ntsc>FALSE</ntsc>
              </rate>
              <media>
                <audio>
                  <channelcount>1</channelcount>
                  <samplecharacteristics>
                    <samplerate>44100</samplerate>
                    <samplesize>16</samplesize>
                  </samplecharacteristics>
                </audio>
              </media>
            </file>
            <sourcetrack>
              <mediatype>audio</mediatype>
              <trackindex>1</trackindex>
            </sourcetrack>
          </clipitem>
          <clipitem id="clipitem-16">
            <name>OrionEp9-016-DL.mp3</name>
            <enabled>TRUE</enabled>
            <duration>106</duration>
            <rate>
              <timebase>30</timebase>
              <ntsc>TRUE</ntsc>
            </rate>
            <start>4004</start>
            <end>4110</end>
            <in>0</in>
            <out>106</out>
            <file id="file-17">
              <name>OrionEp9-016-DL.mp3</name>
              <pathurl>file:///Users/hiroshikodera/repos/_active/tools/davinciauto/projects/OrionEp9/%E3%82%B5%E3%82%A6%E3%83%B3%E3%83%89%E9%A1%9E/Narration/OrionEp9-016-DL.mp3</pathurl>
              <rate>
                <timebase>44100</timebase>
                <ntsc>FALSE</ntsc>
              </rate>
              <media>
                <audio>
                  <channelcount>1</channelcount>
                  <samplecharacteristics>
                    <samplerate>44100</samplerate>
                    <samplesize>16</samplesize>
                  </samplecharacteristics>
                </audio>
              </media>
            </file>
            <sourcetrack>
              <mediatype>audio</mediatype>
              <trackindex>1</trackindex>
            </sourcetrack>
          </clipitem>
          <clipitem id="clipitem-17">
            <name>OrionEp9-017-NA.mp3</name>
            <enabled>TRUE</enabled>
            <duration>281</duration>
            <rate>
              <timebase>30</timebase>
              <ntsc>TRUE</ntsc>
            </rate>
            <start>4130</start>
            <end>4411</end>
            <in>0</in>
            <out>281</out>
            <file id="file-18">
              <name>OrionEp9-017-NA.mp3</name>
              <pathurl>file:///Users/hiroshikodera/repos/_active/tools/davinciauto/projects/OrionEp9/%E3%82%B5%E3%82%A6%E3%83%B3%E3%83%89%E9%A1%9E/Narration/OrionEp9-017-NA.mp3</pathurl>
              <rate>
                <timebase>44100</timebase>
                <ntsc>FALSE</ntsc>
              </rate>
              <media>
                <audio>
                  <channelcount>1</channelcount>
                  <samplecharacteristics>
                    <samplerate>44100</samplerate>
                    <samplesize>16</samplesize>
                  </samplecharacteristics>
                </audio>
              </media>
            </file>
            <sourcetrack>
              <mediatype>audio</mediatype>
              <trackindex>1</trackindex>
            </sourcetrack>
          </clipitem>
          <clipitem id="clipitem-18">
            <name>OrionEp9-018-NA.mp3</name>
            <enabled>TRUE</enabled>
            <duration>269</duration>
            <rate>
              <timebase>30</timebase>
              <ntsc>TRUE</ntsc>
            </rate>
            <start>4427</start>
            <end>4696</end>
            <in>0</in>
            <out>269</out>
            <file id="file-19">
              <name>OrionEp9-018-NA.mp3</name>
              <pathurl>file:///Users/hiroshikodera/repos/_active/tools/davinciauto/projects/OrionEp9/%E3%82%B5%E3%82%A6%E3%83%B3%E3%83%89%E9%A1%9E/Narration/OrionEp9-018-NA.mp3</pathurl>
              <rate>
                <timebase>44100</timebase>
                <ntsc>FALSE</ntsc>
              </rate>
              <media>
                <audio>
                  <channelcount>1</channelcount>
                  <samplecharacteristics>
                    <samplerate>44100</samplerate>
                    <samplesize>16</samplesize>
                  </samplecharacteristics>
                </audio>
              </media>
            </file>
            <sourcetrack>
              <mediatype>audio</mediatype>
              <trackindex>1</trackindex>
            </sourcetrack>
          </clipitem>
          <clipitem id="clipitem-19">
            <name>OrionEp9-019-NA.mp3</name>
            <enabled>TRUE</enabled>
            <duration>364</duration>
            <rate>
              <timebase>30</timebase>
              <ntsc>TRUE</ntsc>
            </rate>
            <start>4712</start>
            <end>5076</end>
            <in>0</in>
            <out>364</out>
            <file id="file-20">
              <name>OrionEp9-019-NA.mp3</name>
              <pathurl>file:///Users/hiroshikodera/repos/_active/tools/davinciauto/projects/OrionEp9/%E3%82%B5%E3%82%A6%E3%83%B3%E3%83%89%E9%A1%9E/Narration/OrionEp9-019-NA.mp3</pathurl>
              <rate>
                <timebase>44100</timebase>
                <ntsc>FALSE</ntsc>
              </rate>
              <media>
                <audio>
                  <channelcount>1</channelcount>
                  <samplecharacteristics>
                    <samplerate>44100</samplerate>
                    <samplesize>16</samplesize>
                  </samplecharacteristics>
                </audio>
              </media>
            </file>
            <sourcetrack>
              <mediatype>audio</mediatype>
              <trackindex>1</trackindex>
            </sourcetrack>
          </clipitem>
          <clipitem id="clipitem-20">
            <name>OrionEp9-020-DL.mp3</name>
            <enabled>TRUE</enabled>
            <duration>199</duration>
            <rate>
              <timebase>30</timebase>
              <ntsc>TRUE</ntsc>
            </rate>
            <start>5093</start>
            <end>5292</end>
            <in>0</in>
            <out>199</out>
            <file id="file-21">
              <name>OrionEp9-020-DL.mp3</name>
              <pathurl>file:///Users/hiroshikodera/repos/_active/tools/davinciauto/projects/OrionEp9/%E3%82%B5%E3%82%A6%E3%83%B3%E3%83%89%E9%A1%9E/Narration/OrionEp9-020-DL.mp3</pathurl>
              <rate>
                <timebase>44100</timebase>
                <ntsc>FALSE</ntsc>
              </rate>
              <media>
                <audio>
                  <channelcount>1</channelcount>
                  <samplecharacteristics>
                    <samplerate>44100</samplerate>
                    <samplesize>16</samplesize>
                  </samplecharacteristics>
                </audio>
              </media>
            </file>
            <sourcetrack>
              <mediatype>audio</mediatype>
              <trackindex>1</trackindex>
            </sourcetrack>
          </clipitem>
          <clipitem id="clipitem-21">
            <name>OrionEp9-021-NA.mp3</name>
            <enabled>TRUE</enabled>
            <duration>233</duration>
            <rate>
              <timebase>30</timebase>
              <ntsc>TRUE</ntsc>
            </rate>
            <start>5315</start>
            <end>5548</end>
            <in>0</in>
            <out>233</out>
            <file id="file-22">
              <name>OrionEp9-021-NA.mp3</name>
              <pathurl>file:///Users/hiroshikodera/repos/_active/tools/davinciauto/projects/OrionEp9/%E3%82%B5%E3%82%A6%E3%83%B3%E3%83%89%E9%A1%9E/Narration/OrionEp9-021-NA.mp3</pathurl>
              <rate>
                <timebase>44100</timebase>
                <ntsc>FALSE</ntsc>
              </rate>
              <media>
                <audio>
                  <channelcount>1</channelcount>
                  <samplecharacteristics>
                    <samplerate>44100</samplerate>
                    <samplesize>16</samplesize>
                  </samplecharacteristics>
                </audio>
              </media>
            </file>
            <sourcetrack>
              <mediatype>audio</mediatype>
              <trackindex>1</trackindex>
            </sourcetrack>
          </clipitem>
          <clipitem id="clipitem-22">
            <name>OrionEp9-022-NA.mp3</name>
            <enabled>TRUE</enabled>
            <duration>316</duration>
            <rate>
              <timebase>30</timebase>
              <ntsc>TRUE</ntsc>
            </rate>
            <start>5563</start>
            <end>5879</end>
            <in>0</in>
            <out>316</out>
            <file id="file-23">
              <name>OrionEp9-022-NA.mp3</name>
              <pathurl>file:///Users/hiroshikodera/repos/_active/tools/davinciauto/projects/OrionEp9/%E3%82%B5%E3%82%A6%E3%83%B3%E3%83%89%E9%A1%9E/Narration/OrionEp9-022-NA.mp3</pathurl>
              <rate>
                <timebase>44100</timebase>
                <ntsc>FALSE</ntsc>
              </rate>
              <media>
                <audio>
                  <channelcount>1</channelcount>
                  <samplecharacteristics>
                    <samplerate>44100</samplerate>
                    <samplesize>16</samplesize>
                  </samplecharacteristics>
                </audio>
              </media>
            </file>
            <sourcetrack>
              <mediatype>audio</mediatype>
              <trackindex>1</trackindex>
            </sourcetrack>
          </clipitem>
          <clipitem id="clipitem-23">
            <name>OrionEp9-023-NA.mp3</name>
            <enabled>TRUE</enabled>
            <duration>225</duration>
            <rate>
              <timebase>30</timebase>
              <ntsc>TRUE</ntsc>
            </rate>
            <start>5896</start>
            <end>6121</end>
            <in>0</in>
            <out>225</out>
            <file id="file-24">
              <name>OrionEp9-023-NA.mp3</name>
              <pathurl>file:///Users/hiroshikodera/repos/_active/tools/davinciauto/projects/OrionEp9/%E3%82%B5%E3%82%A6%E3%83%B3%E3%83%89%E9%A1%9E/Narration/OrionEp9-023-NA.mp3</pathurl>
              <rate>
                <timebase>44100</timebase>
                <ntsc>FALSE</ntsc>
              </rate>
              <media>
                <audio>
                  <channelcount>1</channelcount>
                  <samplecharacteristics>
                    <samplerate>44100</samplerate>
                    <samplesize>16</samplesize>
                  </samplecharacteristics>
                </audio>
              </media>
            </file>
            <sourcetrack>
              <mediatype>audio</mediatype>
              <trackindex>1</trackindex>
            </sourcetrack>
          </clipitem>
          <clipitem id="clipitem-24">
            <name>OrionEp9-024-NA.mp3</name>
            <enabled>TRUE</enabled>
            <duration>265</duration>
            <rate>
              <timebase>30</timebase>
              <ntsc>TRUE</ntsc>
            </rate>
            <start>6134</start>
            <end>6399</end>
            <in>0</in>
            <out>265</out>
            <file id="file-25">
              <name>OrionEp9-024-NA.mp3</name>
              <pathurl>file:///Users/hiroshikodera/repos/_active/tools/davinciauto/projects/OrionEp9/%E3%82%B5%E3%82%A6%E3%83%B3%E3%83%89%E9%A1%9E/Narration/OrionEp9-024-NA.mp3</pathurl>
              <rate>
                <timebase>44100</timebase>
                <ntsc>FALSE</ntsc>
              </rate>
              <media>
                <audio>
                  <channelcount>1</channelcount>
                  <samplecharacteristics>
                    <samplerate>44100</samplerate>
                    <samplesize>16</samplesize>
                  </samplecharacteristics>
                </audio>
              </media>
            </file>
            <sourcetrack>
              <mediatype>audio</mediatype>
              <trackindex>1</trackindex>
            </sourcetrack>
          </clipitem>
          <clipitem id="clipitem-25">
            <name>OrionEp9-025-NA.mp3</name>
            <enabled>TRUE</enabled>
            <duration>361</duration>
            <rate>
              <timebase>30</timebase>
              <ntsc>TRUE</ntsc>
            </rate>
            <start>6415</start>
            <end>6776</end>
            <in>0</in>
            <out>361</out>
            <file id="file-26">
              <name>OrionEp9-025-NA.mp3</name>
              <pathurl>file:///Users/hiroshikodera/repos/_active/tools/davinciauto/projects/OrionEp9/%E3%82%B5%E3%82%A6%E3%83%B3%E3%83%89%E9%A1%9E/Narration/OrionEp9-025-NA.mp3</pathurl>
              <rate>
                <timebase>44100</timebase>
                <ntsc>FALSE</ntsc>
              </rate>
              <media>
                <audio>
                  <channelcount>1</channelcount>
                  <samplecharacteristics>
                    <samplerate>44100</samplerate>
                    <samplesize>16</samplesize>
                  </samplecharacteristics>
                </audio>
              </media>
            </file>
            <sourcetrack>
              <mediatype>audio</mediatype>
              <trackindex>1</trackindex>
            </sourcetrack>
          </clipitem>
          <clipitem id="clipitem-26">
            <name>OrionEp9-026-NA.mp3</name>
            <enabled>TRUE</enabled>
            <duration>198</duration>
            <rate>
              <timebase>30</timebase>
              <ntsc>TRUE</ntsc>
            </rate>
            <start>6793</start>
            <end>6991</end>
            <in>0</in>
            <out>198</out>
            <file id="file-27">
              <name>OrionEp9-026-NA.mp3</name>
              <pathurl>file:///Users/hiroshikodera/repos/_active/tools/davinciauto/projects/OrionEp9/%E3%82%B5%E3%82%A6%E3%83%B3%E3%83%89%E9%A1%9E/Narration/OrionEp9-026-NA.mp3</pathurl>
              <rate>
                <timebase>44100</timebase>
                <ntsc>FALSE</ntsc>
              </rate>
              <media>
                <audio>
                  <channelcount>1</channelcount>
                  <samplecharacteristics>
                    <samplerate>44100</samplerate>
                    <samplesize>16</samplesize>
                  </samplecharacteristics>
                </audio>
              </media>
            </file>
            <sourcetrack>
              <mediatype>audio</mediatype>
              <trackindex>1</trackindex>
            </sourcetrack>
          </clipitem>
          <clipitem id="clipitem-27">
            <name>OrionEp9-027-NA.mp3</name>
            <enabled>TRUE</enabled>
            <duration>363</duration>
            <rate>
              <timebase>30</timebase>
              <ntsc>TRUE</ntsc>
            </rate>
            <start>7005</start>
            <end>7368</end>
            <in>0</in>
            <out>363</out>
            <file id="file-28">
              <name>OrionEp9-027-NA.mp3</name>
              <pathurl>file:///Users/hiroshikodera/repos/_active/tools/davinciauto/projects/OrionEp9/%E3%82%B5%E3%82%A6%E3%83%B3%E3%83%89%E9%A1%9E/Narration/OrionEp9-027-NA.mp3</pathurl>
              <rate>
                <timebase>44100</timebase>
                <ntsc>FALSE</ntsc>
              </rate>
              <media>
                <audio>
                  <channelcount>1</channelcount>
                  <samplecharacteristics>
                    <samplerate>44100</samplerate>
                    <samplesize>16</samplesize>
                  </samplecharacteristics>
                </audio>
              </media>
            </file>
            <sourcetrack>
              <mediatype>audio</mediatype>
              <trackindex>1</trackindex>
            </sourcetrack>
          </clipitem>
          <clipitem id="clipitem-28">
            <name>OrionEp9-028-DL.mp3</name>
            <enabled>TRUE</enabled>
            <duration>84</duration>
            <rate>
              <timebase>30</timebase>
              <ntsc>TRUE</ntsc>
            </rate>
            <start>7385</start>
            <end>7469</end>
            <in>0</in>
            <out>84</out>
            <file id="file-29">
              <name>OrionEp9-028-DL.mp3</name>
              <pathurl>file:///Users/hiroshikodera/repos/_active/tools/davinciauto/projects/OrionEp9/%E3%82%B5%E3%82%A6%E3%83%B3%E3%83%89%E9%A1%9E/Narration/OrionEp9-028-DL.mp3</pathurl>
              <rate>
                <timebase>44100</timebase>
                <ntsc>FALSE</ntsc>
              </rate>
              <media>
                <audio>
                  <channelcount>1</channelcount>
                  <samplecharacteristics>
                    <samplerate>44100</samplerate>
                    <samplesize>16</samplesize>
                  </samplecharacteristics>
                </audio>
              </media>
            </file>
            <sourcetrack>
              <mediatype>audio</mediatype>
              <trackindex>1</trackindex>
            </sourcetrack>
          </clipitem>
          <clipitem id="clipitem-29">
            <name>OrionEp9-029-NA.mp3</name>
            <enabled>TRUE</enabled>
            <duration>559</duration>
            <rate>
              <timebase>30</timebase>
              <ntsc>TRUE</ntsc>
            </rate>
            <start>7488</start>
            <end>8047</end>
            <in>0</in>
            <out>559</out>
            <file id="file-30">
              <name>OrionEp9-029-NA.mp3</name>
              <pathurl>file:///Users/hiroshikodera/repos/_active/tools/davinciauto/projects/OrionEp9/%E3%82%B5%E3%82%A6%E3%83%B3%E3%83%89%E9%A1%9E/Narration/OrionEp9-029-NA.mp3</pathurl>
              <rate>
                <timebase>44100</timebase>
                <ntsc>FALSE</ntsc>
              </rate>
              <media>
                <audio>
                  <channelcount>1</channelcount>
                  <samplecharacteristics>
                    <samplerate>44100</samplerate>
                    <samplesize>16</samplesize>
                  </samplecharacteristics>
                </audio>
              </media>
            </file>
            <sourcetrack>
              <mediatype>audio</mediatype>
              <trackindex>1</trackindex>
            </sourcetrack>
          </clipitem>
          <clipitem id="clipitem-30">
            <name>OrionEp9-030-NA.mp3</name>
            <enabled>TRUE</enabled>
            <duration>373</duration>
            <rate>
              <timebase>30</timebase>
              <ntsc>TRUE</ntsc>
            </rate>
            <start>8070</start>
            <end>8443</end>
            <in>0</in>
            <out>373</out>
            <file id="file-31">
              <name>OrionEp9-030-NA.mp3</name>
              <pathurl>file:///Users/hiroshikodera/repos/_active/tools/davinciauto/projects/OrionEp9/%E3%82%B5%E3%82%A6%E3%83%B3%E3%83%89%E9%A1%9E/Narration/OrionEp9-030-NA.mp3</pathurl>
              <rate>
                <timebase>44100</timebase>
                <ntsc>FALSE</ntsc>
              </rate>
              <media>
                <audio>
                  <channelcount>1</channelcount>
                  <samplecharacteristics>
                    <samplerate>44100</samplerate>
                    <samplesize>16</samplesize>
                  </samplecharacteristics>
                </audio>
              </media>
            </file>
            <sourcetrack>
              <mediatype>audio</mediatype>
              <trackindex>1</trackindex>
            </sourcetrack>
          </clipitem>
          <clipitem id="clipitem-31">
            <name>OrionEp9-031-NA.mp3</name>
            <enabled>TRUE</enabled>
            <duration>266</duration>
            <rate>
              <timebase>30</timebase>
              <ntsc>TRUE</ntsc>
            </rate>
            <start>8461</start>
            <end>8727</end>
            <in>0</in>
            <out>266</out>
            <file id="file-32">
              <name>OrionEp9-031-NA.mp3</name>
              <pathurl>file:///Users/hiroshikodera/repos/_active/tools/davinciauto/projects/OrionEp9/%E3%82%B5%E3%82%A6%E3%83%B3%E3%83%89%E9%A1%9E/Narration/OrionEp9-031-NA.mp3</pathurl>
              <rate>
                <timebase>44100</timebase>
                <ntsc>FALSE</ntsc>
              </rate>
              <media>
                <audio>
                  <channelcount>1</channelcount>
                  <samplecharacteristics>
                    <samplerate>44100</samplerate>
                    <samplesize>16</samplesize>
                  </samplecharacteristics>
                </audio>
              </media>
            </file>
            <sourcetrack>
              <mediatype>audio</mediatype>
              <trackindex>1</trackindex>
            </sourcetrack>
          </clipitem>
          <clipitem id="clipitem-32">
            <name>OrionEp9-032-NA.mp3</name>
            <enabled>TRUE</enabled>
            <duration>284</duration>
            <rate>
              <timebase>30</timebase>
              <ntsc>TRUE</ntsc>
            </rate>
            <start>8742</start>
            <end>9026</end>
            <in>0</in>
            <out>284</out>
            <file id="file-33">
              <name>OrionEp9-032-NA.mp3</name>
              <pathurl>file:///Users/hiroshikodera/repos/_active/tools/davinciauto/projects/OrionEp9/%E3%82%B5%E3%82%A6%E3%83%B3%E3%83%89%E9%A1%9E/Narration/OrionEp9-032-NA.mp3</pathurl>
              <rate>
                <timebase>44100</timebase>
                <ntsc>FALSE</ntsc>
              </rate>
              <media>
                <audio>
                  <channelcount>1</channelcount>
                  <samplecharacteristics>
                    <samplerate>44100</samplerate>
                    <samplesize>16</samplesize>
                  </samplecharacteristics>
                </audio>
              </media>
            </file>
            <sourcetrack>
              <mediatype>audio</mediatype>
              <trackindex>1</trackindex>
            </sourcetrack>
          </clipitem>
          <clipitem id="clipitem-33">
            <name>OrionEp9-033-NA.mp3</name>
            <enabled>TRUE</enabled>
            <duration>265</duration>
            <rate>
              <timebase>30</timebase>
              <ntsc>TRUE</ntsc>
            </rate>
            <start>9041</start>
            <end>9306</end>
            <in>0</in>
            <out>265</out>
            <file id="file-34">
              <name>OrionEp9-033-NA.mp3</name>
              <pathurl>file:///Users/hiroshikodera/repos/_active/tools/davinciauto/projects/OrionEp9/%E3%82%B5%E3%82%A6%E3%83%B3%E3%83%89%E9%A1%9E/Narration/OrionEp9-033-NA.mp3</pathurl>
              <rate>
                <timebase>44100</timebase>
                <ntsc>FALSE</ntsc>
              </rate>
              <media>
                <audio>
                  <channelcount>1</channelcount>
                  <samplecharacteristics>
                    <samplerate>44100</samplerate>
                    <samplesize>16</samplesize>
                  </samplecharacteristics>
                </audio>
              </media>
            </file>
            <sourcetrack>
              <mediatype>audio</mediatype>
              <trackindex>1</trackindex>
            </sourcetrack>
          </clipitem>
          <clipitem id="clipitem-34">
            <name>OrionEp9-034-DL.mp3</name>
            <enabled>TRUE</enabled>
            <duration>197</duration>
            <rate>
              <timebase>30</timebase>
              <ntsc>TRUE</ntsc>
            </rate>
            <start>9322</start>
            <end>9519</end>
            <in>0</in>
            <out>197</out>
            <file id="file-35">
              <name>OrionEp9-034-DL.mp3</name>
              <pathurl>file:///Users/hiroshikodera/repos/_active/tools/davinciauto/projects/OrionEp9/%E3%82%B5%E3%82%A6%E3%83%B3%E3%83%89%E9%A1%9E/Narration/OrionEp9-034-DL.mp3</pathurl>
              <rate>
                <timebase>44100</timebase>
                <ntsc>FALSE</ntsc>
              </rate>
              <media>
                <audio>
                  <channelcount>1</channelcount>
                  <samplecharacteristics>
                    <samplerate>44100</samplerate>
                    <samplesize>16</samplesize>
                  </samplecharacteristics>
                </audio>
              </media>
            </file>
            <sourcetrack>
              <mediatype>audio</mediatype>
              <trackindex>1</trackindex>
            </sourcetrack>
          </clipitem>
          <clipitem id="clipitem-35">
            <name>OrionEp9-035-NA.mp3</name>
            <enabled>TRUE</enabled>
            <duration>277</duration>
            <rate>
              <timebase>30</timebase>
              <ntsc>TRUE</ntsc>
            </rate>
            <start>9540</start>
            <end>9817</end>
            <in>0</in>
            <out>277</out>
            <file id="file-36">
              <name>OrionEp9-035-NA.mp3</name>
              <pathurl>file:///Users/hiroshikodera/repos/_active/tools/davinciauto/projects/OrionEp9/%E3%82%B5%E3%82%A6%E3%83%B3%E3%83%89%E9%A1%9E/Narration/OrionEp9-035-NA.mp3</pathurl>
              <rate>
                <timebase>44100</timebase>
                <ntsc>FALSE</ntsc>
              </rate>
              <media>
                <audio>
                  <channelcount>1</channelcount>
                  <samplecharacteristics>
                    <samplerate>44100</samplerate>
                    <samplesize>16</samplesize>
                  </samplecharacteristics>
                </audio>
              </media>
            </file>
            <sourcetrack>
              <mediatype>audio</mediatype>
              <trackindex>1</trackindex>
            </sourcetrack>
          </clipitem>
          <clipitem id="clipitem-36">
            <name>OrionEp9-036-NA.mp3</name>
            <enabled>TRUE</enabled>
            <duration>381</duration>
            <rate>
              <timebase>30</timebase>
              <ntsc>TRUE</ntsc>
            </rate>
            <start>9834</start>
            <end>10215</end>
            <in>0</in>
            <out>381</out>
            <file id="file-37">
              <name>OrionEp9-036-NA.mp3</name>
              <pathurl>file:///Users/hiroshikodera/repos/_active/tools/davinciauto/projects/OrionEp9/%E3%82%B5%E3%82%A6%E3%83%B3%E3%83%89%E9%A1%9E/Narration/OrionEp9-036-NA.mp3</pathurl>
              <rate>
                <timebase>44100</timebase>
                <ntsc>FALSE</ntsc>
              </rate>
              <media>
                <audio>
                  <channelcount>1</channelcount>
                  <samplecharacteristics>
                    <samplerate>44100</samplerate>
                    <samplesize>16</samplesize>
                  </samplecharacteristics>
                </audio>
              </media>
            </file>
            <sourcetrack>
              <mediatype>audio</mediatype>
              <trackindex>1</trackindex>
            </sourcetrack>
          </clipitem>
          <clipitem id="clipitem-37">
            <name>OrionEp9-037-NA.mp3</name>
            <enabled>TRUE</enabled>
            <duration>467</duration>
            <rate>
              <timebase>30</timebase>
              <ntsc>TRUE</ntsc>
            </rate>
            <start>10232</start>
            <end>10699</end>
            <in>0</in>
            <out>467</out>
            <file id="file-38">
              <name>OrionEp9-037-NA.mp3</name>
              <pathurl>file:///Users/hiroshikodera/repos/_active/tools/davinciauto/projects/OrionEp9/%E3%82%B5%E3%82%A6%E3%83%B3%E3%83%89%E9%A1%9E/Narration/OrionEp9-037-NA.mp3</pathurl>
              <rate>
                <timebase>44100</timebase>
                <ntsc>FALSE</ntsc>
              </rate>
              <media>
                <audio>
                  <channelcount>1</channelcount>
                  <samplecharacteristics>
                    <samplerate>44100</samplerate>
                    <samplesize>16</samplesize>
                  </samplecharacteristics>
                </audio>
              </media>
            </file>
            <sourcetrack>
              <mediatype>audio</mediatype>
              <trackindex>1</trackindex>
            </sourcetrack>
          </clipitem>
          <clipitem id="clipitem-38">
            <name>OrionEp9-038-NA.mp3</name>
            <enabled>TRUE</enabled>
            <duration>197</duration>
            <rate>
              <timebase>30</timebase>
              <ntsc>TRUE</ntsc>
            </rate>
            <start>10718</start>
            <end>10915</end>
            <in>0</in>
            <out>197</out>
            <file id="file-39">
              <name>OrionEp9-038-NA.mp3</name>
              <pathurl>file:///Users/hiroshikodera/repos/_active/tools/davinciauto/projects/OrionEp9/%E3%82%B5%E3%82%A6%E3%83%B3%E3%83%89%E9%A1%9E/Narration/OrionEp9-038-NA.mp3</pathurl>
              <rate>
                <timebase>44100</timebase>
                <ntsc>FALSE</ntsc>
              </rate>
              <media>
                <audio>
                  <channelcount>1</channelcount>
                  <samplecharacteristics>
                    <samplerate>44100</samplerate>
                    <samplesize>16</samplesize>
                  </samplecharacteristics>
                </audio>
              </media>
            </file>
            <sourcetrack>
              <mediatype>audio</mediatype>
              <trackindex>1</trackindex>
            </sourcetrack>
          </clipitem>
          <clipitem id="clipitem-39">
            <name>OrionEp9-039-NA.mp3</name>
            <enabled>TRUE</enabled>
            <duration>191</duration>
            <rate>
              <timebase>30</timebase>
              <ntsc>TRUE</ntsc>
            </rate>
            <start>10929</start>
            <end>11120</end>
            <in>0</in>
            <out>191</out>
            <file id="file-40">
              <name>OrionEp9-039-NA.mp3</name>
              <pathurl>file:///Users/hiroshikodera/repos/_active/tools/davinciauto/projects/OrionEp9/%E3%82%B5%E3%82%A6%E3%83%B3%E3%83%89%E9%A1%9E/Narration/OrionEp9-039-NA.mp3</pathurl>
              <rate>
                <timebase>44100</timebase>
                <ntsc>FALSE</ntsc>
              </rate>
              <media>
                <audio>
                  <channelcount>1</channelcount>
                  <samplecharacteristics>
                    <samplerate>44100</samplerate>
                    <samplesize>16</samplesize>
                  </samplecharacteristics>
                </audio>
              </media>
            </file>
            <sourcetrack>
              <mediatype>audio</mediatype>
              <trackindex>1</trackindex>
            </sourcetrack>
          </clipitem>
          <clipitem id="clipitem-40">
            <name>OrionEp9-040-DL.mp3</name>
            <enabled>TRUE</enabled>
            <duration>180</duration>
            <rate>
              <timebase>30</timebase>
              <ntsc>TRUE</ntsc>
            </rate>
            <start>11135</start>
            <end>11315</end>
            <in>0</in>
            <out>180</out>
            <file id="file-41">
              <name>OrionEp9-040-DL.mp3</name>
              <pathurl>file:///Users/hiroshikodera/repos/_active/tools/davinciauto/projects/OrionEp9/%E3%82%B5%E3%82%A6%E3%83%B3%E3%83%89%E9%A1%9E/Narration/OrionEp9-040-DL.mp3</pathurl>
              <rate>
                <timebase>44100</timebase>
                <ntsc>FALSE</ntsc>
              </rate>
              <media>
                <audio>
                  <channelcount>1</channelcount>
                  <samplecharacteristics>
                    <samplerate>44100</samplerate>
                    <samplesize>16</samplesize>
                  </samplecharacteristics>
                </audio>
              </media>
            </file>
            <sourcetrack>
              <mediatype>audio</mediatype>
              <trackindex>1</trackindex>
            </sourcetrack>
          </clipitem>
          <clipitem id="clipitem-41">
            <name>OrionEp9-041-NA.mp3</name>
            <enabled>TRUE</enabled>
            <duration>428</duration>
            <rate>
              <timebase>30</timebase>
              <ntsc>TRUE</ntsc>
            </rate>
            <start>11336</start>
            <end>11764</end>
            <in>0</in>
            <out>428</out>
            <file id="file-42">
              <name>OrionEp9-041-NA.mp3</name>
              <pathurl>file:///Users/hiroshikodera/repos/_active/tools/davinciauto/projects/OrionEp9/%E3%82%B5%E3%82%A6%E3%83%B3%E3%83%89%E9%A1%9E/Narration/OrionEp9-041-NA.mp3</pathurl>
              <rate>
                <timebase>44100</timebase>
                <ntsc>FALSE</ntsc>
              </rate>
              <media>
                <audio>
                  <channelcount>1</channelcount>
                  <samplecharacteristics>
                    <samplerate>44100</samplerate>
                    <samplesize>16</samplesize>
                  </samplecharacteristics>
                </audio>
              </media>
            </file>
            <sourcetrack>
              <mediatype>audio</mediatype>
              <trackindex>1</trackindex>
            </sourcetrack>
          </clipitem>
          <clipitem id="clipitem-42">
            <name>OrionEp9-042-NA.mp3</name>
            <enabled>TRUE</enabled>
            <duration>315</duration>
            <rate>
              <timebase>30</timebase>
              <ntsc>TRUE</ntsc>
            </rate>
            <start>11784</start>
            <end>12099</end>
            <in>0</in>
            <out>315</out>
            <file id="file-43">
              <name>OrionEp9-042-NA.mp3</name>
              <pathurl>file:///Users/hiroshikodera/repos/_active/tools/davinciauto/projects/OrionEp9/%E3%82%B5%E3%82%A6%E3%83%B3%E3%83%89%E9%A1%9E/Narration/OrionEp9-042-NA.mp3</pathurl>
              <rate>
                <timebase>44100</timebase>
                <ntsc>FALSE</ntsc>
              </rate>
              <media>
                <audio>
                  <channelcount>1</channelcount>
                  <samplecharacteristics>
                    <samplerate>44100</samplerate>
                    <samplesize>16</samplesize>
                  </samplecharacteristics>
                </audio>
              </media>
            </file>
            <sourcetrack>
              <mediatype>audio</mediatype>
              <trackindex>1</trackindex>
            </sourcetrack>
          </clipitem>
          <clipitem id="clipitem-43">
            <name>OrionEp9-043-NA.mp3</name>
            <enabled>TRUE</enabled>
            <duration>294</duration>
            <rate>
              <timebase>30</timebase>
              <ntsc>TRUE</ntsc>
            </rate>
            <start>12116</start>
            <end>12410</end>
            <in>0</in>
            <out>294</out>
            <file id="file-44">
              <name>OrionEp9-043-NA.mp3</name>
              <pathurl>file:///Users/hiroshikodera/repos/_active/tools/davinciauto/projects/OrionEp9/%E3%82%B5%E3%82%A6%E3%83%B3%E3%83%89%E9%A1%9E/Narration/OrionEp9-043-NA.mp3</pathurl>
              <rate>
                <timebase>44100</timebase>
                <ntsc>FALSE</ntsc>
              </rate>
              <media>
                <audio>
                  <channelcount>1</channelcount>
                  <samplecharacteristics>
                    <samplerate>44100</samplerate>
                    <samplesize>16</samplesize>
                  </samplecharacteristics>
                </audio>
              </media>
            </file>
            <sourcetrack>
              <mediatype>audio</mediatype>
              <trackindex>1</trackindex>
            </sourcetrack>
          </clipitem>
          <clipitem id="clipitem-44">
            <name>OrionEp9-044-NA.mp3</name>
            <enabled>TRUE</enabled>
            <duration>378</duration>
            <rate>
              <timebase>30</timebase>
              <ntsc>TRUE</ntsc>
            </rate>
            <start>12427</start>
            <end>12805</end>
            <in>0</in>
            <out>378</out>
            <file id="file-45">
              <name>OrionEp9-044-NA.mp3</name>
              <pathurl>file:///Users/hiroshikodera/repos/_active/tools/davinciauto/projects/OrionEp9/%E3%82%B5%E3%82%A6%E3%83%B3%E3%83%89%E9%A1%9E/Narration/OrionEp9-044-NA.mp3</pathurl>
              <rate>
                <timebase>44100</timebase>
                <ntsc>FALSE</ntsc>
              </rate>
              <media>
                <audio>
                  <channelcount>1</channelcount>
                  <samplecharacteristics>
                    <samplerate>44100</samplerate>
                    <samplesize>16</samplesize>
                  </samplecharacteristics>
                </audio>
              </media>
            </file>
            <sourcetrack>
              <mediatype>audio</mediatype>
              <trackindex>1</trackindex>
            </sourcetrack>
          </clipitem>
          <clipitem id="clipitem-45">
            <name>OrionEp9-045-NA.mp3</name>
            <enabled>TRUE</enabled>
            <duration>407</duration>
            <rate>
              <timebase>30</timebase>
              <ntsc>TRUE</ntsc>
            </rate>
            <start>12824</start>
            <end>13231</end>
            <in>0</in>
            <out>407</out>
            <file id="file-46">
              <name>OrionEp9-045-NA.mp3</name>
              <pathurl>file:///Users/hiroshikodera/repos/_active/tools/davinciauto/projects/OrionEp9/%E3%82%B5%E3%82%A6%E3%83%B3%E3%83%89%E9%A1%9E/Narration/OrionEp9-045-NA.mp3</pathurl>
              <rate>
                <timebase>44100</timebase>
                <ntsc>FALSE</ntsc>
              </rate>
              <media>
                <audio>
                  <channelcount>1</channelcount>
                  <samplecharacteristics>
                    <samplerate>44100</samplerate>
                    <samplesize>16</samplesize>
                  </samplecharacteristics>
                </audio>
              </media>
            </file>
            <sourcetrack>
              <mediatype>audio</mediatype>
              <trackindex>1</trackindex>
            </sourcetrack>
          </clipitem>
          <clipitem id="clipitem-46">
            <name>OrionEp9-046-NA.mp3</name>
            <enabled>TRUE</enabled>
            <duration>424</duration>
            <rate>
              <timebase>30</timebase>
              <ntsc>TRUE</ntsc>
            </rate>
            <start>13250</start>
            <end>13674</end>
            <in>0</in>
            <out>424</out>
            <file id="file-47">
              <name>OrionEp9-046-NA.mp3</name>
              <pathurl>file:///Users/hiroshikodera/repos/_active/tools/davinciauto/projects/OrionEp9/%E3%82%B5%E3%82%A6%E3%83%B3%E3%83%89%E9%A1%9E/Narration/OrionEp9-046-NA.mp3</pathurl>
              <rate>
                <timebase>44100</timebase>
                <ntsc>FALSE</ntsc>
              </rate>
              <media>
                <audio>
                  <channelcount>1</channelcount>
                  <samplecharacteristics>
                    <samplerate>44100</samplerate>
                    <samplesize>16</samplesize>
                  </samplecharacteristics>
                </audio>
              </media>
            </file>
            <sourcetrack>
              <mediatype>audio</mediatype>
              <trackindex>1</trackindex>
            </sourcetrack>
          </clipitem>
          <clipitem id="clipitem-47">
            <name>OrionEp9-047-NA.mp3</name>
            <enabled>TRUE</enabled>
            <duration>388</duration>
            <rate>
              <timebase>30</timebase>
              <ntsc>TRUE</ntsc>
            </rate>
            <start>13693</start>
            <end>14081</end>
            <in>0</in>
            <out>388</out>
            <file id="file-48">
              <name>OrionEp9-047-NA.mp3</name>
              <pathurl>file:///Users/hiroshikodera/repos/_active/tools/davinciauto/projects/OrionEp9/%E3%82%B5%E3%82%A6%E3%83%B3%E3%83%89%E9%A1%9E/Narration/OrionEp9-047-NA.mp3</pathurl>
              <rate>
                <timebase>44100</timebase>
                <ntsc>FALSE</ntsc>
              </rate>
              <media>
                <audio>
                  <channelcount>1</channelcount>
                  <samplecharacteristics>
                    <samplerate>44100</samplerate>
                    <samplesize>16</samplesize>
                  </samplecharacteristics>
                </audio>
              </media>
            </file>
            <sourcetrack>
              <mediatype>audio</mediatype>
              <trackindex>1</trackindex>
            </sourcetrack>
          </clipitem>
          <clipitem id="clipitem-48">
            <name>OrionEp9-048-NA.mp3</name>
            <enabled>TRUE</enabled>
            <duration>104</duration>
            <rate>
              <timebase>30</timebase>
              <ntsc>TRUE</ntsc>
            </rate>
            <start>14100</start>
            <end>14204</end>
            <in>0</in>
            <out>104</out>
            <file id="file-49">
              <name>OrionEp9-048-NA.mp3</name>
              <pathurl>file:///Users/hiroshikodera/repos/_active/tools/davinciauto/projects/OrionEp9/%E3%82%B5%E3%82%A6%E3%83%B3%E3%83%89%E9%A1%9E/Narration/OrionEp9-048-NA.mp3</pathurl>
              <rate>
                <timebase>44100</timebase>
                <ntsc>FALSE</ntsc>
              </rate>
              <media>
                <audio>
                  <channelcount>1</channelcount>
                  <samplecharacteristics>
                    <samplerate>44100</samplerate>
                    <samplesize>16</samplesize>
                  </samplecharacteristics>
                </audio>
              </media>
            </file>
            <sourcetrack>
              <mediatype>audio</mediatype>
              <trackindex>1</trackindex>
            </sourcetrack>
          </clipitem>
          <clipitem id="clipitem-49">
            <name>OrionEp9-049-NA.mp3</name>
            <enabled>TRUE</enabled>
            <duration>330</duration>
            <rate>
              <timebase>30</timebase>
              <ntsc>TRUE</ntsc>
            </rate>
            <start>14217</start>
            <end>14547</end>
            <in>0</in>
            <out>330</out>
            <file id="file-50">
              <name>OrionEp9-049-NA.mp3</name>
              <pathurl>file:///Users/hiroshikodera/repos/_active/tools/davinciauto/projects/OrionEp9/%E3%82%B5%E3%82%A6%E3%83%B3%E3%83%89%E9%A1%9E/Narration/OrionEp9-049-NA.mp3</pathurl>
              <rate>
                <timebase>44100</timebase>
                <ntsc>FALSE</ntsc>
              </rate>
              <media>
                <audio>
                  <channelcount>1</channelcount>
                  <samplecharacteristics>
                    <samplerate>44100</samplerate>
                    <samplesize>16</samplesize>
                  </samplecharacteristics>
                </audio>
              </media>
            </file>
            <sourcetrack>
              <mediatype>audio</mediatype>
              <trackindex>1</trackindex>
            </sourcetrack>
          </clipitem>
          <clipitem id="clipitem-50">
            <name>OrionEp9-050-NA.mp3</name>
            <enabled>TRUE</enabled>
            <duration>269</duration>
            <rate>
              <timebase>30</timebase>
              <ntsc>TRUE</ntsc>
            </rate>
            <start>14564</start>
            <end>14833</end>
            <in>0</in>
            <out>269</out>
            <file id="file-51">
              <name>OrionEp9-050-NA.mp3</name>
              <pathurl>file:///Users/hiroshikodera/repos/_active/tools/davinciauto/projects/OrionEp9/%E3%82%B5%E3%82%A6%E3%83%B3%E3%83%89%E9%A1%9E/Narration/OrionEp9-050-NA.mp3</pathurl>
              <rate>
                <timebase>44100</timebase>
                <ntsc>FALSE</ntsc>
              </rate>
              <media>
                <audio>
                  <channelcount>1</channelcount>
                  <samplecharacteristics>
                    <samplerate>44100</samplerate>
                    <samplesize>16</samplesize>
                  </samplecharacteristics>
                </audio>
              </media>
            </file>
            <sourcetrack>
              <mediatype>audio</mediatype>
              <trackindex>1</trackindex>
            </sourcetrack>
          </clipitem>
          <clipitem id="clipitem-51">
            <name>OrionEp9-051-NA.mp3</name>
            <enabled>TRUE</enabled>
            <duration>261</duration>
            <rate>
              <timebase>30</timebase>
              <ntsc>TRUE</ntsc>
            </rate>
            <start>14849</start>
            <end>15110</end>
            <in>0</in>
            <out>261</out>
            <file id="file-52">
              <name>OrionEp9-051-NA.mp3</name>
              <pathurl>file:///Users/hiroshikodera/repos/_active/tools/davinciauto/projects/OrionEp9/%E3%82%B5%E3%82%A6%E3%83%B3%E3%83%89%E9%A1%9E/Narration/OrionEp9-051-NA.mp3</pathurl>
              <rate>
                <timebase>44100</timebase>
                <ntsc>FALSE</ntsc>
              </rate>
              <media>
                <audio>
                  <channelcount>1</channelcount>
                  <samplecharacteristics>
                    <samplerate>44100</samplerate>
                    <samplesize>16</samplesize>
                  </samplecharacteristics>
                </audio>
              </media>
            </file>
            <sourcetrack>
              <mediatype>audio</mediatype>
              <trackindex>1</trackindex>
            </sourcetrack>
          </clipitem>
          <clipitem id="clipitem-52">
            <name>OrionEp9-052-NA.mp3</name>
            <enabled>TRUE</enabled>
            <duration>301</duration>
            <rate>
              <timebase>30</timebase>
              <ntsc>TRUE</ntsc>
            </rate>
            <start>15125</start>
            <end>15426</end>
            <in>0</in>
            <out>301</out>
            <file id="file-53">
              <name>OrionEp9-052-NA.mp3</name>
              <pathurl>file:///Users/hiroshikodera/repos/_active/tools/davinciauto/projects/OrionEp9/%E3%82%B5%E3%82%A6%E3%83%B3%E3%83%89%E9%A1%9E/Narration/OrionEp9-052-NA.mp3</pathurl>
              <rate>
                <timebase>44100</timebase>
                <ntsc>FALSE</ntsc>
              </rate>
              <media>
                <audio>
                  <channelcount>1</channelcount>
                  <samplecharacteristics>
                    <samplerate>44100</samplerate>
                    <samplesize>16</samplesize>
                  </samplecharacteristics>
                </audio>
              </media>
            </file>
            <sourcetrack>
              <mediatype>audio</mediatype>
              <trackindex>1</trackindex>
            </sourcetrack>
          </clipitem>
          <clipitem id="clipitem-53">
            <name>OrionEp9-053-NA.mp3</name>
            <enabled>TRUE</enabled>
            <duration>152</duration>
            <rate>
              <timebase>30</timebase>
              <ntsc>TRUE</ntsc>
            </rate>
            <start>15442</start>
            <end>15594</end>
            <in>0</in>
            <out>152</out>
            <file id="file-54">
              <name>OrionEp9-053-NA.mp3</name>
              <pathurl>file:///Users/hiroshikodera/repos/_active/tools/davinciauto/projects/OrionEp9/%E3%82%B5%E3%82%A6%E3%83%B3%E3%83%89%E9%A1%9E/Narration/OrionEp9-053-NA.mp3</pathurl>
              <rate>
                <timebase>44100</timebase>
                <ntsc>FALSE</ntsc>
              </rate>
              <media>
                <audio>
                  <channelcount>1</channelcount>
                  <samplecharacteristics>
                    <samplerate>44100</samplerate>
                    <samplesize>16</samplesize>
                  </samplecharacteristics>
                </audio>
              </media>
            </file>
            <sourcetrack>
              <mediatype>audio</mediatype>
              <trackindex>1</trackindex>
            </sourcetrack>
          </clipitem>
          <clipitem id="clipitem-54">
            <name>OrionEp9-054-NA.mp3</name>
            <enabled>TRUE</enabled>
            <duration>220</duration>
            <rate>
              <timebase>30</timebase>
              <ntsc>TRUE</ntsc>
            </rate>
            <start>15607</start>
            <end>15827</end>
            <in>0</in>
            <out>220</out>
            <file id="file-55">
              <name>OrionEp9-054-NA.mp3</name>
              <pathurl>file:///Users/hiroshikodera/repos/_active/tools/davinciauto/projects/OrionEp9/%E3%82%B5%E3%82%A6%E3%83%B3%E3%83%89%E9%A1%9E/Narration/OrionEp9-054-NA.mp3</pathurl>
              <rate>
                <timebase>44100</timebase>
                <ntsc>FALSE</ntsc>
              </rate>
              <media>
                <audio>
                  <channelcount>1</channelcount>
                  <samplecharacteristics>
                    <samplerate>44100</samplerate>
                    <samplesize>16</samplesize>
                  </samplecharacteristics>
                </audio>
              </media>
            </file>
            <sourcetrack>
              <mediatype>audio</mediatype>
              <trackindex>1</trackindex>
            </sourcetrack>
          </clipitem>
          <clipitem id="clipitem-55">
            <name>OrionEp9-055-DL.mp3</name>
            <enabled>TRUE</enabled>
            <duration>215</duration>
            <rate>
              <timebase>30</timebase>
              <ntsc>TRUE</ntsc>
            </rate>
            <start>15841</start>
            <end>16056</end>
            <in>0</in>
            <out>215</out>
            <file id="file-56">
              <name>OrionEp9-055-DL.mp3</name>
              <pathurl>file:///Users/hiroshikodera/repos/_active/tools/davinciauto/projects/OrionEp9/%E3%82%B5%E3%82%A6%E3%83%B3%E3%83%89%E9%A1%9E/Narration/OrionEp9-055-DL.mp3</pathurl>
              <rate>
                <timebase>44100</timebase>
                <ntsc>FALSE</ntsc>
              </rate>
              <media>
                <audio>
                  <channelcount>1</channelcount>
                  <samplecharacteristics>
                    <samplerate>44100</samplerate>
                    <samplesize>16</samplesize>
                  </samplecharacteristics>
                </audio>
              </media>
            </file>
            <sourcetrack>
              <mediatype>audio</mediatype>
              <trackindex>1</trackindex>
            </sourcetrack>
          </clipitem>
          <clipitem id="clipitem-56">
            <name>OrionEp9-056-NA.mp3</name>
            <enabled>TRUE</enabled>
            <duration>292</duration>
            <rate>
              <timebase>30</timebase>
              <ntsc>TRUE</ntsc>
            </rate>
            <start>16078</start>
            <end>16370</end>
            <in>0</in>
            <out>292</out>
            <file id="file-57">
              <name>OrionEp9-056-NA.mp3</name>
              <pathurl>file:///Users/hiroshikodera/repos/_active/tools/davinciauto/projects/OrionEp9/%E3%82%B5%E3%82%A6%E3%83%B3%E3%83%89%E9%A1%9E/Narration/OrionEp9-056-NA.mp3</pathurl>
              <rate>
                <timebase>44100</timebase>
                <ntsc>FALSE</ntsc>
              </rate>
              <media>
                <audio>
                  <channelcount>1</channelcount>
                  <samplecharacteristics>
                    <samplerate>44100</samplerate>
                    <samplesize>16</samplesize>
                  </samplecharacteristics>
                </audio>
              </media>
            </file>
            <sourcetrack>
              <mediatype>audio</mediatype>
              <trackindex>1</trackindex>
            </sourcetrack>
          </clipitem>
          <clipitem id="clipitem-57">
            <name>OrionEp9-057-DL.mp3</name>
            <enabled>TRUE</enabled>
            <duration>120</duration>
            <rate>
              <timebase>30</timebase>
              <ntsc>TRUE</ntsc>
            </rate>
            <start>16386</start>
            <end>16506</end>
            <in>0</in>
            <out>120</out>
            <file id="file-58">
              <name>OrionEp9-057-DL.mp3</name>
              <pathurl>file:///Users/hiroshikodera/repos/_active/tools/davinciauto/projects/OrionEp9/%E3%82%B5%E3%82%A6%E3%83%B3%E3%83%89%E9%A1%9E/Narration/OrionEp9-057-DL.mp3</pathurl>
              <rate>
                <timebase>44100</timebase>
                <ntsc>FALSE</ntsc>
              </rate>
              <media>
                <audio>
                  <channelcount>1</channelcount>
                  <samplecharacteristics>
                    <samplerate>44100</samplerate>
                    <samplesize>16</samplesize>
                  </samplecharacteristics>
                </audio>
              </media>
            </file>
            <sourcetrack>
              <mediatype>audio</mediatype>
              <trackindex>1</trackindex>
            </sourcetrack>
          </clipitem>
          <clipitem id="clipitem-58">
            <name>OrionEp9-058-NA.mp3</name>
            <enabled>TRUE</enabled>
            <duration>253</duration>
            <rate>
              <timebase>30</timebase>
              <ntsc>TRUE</ntsc>
            </rate>
            <start>16526</start>
            <end>16779</end>
            <in>0</in>
            <out>253</out>
            <file id="file-59">
              <name>OrionEp9-058-NA.mp3</name>
              <pathurl>file:///Users/hiroshikodera/repos/_active/tools/davinciauto/projects/OrionEp9/%E3%82%B5%E3%82%A6%E3%83%B3%E3%83%89%E9%A1%9E/Narration/OrionEp9-058-NA.mp3</pathurl>
              <rate>
                <timebase>44100</timebase>
                <ntsc>FALSE</ntsc>
              </rate>
              <media>
                <audio>
                  <channelcount>1</channelcount>
                  <samplecharacteristics>
                    <samplerate>44100</samplerate>
                    <samplesize>16</samplesize>
                  </samplecharacteristics>
                </audio>
              </media>
            </file>
            <sourcetrack>
              <mediatype>audio</mediatype>
              <trackindex>1</trackindex>
            </sourcetrack>
          </clipitem>
          <clipitem id="clipitem-59">
            <name>OrionEp9-059-NA.mp3</name>
            <enabled>TRUE</enabled>
            <duration>308</duration>
            <rate>
              <timebase>30</timebase>
              <ntsc>TRUE</ntsc>
            </rate>
            <start>16795</start>
            <end>17103</end>
            <in>0</in>
            <out>308</out>
            <file id="file-60">
              <name>OrionEp9-059-NA.mp3</name>
              <pathurl>file:///Users/hiroshikodera/repos/_active/tools/davinciauto/projects/OrionEp9/%E3%82%B5%E3%82%A6%E3%83%B3%E3%83%89%E9%A1%9E/Narration/OrionEp9-059-NA.mp3</pathurl>
              <rate>
                <timebase>44100</timebase>
                <ntsc>FALSE</ntsc>
              </rate>
              <media>
                <audio>
                  <channelcount>1</channelcount>
                  <samplecharacteristics>
                    <samplerate>44100</samplerate>
                    <samplesize>16</samplesize>
                  </samplecharacteristics>
                </audio>
              </media>
            </file>
            <sourcetrack>
              <mediatype>audio</mediatype>
              <trackindex>1</trackindex>
            </sourcetrack>
          </clipitem>
          <clipitem id="clipitem-60">
            <name>OrionEp9-060-NA.mp3</name>
            <enabled>TRUE</enabled>
            <duration>152</duration>
            <rate>
              <timebase>30</timebase>
              <ntsc>TRUE</ntsc>
            </rate>
            <start>17119</start>
            <end>17271</end>
            <in>0</in>
            <out>152</out>
            <file id="file-61">
              <name>OrionEp9-060-NA.mp3</name>
              <pathurl>file:///Users/hiroshikodera/repos/_active/tools/davinciauto/projects/OrionEp9/%E3%82%B5%E3%82%A6%E3%83%B3%E3%83%89%E9%A1%9E/Narration/OrionEp9-060-NA.mp3</pathurl>
              <rate>
                <timebase>44100</timebase>
                <ntsc>FALSE</ntsc>
              </rate>
              <media>
                <audio>
                  <channelcount>1</channelcount>
                  <samplecharacteristics>
                    <samplerate>44100</samplerate>
                    <samplesize>16</samplesize>
                  </samplecharacteristics>
                </audio>
              </media>
            </file>
            <sourcetrack>
              <mediatype>audio</mediatype>
              <trackindex>1</trackindex>
            </sourcetrack>
          </clipitem>
          <clipitem id="clipitem-61">
            <name>OrionEp9-061-NA.mp3</name>
            <enabled>TRUE</enabled>
            <duration>437</duration>
            <rate>
              <timebase>30</timebase>
              <ntsc>TRUE</ntsc>
            </rate>
            <start>17285</start>
            <end>17722</end>
            <in>0</in>
            <out>437</out>
            <file id="file-62">
              <name>OrionEp9-061-NA.mp3</name>
              <pathurl>file:///Users/hiroshikodera/repos/_active/tools/davinciauto/projects/OrionEp9/%E3%82%B5%E3%82%A6%E3%83%B3%E3%83%89%E9%A1%9E/Narration/OrionEp9-061-NA.mp3</pathurl>
              <rate>
                <timebase>44100</timebase>
                <ntsc>FALSE</ntsc>
              </rate>
              <media>
                <audio>
                  <channelcount>1</channelcount>
                  <samplecharacteristics>
                    <samplerate>44100</samplerate>
                    <samplesize>16</samplesize>
                  </samplecharacteristics>
                </audio>
              </media>
            </file>
            <sourcetrack>
              <mediatype>audio</mediatype>
              <trackindex>1</trackindex>
            </sourcetrack>
          </clipitem>
          <clipitem id="clipitem-62">
            <name>OrionEp9-062-NA.mp3</name>
            <enabled>TRUE</enabled>
            <duration>330</duration>
            <rate>
              <timebase>30</timebase>
              <ntsc>TRUE</ntsc>
            </rate>
            <start>17740</start>
            <end>18070</end>
            <in>0</in>
            <out>330</out>
            <file id="file-63">
              <name>OrionEp9-062-NA.mp3</name>
              <pathurl>file:///Users/hiroshikodera/repos/_active/tools/davinciauto/projects/OrionEp9/%E3%82%B5%E3%82%A6%E3%83%B3%E3%83%89%E9%A1%9E/Narration/OrionEp9-062-NA.mp3</pathurl>
              <rate>
                <timebase>44100</timebase>
                <ntsc>FALSE</ntsc>
              </rate>
              <media>
                <audio>
                  <channelcount>1</channelcount>
                  <samplecharacteristics>
                    <samplerate>44100</samplerate>
                    <samplesize>16</samplesize>
                  </samplecharacteristics>
                </audio>
              </media>
            </file>
            <sourcetrack>
              <mediatype>audio</mediatype>
              <trackindex>1</trackindex>
            </sourcetrack>
          </clipitem>
          <clipitem id="clipitem-63">
            <name>OrionEp9-063-NA.mp3</name>
            <enabled>TRUE</enabled>
            <duration>163</duration>
            <rate>
              <timebase>30</timebase>
              <ntsc>TRUE</ntsc>
            </rate>
            <start>18086</start>
            <end>18249</end>
            <in>0</in>
            <out>163</out>
            <file id="file-64">
              <name>OrionEp9-063-NA.mp3</name>
              <pathurl>file:///Users/hiroshikodera/repos/_active/tools/davinciauto/projects/OrionEp9/%E3%82%B5%E3%82%A6%E3%83%B3%E3%83%89%E9%A1%9E/Narration/OrionEp9-063-NA.mp3</pathurl>
              <rate>
                <timebase>44100</timebase>
                <ntsc>FALSE</ntsc>
              </rate>
              <media>
                <audio>
                  <channelcount>1</channelcount>
                  <samplecharacteristics>
                    <samplerate>44100</samplerate>
                    <samplesize>16</samplesize>
                  </samplecharacteristics>
                </audio>
              </media>
            </file>
            <sourcetrack>
              <mediatype>audio</mediatype>
              <trackindex>1</trackindex>
            </sourcetrack>
          </clipitem>
          <clipitem id="clipitem-64">
            <name>OrionEp9-064-NA.mp3</name>
            <enabled>TRUE</enabled>
            <duration>122</duration>
            <rate>
              <timebase>30</timebase>
              <ntsc>TRUE</ntsc>
            </rate>
            <start>18262</start>
            <end>18384</end>
            <in>0</in>
            <out>122</out>
            <file id="file-65">
              <name>OrionEp9-064-NA.mp3</name>
              <pathurl>file:///Users/hiroshikodera/repos/_active/tools/davinciauto/projects/OrionEp9/%E3%82%B5%E3%82%A6%E3%83%B3%E3%83%89%E9%A1%9E/Narration/OrionEp9-064-NA.mp3</pathurl>
              <rate>
                <timebase>44100</timebase>
                <ntsc>FALSE</ntsc>
              </rate>
              <media>
                <audio>
                  <channelcount>1</channelcount>
                  <samplecharacteristics>
                    <samplerate>44100</samplerate>
                    <samplesize>16</samplesize>
                  </samplecharacteristics>
                </audio>
              </media>
            </file>
            <sourcetrack>
              <mediatype>audio</mediatype>
              <trackindex>1</trackindex>
            </sourcetrack>
          </clipitem>
          <clipitem id="clipitem-65">
            <name>OrionEp9-065-NA.mp3</name>
            <enabled>TRUE</enabled>
            <duration>426</duration>
            <rate>
              <timebase>30</timebase>
              <ntsc>TRUE</ntsc>
            </rate>
            <start>18407</start>
            <end>18833</end>
            <in>0</in>
            <out>426</out>
            <file id="file-66">
              <name>OrionEp9-065-NA.mp3</name>
              <pathurl>file:///Users/hiroshikodera/repos/_active/tools/davinciauto/projects/OrionEp9/%E3%82%B5%E3%82%A6%E3%83%B3%E3%83%89%E9%A1%9E/Narration/OrionEp9-065-NA.mp3</pathurl>
              <rate>
                <timebase>44100</timebase>
                <ntsc>FALSE</ntsc>
              </rate>
              <media>
                <audio>
                  <channelcount>1</channelcount>
                  <samplecharacteristics>
                    <samplerate>44100</samplerate>
                    <samplesize>16</samplesize>
                  </samplecharacteristics>
                </audio>
              </media>
            </file>
            <sourcetrack>
              <mediatype>audio</mediatype>
              <trackindex>1</trackindex>
            </sourcetrack>
          </clipitem>
        </track>
      </audio>
    </media>
  </sequence>
</xmeml>
