<?xml version="1.0" encoding="UTF-8"?>
<!DOCTYPE xmeml>
<xmeml version="4">
	<sequence id="sequence-8" TL.SQAudioVisibleBase="0" TL.SQVideoVisibleBase="0" TL.SQVisibleBaseTime="8051883840000" TL.SQAVDividerPosition="0.5" TL.SQHideShyTracks="0" TL.SQHeaderWidth="204" TL.SQDataTrackViewControlState="0" Monitor.ProgramZoomOut="1030016051064000" Monitor.ProgramZoomIn="0" TL.SQTimePerPixel="0.0013902777777777776" MZ.EditLine="8253005241600" MZ.Sequence.PreviewFrameSizeHeight="2160" MZ.Sequence.PreviewFrameSizeWidth="3840" MZ.Sequence.AudioTimeDisplayFormat="200" MZ.Sequence.PreviewRenderingClassID="1061109567" MZ.Sequence.PreviewRenderingPresetCodec="1634755443" MZ.Sequence.PreviewRenderingPresetPath="EncoderPresets/SequencePreview/795454d9-d3c2-429d-9474-923ab13b7018/QuickTime.epr" MZ.Sequence.PreviewUseMaxRenderQuality="false" MZ.Sequence.PreviewUseMaxBitDepth="false" MZ.Sequence.EditingModeGUID="795454d9-d3c2-429d-9474-923ab13b7018" MZ.Sequence.VideoTimeDisplayFormat="110" MZ.WorkOutPoint="1046405872512000" MZ.WorkInPoint="0" explodedTracks="true">
		<uuid>06cd0139-f352-431d-8d3c-52f75331ba35</uuid>
		<duration>91254</duration>
		<rate>
			<timebase>24</timebase>
			<ntsc>TRUE</ntsc>
		</rate>
		<name>03_1_cut</name>
		<media>
			<video>
				<format>
					
					
					<samplecharacteristics>
						
						
						<rate>
							
							
							<timebase>24</timebase>
							
							
							<ntsc>TRUE</ntsc>
							
						
						</rate>
						
						
						<codec>
							
							
							<name>Apple ProRes 422</name>
							
							
							<appspecificdata>
								
								
								<appname>Final Cut Pro</appname>
								
								
								<appmanufacturer>Apple Inc.</appmanufacturer>
								
								
								<appversion>7.0</appversion>
								
								
								<data>
									
									
									<qtcodec>
										
										
										<codecname>Apple ProRes 422</codecname>
										
										
										<codectypename>Apple ProRes 422</codectypename>
										
										
										<codectypecode>apcn</codectypecode>
										
										
										<codecvendorcode>appl</codecvendorcode>
										
										
										<spatialquality>1024</spatialquality>
										
										
										<temporalquality>0</temporalquality>
										
										
										<keyframerate>0</keyframerate>
										
										
										<datarate>0</datarate>
										
									
									</qtcodec>
									
								
								</data>
								
							
							</appspecificdata>
							
						
						</codec>
						
						
						<width>3840</width>
						
						
						<height>2160</height>
						
						
						<anamorphic>FALSE</anamorphic>
						
						
						<pixelaspectratio>square</pixelaspectratio>
						
						
						<fielddominance>none</fielddominance>
						
						
						<colordepth>24</colordepth>
						
					
					</samplecharacteristics>
					
				
				</format>
				<track TL.SQTrackShy="0" TL.SQTrackExpandedHeight="41" TL.SQTrackExpanded="0" MZ.TrackTargeted="1">
					<clipitem id="clipitem-335">
						
						
						<masterclipid>masterclip-27</masterclipid>
						
						
						<name>0619_0728.MXF</name>
						
						
						<enabled>TRUE</enabled>
						
						
						<duration>98768</duration>
						
						
						<rate>
							
							
							<timebase>24</timebase>
							
							
							<ntsc>TRUE</ntsc>
							
						
						</rate>
						
						
						<start>120</start>
						
						
						<end>17739</end>
						
						
						<in>2678</in>
						
						
						<out>20297</out>
						
						
						<pproTicksIn>28372295951999</pproTicksIn>
						
						
						<pproTicksOut>215038271448000</pproTicksOut>
						
						
						<alphatype>none</alphatype>
						
						
						<pixelaspectratio>square</pixelaspectratio>
						
						
						<anamorphic>FALSE</anamorphic>
						
						
						<file id="file-27">
							<name>0619_0728.MXF</name>
							<pathurl>file://localhost/Volumes/P-40/liberary2025/0929_1/Acam/private/XDROOT/Clip/0619_0728.MXF</pathurl>
							<rate>
								
								
								<timebase>24</timebase>
								
								
								<ntsc>TRUE</ntsc>
								
							
							</rate>
							<duration>98768</duration>
							<timecode>
								
								
								<rate>
									
									
									<timebase>24</timebase>
									
									
									<ntsc>TRUE</ntsc>
									
								
								</rate>
								
								
								<string>14:08:39:16</string>
								
								
								<frame>1222072</frame>
								
								
								<displayformat>NDF</displayformat>
								
							
							</timecode>
							<media>
								
								
								<video>
									
									
									<samplecharacteristics>
										
										
										<rate>
											
											
											<timebase>24</timebase>
											
											
											<ntsc>TRUE</ntsc>
											
										
										</rate>
										
										
										<width>3840</width>
										
										
										<height>2160</height>
										
										
										<anamorphic>FALSE</anamorphic>
										
										
										<pixelaspectratio>square</pixelaspectratio>
										
										
										<fielddominance>none</fielddominance>
										
									
									</samplecharacteristics>
									
								
								</video>
								
								
								<audio>
									
									
									<samplecharacteristics>
										
										
										<depth>16</depth>
										
										
										<samplerate>48000</samplerate>
										
									
									</samplecharacteristics>
									
									
									<channelcount>4</channelcount>
									
								
								</audio>
								
							
							</media>
						</file>
						<marker>
							
								
							<comment/>
							
								
							<name/>
							
								
							<in>2701</in>
							
								
							<out>-1</out>
							
							
						</marker>
						
						
						<logginginfo>
							
							
							<description/>
							
							
							<scene/>
							
							
							<shottake/>
							
							
							<lognote/>
							
							
							<good/>
							
							
							<originalvideofilename/>
							
							
							<originalaudiofilename/>
							
						
						</logginginfo>
						
						
						<colorinfo>
							
							
							<lut/>
							
							
							<lut1/>
							
							
							<asc_sop/>
							
							
							<asc_sat/>
							
							
							<lut2/>
							
						
						</colorinfo>
						
						
						<labels>
							
							
							<label2>Violet</label2>
							
						
						</labels>
						
					
						<link>
							<linkclipref>clipitem-335</linkclipref>
							<mediatype>video</mediatype>
							<trackindex>1</trackindex>
							<clipindex>1</clipindex>
							<groupindex>1</groupindex>
						</link>
						<link>
							<linkclipref>clipitem-341</linkclipref>
							<mediatype>video</mediatype>
							<trackindex>2</trackindex>
							<clipindex>1</clipindex>
							<groupindex>1</groupindex>
						</link>
						<link>
							<linkclipref>clipitem-347</linkclipref>
							<mediatype>video</mediatype>
							<trackindex>3</trackindex>
							<clipindex>1</clipindex>
							<groupindex>1</groupindex>
						</link>
						<link>
							<linkclipref>clipitem-353</linkclipref>
							<mediatype>audio</mediatype>
							<trackindex>1</trackindex>
							<clipindex>1</clipindex>
							<groupindex>1</groupindex>
						</link>
						<link>
							<linkclipref>clipitem-359</linkclipref>
							<mediatype>audio</mediatype>
							<trackindex>2</trackindex>
							<clipindex>1</clipindex>
							<groupindex>1</groupindex>
						</link>
						<link>
							<linkclipref>clipitem-365</linkclipref>
							<mediatype>audio</mediatype>
							<trackindex>3</trackindex>
							<clipindex>1</clipindex>
							<groupindex>1</groupindex>
						</link>
						<link>
							<linkclipref>clipitem-371</linkclipref>
							<mediatype>audio</mediatype>
							<trackindex>4</trackindex>
							<clipindex>1</clipindex>
							<groupindex>1</groupindex>
						</link>
						<link>
							<linkclipref>clipitem-377</linkclipref>
							<mediatype>audio</mediatype>
							<trackindex>5</trackindex>
							<clipindex>1</clipindex>
							<groupindex>1</groupindex>
						</link>
						<link>
							<linkclipref>clipitem-383</linkclipref>
							<mediatype>audio</mediatype>
							<trackindex>6</trackindex>
							<clipindex>1</clipindex>
							<groupindex>1</groupindex>
						</link>
						<link>
							<linkclipref>clipitem-389</linkclipref>
							<mediatype>audio</mediatype>
							<trackindex>7</trackindex>
							<clipindex>1</clipindex>
							<groupindex>1</groupindex>
						</link>
						<link>
							<linkclipref>clipitem-395</linkclipref>
							<mediatype>audio</mediatype>
							<trackindex>8</trackindex>
							<clipindex>1</clipindex>
							<groupindex>1</groupindex>
						</link>
					</clipitem>
					<clipitem id="clipitem-336">
						
						
						<masterclipid>masterclip-27</masterclipid>
						
						
						<name>0619_0728.MXF</name>
						
						
						<enabled>TRUE</enabled>
						
						
						<duration>98768</duration>
						
						
						<rate>
							
							
							<timebase>24</timebase>
							
							
							<ntsc>TRUE</ntsc>
							
						
						</rate>
						
						
						<start>18101</start>
						
						
						<end>31863</end>
						
						
						<in>21247</in>
						
						
						<out>35009</out>
						
						
						<pproTicksIn>225103126247999</pproTicksIn>
						
						
						<pproTicksOut>370905791256000</pproTicksOut>
						
						
						<alphatype>none</alphatype>
						
						
						<pixelaspectratio>square</pixelaspectratio>
						
						
						<anamorphic>FALSE</anamorphic>
						
						
						<file id="file-27">
							</file>
						
							
						<marker>
							
								
							<comment/>
							
								
							<name/>
							
								
							<in>2701</in>
							
								
							<out>-1</out>
							
							
						</marker>
						
						
						<logginginfo>
							
							
							<description/>
							
							
							<scene/>
							
							
							<shottake/>
							
							
							<lognote/>
							
							
							<good/>
							
							
							<originalvideofilename/>
							
							
							<originalaudiofilename/>
							
						
						</logginginfo>
						
						
						<colorinfo>
							
							
							<lut/>
							
							
							<lut1/>
							
							
							<asc_sop/>
							
							
							<asc_sat/>
							
							
							<lut2/>
							
						
						</colorinfo>
						
						
						<labels>
							
							
							<label2>Rose</label2>
							
						
						</labels>
						
					
						<link>
							<linkclipref>clipitem-336</linkclipref>
							<mediatype>video</mediatype>
							<trackindex>1</trackindex>
							<clipindex>2</clipindex>
							<groupindex>1</groupindex>
						</link>
						<link>
							<linkclipref>clipitem-342</linkclipref>
							<mediatype>video</mediatype>
							<trackindex>2</trackindex>
							<clipindex>2</clipindex>
							<groupindex>1</groupindex>
						</link>
						<link>
							<linkclipref>clipitem-348</linkclipref>
							<mediatype>video</mediatype>
							<trackindex>3</trackindex>
							<clipindex>2</clipindex>
							<groupindex>1</groupindex>
						</link>
						<link>
							<linkclipref>clipitem-354</linkclipref>
							<mediatype>audio</mediatype>
							<trackindex>1</trackindex>
							<clipindex>2</clipindex>
							<groupindex>1</groupindex>
						</link>
						<link>
							<linkclipref>clipitem-360</linkclipref>
							<mediatype>audio</mediatype>
							<trackindex>2</trackindex>
							<clipindex>2</clipindex>
							<groupindex>1</groupindex>
						</link>
						<link>
							<linkclipref>clipitem-366</linkclipref>
							<mediatype>audio</mediatype>
							<trackindex>3</trackindex>
							<clipindex>2</clipindex>
							<groupindex>1</groupindex>
						</link>
						<link>
							<linkclipref>clipitem-372</linkclipref>
							<mediatype>audio</mediatype>
							<trackindex>4</trackindex>
							<clipindex>2</clipindex>
							<groupindex>1</groupindex>
						</link>
						<link>
							<linkclipref>clipitem-378</linkclipref>
							<mediatype>audio</mediatype>
							<trackindex>5</trackindex>
							<clipindex>2</clipindex>
							<groupindex>1</groupindex>
						</link>
						<link>
							<linkclipref>clipitem-384</linkclipref>
							<mediatype>audio</mediatype>
							<trackindex>6</trackindex>
							<clipindex>2</clipindex>
							<groupindex>1</groupindex>
						</link>
						<link>
							<linkclipref>clipitem-390</linkclipref>
							<mediatype>audio</mediatype>
							<trackindex>7</trackindex>
							<clipindex>2</clipindex>
							<groupindex>1</groupindex>
						</link>
						<link>
							<linkclipref>clipitem-396</linkclipref>
							<mediatype>audio</mediatype>
							<trackindex>8</trackindex>
							<clipindex>2</clipindex>
							<groupindex>1</groupindex>
						</link>
					</clipitem>
					<clipitem id="clipitem-337">
						
						
						<masterclipid>masterclip-27</masterclipid>
						
						
						<name>0619_0728.MXF</name>
						
						
						<enabled>TRUE</enabled>
						
						
						<duration>98768</duration>
						
						
						<rate>
							
							
							<timebase>24</timebase>
							
							
							<ntsc>TRUE</ntsc>
							
						
						</rate>
						
						
						<start>32225</start>
						
						
						<end>47985</end>
						
						
						<in>36229</in>
						
						
						<out>51989</out>
						
						
						<pproTicksIn>383831183736000</pproTicksIn>
						
						
						<pproTicksOut>550801827576000</pproTicksOut>
						
						
						<alphatype>none</alphatype>
						
						
						<pixelaspectratio>square</pixelaspectratio>
						
						
						<anamorphic>FALSE</anamorphic>
						
						
						<file id="file-27">
							</file>
						
							
						<marker>
							
								
							<comment/>
							
								
							<name/>
							
								
							<in>2701</in>
							
								
							<out>-1</out>
							
							
						</marker>
						
						
						<logginginfo>
							
							
							<description/>
							
							
							<scene/>
							
							
							<shottake/>
							
							
							<lognote/>
							
							
							<good/>
							
							
							<originalvideofilename/>
							
							
							<originalaudiofilename/>
							
						
						</logginginfo>
						
						
						<colorinfo>
							
							
							<lut/>
							
							
							<lut1/>
							
							
							<asc_sop/>
							
							
							<asc_sat/>
							
							
							<lut2/>
							
						
						</colorinfo>
						
						
						<labels>
							
							
							<label2>Mango</label2>
							
						
						</labels>
						
					
						<link>
							<linkclipref>clipitem-337</linkclipref>
							<mediatype>video</mediatype>
							<trackindex>1</trackindex>
							<clipindex>3</clipindex>
							<groupindex>1</groupindex>
						</link>
						<link>
							<linkclipref>clipitem-343</linkclipref>
							<mediatype>video</mediatype>
							<trackindex>2</trackindex>
							<clipindex>3</clipindex>
							<groupindex>1</groupindex>
						</link>
						<link>
							<linkclipref>clipitem-349</linkclipref>
							<mediatype>video</mediatype>
							<trackindex>3</trackindex>
							<clipindex>3</clipindex>
							<groupindex>1</groupindex>
						</link>
						<link>
							<linkclipref>clipitem-355</linkclipref>
							<mediatype>audio</mediatype>
							<trackindex>1</trackindex>
							<clipindex>3</clipindex>
							<groupindex>1</groupindex>
						</link>
						<link>
							<linkclipref>clipitem-361</linkclipref>
							<mediatype>audio</mediatype>
							<trackindex>2</trackindex>
							<clipindex>3</clipindex>
							<groupindex>1</groupindex>
						</link>
						<link>
							<linkclipref>clipitem-367</linkclipref>
							<mediatype>audio</mediatype>
							<trackindex>3</trackindex>
							<clipindex>3</clipindex>
							<groupindex>1</groupindex>
						</link>
						<link>
							<linkclipref>clipitem-373</linkclipref>
							<mediatype>audio</mediatype>
							<trackindex>4</trackindex>
							<clipindex>3</clipindex>
							<groupindex>1</groupindex>
						</link>
						<link>
							<linkclipref>clipitem-379</linkclipref>
							<mediatype>audio</mediatype>
							<trackindex>5</trackindex>
							<clipindex>3</clipindex>
							<groupindex>1</groupindex>
						</link>
						<link>
							<linkclipref>clipitem-385</linkclipref>
							<mediatype>audio</mediatype>
							<trackindex>6</trackindex>
							<clipindex>3</clipindex>
							<groupindex>1</groupindex>
						</link>
						<link>
							<linkclipref>clipitem-391</linkclipref>
							<mediatype>audio</mediatype>
							<trackindex>7</trackindex>
							<clipindex>3</clipindex>
							<groupindex>1</groupindex>
						</link>
						<link>
							<linkclipref>clipitem-397</linkclipref>
							<mediatype>audio</mediatype>
							<trackindex>8</trackindex>
							<clipindex>3</clipindex>
							<groupindex>1</groupindex>
						</link>
					</clipitem>
					<clipitem id="clipitem-338">
						
						
						<masterclipid>masterclip-27</masterclipid>
						
						
						<name>0619_0728.MXF</name>
						
						
						<enabled>TRUE</enabled>
						
						
						<duration>98768</duration>
						
						
						<rate>
							
							
							<timebase>24</timebase>
							
							
							<ntsc>TRUE</ntsc>
							
						
						</rate>
						
						
						<start>48347</start>
						
						
						<end>62769</end>
						
						
						<in>53301</in>
						
						
						<out>67723</out>
						
						
						<pproTicksIn>564701921784000</pproTicksIn>
						
						
						<pproTicksOut>717497012232000</pproTicksOut>
						
						
						<alphatype>none</alphatype>
						
						
						<pixelaspectratio>square</pixelaspectratio>
						
						
						<anamorphic>FALSE</anamorphic>
						
						
						<file id="file-27">
							</file>
						
							
						<marker>
							
								
							<comment/>
							
								
							<name/>
							
								
							<in>2701</in>
							
								
							<out>-1</out>
							
							
						</marker>
						
						
						<logginginfo>
							
							
							<description/>
							
							
							<scene/>
							
							
							<shottake/>
							
							
							<lognote/>
							
							
							<good/>
							
							
							<originalvideofilename/>
							
							
							<originalaudiofilename/>
							
						
						</logginginfo>
						
						
						<colorinfo>
							
							
							<lut/>
							
							
							<lut1/>
							
							
							<asc_sop/>
							
							
							<asc_sat/>
							
							
							<lut2/>
							
						
						</colorinfo>
						
						
						<labels>
							
							
							<label2>Yellow</label2>
							
						
						</labels>
						
					
						<link>
							<linkclipref>clipitem-338</linkclipref>
							<mediatype>video</mediatype>
							<trackindex>1</trackindex>
							<clipindex>4</clipindex>
							<groupindex>1</groupindex>
						</link>
						<link>
							<linkclipref>clipitem-344</linkclipref>
							<mediatype>video</mediatype>
							<trackindex>2</trackindex>
							<clipindex>4</clipindex>
							<groupindex>1</groupindex>
						</link>
						<link>
							<linkclipref>clipitem-350</linkclipref>
							<mediatype>video</mediatype>
							<trackindex>3</trackindex>
							<clipindex>4</clipindex>
							<groupindex>1</groupindex>
						</link>
						<link>
							<linkclipref>clipitem-356</linkclipref>
							<mediatype>audio</mediatype>
							<trackindex>1</trackindex>
							<clipindex>4</clipindex>
							<groupindex>1</groupindex>
						</link>
						<link>
							<linkclipref>clipitem-362</linkclipref>
							<mediatype>audio</mediatype>
							<trackindex>2</trackindex>
							<clipindex>4</clipindex>
							<groupindex>1</groupindex>
						</link>
						<link>
							<linkclipref>clipitem-368</linkclipref>
							<mediatype>audio</mediatype>
							<trackindex>3</trackindex>
							<clipindex>4</clipindex>
							<groupindex>1</groupindex>
						</link>
						<link>
							<linkclipref>clipitem-374</linkclipref>
							<mediatype>audio</mediatype>
							<trackindex>4</trackindex>
							<clipindex>4</clipindex>
							<groupindex>1</groupindex>
						</link>
						<link>
							<linkclipref>clipitem-380</linkclipref>
							<mediatype>audio</mediatype>
							<trackindex>5</trackindex>
							<clipindex>4</clipindex>
							<groupindex>1</groupindex>
						</link>
						<link>
							<linkclipref>clipitem-386</linkclipref>
							<mediatype>audio</mediatype>
							<trackindex>6</trackindex>
							<clipindex>4</clipindex>
							<groupindex>1</groupindex>
						</link>
						<link>
							<linkclipref>clipitem-392</linkclipref>
							<mediatype>audio</mediatype>
							<trackindex>7</trackindex>
							<clipindex>4</clipindex>
							<groupindex>1</groupindex>
						</link>
						<link>
							<linkclipref>clipitem-398</linkclipref>
							<mediatype>audio</mediatype>
							<trackindex>8</trackindex>
							<clipindex>4</clipindex>
							<groupindex>1</groupindex>
						</link>
					</clipitem>
					<clipitem id="clipitem-339">
						
						
						<masterclipid>masterclip-27</masterclipid>
						
						
						<name>0619_0728.MXF</name>
						
						
						<enabled>TRUE</enabled>
						
						
						<duration>98768</duration>
						
						
						<rate>
							
							
							<timebase>24</timebase>
							
							
							<ntsc>TRUE</ntsc>
							
						
						</rate>
						
						
						<start>63131</start>
						
						
						<end>75322</end>
						
						
						<in>68306</in>
						
						
						<out>80497</out>
						
						
						<pproTicksIn>723673654703999</pproTicksIn>
						
						
						<pproTicksOut>852832228247999</pproTicksOut>
						
						
						<alphatype>none</alphatype>
						
						
						<pixelaspectratio>square</pixelaspectratio>
						
						
						<anamorphic>FALSE</anamorphic>
						
						
						<file id="file-27">
							</file>
						
							
						<marker>
							
								
							<comment/>
							
								
							<name/>
							
								
							<in>2701</in>
							
								
							<out>-1</out>
							
							
						</marker>
						
						
						<logginginfo>
							
							
							<description/>
							
							
							<scene/>
							
							
							<shottake/>
							
							
							<lognote/>
							
							
							<good/>
							
							
							<originalvideofilename/>
							
							
							<originalaudiofilename/>
							
						
						</logginginfo>
						
						
						<colorinfo>
							
							
							<lut/>
							
							
							<lut1/>
							
							
							<asc_sop/>
							
							
							<asc_sat/>
							
							
							<lut2/>
							
						
						</colorinfo>
						
						
						<labels>
							
							
							<label2>Lavender</label2>
							
						
						</labels>
						
					
						<link>
							<linkclipref>clipitem-339</linkclipref>
							<mediatype>video</mediatype>
							<trackindex>1</trackindex>
							<clipindex>5</clipindex>
							<groupindex>1</groupindex>
						</link>
						<link>
							<linkclipref>clipitem-345</linkclipref>
							<mediatype>video</mediatype>
							<trackindex>2</trackindex>
							<clipindex>5</clipindex>
							<groupindex>1</groupindex>
						</link>
						<link>
							<linkclipref>clipitem-351</linkclipref>
							<mediatype>video</mediatype>
							<trackindex>3</trackindex>
							<clipindex>5</clipindex>
							<groupindex>1</groupindex>
						</link>
						<link>
							<linkclipref>clipitem-357</linkclipref>
							<mediatype>audio</mediatype>
							<trackindex>1</trackindex>
							<clipindex>5</clipindex>
							<groupindex>1</groupindex>
						</link>
						<link>
							<linkclipref>clipitem-363</linkclipref>
							<mediatype>audio</mediatype>
							<trackindex>2</trackindex>
							<clipindex>5</clipindex>
							<groupindex>1</groupindex>
						</link>
						<link>
							<linkclipref>clipitem-369</linkclipref>
							<mediatype>audio</mediatype>
							<trackindex>3</trackindex>
							<clipindex>5</clipindex>
							<groupindex>1</groupindex>
						</link>
						<link>
							<linkclipref>clipitem-375</linkclipref>
							<mediatype>audio</mediatype>
							<trackindex>4</trackindex>
							<clipindex>5</clipindex>
							<groupindex>1</groupindex>
						</link>
						<link>
							<linkclipref>clipitem-381</linkclipref>
							<mediatype>audio</mediatype>
							<trackindex>5</trackindex>
							<clipindex>5</clipindex>
							<groupindex>1</groupindex>
						</link>
						<link>
							<linkclipref>clipitem-387</linkclipref>
							<mediatype>audio</mediatype>
							<trackindex>6</trackindex>
							<clipindex>5</clipindex>
							<groupindex>1</groupindex>
						</link>
						<link>
							<linkclipref>clipitem-393</linkclipref>
							<mediatype>audio</mediatype>
							<trackindex>7</trackindex>
							<clipindex>5</clipindex>
							<groupindex>1</groupindex>
						</link>
						<link>
							<linkclipref>clipitem-399</linkclipref>
							<mediatype>audio</mediatype>
							<trackindex>8</trackindex>
							<clipindex>5</clipindex>
							<groupindex>1</groupindex>
						</link>
					</clipitem>
					<clipitem id="clipitem-340">
						
						
						<masterclipid>masterclip-27</masterclipid>
						
						
						<name>0619_0728.MXF</name>
						
						
						<enabled>TRUE</enabled>
						
						
						<duration>98768</duration>
						
						
						<rate>
							
							
							<timebase>24</timebase>
							
							
							<ntsc>TRUE</ntsc>
							
						
						</rate>
						
						
						<start>75684</start>
						
						
						<end>91254</end>
						
						
						<in>82112</in>
						
						
						<out>97682</out>
						
						
						<pproTicksIn>869942481407999</pproTicksIn>
						
						
						<pproTicksOut>1034900154288000</pproTicksOut>
						
						
						<alphatype>none</alphatype>
						
						
						<pixelaspectratio>square</pixelaspectratio>
						
						
						<anamorphic>FALSE</anamorphic>
						
						
						<file id="file-27">
							</file>
						
							
						<marker>
							
								
							<comment/>
							
								
							<name/>
							
								
							<in>2701</in>
							
								
							<out>-1</out>
							
							
						</marker>
						
						
						<logginginfo>
							
							
							<description/>
							
							
							<scene/>
							
							
							<shottake/>
							
							
							<lognote/>
							
							
							<good/>
							
							
							<originalvideofilename/>
							
							
							<originalaudiofilename/>
							
						
						</logginginfo>
						
						
						<colorinfo>
							
							
							<lut/>
							
							
							<lut1/>
							
							
							<asc_sop/>
							
							
							<asc_sat/>
							
							
							<lut2/>
							
						
						</colorinfo>
						
						
						<labels>
							
							
							<label2>Caribbean</label2>
							
						
						</labels>
						
					
						<link>
							<linkclipref>clipitem-340</linkclipref>
							<mediatype>video</mediatype>
							<trackindex>1</trackindex>
							<clipindex>6</clipindex>
							<groupindex>1</groupindex>
						</link>
						<link>
							<linkclipref>clipitem-346</linkclipref>
							<mediatype>video</mediatype>
							<trackindex>2</trackindex>
							<clipindex>6</clipindex>
							<groupindex>1</groupindex>
						</link>
						<link>
							<linkclipref>clipitem-352</linkclipref>
							<mediatype>video</mediatype>
							<trackindex>3</trackindex>
							<clipindex>6</clipindex>
							<groupindex>1</groupindex>
						</link>
						<link>
							<linkclipref>clipitem-358</linkclipref>
							<mediatype>audio</mediatype>
							<trackindex>1</trackindex>
							<clipindex>6</clipindex>
							<groupindex>1</groupindex>
						</link>
						<link>
							<linkclipref>clipitem-364</linkclipref>
							<mediatype>audio</mediatype>
							<trackindex>2</trackindex>
							<clipindex>6</clipindex>
							<groupindex>1</groupindex>
						</link>
						<link>
							<linkclipref>clipitem-370</linkclipref>
							<mediatype>audio</mediatype>
							<trackindex>3</trackindex>
							<clipindex>6</clipindex>
							<groupindex>1</groupindex>
						</link>
						<link>
							<linkclipref>clipitem-376</linkclipref>
							<mediatype>audio</mediatype>
							<trackindex>4</trackindex>
							<clipindex>6</clipindex>
							<groupindex>1</groupindex>
						</link>
						<link>
							<linkclipref>clipitem-382</linkclipref>
							<mediatype>audio</mediatype>
							<trackindex>5</trackindex>
							<clipindex>6</clipindex>
							<groupindex>1</groupindex>
						</link>
						<link>
							<linkclipref>clipitem-388</linkclipref>
							<mediatype>audio</mediatype>
							<trackindex>6</trackindex>
							<clipindex>6</clipindex>
							<groupindex>1</groupindex>
						</link>
						<link>
							<linkclipref>clipitem-394</linkclipref>
							<mediatype>audio</mediatype>
							<trackindex>7</trackindex>
							<clipindex>6</clipindex>
							<groupindex>1</groupindex>
						</link>
						<link>
							<linkclipref>clipitem-400</linkclipref>
							<mediatype>audio</mediatype>
							<trackindex>8</trackindex>
							<clipindex>6</clipindex>
							<groupindex>1</groupindex>
						</link>
					</clipitem>
					<enabled>TRUE</enabled>
					<locked>FALSE</locked>
				</track>
				<track TL.SQTrackShy="0" TL.SQTrackExpandedHeight="41" TL.SQTrackExpanded="0" MZ.TrackTargeted="1">
					<clipitem id="clipitem-341">
						
						
						<masterclipid>masterclip-28</masterclipid>
						
						
						<name>C4171.MP4</name>
						
						
						<enabled>TRUE</enabled>
						
						
						<duration>98724</duration>
						
						
						<rate>
							
							
							<timebase>24</timebase>
							
							
							<ntsc>TRUE</ntsc>
							
						
						</rate>
						
						
						<start>120</start>
						
						
						<end>17739</end>
						
						
						<in>2578</in>
						
						
						<out>20197</out>
						
						
						<pproTicksIn>27312837551999</pproTicksIn>
						
						
						<pproTicksOut>213978813048000</pproTicksOut>
						
						
						<alphatype>none</alphatype>
						
						
						<pixelaspectratio>square</pixelaspectratio>
						
						
						<anamorphic>FALSE</anamorphic>
						
						
						<file id="file-28">
							<name>C4171.MP4</name>
							<pathurl>file://localhost/Volumes/P-40/liberary2025/0929_1/Bcam/PRIVATE/M4ROOT/CLIP/C4171.MP4</pathurl>
							<rate>
								
								
								<timebase>24</timebase>
								
								
								<ntsc>TRUE</ntsc>
								
							
							</rate>
							<duration>98724</duration>
							<timecode>
								
								
								<rate>
									
									
									<timebase>24</timebase>
									
									
									<ntsc>TRUE</ntsc>
									
								
								</rate>
								
								
								<string>14:08:43:20</string>
								
								
								<frame>1222172</frame>
								
								
								<displayformat>NDF</displayformat>
								
							
							</timecode>
							<media>
								
								
								<video>
									
									
									<samplecharacteristics>
										
										
										<rate>
											
											
											<timebase>24</timebase>
											
											
											<ntsc>TRUE</ntsc>
											
										
										</rate>
										
										
										<width>3840</width>
										
										
										<height>2160</height>
										
										
										<anamorphic>FALSE</anamorphic>
										
										
										<pixelaspectratio>square</pixelaspectratio>
										
										
										<fielddominance>none</fielddominance>
										
									
									</samplecharacteristics>
									
								
								</video>
								
								
								<audio>
									
									
									<samplecharacteristics>
										
										
										<depth>16</depth>
										
										
										<samplerate>48000</samplerate>
										
									
									</samplecharacteristics>
									
									
									<channelcount>2</channelcount>
									
								
								</audio>
								
							
							</media>
						</file>
						<marker>
							
								
							<comment/>
							
								
							<name/>
							
								
							<in>2601</in>
							
								
							<out>-1</out>
							
							
						</marker>
						
						
						<logginginfo>
							
							
							<description/>
							
							
							<scene/>
							
							
							<shottake/>
							
							
							<lognote/>
							
							
							<good/>
							
							
							<originalvideofilename/>
							
							
							<originalaudiofilename/>
							
						
						</logginginfo>
						
						
						<colorinfo>
							
							
							<lut/>
							
							
							<lut1/>
							
							
							<asc_sop/>
							
							
							<asc_sat/>
							
							
							<lut2/>
							
						
						</colorinfo>
						
						
						<labels>
							
							
							<label2>Violet</label2>
							
						
						</labels>
						
					
						<link>
							<linkclipref>clipitem-335</linkclipref>
							<mediatype>video</mediatype>
							<trackindex>1</trackindex>
							<clipindex>1</clipindex>
							<groupindex>1</groupindex>
						</link>
						<link>
							<linkclipref>clipitem-341</linkclipref>
							<mediatype>video</mediatype>
							<trackindex>2</trackindex>
							<clipindex>1</clipindex>
							<groupindex>1</groupindex>
						</link>
						<link>
							<linkclipref>clipitem-347</linkclipref>
							<mediatype>video</mediatype>
							<trackindex>3</trackindex>
							<clipindex>1</clipindex>
							<groupindex>1</groupindex>
						</link>
						<link>
							<linkclipref>clipitem-353</linkclipref>
							<mediatype>audio</mediatype>
							<trackindex>1</trackindex>
							<clipindex>1</clipindex>
							<groupindex>1</groupindex>
						</link>
						<link>
							<linkclipref>clipitem-359</linkclipref>
							<mediatype>audio</mediatype>
							<trackindex>2</trackindex>
							<clipindex>1</clipindex>
							<groupindex>1</groupindex>
						</link>
						<link>
							<linkclipref>clipitem-365</linkclipref>
							<mediatype>audio</mediatype>
							<trackindex>3</trackindex>
							<clipindex>1</clipindex>
							<groupindex>1</groupindex>
						</link>
						<link>
							<linkclipref>clipitem-371</linkclipref>
							<mediatype>audio</mediatype>
							<trackindex>4</trackindex>
							<clipindex>1</clipindex>
							<groupindex>1</groupindex>
						</link>
						<link>
							<linkclipref>clipitem-377</linkclipref>
							<mediatype>audio</mediatype>
							<trackindex>5</trackindex>
							<clipindex>1</clipindex>
							<groupindex>1</groupindex>
						</link>
						<link>
							<linkclipref>clipitem-383</linkclipref>
							<mediatype>audio</mediatype>
							<trackindex>6</trackindex>
							<clipindex>1</clipindex>
							<groupindex>1</groupindex>
						</link>
						<link>
							<linkclipref>clipitem-389</linkclipref>
							<mediatype>audio</mediatype>
							<trackindex>7</trackindex>
							<clipindex>1</clipindex>
							<groupindex>1</groupindex>
						</link>
						<link>
							<linkclipref>clipitem-395</linkclipref>
							<mediatype>audio</mediatype>
							<trackindex>8</trackindex>
							<clipindex>1</clipindex>
							<groupindex>1</groupindex>
						</link>
					</clipitem>
					<clipitem id="clipitem-342">
						
						
						<masterclipid>masterclip-28</masterclipid>
						
						
						<name>C4171.MP4</name>
						
						
						<enabled>TRUE</enabled>
						
						
						<duration>98724</duration>
						
						
						<rate>
							
							
							<timebase>24</timebase>
							
							
							<ntsc>TRUE</ntsc>
							
						
						</rate>
						
						
						<start>18101</start>
						
						
						<end>31863</end>
						
						
						<in>21147</in>
						
						
						<out>34909</out>
						
						
						<pproTicksIn>224043667847999</pproTicksIn>
						
						
						<pproTicksOut>369846332856000</pproTicksOut>
						
						
						<alphatype>none</alphatype>
						
						
						<pixelaspectratio>square</pixelaspectratio>
						
						
						<anamorphic>FALSE</anamorphic>
						
						
						<file id="file-28">
							</file>
						
							
						<marker>
							
								
							<comment/>
							
								
							<name/>
							
								
							<in>2601</in>
							
								
							<out>-1</out>
							
							
						</marker>
						
						
						<logginginfo>
							
							
							<description/>
							
							
							<scene/>
							
							
							<shottake/>
							
							
							<lognote/>
							
							
							<good/>
							
							
							<originalvideofilename/>
							
							
							<originalaudiofilename/>
							
						
						</logginginfo>
						
						
						<colorinfo>
							
							
							<lut/>
							
							
							<lut1/>
							
							
							<asc_sop/>
							
							
							<asc_sat/>
							
							
							<lut2/>
							
						
						</colorinfo>
						
						
						<labels>
							
							
							<label2>Rose</label2>
							
						
						</labels>
						
					
						<link>
							<linkclipref>clipitem-336</linkclipref>
							<mediatype>video</mediatype>
							<trackindex>1</trackindex>
							<clipindex>2</clipindex>
							<groupindex>1</groupindex>
						</link>
						<link>
							<linkclipref>clipitem-342</linkclipref>
							<mediatype>video</mediatype>
							<trackindex>2</trackindex>
							<clipindex>2</clipindex>
							<groupindex>1</groupindex>
						</link>
						<link>
							<linkclipref>clipitem-348</linkclipref>
							<mediatype>video</mediatype>
							<trackindex>3</trackindex>
							<clipindex>2</clipindex>
							<groupindex>1</groupindex>
						</link>
						<link>
							<linkclipref>clipitem-354</linkclipref>
							<mediatype>audio</mediatype>
							<trackindex>1</trackindex>
							<clipindex>2</clipindex>
							<groupindex>1</groupindex>
						</link>
						<link>
							<linkclipref>clipitem-360</linkclipref>
							<mediatype>audio</mediatype>
							<trackindex>2</trackindex>
							<clipindex>2</clipindex>
							<groupindex>1</groupindex>
						</link>
						<link>
							<linkclipref>clipitem-366</linkclipref>
							<mediatype>audio</mediatype>
							<trackindex>3</trackindex>
							<clipindex>2</clipindex>
							<groupindex>1</groupindex>
						</link>
						<link>
							<linkclipref>clipitem-372</linkclipref>
							<mediatype>audio</mediatype>
							<trackindex>4</trackindex>
							<clipindex>2</clipindex>
							<groupindex>1</groupindex>
						</link>
						<link>
							<linkclipref>clipitem-378</linkclipref>
							<mediatype>audio</mediatype>
							<trackindex>5</trackindex>
							<clipindex>2</clipindex>
							<groupindex>1</groupindex>
						</link>
						<link>
							<linkclipref>clipitem-384</linkclipref>
							<mediatype>audio</mediatype>
							<trackindex>6</trackindex>
							<clipindex>2</clipindex>
							<groupindex>1</groupindex>
						</link>
						<link>
							<linkclipref>clipitem-390</linkclipref>
							<mediatype>audio</mediatype>
							<trackindex>7</trackindex>
							<clipindex>2</clipindex>
							<groupindex>1</groupindex>
						</link>
						<link>
							<linkclipref>clipitem-396</linkclipref>
							<mediatype>audio</mediatype>
							<trackindex>8</trackindex>
							<clipindex>2</clipindex>
							<groupindex>1</groupindex>
						</link>
					</clipitem>
					<clipitem id="clipitem-343">
						
						
						<masterclipid>masterclip-28</masterclipid>
						
						
						<name>C4171.MP4</name>
						
						
						<enabled>TRUE</enabled>
						
						
						<duration>98724</duration>
						
						
						<rate>
							
							
							<timebase>24</timebase>
							
							
							<ntsc>TRUE</ntsc>
							
						
						</rate>
						
						
						<start>32225</start>
						
						
						<end>47985</end>
						
						
						<in>36129</in>
						
						
						<out>51889</out>
						
						
						<pproTicksIn>382771725336000</pproTicksIn>
						
						
						<pproTicksOut>549742369175999</pproTicksOut>
						
						
						<alphatype>none</alphatype>
						
						
						<pixelaspectratio>square</pixelaspectratio>
						
						
						<anamorphic>FALSE</anamorphic>
						
						
						<file id="file-28">
							</file>
						
							
						<marker>
							
								
							<comment/>
							
								
							<name/>
							
								
							<in>2601</in>
							
								
							<out>-1</out>
							
							
						</marker>
						
						
						<logginginfo>
							
							
							<description/>
							
							
							<scene/>
							
							
							<shottake/>
							
							
							<lognote/>
							
							
							<good/>
							
							
							<originalvideofilename/>
							
							
							<originalaudiofilename/>
							
						
						</logginginfo>
						
						
						<colorinfo>
							
							
							<lut/>
							
							
							<lut1/>
							
							
							<asc_sop/>
							
							
							<asc_sat/>
							
							
							<lut2/>
							
						
						</colorinfo>
						
						
						<labels>
							
							
							<label2>Mango</label2>
							
						
						</labels>
						
					
						<link>
							<linkclipref>clipitem-337</linkclipref>
							<mediatype>video</mediatype>
							<trackindex>1</trackindex>
							<clipindex>3</clipindex>
							<groupindex>1</groupindex>
						</link>
						<link>
							<linkclipref>clipitem-343</linkclipref>
							<mediatype>video</mediatype>
							<trackindex>2</trackindex>
							<clipindex>3</clipindex>
							<groupindex>1</groupindex>
						</link>
						<link>
							<linkclipref>clipitem-349</linkclipref>
							<mediatype>video</mediatype>
							<trackindex>3</trackindex>
							<clipindex>3</clipindex>
							<groupindex>1</groupindex>
						</link>
						<link>
							<linkclipref>clipitem-355</linkclipref>
							<mediatype>audio</mediatype>
							<trackindex>1</trackindex>
							<clipindex>3</clipindex>
							<groupindex>1</groupindex>
						</link>
						<link>
							<linkclipref>clipitem-361</linkclipref>
							<mediatype>audio</mediatype>
							<trackindex>2</trackindex>
							<clipindex>3</clipindex>
							<groupindex>1</groupindex>
						</link>
						<link>
							<linkclipref>clipitem-367</linkclipref>
							<mediatype>audio</mediatype>
							<trackindex>3</trackindex>
							<clipindex>3</clipindex>
							<groupindex>1</groupindex>
						</link>
						<link>
							<linkclipref>clipitem-373</linkclipref>
							<mediatype>audio</mediatype>
							<trackindex>4</trackindex>
							<clipindex>3</clipindex>
							<groupindex>1</groupindex>
						</link>
						<link>
							<linkclipref>clipitem-379</linkclipref>
							<mediatype>audio</mediatype>
							<trackindex>5</trackindex>
							<clipindex>3</clipindex>
							<groupindex>1</groupindex>
						</link>
						<link>
							<linkclipref>clipitem-385</linkclipref>
							<mediatype>audio</mediatype>
							<trackindex>6</trackindex>
							<clipindex>3</clipindex>
							<groupindex>1</groupindex>
						</link>
						<link>
							<linkclipref>clipitem-391</linkclipref>
							<mediatype>audio</mediatype>
							<trackindex>7</trackindex>
							<clipindex>3</clipindex>
							<groupindex>1</groupindex>
						</link>
						<link>
							<linkclipref>clipitem-397</linkclipref>
							<mediatype>audio</mediatype>
							<trackindex>8</trackindex>
							<clipindex>3</clipindex>
							<groupindex>1</groupindex>
						</link>
					</clipitem>
					<clipitem id="clipitem-344">
						
						
						<masterclipid>masterclip-28</masterclipid>
						
						
						<name>C4171.MP4</name>
						
						
						<enabled>TRUE</enabled>
						
						
						<duration>98724</duration>
						
						
						<rate>
							
							
							<timebase>24</timebase>
							
							
							<ntsc>TRUE</ntsc>
							
						
						</rate>
						
						
						<start>48347</start>
						
						
						<end>62769</end>
						
						
						<in>53201</in>
						
						
						<out>67623</out>
						
						
						<pproTicksIn>563642463383999</pproTicksIn>
						
						
						<pproTicksOut>716437553831999</pproTicksOut>
						
						
						<alphatype>none</alphatype>
						
						
						<pixelaspectratio>square</pixelaspectratio>
						
						
						<anamorphic>FALSE</anamorphic>
						
						
						<file id="file-28">
							</file>
						
							
						<marker>
							
								
							<comment/>
							
								
							<name/>
							
								
							<in>2601</in>
							
								
							<out>-1</out>
							
							
						</marker>
						
						
						<logginginfo>
							
							
							<description/>
							
							
							<scene/>
							
							
							<shottake/>
							
							
							<lognote/>
							
							
							<good/>
							
							
							<originalvideofilename/>
							
							
							<originalaudiofilename/>
							
						
						</logginginfo>
						
						
						<colorinfo>
							
							
							<lut/>
							
							
							<lut1/>
							
							
							<asc_sop/>
							
							
							<asc_sat/>
							
							
							<lut2/>
							
						
						</colorinfo>
						
						
						<labels>
							
							
							<label2>Yellow</label2>
							
						
						</labels>
						
					
						<link>
							<linkclipref>clipitem-338</linkclipref>
							<mediatype>video</mediatype>
							<trackindex>1</trackindex>
							<clipindex>4</clipindex>
							<groupindex>1</groupindex>
						</link>
						<link>
							<linkclipref>clipitem-344</linkclipref>
							<mediatype>video</mediatype>
							<trackindex>2</trackindex>
							<clipindex>4</clipindex>
							<groupindex>1</groupindex>
						</link>
						<link>
							<linkclipref>clipitem-350</linkclipref>
							<mediatype>video</mediatype>
							<trackindex>3</trackindex>
							<clipindex>4</clipindex>
							<groupindex>1</groupindex>
						</link>
						<link>
							<linkclipref>clipitem-356</linkclipref>
							<mediatype>audio</mediatype>
							<trackindex>1</trackindex>
							<clipindex>4</clipindex>
							<groupindex>1</groupindex>
						</link>
						<link>
							<linkclipref>clipitem-362</linkclipref>
							<mediatype>audio</mediatype>
							<trackindex>2</trackindex>
							<clipindex>4</clipindex>
							<groupindex>1</groupindex>
						</link>
						<link>
							<linkclipref>clipitem-368</linkclipref>
							<mediatype>audio</mediatype>
							<trackindex>3</trackindex>
							<clipindex>4</clipindex>
							<groupindex>1</groupindex>
						</link>
						<link>
							<linkclipref>clipitem-374</linkclipref>
							<mediatype>audio</mediatype>
							<trackindex>4</trackindex>
							<clipindex>4</clipindex>
							<groupindex>1</groupindex>
						</link>
						<link>
							<linkclipref>clipitem-380</linkclipref>
							<mediatype>audio</mediatype>
							<trackindex>5</trackindex>
							<clipindex>4</clipindex>
							<groupindex>1</groupindex>
						</link>
						<link>
							<linkclipref>clipitem-386</linkclipref>
							<mediatype>audio</mediatype>
							<trackindex>6</trackindex>
							<clipindex>4</clipindex>
							<groupindex>1</groupindex>
						</link>
						<link>
							<linkclipref>clipitem-392</linkclipref>
							<mediatype>audio</mediatype>
							<trackindex>7</trackindex>
							<clipindex>4</clipindex>
							<groupindex>1</groupindex>
						</link>
						<link>
							<linkclipref>clipitem-398</linkclipref>
							<mediatype>audio</mediatype>
							<trackindex>8</trackindex>
							<clipindex>4</clipindex>
							<groupindex>1</groupindex>
						</link>
					</clipitem>
					<clipitem id="clipitem-345">
						
						
						<masterclipid>masterclip-28</masterclipid>
						
						
						<name>C4171.MP4</name>
						
						
						<enabled>TRUE</enabled>
						
						
						<duration>98724</duration>
						
						
						<rate>
							
							
							<timebase>24</timebase>
							
							
							<ntsc>TRUE</ntsc>
							
						
						</rate>
						
						
						<start>63131</start>
						
						
						<end>75322</end>
						
						
						<in>68206</in>
						
						
						<out>80397</out>
						
						
						<pproTicksIn>722614196304000</pproTicksIn>
						
						
						<pproTicksOut>851772769848000</pproTicksOut>
						
						
						<alphatype>none</alphatype>
						
						
						<pixelaspectratio>square</pixelaspectratio>
						
						
						<anamorphic>FALSE</anamorphic>
						
						
						<file id="file-28">
							</file>
						
							
						<marker>
							
								
							<comment/>
							
								
							<name/>
							
								
							<in>2601</in>
							
								
							<out>-1</out>
							
							
						</marker>
						
						
						<logginginfo>
							
							
							<description/>
							
							
							<scene/>
							
							
							<shottake/>
							
							
							<lognote/>
							
							
							<good/>
							
							
							<originalvideofilename/>
							
							
							<originalaudiofilename/>
							
						
						</logginginfo>
						
						
						<colorinfo>
							
							
							<lut/>
							
							
							<lut1/>
							
							
							<asc_sop/>
							
							
							<asc_sat/>
							
							
							<lut2/>
							
						
						</colorinfo>
						
						
						<labels>
							
							
							<label2>Lavender</label2>
							
						
						</labels>
						
					
						<link>
							<linkclipref>clipitem-339</linkclipref>
							<mediatype>video</mediatype>
							<trackindex>1</trackindex>
							<clipindex>5</clipindex>
							<groupindex>1</groupindex>
						</link>
						<link>
							<linkclipref>clipitem-345</linkclipref>
							<mediatype>video</mediatype>
							<trackindex>2</trackindex>
							<clipindex>5</clipindex>
							<groupindex>1</groupindex>
						</link>
						<link>
							<linkclipref>clipitem-351</linkclipref>
							<mediatype>video</mediatype>
							<trackindex>3</trackindex>
							<clipindex>5</clipindex>
							<groupindex>1</groupindex>
						</link>
						<link>
							<linkclipref>clipitem-357</linkclipref>
							<mediatype>audio</mediatype>
							<trackindex>1</trackindex>
							<clipindex>5</clipindex>
							<groupindex>1</groupindex>
						</link>
						<link>
							<linkclipref>clipitem-363</linkclipref>
							<mediatype>audio</mediatype>
							<trackindex>2</trackindex>
							<clipindex>5</clipindex>
							<groupindex>1</groupindex>
						</link>
						<link>
							<linkclipref>clipitem-369</linkclipref>
							<mediatype>audio</mediatype>
							<trackindex>3</trackindex>
							<clipindex>5</clipindex>
							<groupindex>1</groupindex>
						</link>
						<link>
							<linkclipref>clipitem-375</linkclipref>
							<mediatype>audio</mediatype>
							<trackindex>4</trackindex>
							<clipindex>5</clipindex>
							<groupindex>1</groupindex>
						</link>
						<link>
							<linkclipref>clipitem-381</linkclipref>
							<mediatype>audio</mediatype>
							<trackindex>5</trackindex>
							<clipindex>5</clipindex>
							<groupindex>1</groupindex>
						</link>
						<link>
							<linkclipref>clipitem-387</linkclipref>
							<mediatype>audio</mediatype>
							<trackindex>6</trackindex>
							<clipindex>5</clipindex>
							<groupindex>1</groupindex>
						</link>
						<link>
							<linkclipref>clipitem-393</linkclipref>
							<mediatype>audio</mediatype>
							<trackindex>7</trackindex>
							<clipindex>5</clipindex>
							<groupindex>1</groupindex>
						</link>
						<link>
							<linkclipref>clipitem-399</linkclipref>
							<mediatype>audio</mediatype>
							<trackindex>8</trackindex>
							<clipindex>5</clipindex>
							<groupindex>1</groupindex>
						</link>
					</clipitem>
					<clipitem id="clipitem-346">
						
						
						<masterclipid>masterclip-28</masterclipid>
						
						
						<name>C4171.MP4</name>
						
						
						<enabled>TRUE</enabled>
						
						
						<duration>98724</duration>
						
						
						<rate>
							
							
							<timebase>24</timebase>
							
							
							<ntsc>TRUE</ntsc>
							
						
						</rate>
						
						
						<start>75684</start>
						
						
						<end>91254</end>
						
						
						<in>82012</in>
						
						
						<out>97582</out>
						
						
						<pproTicksIn>868883023008000</pproTicksIn>
						
						
						<pproTicksOut>1033840695887999</pproTicksOut>
						
						
						<alphatype>none</alphatype>
						
						
						<pixelaspectratio>square</pixelaspectratio>
						
						
						<anamorphic>FALSE</anamorphic>
						
						
						<file id="file-28">
							</file>
						
							
						<marker>
							
								
							<comment/>
							
								
							<name/>
							
								
							<in>2601</in>
							
								
							<out>-1</out>
							
							
						</marker>
						
						
						<logginginfo>
							
							
							<description/>
							
							
							<scene/>
							
							
							<shottake/>
							
							
							<lognote/>
							
							
							<good/>
							
							
							<originalvideofilename/>
							
							
							<originalaudiofilename/>
							
						
						</logginginfo>
						
						
						<colorinfo>
							
							
							<lut/>
							
							
							<lut1/>
							
							
							<asc_sop/>
							
							
							<asc_sat/>
							
							
							<lut2/>
							
						
						</colorinfo>
						
						
						<labels>
							
							
							<label2>Caribbean</label2>
							
						
						</labels>
						
					
						<link>
							<linkclipref>clipitem-340</linkclipref>
							<mediatype>video</mediatype>
							<trackindex>1</trackindex>
							<clipindex>6</clipindex>
							<groupindex>1</groupindex>
						</link>
						<link>
							<linkclipref>clipitem-346</linkclipref>
							<mediatype>video</mediatype>
							<trackindex>2</trackindex>
							<clipindex>6</clipindex>
							<groupindex>1</groupindex>
						</link>
						<link>
							<linkclipref>clipitem-352</linkclipref>
							<mediatype>video</mediatype>
							<trackindex>3</trackindex>
							<clipindex>6</clipindex>
							<groupindex>1</groupindex>
						</link>
						<link>
							<linkclipref>clipitem-358</linkclipref>
							<mediatype>audio</mediatype>
							<trackindex>1</trackindex>
							<clipindex>6</clipindex>
							<groupindex>1</groupindex>
						</link>
						<link>
							<linkclipref>clipitem-364</linkclipref>
							<mediatype>audio</mediatype>
							<trackindex>2</trackindex>
							<clipindex>6</clipindex>
							<groupindex>1</groupindex>
						</link>
						<link>
							<linkclipref>clipitem-370</linkclipref>
							<mediatype>audio</mediatype>
							<trackindex>3</trackindex>
							<clipindex>6</clipindex>
							<groupindex>1</groupindex>
						</link>
						<link>
							<linkclipref>clipitem-376</linkclipref>
							<mediatype>audio</mediatype>
							<trackindex>4</trackindex>
							<clipindex>6</clipindex>
							<groupindex>1</groupindex>
						</link>
						<link>
							<linkclipref>clipitem-382</linkclipref>
							<mediatype>audio</mediatype>
							<trackindex>5</trackindex>
							<clipindex>6</clipindex>
							<groupindex>1</groupindex>
						</link>
						<link>
							<linkclipref>clipitem-388</linkclipref>
							<mediatype>audio</mediatype>
							<trackindex>6</trackindex>
							<clipindex>6</clipindex>
							<groupindex>1</groupindex>
						</link>
						<link>
							<linkclipref>clipitem-394</linkclipref>
							<mediatype>audio</mediatype>
							<trackindex>7</trackindex>
							<clipindex>6</clipindex>
							<groupindex>1</groupindex>
						</link>
						<link>
							<linkclipref>clipitem-400</linkclipref>
							<mediatype>audio</mediatype>
							<trackindex>8</trackindex>
							<clipindex>6</clipindex>
							<groupindex>1</groupindex>
						</link>
					</clipitem>
					<enabled>TRUE</enabled>
					<locked>FALSE</locked>
				</track>
				<track TL.SQTrackShy="0" TL.SQTrackExpandedHeight="41" TL.SQTrackExpanded="0" MZ.TrackTargeted="1">
					<clipitem id="clipitem-347">
						
						
						<masterclipid>masterclip-29</masterclipid>
						
						
						<name>C6196.MP4</name>
						
						
						<enabled>TRUE</enabled>
						
						
						<duration>98676</duration>
						
						
						<rate>
							
							
							<timebase>24</timebase>
							
							
							<ntsc>TRUE</ntsc>
							
						
						</rate>
						
						
						<start>120</start>
						
						
						<end>17739</end>
						
						
						<in>2674</in>
						
						
						<out>20293</out>
						
						
						<pproTicksIn>28329917616000</pproTicksIn>
						
						
						<pproTicksOut>214995893112000</pproTicksOut>
						
						
						<alphatype>none</alphatype>
						
						
						<pixelaspectratio>square</pixelaspectratio>
						
						
						<anamorphic>FALSE</anamorphic>
						
						
						<file id="file-29">
							<name>C6196.MP4</name>
							<pathurl>file://localhost/Volumes/P-40/liberary2025/0929_1/Ccam/PRIVATE/M4ROOT/CLIP/C6196.MP4</pathurl>
							<rate>
								
								
								<timebase>24</timebase>
								
								
								<ntsc>TRUE</ntsc>
								
							
							</rate>
							<duration>98676</duration>
							<timecode>
								
								
								<rate>
									
									
									<timebase>24</timebase>
									
									
									<ntsc>TRUE</ntsc>
									
								
								</rate>
								
								
								<string>14:08:39:19</string>
								
								
								<frame>1222075</frame>
								
								
								<displayformat>NDF</displayformat>
								
							
							</timecode>
							<media>
								
								
								<video>
									
									
									<samplecharacteristics>
										
										
										<rate>
											
											
											<timebase>24</timebase>
											
											
											<ntsc>TRUE</ntsc>
											
										
										</rate>
										
										
										<width>3840</width>
										
										
										<height>2160</height>
										
										
										<anamorphic>FALSE</anamorphic>
										
										
										<pixelaspectratio>square</pixelaspectratio>
										
										
										<fielddominance>none</fielddominance>
										
									
									</samplecharacteristics>
									
								
								</video>
								
								
								<audio>
									
									
									<samplecharacteristics>
										
										
										<depth>16</depth>
										
										
										<samplerate>48000</samplerate>
										
									
									</samplecharacteristics>
									
									
									<channelcount>2</channelcount>
									
								
								</audio>
								
							
							</media>
						</file>
						<marker>
							
								
							<comment/>
							
								
							<name/>
							
								
							<in>2697</in>
							
								
							<out>-1</out>
							
							
						</marker>
						
						
						<logginginfo>
							
							
							<description/>
							
							
							<scene/>
							
							
							<shottake/>
							
							
							<lognote/>
							
							
							<good/>
							
							
							<originalvideofilename/>
							
							
							<originalaudiofilename/>
							
						
						</logginginfo>
						
						
						<colorinfo>
							
							
							<lut/>
							
							
							<lut1/>
							
							
							<asc_sop/>
							
							
							<asc_sat/>
							
							
							<lut2/>
							
						
						</colorinfo>
						
						
						<labels>
							
							
							<label2>Violet</label2>
							
						
						</labels>
						
					
						<link>
							<linkclipref>clipitem-335</linkclipref>
							<mediatype>video</mediatype>
							<trackindex>1</trackindex>
							<clipindex>1</clipindex>
							<groupindex>1</groupindex>
						</link>
						<link>
							<linkclipref>clipitem-341</linkclipref>
							<mediatype>video</mediatype>
							<trackindex>2</trackindex>
							<clipindex>1</clipindex>
							<groupindex>1</groupindex>
						</link>
						<link>
							<linkclipref>clipitem-347</linkclipref>
							<mediatype>video</mediatype>
							<trackindex>3</trackindex>
							<clipindex>1</clipindex>
							<groupindex>1</groupindex>
						</link>
						<link>
							<linkclipref>clipitem-353</linkclipref>
							<mediatype>audio</mediatype>
							<trackindex>1</trackindex>
							<clipindex>1</clipindex>
							<groupindex>1</groupindex>
						</link>
						<link>
							<linkclipref>clipitem-359</linkclipref>
							<mediatype>audio</mediatype>
							<trackindex>2</trackindex>
							<clipindex>1</clipindex>
							<groupindex>1</groupindex>
						</link>
						<link>
							<linkclipref>clipitem-365</linkclipref>
							<mediatype>audio</mediatype>
							<trackindex>3</trackindex>
							<clipindex>1</clipindex>
							<groupindex>1</groupindex>
						</link>
						<link>
							<linkclipref>clipitem-371</linkclipref>
							<mediatype>audio</mediatype>
							<trackindex>4</trackindex>
							<clipindex>1</clipindex>
							<groupindex>1</groupindex>
						</link>
						<link>
							<linkclipref>clipitem-377</linkclipref>
							<mediatype>audio</mediatype>
							<trackindex>5</trackindex>
							<clipindex>1</clipindex>
							<groupindex>1</groupindex>
						</link>
						<link>
							<linkclipref>clipitem-383</linkclipref>
							<mediatype>audio</mediatype>
							<trackindex>6</trackindex>
							<clipindex>1</clipindex>
							<groupindex>1</groupindex>
						</link>
						<link>
							<linkclipref>clipitem-389</linkclipref>
							<mediatype>audio</mediatype>
							<trackindex>7</trackindex>
							<clipindex>1</clipindex>
							<groupindex>1</groupindex>
						</link>
						<link>
							<linkclipref>clipitem-395</linkclipref>
							<mediatype>audio</mediatype>
							<trackindex>8</trackindex>
							<clipindex>1</clipindex>
							<groupindex>1</groupindex>
						</link>
					</clipitem>
					<clipitem id="clipitem-348">
						
						
						<masterclipid>masterclip-29</masterclipid>
						
						
						<name>C6196.MP4</name>
						
						
						<enabled>TRUE</enabled>
						
						
						<duration>98676</duration>
						
						
						<rate>
							
							
							<timebase>24</timebase>
							
							
							<ntsc>TRUE</ntsc>
							
						
						</rate>
						
						
						<start>18101</start>
						
						
						<end>31863</end>
						
						
						<in>21243</in>
						
						
						<out>35005</out>
						
						
						<pproTicksIn>225060747911999</pproTicksIn>
						
						
						<pproTicksOut>370863412919999</pproTicksOut>
						
						
						<alphatype>none</alphatype>
						
						
						<pixelaspectratio>square</pixelaspectratio>
						
						
						<anamorphic>FALSE</anamorphic>
						
						
						<file id="file-29">
							</file>
						
							
						<marker>
							
								
							<comment/>
							
								
							<name/>
							
								
							<in>2697</in>
							
								
							<out>-1</out>
							
							
						</marker>
						
						
						<logginginfo>
							
							
							<description/>
							
							
							<scene/>
							
							
							<shottake/>
							
							
							<lognote/>
							
							
							<good/>
							
							
							<originalvideofilename/>
							
							
							<originalaudiofilename/>
							
						
						</logginginfo>
						
						
						<colorinfo>
							
							
							<lut/>
							
							
							<lut1/>
							
							
							<asc_sop/>
							
							
							<asc_sat/>
							
							
							<lut2/>
							
						
						</colorinfo>
						
						
						<labels>
							
							
							<label2>Rose</label2>
							
						
						</labels>
						
					
						<link>
							<linkclipref>clipitem-336</linkclipref>
							<mediatype>video</mediatype>
							<trackindex>1</trackindex>
							<clipindex>2</clipindex>
							<groupindex>1</groupindex>
						</link>
						<link>
							<linkclipref>clipitem-342</linkclipref>
							<mediatype>video</mediatype>
							<trackindex>2</trackindex>
							<clipindex>2</clipindex>
							<groupindex>1</groupindex>
						</link>
						<link>
							<linkclipref>clipitem-348</linkclipref>
							<mediatype>video</mediatype>
							<trackindex>3</trackindex>
							<clipindex>2</clipindex>
							<groupindex>1</groupindex>
						</link>
						<link>
							<linkclipref>clipitem-354</linkclipref>
							<mediatype>audio</mediatype>
							<trackindex>1</trackindex>
							<clipindex>2</clipindex>
							<groupindex>1</groupindex>
						</link>
						<link>
							<linkclipref>clipitem-360</linkclipref>
							<mediatype>audio</mediatype>
							<trackindex>2</trackindex>
							<clipindex>2</clipindex>
							<groupindex>1</groupindex>
						</link>
						<link>
							<linkclipref>clipitem-366</linkclipref>
							<mediatype>audio</mediatype>
							<trackindex>3</trackindex>
							<clipindex>2</clipindex>
							<groupindex>1</groupindex>
						</link>
						<link>
							<linkclipref>clipitem-372</linkclipref>
							<mediatype>audio</mediatype>
							<trackindex>4</trackindex>
							<clipindex>2</clipindex>
							<groupindex>1</groupindex>
						</link>
						<link>
							<linkclipref>clipitem-378</linkclipref>
							<mediatype>audio</mediatype>
							<trackindex>5</trackindex>
							<clipindex>2</clipindex>
							<groupindex>1</groupindex>
						</link>
						<link>
							<linkclipref>clipitem-384</linkclipref>
							<mediatype>audio</mediatype>
							<trackindex>6</trackindex>
							<clipindex>2</clipindex>
							<groupindex>1</groupindex>
						</link>
						<link>
							<linkclipref>clipitem-390</linkclipref>
							<mediatype>audio</mediatype>
							<trackindex>7</trackindex>
							<clipindex>2</clipindex>
							<groupindex>1</groupindex>
						</link>
						<link>
							<linkclipref>clipitem-396</linkclipref>
							<mediatype>audio</mediatype>
							<trackindex>8</trackindex>
							<clipindex>2</clipindex>
							<groupindex>1</groupindex>
						</link>
					</clipitem>
					<clipitem id="clipitem-349">
						
						
						<masterclipid>masterclip-29</masterclipid>
						
						
						<name>C6196.MP4</name>
						
						
						<enabled>TRUE</enabled>
						
						
						<duration>98676</duration>
						
						
						<rate>
							
							
							<timebase>24</timebase>
							
							
							<ntsc>TRUE</ntsc>
							
						
						</rate>
						
						
						<start>32225</start>
						
						
						<end>47985</end>
						
						
						<in>36225</in>
						
						
						<out>51985</out>
						
						
						<pproTicksIn>383788805399999</pproTicksIn>
						
						
						<pproTicksOut>550759449240000</pproTicksOut>
						
						
						<alphatype>none</alphatype>
						
						
						<pixelaspectratio>square</pixelaspectratio>
						
						
						<anamorphic>FALSE</anamorphic>
						
						
						<file id="file-29">
							</file>
						
							
						<marker>
							
								
							<comment/>
							
								
							<name/>
							
								
							<in>2697</in>
							
								
							<out>-1</out>
							
							
						</marker>
						
						
						<logginginfo>
							
							
							<description/>
							
							
							<scene/>
							
							
							<shottake/>
							
							
							<lognote/>
							
							
							<good/>
							
							
							<originalvideofilename/>
							
							
							<originalaudiofilename/>
							
						
						</logginginfo>
						
						
						<colorinfo>
							
							
							<lut/>
							
							
							<lut1/>
							
							
							<asc_sop/>
							
							
							<asc_sat/>
							
							
							<lut2/>
							
						
						</colorinfo>
						
						
						<labels>
							
							
							<label2>Mango</label2>
							
						
						</labels>
						
					
						<link>
							<linkclipref>clipitem-337</linkclipref>
							<mediatype>video</mediatype>
							<trackindex>1</trackindex>
							<clipindex>3</clipindex>
							<groupindex>1</groupindex>
						</link>
						<link>
							<linkclipref>clipitem-343</linkclipref>
							<mediatype>video</mediatype>
							<trackindex>2</trackindex>
							<clipindex>3</clipindex>
							<groupindex>1</groupindex>
						</link>
						<link>
							<linkclipref>clipitem-349</linkclipref>
							<mediatype>video</mediatype>
							<trackindex>3</trackindex>
							<clipindex>3</clipindex>
							<groupindex>1</groupindex>
						</link>
						<link>
							<linkclipref>clipitem-355</linkclipref>
							<mediatype>audio</mediatype>
							<trackindex>1</trackindex>
							<clipindex>3</clipindex>
							<groupindex>1</groupindex>
						</link>
						<link>
							<linkclipref>clipitem-361</linkclipref>
							<mediatype>audio</mediatype>
							<trackindex>2</trackindex>
							<clipindex>3</clipindex>
							<groupindex>1</groupindex>
						</link>
						<link>
							<linkclipref>clipitem-367</linkclipref>
							<mediatype>audio</mediatype>
							<trackindex>3</trackindex>
							<clipindex>3</clipindex>
							<groupindex>1</groupindex>
						</link>
						<link>
							<linkclipref>clipitem-373</linkclipref>
							<mediatype>audio</mediatype>
							<trackindex>4</trackindex>
							<clipindex>3</clipindex>
							<groupindex>1</groupindex>
						</link>
						<link>
							<linkclipref>clipitem-379</linkclipref>
							<mediatype>audio</mediatype>
							<trackindex>5</trackindex>
							<clipindex>3</clipindex>
							<groupindex>1</groupindex>
						</link>
						<link>
							<linkclipref>clipitem-385</linkclipref>
							<mediatype>audio</mediatype>
							<trackindex>6</trackindex>
							<clipindex>3</clipindex>
							<groupindex>1</groupindex>
						</link>
						<link>
							<linkclipref>clipitem-391</linkclipref>
							<mediatype>audio</mediatype>
							<trackindex>7</trackindex>
							<clipindex>3</clipindex>
							<groupindex>1</groupindex>
						</link>
						<link>
							<linkclipref>clipitem-397</linkclipref>
							<mediatype>audio</mediatype>
							<trackindex>8</trackindex>
							<clipindex>3</clipindex>
							<groupindex>1</groupindex>
						</link>
					</clipitem>
					<clipitem id="clipitem-350">
						
						
						<masterclipid>masterclip-29</masterclipid>
						
						
						<name>C6196.MP4</name>
						
						
						<enabled>TRUE</enabled>
						
						
						<duration>98676</duration>
						
						
						<rate>
							
							
							<timebase>24</timebase>
							
							
							<ntsc>TRUE</ntsc>
							
						
						</rate>
						
						
						<start>48347</start>
						
						
						<end>62769</end>
						
						
						<in>53297</in>
						
						
						<out>67719</out>
						
						
						<pproTicksIn>564659543447999</pproTicksIn>
						
						
						<pproTicksOut>717454633895999</pproTicksOut>
						
						
						<alphatype>none</alphatype>
						
						
						<pixelaspectratio>square</pixelaspectratio>
						
						
						<anamorphic>FALSE</anamorphic>
						
						
						<file id="file-29">
							</file>
						
							
						<marker>
							
								
							<comment/>
							
								
							<name/>
							
								
							<in>2697</in>
							
								
							<out>-1</out>
							
							
						</marker>
						
						
						<logginginfo>
							
							
							<description/>
							
							
							<scene/>
							
							
							<shottake/>
							
							
							<lognote/>
							
							
							<good/>
							
							
							<originalvideofilename/>
							
							
							<originalaudiofilename/>
							
						
						</logginginfo>
						
						
						<colorinfo>
							
							
							<lut/>
							
							
							<lut1/>
							
							
							<asc_sop/>
							
							
							<asc_sat/>
							
							
							<lut2/>
							
						
						</colorinfo>
						
						
						<labels>
							
							
							<label2>Yellow</label2>
							
						
						</labels>
						
					
						<link>
							<linkclipref>clipitem-338</linkclipref>
							<mediatype>video</mediatype>
							<trackindex>1</trackindex>
							<clipindex>4</clipindex>
							<groupindex>1</groupindex>
						</link>
						<link>
							<linkclipref>clipitem-344</linkclipref>
							<mediatype>video</mediatype>
							<trackindex>2</trackindex>
							<clipindex>4</clipindex>
							<groupindex>1</groupindex>
						</link>
						<link>
							<linkclipref>clipitem-350</linkclipref>
							<mediatype>video</mediatype>
							<trackindex>3</trackindex>
							<clipindex>4</clipindex>
							<groupindex>1</groupindex>
						</link>
						<link>
							<linkclipref>clipitem-356</linkclipref>
							<mediatype>audio</mediatype>
							<trackindex>1</trackindex>
							<clipindex>4</clipindex>
							<groupindex>1</groupindex>
						</link>
						<link>
							<linkclipref>clipitem-362</linkclipref>
							<mediatype>audio</mediatype>
							<trackindex>2</trackindex>
							<clipindex>4</clipindex>
							<groupindex>1</groupindex>
						</link>
						<link>
							<linkclipref>clipitem-368</linkclipref>
							<mediatype>audio</mediatype>
							<trackindex>3</trackindex>
							<clipindex>4</clipindex>
							<groupindex>1</groupindex>
						</link>
						<link>
							<linkclipref>clipitem-374</linkclipref>
							<mediatype>audio</mediatype>
							<trackindex>4</trackindex>
							<clipindex>4</clipindex>
							<groupindex>1</groupindex>
						</link>
						<link>
							<linkclipref>clipitem-380</linkclipref>
							<mediatype>audio</mediatype>
							<trackindex>5</trackindex>
							<clipindex>4</clipindex>
							<groupindex>1</groupindex>
						</link>
						<link>
							<linkclipref>clipitem-386</linkclipref>
							<mediatype>audio</mediatype>
							<trackindex>6</trackindex>
							<clipindex>4</clipindex>
							<groupindex>1</groupindex>
						</link>
						<link>
							<linkclipref>clipitem-392</linkclipref>
							<mediatype>audio</mediatype>
							<trackindex>7</trackindex>
							<clipindex>4</clipindex>
							<groupindex>1</groupindex>
						</link>
						<link>
							<linkclipref>clipitem-398</linkclipref>
							<mediatype>audio</mediatype>
							<trackindex>8</trackindex>
							<clipindex>4</clipindex>
							<groupindex>1</groupindex>
						</link>
					</clipitem>
					<clipitem id="clipitem-351">
						
						
						<masterclipid>masterclip-29</masterclipid>
						
						
						<name>C6196.MP4</name>
						
						
						<enabled>TRUE</enabled>
						
						
						<duration>98676</duration>
						
						
						<rate>
							
							
							<timebase>24</timebase>
							
							
							<ntsc>TRUE</ntsc>
							
						
						</rate>
						
						
						<start>63131</start>
						
						
						<end>75322</end>
						
						
						<in>68302</in>
						
						
						<out>80493</out>
						
						
						<pproTicksIn>723631276368000</pproTicksIn>
						
						
						<pproTicksOut>852789849912000</pproTicksOut>
						
						
						<alphatype>none</alphatype>
						
						
						<pixelaspectratio>square</pixelaspectratio>
						
						
						<anamorphic>FALSE</anamorphic>
						
						
						<file id="file-29">
							</file>
						
							
						<marker>
							
								
							<comment/>
							
								
							<name/>
							
								
							<in>2697</in>
							
								
							<out>-1</out>
							
							
						</marker>
						
						
						<logginginfo>
							
							
							<description/>
							
							
							<scene/>
							
							
							<shottake/>
							
							
							<lognote/>
							
							
							<good/>
							
							
							<originalvideofilename/>
							
							
							<originalaudiofilename/>
							
						
						</logginginfo>
						
						
						<colorinfo>
							
							
							<lut/>
							
							
							<lut1/>
							
							
							<asc_sop/>
							
							
							<asc_sat/>
							
							
							<lut2/>
							
						
						</colorinfo>
						
						
						<labels>
							
							
							<label2>Lavender</label2>
							
						
						</labels>
						
					
						<link>
							<linkclipref>clipitem-339</linkclipref>
							<mediatype>video</mediatype>
							<trackindex>1</trackindex>
							<clipindex>5</clipindex>
							<groupindex>1</groupindex>
						</link>
						<link>
							<linkclipref>clipitem-345</linkclipref>
							<mediatype>video</mediatype>
							<trackindex>2</trackindex>
							<clipindex>5</clipindex>
							<groupindex>1</groupindex>
						</link>
						<link>
							<linkclipref>clipitem-351</linkclipref>
							<mediatype>video</mediatype>
							<trackindex>3</trackindex>
							<clipindex>5</clipindex>
							<groupindex>1</groupindex>
						</link>
						<link>
							<linkclipref>clipitem-357</linkclipref>
							<mediatype>audio</mediatype>
							<trackindex>1</trackindex>
							<clipindex>5</clipindex>
							<groupindex>1</groupindex>
						</link>
						<link>
							<linkclipref>clipitem-363</linkclipref>
							<mediatype>audio</mediatype>
							<trackindex>2</trackindex>
							<clipindex>5</clipindex>
							<groupindex>1</groupindex>
						</link>
						<link>
							<linkclipref>clipitem-369</linkclipref>
							<mediatype>audio</mediatype>
							<trackindex>3</trackindex>
							<clipindex>5</clipindex>
							<groupindex>1</groupindex>
						</link>
						<link>
							<linkclipref>clipitem-375</linkclipref>
							<mediatype>audio</mediatype>
							<trackindex>4</trackindex>
							<clipindex>5</clipindex>
							<groupindex>1</groupindex>
						</link>
						<link>
							<linkclipref>clipitem-381</linkclipref>
							<mediatype>audio</mediatype>
							<trackindex>5</trackindex>
							<clipindex>5</clipindex>
							<groupindex>1</groupindex>
						</link>
						<link>
							<linkclipref>clipitem-387</linkclipref>
							<mediatype>audio</mediatype>
							<trackindex>6</trackindex>
							<clipindex>5</clipindex>
							<groupindex>1</groupindex>
						</link>
						<link>
							<linkclipref>clipitem-393</linkclipref>
							<mediatype>audio</mediatype>
							<trackindex>7</trackindex>
							<clipindex>5</clipindex>
							<groupindex>1</groupindex>
						</link>
						<link>
							<linkclipref>clipitem-399</linkclipref>
							<mediatype>audio</mediatype>
							<trackindex>8</trackindex>
							<clipindex>5</clipindex>
							<groupindex>1</groupindex>
						</link>
					</clipitem>
					<clipitem id="clipitem-352">
						
						
						<masterclipid>masterclip-29</masterclipid>
						
						
						<name>C6196.MP4</name>
						
						
						<enabled>TRUE</enabled>
						
						
						<duration>98676</duration>
						
						
						<rate>
							
							
							<timebase>24</timebase>
							
							
							<ntsc>TRUE</ntsc>
							
						
						</rate>
						
						
						<start>75684</start>
						
						
						<end>91254</end>
						
						
						<in>82108</in>
						
						
						<out>97678</out>
						
						
						<pproTicksIn>869900103071999</pproTicksIn>
						
						
						<pproTicksOut>1034857775951999</pproTicksOut>
						
						
						<alphatype>none</alphatype>
						
						
						<pixelaspectratio>square</pixelaspectratio>
						
						
						<anamorphic>FALSE</anamorphic>
						
						
						<file id="file-29">
							</file>
						
							
						<marker>
							
								
							<comment/>
							
								
							<name/>
							
								
							<in>2697</in>
							
								
							<out>-1</out>
							
							
						</marker>
						
						
						<logginginfo>
							
							
							<description/>
							
							
							<scene/>
							
							
							<shottake/>
							
							
							<lognote/>
							
							
							<good/>
							
							
							<originalvideofilename/>
							
							
							<originalaudiofilename/>
							
						
						</logginginfo>
						
						
						<colorinfo>
							
							
							<lut/>
							
							
							<lut1/>
							
							
							<asc_sop/>
							
							
							<asc_sat/>
							
							
							<lut2/>
							
						
						</colorinfo>
						
						
						<labels>
							
							
							<label2>Caribbean</label2>
							
						
						</labels>
						
					
						<link>
							<linkclipref>clipitem-340</linkclipref>
							<mediatype>video</mediatype>
							<trackindex>1</trackindex>
							<clipindex>6</clipindex>
							<groupindex>1</groupindex>
						</link>
						<link>
							<linkclipref>clipitem-346</linkclipref>
							<mediatype>video</mediatype>
							<trackindex>2</trackindex>
							<clipindex>6</clipindex>
							<groupindex>1</groupindex>
						</link>
						<link>
							<linkclipref>clipitem-352</linkclipref>
							<mediatype>video</mediatype>
							<trackindex>3</trackindex>
							<clipindex>6</clipindex>
							<groupindex>1</groupindex>
						</link>
						<link>
							<linkclipref>clipitem-358</linkclipref>
							<mediatype>audio</mediatype>
							<trackindex>1</trackindex>
							<clipindex>6</clipindex>
							<groupindex>1</groupindex>
						</link>
						<link>
							<linkclipref>clipitem-364</linkclipref>
							<mediatype>audio</mediatype>
							<trackindex>2</trackindex>
							<clipindex>6</clipindex>
							<groupindex>1</groupindex>
						</link>
						<link>
							<linkclipref>clipitem-370</linkclipref>
							<mediatype>audio</mediatype>
							<trackindex>3</trackindex>
							<clipindex>6</clipindex>
							<groupindex>1</groupindex>
						</link>
						<link>
							<linkclipref>clipitem-376</linkclipref>
							<mediatype>audio</mediatype>
							<trackindex>4</trackindex>
							<clipindex>6</clipindex>
							<groupindex>1</groupindex>
						</link>
						<link>
							<linkclipref>clipitem-382</linkclipref>
							<mediatype>audio</mediatype>
							<trackindex>5</trackindex>
							<clipindex>6</clipindex>
							<groupindex>1</groupindex>
						</link>
						<link>
							<linkclipref>clipitem-388</linkclipref>
							<mediatype>audio</mediatype>
							<trackindex>6</trackindex>
							<clipindex>6</clipindex>
							<groupindex>1</groupindex>
						</link>
						<link>
							<linkclipref>clipitem-394</linkclipref>
							<mediatype>audio</mediatype>
							<trackindex>7</trackindex>
							<clipindex>6</clipindex>
							<groupindex>1</groupindex>
						</link>
						<link>
							<linkclipref>clipitem-400</linkclipref>
							<mediatype>audio</mediatype>
							<trackindex>8</trackindex>
							<clipindex>6</clipindex>
							<groupindex>1</groupindex>
						</link>
					</clipitem>
					<enabled>TRUE</enabled>
					<locked>FALSE</locked>
				</track>
			</video>
			<audio>
				<numOutputChannels>2</numOutputChannels>
				<format>
					
					
					<samplecharacteristics>
						
						
						<depth>16</depth>
						
						
						<samplerate>48000</samplerate>
						
					
					</samplecharacteristics>
					
				
				</format>
				<outputs>
					
					
					<group>
						
						
						<index>1</index>
						
						
						<numchannels>1</numchannels>
						
						
						<downmix>0</downmix>
						
						
						<channel>
							
							
							<index>1</index>
							
						
						</channel>
						
					
					</group>
					
					
					<group>
						
						
						<index>2</index>
						
						
						<numchannels>1</numchannels>
						
						
						<downmix>0</downmix>
						
						
						<channel>
							
							
							<index>2</index>
							
						
						</channel>
						
					
					</group>
					
				
				</outputs>
				<track TL.SQTrackAudioKeyframeStyle="0" TL.SQTrackShy="0" TL.SQTrackExpandedHeight="41" TL.SQTrackExpanded="0" MZ.TrackTargeted="1" PannerCurrentValue="0.5" PannerIsInverted="true" PannerStartKeyframe="-91445760000000000,0.5,0,0,0,0,0,0" PannerName="Balance" currentExplodedTrackIndex="0" totalExplodedTrackCount="1" premiereTrackType="Stereo">
					<clipitem id="clipitem-353" premiereChannelType="mono">
						
						
						<masterclipid>masterclip-27</masterclipid>
						
						
						<name>0619_0728.MXF</name>
						
						
						<enabled>TRUE</enabled>
						
						
						<duration>98768</duration>
						
						
						<rate>
							
							
							<timebase>24</timebase>
							
							
							<ntsc>TRUE</ntsc>
							
						
						</rate>
						
						
						<start>120</start>
						
						
						<end>17739</end>
						
						
						<in>2678</in>
						
						
						<out>20297</out>
						
						
						<pproTicksIn>28372295951999</pproTicksIn>
						
						
						<pproTicksOut>215038271448000</pproTicksOut>
						
						
						<file id="file-27"/>
						
						
						<sourcetrack>
							
							
							<mediatype>audio</mediatype>
							
							
							<trackindex>1</trackindex>
							
						
						</sourcetrack>
						
							
						<marker>
							
								
							<comment/>
							
								
							<name/>
							
								
							<in>2701</in>
							
								
							<out>-1</out>
							
							
						</marker>
						
						
						<logginginfo>
							
							
							<description/>
							
							
							<scene/>
							
							
							<shottake/>
							
							
							<lognote/>
							
							
							<good/>
							
							
							<originalvideofilename/>
							
							
							<originalaudiofilename/>
							
						
						</logginginfo>
						
						
						<colorinfo>
							
							
							<lut/>
							
							
							<lut1/>
							
							
							<asc_sop/>
							
							
							<asc_sat/>
							
							
							<lut2/>
							
						
						</colorinfo>
						
						
						<labels>
							
							
							<label2>Violet</label2>
							
						
						</labels>
						
					
						<link>
							<linkclipref>clipitem-335</linkclipref>
							<mediatype>video</mediatype>
							<trackindex>1</trackindex>
							<clipindex>1</clipindex>
							<groupindex>1</groupindex>
						</link>
						<link>
							<linkclipref>clipitem-341</linkclipref>
							<mediatype>video</mediatype>
							<trackindex>2</trackindex>
							<clipindex>1</clipindex>
							<groupindex>1</groupindex>
						</link>
						<link>
							<linkclipref>clipitem-347</linkclipref>
							<mediatype>video</mediatype>
							<trackindex>3</trackindex>
							<clipindex>1</clipindex>
							<groupindex>1</groupindex>
						</link>
						<link>
							<linkclipref>clipitem-353</linkclipref>
							<mediatype>audio</mediatype>
							<trackindex>1</trackindex>
							<clipindex>1</clipindex>
							<groupindex>1</groupindex>
						</link>
						<link>
							<linkclipref>clipitem-359</linkclipref>
							<mediatype>audio</mediatype>
							<trackindex>2</trackindex>
							<clipindex>1</clipindex>
							<groupindex>1</groupindex>
						</link>
						<link>
							<linkclipref>clipitem-365</linkclipref>
							<mediatype>audio</mediatype>
							<trackindex>3</trackindex>
							<clipindex>1</clipindex>
							<groupindex>1</groupindex>
						</link>
						<link>
							<linkclipref>clipitem-371</linkclipref>
							<mediatype>audio</mediatype>
							<trackindex>4</trackindex>
							<clipindex>1</clipindex>
							<groupindex>1</groupindex>
						</link>
						<link>
							<linkclipref>clipitem-377</linkclipref>
							<mediatype>audio</mediatype>
							<trackindex>5</trackindex>
							<clipindex>1</clipindex>
							<groupindex>1</groupindex>
						</link>
						<link>
							<linkclipref>clipitem-383</linkclipref>
							<mediatype>audio</mediatype>
							<trackindex>6</trackindex>
							<clipindex>1</clipindex>
							<groupindex>1</groupindex>
						</link>
						<link>
							<linkclipref>clipitem-389</linkclipref>
							<mediatype>audio</mediatype>
							<trackindex>7</trackindex>
							<clipindex>1</clipindex>
							<groupindex>1</groupindex>
						</link>
						<link>
							<linkclipref>clipitem-395</linkclipref>
							<mediatype>audio</mediatype>
							<trackindex>8</trackindex>
							<clipindex>1</clipindex>
							<groupindex>1</groupindex>
						</link>
					</clipitem>
					<clipitem id="clipitem-354" premiereChannelType="mono">
						
						
						<masterclipid>masterclip-27</masterclipid>
						
						
						<name>0619_0728.MXF</name>
						
						
						<enabled>TRUE</enabled>
						
						
						<duration>98768</duration>
						
						
						<rate>
							
							
							<timebase>24</timebase>
							
							
							<ntsc>TRUE</ntsc>
							
						
						</rate>
						
						
						<start>18101</start>
						
						
						<end>31863</end>
						
						
						<in>21247</in>
						
						
						<out>35009</out>
						
						
						<pproTicksIn>225103126247999</pproTicksIn>
						
						
						<pproTicksOut>370905791256000</pproTicksOut>
						
						
						<file id="file-27"/>
						
						
						<sourcetrack>
							
							
							<mediatype>audio</mediatype>
							
							
							<trackindex>1</trackindex>
							
						
						</sourcetrack>
						
							
						<marker>
							
								
							<comment/>
							
								
							<name/>
							
								
							<in>2701</in>
							
								
							<out>-1</out>
							
							
						</marker>
						
						
						<logginginfo>
							
							
							<description/>
							
							
							<scene/>
							
							
							<shottake/>
							
							
							<lognote/>
							
							
							<good/>
							
							
							<originalvideofilename/>
							
							
							<originalaudiofilename/>
							
						
						</logginginfo>
						
						
						<colorinfo>
							
							
							<lut/>
							
							
							<lut1/>
							
							
							<asc_sop/>
							
							
							<asc_sat/>
							
							
							<lut2/>
							
						
						</colorinfo>
						
						
						<labels>
							
							
							<label2>Rose</label2>
							
						
						</labels>
						
					
						<link>
							<linkclipref>clipitem-336</linkclipref>
							<mediatype>video</mediatype>
							<trackindex>1</trackindex>
							<clipindex>2</clipindex>
							<groupindex>1</groupindex>
						</link>
						<link>
							<linkclipref>clipitem-342</linkclipref>
							<mediatype>video</mediatype>
							<trackindex>2</trackindex>
							<clipindex>2</clipindex>
							<groupindex>1</groupindex>
						</link>
						<link>
							<linkclipref>clipitem-348</linkclipref>
							<mediatype>video</mediatype>
							<trackindex>3</trackindex>
							<clipindex>2</clipindex>
							<groupindex>1</groupindex>
						</link>
						<link>
							<linkclipref>clipitem-354</linkclipref>
							<mediatype>audio</mediatype>
							<trackindex>1</trackindex>
							<clipindex>2</clipindex>
							<groupindex>1</groupindex>
						</link>
						<link>
							<linkclipref>clipitem-360</linkclipref>
							<mediatype>audio</mediatype>
							<trackindex>2</trackindex>
							<clipindex>2</clipindex>
							<groupindex>1</groupindex>
						</link>
						<link>
							<linkclipref>clipitem-366</linkclipref>
							<mediatype>audio</mediatype>
							<trackindex>3</trackindex>
							<clipindex>2</clipindex>
							<groupindex>1</groupindex>
						</link>
						<link>
							<linkclipref>clipitem-372</linkclipref>
							<mediatype>audio</mediatype>
							<trackindex>4</trackindex>
							<clipindex>2</clipindex>
							<groupindex>1</groupindex>
						</link>
						<link>
							<linkclipref>clipitem-378</linkclipref>
							<mediatype>audio</mediatype>
							<trackindex>5</trackindex>
							<clipindex>2</clipindex>
							<groupindex>1</groupindex>
						</link>
						<link>
							<linkclipref>clipitem-384</linkclipref>
							<mediatype>audio</mediatype>
							<trackindex>6</trackindex>
							<clipindex>2</clipindex>
							<groupindex>1</groupindex>
						</link>
						<link>
							<linkclipref>clipitem-390</linkclipref>
							<mediatype>audio</mediatype>
							<trackindex>7</trackindex>
							<clipindex>2</clipindex>
							<groupindex>1</groupindex>
						</link>
						<link>
							<linkclipref>clipitem-396</linkclipref>
							<mediatype>audio</mediatype>
							<trackindex>8</trackindex>
							<clipindex>2</clipindex>
							<groupindex>1</groupindex>
						</link>
					</clipitem>
					<clipitem id="clipitem-355" premiereChannelType="mono">
						
						
						<masterclipid>masterclip-27</masterclipid>
						
						
						<name>0619_0728.MXF</name>
						
						
						<enabled>TRUE</enabled>
						
						
						<duration>98768</duration>
						
						
						<rate>
							
							
							<timebase>24</timebase>
							
							
							<ntsc>TRUE</ntsc>
							
						
						</rate>
						
						
						<start>32225</start>
						
						
						<end>47985</end>
						
						
						<in>36229</in>
						
						
						<out>51989</out>
						
						
						<pproTicksIn>383831183736000</pproTicksIn>
						
						
						<pproTicksOut>550801827576000</pproTicksOut>
						
						
						<file id="file-27"/>
						
						
						<sourcetrack>
							
							
							<mediatype>audio</mediatype>
							
							
							<trackindex>1</trackindex>
							
						
						</sourcetrack>
						
							
						<marker>
							
								
							<comment/>
							
								
							<name/>
							
								
							<in>2701</in>
							
								
							<out>-1</out>
							
							
						</marker>
						
						
						<logginginfo>
							
							
							<description/>
							
							
							<scene/>
							
							
							<shottake/>
							
							
							<lognote/>
							
							
							<good/>
							
							
							<originalvideofilename/>
							
							
							<originalaudiofilename/>
							
						
						</logginginfo>
						
						
						<colorinfo>
							
							
							<lut/>
							
							
							<lut1/>
							
							
							<asc_sop/>
							
							
							<asc_sat/>
							
							
							<lut2/>
							
						
						</colorinfo>
						
						
						<labels>
							
							
							<label2>Mango</label2>
							
						
						</labels>
						
					
						<link>
							<linkclipref>clipitem-337</linkclipref>
							<mediatype>video</mediatype>
							<trackindex>1</trackindex>
							<clipindex>3</clipindex>
							<groupindex>1</groupindex>
						</link>
						<link>
							<linkclipref>clipitem-343</linkclipref>
							<mediatype>video</mediatype>
							<trackindex>2</trackindex>
							<clipindex>3</clipindex>
							<groupindex>1</groupindex>
						</link>
						<link>
							<linkclipref>clipitem-349</linkclipref>
							<mediatype>video</mediatype>
							<trackindex>3</trackindex>
							<clipindex>3</clipindex>
							<groupindex>1</groupindex>
						</link>
						<link>
							<linkclipref>clipitem-355</linkclipref>
							<mediatype>audio</mediatype>
							<trackindex>1</trackindex>
							<clipindex>3</clipindex>
							<groupindex>1</groupindex>
						</link>
						<link>
							<linkclipref>clipitem-361</linkclipref>
							<mediatype>audio</mediatype>
							<trackindex>2</trackindex>
							<clipindex>3</clipindex>
							<groupindex>1</groupindex>
						</link>
						<link>
							<linkclipref>clipitem-367</linkclipref>
							<mediatype>audio</mediatype>
							<trackindex>3</trackindex>
							<clipindex>3</clipindex>
							<groupindex>1</groupindex>
						</link>
						<link>
							<linkclipref>clipitem-373</linkclipref>
							<mediatype>audio</mediatype>
							<trackindex>4</trackindex>
							<clipindex>3</clipindex>
							<groupindex>1</groupindex>
						</link>
						<link>
							<linkclipref>clipitem-379</linkclipref>
							<mediatype>audio</mediatype>
							<trackindex>5</trackindex>
							<clipindex>3</clipindex>
							<groupindex>1</groupindex>
						</link>
						<link>
							<linkclipref>clipitem-385</linkclipref>
							<mediatype>audio</mediatype>
							<trackindex>6</trackindex>
							<clipindex>3</clipindex>
							<groupindex>1</groupindex>
						</link>
						<link>
							<linkclipref>clipitem-391</linkclipref>
							<mediatype>audio</mediatype>
							<trackindex>7</trackindex>
							<clipindex>3</clipindex>
							<groupindex>1</groupindex>
						</link>
						<link>
							<linkclipref>clipitem-397</linkclipref>
							<mediatype>audio</mediatype>
							<trackindex>8</trackindex>
							<clipindex>3</clipindex>
							<groupindex>1</groupindex>
						</link>
					</clipitem>
					<clipitem id="clipitem-356" premiereChannelType="mono">
						
						
						<masterclipid>masterclip-27</masterclipid>
						
						
						<name>0619_0728.MXF</name>
						
						
						<enabled>TRUE</enabled>
						
						
						<duration>98768</duration>
						
						
						<rate>
							
							
							<timebase>24</timebase>
							
							
							<ntsc>TRUE</ntsc>
							
						
						</rate>
						
						
						<start>48347</start>
						
						
						<end>62769</end>
						
						
						<in>53301</in>
						
						
						<out>67723</out>
						
						
						<pproTicksIn>564701921784000</pproTicksIn>
						
						
						<pproTicksOut>717497012232000</pproTicksOut>
						
						
						<file id="file-27"/>
						
						
						<sourcetrack>
							
							
							<mediatype>audio</mediatype>
							
							
							<trackindex>1</trackindex>
							
						
						</sourcetrack>
						
							
						<marker>
							
								
							<comment/>
							
								
							<name/>
							
								
							<in>2701</in>
							
								
							<out>-1</out>
							
							
						</marker>
						
						
						<logginginfo>
							
							
							<description/>
							
							
							<scene/>
							
							
							<shottake/>
							
							
							<lognote/>
							
							
							<good/>
							
							
							<originalvideofilename/>
							
							
							<originalaudiofilename/>
							
						
						</logginginfo>
						
						
						<colorinfo>
							
							
							<lut/>
							
							
							<lut1/>
							
							
							<asc_sop/>
							
							
							<asc_sat/>
							
							
							<lut2/>
							
						
						</colorinfo>
						
						
						<labels>
							
							
							<label2>Yellow</label2>
							
						
						</labels>
						
					
						<link>
							<linkclipref>clipitem-338</linkclipref>
							<mediatype>video</mediatype>
							<trackindex>1</trackindex>
							<clipindex>4</clipindex>
							<groupindex>1</groupindex>
						</link>
						<link>
							<linkclipref>clipitem-344</linkclipref>
							<mediatype>video</mediatype>
							<trackindex>2</trackindex>
							<clipindex>4</clipindex>
							<groupindex>1</groupindex>
						</link>
						<link>
							<linkclipref>clipitem-350</linkclipref>
							<mediatype>video</mediatype>
							<trackindex>3</trackindex>
							<clipindex>4</clipindex>
							<groupindex>1</groupindex>
						</link>
						<link>
							<linkclipref>clipitem-356</linkclipref>
							<mediatype>audio</mediatype>
							<trackindex>1</trackindex>
							<clipindex>4</clipindex>
							<groupindex>1</groupindex>
						</link>
						<link>
							<linkclipref>clipitem-362</linkclipref>
							<mediatype>audio</mediatype>
							<trackindex>2</trackindex>
							<clipindex>4</clipindex>
							<groupindex>1</groupindex>
						</link>
						<link>
							<linkclipref>clipitem-368</linkclipref>
							<mediatype>audio</mediatype>
							<trackindex>3</trackindex>
							<clipindex>4</clipindex>
							<groupindex>1</groupindex>
						</link>
						<link>
							<linkclipref>clipitem-374</linkclipref>
							<mediatype>audio</mediatype>
							<trackindex>4</trackindex>
							<clipindex>4</clipindex>
							<groupindex>1</groupindex>
						</link>
						<link>
							<linkclipref>clipitem-380</linkclipref>
							<mediatype>audio</mediatype>
							<trackindex>5</trackindex>
							<clipindex>4</clipindex>
							<groupindex>1</groupindex>
						</link>
						<link>
							<linkclipref>clipitem-386</linkclipref>
							<mediatype>audio</mediatype>
							<trackindex>6</trackindex>
							<clipindex>4</clipindex>
							<groupindex>1</groupindex>
						</link>
						<link>
							<linkclipref>clipitem-392</linkclipref>
							<mediatype>audio</mediatype>
							<trackindex>7</trackindex>
							<clipindex>4</clipindex>
							<groupindex>1</groupindex>
						</link>
						<link>
							<linkclipref>clipitem-398</linkclipref>
							<mediatype>audio</mediatype>
							<trackindex>8</trackindex>
							<clipindex>4</clipindex>
							<groupindex>1</groupindex>
						</link>
					</clipitem>
					<clipitem id="clipitem-357" premiereChannelType="mono">
						
						
						<masterclipid>masterclip-27</masterclipid>
						
						
						<name>0619_0728.MXF</name>
						
						
						<enabled>TRUE</enabled>
						
						
						<duration>98768</duration>
						
						
						<rate>
							
							
							<timebase>24</timebase>
							
							
							<ntsc>TRUE</ntsc>
							
						
						</rate>
						
						
						<start>63131</start>
						
						
						<end>75322</end>
						
						
						<in>68306</in>
						
						
						<out>80497</out>
						
						
						<pproTicksIn>723673654703999</pproTicksIn>
						
						
						<pproTicksOut>852832228247999</pproTicksOut>
						
						
						<file id="file-27"/>
						
						
						<sourcetrack>
							
							
							<mediatype>audio</mediatype>
							
							
							<trackindex>1</trackindex>
							
						
						</sourcetrack>
						
							
						<marker>
							
								
							<comment/>
							
								
							<name/>
							
								
							<in>2701</in>
							
								
							<out>-1</out>
							
							
						</marker>
						
						
						<logginginfo>
							
							
							<description/>
							
							
							<scene/>
							
							
							<shottake/>
							
							
							<lognote/>
							
							
							<good/>
							
							
							<originalvideofilename/>
							
							
							<originalaudiofilename/>
							
						
						</logginginfo>
						
						
						<colorinfo>
							
							
							<lut/>
							
							
							<lut1/>
							
							
							<asc_sop/>
							
							
							<asc_sat/>
							
							
							<lut2/>
							
						
						</colorinfo>
						
						
						<labels>
							
							
							<label2>Lavender</label2>
							
						
						</labels>
						
					
						<link>
							<linkclipref>clipitem-339</linkclipref>
							<mediatype>video</mediatype>
							<trackindex>1</trackindex>
							<clipindex>5</clipindex>
							<groupindex>1</groupindex>
						</link>
						<link>
							<linkclipref>clipitem-345</linkclipref>
							<mediatype>video</mediatype>
							<trackindex>2</trackindex>
							<clipindex>5</clipindex>
							<groupindex>1</groupindex>
						</link>
						<link>
							<linkclipref>clipitem-351</linkclipref>
							<mediatype>video</mediatype>
							<trackindex>3</trackindex>
							<clipindex>5</clipindex>
							<groupindex>1</groupindex>
						</link>
						<link>
							<linkclipref>clipitem-357</linkclipref>
							<mediatype>audio</mediatype>
							<trackindex>1</trackindex>
							<clipindex>5</clipindex>
							<groupindex>1</groupindex>
						</link>
						<link>
							<linkclipref>clipitem-363</linkclipref>
							<mediatype>audio</mediatype>
							<trackindex>2</trackindex>
							<clipindex>5</clipindex>
							<groupindex>1</groupindex>
						</link>
						<link>
							<linkclipref>clipitem-369</linkclipref>
							<mediatype>audio</mediatype>
							<trackindex>3</trackindex>
							<clipindex>5</clipindex>
							<groupindex>1</groupindex>
						</link>
						<link>
							<linkclipref>clipitem-375</linkclipref>
							<mediatype>audio</mediatype>
							<trackindex>4</trackindex>
							<clipindex>5</clipindex>
							<groupindex>1</groupindex>
						</link>
						<link>
							<linkclipref>clipitem-381</linkclipref>
							<mediatype>audio</mediatype>
							<trackindex>5</trackindex>
							<clipindex>5</clipindex>
							<groupindex>1</groupindex>
						</link>
						<link>
							<linkclipref>clipitem-387</linkclipref>
							<mediatype>audio</mediatype>
							<trackindex>6</trackindex>
							<clipindex>5</clipindex>
							<groupindex>1</groupindex>
						</link>
						<link>
							<linkclipref>clipitem-393</linkclipref>
							<mediatype>audio</mediatype>
							<trackindex>7</trackindex>
							<clipindex>5</clipindex>
							<groupindex>1</groupindex>
						</link>
						<link>
							<linkclipref>clipitem-399</linkclipref>
							<mediatype>audio</mediatype>
							<trackindex>8</trackindex>
							<clipindex>5</clipindex>
							<groupindex>1</groupindex>
						</link>
					</clipitem>
					<clipitem id="clipitem-358" premiereChannelType="mono">
						
						
						<masterclipid>masterclip-27</masterclipid>
						
						
						<name>0619_0728.MXF</name>
						
						
						<enabled>TRUE</enabled>
						
						
						<duration>98768</duration>
						
						
						<rate>
							
							
							<timebase>24</timebase>
							
							
							<ntsc>TRUE</ntsc>
							
						
						</rate>
						
						
						<start>75684</start>
						
						
						<end>91254</end>
						
						
						<in>82112</in>
						
						
						<out>97682</out>
						
						
						<pproTicksIn>869942481407999</pproTicksIn>
						
						
						<pproTicksOut>1034900154288000</pproTicksOut>
						
						
						<file id="file-27"/>
						
						
						<sourcetrack>
							
							
							<mediatype>audio</mediatype>
							
							
							<trackindex>1</trackindex>
							
						
						</sourcetrack>
						
							
						<marker>
							
								
							<comment/>
							
								
							<name/>
							
								
							<in>2701</in>
							
								
							<out>-1</out>
							
							
						</marker>
						
						
						<logginginfo>
							
							
							<description/>
							
							
							<scene/>
							
							
							<shottake/>
							
							
							<lognote/>
							
							
							<good/>
							
							
							<originalvideofilename/>
							
							
							<originalaudiofilename/>
							
						
						</logginginfo>
						
						
						<colorinfo>
							
							
							<lut/>
							
							
							<lut1/>
							
							
							<asc_sop/>
							
							
							<asc_sat/>
							
							
							<lut2/>
							
						
						</colorinfo>
						
						
						<labels>
							
							
							<label2>Caribbean</label2>
							
						
						</labels>
						
					
						<link>
							<linkclipref>clipitem-340</linkclipref>
							<mediatype>video</mediatype>
							<trackindex>1</trackindex>
							<clipindex>6</clipindex>
							<groupindex>1</groupindex>
						</link>
						<link>
							<linkclipref>clipitem-346</linkclipref>
							<mediatype>video</mediatype>
							<trackindex>2</trackindex>
							<clipindex>6</clipindex>
							<groupindex>1</groupindex>
						</link>
						<link>
							<linkclipref>clipitem-352</linkclipref>
							<mediatype>video</mediatype>
							<trackindex>3</trackindex>
							<clipindex>6</clipindex>
							<groupindex>1</groupindex>
						</link>
						<link>
							<linkclipref>clipitem-358</linkclipref>
							<mediatype>audio</mediatype>
							<trackindex>1</trackindex>
							<clipindex>6</clipindex>
							<groupindex>1</groupindex>
						</link>
						<link>
							<linkclipref>clipitem-364</linkclipref>
							<mediatype>audio</mediatype>
							<trackindex>2</trackindex>
							<clipindex>6</clipindex>
							<groupindex>1</groupindex>
						</link>
						<link>
							<linkclipref>clipitem-370</linkclipref>
							<mediatype>audio</mediatype>
							<trackindex>3</trackindex>
							<clipindex>6</clipindex>
							<groupindex>1</groupindex>
						</link>
						<link>
							<linkclipref>clipitem-376</linkclipref>
							<mediatype>audio</mediatype>
							<trackindex>4</trackindex>
							<clipindex>6</clipindex>
							<groupindex>1</groupindex>
						</link>
						<link>
							<linkclipref>clipitem-382</linkclipref>
							<mediatype>audio</mediatype>
							<trackindex>5</trackindex>
							<clipindex>6</clipindex>
							<groupindex>1</groupindex>
						</link>
						<link>
							<linkclipref>clipitem-388</linkclipref>
							<mediatype>audio</mediatype>
							<trackindex>6</trackindex>
							<clipindex>6</clipindex>
							<groupindex>1</groupindex>
						</link>
						<link>
							<linkclipref>clipitem-394</linkclipref>
							<mediatype>audio</mediatype>
							<trackindex>7</trackindex>
							<clipindex>6</clipindex>
							<groupindex>1</groupindex>
						</link>
						<link>
							<linkclipref>clipitem-400</linkclipref>
							<mediatype>audio</mediatype>
							<trackindex>8</trackindex>
							<clipindex>6</clipindex>
							<groupindex>1</groupindex>
						</link>
					</clipitem>
					<enabled>TRUE</enabled>
					<locked>FALSE</locked>
					<outputchannelindex>1</outputchannelindex>
				</track>
				<track TL.SQTrackAudioKeyframeStyle="0" TL.SQTrackShy="0" TL.SQTrackExpandedHeight="41" TL.SQTrackExpanded="0" MZ.TrackTargeted="1" PannerCurrentValue="0.5" PannerIsInverted="true" PannerStartKeyframe="-91445760000000000,0.5,0,0,0,0,0,0" PannerName="Balance" currentExplodedTrackIndex="0" totalExplodedTrackCount="1" premiereTrackType="Stereo">
					<clipitem id="clipitem-359" premiereChannelType="mono">
						
						
						<masterclipid>masterclip-27</masterclipid>
						
						
						<name>0619_0728.MXF</name>
						
						
						<enabled>TRUE</enabled>
						
						
						<duration>98768</duration>
						
						
						<rate>
							
							
							<timebase>24</timebase>
							
							
							<ntsc>TRUE</ntsc>
							
						
						</rate>
						
						
						<start>120</start>
						
						
						<end>17739</end>
						
						
						<in>2678</in>
						
						
						<out>20297</out>
						
						
						<pproTicksIn>28372295951999</pproTicksIn>
						
						
						<pproTicksOut>215038271448000</pproTicksOut>
						
						
						<file id="file-27"/>
						
						
						<sourcetrack>
							
							
							<mediatype>audio</mediatype>
							
							
							<trackindex>2</trackindex>
							
						
						</sourcetrack>
						
							
						<marker>
							
								
							<comment/>
							
								
							<name/>
							
								
							<in>2701</in>
							
								
							<out>-1</out>
							
							
						</marker>
						
						
						<logginginfo>
							
							
							<description/>
							
							
							<scene/>
							
							
							<shottake/>
							
							
							<lognote/>
							
							
							<good/>
							
							
							<originalvideofilename/>
							
							
							<originalaudiofilename/>
							
						
						</logginginfo>
						
						
						<colorinfo>
							
							
							<lut/>
							
							
							<lut1/>
							
							
							<asc_sop/>
							
							
							<asc_sat/>
							
							
							<lut2/>
							
						
						</colorinfo>
						
						
						<labels>
							
							
							<label2>Violet</label2>
							
						
						</labels>
						
					
						<link>
							<linkclipref>clipitem-335</linkclipref>
							<mediatype>video</mediatype>
							<trackindex>1</trackindex>
							<clipindex>1</clipindex>
							<groupindex>1</groupindex>
						</link>
						<link>
							<linkclipref>clipitem-341</linkclipref>
							<mediatype>video</mediatype>
							<trackindex>2</trackindex>
							<clipindex>1</clipindex>
							<groupindex>1</groupindex>
						</link>
						<link>
							<linkclipref>clipitem-347</linkclipref>
							<mediatype>video</mediatype>
							<trackindex>3</trackindex>
							<clipindex>1</clipindex>
							<groupindex>1</groupindex>
						</link>
						<link>
							<linkclipref>clipitem-353</linkclipref>
							<mediatype>audio</mediatype>
							<trackindex>1</trackindex>
							<clipindex>1</clipindex>
							<groupindex>1</groupindex>
						</link>
						<link>
							<linkclipref>clipitem-359</linkclipref>
							<mediatype>audio</mediatype>
							<trackindex>2</trackindex>
							<clipindex>1</clipindex>
							<groupindex>1</groupindex>
						</link>
						<link>
							<linkclipref>clipitem-365</linkclipref>
							<mediatype>audio</mediatype>
							<trackindex>3</trackindex>
							<clipindex>1</clipindex>
							<groupindex>1</groupindex>
						</link>
						<link>
							<linkclipref>clipitem-371</linkclipref>
							<mediatype>audio</mediatype>
							<trackindex>4</trackindex>
							<clipindex>1</clipindex>
							<groupindex>1</groupindex>
						</link>
						<link>
							<linkclipref>clipitem-377</linkclipref>
							<mediatype>audio</mediatype>
							<trackindex>5</trackindex>
							<clipindex>1</clipindex>
							<groupindex>1</groupindex>
						</link>
						<link>
							<linkclipref>clipitem-383</linkclipref>
							<mediatype>audio</mediatype>
							<trackindex>6</trackindex>
							<clipindex>1</clipindex>
							<groupindex>1</groupindex>
						</link>
						<link>
							<linkclipref>clipitem-389</linkclipref>
							<mediatype>audio</mediatype>
							<trackindex>7</trackindex>
							<clipindex>1</clipindex>
							<groupindex>1</groupindex>
						</link>
						<link>
							<linkclipref>clipitem-395</linkclipref>
							<mediatype>audio</mediatype>
							<trackindex>8</trackindex>
							<clipindex>1</clipindex>
							<groupindex>1</groupindex>
						</link>
					</clipitem>
					<clipitem id="clipitem-360" premiereChannelType="mono">
						
						
						<masterclipid>masterclip-27</masterclipid>
						
						
						<name>0619_0728.MXF</name>
						
						
						<enabled>TRUE</enabled>
						
						
						<duration>98768</duration>
						
						
						<rate>
							
							
							<timebase>24</timebase>
							
							
							<ntsc>TRUE</ntsc>
							
						
						</rate>
						
						
						<start>18101</start>
						
						
						<end>31863</end>
						
						
						<in>21247</in>
						
						
						<out>35009</out>
						
						
						<pproTicksIn>225103126247999</pproTicksIn>
						
						
						<pproTicksOut>370905791256000</pproTicksOut>
						
						
						<file id="file-27"/>
						
						
						<sourcetrack>
							
							
							<mediatype>audio</mediatype>
							
							
							<trackindex>2</trackindex>
							
						
						</sourcetrack>
						
							
						<marker>
							
								
							<comment/>
							
								
							<name/>
							
								
							<in>2701</in>
							
								
							<out>-1</out>
							
							
						</marker>
						
						
						<logginginfo>
							
							
							<description/>
							
							
							<scene/>
							
							
							<shottake/>
							
							
							<lognote/>
							
							
							<good/>
							
							
							<originalvideofilename/>
							
							
							<originalaudiofilename/>
							
						
						</logginginfo>
						
						
						<colorinfo>
							
							
							<lut/>
							
							
							<lut1/>
							
							
							<asc_sop/>
							
							
							<asc_sat/>
							
							
							<lut2/>
							
						
						</colorinfo>
						
						
						<labels>
							
							
							<label2>Rose</label2>
							
						
						</labels>
						
					
						<link>
							<linkclipref>clipitem-336</linkclipref>
							<mediatype>video</mediatype>
							<trackindex>1</trackindex>
							<clipindex>2</clipindex>
							<groupindex>1</groupindex>
						</link>
						<link>
							<linkclipref>clipitem-342</linkclipref>
							<mediatype>video</mediatype>
							<trackindex>2</trackindex>
							<clipindex>2</clipindex>
							<groupindex>1</groupindex>
						</link>
						<link>
							<linkclipref>clipitem-348</linkclipref>
							<mediatype>video</mediatype>
							<trackindex>3</trackindex>
							<clipindex>2</clipindex>
							<groupindex>1</groupindex>
						</link>
						<link>
							<linkclipref>clipitem-354</linkclipref>
							<mediatype>audio</mediatype>
							<trackindex>1</trackindex>
							<clipindex>2</clipindex>
							<groupindex>1</groupindex>
						</link>
						<link>
							<linkclipref>clipitem-360</linkclipref>
							<mediatype>audio</mediatype>
							<trackindex>2</trackindex>
							<clipindex>2</clipindex>
							<groupindex>1</groupindex>
						</link>
						<link>
							<linkclipref>clipitem-366</linkclipref>
							<mediatype>audio</mediatype>
							<trackindex>3</trackindex>
							<clipindex>2</clipindex>
							<groupindex>1</groupindex>
						</link>
						<link>
							<linkclipref>clipitem-372</linkclipref>
							<mediatype>audio</mediatype>
							<trackindex>4</trackindex>
							<clipindex>2</clipindex>
							<groupindex>1</groupindex>
						</link>
						<link>
							<linkclipref>clipitem-378</linkclipref>
							<mediatype>audio</mediatype>
							<trackindex>5</trackindex>
							<clipindex>2</clipindex>
							<groupindex>1</groupindex>
						</link>
						<link>
							<linkclipref>clipitem-384</linkclipref>
							<mediatype>audio</mediatype>
							<trackindex>6</trackindex>
							<clipindex>2</clipindex>
							<groupindex>1</groupindex>
						</link>
						<link>
							<linkclipref>clipitem-390</linkclipref>
							<mediatype>audio</mediatype>
							<trackindex>7</trackindex>
							<clipindex>2</clipindex>
							<groupindex>1</groupindex>
						</link>
						<link>
							<linkclipref>clipitem-396</linkclipref>
							<mediatype>audio</mediatype>
							<trackindex>8</trackindex>
							<clipindex>2</clipindex>
							<groupindex>1</groupindex>
						</link>
					</clipitem>
					<clipitem id="clipitem-361" premiereChannelType="mono">
						
						
						<masterclipid>masterclip-27</masterclipid>
						
						
						<name>0619_0728.MXF</name>
						
						
						<enabled>TRUE</enabled>
						
						
						<duration>98768</duration>
						
						
						<rate>
							
							
							<timebase>24</timebase>
							
							
							<ntsc>TRUE</ntsc>
							
						
						</rate>
						
						
						<start>32225</start>
						
						
						<end>47985</end>
						
						
						<in>36229</in>
						
						
						<out>51989</out>
						
						
						<pproTicksIn>383831183736000</pproTicksIn>
						
						
						<pproTicksOut>550801827576000</pproTicksOut>
						
						
						<file id="file-27"/>
						
						
						<sourcetrack>
							
							
							<mediatype>audio</mediatype>
							
							
							<trackindex>2</trackindex>
							
						
						</sourcetrack>
						
							
						<marker>
							
								
							<comment/>
							
								
							<name/>
							
								
							<in>2701</in>
							
								
							<out>-1</out>
							
							
						</marker>
						
						
						<logginginfo>
							
							
							<description/>
							
							
							<scene/>
							
							
							<shottake/>
							
							
							<lognote/>
							
							
							<good/>
							
							
							<originalvideofilename/>
							
							
							<originalaudiofilename/>
							
						
						</logginginfo>
						
						
						<colorinfo>
							
							
							<lut/>
							
							
							<lut1/>
							
							
							<asc_sop/>
							
							
							<asc_sat/>
							
							
							<lut2/>
							
						
						</colorinfo>
						
						
						<labels>
							
							
							<label2>Mango</label2>
							
						
						</labels>
						
					
						<link>
							<linkclipref>clipitem-337</linkclipref>
							<mediatype>video</mediatype>
							<trackindex>1</trackindex>
							<clipindex>3</clipindex>
							<groupindex>1</groupindex>
						</link>
						<link>
							<linkclipref>clipitem-343</linkclipref>
							<mediatype>video</mediatype>
							<trackindex>2</trackindex>
							<clipindex>3</clipindex>
							<groupindex>1</groupindex>
						</link>
						<link>
							<linkclipref>clipitem-349</linkclipref>
							<mediatype>video</mediatype>
							<trackindex>3</trackindex>
							<clipindex>3</clipindex>
							<groupindex>1</groupindex>
						</link>
						<link>
							<linkclipref>clipitem-355</linkclipref>
							<mediatype>audio</mediatype>
							<trackindex>1</trackindex>
							<clipindex>3</clipindex>
							<groupindex>1</groupindex>
						</link>
						<link>
							<linkclipref>clipitem-361</linkclipref>
							<mediatype>audio</mediatype>
							<trackindex>2</trackindex>
							<clipindex>3</clipindex>
							<groupindex>1</groupindex>
						</link>
						<link>
							<linkclipref>clipitem-367</linkclipref>
							<mediatype>audio</mediatype>
							<trackindex>3</trackindex>
							<clipindex>3</clipindex>
							<groupindex>1</groupindex>
						</link>
						<link>
							<linkclipref>clipitem-373</linkclipref>
							<mediatype>audio</mediatype>
							<trackindex>4</trackindex>
							<clipindex>3</clipindex>
							<groupindex>1</groupindex>
						</link>
						<link>
							<linkclipref>clipitem-379</linkclipref>
							<mediatype>audio</mediatype>
							<trackindex>5</trackindex>
							<clipindex>3</clipindex>
							<groupindex>1</groupindex>
						</link>
						<link>
							<linkclipref>clipitem-385</linkclipref>
							<mediatype>audio</mediatype>
							<trackindex>6</trackindex>
							<clipindex>3</clipindex>
							<groupindex>1</groupindex>
						</link>
						<link>
							<linkclipref>clipitem-391</linkclipref>
							<mediatype>audio</mediatype>
							<trackindex>7</trackindex>
							<clipindex>3</clipindex>
							<groupindex>1</groupindex>
						</link>
						<link>
							<linkclipref>clipitem-397</linkclipref>
							<mediatype>audio</mediatype>
							<trackindex>8</trackindex>
							<clipindex>3</clipindex>
							<groupindex>1</groupindex>
						</link>
					</clipitem>
					<clipitem id="clipitem-362" premiereChannelType="mono">
						
						
						<masterclipid>masterclip-27</masterclipid>
						
						
						<name>0619_0728.MXF</name>
						
						
						<enabled>TRUE</enabled>
						
						
						<duration>98768</duration>
						
						
						<rate>
							
							
							<timebase>24</timebase>
							
							
							<ntsc>TRUE</ntsc>
							
						
						</rate>
						
						
						<start>48347</start>
						
						
						<end>62769</end>
						
						
						<in>53301</in>
						
						
						<out>67723</out>
						
						
						<pproTicksIn>564701921784000</pproTicksIn>
						
						
						<pproTicksOut>717497012232000</pproTicksOut>
						
						
						<file id="file-27"/>
						
						
						<sourcetrack>
							
							
							<mediatype>audio</mediatype>
							
							
							<trackindex>2</trackindex>
							
						
						</sourcetrack>
						
							
						<marker>
							
								
							<comment/>
							
								
							<name/>
							
								
							<in>2701</in>
							
								
							<out>-1</out>
							
							
						</marker>
						
						
						<logginginfo>
							
							
							<description/>
							
							
							<scene/>
							
							
							<shottake/>
							
							
							<lognote/>
							
							
							<good/>
							
							
							<originalvideofilename/>
							
							
							<originalaudiofilename/>
							
						
						</logginginfo>
						
						
						<colorinfo>
							
							
							<lut/>
							
							
							<lut1/>
							
							
							<asc_sop/>
							
							
							<asc_sat/>
							
							
							<lut2/>
							
						
						</colorinfo>
						
						
						<labels>
							
							
							<label2>Yellow</label2>
							
						
						</labels>
						
					
						<link>
							<linkclipref>clipitem-338</linkclipref>
							<mediatype>video</mediatype>
							<trackindex>1</trackindex>
							<clipindex>4</clipindex>
							<groupindex>1</groupindex>
						</link>
						<link>
							<linkclipref>clipitem-344</linkclipref>
							<mediatype>video</mediatype>
							<trackindex>2</trackindex>
							<clipindex>4</clipindex>
							<groupindex>1</groupindex>
						</link>
						<link>
							<linkclipref>clipitem-350</linkclipref>
							<mediatype>video</mediatype>
							<trackindex>3</trackindex>
							<clipindex>4</clipindex>
							<groupindex>1</groupindex>
						</link>
						<link>
							<linkclipref>clipitem-356</linkclipref>
							<mediatype>audio</mediatype>
							<trackindex>1</trackindex>
							<clipindex>4</clipindex>
							<groupindex>1</groupindex>
						</link>
						<link>
							<linkclipref>clipitem-362</linkclipref>
							<mediatype>audio</mediatype>
							<trackindex>2</trackindex>
							<clipindex>4</clipindex>
							<groupindex>1</groupindex>
						</link>
						<link>
							<linkclipref>clipitem-368</linkclipref>
							<mediatype>audio</mediatype>
							<trackindex>3</trackindex>
							<clipindex>4</clipindex>
							<groupindex>1</groupindex>
						</link>
						<link>
							<linkclipref>clipitem-374</linkclipref>
							<mediatype>audio</mediatype>
							<trackindex>4</trackindex>
							<clipindex>4</clipindex>
							<groupindex>1</groupindex>
						</link>
						<link>
							<linkclipref>clipitem-380</linkclipref>
							<mediatype>audio</mediatype>
							<trackindex>5</trackindex>
							<clipindex>4</clipindex>
							<groupindex>1</groupindex>
						</link>
						<link>
							<linkclipref>clipitem-386</linkclipref>
							<mediatype>audio</mediatype>
							<trackindex>6</trackindex>
							<clipindex>4</clipindex>
							<groupindex>1</groupindex>
						</link>
						<link>
							<linkclipref>clipitem-392</linkclipref>
							<mediatype>audio</mediatype>
							<trackindex>7</trackindex>
							<clipindex>4</clipindex>
							<groupindex>1</groupindex>
						</link>
						<link>
							<linkclipref>clipitem-398</linkclipref>
							<mediatype>audio</mediatype>
							<trackindex>8</trackindex>
							<clipindex>4</clipindex>
							<groupindex>1</groupindex>
						</link>
					</clipitem>
					<clipitem id="clipitem-363" premiereChannelType="mono">
						
						
						<masterclipid>masterclip-27</masterclipid>
						
						
						<name>0619_0728.MXF</name>
						
						
						<enabled>TRUE</enabled>
						
						
						<duration>98768</duration>
						
						
						<rate>
							
							
							<timebase>24</timebase>
							
							
							<ntsc>TRUE</ntsc>
							
						
						</rate>
						
						
						<start>63131</start>
						
						
						<end>75322</end>
						
						
						<in>68306</in>
						
						
						<out>80497</out>
						
						
						<pproTicksIn>723673654703999</pproTicksIn>
						
						
						<pproTicksOut>852832228247999</pproTicksOut>
						
						
						<file id="file-27"/>
						
						
						<sourcetrack>
							
							
							<mediatype>audio</mediatype>
							
							
							<trackindex>2</trackindex>
							
						
						</sourcetrack>
						
							
						<marker>
							
								
							<comment/>
							
								
							<name/>
							
								
							<in>2701</in>
							
								
							<out>-1</out>
							
							
						</marker>
						
						
						<logginginfo>
							
							
							<description/>
							
							
							<scene/>
							
							
							<shottake/>
							
							
							<lognote/>
							
							
							<good/>
							
							
							<originalvideofilename/>
							
							
							<originalaudiofilename/>
							
						
						</logginginfo>
						
						
						<colorinfo>
							
							
							<lut/>
							
							
							<lut1/>
							
							
							<asc_sop/>
							
							
							<asc_sat/>
							
							
							<lut2/>
							
						
						</colorinfo>
						
						
						<labels>
							
							
							<label2>Lavender</label2>
							
						
						</labels>
						
					
						<link>
							<linkclipref>clipitem-339</linkclipref>
							<mediatype>video</mediatype>
							<trackindex>1</trackindex>
							<clipindex>5</clipindex>
							<groupindex>1</groupindex>
						</link>
						<link>
							<linkclipref>clipitem-345</linkclipref>
							<mediatype>video</mediatype>
							<trackindex>2</trackindex>
							<clipindex>5</clipindex>
							<groupindex>1</groupindex>
						</link>
						<link>
							<linkclipref>clipitem-351</linkclipref>
							<mediatype>video</mediatype>
							<trackindex>3</trackindex>
							<clipindex>5</clipindex>
							<groupindex>1</groupindex>
						</link>
						<link>
							<linkclipref>clipitem-357</linkclipref>
							<mediatype>audio</mediatype>
							<trackindex>1</trackindex>
							<clipindex>5</clipindex>
							<groupindex>1</groupindex>
						</link>
						<link>
							<linkclipref>clipitem-363</linkclipref>
							<mediatype>audio</mediatype>
							<trackindex>2</trackindex>
							<clipindex>5</clipindex>
							<groupindex>1</groupindex>
						</link>
						<link>
							<linkclipref>clipitem-369</linkclipref>
							<mediatype>audio</mediatype>
							<trackindex>3</trackindex>
							<clipindex>5</clipindex>
							<groupindex>1</groupindex>
						</link>
						<link>
							<linkclipref>clipitem-375</linkclipref>
							<mediatype>audio</mediatype>
							<trackindex>4</trackindex>
							<clipindex>5</clipindex>
							<groupindex>1</groupindex>
						</link>
						<link>
							<linkclipref>clipitem-381</linkclipref>
							<mediatype>audio</mediatype>
							<trackindex>5</trackindex>
							<clipindex>5</clipindex>
							<groupindex>1</groupindex>
						</link>
						<link>
							<linkclipref>clipitem-387</linkclipref>
							<mediatype>audio</mediatype>
							<trackindex>6</trackindex>
							<clipindex>5</clipindex>
							<groupindex>1</groupindex>
						</link>
						<link>
							<linkclipref>clipitem-393</linkclipref>
							<mediatype>audio</mediatype>
							<trackindex>7</trackindex>
							<clipindex>5</clipindex>
							<groupindex>1</groupindex>
						</link>
						<link>
							<linkclipref>clipitem-399</linkclipref>
							<mediatype>audio</mediatype>
							<trackindex>8</trackindex>
							<clipindex>5</clipindex>
							<groupindex>1</groupindex>
						</link>
					</clipitem>
					<clipitem id="clipitem-364" premiereChannelType="mono">
						
						
						<masterclipid>masterclip-27</masterclipid>
						
						
						<name>0619_0728.MXF</name>
						
						
						<enabled>TRUE</enabled>
						
						
						<duration>98768</duration>
						
						
						<rate>
							
							
							<timebase>24</timebase>
							
							
							<ntsc>TRUE</ntsc>
							
						
						</rate>
						
						
						<start>75684</start>
						
						
						<end>91254</end>
						
						
						<in>82112</in>
						
						
						<out>97682</out>
						
						
						<pproTicksIn>869942481407999</pproTicksIn>
						
						
						<pproTicksOut>1034900154288000</pproTicksOut>
						
						
						<file id="file-27"/>
						
						
						<sourcetrack>
							
							
							<mediatype>audio</mediatype>
							
							
							<trackindex>2</trackindex>
							
						
						</sourcetrack>
						
							
						<marker>
							
								
							<comment/>
							
								
							<name/>
							
								
							<in>2701</in>
							
								
							<out>-1</out>
							
							
						</marker>
						
						
						<logginginfo>
							
							
							<description/>
							
							
							<scene/>
							
							
							<shottake/>
							
							
							<lognote/>
							
							
							<good/>
							
							
							<originalvideofilename/>
							
							
							<originalaudiofilename/>
							
						
						</logginginfo>
						
						
						<colorinfo>
							
							
							<lut/>
							
							
							<lut1/>
							
							
							<asc_sop/>
							
							
							<asc_sat/>
							
							
							<lut2/>
							
						
						</colorinfo>
						
						
						<labels>
							
							
							<label2>Caribbean</label2>
							
						
						</labels>
						
					
						<link>
							<linkclipref>clipitem-340</linkclipref>
							<mediatype>video</mediatype>
							<trackindex>1</trackindex>
							<clipindex>6</clipindex>
							<groupindex>1</groupindex>
						</link>
						<link>
							<linkclipref>clipitem-346</linkclipref>
							<mediatype>video</mediatype>
							<trackindex>2</trackindex>
							<clipindex>6</clipindex>
							<groupindex>1</groupindex>
						</link>
						<link>
							<linkclipref>clipitem-352</linkclipref>
							<mediatype>video</mediatype>
							<trackindex>3</trackindex>
							<clipindex>6</clipindex>
							<groupindex>1</groupindex>
						</link>
						<link>
							<linkclipref>clipitem-358</linkclipref>
							<mediatype>audio</mediatype>
							<trackindex>1</trackindex>
							<clipindex>6</clipindex>
							<groupindex>1</groupindex>
						</link>
						<link>
							<linkclipref>clipitem-364</linkclipref>
							<mediatype>audio</mediatype>
							<trackindex>2</trackindex>
							<clipindex>6</clipindex>
							<groupindex>1</groupindex>
						</link>
						<link>
							<linkclipref>clipitem-370</linkclipref>
							<mediatype>audio</mediatype>
							<trackindex>3</trackindex>
							<clipindex>6</clipindex>
							<groupindex>1</groupindex>
						</link>
						<link>
							<linkclipref>clipitem-376</linkclipref>
							<mediatype>audio</mediatype>
							<trackindex>4</trackindex>
							<clipindex>6</clipindex>
							<groupindex>1</groupindex>
						</link>
						<link>
							<linkclipref>clipitem-382</linkclipref>
							<mediatype>audio</mediatype>
							<trackindex>5</trackindex>
							<clipindex>6</clipindex>
							<groupindex>1</groupindex>
						</link>
						<link>
							<linkclipref>clipitem-388</linkclipref>
							<mediatype>audio</mediatype>
							<trackindex>6</trackindex>
							<clipindex>6</clipindex>
							<groupindex>1</groupindex>
						</link>
						<link>
							<linkclipref>clipitem-394</linkclipref>
							<mediatype>audio</mediatype>
							<trackindex>7</trackindex>
							<clipindex>6</clipindex>
							<groupindex>1</groupindex>
						</link>
						<link>
							<linkclipref>clipitem-400</linkclipref>
							<mediatype>audio</mediatype>
							<trackindex>8</trackindex>
							<clipindex>6</clipindex>
							<groupindex>1</groupindex>
						</link>
					</clipitem>
					<enabled>TRUE</enabled>
					<locked>FALSE</locked>
					<outputchannelindex>2</outputchannelindex>
				</track>
				<track TL.SQTrackAudioKeyframeStyle="0" TL.SQTrackShy="0" TL.SQTrackExpandedHeight="41" TL.SQTrackExpanded="0" MZ.TrackTargeted="1" PannerCurrentValue="0.5" PannerIsInverted="true" PannerStartKeyframe="-91445760000000000,0.5,0,0,0,0,0,0" PannerName="Balance" currentExplodedTrackIndex="0" totalExplodedTrackCount="1" premiereTrackType="Stereo">
					<clipitem id="clipitem-365" premiereChannelType="mono">
						
						
						<masterclipid>masterclip-27</masterclipid>
						
						
						<name>0619_0728.MXF</name>
						
						
						<enabled>TRUE</enabled>
						
						
						<duration>98768</duration>
						
						
						<rate>
							
							
							<timebase>24</timebase>
							
							
							<ntsc>TRUE</ntsc>
							
						
						</rate>
						
						
						<start>120</start>
						
						
						<end>17739</end>
						
						
						<in>2678</in>
						
						
						<out>20297</out>
						
						
						<pproTicksIn>28372295951999</pproTicksIn>
						
						
						<pproTicksOut>215038271448000</pproTicksOut>
						
						
						<file id="file-27"/>
						
						
						<sourcetrack>
							
							
							<mediatype>audio</mediatype>
							
							
							<trackindex>3</trackindex>
							
						
						</sourcetrack>
						
							
						<marker>
							
								
							<comment/>
							
								
							<name/>
							
								
							<in>2701</in>
							
								
							<out>-1</out>
							
							
						</marker>
						
						
						<logginginfo>
							
							
							<description/>
							
							
							<scene/>
							
							
							<shottake/>
							
							
							<lognote/>
							
							
							<good/>
							
							
							<originalvideofilename/>
							
							
							<originalaudiofilename/>
							
						
						</logginginfo>
						
						
						<colorinfo>
							
							
							<lut/>
							
							
							<lut1/>
							
							
							<asc_sop/>
							
							
							<asc_sat/>
							
							
							<lut2/>
							
						
						</colorinfo>
						
						
						<labels>
							
							
							<label2>Violet</label2>
							
						
						</labels>
						
					
						<link>
							<linkclipref>clipitem-335</linkclipref>
							<mediatype>video</mediatype>
							<trackindex>1</trackindex>
							<clipindex>1</clipindex>
							<groupindex>1</groupindex>
						</link>
						<link>
							<linkclipref>clipitem-341</linkclipref>
							<mediatype>video</mediatype>
							<trackindex>2</trackindex>
							<clipindex>1</clipindex>
							<groupindex>1</groupindex>
						</link>
						<link>
							<linkclipref>clipitem-347</linkclipref>
							<mediatype>video</mediatype>
							<trackindex>3</trackindex>
							<clipindex>1</clipindex>
							<groupindex>1</groupindex>
						</link>
						<link>
							<linkclipref>clipitem-353</linkclipref>
							<mediatype>audio</mediatype>
							<trackindex>1</trackindex>
							<clipindex>1</clipindex>
							<groupindex>1</groupindex>
						</link>
						<link>
							<linkclipref>clipitem-359</linkclipref>
							<mediatype>audio</mediatype>
							<trackindex>2</trackindex>
							<clipindex>1</clipindex>
							<groupindex>1</groupindex>
						</link>
						<link>
							<linkclipref>clipitem-365</linkclipref>
							<mediatype>audio</mediatype>
							<trackindex>3</trackindex>
							<clipindex>1</clipindex>
							<groupindex>1</groupindex>
						</link>
						<link>
							<linkclipref>clipitem-371</linkclipref>
							<mediatype>audio</mediatype>
							<trackindex>4</trackindex>
							<clipindex>1</clipindex>
							<groupindex>1</groupindex>
						</link>
						<link>
							<linkclipref>clipitem-377</linkclipref>
							<mediatype>audio</mediatype>
							<trackindex>5</trackindex>
							<clipindex>1</clipindex>
							<groupindex>1</groupindex>
						</link>
						<link>
							<linkclipref>clipitem-383</linkclipref>
							<mediatype>audio</mediatype>
							<trackindex>6</trackindex>
							<clipindex>1</clipindex>
							<groupindex>1</groupindex>
						</link>
						<link>
							<linkclipref>clipitem-389</linkclipref>
							<mediatype>audio</mediatype>
							<trackindex>7</trackindex>
							<clipindex>1</clipindex>
							<groupindex>1</groupindex>
						</link>
						<link>
							<linkclipref>clipitem-395</linkclipref>
							<mediatype>audio</mediatype>
							<trackindex>8</trackindex>
							<clipindex>1</clipindex>
							<groupindex>1</groupindex>
						</link>
					</clipitem>
					<clipitem id="clipitem-366" premiereChannelType="mono">
						
						
						<masterclipid>masterclip-27</masterclipid>
						
						
						<name>0619_0728.MXF</name>
						
						
						<enabled>TRUE</enabled>
						
						
						<duration>98768</duration>
						
						
						<rate>
							
							
							<timebase>24</timebase>
							
							
							<ntsc>TRUE</ntsc>
							
						
						</rate>
						
						
						<start>18101</start>
						
						
						<end>31863</end>
						
						
						<in>21247</in>
						
						
						<out>35009</out>
						
						
						<pproTicksIn>225103126247999</pproTicksIn>
						
						
						<pproTicksOut>370905791256000</pproTicksOut>
						
						
						<file id="file-27"/>
						
						
						<sourcetrack>
							
							
							<mediatype>audio</mediatype>
							
							
							<trackindex>3</trackindex>
							
						
						</sourcetrack>
						
							
						<marker>
							
								
							<comment/>
							
								
							<name/>
							
								
							<in>2701</in>
							
								
							<out>-1</out>
							
							
						</marker>
						
						
						<logginginfo>
							
							
							<description/>
							
							
							<scene/>
							
							
							<shottake/>
							
							
							<lognote/>
							
							
							<good/>
							
							
							<originalvideofilename/>
							
							
							<originalaudiofilename/>
							
						
						</logginginfo>
						
						
						<colorinfo>
							
							
							<lut/>
							
							
							<lut1/>
							
							
							<asc_sop/>
							
							
							<asc_sat/>
							
							
							<lut2/>
							
						
						</colorinfo>
						
						
						<labels>
							
							
							<label2>Rose</label2>
							
						
						</labels>
						
					
						<link>
							<linkclipref>clipitem-336</linkclipref>
							<mediatype>video</mediatype>
							<trackindex>1</trackindex>
							<clipindex>2</clipindex>
							<groupindex>1</groupindex>
						</link>
						<link>
							<linkclipref>clipitem-342</linkclipref>
							<mediatype>video</mediatype>
							<trackindex>2</trackindex>
							<clipindex>2</clipindex>
							<groupindex>1</groupindex>
						</link>
						<link>
							<linkclipref>clipitem-348</linkclipref>
							<mediatype>video</mediatype>
							<trackindex>3</trackindex>
							<clipindex>2</clipindex>
							<groupindex>1</groupindex>
						</link>
						<link>
							<linkclipref>clipitem-354</linkclipref>
							<mediatype>audio</mediatype>
							<trackindex>1</trackindex>
							<clipindex>2</clipindex>
							<groupindex>1</groupindex>
						</link>
						<link>
							<linkclipref>clipitem-360</linkclipref>
							<mediatype>audio</mediatype>
							<trackindex>2</trackindex>
							<clipindex>2</clipindex>
							<groupindex>1</groupindex>
						</link>
						<link>
							<linkclipref>clipitem-366</linkclipref>
							<mediatype>audio</mediatype>
							<trackindex>3</trackindex>
							<clipindex>2</clipindex>
							<groupindex>1</groupindex>
						</link>
						<link>
							<linkclipref>clipitem-372</linkclipref>
							<mediatype>audio</mediatype>
							<trackindex>4</trackindex>
							<clipindex>2</clipindex>
							<groupindex>1</groupindex>
						</link>
						<link>
							<linkclipref>clipitem-378</linkclipref>
							<mediatype>audio</mediatype>
							<trackindex>5</trackindex>
							<clipindex>2</clipindex>
							<groupindex>1</groupindex>
						</link>
						<link>
							<linkclipref>clipitem-384</linkclipref>
							<mediatype>audio</mediatype>
							<trackindex>6</trackindex>
							<clipindex>2</clipindex>
							<groupindex>1</groupindex>
						</link>
						<link>
							<linkclipref>clipitem-390</linkclipref>
							<mediatype>audio</mediatype>
							<trackindex>7</trackindex>
							<clipindex>2</clipindex>
							<groupindex>1</groupindex>
						</link>
						<link>
							<linkclipref>clipitem-396</linkclipref>
							<mediatype>audio</mediatype>
							<trackindex>8</trackindex>
							<clipindex>2</clipindex>
							<groupindex>1</groupindex>
						</link>
					</clipitem>
					<clipitem id="clipitem-367" premiereChannelType="mono">
						
						
						<masterclipid>masterclip-27</masterclipid>
						
						
						<name>0619_0728.MXF</name>
						
						
						<enabled>TRUE</enabled>
						
						
						<duration>98768</duration>
						
						
						<rate>
							
							
							<timebase>24</timebase>
							
							
							<ntsc>TRUE</ntsc>
							
						
						</rate>
						
						
						<start>32225</start>
						
						
						<end>47985</end>
						
						
						<in>36229</in>
						
						
						<out>51989</out>
						
						
						<pproTicksIn>383831183736000</pproTicksIn>
						
						
						<pproTicksOut>550801827576000</pproTicksOut>
						
						
						<file id="file-27"/>
						
						
						<sourcetrack>
							
							
							<mediatype>audio</mediatype>
							
							
							<trackindex>3</trackindex>
							
						
						</sourcetrack>
						
							
						<marker>
							
								
							<comment/>
							
								
							<name/>
							
								
							<in>2701</in>
							
								
							<out>-1</out>
							
							
						</marker>
						
						
						<logginginfo>
							
							
							<description/>
							
							
							<scene/>
							
							
							<shottake/>
							
							
							<lognote/>
							
							
							<good/>
							
							
							<originalvideofilename/>
							
							
							<originalaudiofilename/>
							
						
						</logginginfo>
						
						
						<colorinfo>
							
							
							<lut/>
							
							
							<lut1/>
							
							
							<asc_sop/>
							
							
							<asc_sat/>
							
							
							<lut2/>
							
						
						</colorinfo>
						
						
						<labels>
							
							
							<label2>Mango</label2>
							
						
						</labels>
						
					
						<link>
							<linkclipref>clipitem-337</linkclipref>
							<mediatype>video</mediatype>
							<trackindex>1</trackindex>
							<clipindex>3</clipindex>
							<groupindex>1</groupindex>
						</link>
						<link>
							<linkclipref>clipitem-343</linkclipref>
							<mediatype>video</mediatype>
							<trackindex>2</trackindex>
							<clipindex>3</clipindex>
							<groupindex>1</groupindex>
						</link>
						<link>
							<linkclipref>clipitem-349</linkclipref>
							<mediatype>video</mediatype>
							<trackindex>3</trackindex>
							<clipindex>3</clipindex>
							<groupindex>1</groupindex>
						</link>
						<link>
							<linkclipref>clipitem-355</linkclipref>
							<mediatype>audio</mediatype>
							<trackindex>1</trackindex>
							<clipindex>3</clipindex>
							<groupindex>1</groupindex>
						</link>
						<link>
							<linkclipref>clipitem-361</linkclipref>
							<mediatype>audio</mediatype>
							<trackindex>2</trackindex>
							<clipindex>3</clipindex>
							<groupindex>1</groupindex>
						</link>
						<link>
							<linkclipref>clipitem-367</linkclipref>
							<mediatype>audio</mediatype>
							<trackindex>3</trackindex>
							<clipindex>3</clipindex>
							<groupindex>1</groupindex>
						</link>
						<link>
							<linkclipref>clipitem-373</linkclipref>
							<mediatype>audio</mediatype>
							<trackindex>4</trackindex>
							<clipindex>3</clipindex>
							<groupindex>1</groupindex>
						</link>
						<link>
							<linkclipref>clipitem-379</linkclipref>
							<mediatype>audio</mediatype>
							<trackindex>5</trackindex>
							<clipindex>3</clipindex>
							<groupindex>1</groupindex>
						</link>
						<link>
							<linkclipref>clipitem-385</linkclipref>
							<mediatype>audio</mediatype>
							<trackindex>6</trackindex>
							<clipindex>3</clipindex>
							<groupindex>1</groupindex>
						</link>
						<link>
							<linkclipref>clipitem-391</linkclipref>
							<mediatype>audio</mediatype>
							<trackindex>7</trackindex>
							<clipindex>3</clipindex>
							<groupindex>1</groupindex>
						</link>
						<link>
							<linkclipref>clipitem-397</linkclipref>
							<mediatype>audio</mediatype>
							<trackindex>8</trackindex>
							<clipindex>3</clipindex>
							<groupindex>1</groupindex>
						</link>
					</clipitem>
					<clipitem id="clipitem-368" premiereChannelType="mono">
						
						
						<masterclipid>masterclip-27</masterclipid>
						
						
						<name>0619_0728.MXF</name>
						
						
						<enabled>TRUE</enabled>
						
						
						<duration>98768</duration>
						
						
						<rate>
							
							
							<timebase>24</timebase>
							
							
							<ntsc>TRUE</ntsc>
							
						
						</rate>
						
						
						<start>48347</start>
						
						
						<end>62769</end>
						
						
						<in>53301</in>
						
						
						<out>67723</out>
						
						
						<pproTicksIn>564701921784000</pproTicksIn>
						
						
						<pproTicksOut>717497012232000</pproTicksOut>
						
						
						<file id="file-27"/>
						
						
						<sourcetrack>
							
							
							<mediatype>audio</mediatype>
							
							
							<trackindex>3</trackindex>
							
						
						</sourcetrack>
						
							
						<marker>
							
								
							<comment/>
							
								
							<name/>
							
								
							<in>2701</in>
							
								
							<out>-1</out>
							
							
						</marker>
						
						
						<logginginfo>
							
							
							<description/>
							
							
							<scene/>
							
							
							<shottake/>
							
							
							<lognote/>
							
							
							<good/>
							
							
							<originalvideofilename/>
							
							
							<originalaudiofilename/>
							
						
						</logginginfo>
						
						
						<colorinfo>
							
							
							<lut/>
							
							
							<lut1/>
							
							
							<asc_sop/>
							
							
							<asc_sat/>
							
							
							<lut2/>
							
						
						</colorinfo>
						
						
						<labels>
							
							
							<label2>Yellow</label2>
							
						
						</labels>
						
					
						<link>
							<linkclipref>clipitem-338</linkclipref>
							<mediatype>video</mediatype>
							<trackindex>1</trackindex>
							<clipindex>4</clipindex>
							<groupindex>1</groupindex>
						</link>
						<link>
							<linkclipref>clipitem-344</linkclipref>
							<mediatype>video</mediatype>
							<trackindex>2</trackindex>
							<clipindex>4</clipindex>
							<groupindex>1</groupindex>
						</link>
						<link>
							<linkclipref>clipitem-350</linkclipref>
							<mediatype>video</mediatype>
							<trackindex>3</trackindex>
							<clipindex>4</clipindex>
							<groupindex>1</groupindex>
						</link>
						<link>
							<linkclipref>clipitem-356</linkclipref>
							<mediatype>audio</mediatype>
							<trackindex>1</trackindex>
							<clipindex>4</clipindex>
							<groupindex>1</groupindex>
						</link>
						<link>
							<linkclipref>clipitem-362</linkclipref>
							<mediatype>audio</mediatype>
							<trackindex>2</trackindex>
							<clipindex>4</clipindex>
							<groupindex>1</groupindex>
						</link>
						<link>
							<linkclipref>clipitem-368</linkclipref>
							<mediatype>audio</mediatype>
							<trackindex>3</trackindex>
							<clipindex>4</clipindex>
							<groupindex>1</groupindex>
						</link>
						<link>
							<linkclipref>clipitem-374</linkclipref>
							<mediatype>audio</mediatype>
							<trackindex>4</trackindex>
							<clipindex>4</clipindex>
							<groupindex>1</groupindex>
						</link>
						<link>
							<linkclipref>clipitem-380</linkclipref>
							<mediatype>audio</mediatype>
							<trackindex>5</trackindex>
							<clipindex>4</clipindex>
							<groupindex>1</groupindex>
						</link>
						<link>
							<linkclipref>clipitem-386</linkclipref>
							<mediatype>audio</mediatype>
							<trackindex>6</trackindex>
							<clipindex>4</clipindex>
							<groupindex>1</groupindex>
						</link>
						<link>
							<linkclipref>clipitem-392</linkclipref>
							<mediatype>audio</mediatype>
							<trackindex>7</trackindex>
							<clipindex>4</clipindex>
							<groupindex>1</groupindex>
						</link>
						<link>
							<linkclipref>clipitem-398</linkclipref>
							<mediatype>audio</mediatype>
							<trackindex>8</trackindex>
							<clipindex>4</clipindex>
							<groupindex>1</groupindex>
						</link>
					</clipitem>
					<clipitem id="clipitem-369" premiereChannelType="mono">
						
						
						<masterclipid>masterclip-27</masterclipid>
						
						
						<name>0619_0728.MXF</name>
						
						
						<enabled>TRUE</enabled>
						
						
						<duration>98768</duration>
						
						
						<rate>
							
							
							<timebase>24</timebase>
							
							
							<ntsc>TRUE</ntsc>
							
						
						</rate>
						
						
						<start>63131</start>
						
						
						<end>75322</end>
						
						
						<in>68306</in>
						
						
						<out>80497</out>
						
						
						<pproTicksIn>723673654703999</pproTicksIn>
						
						
						<pproTicksOut>852832228247999</pproTicksOut>
						
						
						<file id="file-27"/>
						
						
						<sourcetrack>
							
							
							<mediatype>audio</mediatype>
							
							
							<trackindex>3</trackindex>
							
						
						</sourcetrack>
						
							
						<marker>
							
								
							<comment/>
							
								
							<name/>
							
								
							<in>2701</in>
							
								
							<out>-1</out>
							
							
						</marker>
						
						
						<logginginfo>
							
							
							<description/>
							
							
							<scene/>
							
							
							<shottake/>
							
							
							<lognote/>
							
							
							<good/>
							
							
							<originalvideofilename/>
							
							
							<originalaudiofilename/>
							
						
						</logginginfo>
						
						
						<colorinfo>
							
							
							<lut/>
							
							
							<lut1/>
							
							
							<asc_sop/>
							
							
							<asc_sat/>
							
							
							<lut2/>
							
						
						</colorinfo>
						
						
						<labels>
							
							
							<label2>Lavender</label2>
							
						
						</labels>
						
					
						<link>
							<linkclipref>clipitem-339</linkclipref>
							<mediatype>video</mediatype>
							<trackindex>1</trackindex>
							<clipindex>5</clipindex>
							<groupindex>1</groupindex>
						</link>
						<link>
							<linkclipref>clipitem-345</linkclipref>
							<mediatype>video</mediatype>
							<trackindex>2</trackindex>
							<clipindex>5</clipindex>
							<groupindex>1</groupindex>
						</link>
						<link>
							<linkclipref>clipitem-351</linkclipref>
							<mediatype>video</mediatype>
							<trackindex>3</trackindex>
							<clipindex>5</clipindex>
							<groupindex>1</groupindex>
						</link>
						<link>
							<linkclipref>clipitem-357</linkclipref>
							<mediatype>audio</mediatype>
							<trackindex>1</trackindex>
							<clipindex>5</clipindex>
							<groupindex>1</groupindex>
						</link>
						<link>
							<linkclipref>clipitem-363</linkclipref>
							<mediatype>audio</mediatype>
							<trackindex>2</trackindex>
							<clipindex>5</clipindex>
							<groupindex>1</groupindex>
						</link>
						<link>
							<linkclipref>clipitem-369</linkclipref>
							<mediatype>audio</mediatype>
							<trackindex>3</trackindex>
							<clipindex>5</clipindex>
							<groupindex>1</groupindex>
						</link>
						<link>
							<linkclipref>clipitem-375</linkclipref>
							<mediatype>audio</mediatype>
							<trackindex>4</trackindex>
							<clipindex>5</clipindex>
							<groupindex>1</groupindex>
						</link>
						<link>
							<linkclipref>clipitem-381</linkclipref>
							<mediatype>audio</mediatype>
							<trackindex>5</trackindex>
							<clipindex>5</clipindex>
							<groupindex>1</groupindex>
						</link>
						<link>
							<linkclipref>clipitem-387</linkclipref>
							<mediatype>audio</mediatype>
							<trackindex>6</trackindex>
							<clipindex>5</clipindex>
							<groupindex>1</groupindex>
						</link>
						<link>
							<linkclipref>clipitem-393</linkclipref>
							<mediatype>audio</mediatype>
							<trackindex>7</trackindex>
							<clipindex>5</clipindex>
							<groupindex>1</groupindex>
						</link>
						<link>
							<linkclipref>clipitem-399</linkclipref>
							<mediatype>audio</mediatype>
							<trackindex>8</trackindex>
							<clipindex>5</clipindex>
							<groupindex>1</groupindex>
						</link>
					</clipitem>
					<clipitem id="clipitem-370" premiereChannelType="mono">
						
						
						<masterclipid>masterclip-27</masterclipid>
						
						
						<name>0619_0728.MXF</name>
						
						
						<enabled>TRUE</enabled>
						
						
						<duration>98768</duration>
						
						
						<rate>
							
							
							<timebase>24</timebase>
							
							
							<ntsc>TRUE</ntsc>
							
						
						</rate>
						
						
						<start>75684</start>
						
						
						<end>91254</end>
						
						
						<in>82112</in>
						
						
						<out>97682</out>
						
						
						<pproTicksIn>869942481407999</pproTicksIn>
						
						
						<pproTicksOut>1034900154288000</pproTicksOut>
						
						
						<file id="file-27"/>
						
						
						<sourcetrack>
							
							
							<mediatype>audio</mediatype>
							
							
							<trackindex>3</trackindex>
							
						
						</sourcetrack>
						
							
						<marker>
							
								
							<comment/>
							
								
							<name/>
							
								
							<in>2701</in>
							
								
							<out>-1</out>
							
							
						</marker>
						
						
						<logginginfo>
							
							
							<description/>
							
							
							<scene/>
							
							
							<shottake/>
							
							
							<lognote/>
							
							
							<good/>
							
							
							<originalvideofilename/>
							
							
							<originalaudiofilename/>
							
						
						</logginginfo>
						
						
						<colorinfo>
							
							
							<lut/>
							
							
							<lut1/>
							
							
							<asc_sop/>
							
							
							<asc_sat/>
							
							
							<lut2/>
							
						
						</colorinfo>
						
						
						<labels>
							
							
							<label2>Caribbean</label2>
							
						
						</labels>
						
					
						<link>
							<linkclipref>clipitem-340</linkclipref>
							<mediatype>video</mediatype>
							<trackindex>1</trackindex>
							<clipindex>6</clipindex>
							<groupindex>1</groupindex>
						</link>
						<link>
							<linkclipref>clipitem-346</linkclipref>
							<mediatype>video</mediatype>
							<trackindex>2</trackindex>
							<clipindex>6</clipindex>
							<groupindex>1</groupindex>
						</link>
						<link>
							<linkclipref>clipitem-352</linkclipref>
							<mediatype>video</mediatype>
							<trackindex>3</trackindex>
							<clipindex>6</clipindex>
							<groupindex>1</groupindex>
						</link>
						<link>
							<linkclipref>clipitem-358</linkclipref>
							<mediatype>audio</mediatype>
							<trackindex>1</trackindex>
							<clipindex>6</clipindex>
							<groupindex>1</groupindex>
						</link>
						<link>
							<linkclipref>clipitem-364</linkclipref>
							<mediatype>audio</mediatype>
							<trackindex>2</trackindex>
							<clipindex>6</clipindex>
							<groupindex>1</groupindex>
						</link>
						<link>
							<linkclipref>clipitem-370</linkclipref>
							<mediatype>audio</mediatype>
							<trackindex>3</trackindex>
							<clipindex>6</clipindex>
							<groupindex>1</groupindex>
						</link>
						<link>
							<linkclipref>clipitem-376</linkclipref>
							<mediatype>audio</mediatype>
							<trackindex>4</trackindex>
							<clipindex>6</clipindex>
							<groupindex>1</groupindex>
						</link>
						<link>
							<linkclipref>clipitem-382</linkclipref>
							<mediatype>audio</mediatype>
							<trackindex>5</trackindex>
							<clipindex>6</clipindex>
							<groupindex>1</groupindex>
						</link>
						<link>
							<linkclipref>clipitem-388</linkclipref>
							<mediatype>audio</mediatype>
							<trackindex>6</trackindex>
							<clipindex>6</clipindex>
							<groupindex>1</groupindex>
						</link>
						<link>
							<linkclipref>clipitem-394</linkclipref>
							<mediatype>audio</mediatype>
							<trackindex>7</trackindex>
							<clipindex>6</clipindex>
							<groupindex>1</groupindex>
						</link>
						<link>
							<linkclipref>clipitem-400</linkclipref>
							<mediatype>audio</mediatype>
							<trackindex>8</trackindex>
							<clipindex>6</clipindex>
							<groupindex>1</groupindex>
						</link>
					</clipitem>
					<enabled>TRUE</enabled>
					<locked>FALSE</locked>
					<outputchannelindex>1</outputchannelindex>
				</track>
				<track TL.SQTrackAudioKeyframeStyle="0" TL.SQTrackShy="0" TL.SQTrackExpandedHeight="41" TL.SQTrackExpanded="0" MZ.TrackTargeted="1" PannerCurrentValue="0.5" PannerIsInverted="true" PannerStartKeyframe="-91445760000000000,0.5,0,0,0,0,0,0" PannerName="Balance" currentExplodedTrackIndex="0" totalExplodedTrackCount="1" premiereTrackType="Stereo">
					<clipitem id="clipitem-371" premiereChannelType="mono">
						
						
						<masterclipid>masterclip-27</masterclipid>
						
						
						<name>0619_0728.MXF</name>
						
						
						<enabled>TRUE</enabled>
						
						
						<duration>98768</duration>
						
						
						<rate>
							
							
							<timebase>24</timebase>
							
							
							<ntsc>TRUE</ntsc>
							
						
						</rate>
						
						
						<start>120</start>
						
						
						<end>17739</end>
						
						
						<in>2678</in>
						
						
						<out>20297</out>
						
						
						<pproTicksIn>28372295951999</pproTicksIn>
						
						
						<pproTicksOut>215038271448000</pproTicksOut>
						
						
						<file id="file-27"/>
						
						
						<sourcetrack>
							
							
							<mediatype>audio</mediatype>
							
							
							<trackindex>4</trackindex>
							
						
						</sourcetrack>
						
							
						<marker>
							
								
							<comment/>
							
								
							<name/>
							
								
							<in>2701</in>
							
								
							<out>-1</out>
							
							
						</marker>
						
						
						<logginginfo>
							
							
							<description/>
							
							
							<scene/>
							
							
							<shottake/>
							
							
							<lognote/>
							
							
							<good/>
							
							
							<originalvideofilename/>
							
							
							<originalaudiofilename/>
							
						
						</logginginfo>
						
						
						<colorinfo>
							
							
							<lut/>
							
							
							<lut1/>
							
							
							<asc_sop/>
							
							
							<asc_sat/>
							
							
							<lut2/>
							
						
						</colorinfo>
						
						
						<labels>
							
							
							<label2>Violet</label2>
							
						
						</labels>
						
					
						<link>
							<linkclipref>clipitem-335</linkclipref>
							<mediatype>video</mediatype>
							<trackindex>1</trackindex>
							<clipindex>1</clipindex>
							<groupindex>1</groupindex>
						</link>
						<link>
							<linkclipref>clipitem-341</linkclipref>
							<mediatype>video</mediatype>
							<trackindex>2</trackindex>
							<clipindex>1</clipindex>
							<groupindex>1</groupindex>
						</link>
						<link>
							<linkclipref>clipitem-347</linkclipref>
							<mediatype>video</mediatype>
							<trackindex>3</trackindex>
							<clipindex>1</clipindex>
							<groupindex>1</groupindex>
						</link>
						<link>
							<linkclipref>clipitem-353</linkclipref>
							<mediatype>audio</mediatype>
							<trackindex>1</trackindex>
							<clipindex>1</clipindex>
							<groupindex>1</groupindex>
						</link>
						<link>
							<linkclipref>clipitem-359</linkclipref>
							<mediatype>audio</mediatype>
							<trackindex>2</trackindex>
							<clipindex>1</clipindex>
							<groupindex>1</groupindex>
						</link>
						<link>
							<linkclipref>clipitem-365</linkclipref>
							<mediatype>audio</mediatype>
							<trackindex>3</trackindex>
							<clipindex>1</clipindex>
							<groupindex>1</groupindex>
						</link>
						<link>
							<linkclipref>clipitem-371</linkclipref>
							<mediatype>audio</mediatype>
							<trackindex>4</trackindex>
							<clipindex>1</clipindex>
							<groupindex>1</groupindex>
						</link>
						<link>
							<linkclipref>clipitem-377</linkclipref>
							<mediatype>audio</mediatype>
							<trackindex>5</trackindex>
							<clipindex>1</clipindex>
							<groupindex>1</groupindex>
						</link>
						<link>
							<linkclipref>clipitem-383</linkclipref>
							<mediatype>audio</mediatype>
							<trackindex>6</trackindex>
							<clipindex>1</clipindex>
							<groupindex>1</groupindex>
						</link>
						<link>
							<linkclipref>clipitem-389</linkclipref>
							<mediatype>audio</mediatype>
							<trackindex>7</trackindex>
							<clipindex>1</clipindex>
							<groupindex>1</groupindex>
						</link>
						<link>
							<linkclipref>clipitem-395</linkclipref>
							<mediatype>audio</mediatype>
							<trackindex>8</trackindex>
							<clipindex>1</clipindex>
							<groupindex>1</groupindex>
						</link>
					</clipitem>
					<clipitem id="clipitem-372" premiereChannelType="mono">
						
						
						<masterclipid>masterclip-27</masterclipid>
						
						
						<name>0619_0728.MXF</name>
						
						
						<enabled>TRUE</enabled>
						
						
						<duration>98768</duration>
						
						
						<rate>
							
							
							<timebase>24</timebase>
							
							
							<ntsc>TRUE</ntsc>
							
						
						</rate>
						
						
						<start>18101</start>
						
						
						<end>31863</end>
						
						
						<in>21247</in>
						
						
						<out>35009</out>
						
						
						<pproTicksIn>225103126247999</pproTicksIn>
						
						
						<pproTicksOut>370905791256000</pproTicksOut>
						
						
						<file id="file-27"/>
						
						
						<sourcetrack>
							
							
							<mediatype>audio</mediatype>
							
							
							<trackindex>4</trackindex>
							
						
						</sourcetrack>
						
							
						<marker>
							
								
							<comment/>
							
								
							<name/>
							
								
							<in>2701</in>
							
								
							<out>-1</out>
							
							
						</marker>
						
						
						<logginginfo>
							
							
							<description/>
							
							
							<scene/>
							
							
							<shottake/>
							
							
							<lognote/>
							
							
							<good/>
							
							
							<originalvideofilename/>
							
							
							<originalaudiofilename/>
							
						
						</logginginfo>
						
						
						<colorinfo>
							
							
							<lut/>
							
							
							<lut1/>
							
							
							<asc_sop/>
							
							
							<asc_sat/>
							
							
							<lut2/>
							
						
						</colorinfo>
						
						
						<labels>
							
							
							<label2>Rose</label2>
							
						
						</labels>
						
					
						<link>
							<linkclipref>clipitem-336</linkclipref>
							<mediatype>video</mediatype>
							<trackindex>1</trackindex>
							<clipindex>2</clipindex>
							<groupindex>1</groupindex>
						</link>
						<link>
							<linkclipref>clipitem-342</linkclipref>
							<mediatype>video</mediatype>
							<trackindex>2</trackindex>
							<clipindex>2</clipindex>
							<groupindex>1</groupindex>
						</link>
						<link>
							<linkclipref>clipitem-348</linkclipref>
							<mediatype>video</mediatype>
							<trackindex>3</trackindex>
							<clipindex>2</clipindex>
							<groupindex>1</groupindex>
						</link>
						<link>
							<linkclipref>clipitem-354</linkclipref>
							<mediatype>audio</mediatype>
							<trackindex>1</trackindex>
							<clipindex>2</clipindex>
							<groupindex>1</groupindex>
						</link>
						<link>
							<linkclipref>clipitem-360</linkclipref>
							<mediatype>audio</mediatype>
							<trackindex>2</trackindex>
							<clipindex>2</clipindex>
							<groupindex>1</groupindex>
						</link>
						<link>
							<linkclipref>clipitem-366</linkclipref>
							<mediatype>audio</mediatype>
							<trackindex>3</trackindex>
							<clipindex>2</clipindex>
							<groupindex>1</groupindex>
						</link>
						<link>
							<linkclipref>clipitem-372</linkclipref>
							<mediatype>audio</mediatype>
							<trackindex>4</trackindex>
							<clipindex>2</clipindex>
							<groupindex>1</groupindex>
						</link>
						<link>
							<linkclipref>clipitem-378</linkclipref>
							<mediatype>audio</mediatype>
							<trackindex>5</trackindex>
							<clipindex>2</clipindex>
							<groupindex>1</groupindex>
						</link>
						<link>
							<linkclipref>clipitem-384</linkclipref>
							<mediatype>audio</mediatype>
							<trackindex>6</trackindex>
							<clipindex>2</clipindex>
							<groupindex>1</groupindex>
						</link>
						<link>
							<linkclipref>clipitem-390</linkclipref>
							<mediatype>audio</mediatype>
							<trackindex>7</trackindex>
							<clipindex>2</clipindex>
							<groupindex>1</groupindex>
						</link>
						<link>
							<linkclipref>clipitem-396</linkclipref>
							<mediatype>audio</mediatype>
							<trackindex>8</trackindex>
							<clipindex>2</clipindex>
							<groupindex>1</groupindex>
						</link>
					</clipitem>
					<clipitem id="clipitem-373" premiereChannelType="mono">
						
						
						<masterclipid>masterclip-27</masterclipid>
						
						
						<name>0619_0728.MXF</name>
						
						
						<enabled>TRUE</enabled>
						
						
						<duration>98768</duration>
						
						
						<rate>
							
							
							<timebase>24</timebase>
							
							
							<ntsc>TRUE</ntsc>
							
						
						</rate>
						
						
						<start>32225</start>
						
						
						<end>47985</end>
						
						
						<in>36229</in>
						
						
						<out>51989</out>
						
						
						<pproTicksIn>383831183736000</pproTicksIn>
						
						
						<pproTicksOut>550801827576000</pproTicksOut>
						
						
						<file id="file-27"/>
						
						
						<sourcetrack>
							
							
							<mediatype>audio</mediatype>
							
							
							<trackindex>4</trackindex>
							
						
						</sourcetrack>
						
							
						<marker>
							
								
							<comment/>
							
								
							<name/>
							
								
							<in>2701</in>
							
								
							<out>-1</out>
							
							
						</marker>
						
						
						<logginginfo>
							
							
							<description/>
							
							
							<scene/>
							
							
							<shottake/>
							
							
							<lognote/>
							
							
							<good/>
							
							
							<originalvideofilename/>
							
							
							<originalaudiofilename/>
							
						
						</logginginfo>
						
						
						<colorinfo>
							
							
							<lut/>
							
							
							<lut1/>
							
							
							<asc_sop/>
							
							
							<asc_sat/>
							
							
							<lut2/>
							
						
						</colorinfo>
						
						
						<labels>
							
							
							<label2>Mango</label2>
							
						
						</labels>
						
					
						<link>
							<linkclipref>clipitem-337</linkclipref>
							<mediatype>video</mediatype>
							<trackindex>1</trackindex>
							<clipindex>3</clipindex>
							<groupindex>1</groupindex>
						</link>
						<link>
							<linkclipref>clipitem-343</linkclipref>
							<mediatype>video</mediatype>
							<trackindex>2</trackindex>
							<clipindex>3</clipindex>
							<groupindex>1</groupindex>
						</link>
						<link>
							<linkclipref>clipitem-349</linkclipref>
							<mediatype>video</mediatype>
							<trackindex>3</trackindex>
							<clipindex>3</clipindex>
							<groupindex>1</groupindex>
						</link>
						<link>
							<linkclipref>clipitem-355</linkclipref>
							<mediatype>audio</mediatype>
							<trackindex>1</trackindex>
							<clipindex>3</clipindex>
							<groupindex>1</groupindex>
						</link>
						<link>
							<linkclipref>clipitem-361</linkclipref>
							<mediatype>audio</mediatype>
							<trackindex>2</trackindex>
							<clipindex>3</clipindex>
							<groupindex>1</groupindex>
						</link>
						<link>
							<linkclipref>clipitem-367</linkclipref>
							<mediatype>audio</mediatype>
							<trackindex>3</trackindex>
							<clipindex>3</clipindex>
							<groupindex>1</groupindex>
						</link>
						<link>
							<linkclipref>clipitem-373</linkclipref>
							<mediatype>audio</mediatype>
							<trackindex>4</trackindex>
							<clipindex>3</clipindex>
							<groupindex>1</groupindex>
						</link>
						<link>
							<linkclipref>clipitem-379</linkclipref>
							<mediatype>audio</mediatype>
							<trackindex>5</trackindex>
							<clipindex>3</clipindex>
							<groupindex>1</groupindex>
						</link>
						<link>
							<linkclipref>clipitem-385</linkclipref>
							<mediatype>audio</mediatype>
							<trackindex>6</trackindex>
							<clipindex>3</clipindex>
							<groupindex>1</groupindex>
						</link>
						<link>
							<linkclipref>clipitem-391</linkclipref>
							<mediatype>audio</mediatype>
							<trackindex>7</trackindex>
							<clipindex>3</clipindex>
							<groupindex>1</groupindex>
						</link>
						<link>
							<linkclipref>clipitem-397</linkclipref>
							<mediatype>audio</mediatype>
							<trackindex>8</trackindex>
							<clipindex>3</clipindex>
							<groupindex>1</groupindex>
						</link>
					</clipitem>
					<clipitem id="clipitem-374" premiereChannelType="mono">
						
						
						<masterclipid>masterclip-27</masterclipid>
						
						
						<name>0619_0728.MXF</name>
						
						
						<enabled>TRUE</enabled>
						
						
						<duration>98768</duration>
						
						
						<rate>
							
							
							<timebase>24</timebase>
							
							
							<ntsc>TRUE</ntsc>
							
						
						</rate>
						
						
						<start>48347</start>
						
						
						<end>62769</end>
						
						
						<in>53301</in>
						
						
						<out>67723</out>
						
						
						<pproTicksIn>564701921784000</pproTicksIn>
						
						
						<pproTicksOut>717497012232000</pproTicksOut>
						
						
						<file id="file-27"/>
						
						
						<sourcetrack>
							
							
							<mediatype>audio</mediatype>
							
							
							<trackindex>4</trackindex>
							
						
						</sourcetrack>
						
							
						<marker>
							
								
							<comment/>
							
								
							<name/>
							
								
							<in>2701</in>
							
								
							<out>-1</out>
							
							
						</marker>
						
						
						<logginginfo>
							
							
							<description/>
							
							
							<scene/>
							
							
							<shottake/>
							
							
							<lognote/>
							
							
							<good/>
							
							
							<originalvideofilename/>
							
							
							<originalaudiofilename/>
							
						
						</logginginfo>
						
						
						<colorinfo>
							
							
							<lut/>
							
							
							<lut1/>
							
							
							<asc_sop/>
							
							
							<asc_sat/>
							
							
							<lut2/>
							
						
						</colorinfo>
						
						
						<labels>
							
							
							<label2>Yellow</label2>
							
						
						</labels>
						
					
						<link>
							<linkclipref>clipitem-338</linkclipref>
							<mediatype>video</mediatype>
							<trackindex>1</trackindex>
							<clipindex>4</clipindex>
							<groupindex>1</groupindex>
						</link>
						<link>
							<linkclipref>clipitem-344</linkclipref>
							<mediatype>video</mediatype>
							<trackindex>2</trackindex>
							<clipindex>4</clipindex>
							<groupindex>1</groupindex>
						</link>
						<link>
							<linkclipref>clipitem-350</linkclipref>
							<mediatype>video</mediatype>
							<trackindex>3</trackindex>
							<clipindex>4</clipindex>
							<groupindex>1</groupindex>
						</link>
						<link>
							<linkclipref>clipitem-356</linkclipref>
							<mediatype>audio</mediatype>
							<trackindex>1</trackindex>
							<clipindex>4</clipindex>
							<groupindex>1</groupindex>
						</link>
						<link>
							<linkclipref>clipitem-362</linkclipref>
							<mediatype>audio</mediatype>
							<trackindex>2</trackindex>
							<clipindex>4</clipindex>
							<groupindex>1</groupindex>
						</link>
						<link>
							<linkclipref>clipitem-368</linkclipref>
							<mediatype>audio</mediatype>
							<trackindex>3</trackindex>
							<clipindex>4</clipindex>
							<groupindex>1</groupindex>
						</link>
						<link>
							<linkclipref>clipitem-374</linkclipref>
							<mediatype>audio</mediatype>
							<trackindex>4</trackindex>
							<clipindex>4</clipindex>
							<groupindex>1</groupindex>
						</link>
						<link>
							<linkclipref>clipitem-380</linkclipref>
							<mediatype>audio</mediatype>
							<trackindex>5</trackindex>
							<clipindex>4</clipindex>
							<groupindex>1</groupindex>
						</link>
						<link>
							<linkclipref>clipitem-386</linkclipref>
							<mediatype>audio</mediatype>
							<trackindex>6</trackindex>
							<clipindex>4</clipindex>
							<groupindex>1</groupindex>
						</link>
						<link>
							<linkclipref>clipitem-392</linkclipref>
							<mediatype>audio</mediatype>
							<trackindex>7</trackindex>
							<clipindex>4</clipindex>
							<groupindex>1</groupindex>
						</link>
						<link>
							<linkclipref>clipitem-398</linkclipref>
							<mediatype>audio</mediatype>
							<trackindex>8</trackindex>
							<clipindex>4</clipindex>
							<groupindex>1</groupindex>
						</link>
					</clipitem>
					<clipitem id="clipitem-375" premiereChannelType="mono">
						
						
						<masterclipid>masterclip-27</masterclipid>
						
						
						<name>0619_0728.MXF</name>
						
						
						<enabled>TRUE</enabled>
						
						
						<duration>98768</duration>
						
						
						<rate>
							
							
							<timebase>24</timebase>
							
							
							<ntsc>TRUE</ntsc>
							
						
						</rate>
						
						
						<start>63131</start>
						
						
						<end>75322</end>
						
						
						<in>68306</in>
						
						
						<out>80497</out>
						
						
						<pproTicksIn>723673654703999</pproTicksIn>
						
						
						<pproTicksOut>852832228247999</pproTicksOut>
						
						
						<file id="file-27"/>
						
						
						<sourcetrack>
							
							
							<mediatype>audio</mediatype>
							
							
							<trackindex>4</trackindex>
							
						
						</sourcetrack>
						
							
						<marker>
							
								
							<comment/>
							
								
							<name/>
							
								
							<in>2701</in>
							
								
							<out>-1</out>
							
							
						</marker>
						
						
						<logginginfo>
							
							
							<description/>
							
							
							<scene/>
							
							
							<shottake/>
							
							
							<lognote/>
							
							
							<good/>
							
							
							<originalvideofilename/>
							
							
							<originalaudiofilename/>
							
						
						</logginginfo>
						
						
						<colorinfo>
							
							
							<lut/>
							
							
							<lut1/>
							
							
							<asc_sop/>
							
							
							<asc_sat/>
							
							
							<lut2/>
							
						
						</colorinfo>
						
						
						<labels>
							
							
							<label2>Lavender</label2>
							
						
						</labels>
						
					
						<link>
							<linkclipref>clipitem-339</linkclipref>
							<mediatype>video</mediatype>
							<trackindex>1</trackindex>
							<clipindex>5</clipindex>
							<groupindex>1</groupindex>
						</link>
						<link>
							<linkclipref>clipitem-345</linkclipref>
							<mediatype>video</mediatype>
							<trackindex>2</trackindex>
							<clipindex>5</clipindex>
							<groupindex>1</groupindex>
						</link>
						<link>
							<linkclipref>clipitem-351</linkclipref>
							<mediatype>video</mediatype>
							<trackindex>3</trackindex>
							<clipindex>5</clipindex>
							<groupindex>1</groupindex>
						</link>
						<link>
							<linkclipref>clipitem-357</linkclipref>
							<mediatype>audio</mediatype>
							<trackindex>1</trackindex>
							<clipindex>5</clipindex>
							<groupindex>1</groupindex>
						</link>
						<link>
							<linkclipref>clipitem-363</linkclipref>
							<mediatype>audio</mediatype>
							<trackindex>2</trackindex>
							<clipindex>5</clipindex>
							<groupindex>1</groupindex>
						</link>
						<link>
							<linkclipref>clipitem-369</linkclipref>
							<mediatype>audio</mediatype>
							<trackindex>3</trackindex>
							<clipindex>5</clipindex>
							<groupindex>1</groupindex>
						</link>
						<link>
							<linkclipref>clipitem-375</linkclipref>
							<mediatype>audio</mediatype>
							<trackindex>4</trackindex>
							<clipindex>5</clipindex>
							<groupindex>1</groupindex>
						</link>
						<link>
							<linkclipref>clipitem-381</linkclipref>
							<mediatype>audio</mediatype>
							<trackindex>5</trackindex>
							<clipindex>5</clipindex>
							<groupindex>1</groupindex>
						</link>
						<link>
							<linkclipref>clipitem-387</linkclipref>
							<mediatype>audio</mediatype>
							<trackindex>6</trackindex>
							<clipindex>5</clipindex>
							<groupindex>1</groupindex>
						</link>
						<link>
							<linkclipref>clipitem-393</linkclipref>
							<mediatype>audio</mediatype>
							<trackindex>7</trackindex>
							<clipindex>5</clipindex>
							<groupindex>1</groupindex>
						</link>
						<link>
							<linkclipref>clipitem-399</linkclipref>
							<mediatype>audio</mediatype>
							<trackindex>8</trackindex>
							<clipindex>5</clipindex>
							<groupindex>1</groupindex>
						</link>
					</clipitem>
					<clipitem id="clipitem-376" premiereChannelType="mono">
						
						
						<masterclipid>masterclip-27</masterclipid>
						
						
						<name>0619_0728.MXF</name>
						
						
						<enabled>TRUE</enabled>
						
						
						<duration>98768</duration>
						
						
						<rate>
							
							
							<timebase>24</timebase>
							
							
							<ntsc>TRUE</ntsc>
							
						
						</rate>
						
						
						<start>75684</start>
						
						
						<end>91254</end>
						
						
						<in>82112</in>
						
						
						<out>97682</out>
						
						
						<pproTicksIn>869942481407999</pproTicksIn>
						
						
						<pproTicksOut>1034900154288000</pproTicksOut>
						
						
						<file id="file-27"/>
						
						
						<sourcetrack>
							
							
							<mediatype>audio</mediatype>
							
							
							<trackindex>4</trackindex>
							
						
						</sourcetrack>
						
							
						<marker>
							
								
							<comment/>
							
								
							<name/>
							
								
							<in>2701</in>
							
								
							<out>-1</out>
							
							
						</marker>
						
						
						<logginginfo>
							
							
							<description/>
							
							
							<scene/>
							
							
							<shottake/>
							
							
							<lognote/>
							
							
							<good/>
							
							
							<originalvideofilename/>
							
							
							<originalaudiofilename/>
							
						
						</logginginfo>
						
						
						<colorinfo>
							
							
							<lut/>
							
							
							<lut1/>
							
							
							<asc_sop/>
							
							
							<asc_sat/>
							
							
							<lut2/>
							
						
						</colorinfo>
						
						
						<labels>
							
							
							<label2>Caribbean</label2>
							
						
						</labels>
						
					
						<link>
							<linkclipref>clipitem-340</linkclipref>
							<mediatype>video</mediatype>
							<trackindex>1</trackindex>
							<clipindex>6</clipindex>
							<groupindex>1</groupindex>
						</link>
						<link>
							<linkclipref>clipitem-346</linkclipref>
							<mediatype>video</mediatype>
							<trackindex>2</trackindex>
							<clipindex>6</clipindex>
							<groupindex>1</groupindex>
						</link>
						<link>
							<linkclipref>clipitem-352</linkclipref>
							<mediatype>video</mediatype>
							<trackindex>3</trackindex>
							<clipindex>6</clipindex>
							<groupindex>1</groupindex>
						</link>
						<link>
							<linkclipref>clipitem-358</linkclipref>
							<mediatype>audio</mediatype>
							<trackindex>1</trackindex>
							<clipindex>6</clipindex>
							<groupindex>1</groupindex>
						</link>
						<link>
							<linkclipref>clipitem-364</linkclipref>
							<mediatype>audio</mediatype>
							<trackindex>2</trackindex>
							<clipindex>6</clipindex>
							<groupindex>1</groupindex>
						</link>
						<link>
							<linkclipref>clipitem-370</linkclipref>
							<mediatype>audio</mediatype>
							<trackindex>3</trackindex>
							<clipindex>6</clipindex>
							<groupindex>1</groupindex>
						</link>
						<link>
							<linkclipref>clipitem-376</linkclipref>
							<mediatype>audio</mediatype>
							<trackindex>4</trackindex>
							<clipindex>6</clipindex>
							<groupindex>1</groupindex>
						</link>
						<link>
							<linkclipref>clipitem-382</linkclipref>
							<mediatype>audio</mediatype>
							<trackindex>5</trackindex>
							<clipindex>6</clipindex>
							<groupindex>1</groupindex>
						</link>
						<link>
							<linkclipref>clipitem-388</linkclipref>
							<mediatype>audio</mediatype>
							<trackindex>6</trackindex>
							<clipindex>6</clipindex>
							<groupindex>1</groupindex>
						</link>
						<link>
							<linkclipref>clipitem-394</linkclipref>
							<mediatype>audio</mediatype>
							<trackindex>7</trackindex>
							<clipindex>6</clipindex>
							<groupindex>1</groupindex>
						</link>
						<link>
							<linkclipref>clipitem-400</linkclipref>
							<mediatype>audio</mediatype>
							<trackindex>8</trackindex>
							<clipindex>6</clipindex>
							<groupindex>1</groupindex>
						</link>
					</clipitem>
					<enabled>TRUE</enabled>
					<locked>FALSE</locked>
					<outputchannelindex>2</outputchannelindex>
				</track>
				<track TL.SQTrackAudioKeyframeStyle="0" TL.SQTrackShy="0" TL.SQTrackExpandedHeight="41" TL.SQTrackExpanded="0" MZ.TrackTargeted="1" PannerCurrentValue="0.5" PannerIsInverted="true" PannerStartKeyframe="-91445760000000000,0.5,0,0,0,0,0,0" PannerName="Balance" currentExplodedTrackIndex="0" totalExplodedTrackCount="2" premiereTrackType="Stereo">
					<clipitem id="clipitem-377" premiereChannelType="stereo">
						
						
						<masterclipid>masterclip-28</masterclipid>
						
						
						<name>C4171.MP4</name>
						
						
						<enabled>TRUE</enabled>
						
						
						<duration>98724</duration>
						
						
						<rate>
							
							
							<timebase>24</timebase>
							
							
							<ntsc>TRUE</ntsc>
							
						
						</rate>
						
						
						<start>120</start>
						
						
						<end>17739</end>
						
						
						<in>2578</in>
						
						
						<out>20197</out>
						
						
						<pproTicksIn>27312837551999</pproTicksIn>
						
						
						<pproTicksOut>213978813048000</pproTicksOut>
						
						
						<file id="file-28"/>
						
						
						<sourcetrack>
							
							
							<mediatype>audio</mediatype>
							
							
							<trackindex>1</trackindex>
							
						
						</sourcetrack>
						
							
						<marker>
							
								
							<comment/>
							
								
							<name/>
							
								
							<in>2601</in>
							
								
							<out>-1</out>
							
							
						</marker>
						
						
						<logginginfo>
							
							
							<description/>
							
							
							<scene/>
							
							
							<shottake/>
							
							
							<lognote/>
							
							
							<good/>
							
							
							<originalvideofilename/>
							
							
							<originalaudiofilename/>
							
						
						</logginginfo>
						
						
						<colorinfo>
							
							
							<lut/>
							
							
							<lut1/>
							
							
							<asc_sop/>
							
							
							<asc_sat/>
							
							
							<lut2/>
							
						
						</colorinfo>
						
						
						<labels>
							
							
							<label2>Violet</label2>
							
						
						</labels>
						
					
						<link>
							<linkclipref>clipitem-335</linkclipref>
							<mediatype>video</mediatype>
							<trackindex>1</trackindex>
							<clipindex>1</clipindex>
							<groupindex>1</groupindex>
						</link>
						<link>
							<linkclipref>clipitem-341</linkclipref>
							<mediatype>video</mediatype>
							<trackindex>2</trackindex>
							<clipindex>1</clipindex>
							<groupindex>1</groupindex>
						</link>
						<link>
							<linkclipref>clipitem-347</linkclipref>
							<mediatype>video</mediatype>
							<trackindex>3</trackindex>
							<clipindex>1</clipindex>
							<groupindex>1</groupindex>
						</link>
						<link>
							<linkclipref>clipitem-353</linkclipref>
							<mediatype>audio</mediatype>
							<trackindex>1</trackindex>
							<clipindex>1</clipindex>
							<groupindex>1</groupindex>
						</link>
						<link>
							<linkclipref>clipitem-359</linkclipref>
							<mediatype>audio</mediatype>
							<trackindex>2</trackindex>
							<clipindex>1</clipindex>
							<groupindex>1</groupindex>
						</link>
						<link>
							<linkclipref>clipitem-365</linkclipref>
							<mediatype>audio</mediatype>
							<trackindex>3</trackindex>
							<clipindex>1</clipindex>
							<groupindex>1</groupindex>
						</link>
						<link>
							<linkclipref>clipitem-371</linkclipref>
							<mediatype>audio</mediatype>
							<trackindex>4</trackindex>
							<clipindex>1</clipindex>
							<groupindex>1</groupindex>
						</link>
						<link>
							<linkclipref>clipitem-377</linkclipref>
							<mediatype>audio</mediatype>
							<trackindex>5</trackindex>
							<clipindex>1</clipindex>
							<groupindex>1</groupindex>
						</link>
						<link>
							<linkclipref>clipitem-383</linkclipref>
							<mediatype>audio</mediatype>
							<trackindex>6</trackindex>
							<clipindex>1</clipindex>
							<groupindex>1</groupindex>
						</link>
						<link>
							<linkclipref>clipitem-389</linkclipref>
							<mediatype>audio</mediatype>
							<trackindex>7</trackindex>
							<clipindex>1</clipindex>
							<groupindex>1</groupindex>
						</link>
						<link>
							<linkclipref>clipitem-395</linkclipref>
							<mediatype>audio</mediatype>
							<trackindex>8</trackindex>
							<clipindex>1</clipindex>
							<groupindex>1</groupindex>
						</link>
					</clipitem>
					<clipitem id="clipitem-378" premiereChannelType="stereo">
						
						
						<masterclipid>masterclip-28</masterclipid>
						
						
						<name>C4171.MP4</name>
						
						
						<enabled>TRUE</enabled>
						
						
						<duration>98724</duration>
						
						
						<rate>
							
							
							<timebase>24</timebase>
							
							
							<ntsc>TRUE</ntsc>
							
						
						</rate>
						
						
						<start>18101</start>
						
						
						<end>31863</end>
						
						
						<in>21147</in>
						
						
						<out>34909</out>
						
						
						<pproTicksIn>224043667847999</pproTicksIn>
						
						
						<pproTicksOut>369846332856000</pproTicksOut>
						
						
						<file id="file-28"/>
						
						
						<sourcetrack>
							
							
							<mediatype>audio</mediatype>
							
							
							<trackindex>1</trackindex>
							
						
						</sourcetrack>
						
							
						<marker>
							
								
							<comment/>
							
								
							<name/>
							
								
							<in>2601</in>
							
								
							<out>-1</out>
							
							
						</marker>
						
						
						<logginginfo>
							
							
							<description/>
							
							
							<scene/>
							
							
							<shottake/>
							
							
							<lognote/>
							
							
							<good/>
							
							
							<originalvideofilename/>
							
							
							<originalaudiofilename/>
							
						
						</logginginfo>
						
						
						<colorinfo>
							
							
							<lut/>
							
							
							<lut1/>
							
							
							<asc_sop/>
							
							
							<asc_sat/>
							
							
							<lut2/>
							
						
						</colorinfo>
						
						
						<labels>
							
							
							<label2>Rose</label2>
							
						
						</labels>
						
					
						<link>
							<linkclipref>clipitem-336</linkclipref>
							<mediatype>video</mediatype>
							<trackindex>1</trackindex>
							<clipindex>2</clipindex>
							<groupindex>1</groupindex>
						</link>
						<link>
							<linkclipref>clipitem-342</linkclipref>
							<mediatype>video</mediatype>
							<trackindex>2</trackindex>
							<clipindex>2</clipindex>
							<groupindex>1</groupindex>
						</link>
						<link>
							<linkclipref>clipitem-348</linkclipref>
							<mediatype>video</mediatype>
							<trackindex>3</trackindex>
							<clipindex>2</clipindex>
							<groupindex>1</groupindex>
						</link>
						<link>
							<linkclipref>clipitem-354</linkclipref>
							<mediatype>audio</mediatype>
							<trackindex>1</trackindex>
							<clipindex>2</clipindex>
							<groupindex>1</groupindex>
						</link>
						<link>
							<linkclipref>clipitem-360</linkclipref>
							<mediatype>audio</mediatype>
							<trackindex>2</trackindex>
							<clipindex>2</clipindex>
							<groupindex>1</groupindex>
						</link>
						<link>
							<linkclipref>clipitem-366</linkclipref>
							<mediatype>audio</mediatype>
							<trackindex>3</trackindex>
							<clipindex>2</clipindex>
							<groupindex>1</groupindex>
						</link>
						<link>
							<linkclipref>clipitem-372</linkclipref>
							<mediatype>audio</mediatype>
							<trackindex>4</trackindex>
							<clipindex>2</clipindex>
							<groupindex>1</groupindex>
						</link>
						<link>
							<linkclipref>clipitem-378</linkclipref>
							<mediatype>audio</mediatype>
							<trackindex>5</trackindex>
							<clipindex>2</clipindex>
							<groupindex>1</groupindex>
						</link>
						<link>
							<linkclipref>clipitem-384</linkclipref>
							<mediatype>audio</mediatype>
							<trackindex>6</trackindex>
							<clipindex>2</clipindex>
							<groupindex>1</groupindex>
						</link>
						<link>
							<linkclipref>clipitem-390</linkclipref>
							<mediatype>audio</mediatype>
							<trackindex>7</trackindex>
							<clipindex>2</clipindex>
							<groupindex>1</groupindex>
						</link>
						<link>
							<linkclipref>clipitem-396</linkclipref>
							<mediatype>audio</mediatype>
							<trackindex>8</trackindex>
							<clipindex>2</clipindex>
							<groupindex>1</groupindex>
						</link>
					</clipitem>
					<clipitem id="clipitem-379" premiereChannelType="stereo">
						
						
						<masterclipid>masterclip-28</masterclipid>
						
						
						<name>C4171.MP4</name>
						
						
						<enabled>TRUE</enabled>
						
						
						<duration>98724</duration>
						
						
						<rate>
							
							
							<timebase>24</timebase>
							
							
							<ntsc>TRUE</ntsc>
							
						
						</rate>
						
						
						<start>32225</start>
						
						
						<end>47985</end>
						
						
						<in>36129</in>
						
						
						<out>51889</out>
						
						
						<pproTicksIn>382771725336000</pproTicksIn>
						
						
						<pproTicksOut>549742369175999</pproTicksOut>
						
						
						<file id="file-28"/>
						
						
						<sourcetrack>
							
							
							<mediatype>audio</mediatype>
							
							
							<trackindex>1</trackindex>
							
						
						</sourcetrack>
						
							
						<marker>
							
								
							<comment/>
							
								
							<name/>
							
								
							<in>2601</in>
							
								
							<out>-1</out>
							
							
						</marker>
						
						
						<logginginfo>
							
							
							<description/>
							
							
							<scene/>
							
							
							<shottake/>
							
							
							<lognote/>
							
							
							<good/>
							
							
							<originalvideofilename/>
							
							
							<originalaudiofilename/>
							
						
						</logginginfo>
						
						
						<colorinfo>
							
							
							<lut/>
							
							
							<lut1/>
							
							
							<asc_sop/>
							
							
							<asc_sat/>
							
							
							<lut2/>
							
						
						</colorinfo>
						
						
						<labels>
							
							
							<label2>Mango</label2>
							
						
						</labels>
						
					
						<link>
							<linkclipref>clipitem-337</linkclipref>
							<mediatype>video</mediatype>
							<trackindex>1</trackindex>
							<clipindex>3</clipindex>
							<groupindex>1</groupindex>
						</link>
						<link>
							<linkclipref>clipitem-343</linkclipref>
							<mediatype>video</mediatype>
							<trackindex>2</trackindex>
							<clipindex>3</clipindex>
							<groupindex>1</groupindex>
						</link>
						<link>
							<linkclipref>clipitem-349</linkclipref>
							<mediatype>video</mediatype>
							<trackindex>3</trackindex>
							<clipindex>3</clipindex>
							<groupindex>1</groupindex>
						</link>
						<link>
							<linkclipref>clipitem-355</linkclipref>
							<mediatype>audio</mediatype>
							<trackindex>1</trackindex>
							<clipindex>3</clipindex>
							<groupindex>1</groupindex>
						</link>
						<link>
							<linkclipref>clipitem-361</linkclipref>
							<mediatype>audio</mediatype>
							<trackindex>2</trackindex>
							<clipindex>3</clipindex>
							<groupindex>1</groupindex>
						</link>
						<link>
							<linkclipref>clipitem-367</linkclipref>
							<mediatype>audio</mediatype>
							<trackindex>3</trackindex>
							<clipindex>3</clipindex>
							<groupindex>1</groupindex>
						</link>
						<link>
							<linkclipref>clipitem-373</linkclipref>
							<mediatype>audio</mediatype>
							<trackindex>4</trackindex>
							<clipindex>3</clipindex>
							<groupindex>1</groupindex>
						</link>
						<link>
							<linkclipref>clipitem-379</linkclipref>
							<mediatype>audio</mediatype>
							<trackindex>5</trackindex>
							<clipindex>3</clipindex>
							<groupindex>1</groupindex>
						</link>
						<link>
							<linkclipref>clipitem-385</linkclipref>
							<mediatype>audio</mediatype>
							<trackindex>6</trackindex>
							<clipindex>3</clipindex>
							<groupindex>1</groupindex>
						</link>
						<link>
							<linkclipref>clipitem-391</linkclipref>
							<mediatype>audio</mediatype>
							<trackindex>7</trackindex>
							<clipindex>3</clipindex>
							<groupindex>1</groupindex>
						</link>
						<link>
							<linkclipref>clipitem-397</linkclipref>
							<mediatype>audio</mediatype>
							<trackindex>8</trackindex>
							<clipindex>3</clipindex>
							<groupindex>1</groupindex>
						</link>
					</clipitem>
					<clipitem id="clipitem-380" premiereChannelType="stereo">
						
						
						<masterclipid>masterclip-28</masterclipid>
						
						
						<name>C4171.MP4</name>
						
						
						<enabled>TRUE</enabled>
						
						
						<duration>98724</duration>
						
						
						<rate>
							
							
							<timebase>24</timebase>
							
							
							<ntsc>TRUE</ntsc>
							
						
						</rate>
						
						
						<start>48347</start>
						
						
						<end>62769</end>
						
						
						<in>53201</in>
						
						
						<out>67623</out>
						
						
						<pproTicksIn>563642463383999</pproTicksIn>
						
						
						<pproTicksOut>716437553831999</pproTicksOut>
						
						
						<file id="file-28"/>
						
						
						<sourcetrack>
							
							
							<mediatype>audio</mediatype>
							
							
							<trackindex>1</trackindex>
							
						
						</sourcetrack>
						
							
						<marker>
							
								
							<comment/>
							
								
							<name/>
							
								
							<in>2601</in>
							
								
							<out>-1</out>
							
							
						</marker>
						
						
						<logginginfo>
							
							
							<description/>
							
							
							<scene/>
							
							
							<shottake/>
							
							
							<lognote/>
							
							
							<good/>
							
							
							<originalvideofilename/>
							
							
							<originalaudiofilename/>
							
						
						</logginginfo>
						
						
						<colorinfo>
							
							
							<lut/>
							
							
							<lut1/>
							
							
							<asc_sop/>
							
							
							<asc_sat/>
							
							
							<lut2/>
							
						
						</colorinfo>
						
						
						<labels>
							
							
							<label2>Yellow</label2>
							
						
						</labels>
						
					
						<link>
							<linkclipref>clipitem-338</linkclipref>
							<mediatype>video</mediatype>
							<trackindex>1</trackindex>
							<clipindex>4</clipindex>
							<groupindex>1</groupindex>
						</link>
						<link>
							<linkclipref>clipitem-344</linkclipref>
							<mediatype>video</mediatype>
							<trackindex>2</trackindex>
							<clipindex>4</clipindex>
							<groupindex>1</groupindex>
						</link>
						<link>
							<linkclipref>clipitem-350</linkclipref>
							<mediatype>video</mediatype>
							<trackindex>3</trackindex>
							<clipindex>4</clipindex>
							<groupindex>1</groupindex>
						</link>
						<link>
							<linkclipref>clipitem-356</linkclipref>
							<mediatype>audio</mediatype>
							<trackindex>1</trackindex>
							<clipindex>4</clipindex>
							<groupindex>1</groupindex>
						</link>
						<link>
							<linkclipref>clipitem-362</linkclipref>
							<mediatype>audio</mediatype>
							<trackindex>2</trackindex>
							<clipindex>4</clipindex>
							<groupindex>1</groupindex>
						</link>
						<link>
							<linkclipref>clipitem-368</linkclipref>
							<mediatype>audio</mediatype>
							<trackindex>3</trackindex>
							<clipindex>4</clipindex>
							<groupindex>1</groupindex>
						</link>
						<link>
							<linkclipref>clipitem-374</linkclipref>
							<mediatype>audio</mediatype>
							<trackindex>4</trackindex>
							<clipindex>4</clipindex>
							<groupindex>1</groupindex>
						</link>
						<link>
							<linkclipref>clipitem-380</linkclipref>
							<mediatype>audio</mediatype>
							<trackindex>5</trackindex>
							<clipindex>4</clipindex>
							<groupindex>1</groupindex>
						</link>
						<link>
							<linkclipref>clipitem-386</linkclipref>
							<mediatype>audio</mediatype>
							<trackindex>6</trackindex>
							<clipindex>4</clipindex>
							<groupindex>1</groupindex>
						</link>
						<link>
							<linkclipref>clipitem-392</linkclipref>
							<mediatype>audio</mediatype>
							<trackindex>7</trackindex>
							<clipindex>4</clipindex>
							<groupindex>1</groupindex>
						</link>
						<link>
							<linkclipref>clipitem-398</linkclipref>
							<mediatype>audio</mediatype>
							<trackindex>8</trackindex>
							<clipindex>4</clipindex>
							<groupindex>1</groupindex>
						</link>
					</clipitem>
					<clipitem id="clipitem-381" premiereChannelType="stereo">
						
						
						<masterclipid>masterclip-28</masterclipid>
						
						
						<name>C4171.MP4</name>
						
						
						<enabled>TRUE</enabled>
						
						
						<duration>98724</duration>
						
						
						<rate>
							
							
							<timebase>24</timebase>
							
							
							<ntsc>TRUE</ntsc>
							
						
						</rate>
						
						
						<start>63131</start>
						
						
						<end>75322</end>
						
						
						<in>68206</in>
						
						
						<out>80397</out>
						
						
						<pproTicksIn>722614196304000</pproTicksIn>
						
						
						<pproTicksOut>851772769848000</pproTicksOut>
						
						
						<file id="file-28"/>
						
						
						<sourcetrack>
							
							
							<mediatype>audio</mediatype>
							
							
							<trackindex>1</trackindex>
							
						
						</sourcetrack>
						
							
						<marker>
							
								
							<comment/>
							
								
							<name/>
							
								
							<in>2601</in>
							
								
							<out>-1</out>
							
							
						</marker>
						
						
						<logginginfo>
							
							
							<description/>
							
							
							<scene/>
							
							
							<shottake/>
							
							
							<lognote/>
							
							
							<good/>
							
							
							<originalvideofilename/>
							
							
							<originalaudiofilename/>
							
						
						</logginginfo>
						
						
						<colorinfo>
							
							
							<lut/>
							
							
							<lut1/>
							
							
							<asc_sop/>
							
							
							<asc_sat/>
							
							
							<lut2/>
							
						
						</colorinfo>
						
						
						<labels>
							
							
							<label2>Lavender</label2>
							
						
						</labels>
						
					
						<link>
							<linkclipref>clipitem-339</linkclipref>
							<mediatype>video</mediatype>
							<trackindex>1</trackindex>
							<clipindex>5</clipindex>
							<groupindex>1</groupindex>
						</link>
						<link>
							<linkclipref>clipitem-345</linkclipref>
							<mediatype>video</mediatype>
							<trackindex>2</trackindex>
							<clipindex>5</clipindex>
							<groupindex>1</groupindex>
						</link>
						<link>
							<linkclipref>clipitem-351</linkclipref>
							<mediatype>video</mediatype>
							<trackindex>3</trackindex>
							<clipindex>5</clipindex>
							<groupindex>1</groupindex>
						</link>
						<link>
							<linkclipref>clipitem-357</linkclipref>
							<mediatype>audio</mediatype>
							<trackindex>1</trackindex>
							<clipindex>5</clipindex>
							<groupindex>1</groupindex>
						</link>
						<link>
							<linkclipref>clipitem-363</linkclipref>
							<mediatype>audio</mediatype>
							<trackindex>2</trackindex>
							<clipindex>5</clipindex>
							<groupindex>1</groupindex>
						</link>
						<link>
							<linkclipref>clipitem-369</linkclipref>
							<mediatype>audio</mediatype>
							<trackindex>3</trackindex>
							<clipindex>5</clipindex>
							<groupindex>1</groupindex>
						</link>
						<link>
							<linkclipref>clipitem-375</linkclipref>
							<mediatype>audio</mediatype>
							<trackindex>4</trackindex>
							<clipindex>5</clipindex>
							<groupindex>1</groupindex>
						</link>
						<link>
							<linkclipref>clipitem-381</linkclipref>
							<mediatype>audio</mediatype>
							<trackindex>5</trackindex>
							<clipindex>5</clipindex>
							<groupindex>1</groupindex>
						</link>
						<link>
							<linkclipref>clipitem-387</linkclipref>
							<mediatype>audio</mediatype>
							<trackindex>6</trackindex>
							<clipindex>5</clipindex>
							<groupindex>1</groupindex>
						</link>
						<link>
							<linkclipref>clipitem-393</linkclipref>
							<mediatype>audio</mediatype>
							<trackindex>7</trackindex>
							<clipindex>5</clipindex>
							<groupindex>1</groupindex>
						</link>
						<link>
							<linkclipref>clipitem-399</linkclipref>
							<mediatype>audio</mediatype>
							<trackindex>8</trackindex>
							<clipindex>5</clipindex>
							<groupindex>1</groupindex>
						</link>
					</clipitem>
					<clipitem id="clipitem-382" premiereChannelType="stereo">
						
						
						<masterclipid>masterclip-28</masterclipid>
						
						
						<name>C4171.MP4</name>
						
						
						<enabled>TRUE</enabled>
						
						
						<duration>98724</duration>
						
						
						<rate>
							
							
							<timebase>24</timebase>
							
							
							<ntsc>TRUE</ntsc>
							
						
						</rate>
						
						
						<start>75684</start>
						
						
						<end>91254</end>
						
						
						<in>82012</in>
						
						
						<out>97582</out>
						
						
						<pproTicksIn>868883023008000</pproTicksIn>
						
						
						<pproTicksOut>1033840695887999</pproTicksOut>
						
						
						<file id="file-28"/>
						
						
						<sourcetrack>
							
							
							<mediatype>audio</mediatype>
							
							
							<trackindex>1</trackindex>
							
						
						</sourcetrack>
						
							
						<marker>
							
								
							<comment/>
							
								
							<name/>
							
								
							<in>2601</in>
							
								
							<out>-1</out>
							
							
						</marker>
						
						
						<logginginfo>
							
							
							<description/>
							
							
							<scene/>
							
							
							<shottake/>
							
							
							<lognote/>
							
							
							<good/>
							
							
							<originalvideofilename/>
							
							
							<originalaudiofilename/>
							
						
						</logginginfo>
						
						
						<colorinfo>
							
							
							<lut/>
							
							
							<lut1/>
							
							
							<asc_sop/>
							
							
							<asc_sat/>
							
							
							<lut2/>
							
						
						</colorinfo>
						
						
						<labels>
							
							
							<label2>Caribbean</label2>
							
						
						</labels>
						
					
						<link>
							<linkclipref>clipitem-340</linkclipref>
							<mediatype>video</mediatype>
							<trackindex>1</trackindex>
							<clipindex>6</clipindex>
							<groupindex>1</groupindex>
						</link>
						<link>
							<linkclipref>clipitem-346</linkclipref>
							<mediatype>video</mediatype>
							<trackindex>2</trackindex>
							<clipindex>6</clipindex>
							<groupindex>1</groupindex>
						</link>
						<link>
							<linkclipref>clipitem-352</linkclipref>
							<mediatype>video</mediatype>
							<trackindex>3</trackindex>
							<clipindex>6</clipindex>
							<groupindex>1</groupindex>
						</link>
						<link>
							<linkclipref>clipitem-358</linkclipref>
							<mediatype>audio</mediatype>
							<trackindex>1</trackindex>
							<clipindex>6</clipindex>
							<groupindex>1</groupindex>
						</link>
						<link>
							<linkclipref>clipitem-364</linkclipref>
							<mediatype>audio</mediatype>
							<trackindex>2</trackindex>
							<clipindex>6</clipindex>
							<groupindex>1</groupindex>
						</link>
						<link>
							<linkclipref>clipitem-370</linkclipref>
							<mediatype>audio</mediatype>
							<trackindex>3</trackindex>
							<clipindex>6</clipindex>
							<groupindex>1</groupindex>
						</link>
						<link>
							<linkclipref>clipitem-376</linkclipref>
							<mediatype>audio</mediatype>
							<trackindex>4</trackindex>
							<clipindex>6</clipindex>
							<groupindex>1</groupindex>
						</link>
						<link>
							<linkclipref>clipitem-382</linkclipref>
							<mediatype>audio</mediatype>
							<trackindex>5</trackindex>
							<clipindex>6</clipindex>
							<groupindex>1</groupindex>
						</link>
						<link>
							<linkclipref>clipitem-388</linkclipref>
							<mediatype>audio</mediatype>
							<trackindex>6</trackindex>
							<clipindex>6</clipindex>
							<groupindex>1</groupindex>
						</link>
						<link>
							<linkclipref>clipitem-394</linkclipref>
							<mediatype>audio</mediatype>
							<trackindex>7</trackindex>
							<clipindex>6</clipindex>
							<groupindex>1</groupindex>
						</link>
						<link>
							<linkclipref>clipitem-400</linkclipref>
							<mediatype>audio</mediatype>
							<trackindex>8</trackindex>
							<clipindex>6</clipindex>
							<groupindex>1</groupindex>
						</link>
					</clipitem>
					<enabled>TRUE</enabled>
					<locked>FALSE</locked>
					<outputchannelindex>1</outputchannelindex>
				</track>
				<track TL.SQTrackAudioKeyframeStyle="0" TL.SQTrackShy="0" TL.SQTrackExpandedHeight="41" TL.SQTrackExpanded="0" MZ.TrackTargeted="1" PannerCurrentValue="0.5" PannerIsInverted="true" PannerStartKeyframe="-91445760000000000,0.5,0,0,0,0,0,0" PannerName="Balance" currentExplodedTrackIndex="1" totalExplodedTrackCount="2" premiereTrackType="Stereo">
					<clipitem id="clipitem-383" premiereChannelType="stereo">
						
						
						<masterclipid>masterclip-28</masterclipid>
						
						
						<name>C4171.MP4</name>
						
						
						<enabled>TRUE</enabled>
						
						
						<duration>98724</duration>
						
						
						<rate>
							
							
							<timebase>24</timebase>
							
							
							<ntsc>TRUE</ntsc>
							
						
						</rate>
						
						
						<start>120</start>
						
						
						<end>17739</end>
						
						
						<in>2578</in>
						
						
						<out>20197</out>
						
						
						<pproTicksIn>27312837551999</pproTicksIn>
						
						
						<pproTicksOut>213978813048000</pproTicksOut>
						
						
						<file id="file-28"/>
						
						
						<sourcetrack>
							
							
							<mediatype>audio</mediatype>
							
							
							<trackindex>2</trackindex>
							
						
						</sourcetrack>
						
							
						<marker>
							
								
							<comment/>
							
								
							<name/>
							
								
							<in>2601</in>
							
								
							<out>-1</out>
							
							
						</marker>
						
						
						<logginginfo>
							
							
							<description/>
							
							
							<scene/>
							
							
							<shottake/>
							
							
							<lognote/>
							
							
							<good/>
							
							
							<originalvideofilename/>
							
							
							<originalaudiofilename/>
							
						
						</logginginfo>
						
						
						<colorinfo>
							
							
							<lut/>
							
							
							<lut1/>
							
							
							<asc_sop/>
							
							
							<asc_sat/>
							
							
							<lut2/>
							
						
						</colorinfo>
						
						
						<labels>
							
							
							<label2>Violet</label2>
							
						
						</labels>
						
					
						<link>
							<linkclipref>clipitem-335</linkclipref>
							<mediatype>video</mediatype>
							<trackindex>1</trackindex>
							<clipindex>1</clipindex>
							<groupindex>1</groupindex>
						</link>
						<link>
							<linkclipref>clipitem-341</linkclipref>
							<mediatype>video</mediatype>
							<trackindex>2</trackindex>
							<clipindex>1</clipindex>
							<groupindex>1</groupindex>
						</link>
						<link>
							<linkclipref>clipitem-347</linkclipref>
							<mediatype>video</mediatype>
							<trackindex>3</trackindex>
							<clipindex>1</clipindex>
							<groupindex>1</groupindex>
						</link>
						<link>
							<linkclipref>clipitem-353</linkclipref>
							<mediatype>audio</mediatype>
							<trackindex>1</trackindex>
							<clipindex>1</clipindex>
							<groupindex>1</groupindex>
						</link>
						<link>
							<linkclipref>clipitem-359</linkclipref>
							<mediatype>audio</mediatype>
							<trackindex>2</trackindex>
							<clipindex>1</clipindex>
							<groupindex>1</groupindex>
						</link>
						<link>
							<linkclipref>clipitem-365</linkclipref>
							<mediatype>audio</mediatype>
							<trackindex>3</trackindex>
							<clipindex>1</clipindex>
							<groupindex>1</groupindex>
						</link>
						<link>
							<linkclipref>clipitem-371</linkclipref>
							<mediatype>audio</mediatype>
							<trackindex>4</trackindex>
							<clipindex>1</clipindex>
							<groupindex>1</groupindex>
						</link>
						<link>
							<linkclipref>clipitem-377</linkclipref>
							<mediatype>audio</mediatype>
							<trackindex>5</trackindex>
							<clipindex>1</clipindex>
							<groupindex>1</groupindex>
						</link>
						<link>
							<linkclipref>clipitem-383</linkclipref>
							<mediatype>audio</mediatype>
							<trackindex>6</trackindex>
							<clipindex>1</clipindex>
							<groupindex>1</groupindex>
						</link>
						<link>
							<linkclipref>clipitem-389</linkclipref>
							<mediatype>audio</mediatype>
							<trackindex>7</trackindex>
							<clipindex>1</clipindex>
							<groupindex>1</groupindex>
						</link>
						<link>
							<linkclipref>clipitem-395</linkclipref>
							<mediatype>audio</mediatype>
							<trackindex>8</trackindex>
							<clipindex>1</clipindex>
							<groupindex>1</groupindex>
						</link>
					</clipitem>
					<clipitem id="clipitem-384" premiereChannelType="stereo">
						
						
						<masterclipid>masterclip-28</masterclipid>
						
						
						<name>C4171.MP4</name>
						
						
						<enabled>TRUE</enabled>
						
						
						<duration>98724</duration>
						
						
						<rate>
							
							
							<timebase>24</timebase>
							
							
							<ntsc>TRUE</ntsc>
							
						
						</rate>
						
						
						<start>18101</start>
						
						
						<end>31863</end>
						
						
						<in>21147</in>
						
						
						<out>34909</out>
						
						
						<pproTicksIn>224043667847999</pproTicksIn>
						
						
						<pproTicksOut>369846332856000</pproTicksOut>
						
						
						<file id="file-28"/>
						
						
						<sourcetrack>
							
							
							<mediatype>audio</mediatype>
							
							
							<trackindex>2</trackindex>
							
						
						</sourcetrack>
						
							
						<marker>
							
								
							<comment/>
							
								
							<name/>
							
								
							<in>2601</in>
							
								
							<out>-1</out>
							
							
						</marker>
						
						
						<logginginfo>
							
							
							<description/>
							
							
							<scene/>
							
							
							<shottake/>
							
							
							<lognote/>
							
							
							<good/>
							
							
							<originalvideofilename/>
							
							
							<originalaudiofilename/>
							
						
						</logginginfo>
						
						
						<colorinfo>
							
							
							<lut/>
							
							
							<lut1/>
							
							
							<asc_sop/>
							
							
							<asc_sat/>
							
							
							<lut2/>
							
						
						</colorinfo>
						
						
						<labels>
							
							
							<label2>Rose</label2>
							
						
						</labels>
						
					
						<link>
							<linkclipref>clipitem-336</linkclipref>
							<mediatype>video</mediatype>
							<trackindex>1</trackindex>
							<clipindex>2</clipindex>
							<groupindex>1</groupindex>
						</link>
						<link>
							<linkclipref>clipitem-342</linkclipref>
							<mediatype>video</mediatype>
							<trackindex>2</trackindex>
							<clipindex>2</clipindex>
							<groupindex>1</groupindex>
						</link>
						<link>
							<linkclipref>clipitem-348</linkclipref>
							<mediatype>video</mediatype>
							<trackindex>3</trackindex>
							<clipindex>2</clipindex>
							<groupindex>1</groupindex>
						</link>
						<link>
							<linkclipref>clipitem-354</linkclipref>
							<mediatype>audio</mediatype>
							<trackindex>1</trackindex>
							<clipindex>2</clipindex>
							<groupindex>1</groupindex>
						</link>
						<link>
							<linkclipref>clipitem-360</linkclipref>
							<mediatype>audio</mediatype>
							<trackindex>2</trackindex>
							<clipindex>2</clipindex>
							<groupindex>1</groupindex>
						</link>
						<link>
							<linkclipref>clipitem-366</linkclipref>
							<mediatype>audio</mediatype>
							<trackindex>3</trackindex>
							<clipindex>2</clipindex>
							<groupindex>1</groupindex>
						</link>
						<link>
							<linkclipref>clipitem-372</linkclipref>
							<mediatype>audio</mediatype>
							<trackindex>4</trackindex>
							<clipindex>2</clipindex>
							<groupindex>1</groupindex>
						</link>
						<link>
							<linkclipref>clipitem-378</linkclipref>
							<mediatype>audio</mediatype>
							<trackindex>5</trackindex>
							<clipindex>2</clipindex>
							<groupindex>1</groupindex>
						</link>
						<link>
							<linkclipref>clipitem-384</linkclipref>
							<mediatype>audio</mediatype>
							<trackindex>6</trackindex>
							<clipindex>2</clipindex>
							<groupindex>1</groupindex>
						</link>
						<link>
							<linkclipref>clipitem-390</linkclipref>
							<mediatype>audio</mediatype>
							<trackindex>7</trackindex>
							<clipindex>2</clipindex>
							<groupindex>1</groupindex>
						</link>
						<link>
							<linkclipref>clipitem-396</linkclipref>
							<mediatype>audio</mediatype>
							<trackindex>8</trackindex>
							<clipindex>2</clipindex>
							<groupindex>1</groupindex>
						</link>
					</clipitem>
					<clipitem id="clipitem-385" premiereChannelType="stereo">
						
						
						<masterclipid>masterclip-28</masterclipid>
						
						
						<name>C4171.MP4</name>
						
						
						<enabled>TRUE</enabled>
						
						
						<duration>98724</duration>
						
						
						<rate>
							
							
							<timebase>24</timebase>
							
							
							<ntsc>TRUE</ntsc>
							
						
						</rate>
						
						
						<start>32225</start>
						
						
						<end>47985</end>
						
						
						<in>36129</in>
						
						
						<out>51889</out>
						
						
						<pproTicksIn>382771725336000</pproTicksIn>
						
						
						<pproTicksOut>549742369175999</pproTicksOut>
						
						
						<file id="file-28"/>
						
						
						<sourcetrack>
							
							
							<mediatype>audio</mediatype>
							
							
							<trackindex>2</trackindex>
							
						
						</sourcetrack>
						
							
						<marker>
							
								
							<comment/>
							
								
							<name/>
							
								
							<in>2601</in>
							
								
							<out>-1</out>
							
							
						</marker>
						
						
						<logginginfo>
							
							
							<description/>
							
							
							<scene/>
							
							
							<shottake/>
							
							
							<lognote/>
							
							
							<good/>
							
							
							<originalvideofilename/>
							
							
							<originalaudiofilename/>
							
						
						</logginginfo>
						
						
						<colorinfo>
							
							
							<lut/>
							
							
							<lut1/>
							
							
							<asc_sop/>
							
							
							<asc_sat/>
							
							
							<lut2/>
							
						
						</colorinfo>
						
						
						<labels>
							
							
							<label2>Mango</label2>
							
						
						</labels>
						
					
						<link>
							<linkclipref>clipitem-337</linkclipref>
							<mediatype>video</mediatype>
							<trackindex>1</trackindex>
							<clipindex>3</clipindex>
							<groupindex>1</groupindex>
						</link>
						<link>
							<linkclipref>clipitem-343</linkclipref>
							<mediatype>video</mediatype>
							<trackindex>2</trackindex>
							<clipindex>3</clipindex>
							<groupindex>1</groupindex>
						</link>
						<link>
							<linkclipref>clipitem-349</linkclipref>
							<mediatype>video</mediatype>
							<trackindex>3</trackindex>
							<clipindex>3</clipindex>
							<groupindex>1</groupindex>
						</link>
						<link>
							<linkclipref>clipitem-355</linkclipref>
							<mediatype>audio</mediatype>
							<trackindex>1</trackindex>
							<clipindex>3</clipindex>
							<groupindex>1</groupindex>
						</link>
						<link>
							<linkclipref>clipitem-361</linkclipref>
							<mediatype>audio</mediatype>
							<trackindex>2</trackindex>
							<clipindex>3</clipindex>
							<groupindex>1</groupindex>
						</link>
						<link>
							<linkclipref>clipitem-367</linkclipref>
							<mediatype>audio</mediatype>
							<trackindex>3</trackindex>
							<clipindex>3</clipindex>
							<groupindex>1</groupindex>
						</link>
						<link>
							<linkclipref>clipitem-373</linkclipref>
							<mediatype>audio</mediatype>
							<trackindex>4</trackindex>
							<clipindex>3</clipindex>
							<groupindex>1</groupindex>
						</link>
						<link>
							<linkclipref>clipitem-379</linkclipref>
							<mediatype>audio</mediatype>
							<trackindex>5</trackindex>
							<clipindex>3</clipindex>
							<groupindex>1</groupindex>
						</link>
						<link>
							<linkclipref>clipitem-385</linkclipref>
							<mediatype>audio</mediatype>
							<trackindex>6</trackindex>
							<clipindex>3</clipindex>
							<groupindex>1</groupindex>
						</link>
						<link>
							<linkclipref>clipitem-391</linkclipref>
							<mediatype>audio</mediatype>
							<trackindex>7</trackindex>
							<clipindex>3</clipindex>
							<groupindex>1</groupindex>
						</link>
						<link>
							<linkclipref>clipitem-397</linkclipref>
							<mediatype>audio</mediatype>
							<trackindex>8</trackindex>
							<clipindex>3</clipindex>
							<groupindex>1</groupindex>
						</link>
					</clipitem>
					<clipitem id="clipitem-386" premiereChannelType="stereo">
						
						
						<masterclipid>masterclip-28</masterclipid>
						
						
						<name>C4171.MP4</name>
						
						
						<enabled>TRUE</enabled>
						
						
						<duration>98724</duration>
						
						
						<rate>
							
							
							<timebase>24</timebase>
							
							
							<ntsc>TRUE</ntsc>
							
						
						</rate>
						
						
						<start>48347</start>
						
						
						<end>62769</end>
						
						
						<in>53201</in>
						
						
						<out>67623</out>
						
						
						<pproTicksIn>563642463383999</pproTicksIn>
						
						
						<pproTicksOut>716437553831999</pproTicksOut>
						
						
						<file id="file-28"/>
						
						
						<sourcetrack>
							
							
							<mediatype>audio</mediatype>
							
							
							<trackindex>2</trackindex>
							
						
						</sourcetrack>
						
							
						<marker>
							
								
							<comment/>
							
								
							<name/>
							
								
							<in>2601</in>
							
								
							<out>-1</out>
							
							
						</marker>
						
						
						<logginginfo>
							
							
							<description/>
							
							
							<scene/>
							
							
							<shottake/>
							
							
							<lognote/>
							
							
							<good/>
							
							
							<originalvideofilename/>
							
							
							<originalaudiofilename/>
							
						
						</logginginfo>
						
						
						<colorinfo>
							
							
							<lut/>
							
							
							<lut1/>
							
							
							<asc_sop/>
							
							
							<asc_sat/>
							
							
							<lut2/>
							
						
						</colorinfo>
						
						
						<labels>
							
							
							<label2>Yellow</label2>
							
						
						</labels>
						
					
						<link>
							<linkclipref>clipitem-338</linkclipref>
							<mediatype>video</mediatype>
							<trackindex>1</trackindex>
							<clipindex>4</clipindex>
							<groupindex>1</groupindex>
						</link>
						<link>
							<linkclipref>clipitem-344</linkclipref>
							<mediatype>video</mediatype>
							<trackindex>2</trackindex>
							<clipindex>4</clipindex>
							<groupindex>1</groupindex>
						</link>
						<link>
							<linkclipref>clipitem-350</linkclipref>
							<mediatype>video</mediatype>
							<trackindex>3</trackindex>
							<clipindex>4</clipindex>
							<groupindex>1</groupindex>
						</link>
						<link>
							<linkclipref>clipitem-356</linkclipref>
							<mediatype>audio</mediatype>
							<trackindex>1</trackindex>
							<clipindex>4</clipindex>
							<groupindex>1</groupindex>
						</link>
						<link>
							<linkclipref>clipitem-362</linkclipref>
							<mediatype>audio</mediatype>
							<trackindex>2</trackindex>
							<clipindex>4</clipindex>
							<groupindex>1</groupindex>
						</link>
						<link>
							<linkclipref>clipitem-368</linkclipref>
							<mediatype>audio</mediatype>
							<trackindex>3</trackindex>
							<clipindex>4</clipindex>
							<groupindex>1</groupindex>
						</link>
						<link>
							<linkclipref>clipitem-374</linkclipref>
							<mediatype>audio</mediatype>
							<trackindex>4</trackindex>
							<clipindex>4</clipindex>
							<groupindex>1</groupindex>
						</link>
						<link>
							<linkclipref>clipitem-380</linkclipref>
							<mediatype>audio</mediatype>
							<trackindex>5</trackindex>
							<clipindex>4</clipindex>
							<groupindex>1</groupindex>
						</link>
						<link>
							<linkclipref>clipitem-386</linkclipref>
							<mediatype>audio</mediatype>
							<trackindex>6</trackindex>
							<clipindex>4</clipindex>
							<groupindex>1</groupindex>
						</link>
						<link>
							<linkclipref>clipitem-392</linkclipref>
							<mediatype>audio</mediatype>
							<trackindex>7</trackindex>
							<clipindex>4</clipindex>
							<groupindex>1</groupindex>
						</link>
						<link>
							<linkclipref>clipitem-398</linkclipref>
							<mediatype>audio</mediatype>
							<trackindex>8</trackindex>
							<clipindex>4</clipindex>
							<groupindex>1</groupindex>
						</link>
					</clipitem>
					<clipitem id="clipitem-387" premiereChannelType="stereo">
						
						
						<masterclipid>masterclip-28</masterclipid>
						
						
						<name>C4171.MP4</name>
						
						
						<enabled>TRUE</enabled>
						
						
						<duration>98724</duration>
						
						
						<rate>
							
							
							<timebase>24</timebase>
							
							
							<ntsc>TRUE</ntsc>
							
						
						</rate>
						
						
						<start>63131</start>
						
						
						<end>75322</end>
						
						
						<in>68206</in>
						
						
						<out>80397</out>
						
						
						<pproTicksIn>722614196304000</pproTicksIn>
						
						
						<pproTicksOut>851772769848000</pproTicksOut>
						
						
						<file id="file-28"/>
						
						
						<sourcetrack>
							
							
							<mediatype>audio</mediatype>
							
							
							<trackindex>2</trackindex>
							
						
						</sourcetrack>
						
							
						<marker>
							
								
							<comment/>
							
								
							<name/>
							
								
							<in>2601</in>
							
								
							<out>-1</out>
							
							
						</marker>
						
						
						<logginginfo>
							
							
							<description/>
							
							
							<scene/>
							
							
							<shottake/>
							
							
							<lognote/>
							
							
							<good/>
							
							
							<originalvideofilename/>
							
							
							<originalaudiofilename/>
							
						
						</logginginfo>
						
						
						<colorinfo>
							
							
							<lut/>
							
							
							<lut1/>
							
							
							<asc_sop/>
							
							
							<asc_sat/>
							
							
							<lut2/>
							
						
						</colorinfo>
						
						
						<labels>
							
							
							<label2>Lavender</label2>
							
						
						</labels>
						
					
						<link>
							<linkclipref>clipitem-339</linkclipref>
							<mediatype>video</mediatype>
							<trackindex>1</trackindex>
							<clipindex>5</clipindex>
							<groupindex>1</groupindex>
						</link>
						<link>
							<linkclipref>clipitem-345</linkclipref>
							<mediatype>video</mediatype>
							<trackindex>2</trackindex>
							<clipindex>5</clipindex>
							<groupindex>1</groupindex>
						</link>
						<link>
							<linkclipref>clipitem-351</linkclipref>
							<mediatype>video</mediatype>
							<trackindex>3</trackindex>
							<clipindex>5</clipindex>
							<groupindex>1</groupindex>
						</link>
						<link>
							<linkclipref>clipitem-357</linkclipref>
							<mediatype>audio</mediatype>
							<trackindex>1</trackindex>
							<clipindex>5</clipindex>
							<groupindex>1</groupindex>
						</link>
						<link>
							<linkclipref>clipitem-363</linkclipref>
							<mediatype>audio</mediatype>
							<trackindex>2</trackindex>
							<clipindex>5</clipindex>
							<groupindex>1</groupindex>
						</link>
						<link>
							<linkclipref>clipitem-369</linkclipref>
							<mediatype>audio</mediatype>
							<trackindex>3</trackindex>
							<clipindex>5</clipindex>
							<groupindex>1</groupindex>
						</link>
						<link>
							<linkclipref>clipitem-375</linkclipref>
							<mediatype>audio</mediatype>
							<trackindex>4</trackindex>
							<clipindex>5</clipindex>
							<groupindex>1</groupindex>
						</link>
						<link>
							<linkclipref>clipitem-381</linkclipref>
							<mediatype>audio</mediatype>
							<trackindex>5</trackindex>
							<clipindex>5</clipindex>
							<groupindex>1</groupindex>
						</link>
						<link>
							<linkclipref>clipitem-387</linkclipref>
							<mediatype>audio</mediatype>
							<trackindex>6</trackindex>
							<clipindex>5</clipindex>
							<groupindex>1</groupindex>
						</link>
						<link>
							<linkclipref>clipitem-393</linkclipref>
							<mediatype>audio</mediatype>
							<trackindex>7</trackindex>
							<clipindex>5</clipindex>
							<groupindex>1</groupindex>
						</link>
						<link>
							<linkclipref>clipitem-399</linkclipref>
							<mediatype>audio</mediatype>
							<trackindex>8</trackindex>
							<clipindex>5</clipindex>
							<groupindex>1</groupindex>
						</link>
					</clipitem>
					<clipitem id="clipitem-388" premiereChannelType="stereo">
						
						
						<masterclipid>masterclip-28</masterclipid>
						
						
						<name>C4171.MP4</name>
						
						
						<enabled>TRUE</enabled>
						
						
						<duration>98724</duration>
						
						
						<rate>
							
							
							<timebase>24</timebase>
							
							
							<ntsc>TRUE</ntsc>
							
						
						</rate>
						
						
						<start>75684</start>
						
						
						<end>91254</end>
						
						
						<in>82012</in>
						
						
						<out>97582</out>
						
						
						<pproTicksIn>868883023008000</pproTicksIn>
						
						
						<pproTicksOut>1033840695887999</pproTicksOut>
						
						
						<file id="file-28"/>
						
						
						<sourcetrack>
							
							
							<mediatype>audio</mediatype>
							
							
							<trackindex>2</trackindex>
							
						
						</sourcetrack>
						
							
						<marker>
							
								
							<comment/>
							
								
							<name/>
							
								
							<in>2601</in>
							
								
							<out>-1</out>
							
							
						</marker>
						
						
						<logginginfo>
							
							
							<description/>
							
							
							<scene/>
							
							
							<shottake/>
							
							
							<lognote/>
							
							
							<good/>
							
							
							<originalvideofilename/>
							
							
							<originalaudiofilename/>
							
						
						</logginginfo>
						
						
						<colorinfo>
							
							
							<lut/>
							
							
							<lut1/>
							
							
							<asc_sop/>
							
							
							<asc_sat/>
							
							
							<lut2/>
							
						
						</colorinfo>
						
						
						<labels>
							
							
							<label2>Caribbean</label2>
							
						
						</labels>
						
					
						<link>
							<linkclipref>clipitem-340</linkclipref>
							<mediatype>video</mediatype>
							<trackindex>1</trackindex>
							<clipindex>6</clipindex>
							<groupindex>1</groupindex>
						</link>
						<link>
							<linkclipref>clipitem-346</linkclipref>
							<mediatype>video</mediatype>
							<trackindex>2</trackindex>
							<clipindex>6</clipindex>
							<groupindex>1</groupindex>
						</link>
						<link>
							<linkclipref>clipitem-352</linkclipref>
							<mediatype>video</mediatype>
							<trackindex>3</trackindex>
							<clipindex>6</clipindex>
							<groupindex>1</groupindex>
						</link>
						<link>
							<linkclipref>clipitem-358</linkclipref>
							<mediatype>audio</mediatype>
							<trackindex>1</trackindex>
							<clipindex>6</clipindex>
							<groupindex>1</groupindex>
						</link>
						<link>
							<linkclipref>clipitem-364</linkclipref>
							<mediatype>audio</mediatype>
							<trackindex>2</trackindex>
							<clipindex>6</clipindex>
							<groupindex>1</groupindex>
						</link>
						<link>
							<linkclipref>clipitem-370</linkclipref>
							<mediatype>audio</mediatype>
							<trackindex>3</trackindex>
							<clipindex>6</clipindex>
							<groupindex>1</groupindex>
						</link>
						<link>
							<linkclipref>clipitem-376</linkclipref>
							<mediatype>audio</mediatype>
							<trackindex>4</trackindex>
							<clipindex>6</clipindex>
							<groupindex>1</groupindex>
						</link>
						<link>
							<linkclipref>clipitem-382</linkclipref>
							<mediatype>audio</mediatype>
							<trackindex>5</trackindex>
							<clipindex>6</clipindex>
							<groupindex>1</groupindex>
						</link>
						<link>
							<linkclipref>clipitem-388</linkclipref>
							<mediatype>audio</mediatype>
							<trackindex>6</trackindex>
							<clipindex>6</clipindex>
							<groupindex>1</groupindex>
						</link>
						<link>
							<linkclipref>clipitem-394</linkclipref>
							<mediatype>audio</mediatype>
							<trackindex>7</trackindex>
							<clipindex>6</clipindex>
							<groupindex>1</groupindex>
						</link>
						<link>
							<linkclipref>clipitem-400</linkclipref>
							<mediatype>audio</mediatype>
							<trackindex>8</trackindex>
							<clipindex>6</clipindex>
							<groupindex>1</groupindex>
						</link>
					</clipitem>
					<enabled>TRUE</enabled>
					<locked>FALSE</locked>
					<outputchannelindex>2</outputchannelindex>
				</track>
				<track TL.SQTrackAudioKeyframeStyle="0" TL.SQTrackShy="0" TL.SQTrackExpandedHeight="41" TL.SQTrackExpanded="0" MZ.TrackTargeted="1" PannerCurrentValue="0.5" PannerIsInverted="true" PannerStartKeyframe="-91445760000000000,0.5,0,0,0,0,0,0" PannerName="Balance" currentExplodedTrackIndex="0" totalExplodedTrackCount="2" premiereTrackType="Stereo">
					<clipitem id="clipitem-389" premiereChannelType="stereo">
						
						
						<masterclipid>masterclip-29</masterclipid>
						
						
						<name>C6196.MP4</name>
						
						
						<enabled>TRUE</enabled>
						
						
						<duration>98676</duration>
						
						
						<rate>
							
							
							<timebase>24</timebase>
							
							
							<ntsc>TRUE</ntsc>
							
						
						</rate>
						
						
						<start>120</start>
						
						
						<end>17739</end>
						
						
						<in>2674</in>
						
						
						<out>20293</out>
						
						
						<pproTicksIn>28329917616000</pproTicksIn>
						
						
						<pproTicksOut>214995893112000</pproTicksOut>
						
						
						<file id="file-29"/>
						
						
						<sourcetrack>
							
							
							<mediatype>audio</mediatype>
							
							
							<trackindex>1</trackindex>
							
						
						</sourcetrack>
						
							
						<marker>
							
								
							<comment/>
							
								
							<name/>
							
								
							<in>2697</in>
							
								
							<out>-1</out>
							
							
						</marker>
						
						
						<logginginfo>
							
							
							<description/>
							
							
							<scene/>
							
							
							<shottake/>
							
							
							<lognote/>
							
							
							<good/>
							
							
							<originalvideofilename/>
							
							
							<originalaudiofilename/>
							
						
						</logginginfo>
						
						
						<colorinfo>
							
							
							<lut/>
							
							
							<lut1/>
							
							
							<asc_sop/>
							
							
							<asc_sat/>
							
							
							<lut2/>
							
						
						</colorinfo>
						
						
						<labels>
							
							
							<label2>Violet</label2>
							
						
						</labels>
						
					
						<link>
							<linkclipref>clipitem-335</linkclipref>
							<mediatype>video</mediatype>
							<trackindex>1</trackindex>
							<clipindex>1</clipindex>
							<groupindex>1</groupindex>
						</link>
						<link>
							<linkclipref>clipitem-341</linkclipref>
							<mediatype>video</mediatype>
							<trackindex>2</trackindex>
							<clipindex>1</clipindex>
							<groupindex>1</groupindex>
						</link>
						<link>
							<linkclipref>clipitem-347</linkclipref>
							<mediatype>video</mediatype>
							<trackindex>3</trackindex>
							<clipindex>1</clipindex>
							<groupindex>1</groupindex>
						</link>
						<link>
							<linkclipref>clipitem-353</linkclipref>
							<mediatype>audio</mediatype>
							<trackindex>1</trackindex>
							<clipindex>1</clipindex>
							<groupindex>1</groupindex>
						</link>
						<link>
							<linkclipref>clipitem-359</linkclipref>
							<mediatype>audio</mediatype>
							<trackindex>2</trackindex>
							<clipindex>1</clipindex>
							<groupindex>1</groupindex>
						</link>
						<link>
							<linkclipref>clipitem-365</linkclipref>
							<mediatype>audio</mediatype>
							<trackindex>3</trackindex>
							<clipindex>1</clipindex>
							<groupindex>1</groupindex>
						</link>
						<link>
							<linkclipref>clipitem-371</linkclipref>
							<mediatype>audio</mediatype>
							<trackindex>4</trackindex>
							<clipindex>1</clipindex>
							<groupindex>1</groupindex>
						</link>
						<link>
							<linkclipref>clipitem-377</linkclipref>
							<mediatype>audio</mediatype>
							<trackindex>5</trackindex>
							<clipindex>1</clipindex>
							<groupindex>1</groupindex>
						</link>
						<link>
							<linkclipref>clipitem-383</linkclipref>
							<mediatype>audio</mediatype>
							<trackindex>6</trackindex>
							<clipindex>1</clipindex>
							<groupindex>1</groupindex>
						</link>
						<link>
							<linkclipref>clipitem-389</linkclipref>
							<mediatype>audio</mediatype>
							<trackindex>7</trackindex>
							<clipindex>1</clipindex>
							<groupindex>1</groupindex>
						</link>
						<link>
							<linkclipref>clipitem-395</linkclipref>
							<mediatype>audio</mediatype>
							<trackindex>8</trackindex>
							<clipindex>1</clipindex>
							<groupindex>1</groupindex>
						</link>
					</clipitem>
					<clipitem id="clipitem-390" premiereChannelType="stereo">
						
						
						<masterclipid>masterclip-29</masterclipid>
						
						
						<name>C6196.MP4</name>
						
						
						<enabled>TRUE</enabled>
						
						
						<duration>98676</duration>
						
						
						<rate>
							
							
							<timebase>24</timebase>
							
							
							<ntsc>TRUE</ntsc>
							
						
						</rate>
						
						
						<start>18101</start>
						
						
						<end>31863</end>
						
						
						<in>21243</in>
						
						
						<out>35005</out>
						
						
						<pproTicksIn>225060747911999</pproTicksIn>
						
						
						<pproTicksOut>370863412919999</pproTicksOut>
						
						
						<file id="file-29"/>
						
						
						<sourcetrack>
							
							
							<mediatype>audio</mediatype>
							
							
							<trackindex>1</trackindex>
							
						
						</sourcetrack>
						
							
						<marker>
							
								
							<comment/>
							
								
							<name/>
							
								
							<in>2697</in>
							
								
							<out>-1</out>
							
							
						</marker>
						
						
						<logginginfo>
							
							
							<description/>
							
							
							<scene/>
							
							
							<shottake/>
							
							
							<lognote/>
							
							
							<good/>
							
							
							<originalvideofilename/>
							
							
							<originalaudiofilename/>
							
						
						</logginginfo>
						
						
						<colorinfo>
							
							
							<lut/>
							
							
							<lut1/>
							
							
							<asc_sop/>
							
							
							<asc_sat/>
							
							
							<lut2/>
							
						
						</colorinfo>
						
						
						<labels>
							
							
							<label2>Rose</label2>
							
						
						</labels>
						
					
						<link>
							<linkclipref>clipitem-336</linkclipref>
							<mediatype>video</mediatype>
							<trackindex>1</trackindex>
							<clipindex>2</clipindex>
							<groupindex>1</groupindex>
						</link>
						<link>
							<linkclipref>clipitem-342</linkclipref>
							<mediatype>video</mediatype>
							<trackindex>2</trackindex>
							<clipindex>2</clipindex>
							<groupindex>1</groupindex>
						</link>
						<link>
							<linkclipref>clipitem-348</linkclipref>
							<mediatype>video</mediatype>
							<trackindex>3</trackindex>
							<clipindex>2</clipindex>
							<groupindex>1</groupindex>
						</link>
						<link>
							<linkclipref>clipitem-354</linkclipref>
							<mediatype>audio</mediatype>
							<trackindex>1</trackindex>
							<clipindex>2</clipindex>
							<groupindex>1</groupindex>
						</link>
						<link>
							<linkclipref>clipitem-360</linkclipref>
							<mediatype>audio</mediatype>
							<trackindex>2</trackindex>
							<clipindex>2</clipindex>
							<groupindex>1</groupindex>
						</link>
						<link>
							<linkclipref>clipitem-366</linkclipref>
							<mediatype>audio</mediatype>
							<trackindex>3</trackindex>
							<clipindex>2</clipindex>
							<groupindex>1</groupindex>
						</link>
						<link>
							<linkclipref>clipitem-372</linkclipref>
							<mediatype>audio</mediatype>
							<trackindex>4</trackindex>
							<clipindex>2</clipindex>
							<groupindex>1</groupindex>
						</link>
						<link>
							<linkclipref>clipitem-378</linkclipref>
							<mediatype>audio</mediatype>
							<trackindex>5</trackindex>
							<clipindex>2</clipindex>
							<groupindex>1</groupindex>
						</link>
						<link>
							<linkclipref>clipitem-384</linkclipref>
							<mediatype>audio</mediatype>
							<trackindex>6</trackindex>
							<clipindex>2</clipindex>
							<groupindex>1</groupindex>
						</link>
						<link>
							<linkclipref>clipitem-390</linkclipref>
							<mediatype>audio</mediatype>
							<trackindex>7</trackindex>
							<clipindex>2</clipindex>
							<groupindex>1</groupindex>
						</link>
						<link>
							<linkclipref>clipitem-396</linkclipref>
							<mediatype>audio</mediatype>
							<trackindex>8</trackindex>
							<clipindex>2</clipindex>
							<groupindex>1</groupindex>
						</link>
					</clipitem>
					<clipitem id="clipitem-391" premiereChannelType="stereo">
						
						
						<masterclipid>masterclip-29</masterclipid>
						
						
						<name>C6196.MP4</name>
						
						
						<enabled>TRUE</enabled>
						
						
						<duration>98676</duration>
						
						
						<rate>
							
							
							<timebase>24</timebase>
							
							
							<ntsc>TRUE</ntsc>
							
						
						</rate>
						
						
						<start>32225</start>
						
						
						<end>47985</end>
						
						
						<in>36225</in>
						
						
						<out>51985</out>
						
						
						<pproTicksIn>383788805399999</pproTicksIn>
						
						
						<pproTicksOut>550759449240000</pproTicksOut>
						
						
						<file id="file-29"/>
						
						
						<sourcetrack>
							
							
							<mediatype>audio</mediatype>
							
							
							<trackindex>1</trackindex>
							
						
						</sourcetrack>
						
							
						<marker>
							
								
							<comment/>
							
								
							<name/>
							
								
							<in>2697</in>
							
								
							<out>-1</out>
							
							
						</marker>
						
						
						<logginginfo>
							
							
							<description/>
							
							
							<scene/>
							
							
							<shottake/>
							
							
							<lognote/>
							
							
							<good/>
							
							
							<originalvideofilename/>
							
							
							<originalaudiofilename/>
							
						
						</logginginfo>
						
						
						<colorinfo>
							
							
							<lut/>
							
							
							<lut1/>
							
							
							<asc_sop/>
							
							
							<asc_sat/>
							
							
							<lut2/>
							
						
						</colorinfo>
						
						
						<labels>
							
							
							<label2>Mango</label2>
							
						
						</labels>
						
					
						<link>
							<linkclipref>clipitem-337</linkclipref>
							<mediatype>video</mediatype>
							<trackindex>1</trackindex>
							<clipindex>3</clipindex>
							<groupindex>1</groupindex>
						</link>
						<link>
							<linkclipref>clipitem-343</linkclipref>
							<mediatype>video</mediatype>
							<trackindex>2</trackindex>
							<clipindex>3</clipindex>
							<groupindex>1</groupindex>
						</link>
						<link>
							<linkclipref>clipitem-349</linkclipref>
							<mediatype>video</mediatype>
							<trackindex>3</trackindex>
							<clipindex>3</clipindex>
							<groupindex>1</groupindex>
						</link>
						<link>
							<linkclipref>clipitem-355</linkclipref>
							<mediatype>audio</mediatype>
							<trackindex>1</trackindex>
							<clipindex>3</clipindex>
							<groupindex>1</groupindex>
						</link>
						<link>
							<linkclipref>clipitem-361</linkclipref>
							<mediatype>audio</mediatype>
							<trackindex>2</trackindex>
							<clipindex>3</clipindex>
							<groupindex>1</groupindex>
						</link>
						<link>
							<linkclipref>clipitem-367</linkclipref>
							<mediatype>audio</mediatype>
							<trackindex>3</trackindex>
							<clipindex>3</clipindex>
							<groupindex>1</groupindex>
						</link>
						<link>
							<linkclipref>clipitem-373</linkclipref>
							<mediatype>audio</mediatype>
							<trackindex>4</trackindex>
							<clipindex>3</clipindex>
							<groupindex>1</groupindex>
						</link>
						<link>
							<linkclipref>clipitem-379</linkclipref>
							<mediatype>audio</mediatype>
							<trackindex>5</trackindex>
							<clipindex>3</clipindex>
							<groupindex>1</groupindex>
						</link>
						<link>
							<linkclipref>clipitem-385</linkclipref>
							<mediatype>audio</mediatype>
							<trackindex>6</trackindex>
							<clipindex>3</clipindex>
							<groupindex>1</groupindex>
						</link>
						<link>
							<linkclipref>clipitem-391</linkclipref>
							<mediatype>audio</mediatype>
							<trackindex>7</trackindex>
							<clipindex>3</clipindex>
							<groupindex>1</groupindex>
						</link>
						<link>
							<linkclipref>clipitem-397</linkclipref>
							<mediatype>audio</mediatype>
							<trackindex>8</trackindex>
							<clipindex>3</clipindex>
							<groupindex>1</groupindex>
						</link>
					</clipitem>
					<clipitem id="clipitem-392" premiereChannelType="stereo">
						
						
						<masterclipid>masterclip-29</masterclipid>
						
						
						<name>C6196.MP4</name>
						
						
						<enabled>TRUE</enabled>
						
						
						<duration>98676</duration>
						
						
						<rate>
							
							
							<timebase>24</timebase>
							
							
							<ntsc>TRUE</ntsc>
							
						
						</rate>
						
						
						<start>48347</start>
						
						
						<end>62769</end>
						
						
						<in>53297</in>
						
						
						<out>67719</out>
						
						
						<pproTicksIn>564659543447999</pproTicksIn>
						
						
						<pproTicksOut>717454633895999</pproTicksOut>
						
						
						<file id="file-29"/>
						
						
						<sourcetrack>
							
							
							<mediatype>audio</mediatype>
							
							
							<trackindex>1</trackindex>
							
						
						</sourcetrack>
						
							
						<marker>
							
								
							<comment/>
							
								
							<name/>
							
								
							<in>2697</in>
							
								
							<out>-1</out>
							
							
						</marker>
						
						
						<logginginfo>
							
							
							<description/>
							
							
							<scene/>
							
							
							<shottake/>
							
							
							<lognote/>
							
							
							<good/>
							
							
							<originalvideofilename/>
							
							
							<originalaudiofilename/>
							
						
						</logginginfo>
						
						
						<colorinfo>
							
							
							<lut/>
							
							
							<lut1/>
							
							
							<asc_sop/>
							
							
							<asc_sat/>
							
							
							<lut2/>
							
						
						</colorinfo>
						
						
						<labels>
							
							
							<label2>Yellow</label2>
							
						
						</labels>
						
					
						<link>
							<linkclipref>clipitem-338</linkclipref>
							<mediatype>video</mediatype>
							<trackindex>1</trackindex>
							<clipindex>4</clipindex>
							<groupindex>1</groupindex>
						</link>
						<link>
							<linkclipref>clipitem-344</linkclipref>
							<mediatype>video</mediatype>
							<trackindex>2</trackindex>
							<clipindex>4</clipindex>
							<groupindex>1</groupindex>
						</link>
						<link>
							<linkclipref>clipitem-350</linkclipref>
							<mediatype>video</mediatype>
							<trackindex>3</trackindex>
							<clipindex>4</clipindex>
							<groupindex>1</groupindex>
						</link>
						<link>
							<linkclipref>clipitem-356</linkclipref>
							<mediatype>audio</mediatype>
							<trackindex>1</trackindex>
							<clipindex>4</clipindex>
							<groupindex>1</groupindex>
						</link>
						<link>
							<linkclipref>clipitem-362</linkclipref>
							<mediatype>audio</mediatype>
							<trackindex>2</trackindex>
							<clipindex>4</clipindex>
							<groupindex>1</groupindex>
						</link>
						<link>
							<linkclipref>clipitem-368</linkclipref>
							<mediatype>audio</mediatype>
							<trackindex>3</trackindex>
							<clipindex>4</clipindex>
							<groupindex>1</groupindex>
						</link>
						<link>
							<linkclipref>clipitem-374</linkclipref>
							<mediatype>audio</mediatype>
							<trackindex>4</trackindex>
							<clipindex>4</clipindex>
							<groupindex>1</groupindex>
						</link>
						<link>
							<linkclipref>clipitem-380</linkclipref>
							<mediatype>audio</mediatype>
							<trackindex>5</trackindex>
							<clipindex>4</clipindex>
							<groupindex>1</groupindex>
						</link>
						<link>
							<linkclipref>clipitem-386</linkclipref>
							<mediatype>audio</mediatype>
							<trackindex>6</trackindex>
							<clipindex>4</clipindex>
							<groupindex>1</groupindex>
						</link>
						<link>
							<linkclipref>clipitem-392</linkclipref>
							<mediatype>audio</mediatype>
							<trackindex>7</trackindex>
							<clipindex>4</clipindex>
							<groupindex>1</groupindex>
						</link>
						<link>
							<linkclipref>clipitem-398</linkclipref>
							<mediatype>audio</mediatype>
							<trackindex>8</trackindex>
							<clipindex>4</clipindex>
							<groupindex>1</groupindex>
						</link>
					</clipitem>
					<clipitem id="clipitem-393" premiereChannelType="stereo">
						
						
						<masterclipid>masterclip-29</masterclipid>
						
						
						<name>C6196.MP4</name>
						
						
						<enabled>TRUE</enabled>
						
						
						<duration>98676</duration>
						
						
						<rate>
							
							
							<timebase>24</timebase>
							
							
							<ntsc>TRUE</ntsc>
							
						
						</rate>
						
						
						<start>63131</start>
						
						
						<end>75322</end>
						
						
						<in>68302</in>
						
						
						<out>80493</out>
						
						
						<pproTicksIn>723631276368000</pproTicksIn>
						
						
						<pproTicksOut>852789849912000</pproTicksOut>
						
						
						<file id="file-29"/>
						
						
						<sourcetrack>
							
							
							<mediatype>audio</mediatype>
							
							
							<trackindex>1</trackindex>
							
						
						</sourcetrack>
						
							
						<marker>
							
								
							<comment/>
							
								
							<name/>
							
								
							<in>2697</in>
							
								
							<out>-1</out>
							
							
						</marker>
						
						
						<logginginfo>
							
							
							<description/>
							
							
							<scene/>
							
							
							<shottake/>
							
							
							<lognote/>
							
							
							<good/>
							
							
							<originalvideofilename/>
							
							
							<originalaudiofilename/>
							
						
						</logginginfo>
						
						
						<colorinfo>
							
							
							<lut/>
							
							
							<lut1/>
							
							
							<asc_sop/>
							
							
							<asc_sat/>
							
							
							<lut2/>
							
						
						</colorinfo>
						
						
						<labels>
							
							
							<label2>Lavender</label2>
							
						
						</labels>
						
					
						<link>
							<linkclipref>clipitem-339</linkclipref>
							<mediatype>video</mediatype>
							<trackindex>1</trackindex>
							<clipindex>5</clipindex>
							<groupindex>1</groupindex>
						</link>
						<link>
							<linkclipref>clipitem-345</linkclipref>
							<mediatype>video</mediatype>
							<trackindex>2</trackindex>
							<clipindex>5</clipindex>
							<groupindex>1</groupindex>
						</link>
						<link>
							<linkclipref>clipitem-351</linkclipref>
							<mediatype>video</mediatype>
							<trackindex>3</trackindex>
							<clipindex>5</clipindex>
							<groupindex>1</groupindex>
						</link>
						<link>
							<linkclipref>clipitem-357</linkclipref>
							<mediatype>audio</mediatype>
							<trackindex>1</trackindex>
							<clipindex>5</clipindex>
							<groupindex>1</groupindex>
						</link>
						<link>
							<linkclipref>clipitem-363</linkclipref>
							<mediatype>audio</mediatype>
							<trackindex>2</trackindex>
							<clipindex>5</clipindex>
							<groupindex>1</groupindex>
						</link>
						<link>
							<linkclipref>clipitem-369</linkclipref>
							<mediatype>audio</mediatype>
							<trackindex>3</trackindex>
							<clipindex>5</clipindex>
							<groupindex>1</groupindex>
						</link>
						<link>
							<linkclipref>clipitem-375</linkclipref>
							<mediatype>audio</mediatype>
							<trackindex>4</trackindex>
							<clipindex>5</clipindex>
							<groupindex>1</groupindex>
						</link>
						<link>
							<linkclipref>clipitem-381</linkclipref>
							<mediatype>audio</mediatype>
							<trackindex>5</trackindex>
							<clipindex>5</clipindex>
							<groupindex>1</groupindex>
						</link>
						<link>
							<linkclipref>clipitem-387</linkclipref>
							<mediatype>audio</mediatype>
							<trackindex>6</trackindex>
							<clipindex>5</clipindex>
							<groupindex>1</groupindex>
						</link>
						<link>
							<linkclipref>clipitem-393</linkclipref>
							<mediatype>audio</mediatype>
							<trackindex>7</trackindex>
							<clipindex>5</clipindex>
							<groupindex>1</groupindex>
						</link>
						<link>
							<linkclipref>clipitem-399</linkclipref>
							<mediatype>audio</mediatype>
							<trackindex>8</trackindex>
							<clipindex>5</clipindex>
							<groupindex>1</groupindex>
						</link>
					</clipitem>
					<clipitem id="clipitem-394" premiereChannelType="stereo">
						
						
						<masterclipid>masterclip-29</masterclipid>
						
						
						<name>C6196.MP4</name>
						
						
						<enabled>TRUE</enabled>
						
						
						<duration>98676</duration>
						
						
						<rate>
							
							
							<timebase>24</timebase>
							
							
							<ntsc>TRUE</ntsc>
							
						
						</rate>
						
						
						<start>75684</start>
						
						
						<end>91254</end>
						
						
						<in>82108</in>
						
						
						<out>97678</out>
						
						
						<pproTicksIn>869900103071999</pproTicksIn>
						
						
						<pproTicksOut>1034857775951999</pproTicksOut>
						
						
						<file id="file-29"/>
						
						
						<sourcetrack>
							
							
							<mediatype>audio</mediatype>
							
							
							<trackindex>1</trackindex>
							
						
						</sourcetrack>
						
							
						<marker>
							
								
							<comment/>
							
								
							<name/>
							
								
							<in>2697</in>
							
								
							<out>-1</out>
							
							
						</marker>
						
						
						<logginginfo>
							
							
							<description/>
							
							
							<scene/>
							
							
							<shottake/>
							
							
							<lognote/>
							
							
							<good/>
							
							
							<originalvideofilename/>
							
							
							<originalaudiofilename/>
							
						
						</logginginfo>
						
						
						<colorinfo>
							
							
							<lut/>
							
							
							<lut1/>
							
							
							<asc_sop/>
							
							
							<asc_sat/>
							
							
							<lut2/>
							
						
						</colorinfo>
						
						
						<labels>
							
							
							<label2>Caribbean</label2>
							
						
						</labels>
						
					
						<link>
							<linkclipref>clipitem-340</linkclipref>
							<mediatype>video</mediatype>
							<trackindex>1</trackindex>
							<clipindex>6</clipindex>
							<groupindex>1</groupindex>
						</link>
						<link>
							<linkclipref>clipitem-346</linkclipref>
							<mediatype>video</mediatype>
							<trackindex>2</trackindex>
							<clipindex>6</clipindex>
							<groupindex>1</groupindex>
						</link>
						<link>
							<linkclipref>clipitem-352</linkclipref>
							<mediatype>video</mediatype>
							<trackindex>3</trackindex>
							<clipindex>6</clipindex>
							<groupindex>1</groupindex>
						</link>
						<link>
							<linkclipref>clipitem-358</linkclipref>
							<mediatype>audio</mediatype>
							<trackindex>1</trackindex>
							<clipindex>6</clipindex>
							<groupindex>1</groupindex>
						</link>
						<link>
							<linkclipref>clipitem-364</linkclipref>
							<mediatype>audio</mediatype>
							<trackindex>2</trackindex>
							<clipindex>6</clipindex>
							<groupindex>1</groupindex>
						</link>
						<link>
							<linkclipref>clipitem-370</linkclipref>
							<mediatype>audio</mediatype>
							<trackindex>3</trackindex>
							<clipindex>6</clipindex>
							<groupindex>1</groupindex>
						</link>
						<link>
							<linkclipref>clipitem-376</linkclipref>
							<mediatype>audio</mediatype>
							<trackindex>4</trackindex>
							<clipindex>6</clipindex>
							<groupindex>1</groupindex>
						</link>
						<link>
							<linkclipref>clipitem-382</linkclipref>
							<mediatype>audio</mediatype>
							<trackindex>5</trackindex>
							<clipindex>6</clipindex>
							<groupindex>1</groupindex>
						</link>
						<link>
							<linkclipref>clipitem-388</linkclipref>
							<mediatype>audio</mediatype>
							<trackindex>6</trackindex>
							<clipindex>6</clipindex>
							<groupindex>1</groupindex>
						</link>
						<link>
							<linkclipref>clipitem-394</linkclipref>
							<mediatype>audio</mediatype>
							<trackindex>7</trackindex>
							<clipindex>6</clipindex>
							<groupindex>1</groupindex>
						</link>
						<link>
							<linkclipref>clipitem-400</linkclipref>
							<mediatype>audio</mediatype>
							<trackindex>8</trackindex>
							<clipindex>6</clipindex>
							<groupindex>1</groupindex>
						</link>
					</clipitem>
					<enabled>TRUE</enabled>
					<locked>FALSE</locked>
					<outputchannelindex>1</outputchannelindex>
				</track>
				<track TL.SQTrackAudioKeyframeStyle="0" TL.SQTrackShy="0" TL.SQTrackExpandedHeight="41" TL.SQTrackExpanded="0" MZ.TrackTargeted="1" PannerCurrentValue="0.5" PannerIsInverted="true" PannerStartKeyframe="-91445760000000000,0.5,0,0,0,0,0,0" PannerName="Balance" currentExplodedTrackIndex="1" totalExplodedTrackCount="2" premiereTrackType="Stereo">
					<clipitem id="clipitem-395" premiereChannelType="stereo">
						
						
						<masterclipid>masterclip-29</masterclipid>
						
						
						<name>C6196.MP4</name>
						
						
						<enabled>TRUE</enabled>
						
						
						<duration>98676</duration>
						
						
						<rate>
							
							
							<timebase>24</timebase>
							
							
							<ntsc>TRUE</ntsc>
							
						
						</rate>
						
						
						<start>120</start>
						
						
						<end>17739</end>
						
						
						<in>2674</in>
						
						
						<out>20293</out>
						
						
						<pproTicksIn>28329917616000</pproTicksIn>
						
						
						<pproTicksOut>214995893112000</pproTicksOut>
						
						
						<file id="file-29"/>
						
						
						<sourcetrack>
							
							
							<mediatype>audio</mediatype>
							
							
							<trackindex>2</trackindex>
							
						
						</sourcetrack>
						
							
						<marker>
							
								
							<comment/>
							
								
							<name/>
							
								
							<in>2697</in>
							
								
							<out>-1</out>
							
							
						</marker>
						
						
						<logginginfo>
							
							
							<description/>
							
							
							<scene/>
							
							
							<shottake/>
							
							
							<lognote/>
							
							
							<good/>
							
							
							<originalvideofilename/>
							
							
							<originalaudiofilename/>
							
						
						</logginginfo>
						
						
						<colorinfo>
							
							
							<lut/>
							
							
							<lut1/>
							
							
							<asc_sop/>
							
							
							<asc_sat/>
							
							
							<lut2/>
							
						
						</colorinfo>
						
						
						<labels>
							
							
							<label2>Violet</label2>
							
						
						</labels>
						
					
						<link>
							<linkclipref>clipitem-335</linkclipref>
							<mediatype>video</mediatype>
							<trackindex>1</trackindex>
							<clipindex>1</clipindex>
							<groupindex>1</groupindex>
						</link>
						<link>
							<linkclipref>clipitem-341</linkclipref>
							<mediatype>video</mediatype>
							<trackindex>2</trackindex>
							<clipindex>1</clipindex>
							<groupindex>1</groupindex>
						</link>
						<link>
							<linkclipref>clipitem-347</linkclipref>
							<mediatype>video</mediatype>
							<trackindex>3</trackindex>
							<clipindex>1</clipindex>
							<groupindex>1</groupindex>
						</link>
						<link>
							<linkclipref>clipitem-353</linkclipref>
							<mediatype>audio</mediatype>
							<trackindex>1</trackindex>
							<clipindex>1</clipindex>
							<groupindex>1</groupindex>
						</link>
						<link>
							<linkclipref>clipitem-359</linkclipref>
							<mediatype>audio</mediatype>
							<trackindex>2</trackindex>
							<clipindex>1</clipindex>
							<groupindex>1</groupindex>
						</link>
						<link>
							<linkclipref>clipitem-365</linkclipref>
							<mediatype>audio</mediatype>
							<trackindex>3</trackindex>
							<clipindex>1</clipindex>
							<groupindex>1</groupindex>
						</link>
						<link>
							<linkclipref>clipitem-371</linkclipref>
							<mediatype>audio</mediatype>
							<trackindex>4</trackindex>
							<clipindex>1</clipindex>
							<groupindex>1</groupindex>
						</link>
						<link>
							<linkclipref>clipitem-377</linkclipref>
							<mediatype>audio</mediatype>
							<trackindex>5</trackindex>
							<clipindex>1</clipindex>
							<groupindex>1</groupindex>
						</link>
						<link>
							<linkclipref>clipitem-383</linkclipref>
							<mediatype>audio</mediatype>
							<trackindex>6</trackindex>
							<clipindex>1</clipindex>
							<groupindex>1</groupindex>
						</link>
						<link>
							<linkclipref>clipitem-389</linkclipref>
							<mediatype>audio</mediatype>
							<trackindex>7</trackindex>
							<clipindex>1</clipindex>
							<groupindex>1</groupindex>
						</link>
						<link>
							<linkclipref>clipitem-395</linkclipref>
							<mediatype>audio</mediatype>
							<trackindex>8</trackindex>
							<clipindex>1</clipindex>
							<groupindex>1</groupindex>
						</link>
					</clipitem>
					<clipitem id="clipitem-396" premiereChannelType="stereo">
						
						
						<masterclipid>masterclip-29</masterclipid>
						
						
						<name>C6196.MP4</name>
						
						
						<enabled>TRUE</enabled>
						
						
						<duration>98676</duration>
						
						
						<rate>
							
							
							<timebase>24</timebase>
							
							
							<ntsc>TRUE</ntsc>
							
						
						</rate>
						
						
						<start>18101</start>
						
						
						<end>31863</end>
						
						
						<in>21243</in>
						
						
						<out>35005</out>
						
						
						<pproTicksIn>225060747911999</pproTicksIn>
						
						
						<pproTicksOut>370863412919999</pproTicksOut>
						
						
						<file id="file-29"/>
						
						
						<sourcetrack>
							
							
							<mediatype>audio</mediatype>
							
							
							<trackindex>2</trackindex>
							
						
						</sourcetrack>
						
							
						<marker>
							
								
							<comment/>
							
								
							<name/>
							
								
							<in>2697</in>
							
								
							<out>-1</out>
							
							
						</marker>
						
						
						<logginginfo>
							
							
							<description/>
							
							
							<scene/>
							
							
							<shottake/>
							
							
							<lognote/>
							
							
							<good/>
							
							
							<originalvideofilename/>
							
							
							<originalaudiofilename/>
							
						
						</logginginfo>
						
						
						<colorinfo>
							
							
							<lut/>
							
							
							<lut1/>
							
							
							<asc_sop/>
							
							
							<asc_sat/>
							
							
							<lut2/>
							
						
						</colorinfo>
						
						
						<labels>
							
							
							<label2>Rose</label2>
							
						
						</labels>
						
					
						<link>
							<linkclipref>clipitem-336</linkclipref>
							<mediatype>video</mediatype>
							<trackindex>1</trackindex>
							<clipindex>2</clipindex>
							<groupindex>1</groupindex>
						</link>
						<link>
							<linkclipref>clipitem-342</linkclipref>
							<mediatype>video</mediatype>
							<trackindex>2</trackindex>
							<clipindex>2</clipindex>
							<groupindex>1</groupindex>
						</link>
						<link>
							<linkclipref>clipitem-348</linkclipref>
							<mediatype>video</mediatype>
							<trackindex>3</trackindex>
							<clipindex>2</clipindex>
							<groupindex>1</groupindex>
						</link>
						<link>
							<linkclipref>clipitem-354</linkclipref>
							<mediatype>audio</mediatype>
							<trackindex>1</trackindex>
							<clipindex>2</clipindex>
							<groupindex>1</groupindex>
						</link>
						<link>
							<linkclipref>clipitem-360</linkclipref>
							<mediatype>audio</mediatype>
							<trackindex>2</trackindex>
							<clipindex>2</clipindex>
							<groupindex>1</groupindex>
						</link>
						<link>
							<linkclipref>clipitem-366</linkclipref>
							<mediatype>audio</mediatype>
							<trackindex>3</trackindex>
							<clipindex>2</clipindex>
							<groupindex>1</groupindex>
						</link>
						<link>
							<linkclipref>clipitem-372</linkclipref>
							<mediatype>audio</mediatype>
							<trackindex>4</trackindex>
							<clipindex>2</clipindex>
							<groupindex>1</groupindex>
						</link>
						<link>
							<linkclipref>clipitem-378</linkclipref>
							<mediatype>audio</mediatype>
							<trackindex>5</trackindex>
							<clipindex>2</clipindex>
							<groupindex>1</groupindex>
						</link>
						<link>
							<linkclipref>clipitem-384</linkclipref>
							<mediatype>audio</mediatype>
							<trackindex>6</trackindex>
							<clipindex>2</clipindex>
							<groupindex>1</groupindex>
						</link>
						<link>
							<linkclipref>clipitem-390</linkclipref>
							<mediatype>audio</mediatype>
							<trackindex>7</trackindex>
							<clipindex>2</clipindex>
							<groupindex>1</groupindex>
						</link>
						<link>
							<linkclipref>clipitem-396</linkclipref>
							<mediatype>audio</mediatype>
							<trackindex>8</trackindex>
							<clipindex>2</clipindex>
							<groupindex>1</groupindex>
						</link>
					</clipitem>
					<clipitem id="clipitem-397" premiereChannelType="stereo">
						
						
						<masterclipid>masterclip-29</masterclipid>
						
						
						<name>C6196.MP4</name>
						
						
						<enabled>TRUE</enabled>
						
						
						<duration>98676</duration>
						
						
						<rate>
							
							
							<timebase>24</timebase>
							
							
							<ntsc>TRUE</ntsc>
							
						
						</rate>
						
						
						<start>32225</start>
						
						
						<end>47985</end>
						
						
						<in>36225</in>
						
						
						<out>51985</out>
						
						
						<pproTicksIn>383788805399999</pproTicksIn>
						
						
						<pproTicksOut>550759449240000</pproTicksOut>
						
						
						<file id="file-29"/>
						
						
						<sourcetrack>
							
							
							<mediatype>audio</mediatype>
							
							
							<trackindex>2</trackindex>
							
						
						</sourcetrack>
						
							
						<marker>
							
								
							<comment/>
							
								
							<name/>
							
								
							<in>2697</in>
							
								
							<out>-1</out>
							
							
						</marker>
						
						
						<logginginfo>
							
							
							<description/>
							
							
							<scene/>
							
							
							<shottake/>
							
							
							<lognote/>
							
							
							<good/>
							
							
							<originalvideofilename/>
							
							
							<originalaudiofilename/>
							
						
						</logginginfo>
						
						
						<colorinfo>
							
							
							<lut/>
							
							
							<lut1/>
							
							
							<asc_sop/>
							
							
							<asc_sat/>
							
							
							<lut2/>
							
						
						</colorinfo>
						
						
						<labels>
							
							
							<label2>Mango</label2>
							
						
						</labels>
						
					
						<link>
							<linkclipref>clipitem-337</linkclipref>
							<mediatype>video</mediatype>
							<trackindex>1</trackindex>
							<clipindex>3</clipindex>
							<groupindex>1</groupindex>
						</link>
						<link>
							<linkclipref>clipitem-343</linkclipref>
							<mediatype>video</mediatype>
							<trackindex>2</trackindex>
							<clipindex>3</clipindex>
							<groupindex>1</groupindex>
						</link>
						<link>
							<linkclipref>clipitem-349</linkclipref>
							<mediatype>video</mediatype>
							<trackindex>3</trackindex>
							<clipindex>3</clipindex>
							<groupindex>1</groupindex>
						</link>
						<link>
							<linkclipref>clipitem-355</linkclipref>
							<mediatype>audio</mediatype>
							<trackindex>1</trackindex>
							<clipindex>3</clipindex>
							<groupindex>1</groupindex>
						</link>
						<link>
							<linkclipref>clipitem-361</linkclipref>
							<mediatype>audio</mediatype>
							<trackindex>2</trackindex>
							<clipindex>3</clipindex>
							<groupindex>1</groupindex>
						</link>
						<link>
							<linkclipref>clipitem-367</linkclipref>
							<mediatype>audio</mediatype>
							<trackindex>3</trackindex>
							<clipindex>3</clipindex>
							<groupindex>1</groupindex>
						</link>
						<link>
							<linkclipref>clipitem-373</linkclipref>
							<mediatype>audio</mediatype>
							<trackindex>4</trackindex>
							<clipindex>3</clipindex>
							<groupindex>1</groupindex>
						</link>
						<link>
							<linkclipref>clipitem-379</linkclipref>
							<mediatype>audio</mediatype>
							<trackindex>5</trackindex>
							<clipindex>3</clipindex>
							<groupindex>1</groupindex>
						</link>
						<link>
							<linkclipref>clipitem-385</linkclipref>
							<mediatype>audio</mediatype>
							<trackindex>6</trackindex>
							<clipindex>3</clipindex>
							<groupindex>1</groupindex>
						</link>
						<link>
							<linkclipref>clipitem-391</linkclipref>
							<mediatype>audio</mediatype>
							<trackindex>7</trackindex>
							<clipindex>3</clipindex>
							<groupindex>1</groupindex>
						</link>
						<link>
							<linkclipref>clipitem-397</linkclipref>
							<mediatype>audio</mediatype>
							<trackindex>8</trackindex>
							<clipindex>3</clipindex>
							<groupindex>1</groupindex>
						</link>
					</clipitem>
					<clipitem id="clipitem-398" premiereChannelType="stereo">
						
						
						<masterclipid>masterclip-29</masterclipid>
						
						
						<name>C6196.MP4</name>
						
						
						<enabled>TRUE</enabled>
						
						
						<duration>98676</duration>
						
						
						<rate>
							
							
							<timebase>24</timebase>
							
							
							<ntsc>TRUE</ntsc>
							
						
						</rate>
						
						
						<start>48347</start>
						
						
						<end>62769</end>
						
						
						<in>53297</in>
						
						
						<out>67719</out>
						
						
						<pproTicksIn>564659543447999</pproTicksIn>
						
						
						<pproTicksOut>717454633895999</pproTicksOut>
						
						
						<file id="file-29"/>
						
						
						<sourcetrack>
							
							
							<mediatype>audio</mediatype>
							
							
							<trackindex>2</trackindex>
							
						
						</sourcetrack>
						
							
						<marker>
							
								
							<comment/>
							
								
							<name/>
							
								
							<in>2697</in>
							
								
							<out>-1</out>
							
							
						</marker>
						
						
						<logginginfo>
							
							
							<description/>
							
							
							<scene/>
							
							
							<shottake/>
							
							
							<lognote/>
							
							
							<good/>
							
							
							<originalvideofilename/>
							
							
							<originalaudiofilename/>
							
						
						</logginginfo>
						
						
						<colorinfo>
							
							
							<lut/>
							
							
							<lut1/>
							
							
							<asc_sop/>
							
							
							<asc_sat/>
							
							
							<lut2/>
							
						
						</colorinfo>
						
						
						<labels>
							
							
							<label2>Yellow</label2>
							
						
						</labels>
						
					
						<link>
							<linkclipref>clipitem-338</linkclipref>
							<mediatype>video</mediatype>
							<trackindex>1</trackindex>
							<clipindex>4</clipindex>
							<groupindex>1</groupindex>
						</link>
						<link>
							<linkclipref>clipitem-344</linkclipref>
							<mediatype>video</mediatype>
							<trackindex>2</trackindex>
							<clipindex>4</clipindex>
							<groupindex>1</groupindex>
						</link>
						<link>
							<linkclipref>clipitem-350</linkclipref>
							<mediatype>video</mediatype>
							<trackindex>3</trackindex>
							<clipindex>4</clipindex>
							<groupindex>1</groupindex>
						</link>
						<link>
							<linkclipref>clipitem-356</linkclipref>
							<mediatype>audio</mediatype>
							<trackindex>1</trackindex>
							<clipindex>4</clipindex>
							<groupindex>1</groupindex>
						</link>
						<link>
							<linkclipref>clipitem-362</linkclipref>
							<mediatype>audio</mediatype>
							<trackindex>2</trackindex>
							<clipindex>4</clipindex>
							<groupindex>1</groupindex>
						</link>
						<link>
							<linkclipref>clipitem-368</linkclipref>
							<mediatype>audio</mediatype>
							<trackindex>3</trackindex>
							<clipindex>4</clipindex>
							<groupindex>1</groupindex>
						</link>
						<link>
							<linkclipref>clipitem-374</linkclipref>
							<mediatype>audio</mediatype>
							<trackindex>4</trackindex>
							<clipindex>4</clipindex>
							<groupindex>1</groupindex>
						</link>
						<link>
							<linkclipref>clipitem-380</linkclipref>
							<mediatype>audio</mediatype>
							<trackindex>5</trackindex>
							<clipindex>4</clipindex>
							<groupindex>1</groupindex>
						</link>
						<link>
							<linkclipref>clipitem-386</linkclipref>
							<mediatype>audio</mediatype>
							<trackindex>6</trackindex>
							<clipindex>4</clipindex>
							<groupindex>1</groupindex>
						</link>
						<link>
							<linkclipref>clipitem-392</linkclipref>
							<mediatype>audio</mediatype>
							<trackindex>7</trackindex>
							<clipindex>4</clipindex>
							<groupindex>1</groupindex>
						</link>
						<link>
							<linkclipref>clipitem-398</linkclipref>
							<mediatype>audio</mediatype>
							<trackindex>8</trackindex>
							<clipindex>4</clipindex>
							<groupindex>1</groupindex>
						</link>
					</clipitem>
					<clipitem id="clipitem-399" premiereChannelType="stereo">
						
						
						<masterclipid>masterclip-29</masterclipid>
						
						
						<name>C6196.MP4</name>
						
						
						<enabled>TRUE</enabled>
						
						
						<duration>98676</duration>
						
						
						<rate>
							
							
							<timebase>24</timebase>
							
							
							<ntsc>TRUE</ntsc>
							
						
						</rate>
						
						
						<start>63131</start>
						
						
						<end>75322</end>
						
						
						<in>68302</in>
						
						
						<out>80493</out>
						
						
						<pproTicksIn>723631276368000</pproTicksIn>
						
						
						<pproTicksOut>852789849912000</pproTicksOut>
						
						
						<file id="file-29"/>
						
						
						<sourcetrack>
							
							
							<mediatype>audio</mediatype>
							
							
							<trackindex>2</trackindex>
							
						
						</sourcetrack>
						
							
						<marker>
							
								
							<comment/>
							
								
							<name/>
							
								
							<in>2697</in>
							
								
							<out>-1</out>
							
							
						</marker>
						
						
						<logginginfo>
							
							
							<description/>
							
							
							<scene/>
							
							
							<shottake/>
							
							
							<lognote/>
							
							
							<good/>
							
							
							<originalvideofilename/>
							
							
							<originalaudiofilename/>
							
						
						</logginginfo>
						
						
						<colorinfo>
							
							
							<lut/>
							
							
							<lut1/>
							
							
							<asc_sop/>
							
							
							<asc_sat/>
							
							
							<lut2/>
							
						
						</colorinfo>
						
						
						<labels>
							
							
							<label2>Lavender</label2>
							
						
						</labels>
						
					
						<link>
							<linkclipref>clipitem-339</linkclipref>
							<mediatype>video</mediatype>
							<trackindex>1</trackindex>
							<clipindex>5</clipindex>
							<groupindex>1</groupindex>
						</link>
						<link>
							<linkclipref>clipitem-345</linkclipref>
							<mediatype>video</mediatype>
							<trackindex>2</trackindex>
							<clipindex>5</clipindex>
							<groupindex>1</groupindex>
						</link>
						<link>
							<linkclipref>clipitem-351</linkclipref>
							<mediatype>video</mediatype>
							<trackindex>3</trackindex>
							<clipindex>5</clipindex>
							<groupindex>1</groupindex>
						</link>
						<link>
							<linkclipref>clipitem-357</linkclipref>
							<mediatype>audio</mediatype>
							<trackindex>1</trackindex>
							<clipindex>5</clipindex>
							<groupindex>1</groupindex>
						</link>
						<link>
							<linkclipref>clipitem-363</linkclipref>
							<mediatype>audio</mediatype>
							<trackindex>2</trackindex>
							<clipindex>5</clipindex>
							<groupindex>1</groupindex>
						</link>
						<link>
							<linkclipref>clipitem-369</linkclipref>
							<mediatype>audio</mediatype>
							<trackindex>3</trackindex>
							<clipindex>5</clipindex>
							<groupindex>1</groupindex>
						</link>
						<link>
							<linkclipref>clipitem-375</linkclipref>
							<mediatype>audio</mediatype>
							<trackindex>4</trackindex>
							<clipindex>5</clipindex>
							<groupindex>1</groupindex>
						</link>
						<link>
							<linkclipref>clipitem-381</linkclipref>
							<mediatype>audio</mediatype>
							<trackindex>5</trackindex>
							<clipindex>5</clipindex>
							<groupindex>1</groupindex>
						</link>
						<link>
							<linkclipref>clipitem-387</linkclipref>
							<mediatype>audio</mediatype>
							<trackindex>6</trackindex>
							<clipindex>5</clipindex>
							<groupindex>1</groupindex>
						</link>
						<link>
							<linkclipref>clipitem-393</linkclipref>
							<mediatype>audio</mediatype>
							<trackindex>7</trackindex>
							<clipindex>5</clipindex>
							<groupindex>1</groupindex>
						</link>
						<link>
							<linkclipref>clipitem-399</linkclipref>
							<mediatype>audio</mediatype>
							<trackindex>8</trackindex>
							<clipindex>5</clipindex>
							<groupindex>1</groupindex>
						</link>
					</clipitem>
					<clipitem id="clipitem-400" premiereChannelType="stereo">
						
						
						<masterclipid>masterclip-29</masterclipid>
						
						
						<name>C6196.MP4</name>
						
						
						<enabled>TRUE</enabled>
						
						
						<duration>98676</duration>
						
						
						<rate>
							
							
							<timebase>24</timebase>
							
							
							<ntsc>TRUE</ntsc>
							
						
						</rate>
						
						
						<start>75684</start>
						
						
						<end>91254</end>
						
						
						<in>82108</in>
						
						
						<out>97678</out>
						
						
						<pproTicksIn>869900103071999</pproTicksIn>
						
						
						<pproTicksOut>1034857775951999</pproTicksOut>
						
						
						<file id="file-29"/>
						
						
						<sourcetrack>
							
							
							<mediatype>audio</mediatype>
							
							
							<trackindex>2</trackindex>
							
						
						</sourcetrack>
						
							
						<marker>
							
								
							<comment/>
							
								
							<name/>
							
								
							<in>2697</in>
							
								
							<out>-1</out>
							
							
						</marker>
						
						
						<logginginfo>
							
							
							<description/>
							
							
							<scene/>
							
							
							<shottake/>
							
							
							<lognote/>
							
							
							<good/>
							
							
							<originalvideofilename/>
							
							
							<originalaudiofilename/>
							
						
						</logginginfo>
						
						
						<colorinfo>
							
							
							<lut/>
							
							
							<lut1/>
							
							
							<asc_sop/>
							
							
							<asc_sat/>
							
							
							<lut2/>
							
						
						</colorinfo>
						
						
						<labels>
							
							
							<label2>Caribbean</label2>
							
						
						</labels>
						
					
						<link>
							<linkclipref>clipitem-340</linkclipref>
							<mediatype>video</mediatype>
							<trackindex>1</trackindex>
							<clipindex>6</clipindex>
							<groupindex>1</groupindex>
						</link>
						<link>
							<linkclipref>clipitem-346</linkclipref>
							<mediatype>video</mediatype>
							<trackindex>2</trackindex>
							<clipindex>6</clipindex>
							<groupindex>1</groupindex>
						</link>
						<link>
							<linkclipref>clipitem-352</linkclipref>
							<mediatype>video</mediatype>
							<trackindex>3</trackindex>
							<clipindex>6</clipindex>
							<groupindex>1</groupindex>
						</link>
						<link>
							<linkclipref>clipitem-358</linkclipref>
							<mediatype>audio</mediatype>
							<trackindex>1</trackindex>
							<clipindex>6</clipindex>
							<groupindex>1</groupindex>
						</link>
						<link>
							<linkclipref>clipitem-364</linkclipref>
							<mediatype>audio</mediatype>
							<trackindex>2</trackindex>
							<clipindex>6</clipindex>
							<groupindex>1</groupindex>
						</link>
						<link>
							<linkclipref>clipitem-370</linkclipref>
							<mediatype>audio</mediatype>
							<trackindex>3</trackindex>
							<clipindex>6</clipindex>
							<groupindex>1</groupindex>
						</link>
						<link>
							<linkclipref>clipitem-376</linkclipref>
							<mediatype>audio</mediatype>
							<trackindex>4</trackindex>
							<clipindex>6</clipindex>
							<groupindex>1</groupindex>
						</link>
						<link>
							<linkclipref>clipitem-382</linkclipref>
							<mediatype>audio</mediatype>
							<trackindex>5</trackindex>
							<clipindex>6</clipindex>
							<groupindex>1</groupindex>
						</link>
						<link>
							<linkclipref>clipitem-388</linkclipref>
							<mediatype>audio</mediatype>
							<trackindex>6</trackindex>
							<clipindex>6</clipindex>
							<groupindex>1</groupindex>
						</link>
						<link>
							<linkclipref>clipitem-394</linkclipref>
							<mediatype>audio</mediatype>
							<trackindex>7</trackindex>
							<clipindex>6</clipindex>
							<groupindex>1</groupindex>
						</link>
						<link>
							<linkclipref>clipitem-400</linkclipref>
							<mediatype>audio</mediatype>
							<trackindex>8</trackindex>
							<clipindex>6</clipindex>
							<groupindex>1</groupindex>
						</link>
					</clipitem>
					<enabled>TRUE</enabled>
					<locked>FALSE</locked>
					<outputchannelindex>2</outputchannelindex>
				</track>
			</audio>
		</media>
	</sequence>
</xmeml>
